<?xml version="1.0" encoding="UTF-8"?>
<svg width="100px" height="100px" viewBox="0 0 100 100" version="1.1" xmlns="http://www.w3.org/2000/svg" xmlns:xlink="http://www.w3.org/1999/xlink">
    <title>Cast</title>
    <g id="Placeholders" stroke="none" stroke-width="1" fill="none" fill-rule="evenodd">
        <g id="Empty-placeholders" transform="translate(-1080, -0)" fill="#000000" fill-rule="nonzero">
            <g id="Cast" transform="translate(1080, 0)">
                <path d="M57.8336041,92.3321146 C80.8596018,92.3321146 100,73.233362 100,50.1660573 C100,27.1400595 80.8182864,8 57.7922886,8 C36.2958938,8 18.3132595,24.6183778 15.9569496,45.5774178 C17.5691581,45.2466402 19.2641075,45.0812937 21.0003723,45.0812937 C33.608781,45.0812937 44.2743475,54.0519108 46.9200602,65.5442943 C50.1858433,64.7174773 53.8237195,64.2627534 57.7922886,64.2627534 C70.2767509,64.2627534 79.8674384,68.8927083 83.918723,73.7294268 C77.717765,80.7984444 68.0857621,85.387106 57.7922886,85.387106 C53.5756575,85.387106 48.987018,84.5603144 45.0597643,82.948089 C44.5224095,84.4776411 43.0755221,86.7926356 41.2979418,88.8595849 C46.4240208,91.1332892 51.9634236,92.3321146 57.8336041,92.3321146 Z M57.7922886,57.2350631 C49.813835,57.1523475 43.6542771,50.5380657 43.6128769,41.6501641 C43.530246,33.2996174 49.8551504,26.3546427 57.7922886,26.3546427 C65.6881114,26.3546427 71.9716156,33.2996174 71.9716156,41.6501641 C71.9716156,50.5380657 65.7294268,57.3177786 57.7922886,57.2350631 Z M21.0003723,92.7868385 C32.3686402,92.7868385 42.0007278,83.2787989 42.0007278,71.7864831 C42.0007278,60.2528688 32.5339866,50.7861277 21.0003723,50.7861277 C9.50802273,50.7861277 0,60.2941843 0,71.7864831 C0,83.3614806 9.50802273,92.7868385 21.0003723,92.7868385 Z M20.6282793,76.9952353 C19.222792,76.9952353 18.3959751,76.1684438 18.3959751,74.7629142 L18.3959751,74.6388916 C18.3959751,72.0758606 19.8014623,70.7530042 21.6617582,69.4714633 C23.852747,67.941945 25.1342879,67.0738126 25.1342879,65.2135167 C25.1342879,63.4773365 23.728716,62.3198266 21.5791273,62.3198266 C19.677516,62.3198266 18.5200061,63.1465589 17.6105582,64.1387224 C16.8250567,64.9241392 16.2463271,65.7096408 15.0888257,65.7096408 C13.8073102,65.7096408 12.9391862,64.8415083 12.9391862,63.5599674 C12.9391862,60.3768152 17.1971497,58.1031955 21.5377272,58.1031955 C26.6638062,58.1031955 30.0123049,60.9555701 30.0123049,64.9655394 C30.0123049,68.190007 28.0693781,69.5541789 25.6716428,71.2904437 C23.976778,72.5719338 23.1086456,73.3573761 22.9846146,75.0109508 C22.8192681,76.2511255 22.1164821,76.9952353 20.6282793,76.9952353 Z M20.6282793,85.1804102 C18.9334146,85.1804102 17.5278426,83.7748721 17.5278426,82.079965 C17.5278426,80.385052 18.9334146,78.9795199 20.6282793,78.9795199 C22.4058596,78.9795199 23.7700314,80.385052 23.7700314,82.079965 C23.7700314,83.7748721 22.4058596,85.1804102 20.6282793,85.1804102 Z"></path>
            </g>
        </g>
    </g>
</svg>