<?xml version="1.0" encoding="UTF-8"?>
<!--Generator: Apple Native CoreSVG 149-->
<!DOCTYPE svg
PUBLIC "-//W3C//DTD SVG 1.1//EN"
       "http://www.w3.org/Graphics/SVG/1.1/DTD/svg11.dtd">
<svg version="1.1" xmlns="http://www.w3.org/2000/svg" xmlns:xlink="http://www.w3.org/1999/xlink" width="3300" height="2200">
 <!--glyph: "", point size: 100.0, font version: "17.0d8e1", template writer version: "58"-->
 <g id="Notes">
  <rect height="2200" id="artboard" style="fill:white;opacity:1" width="3300" x="0" y="0"/>
  <line style="fill:none;stroke:black;opacity:1;stroke-width:0.5;" x1="263" x2="3036" y1="292" y2="292"/>
  <text style="stroke:none;fill:black;font-family:SF Pro,SF Pro Display,SF Pro Text,sans-serif;font-size:13;font-weight:bold;" transform="matrix(1 0 0 1 263 322)">Weight/Scale Variations</text>
  <text style="stroke:none;fill:black;font-family:SF Pro,SF Pro Display,SF Pro Text,sans-serif;font-size:13;text-anchor:middle;" transform="matrix(1 0 0 1 559.711 322)">Ultralight</text>
  <text style="stroke:none;fill:black;font-family:SF Pro,SF Pro Display,SF Pro Text,sans-serif;font-size:13;text-anchor:middle;" transform="matrix(1 0 0 1 856.422 322)">Thin</text>
  <text style="stroke:none;fill:black;font-family:SF Pro,SF Pro Display,SF Pro Text,sans-serif;font-size:13;text-anchor:middle;" transform="matrix(1 0 0 1 1153.13 322)">Light</text>
  <text style="stroke:none;fill:black;font-family:SF Pro,SF Pro Display,SF Pro Text,sans-serif;font-size:13;text-anchor:middle;" transform="matrix(1 0 0 1 1449.84 322)">Regular</text>
  <text style="stroke:none;fill:black;font-family:SF Pro,SF Pro Display,SF Pro Text,sans-serif;font-size:13;text-anchor:middle;" transform="matrix(1 0 0 1 1746.56 322)">Medium</text>
  <text style="stroke:none;fill:black;font-family:SF Pro,SF Pro Display,SF Pro Text,sans-serif;font-size:13;text-anchor:middle;" transform="matrix(1 0 0 1 2043.27 322)">Semibold</text>
  <text style="stroke:none;fill:black;font-family:SF Pro,SF Pro Display,SF Pro Text,sans-serif;font-size:13;text-anchor:middle;" transform="matrix(1 0 0 1 2339.98 322)">Bold</text>
  <text style="stroke:none;fill:black;font-family:SF Pro,SF Pro Display,SF Pro Text,sans-serif;font-size:13;text-anchor:middle;" transform="matrix(1 0 0 1 2636.69 322)">Heavy</text>
  <text style="stroke:none;fill:black;font-family:SF Pro,SF Pro Display,SF Pro Text,sans-serif;font-size:13;text-anchor:middle;" transform="matrix(1 0 0 1 2933.4 322)">Black</text>
  <line style="fill:none;stroke:black;opacity:1;stroke-width:0.5;" x1="263" x2="3036" y1="1903" y2="1903"/>
  <g transform="matrix(1 0 0 1 263 1933)">
   <path d="M9.24805 0.830078Q10.8691 0.830078 12.2949 0.214844Q13.7207-0.400391 14.8096-1.49414Q15.8984-2.58789 16.5186-4.01367Q17.1387-5.43945 17.1387-7.05078Q17.1387-8.66211 16.5186-10.0879Q15.8984-11.5137 14.8047-12.6074Q13.7109-13.7012 12.2852-14.3164Q10.8594-14.9316 9.23828-14.9316Q7.62695-14.9316 6.20117-14.3164Q4.77539-13.7012 3.69141-12.6074Q2.60742-11.5137 1.9873-10.0879Q1.36719-8.66211 1.36719-7.05078Q1.36719-5.43945 1.9873-4.01367Q2.60742-2.58789 3.69629-1.49414Q4.78516-0.400391 6.21094 0.214844Q7.63672 0.830078 9.24805 0.830078ZM9.24805-0.654297Q7.91992-0.654297 6.7627-1.14746Q5.60547-1.64062 4.73145-2.51953Q3.85742-3.39844 3.36426-4.56055Q2.87109-5.72266 2.87109-7.05078Q2.87109-8.37891 3.35938-9.54102Q3.84766-10.7031 4.72168-11.582Q5.5957-12.4609 6.75293-12.9541Q7.91016-13.4473 9.23828-13.4473Q10.5762-13.4473 11.7334-12.9541Q12.8906-12.4609 13.7695-11.582Q14.6484-10.7031 15.1465-9.54102Q15.6445-8.37891 15.6445-7.05078Q15.6445-5.72266 15.1514-4.56055Q14.6582-3.39844 13.7842-2.51953Q12.9102-1.64062 11.748-1.14746Q10.5859-0.654297 9.24805-0.654297ZM5.83984-7.04102Q5.83984-6.71875 6.04492-6.51855Q6.25-6.31836 6.5918-6.31836L8.50586-6.31836L8.50586-4.39453Q8.50586-4.0625 8.70605-3.85742Q8.90625-3.65234 9.22852-3.65234Q9.56055-3.65234 9.76562-3.85742Q9.9707-4.0625 9.9707-4.39453L9.9707-6.31836L11.8945-6.31836Q12.2266-6.31836 12.4316-6.51855Q12.6367-6.71875 12.6367-7.04102Q12.6367-7.37305 12.4316-7.57812Q12.2266-7.7832 11.8945-7.7832L9.9707-7.7832L9.9707-9.69727Q9.9707-10.0391 9.76562-10.2441Q9.56055-10.4492 9.22852-10.4492Q8.90625-10.4492 8.70605-10.2441Q8.50586-10.0391 8.50586-9.69727L8.50586-7.7832L6.5918-7.7832Q6.25-7.7832 6.04492-7.57812Q5.83984-7.37305 5.83984-7.04102Z"/>
  </g>
  <g transform="matrix(1 0 0 1 281.867 1933)">
   <path d="M11.709 2.91016Q13.75 2.91016 15.5518 2.12891Q17.3535 1.34766 18.7305-0.0292969Q20.1074-1.40625 20.8887-3.20801Q21.6699-5.00977 21.6699-7.05078Q21.6699-9.0918 20.8887-10.8936Q20.1074-12.6953 18.7305-14.0723Q17.3535-15.4492 15.5469-16.2305Q13.7402-17.0117 11.6992-17.0117Q9.6582-17.0117 7.85645-16.2305Q6.05469-15.4492 4.68262-14.0723Q3.31055-12.6953 2.5293-10.8936Q1.74805-9.0918 1.74805-7.05078Q1.74805-5.00977 2.5293-3.20801Q3.31055-1.40625 4.6875-0.0292969Q6.06445 1.34766 7.86621 2.12891Q9.66797 2.91016 11.709 2.91016ZM11.709 1.25Q9.98047 1.25 8.47656 0.605469Q6.97266-0.0390625 5.83496-1.17676Q4.69727-2.31445 4.05762-3.81836Q3.41797-5.32227 3.41797-7.05078Q3.41797-8.7793 4.05762-10.2832Q4.69727-11.7871 5.83008-12.9297Q6.96289-14.0723 8.4668-14.7119Q9.9707-15.3516 11.6992-15.3516Q13.4277-15.3516 14.9316-14.7119Q16.4355-14.0723 17.5781-12.9297Q18.7207-11.7871 19.3652-10.2832Q20.0098-8.7793 20.0098-7.05078Q20.0098-5.32227 19.3701-3.81836Q18.7305-2.31445 17.5928-1.17676Q16.4551-0.0390625 14.9463 0.605469Q13.4375 1.25 11.709 1.25ZM7.39258-7.04102Q7.39258-6.68945 7.62695-6.46484Q7.86133-6.24023 8.23242-6.24023L10.8789-6.24023L10.8789-3.57422Q10.8789-3.21289 11.1035-2.9834Q11.3281-2.75391 11.6797-2.75391Q12.0508-2.75391 12.2852-2.9834Q12.5195-3.21289 12.5195-3.57422L12.5195-6.24023L15.1758-6.24023Q15.5371-6.24023 15.7715-6.46484Q16.0059-6.68945 16.0059-7.04102Q16.0059-7.41211 15.7715-7.6416Q15.5371-7.87109 15.1758-7.87109L12.5195-7.87109L12.5195-10.5176Q12.5195-10.8984 12.2852-11.1279Q12.0508-11.3574 11.6797-11.3574Q11.3281-11.3574 11.1035-11.1279Q10.8789-10.8984 10.8789-10.5176L10.8789-7.87109L8.23242-7.87109Q7.85156-7.87109 7.62207-7.6416Q7.39258-7.41211 7.39258-7.04102Z"/>
  </g>
  <g transform="matrix(1 0 0 1 305.646 1933)">
   <path d="M14.9707 5.66406Q17.0605 5.66406 18.96 5.01465Q20.8594 4.36523 22.4512 3.19336Q24.043 2.02148 25.2197 0.429688Q26.3965-1.16211 27.0459-3.06641Q27.6953-4.9707 27.6953-7.05078Q27.6953-9.14062 27.0459-11.04Q26.3965-12.9395 25.2197-14.5312Q24.043-16.123 22.4512-17.2998Q20.8594-18.4766 18.9551-19.126Q17.0508-19.7754 14.9609-19.7754Q12.8711-19.7754 10.9717-19.126Q9.07227-18.4766 7.48535-17.2998Q5.89844-16.123 4.72168-14.5312Q3.54492-12.9395 2.90039-11.04Q2.25586-9.14062 2.25586-7.05078Q2.25586-4.9707 2.90527-3.06641Q3.55469-1.16211 4.72656 0.429688Q5.89844 2.02148 7.49023 3.19336Q9.08203 4.36523 10.9814 5.01465Q12.8809 5.66406 14.9707 5.66406ZM14.9707 3.84766Q13.1641 3.84766 11.5283 3.2959Q9.89258 2.74414 8.53516 1.74805Q7.17773 0.751953 6.17676-0.610352Q5.17578-1.97266 4.62891-3.6084Q4.08203-5.24414 4.08203-7.05078Q4.08203-8.86719 4.62891-10.5029Q5.17578-12.1387 6.17188-13.501Q7.16797-14.8633 8.52539-15.8594Q9.88281-16.8555 11.5186-17.4023Q13.1543-17.9492 14.9609-17.9492Q16.7773-17.9492 18.4131-17.4023Q20.0488-16.8555 21.4111-15.8594Q22.7734-14.8633 23.7695-13.501Q24.7656-12.1387 25.3174-10.5029Q25.8691-8.86719 25.8691-7.05078Q25.8789-5.24414 25.332-3.6084Q24.7852-1.97266 23.7842-0.610352Q22.7832 0.751953 21.4209 1.74805Q20.0586 2.74414 18.4229 3.2959Q16.7871 3.84766 14.9707 3.84766ZM9.45312-7.04102Q9.45312-6.66016 9.71191-6.41113Q9.9707-6.16211 10.3711-6.16211L14.0625-6.16211L14.0625-2.46094Q14.0625-2.06055 14.3115-1.80664Q14.5605-1.55273 14.9414-1.55273Q15.3516-1.55273 15.6055-1.80664Q15.8594-2.06055 15.8594-2.46094L15.8594-6.16211L19.5605-6.16211Q19.9609-6.16211 20.2148-6.41113Q20.4688-6.66016 20.4688-7.04102Q20.4688-7.45117 20.2148-7.70508Q19.9609-7.95898 19.5605-7.95898L15.8594-7.95898L15.8594-11.6504Q15.8594-12.0605 15.6055-12.3145Q15.3516-12.5684 14.9414-12.5684Q14.5605-12.5684 14.3115-12.3096Q14.0625-12.0508 14.0625-11.6504L14.0625-7.95898L10.3711-7.95898Q9.96094-7.95898 9.70703-7.70508Q9.45312-7.45117 9.45312-7.04102Z"/>
  </g>
  <text style="stroke:none;fill:black;font-family:SF Pro,SF Pro Display,SF Pro Text,sans-serif;font-size:13;font-weight:bold;" transform="matrix(1 0 0 1 263 1953)">Design Variations</text>
  <text style="stroke:none;fill:black;font-family:SF Pro,SF Pro Display,SF Pro Text,sans-serif;font-size:13;" transform="matrix(1 0 0 1 263 1971)">Symbols are supported in up to nine weights and three scales.</text>
  <text style="stroke:none;fill:black;font-family:SF Pro,SF Pro Display,SF Pro Text,sans-serif;font-size:13;" transform="matrix(1 0 0 1 263 1989)">For optimal layout with text and other symbols, vertically align</text>
  <text style="stroke:none;fill:black;font-family:SF Pro,SF Pro Display,SF Pro Text,sans-serif;font-size:13;" transform="matrix(1 0 0 1 263 2007)">symbols with the adjacent text.</text>
  <line style="fill:none;stroke:#00AEEF;stroke-width:0.5;opacity:1.0;" x1="776" x2="776" y1="1919" y2="1933"/>
  <g transform="matrix(1 0 0 1 776 1933)">
   <path d="M3.31055 0.15625Q3.70117 0.15625 3.91602-0.00976562Q4.13086-0.175781 4.26758-0.585938L5.52734-4.0332L11.2891-4.0332L12.5488-0.585938Q12.6855-0.175781 12.9004-0.00976562Q13.1152 0.15625 13.4961 0.15625Q13.8867 0.15625 14.1162-0.0585938Q14.3457-0.273438 14.3457-0.644531Q14.3457-0.869141 14.2383-1.17188L9.6582-13.3691Q9.48242-13.8184 9.17969-14.043Q8.87695-14.2676 8.4082-14.2676Q7.5-14.2676 7.17773-13.3789L2.59766-1.16211Q2.49023-0.859375 2.49023-0.634766Q2.49023-0.263672 2.70996-0.0537109Q2.92969 0.15625 3.31055 0.15625ZM6.00586-5.51758L8.37891-12.0898L8.42773-12.0898L10.8008-5.51758Z"/>
  </g>
  <line style="fill:none;stroke:#00AEEF;stroke-width:0.5;opacity:1.0;" x1="793.197" x2="793.197" y1="1919" y2="1933"/>
  <text style="stroke:none;fill:black;font-family:SF Pro,SF Pro Display,SF Pro Text,sans-serif;font-size:13;font-weight:bold;" transform="matrix(1 0 0 1 776 1953)">Margins</text>
  <text style="stroke:none;fill:black;font-family:SF Pro,SF Pro Display,SF Pro Text,sans-serif;font-size:13;" transform="matrix(1 0 0 1 776 1971)">Leading and trailing margins on the left and right side of each symbol</text>
  <text style="stroke:none;fill:black;font-family:SF Pro,SF Pro Display,SF Pro Text,sans-serif;font-size:13;" transform="matrix(1 0 0 1 776 1989)">can be adjusted by modifying the x-location of the margin guidelines.</text>
  <text style="stroke:none;fill:black;font-family:SF Pro,SF Pro Display,SF Pro Text,sans-serif;font-size:13;" transform="matrix(1 0 0 1 776 2007)">Modifications are automatically applied proportionally to all</text>
  <text style="stroke:none;fill:black;font-family:SF Pro,SF Pro Display,SF Pro Text,sans-serif;font-size:13;" transform="matrix(1 0 0 1 776 2025)">scales and weights.</text>
  <g transform="matrix(1 0 0 1 1289 1933)">
   <path d="M2.8418 1.86523L4.54102 3.57422Q5.18555 4.22852 5.90332 4.17969Q6.62109 4.13086 7.31445 3.35938L18.0078-8.42773L17.041-9.4043L6.42578 2.27539Q6.16211 2.57812 5.89355 2.61719Q5.625 2.65625 5.27344 2.30469L4.10156 1.14258Q3.75 0.791016 3.79395 0.522461Q3.83789 0.253906 4.14062-0.0195312L15.6152-10.8203L14.6387-11.7871L3.04688-0.898438Q2.30469-0.214844 2.25098 0.498047Q2.19727 1.21094 2.8418 1.86523ZM9.25781-16.3281Q8.94531-16.0254 8.90625-15.6348Q8.86719-15.2441 9.04297-14.9512Q9.21875-14.6777 9.55566-14.541Q9.89258-14.4043 10.3809-14.5215Q11.4746-14.7754 12.5977-14.7314Q13.7207-14.6875 14.7949-13.9844L14.209-12.5293Q13.9551-11.9043 14.0674-11.4404Q14.1797-10.9766 14.5801-10.5664L16.875-8.25195Q17.2363-7.88086 17.5781-7.82227Q17.9199-7.76367 18.3398-7.8418L19.4043-8.03711L20.0684-7.36328L20.0293-6.80664Q20-6.43555 20.1221-6.12305Q20.2441-5.81055 20.6055-5.44922L21.3672-4.70703Q21.7285-4.3457 22.1533-4.33105Q22.5781-4.31641 22.9297-4.66797L25.8398-7.58789Q26.1914-7.93945 26.1816-8.35449Q26.1719-8.76953 25.8105-9.13086L25.0391-9.89258Q24.6875-10.2539 24.3799-10.3857Q24.0723-10.5176 23.7109-10.4883L23.1348-10.4395L22.4902-11.0742L22.7344-12.1973Q22.832-12.6172 22.6953-12.9834Q22.5586-13.3496 22.1191-13.7891L19.9219-15.9766Q18.6719-17.2168 17.2607-17.8369Q15.8496-18.457 14.4189-18.4814Q12.9883-18.5059 11.665-17.959Q10.3418-17.4121 9.25781-16.3281ZM10.752-15.957Q11.6602-16.6211 12.7002-16.9043Q13.7402-17.1875 14.8047-17.085Q15.8691-16.9824 16.8701-16.5137Q17.8711-16.0449 18.7012-15.2051L21.1328-12.793Q21.3086-12.6172 21.3525-12.4512Q21.3965-12.2852 21.3379-12.0312L21.0156-10.5469L22.5195-9.0625L23.5059-9.12109Q23.6914-9.13086 23.7891-9.09668Q23.8867-9.0625 24.0332-8.91602L24.6094-8.33984L22.168-5.89844L21.5918-6.47461Q21.4453-6.62109 21.4062-6.71875Q21.3672-6.81641 21.377-7.01172L21.4453-7.98828L19.9512-9.47266L18.4277-9.21875Q18.1836-9.16992 18.042-9.2041Q17.9004-9.23828 17.7148-9.41406L15.7129-11.416Q15.5176-11.5918 15.4932-11.7529Q15.4688-11.9141 15.5859-12.1875L16.4648-14.2773Q15.293-15.3711 13.8281-15.791Q12.3633-16.2109 10.8398-15.7617Q10.7227-15.7324 10.6885-15.8057Q10.6543-15.8789 10.752-15.957Z"/>
  </g>
  <text style="stroke:none;fill:black;font-family:SF Pro,SF Pro Display,SF Pro Text,sans-serif;font-size:13;font-weight:bold;" transform="matrix(1 0 0 1 1289 1953)">Exporting</text>
  <text style="stroke:none;fill:black;font-family:SF Pro,SF Pro Display,SF Pro Text,sans-serif;font-size:13;" transform="matrix(1 0 0 1 1289 1971)">Symbols should be outlined when exporting to ensure the</text>
  <text style="stroke:none;fill:black;font-family:SF Pro,SF Pro Display,SF Pro Text,sans-serif;font-size:13;" transform="matrix(1 0 0 1 1289 1989)">design is preserved when submitting to Xcode.</text>
  <text id="template-version" style="stroke:none;fill:black;font-family:SF Pro,SF Pro Display,SF Pro Text,sans-serif;font-size:13;text-anchor:end;" transform="matrix(1 0 0 1 3036 1933)">Template v.3.0</text>
  <text style="stroke:none;fill:black;font-family:SF Pro,SF Pro Display,SF Pro Text,sans-serif;font-size:13;text-anchor:end;" transform="matrix(1 0 0 1 3036 1951)">Requires Xcode 13 or greater</text>
  <text id="descriptive-name" style="stroke:none;fill:black;font-family:SF Pro,SF Pro Display,SF Pro Text,sans-serif;font-size:13;text-anchor:end;" transform="matrix(1 0 0 1 3036 1969)">Generated from line.3.horizontal.increase</text>
  <text style="stroke:none;fill:black;font-family:SF Pro,SF Pro Display,SF Pro Text,sans-serif;font-size:13;text-anchor:end;" transform="matrix(1 0 0 1 3036 1987)">Typeset at 100 points</text>
  <text style="stroke:none;fill:black;font-family:SF Pro,SF Pro Display,SF Pro Text,sans-serif;font-size:13;" transform="matrix(1 0 0 1 263 726)">Small</text>
  <text style="stroke:none;fill:black;font-family:SF Pro,SF Pro Display,SF Pro Text,sans-serif;font-size:13;" transform="matrix(1 0 0 1 263 1156)">Medium</text>
  <text style="stroke:none;fill:black;font-family:SF Pro,SF Pro Display,SF Pro Text,sans-serif;font-size:13;" transform="matrix(1 0 0 1 263 1586)">Large</text>
 </g>
 <g id="Guides">
  <g id="H-reference" style="fill:#27AAE1;stroke:none;" transform="matrix(1 0 0 1 339 696)">
   <path d="M0.993347 0L3.6377 0L29.3282-67.1326L30.0301-67.1326L30.0301-70.459L28.1227-70.459ZM11.6882-24.4797L46.9818-24.4797L46.2311-26.7288L12.4382-26.7288ZM55.1193 0L57.7637 0L30.6381-70.459L29.4327-70.459L29.4327-67.1326Z"/>
  </g>
  <line id="Baseline-S" style="fill:none;stroke:#27AAE1;opacity:1;stroke-width:0.5;" x1="263" x2="3036" y1="696" y2="696"/>
  <line id="Capline-S" style="fill:none;stroke:#27AAE1;opacity:1;stroke-width:0.5;" x1="263" x2="3036" y1="625.541" y2="625.541"/>
  <g id="H-reference" style="fill:#27AAE1;stroke:none;" transform="matrix(1 0 0 1 339 1126)">
   <path d="M0.993347 0L3.6377 0L29.3282-67.1326L30.0301-67.1326L30.0301-70.459L28.1227-70.459ZM11.6882-24.4797L46.9818-24.4797L46.2311-26.7288L12.4382-26.7288ZM55.1193 0L57.7637 0L30.6381-70.459L29.4327-70.459L29.4327-67.1326Z"/>
  </g>
  <line id="Baseline-M" style="fill:none;stroke:#27AAE1;opacity:1;stroke-width:0.5;" x1="263" x2="3036" y1="1126" y2="1126"/>
  <line id="Capline-M" style="fill:none;stroke:#27AAE1;opacity:1;stroke-width:0.5;" x1="263" x2="3036" y1="1055.54" y2="1055.54"/>
  <g id="H-reference" style="fill:#27AAE1;stroke:none;" transform="matrix(1 0 0 1 339 1556)">
   <path d="M0.993347 0L3.6377 0L29.3282-67.1326L30.0301-67.1326L30.0301-70.459L28.1227-70.459ZM11.6882-24.4797L46.9818-24.4797L46.2311-26.7288L12.4382-26.7288ZM55.1193 0L57.7637 0L30.6381-70.459L29.4327-70.459L29.4327-67.1326Z"/>
  </g>
  <line id="Baseline-L" style="fill:none;stroke:#27AAE1;opacity:1;stroke-width:0.5;" x1="263" x2="3036" y1="1556" y2="1556"/>
  <line id="Capline-L" style="fill:none;stroke:#27AAE1;opacity:1;stroke-width:0.5;" x1="263" x2="3036" y1="1485.54" y2="1485.54"/>
  <line id="left-margin-Regular-M" style="fill:none;stroke:#00AEEF;stroke-width:0.5;opacity:1.0;" x1="1387.75" x2="1387.75" y1="1030.78" y2="1150.12"/>
  <line id="right-margin-Regular-M" style="fill:none;stroke:#00AEEF;stroke-width:0.5;opacity:1.0;" x1="1511.94" x2="1511.94" y1="1030.78" y2="1150.12"/>
 </g>
 <g id="Symbols">
  <g id="Black-L" transform="matrix(1 0 0 1 2853.21 1556)">
   <path d="M45.9043-77.2402L114.606-77.2402C117.112-77.2402 119.228-76.3125 120.953-74.457C122.678-72.6015 123.541-70.4531 123.541-68.0117C123.541-65.4726 122.686-63.2998 120.978-61.4931C119.268-59.6865 117.144-58.7832 114.606-58.7832L45.9043-58.7832C43.3978-58.7832 41.2737-59.7028 39.5322-61.542C37.7907-63.3812 36.9199-65.5377 36.9199-68.0117C36.9199-70.388 37.7988-72.5201 39.5566-74.4082C41.3144-76.2962 43.4303-77.2402 45.9043-77.2402ZM33.8437-44.2812L126.666-44.2812C129.172-44.2812 131.288-43.3535 133.014-41.498C134.739-39.6425 135.602-37.4941 135.602-35.0527C135.602-32.5136 134.747-30.3326 133.038-28.5097C131.329-26.6868 129.205-25.7754 126.666-25.7754L33.8437-25.7754C31.3372-25.7754 29.2132-26.7031 27.4717-28.5586C25.7302-30.4141 24.8594-32.5788 24.8594-35.0527C24.8594-37.429 25.7383-39.5611 27.4961-41.4492C29.2539-43.3372 31.3698-44.2812 33.8437-44.2812ZM21.6367-11.3222L138.727-11.3222C141.233-11.3222 143.349-10.3945 145.075-8.53901C146.799-6.68354 147.662-4.51884 147.662-2.04491C147.662 0.461623 146.807 2.62636 145.099 4.44929C143.389 6.27216 141.265 7.18359 138.727 7.18359L21.6367 7.18359C19.1302 7.18359 17.0143 6.26399 15.289 4.42479C13.5638 2.58566 12.7012 0.42909 12.7012-2.04491C12.7012-4.45378 13.572-6.60221 15.3135-8.49021C17.055-10.3782 19.1628-11.3222 21.6367-11.3222Z"/>
  </g>
  <g id="Heavy-L" transform="matrix(1 0 0 1 2557.49 1556)">
   <path d="M45.5701-75.857L112.981-75.857C115.18-75.857 117.037-75.0503 118.551-73.437C120.064-71.8236 120.821-69.9422 120.821-67.7927C120.821-65.5685 120.07-63.6665 118.569-62.0867C117.067-60.5069 115.205-59.717 112.981-59.717L45.5701-59.717C43.3708-59.717 41.508-60.5194 39.9816-62.1241C38.4552-63.7288 37.692-65.6184 37.692-67.7927C37.692-69.8923 38.4614-71.7613 40.0003-73.3996C41.5391-75.0379 43.3957-75.857 45.5701-75.857ZM33.1411-43.117L125.41-43.117C127.609-43.117 129.466-42.3103 130.98-40.6969C132.493-39.0836 133.25-37.2022 133.25-35.0527C133.25-32.8285 132.499-30.9203 130.998-29.328C129.496-27.7358 127.634-26.9396 125.41-26.9396L33.1411-26.9396C30.9418-26.9396 29.0789-27.7482 27.5525-29.3654C26.0262-30.9826 25.263-32.8783 25.263-35.0527C25.263-37.1523 26.0324-39.0213 27.5712-40.6595C29.1101-42.2979 30.9667-43.117 33.1411-43.117ZM20.5533-10.3769L137.828-10.3769C140.034-10.3769 141.895-9.57025 143.409-7.95692C144.923-6.34359 145.68-4.44589 145.68-2.26382C145.68-0.0645533 144.929 1.82931 143.428 3.41778C141.926 5.00618 140.06 5.80038 137.828 5.80038L20.5533 5.80038C18.3464 5.80038 16.4859 4.99995 14.972 3.39908C13.4581 1.79815 12.7012-0.0894867 12.7012-2.26382C12.7012-4.39602 13.4644-6.28125 14.9907-7.91952C16.5171-9.55779 18.3713-10.3769 20.5533-10.3769Z"/>
  </g>
  <g id="Bold-L" transform="matrix(1 0 0 1 2261.89 1556)">
   <path d="M45.1963-74.3105L111.163-74.3105C113.019-74.3105 114.585-73.6391 115.863-72.2963C117.141-70.9536 117.78-69.3707 117.78-67.5478C117.78-65.6761 117.145-64.0769 115.875-62.7504C114.605-61.4239 113.035-60.7607 111.163-60.7607L45.1963-60.7607C43.3408-60.7607 41.7702-61.4321 40.4844-62.7749C39.1985-64.1176 38.5556-65.7086 38.5556-67.5478C38.5556-69.3382 39.2026-70.9129 40.4966-72.2719C41.7905-73.631 43.3571-74.3105 45.1963-74.3105ZM32.3545-41.8154L124.005-41.8154C125.86-41.8154 127.427-41.144 128.705-39.8012C129.982-38.4585 130.621-36.8756 130.621-35.0527C130.621-33.181 129.986-31.5778 128.717-30.2431C127.447-28.9085 125.877-28.2412 124.005-28.2412L32.3545-28.2412C30.499-28.2412 28.9284-28.9166 27.6426-30.2675C26.3567-31.6184 25.7138-33.2135 25.7138-35.0527C25.7138-36.843 26.3608-38.4177 27.6548-39.7768C28.9487-41.1359 30.5153-41.8154 32.3545-41.8154ZM19.3418-9.32029L136.823-9.32029C138.694-9.32029 140.269-8.64889 141.547-7.30609C142.824-5.96336 143.463-4.36422 143.463-2.50869C143.463-0.653223 142.828 0.937743 141.559 2.26421C140.289 3.59068 138.711 4.25391 136.823 4.25391L19.3418 4.25391C17.4701 4.25391 15.8954 3.58661 14.6177 2.25201C13.34 0.917343 12.7012-0.669557 12.7012-2.50869C12.7012-4.33162 13.3441-5.92262 14.6299-7.28169C15.9157-8.64076 17.4863-9.32029 19.3418-9.32029Z"/>
  </g>
  <g id="Semibold-L" transform="matrix(1 0 0 1 1965.94 1556)">
   <path d="M44.9384-73.244L109.911-73.244C111.529-73.244 112.895-72.6659 114.01-71.5098C115.124-70.3537 115.682-68.9769 115.682-67.3793C115.682-65.7502 115.127-64.3598 114.018-63.2083C112.908-62.0568 111.539-61.481 109.911-61.481L44.9384-61.481C43.3199-61.481 41.9507-62.062 40.8307-63.2239C39.7107-64.3859 39.1507-65.771 39.1507-67.3793C39.1507-68.956 39.7133-70.3277 40.8384-71.4942C41.9635-72.6607 43.3301-73.244 44.9384-73.244ZM31.812-40.9183L123.036-40.9183C124.654-40.9183 126.021-40.3401 127.136-39.1837C128.251-38.0273 128.809-36.6504 128.809-35.0528C128.809-33.4242 128.254-32.0313 127.144-30.8742C126.034-29.717 124.665-29.1385 123.036-29.1385L31.812-29.1385C30.1936-29.1385 28.8245-29.7221 27.7047-30.8894C26.585-32.0567 26.0251-33.4445 26.0251-35.0528C26.0251-36.63 26.5876-38.0019 27.7127-39.1685C28.8378-40.335 30.2043-40.9183 31.812-40.9183ZM18.5064-8.59178L136.129-8.59178C137.769-8.59178 139.147-8.01371 140.262-6.85758C141.376-5.70145 141.934-4.30808 141.934-2.67748C141.934-1.05901 141.379 0.323053 140.27 1.46872C139.16 2.61445 137.78 3.18732 136.129 3.18732L18.5064 3.18732C16.8655 3.18732 15.4878 2.61179 14.3731 1.46072C13.2585 0.30972 12.7012-1.06968 12.7012-2.67748C12.7012-4.28728 13.2612-5.67545 14.3811-6.84198C15.5011-8.00851 16.8762-8.59178 18.5064-8.59178Z"/>
  </g>
  <g id="Medium-L" transform="matrix(1 0 0 1 1669.81 1556)">
   <path d="M44.7431-72.4352L108.96-72.4352C110.398-72.4352 111.613-71.928 112.605-70.9135C113.596-69.8991 114.092-68.6782 114.092-67.251C114.092-65.8065 113.598-64.5746 112.61-63.5553C111.622-62.5361 110.405-62.0264 108.96-62.0264L44.7431-62.0264C43.3042-62.0264 42.0877-62.539 41.0936-63.5641C40.0995-64.5893 39.6024-65.8182 39.6024-67.251C39.6024-68.6665 40.101-69.8844 41.0981-70.9047C42.0953-71.925 43.3103-72.4352 44.7431-72.4352ZM31.4016-40.2369L122.302-40.2369C123.74-40.2369 124.955-39.7297 125.947-38.7152C126.938-37.7007 127.434-36.4799 127.434-35.0527C127.434-33.6082 126.939-32.3749 125.951-31.3528C124.963-30.3307 123.746-29.8197 122.302-29.8197L31.4016-29.8197C29.9627-29.8197 28.7461-30.3337 27.752-31.3616C26.7579-32.3895 26.2609-33.6199 26.2609-35.0527C26.2609-36.4682 26.7593-37.6861 27.7562-38.7064C28.7531-39.7267 29.9683-40.2369 31.4016-40.2369ZM17.8731-8.0393L135.604-8.0393C137.069-8.0393 138.297-7.53193 139.289-6.5172C140.279-5.50253 140.775-4.2653 140.775-2.8055C140.775-1.36663 140.281-0.1429 139.293 0.8657C138.305 1.8743 137.075 2.3786 135.604 2.3786L17.8731 2.3786C16.4078 2.3786 15.1794 1.8728 14.1881 0.8612C13.1968-0.150467 12.7012-1.3727 12.7012-2.8055C12.7012-4.25357 13.1982-5.4879 14.1923-6.5085C15.1864-7.52903 16.4134-8.0393 17.8731-8.0393Z"/>
  </g>
  <g id="Regular-L" transform="matrix(1 0 0 1 1373.86 1556)">
   <path d="M44.4883-71.3809L107.721-71.3809C108.925-71.3809 109.943-70.9659 110.773-70.1358C111.603-69.3057 112.018-68.2884 112.018-67.084C112.018-65.8796 111.603-64.8542 110.773-64.0079C109.943-63.1615 108.925-62.7383 107.721-62.7383L44.4883-62.7383C43.2838-62.7383 42.2666-63.1615 41.4365-64.0079C40.6064-64.8542 40.1914-65.8796 40.1914-67.084C40.1914-68.2884 40.6064-69.3057 41.4365-70.1358C42.2666-70.9659 43.2838-71.3809 44.4883-71.3809ZM30.8652-39.3497L121.344-39.3497C122.548-39.3497 123.566-38.9346 124.396-38.1046C125.226-37.2744 125.641-36.2572 125.641-35.0528C125.641-33.8484 125.226-32.823 124.396-31.9766C123.566-31.1302 122.548-30.7071 121.344-30.7071L30.8652-30.7071C29.6608-30.7071 28.6436-31.1302 27.8135-31.9766C26.9834-32.823 26.5683-33.8484 26.5683-35.0528C26.5683-36.2572 26.9834-37.2744 27.8135-38.1046C28.6436-38.9346 29.6608-39.3497 30.8652-39.3497ZM17.0469-7.31838L134.918-7.31838C136.155-7.31838 137.189-6.90335 138.019-6.07328C138.849-5.24321 139.264-4.20968 139.264-2.97268C139.264-1.76828 138.849-0.751047 138.019 0.07902C137.189 0.909153 136.155 1.32422 134.918 1.32422L17.0469 1.32422C15.8099 1.32422 14.7764 0.909153 13.9463 0.07902C13.1162-0.751047 12.7012-1.76828 12.7012-2.97268C12.7012-4.20968 13.1162-5.24321 13.9463-6.07328C14.7764-6.90335 15.8099-7.31838 17.0469-7.31838Z"/>
  </g>
  <g id="Light-L" transform="matrix(1 0 0 1 1077.77 1556)">
   <path d="M45.2298-69.8069L105.632-69.8069C106.554-69.8069 107.331-69.4877 107.965-68.8494C108.598-68.2111 108.915-67.4311 108.915-66.5095C108.915-65.5975 108.598-64.8168 107.965-64.1672C107.331-63.5177 106.554-63.193 105.632-63.193L45.2298-63.193C44.3082-63.193 43.5307-63.5177 42.8972-64.1672C42.2637-64.8168 41.9469-65.5975 41.9469-66.5095C41.9469-67.4311 42.2637-68.2111 42.8972-68.8494C43.5307-69.4877 44.3082-69.8069 45.2298-69.8069ZM30.6836-38.3211L120.178-38.3211C121.09-38.3211 121.865-38.002 122.504-37.3636C123.142-36.7253 123.461-35.9502 123.461-35.0382C123.461-34.1166 123.142-33.3309 122.504-32.6811C121.865-32.0313 121.09-31.7064 120.178-31.7064L30.6836-31.7064C29.7717-31.7064 28.9965-32.0313 28.3582-32.6811C27.7199-33.3309 27.4007-34.1166 27.4007-35.0382C27.4007-35.9502 27.7199-36.7253 28.3582-37.3636C28.9965-38.002 29.7717-38.3211 30.6836-38.3211ZM16.0177-6.84993L134.691-6.84993C135.625-6.84993 136.411-6.53076 137.05-5.89243C137.688-5.2541 138.007-4.46266 138.007-3.51813C138.007-2.59653 137.688-1.81896 137.05-1.18543C136.411-0.551962 135.625-0.235229 134.691-0.235229L16.0177-0.235229C15.0833-0.235229 14.2969-0.551962 13.6586-1.18543C13.0203-1.81896 12.7012-2.59653 12.7012-3.51813C12.7012-4.46266 13.0203-5.2541 13.6586-5.89243C14.2969-6.53076 15.0833-6.84993 16.0177-6.84993Z"/>
  </g>
  <g id="Thin-L" transform="matrix(1 0 0 1 781.894 1556)">
   <path d="M46.211-67.7249L102.869-67.7249C103.417-67.7249 103.878-67.5325 104.252-67.1477C104.624-66.763 104.811-66.2964 104.811-65.7481C104.811-65.2232 104.624-64.7661 104.252-64.3767C103.878-63.9874 103.417-63.7927 102.869-63.7927L46.211-63.7927C45.6627-63.7927 45.202-63.9874 44.8289-64.3767C44.4558-64.7661 44.2693-65.2232 44.2693-65.7481C44.2693-66.2964 44.4558-66.763 44.8289-67.1477C45.202-67.5325 45.6627-67.7249 46.211-67.7249ZM30.4433-36.9594L118.637-36.9594C119.161-36.9594 119.616-36.767 120.002-36.3822C120.386-35.9974 120.579-35.5426 120.579-35.0177C120.579-34.4694 120.386-34.0005 120.002-33.6112C119.616-33.2219 119.161-33.0272 118.637-33.0272L30.4433-33.0272C29.9184-33.0272 29.4636-33.2219 29.0788-33.6112C28.694-34.0005 28.5016-34.4694 28.5016-35.0177C28.5016-35.5426 28.694-35.9974 29.0788-36.3822C29.4636-36.767 29.9184-36.9594 30.4433-36.9594ZM14.6566-6.22889L134.391-6.22889C134.924-6.22889 135.383-6.03652 135.769-5.65179C136.153-5.26699 136.346-4.79586 136.346-4.23839C136.346-3.69012 136.153-3.22946 135.769-2.85639C135.383-2.48326 134.924-2.29669 134.391-2.29669L14.6566-2.29669C14.1225-2.29669 13.6631-2.48326 13.2783-2.85639C12.8936-3.22946 12.7012-3.69012 12.7012-4.23839C12.7012-4.79586 12.8936-5.26699 13.2783-5.65179C13.6631-6.03652 14.1225-6.22889 14.6566-6.22889Z"/>
  </g>
  <g id="Ultralight-L" transform="matrix(1 0 0 1 485.609 1556)">
   <path d="M46.713-66.6583L101.454-66.6583C101.811-66.6583 102.11-66.5309 102.35-66.2761C102.589-66.0212 102.709-65.7156 102.709-65.359C102.709-65.0325 102.589-64.7412 102.35-64.4851C102.11-64.229 101.811-64.1009 101.454-64.1009L46.713-64.1009C46.3565-64.1009 46.0583-64.229 45.8184-64.4851C45.5786-64.7412 45.4587-65.0325 45.4587-65.359C45.4587-65.7156 45.5786-66.0212 45.8184-66.2761C46.0583-66.5309 46.3565-66.6583 46.713-66.6583ZM30.3205-36.2621L117.847-36.2621C118.173-36.2621 118.464-36.1346 118.72-35.8798C118.974-35.625 119.102-35.3343 119.102-35.0078C119.102-34.6512 118.974-34.3449 118.72-34.0888C118.464-33.8327 118.173-33.7047 117.847-33.7047L30.3205-33.7047C29.994-33.7047 29.7033-33.8327 29.4484-34.0888C29.1936-34.3449 29.0662-34.6512 29.0662-35.0078C29.0662-35.3343 29.1936-35.625 29.4484-35.8798C29.7033-36.1346 29.994-36.2621 30.3205-36.2621ZM13.9592-5.91076L134.237-5.91076C134.566-5.91076 134.858-5.78336 135.113-5.52856C135.367-5.27369 135.495-4.96673 135.495-4.60766C135.495-4.25113 135.367-3.95296 135.113-3.71316C134.858-3.47329 134.566-3.35336 134.237-3.35336L13.9592-3.35336C13.6301-3.35336 13.3382-3.47329 13.0834-3.71316C12.8286-3.95296 12.7012-4.25113 12.7012-4.60766C12.7012-4.96673 12.8286-5.27369 13.0834-5.52856C13.3382-5.78336 13.6301-5.91076 13.9592-5.91076Z"/>
  </g>
  <g id="Black-M" transform="matrix(1 0 0 1 2867.76 1126)">
   <path d="M38.9707-68.3535L92.3398-68.3535C94.4557-68.3535 96.2461-67.5641 97.7109-65.9853C99.1758-64.4066 99.9082-62.5918 99.9082-60.541C99.9082-58.4251 99.1839-56.5941 97.7354-55.0478C96.2868-53.5016 94.4883-52.7285 92.3398-52.7285L38.9707-52.7285C36.8548-52.7285 35.0645-53.5098 33.5996-55.0723C32.1347-56.6348 31.4023-58.4577 31.4023-60.541C31.4023-62.5267 32.1429-64.3252 33.624-65.9365C35.1051-67.5478 36.8874-68.3535 38.9707-68.3535ZM29.5957-42.8164L101.715-42.8164C103.831-42.8164 105.613-42.027 107.062-40.4482C108.51-38.8695 109.234-37.0547 109.234-35.0039C109.234-32.8554 108.51-31.0162 107.062-29.4863C105.613-27.9564 103.831-27.1914 101.715-27.1914L29.5957-27.1914C27.4798-27.1914 25.6976-27.9726 24.249-29.5351C22.8005-31.0976 22.0762-32.9206 22.0762-35.0039C22.0762-36.9896 22.8086-38.7881 24.2734-40.3994C25.7383-42.0107 27.5124-42.8164 29.5957-42.8164ZM20.2207-17.2793L111.041-17.2793C113.157-17.2793 114.939-16.4899 116.388-14.9111C117.837-13.3324 118.561-11.5176 118.561-9.4668C118.561-7.31833 117.845-5.47913 116.412-3.9492C114.98-2.41927 113.19-1.6543 111.041-1.6543L20.2207-1.6543C18.1048-1.6543 16.3226-2.43553 14.874-3.998C13.4255-5.56053 12.7012-7.38347 12.7012-9.4668C12.7012-11.4525 13.4336-13.251 14.8984-14.8623C16.3633-16.4736 18.1374-17.2793 20.2207-17.2793Z"/>
  </g>
  <g id="Heavy-M" transform="matrix(1 0 0 1 2571.89 1126)">
   <path d="M38.487-67.351L91.1992-67.351C93.0766-67.351 94.6652-66.6595 95.965-65.2766C97.2647-63.8936 97.9146-62.2881 97.9146-60.4601C97.9146-58.5823 97.2709-56.9624 95.9836-55.6005C94.6963-54.2387 93.1015-53.5578 91.1992-53.5578L38.487-53.5578C36.6091-53.5578 35.0222-54.245 33.7263-55.6192C32.4303-56.9936 31.7823-58.6072 31.7823-60.4601C31.7823-62.2383 32.4365-63.8313 33.7449-65.2392C35.0534-66.6471 36.6341-67.351 38.487-67.351ZM28.9617-41.9062L100.735-41.9062C102.606-41.9062 104.184-41.2147 105.471-39.8317C106.758-38.4488 107.402-36.8433 107.402-35.0153C107.402-33.1125 106.758-31.4865 105.471-30.1371C104.184-28.7877 102.606-28.113 100.735-28.113L28.9617-28.113C27.0838-28.113 25.5014-28.8002 24.2143-30.1744C22.9272-31.5488 22.2837-33.1624 22.2837-35.0153C22.2837-36.7935 22.9335-38.3865 24.233-39.7943C25.5325-41.2023 27.1088-41.9062 28.9617-41.9062ZM19.3677-16.4606L110.223-16.4606C112.1-16.4606 113.681-15.7693 114.964-14.3866C116.248-13.0039 116.89-11.3985 116.89-9.57054C116.89-7.66774 116.254-6.04167 114.983-4.69234C113.712-3.34294 112.126-2.66824 110.223-2.66824L19.3677-2.66824C17.498-2.66824 15.9195-3.35537 14.6322-4.72964C13.3449-6.10397 12.7012-7.71761 12.7012-9.57054C12.7012-11.3487 13.351-12.9416 14.6505-14.3492C15.95-15.7568 17.5224-16.4606 19.3677-16.4606Z"/>
  </g>
  <g id="Bold-M" transform="matrix(1 0 0 1 2276.11 1126)">
   <path d="M37.9453-66.2295L89.9229-66.2295C91.5342-66.2295 92.8973-65.6476 94.0122-64.4839C95.1271-63.3201 95.6846-61.9489 95.6846-60.3701C95.6846-58.7588 95.1312-57.3753 94.0244-56.2197C92.9177-55.0641 91.5505-54.4863 89.9229-54.4863L37.9453-54.4863C36.334-54.4863 34.9749-55.0682 33.8682-56.2319C32.7614-57.3957 32.208-58.7751 32.208-60.3701C32.208-61.9163 32.7655-63.2795 33.8804-64.4595C34.9953-65.6395 36.3502-66.2295 37.9453-66.2295ZM28.2529-40.8877L99.6396-40.8877C101.235-40.8877 102.585-40.3059 103.692-39.1421C104.799-37.9784 105.353-36.6071 105.353-35.0283C105.353-33.4007 104.799-32.0132 103.692-30.8657C102.585-29.7183 101.235-29.1445 99.6396-29.1445L28.2529-29.1445C26.6416-29.1445 25.2825-29.7264 24.1758-30.8901C23.069-32.0539 22.5156-33.4333 22.5156-35.0283C22.5156-36.5745 23.0731-37.9376 24.188-39.1176C25.3029-40.2977 26.6579-40.8877 28.2529-40.8877ZM18.4141-15.5459L109.308-15.5459C110.919-15.5459 112.274-14.9641 113.373-13.8003C114.472-12.6366 115.021-11.2653 115.021-9.68653C115.021-8.05893 114.476-6.6714 113.385-5.52393C112.294-4.37646 110.935-3.80273 109.308-3.80273L18.4141-3.80273C16.819-3.80273 15.4681-4.3846 14.3613-5.54833C13.2546-6.71206 12.7012-8.09146 12.7012-9.68653C12.7012-11.2327 13.2586-12.5959 14.3735-13.7759C15.4884-14.9559 16.8353-15.5459 18.4141-15.5459Z"/>
  </g>
  <g id="Semibold-M" transform="matrix(1 0 0 1 1980.05 1126)">
   <path d="M37.5722-65.4566L89.0432-65.4566C90.4709-65.4566 91.6785-64.9503 92.666-63.9376C93.6535-62.9249 94.1472-61.7151 94.1472-60.3083C94.1472-58.8806 93.656-57.66 92.6736-56.6465C91.6912-55.6331 90.4811-55.1264 89.0432-55.1264L37.5722-55.1264C36.1445-55.1264 34.9424-55.6357 33.9658-56.6541C32.9893-57.6727 32.501-58.8907 32.501-60.3083C32.501-61.6943 32.9918-62.8988 33.9734-63.9219C34.9551-64.945 36.1547-65.4566 37.5722-65.4566ZM27.7639-40.1857L98.8843-40.1857C100.289-40.1857 101.483-39.6794 102.466-38.6667C103.449-37.6541 103.94-36.4443 103.94-35.0374C103.94-33.5996 103.449-32.3764 102.466-31.368C101.483-30.3597 100.289-29.8555 98.8843-29.8555L27.7639-29.8555C26.3362-29.8555 25.1312-30.3648 24.1491-31.3833C23.1669-32.4019 22.6758-33.6199 22.6758-35.0374C22.6758-36.4234 23.1696-37.628 24.1571-38.6511C25.1446-39.6742 26.3468-40.1857 27.7639-40.1857ZM17.7564-14.9149L108.677-14.9149C110.104-14.9149 111.304-14.4086 112.275-13.3959C113.246-12.3832 113.732-11.1734 113.732-9.76665C113.732-8.32872 113.249-7.10558 112.283-6.09725C111.316-5.08892 110.114-4.58475 108.677-4.58475L17.7564-4.58475C16.3511-4.58475 15.1572-5.09412 14.1748-6.11285C13.1924-7.13165 12.7012-8.34958 12.7012-9.76665C12.7012-11.1531 13.1949-12.3578 14.1824-13.3806C15.1699-14.4035 16.3613-14.9149 17.7564-14.9149Z"/>
  </g>
  <g id="Medium-M" transform="matrix(1 0 0 1 1683.82 1126)">
   <path d="M37.2892-64.8699L88.3756-64.8699C89.6645-64.8699 90.7543-64.4208 91.6452-63.5225C92.5361-62.6243 92.9815-61.5369 92.9815-60.2602C92.9815-58.9718 92.5375-57.8748 91.6494-56.9692C90.7613-56.0636 89.6701-55.6108 88.3756-55.6108L37.2892-55.6108C36.0009-55.6108 34.9179-56.0652 34.0402-56.9738C33.1626-57.8825 32.7238-58.978 32.7238-60.2602C32.7238-61.5252 33.164-62.6097 34.0444-63.5138C34.9249-64.4179 36.0065-64.8699 37.2892-64.8699ZM27.3939-39.6532L98.3114-39.6532C99.5733-39.6532 100.648-39.2041 101.536-38.3058C102.424-37.4076 102.868-36.3202 102.868-35.0435C102.868-33.7491 102.424-32.6506 101.536-31.748C100.648-30.8454 99.5733-30.3941 98.3114-30.3941L27.3939-30.3941C26.105-30.3941 25.0167-30.8484 24.1289-31.7568C23.241-32.6652 22.7971-33.7608 22.7971-35.0435C22.7971-36.3085 23.2425-37.393 24.1334-38.297C25.0243-39.2012 26.1111-39.6532 27.3939-39.6532ZM17.2574-14.4357L108.198-14.4357C109.487-14.4357 110.568-13.9868 111.443-13.0888C112.318-12.1908 112.755-11.1035 112.755-9.82685C112.755-8.53238 112.319-7.43388 111.447-6.53135C110.576-5.62882 109.493-5.17755 108.198-5.17755L17.2574-5.17755C15.9961-5.17755 14.9214-5.63175 14.0333-6.54015C13.1452-7.44855 12.7012-8.54412 12.7012-9.82685C12.7012-11.0918 13.1466-12.1762 14.0375-13.08C14.9283-13.9838 16.0016-14.4357 17.2574-14.4357Z"/>
  </g>
  <g id="Regular-M" transform="matrix(1 0 0 1 1387.75 1126)">
   <path d="M36.9199-64.1055L87.5059-64.1055C88.6126-64.1055 89.5485-63.7311 90.3135-62.9824C91.0784-62.2337 91.4609-61.306 91.4609-60.1993C91.4609-59.0925 91.0784-58.1566 90.3135-57.3917C89.5485-56.6267 88.6126-56.2442 87.5059-56.2442L36.9199-56.2442C35.8132-56.2442 34.8854-56.6267 34.1367-57.3917C33.388-58.1566 33.0137-59.0925 33.0137-60.1993C33.0137-61.306 33.388-62.2337 34.1367-62.9824C34.8854-63.7311 35.8132-64.1055 36.9199-64.1055ZM26.9102-38.959L97.5645-38.959C98.6387-38.959 99.5582-38.5846 100.323-37.836C101.088-37.0872 101.471-36.1595 101.471-35.0528C101.471-33.946 101.088-33.0101 100.323-32.2452C99.5582-31.4802 98.6387-31.0977 97.5645-31.0977L26.9102-31.0977C25.8034-31.0977 24.8675-31.4802 24.1025-32.2452C23.3376-33.0101 22.9551-33.946 22.9551-35.0528C22.9551-36.1595 23.3376-37.0872 24.1025-37.836C24.8675-38.5846 25.8034-38.959 26.9102-38.959ZM16.6074-13.8126L107.574-13.8126C108.681-13.8126 109.608-13.4382 110.357-12.6895C111.106-11.9408 111.48-11.0131 111.48-9.90627C111.48-8.79954 111.106-7.86367 110.357-7.09867C109.608-6.33367 108.681-5.95117 107.574-5.95117L16.6074-5.95117C15.5332-5.95117 14.6136-6.33367 13.8486-7.09867C13.0837-7.86367 12.7012-8.79954 12.7012-9.90627C12.7012-11.0131 13.0837-11.9408 13.8486-12.6895C14.6136-13.4382 15.5332-13.8126 16.6074-13.8126Z"/>
  </g>
  <g id="Light-M" transform="matrix(1 0 0 1 1091.6 1126)">
   <path d="M37.586-62.6978L85.6443-62.6978C86.4886-62.6978 87.2049-62.4092 87.7931-61.8319C88.3813-61.2546 88.6754-60.5438 88.6754-59.6995C88.6754-58.8552 88.3813-58.1389 87.7931-57.5506C87.2049-56.9624 86.4886-56.6683 85.6443-56.6683L37.586-56.6683C36.7417-56.6683 36.0309-56.9624 35.4536-57.5506C34.8763-58.1389 34.5876-58.8552 34.5876-59.6995C34.5876-60.5438 34.8763-61.2546 35.4536-61.8319C36.0309-62.4092 36.7417-62.6978 37.586-62.6978ZM26.7438-38.051L96.52-38.051C97.3419-38.051 98.0471-37.7624 98.6356-37.1851C99.2241-36.6078 99.5183-35.897 99.5183-35.0527C99.5183-34.2084 99.2241-33.492 98.6356-32.9035C98.0471-32.315 97.3419-32.0208 96.52-32.0208L26.7438-32.0208C25.8995-32.0208 25.1831-32.315 24.5946-32.9035C24.0061-33.492 23.7119-34.2084 23.7119-35.0527C23.7119-35.897 24.0061-36.6078 24.5946-37.1851C25.1831-37.7624 25.8995-38.051 26.7438-38.051ZM15.6995-13.4035L107.362-13.4035C108.207-13.4035 108.918-13.115 109.495-12.538C110.072-11.9609 110.36-11.2502 110.36-10.4059C110.36-9.55143 110.072-8.82997 109.495-8.2415C108.918-7.65303 108.207-7.3588 107.362-7.3588L15.6995-7.3588C14.8776-7.3588 14.1724-7.65303 13.5839-8.2415C12.9954-8.82997 12.7012-9.55143 12.7012-10.4059C12.7012-11.2502 12.9954-11.9609 13.5839-12.538C14.1724-13.115 14.8776-13.4035 15.6995-13.4035Z"/>
  </g>
  <g id="Thin-M" transform="matrix(1 0 0 1 795.628 1126)">
   <path d="M38.4664-60.8363L83.1815-60.8363C83.679-60.8363 84.1052-60.6611 84.4602-60.3106C84.8152-59.9602 84.9927-59.5362 84.9927-59.0388C84.9927-58.5414 84.8152-58.1153 84.4602-57.7605C84.1052-57.4057 83.679-57.2284 83.1815-57.2284L38.4664-57.2284C37.9689-57.2284 37.5451-57.4057 37.195-57.7605C36.8448-58.1153 36.6697-58.5414 36.6697-59.0388C36.6697-59.5362 36.8448-59.9602 37.195-60.3106C37.5451-60.6611 37.9689-60.8363 38.4664-60.8363ZM26.5233-36.8495L95.1391-36.8495C95.6274-36.8495 96.0489-36.6744 96.4036-36.3242C96.7584-35.974 96.9358-35.5502 96.9358-35.0528C96.9358-34.5553 96.7584-34.1292 96.4036-33.7745C96.0489-33.4197 95.6274-33.2423 95.1391-33.2423L26.5233-33.2423C26.0259-33.2423 25.5998-33.4197 25.245-33.7745C24.8903-34.1292 24.7129-34.5553 24.7129-35.0528C24.7129-35.5502 24.8903-35.974 25.245-36.3242C25.5998-36.6744 26.0259-36.8495 26.5233-36.8495ZM14.4979-12.8635L107.082-12.8635C107.579-12.8635 108.003-12.6884 108.354-12.3382C108.704-11.988 108.879-11.5641 108.879-11.0667C108.879-10.5459 108.704-10.108 108.354-9.75297C108.003-9.3979 107.579-9.22037 107.082-9.22037L14.4979-9.22037C14.0096-9.22037 13.5881-9.3979 13.2333-9.75297C12.8786-10.108 12.7012-10.5459 12.7012-11.0667C12.7012-11.5641 12.8786-11.988 13.2333-12.3382C13.5881-12.6884 14.0096-12.8635 14.4979-12.8635Z"/>
  </g>
  <g id="Ultralight-M" transform="matrix(1 0 0 1 499.296 1126)">
   <path d="M38.9181-10.174L81.9204-10.174C82.2403-10.174 82.5178-10.2911 82.7527-10.5254C82.9877-10.7596 83.1052-11.0364 83.1052-11.3558C83.1052-11.6757 82.9877-11.9532 82.7527-12.1882C82.5178-12.4232 82.2403-12.5407 81.9204-12.5407L38.9181-12.5407C38.5982-12.5407 38.3212-12.4232 38.0872-12.1882C37.8533-11.9532 37.7363-11.6757 37.7363-11.3558C37.7363-11.0364 37.8533-10.7596 38.0872-10.5254C38.3212-10.2911 38.5982-10.174 38.9181-10.174ZM26.4104-33.8221L94.4311-33.8221C94.7484-33.8221 95.0247-33.9392 95.26-34.1734C95.4953-34.4077 95.6129-34.6845 95.6129-35.0039C95.6129-35.3233 95.4953-35.6006 95.26-35.8359C95.0247-36.0712 94.7484-36.1888 94.4311-36.1888L26.4104-36.1888C26.091-36.1888 25.8137-36.0712 25.5784-35.8359C25.3432-35.6006 25.2256-35.3233 25.2256-35.0039C25.2256-34.6845 25.3432-34.4077 25.5784-34.1734C25.8137-33.9392 26.091-33.8221 26.4104-33.8221ZM13.883-57.4702L106.939-57.4702C107.258-57.4702 107.535-57.5872 107.769-57.8211C108.003-58.0551 108.12-58.3321 108.12-58.652C108.12-59.0019 108.003-59.2945 107.769-59.5297C107.535-59.765 107.258-59.8826 106.939-59.8826L13.883-59.8826C13.5656-59.8826 13.2893-59.765 13.054-59.5297C12.8188-59.2945 12.7012-59.0019 12.7012-58.652C12.7012-58.3321 12.8188-58.0551 13.054-57.8211C13.2893-57.5872 13.5656-57.4702 13.883-57.4702Z"/>
  </g>
  <g id="Black-S" transform="matrix(1 0 0 1 2879 696)">
   <path d="M33.4532-61.3711L75.3477-61.3711C77.0729-61.3711 78.5215-60.7282 79.6934-59.4424C80.8652-58.1566 81.4512-56.6836 81.4512-55.0234C81.4512-53.2982 80.8652-51.8089 79.6934-50.5557C78.5215-49.3025 77.0729-48.6758 75.3477-48.6758L33.4532-48.6758C31.7604-48.6758 30.32-49.3106 29.1319-50.5801C27.9437-51.8497 27.3497-53.3308 27.3497-55.0234C27.3497-56.6185 27.9437-58.0752 29.1319-59.3935C30.32-60.7119 31.7604-61.3711 33.4532-61.3711ZM26.129-41.3516L82.6719-41.3516C84.3971-41.3516 85.8457-40.7087 87.0176-39.4228C88.1894-38.137 88.7754-36.6641 88.7754-35.0039C88.7754-33.2787 88.1894-31.7894 87.0176-30.5361C85.8457-29.2829 84.3971-28.6562 82.6719-28.6562L26.129-28.6562C24.4362-28.6562 22.9958-29.291 21.8077-30.5605C20.6195-31.8301 20.0254-33.3112 20.0254-35.0039C20.0254-36.599 20.6195-38.0557 21.8077-39.374C22.9958-40.6924 24.4362-41.3516 26.129-41.3516ZM18.8047-21.332L89.9961-21.332C91.7213-21.332 93.1699-20.6891 94.3418-19.4033C95.5137-18.1175 96.0997-16.6446 96.0997-14.9844C96.0997-13.2592 95.5137-11.7699 94.3418-10.5166C93.1699-9.26335 91.7213-8.63672 89.9961-8.63672L18.8047-8.63672C17.112-8.63672 15.6716-9.27149 14.4835-10.541C13.2953-11.8106 12.7012-13.2917 12.7012-14.9844C12.7012-16.5794 13.2953-18.0361 14.4835-19.3545C15.6716-20.6729 17.112-21.332 18.8047-21.332Z"/>
  </g>
  <g id="Heavy-S" transform="matrix(1 0 0 1 2582.93 696)">
   <path d="M32.9573-60.6913L74.6099-60.6913C76.1587-60.6913 77.4614-60.1195 78.5181-58.9758C79.5747-57.8322 80.1031-56.5071 80.1031-55.0005C80.1031-53.4518 79.5747-52.118 78.5181-50.9993C77.4614-49.8806 76.1587-49.3212 74.6099-49.3212L32.9573-49.3212C31.4339-49.3212 30.1377-49.8868 29.0686-51.018C27.9994-52.1492 27.4649-53.4767 27.4649-55.0005C27.4649-56.4572 27.9994-57.7699 29.0686-58.9384C30.1377-60.107 31.4339-60.6913 32.9573-60.6913ZM25.5987-40.6832L81.9693-40.6832C83.5175-40.6832 84.8199-40.1114 85.8767-38.9677C86.9333-37.8241 87.4617-36.5028 87.4617-35.0039C87.4617-33.4551 86.9333-32.1214 85.8767-31.0027C84.8199-29.884 83.5175-29.3246 81.9693-29.3246L25.5987-29.3246C24.0748-29.3246 22.7784-29.8902 21.7096-31.0213C20.6407-32.1525 20.1063-33.48 20.1063-35.0039C20.1063-36.453 20.6407-37.7618 21.7096-38.9304C22.7784-40.0989 24.0748-40.6832 25.5987-40.6832ZM18.1936-20.6866L89.3164-20.6866C90.8722-20.6866 92.1766-20.1148 93.2295-18.9711C94.2823-17.8274 94.8088-16.5062 94.8088-15.0073C94.8088-13.4514 94.2823-12.1139 93.2295-10.995C92.1766-9.876 90.8722-9.3165 89.3164-9.3165L18.1936-9.3165C16.6702-9.3165 15.374-9.8821 14.3049-11.0133C13.2358-12.1444 12.7012-13.4758 12.7012-15.0073C12.7012-16.4564 13.2358-17.7652 14.3049-18.9337C15.374-20.1023 16.6702-20.6866 18.1936-20.6866Z"/>
  </g>
  <g id="Bold-S" transform="matrix(1 0 0 1 2286.94 696)">
   <path d="M32.4034-59.9307L73.7852-59.9307C75.1361-59.9307 76.2754-59.4383 77.2032-58.4536C78.1309-57.4689 78.5948-56.3093 78.5948-54.9746C78.5948-53.6237 78.1309-52.464 77.2032-51.4956C76.2754-50.5272 75.1361-50.043 73.7852-50.043L32.4034-50.043C31.0687-50.043 29.9334-50.5313 28.9976-51.5078C28.0617-52.4843 27.5938-53.6399 27.5938-54.9746C27.5938-56.2767 28.0617-57.4282 28.9976-58.4292C29.9334-59.4302 31.0687-59.9307 32.4034-59.9307ZM25.0059-39.9355L81.1827-39.9355C82.5335-39.9355 83.6728-39.4432 84.6006-38.4585C85.5283-37.4738 85.9922-36.3222 85.9922-35.0039C85.9922-33.653 85.5283-32.4933 84.6006-31.5249C83.6728-30.5565 82.5335-30.0723 81.1827-30.0723L25.0059-30.0723C23.6713-30.0723 22.536-30.5606 21.6002-31.5371C20.6642-32.5136 20.1963-33.6692 20.1963-35.0039C20.1963-36.2897 20.6642-37.4331 21.6002-38.4341C22.536-39.435 23.6713-39.9355 25.0059-39.9355ZM17.5108-19.9648L88.5557-19.9648C89.9229-19.9648 91.0663-19.4725 91.9859-18.4878C92.9055-17.5031 93.3653-16.3515 93.3653-15.0332C93.3653-13.666 92.9055-12.4982 91.9859-11.5298C91.0663-10.5613 89.9229-10.0771 88.5557-10.0771L17.5108-10.0771C16.1761-10.0771 15.0408-10.5654 14.105-11.542C13.1691-12.5185 12.7012-13.6823 12.7012-15.0332C12.7012-16.319 13.1691-17.4624 14.105-18.4634C15.0408-19.4643 16.1761-19.9648 17.5108-19.9648Z"/>
  </g>
  <g id="Semibold-S" transform="matrix(1 0 0 1 1990.73 696)">
   <path d="M32.0211-59.4065L73.2168-59.4065C74.4314-59.4065 75.458-58.969 76.2968-58.0939C77.1355-57.2188 77.5549-56.1731 77.5549-54.957C77.5549-53.7424 77.1355-52.7027 76.2968-51.8378C75.458-50.9729 74.4314-50.5404 73.2168-50.5404L32.0211-50.5404C30.8167-50.5404 29.7924-50.9754 28.9484-51.8454C28.1043-52.7154 27.6823-53.7526 27.6823-54.957C27.6823-56.1523 28.1043-57.1927 28.9484-58.0782C29.7924-58.9637 30.8167-59.4065 32.0211-59.4065ZM24.597-39.4198L80.6402-39.4198C81.8553-39.4198 82.8822-38.9822 83.721-38.1071C84.5597-37.232 84.9791-36.1976 84.9791-35.0039C84.9791-33.7893 84.5597-32.7497 83.721-31.885C82.8822-31.0203 81.8553-30.588 80.6402-30.588L24.597-30.588C23.3925-30.588 22.3684-31.0229 21.5246-31.8926C20.6808-32.7624 20.2589-33.7995 20.2589-35.0039C20.2589-36.1773 20.6808-37.2066 21.5246-38.0919C22.3684-38.9772 23.3925-39.4198 24.597-39.4198ZM17.0401-19.4674L88.0316-19.4674C89.268-19.4674 90.3002-19.0299 91.128-18.1548C91.9558-17.2797 92.3697-16.245 92.3697-15.0507C92.3697-13.8142 91.9558-12.7636 91.128-11.8987C90.3002-11.0338 89.268-10.6013 88.0316-10.6013L17.0401-10.6013C15.8356-10.6013 14.8113-11.0363 13.9673-11.9063C13.1232-12.7763 12.7012-13.8244 12.7012-15.0507C12.7012-16.2241 13.1232-17.2536 13.9673-18.1391C14.8113-19.0246 15.8356-19.4674 17.0401-19.4674Z"/>
  </g>
  <g id="Medium-S" transform="matrix(1 0 0 1 1694.39 696)">
   <path d="M31.7312-59.009L72.785-59.009C73.8963-59.009 74.8378-58.6129 75.6094-57.8207C76.381-57.0286 76.7668-56.0694 76.7668-54.9433C76.7668-53.832 76.381-52.8833 75.6094-52.0972C74.8378-51.3111 73.8963-50.918 72.785-50.918L31.7312-50.918C30.626-50.918 29.6862-51.3126 28.9118-52.1017C28.1374-52.8908 27.7502-53.838 27.7502-54.9433C27.7502-56.0577 28.1374-57.0139 28.9118-57.812C29.6862-58.61 30.626-59.009 31.7312-59.009ZM24.2872-39.0292L80.2298-39.0292C81.3411-39.0292 82.2824-38.6332 83.0538-37.8413C83.8251-37.0494 84.2108-36.1036 84.2108-35.0039C84.2108-33.8926 83.8251-32.9438 83.0538-32.1577C82.2824-31.3716 81.3411-30.9786 80.2298-30.9786L24.2872-30.9786C23.1814-30.9786 22.2414-31.3732 21.467-32.1623C20.6926-32.9514 20.3054-33.8986 20.3054-35.0039C20.3054-36.0918 20.6926-37.0347 21.467-37.8325C22.2414-38.6303 23.1814-39.0292 24.2872-39.0292ZM16.683-19.0897L87.6341-19.0897C88.7719-19.0897 89.7198-18.6937 90.4779-17.9018C91.236-17.1099 91.6151-16.1641 91.6151-15.0645C91.6151-13.9267 91.236-12.9646 90.4779-12.1783C89.7198-11.392 88.7719-10.9988 87.6341-10.9988L16.683-10.9988C15.5772-10.9988 14.6372-11.3934 13.8628-12.1825C13.0884-12.9716 12.7012-13.9323 12.7012-15.0645C12.7012-16.1524 13.0884-17.0953 13.8628-17.8931C14.6372-18.6908 15.5772-19.0897 16.683-19.0897Z"/>
  </g>
  <g id="Regular-S" transform="matrix(1 0 0 1 1398.17 696)">
   <path d="M31.3536-58.4902L72.2227-58.4902C73.1993-58.4902 74.0293-58.1484 74.7129-57.4648C75.3965-56.7812 75.7383-55.9349 75.7383-54.9258C75.7383-53.9492 75.3965-53.1191 74.7129-52.4355C74.0293-51.7519 73.1993-51.4101 72.2227-51.4101L31.3536-51.4101C30.377-51.4101 29.5469-51.7519 28.8633-52.4355C28.1797-53.1191 27.8379-53.9492 27.8379-54.9258C27.8379-55.9349 28.1797-56.7812 28.8633-57.4648C29.5469-58.1484 30.377-58.4902 31.3536-58.4902ZM23.8829-38.5195L79.6934-38.5195C80.67-38.5195 81.5-38.1777 82.1836-37.4941C82.8672-36.8105 83.209-35.9804 83.209-35.0039C83.209-34.0273 82.8672-33.1972 82.1836-32.5137C81.5-31.8301 80.67-31.4883 79.6934-31.4883L23.8829-31.4883C22.9063-31.4883 22.0762-31.8301 21.3926-32.5137C20.709-33.1972 20.3672-34.0273 20.3672-35.0039C20.3672-35.9804 20.709-36.8105 21.3926-37.4941C22.0762-38.1777 22.9063-38.5195 23.8829-38.5195ZM16.2168-18.5976L87.1153-18.5976C88.1244-18.5976 88.9626-18.2558 89.6299-17.5723C90.2972-16.8887 90.6309-16.0586 90.6309-15.082C90.6309-14.0729 90.2972-13.2265 89.6299-12.543C88.9626-11.8594 88.1244-11.5176 87.1153-11.5176L16.2168-11.5176C15.2402-11.5176 14.4102-11.8594 13.7266-12.543C13.043-13.2265 12.7012-14.0729 12.7012-15.082C12.7012-16.0586 13.043-16.8887 13.7266-17.5723C14.4102-18.2558 15.2402-18.5976 16.2168-18.5976Z"/>
  </g>
  <g id="Light-S" transform="matrix(1 0 0 1 1101.95 696)">
   <path d="M31.9441-57.2337L70.5725-57.2337C71.3171-57.2337 71.953-56.9701 72.4802-56.4429C73.0074-55.9157 73.271-55.2638 73.271-54.4871C73.271-53.7424 73.0074-53.1065 72.4802-52.5793C71.953-52.0522 71.3171-51.7886 70.5725-51.7886L31.9441-51.7886C31.1893-51.7886 30.5483-52.0522 30.0211-52.5793C29.4939-53.1065 29.2303-53.7424 29.2303-54.4871C29.2303-55.2638 29.4939-55.9157 30.0211-56.4429C30.5483-56.9701 31.1893-57.2337 31.9441-57.2337ZM23.7463-37.7169L78.7703-37.7169C79.5143-37.7169 80.1525-37.4534 80.6849-36.9265C81.2171-36.3996 81.4833-35.7587 81.4833-35.0039C81.4833-34.2491 81.2171-33.6082 80.6849-33.0813C80.1525-32.5544 79.5143-32.2909 78.7703-32.2909L23.7463-32.2909C22.992-32.2909 22.3513-32.5544 21.8241-33.0813C21.2969-33.6082 21.0333-34.2491 21.0333-35.0039C21.0333-35.7587 21.2969-36.3996 21.8241-36.9265C22.3513-37.4534 22.992-37.7169 23.7463-37.7169ZM15.4142-18.2192L86.9337-18.2192C87.7007-18.2192 88.3446-17.9556 88.8655-17.4284C89.3863-16.9013 89.6467-16.2654 89.6467-15.5207C89.6467-14.744 89.3863-14.0921 88.8655-13.5649C88.3446-13.0377 87.7007-12.7741 86.9337-12.7741L15.4142-12.7741C14.6599-12.7741 14.0192-13.0377 13.492-13.5649C12.9648-14.0921 12.7012-14.744 12.7012-15.5207C12.7012-16.2654 12.9648-16.9013 13.492-17.4284C14.0192-17.9556 14.6599-18.2192 15.4142-18.2192Z"/>
  </g>
  <g id="Thin-S" transform="matrix(1 0 0 1 805.894 696)">
   <path d="M32.7246-55.5728L68.3905-55.5728C68.8284-55.5728 69.2074-55.4126 69.5276-55.0922C69.8478-54.7717 70.0079-54.3765 70.0079-53.9066C70.0079-53.4692 69.8478-53.0903 69.5276-52.7698C69.2074-52.4493 68.8284-52.2891 68.3905-52.2891L32.7246-52.2891C32.2637-52.2891 31.8731-52.4493 31.5527-52.7698C31.2322-53.0903 31.072-53.4692 31.072-53.9066C31.072-54.3765 31.2322-54.7717 31.5527-55.0922C31.8731-55.4126 32.2637-55.5728 32.7246-55.5728ZM23.5662-36.6565L77.5488-36.6565C77.9862-36.6565 78.3709-36.4963 78.7031-36.1759C79.0352-35.8554 79.2013-35.4648 79.2013-35.004C79.2013-34.5432 79.0352-34.1526 78.7031-33.8321C78.3709-33.5117 77.9862-33.3515 77.5488-33.3515L23.5662-33.3515C23.1054-33.3515 22.7148-33.5117 22.3944-33.8321C22.0739-34.1526 21.9137-34.5432 21.9137-35.004C21.9137-35.4648 22.0739-35.8554 22.3944-36.1759C22.7148-36.4963 23.1054-36.6565 23.5662-36.6565ZM14.3538-17.7188L86.6934-17.7188C87.1399-17.7188 87.527-17.5586 87.8546-17.2382C88.1821-16.9177 88.3459-16.5388 88.3459-16.1014C88.3459-15.6314 88.1821-15.2362 87.8546-14.9158C87.527-14.5953 87.1399-14.4351 86.6934-14.4351L14.3538-14.4351C13.8929-14.4351 13.5023-14.5953 13.1819-14.9158C12.8614-15.2362 12.7012-15.6314 12.7012-16.1014C12.7012-16.5388 12.8614-16.9177 13.1819-17.2382C13.5023-17.5586 13.8929-17.7188 14.3538-17.7188Z"/>
  </g>
  <g id="Ultralight-S" transform="matrix(1 0 0 1 509.517 696)">
   <path d="M33.1244-54.7213L67.2728-54.7213C67.553-54.7213 67.8003-54.6141 68.0147-54.3997C68.2291-54.1853 68.3363-53.9217 68.3363-53.6089C68.3363-53.3287 68.2291-53.0814 68.0147-52.867C67.8003-52.6526 67.553-52.5454 67.2728-52.5454L33.1244-52.5454C32.8141-52.5454 32.5518-52.6526 32.3374-52.867C32.123-53.0814 32.0158-53.3287 32.0158-53.6089C32.0158-53.9217 32.123-54.1853 32.3374-54.3997C32.5518-54.6141 32.8141-54.7213 33.1244-54.7213ZM23.4739-36.1124L76.9232-36.1124C77.2034-36.1124 77.4584-36.0053 77.688-35.7912C77.9176-35.5771 78.0325-35.3146 78.0325-35.0039C78.0325-34.6931 77.9176-34.4306 77.688-34.2165C77.4584-34.0024 77.2034-33.8953 76.9232-33.8953L23.4739-33.8953C23.1636-33.8953 22.9013-34.0024 22.687-34.2165C22.4726-34.4306 22.3654-34.6931 22.3654-35.0039C22.3654-35.3146 22.4726-35.5771 22.687-35.7912C22.9013-36.0053 23.1636-36.1124 23.4739-36.1124ZM13.8098-17.4624L86.5705-17.4624C86.8528-17.4624 87.1081-17.3552 87.3365-17.1408C87.5649-16.9264 87.6791-16.6791 87.6791-16.3989C87.6791-16.086 87.5649-15.8224 87.3365-15.6081C87.1081-15.3937 86.8528-15.2865 86.5705-15.2865L13.8098-15.2865C13.4995-15.2865 13.2372-15.3937 13.0228-15.6081C12.8084-15.8224 12.7012-16.086 12.7012-16.3989C12.7012-16.6791 12.8084-16.9264 13.0228-17.1408C13.2372-17.3552 13.4995-17.4624 13.8098-17.4624Z"/>
  </g>
 </g>
</svg>
