<?xml version="1.0" encoding="UTF-8"?>
<svg width="100px" height="100px" viewBox="0 0 100 100" version="1.1" xmlns="http://www.w3.org/2000/svg" xmlns:xlink="http://www.w3.org/1999/xlink">
    <title>Episodes</title>
    <g id="Placeholders" stroke="none" stroke-width="1" fill="none" fill-rule="evenodd">
        <g id="Empty-placeholders" transform="translate(-1565, 10)" fill="#000000" fill-rule="nonzero">
            <g id="Episodes" transform="translate(1615, 40) rotate(-180) translate(-1615, -40)translate(1565, -10)">
                <path d="M78.8285714,17.6654722 C79.922449,17.2164926 80.2346939,15.5562885 79.4142857,14.5991457 L78.9459184,14.0522069 L36.642635,14 L36.642635,14 L25.8487733,14.0350469 L25.8487733,14.0350469 L23.2791602,14.0729528 L23.2791602,14.0729528 L21.8410957,14.1220812 L21.8410957,14.1220812 L21.3459128,14.1594434 L21.3459128,14.1594434 L21.2281673,14.1749169 L21.2281673,14.1749169 L21.1242572,14.1968222 L21.1242572,14.1968222 L21.0938776,14.2083293 L21.0938776,14.2083293 C20.8204082,14.345064 20.4683673,14.7358804 20.2734694,15.0869008 C19.9268027,15.797377 20.0396916,16.6109643 20.5806101,17.2397812 L20.750484,17.4166442 L20.750484,17.4166442 L20.8063062,17.4581068 L20.8063062,17.4581068 L20.8815525,17.4961476 L20.8815525,17.4961476 L20.9573663,17.5225318 L20.9573663,17.5225318 L21.0549587,17.5471535 L21.0549587,17.5471535 L21.2269985,17.5773612 L21.2269985,17.5773612 L21.3934949,17.5981412 L21.3934949,17.5981412 L21.8429849,17.6351795 L21.8429849,17.6351795 L22.6055112,17.6713962 L22.6055112,17.6713962 L23.338183,17.6931174 L23.338183,17.6931174 L25.8763949,17.7332491 L25.8763949,17.7332491 L29.3735766,17.7581981 L29.3735766,17.7581981 L56.9645666,17.805146 L56.9645666,17.805146 L75.4171421,17.7422842 L75.4171421,17.7422842 L78.1700494,17.7002657 L78.1700494,17.7002657 L78.7360447,17.677507 L78.7360447,17.677507 L78.8177091,17.6685204 C78.8227042,17.6675087 78.8263287,17.6664926 78.8285714,17.6654722 Z M10,22.1661525 C4.4771525,22.1661525 0,26.643305 0,32.1661525 L0,76.1661525 C0,81.689 4.4771525,86.1661525 10,86.1661525 L90,86.1661525 C95.5228475,86.1661525 100,81.689 100,76.1661525 L100,32.1661525 C100,26.643305 95.5228475,22.1661525 90,22.1661525 L10,22.1661525 Z M69.166564,51.1719734 C75.1850939,50.9713188 80,55.9854262 80,62.0023963 C80,67.8187117 75.1850939,72.8328191 69.166564,72.8328191 C63.2484901,72.8328191 58.3333333,67.8187117 58.3333333,62.0023963 C58.3333333,55.9854262 63.2484901,51.3724227 69.166564,51.1719734 Z M13.5384636,25.5219275 L85.7137851,25.5219275 C86.8542034,25.5219275 87.945201,25.7335225 88.94966,26.1195945 L89.2812236,26.2546963 L77.9219229,37.8881872 L77.6711414,38.1203605 L77.4311891,38.3287611 C75.8280067,39.6772165 74.1559595,40.2126664 72.4840677,40.2126664 C70.8346655,40.2126664 69.0377759,39.6171937 67.4234401,38.3596324 L67.1405196,38.1308234 L66.8617921,37.8881872 L59.3039511,30.9147306 L40.4092544,47.837061 L40.1196277,48.0843042 L39.8421462,48.3085799 C37.8963979,49.8386304 35.880826,50.533434 33.865254,50.533434 C31.8374942,50.533434 29.6549285,49.9084457 28.0273744,48.3002931 L27.808942,48.074872 L27.59779,47.837061 L9.28122357,26.5875406 C10.4517965,25.9598802 11.7769373,25.5829994 13.1848127,25.5287317 L13.5384636,25.5219275 Z"></path>
            </g>
        </g>
    </g>
</svg>