<?xml version="1.0" encoding="UTF-8"?>
<!--Generator: Apple Native CoreSVG 175-->
<!DOCTYPE svg
PUBLIC "-//W3C//DTD SVG 1.1//EN"
       "http://www.w3.org/Graphics/SVG/1.1/DTD/svg11.dtd">
<svg version="1.1" xmlns="http://www.w3.org/2000/svg" xmlns:xlink="http://www.w3.org/1999/xlink" width="3300" height="2200">
 <!--glyph: "", point size: 100.0, font version: "17.3d3e1", template writer version: "65.1"-->
 <g id="Notes">
  <rect height="2200" id="artboard" style="fill:white;opacity:1" width="3300" x="0" y="0"/>
  <line style="fill:none;stroke:black;opacity:1;stroke-width:0.5;" x1="263" x2="3036" y1="292" y2="292"/>
  <text style="stroke:none;fill:black;font-family:sans-serif;font-size:13;font-weight:bold;" transform="matrix(1 0 0 1 263 322)">Weight/Scale Variations</text>
  <text style="stroke:none;fill:black;font-family:sans-serif;font-size:13;text-anchor:middle;" transform="matrix(1 0 0 1 559.711 322)">Ultralight</text>
  <text style="stroke:none;fill:black;font-family:sans-serif;font-size:13;text-anchor:middle;" transform="matrix(1 0 0 1 856.422 322)">Thin</text>
  <text style="stroke:none;fill:black;font-family:sans-serif;font-size:13;text-anchor:middle;" transform="matrix(1 0 0 1 1153.13 322)">Light</text>
  <text style="stroke:none;fill:black;font-family:sans-serif;font-size:13;text-anchor:middle;" transform="matrix(1 0 0 1 1449.84 322)">Regular</text>
  <text style="stroke:none;fill:black;font-family:sans-serif;font-size:13;text-anchor:middle;" transform="matrix(1 0 0 1 1746.56 322)">Medium</text>
  <text style="stroke:none;fill:black;font-family:sans-serif;font-size:13;text-anchor:middle;" transform="matrix(1 0 0 1 2043.27 322)">Semibold</text>
  <text style="stroke:none;fill:black;font-family:sans-serif;font-size:13;text-anchor:middle;" transform="matrix(1 0 0 1 2339.98 322)">Bold</text>
  <text style="stroke:none;fill:black;font-family:sans-serif;font-size:13;text-anchor:middle;" transform="matrix(1 0 0 1 2636.69 322)">Heavy</text>
  <text style="stroke:none;fill:black;font-family:sans-serif;font-size:13;text-anchor:middle;" transform="matrix(1 0 0 1 2933.4 322)">Black</text>
  <line style="fill:none;stroke:black;opacity:1;stroke-width:0.5;" x1="263" x2="3036" y1="1903" y2="1903"/>
  <g transform="matrix(1 0 0 1 263 1933)">
   <path d="M9.24805 0.830078Q10.8691 0.830078 12.2949 0.214844Q13.7207-0.400391 14.8096-1.49414Q15.8984-2.58789 16.5186-4.01367Q17.1387-5.43945 17.1387-7.05078Q17.1387-8.66211 16.5186-10.0879Q15.8984-11.5137 14.8047-12.6074Q13.7109-13.7012 12.2852-14.3164Q10.8594-14.9316 9.23828-14.9316Q7.62695-14.9316 6.20117-14.3164Q4.77539-13.7012 3.69141-12.6074Q2.60742-11.5137 1.9873-10.0879Q1.36719-8.66211 1.36719-7.05078Q1.36719-5.43945 1.9873-4.01367Q2.60742-2.58789 3.69629-1.49414Q4.78516-0.400391 6.21094 0.214844Q7.63672 0.830078 9.24805 0.830078ZM9.24805-0.654297Q7.91992-0.654297 6.7627-1.14746Q5.60547-1.64062 4.73145-2.51953Q3.85742-3.39844 3.36426-4.56055Q2.87109-5.72266 2.87109-7.05078Q2.87109-8.37891 3.35938-9.54102Q3.84766-10.7031 4.72168-11.582Q5.5957-12.4609 6.75293-12.9541Q7.91016-13.4473 9.23828-13.4473Q10.5762-13.4473 11.7334-12.9541Q12.8906-12.4609 13.7695-11.582Q14.6484-10.7031 15.1465-9.54102Q15.6445-8.37891 15.6445-7.05078Q15.6445-5.72266 15.1514-4.56055Q14.6582-3.39844 13.7842-2.51953Q12.9102-1.64062 11.748-1.14746Q10.5859-0.654297 9.24805-0.654297ZM5.6543-7.05078Q5.6543-6.72852 5.85938-6.52832Q6.06445-6.32812 6.40625-6.32812L8.51562-6.32812L8.51562-4.20898Q8.51562-3.88672 8.71094-3.67676Q8.90625-3.4668 9.23828-3.4668Q9.56055-3.4668 9.77051-3.67676Q9.98047-3.88672 9.98047-4.20898L9.98047-6.32812L12.0898-6.32812Q12.4219-6.32812 12.627-6.52832Q12.832-6.72852 12.832-7.05078Q12.832-7.38281 12.627-7.58789Q12.4219-7.79297 12.0898-7.79297L9.98047-7.79297L9.98047-9.90234Q9.98047-10.2344 9.77051-10.4443Q9.56055-10.6543 9.23828-10.6543Q8.90625-10.6543 8.71094-10.4443Q8.51562-10.2344 8.51562-9.90234L8.51562-7.79297L6.40625-7.79297Q6.06445-7.79297 5.85938-7.58789Q5.6543-7.38281 5.6543-7.05078Z"/>
  </g>
  <g transform="matrix(1 0 0 1 281.867 1933)">
   <path d="M11.709 2.91016Q13.75 2.91016 15.5518 2.12891Q17.3535 1.34766 18.7305-0.0292969Q20.1074-1.40625 20.8887-3.20801Q21.6699-5.00977 21.6699-7.05078Q21.6699-9.0918 20.8887-10.8936Q20.1074-12.6953 18.7305-14.0723Q17.3535-15.4492 15.5469-16.2305Q13.7402-17.0117 11.6992-17.0117Q9.6582-17.0117 7.85645-16.2305Q6.05469-15.4492 4.68262-14.0723Q3.31055-12.6953 2.5293-10.8936Q1.74805-9.0918 1.74805-7.05078Q1.74805-5.00977 2.5293-3.20801Q3.31055-1.40625 4.6875-0.0292969Q6.06445 1.34766 7.86621 2.12891Q9.66797 2.91016 11.709 2.91016ZM11.709 1.25Q9.98047 1.25 8.47656 0.605469Q6.97266-0.0390625 5.83496-1.17676Q4.69727-2.31445 4.05762-3.81836Q3.41797-5.32227 3.41797-7.05078Q3.41797-8.7793 4.05762-10.2832Q4.69727-11.7871 5.83008-12.9297Q6.96289-14.0723 8.4668-14.7119Q9.9707-15.3516 11.6992-15.3516Q13.4277-15.3516 14.9316-14.7119Q16.4355-14.0723 17.5781-12.9297Q18.7207-11.7871 19.3652-10.2832Q20.0098-8.7793 20.0098-7.05078Q20.0098-5.32227 19.3701-3.81836Q18.7305-2.31445 17.5928-1.17676Q16.4551-0.0390625 14.9463 0.605469Q13.4375 1.25 11.709 1.25ZM7.17773-7.05078Q7.17773-6.69922 7.41211-6.47461Q7.64648-6.25 8.01758-6.25L10.8887-6.25L10.8887-3.36914Q10.8887-2.99805 11.1133-2.76855Q11.3379-2.53906 11.6895-2.53906Q12.0605-2.53906 12.29-2.76855Q12.5195-2.99805 12.5195-3.36914L12.5195-6.25L15.4004-6.25Q15.7715-6.25 16.001-6.47461Q16.2305-6.69922 16.2305-7.05078Q16.2305-7.42188 16.001-7.65137Q15.7715-7.88086 15.4004-7.88086L12.5195-7.88086L12.5195-10.752Q12.5195-11.1328 12.29-11.3623Q12.0605-11.5918 11.6895-11.5918Q11.3379-11.5918 11.1133-11.3574Q10.8887-11.123 10.8887-10.752L10.8887-7.88086L8.01758-7.88086Q7.63672-7.88086 7.40723-7.65137Q7.17773-7.42188 7.17773-7.05078Z"/>
  </g>
  <g transform="matrix(1 0 0 1 305.646 1933)">
   <path d="M14.9707 5.66406Q17.0605 5.66406 18.96 5.01465Q20.8594 4.36523 22.4512 3.19336Q24.043 2.02148 25.2197 0.429688Q26.3965-1.16211 27.0459-3.06641Q27.6953-4.9707 27.6953-7.05078Q27.6953-9.14062 27.0459-11.04Q26.3965-12.9395 25.2197-14.5312Q24.043-16.123 22.4512-17.2998Q20.8594-18.4766 18.9551-19.126Q17.0508-19.7754 14.9609-19.7754Q12.8711-19.7754 10.9717-19.126Q9.07227-18.4766 7.48535-17.2998Q5.89844-16.123 4.72168-14.5312Q3.54492-12.9395 2.90039-11.04Q2.25586-9.14062 2.25586-7.05078Q2.25586-4.9707 2.90527-3.06641Q3.55469-1.16211 4.72656 0.429688Q5.89844 2.02148 7.49023 3.19336Q9.08203 4.36523 10.9814 5.01465Q12.8809 5.66406 14.9707 5.66406ZM14.9707 3.84766Q13.1641 3.84766 11.5283 3.2959Q9.89258 2.74414 8.53516 1.74805Q7.17773 0.751953 6.17676-0.610352Q5.17578-1.97266 4.62891-3.6084Q4.08203-5.24414 4.08203-7.05078Q4.08203-8.86719 4.62891-10.5029Q5.17578-12.1387 6.17188-13.501Q7.16797-14.8633 8.52539-15.8594Q9.88281-16.8555 11.5186-17.4023Q13.1543-17.9492 14.9609-17.9492Q16.7773-17.9492 18.4131-17.4023Q20.0488-16.8555 21.4111-15.8594Q22.7734-14.8633 23.7695-13.501Q24.7656-12.1387 25.3174-10.5029Q25.8691-8.86719 25.8691-7.05078Q25.8789-5.24414 25.332-3.6084Q24.7852-1.97266 23.7842-0.610352Q22.7832 0.751953 21.4209 1.74805Q20.0586 2.74414 18.4229 3.2959Q16.7871 3.84766 14.9707 3.84766ZM9.19922-7.05078Q9.19922-6.66992 9.45801-6.4209Q9.7168-6.17188 10.1172-6.17188L14.0625-6.17188L14.0625-2.2168Q14.0625-1.81641 14.3115-1.55762Q14.5605-1.29883 14.9512-1.29883Q15.3516-1.29883 15.6104-1.55273Q15.8691-1.80664 15.8691-2.2168L15.8691-6.17188L19.8242-6.17188Q20.2246-6.17188 20.4785-6.4209Q20.7324-6.66992 20.7324-7.05078Q20.7324-7.46094 20.4785-7.71484Q20.2246-7.96875 19.8242-7.96875L15.8691-7.96875L15.8691-11.9141Q15.8691-12.3242 15.6104-12.583Q15.3516-12.8418 14.9512-12.8418Q14.5605-12.8418 14.3115-12.583Q14.0625-12.3242 14.0625-11.9141L14.0625-7.96875L10.1172-7.96875Q9.70703-7.96875 9.45312-7.71484Q9.19922-7.46094 9.19922-7.05078Z"/>
  </g>
  <text style="stroke:none;fill:black;font-family:sans-serif;font-size:13;font-weight:bold;" transform="matrix(1 0 0 1 263 1953)">Design Variations</text>
  <text style="stroke:none;fill:black;font-family:sans-serif;font-size:13;" transform="matrix(1 0 0 1 263 1971)">Symbols are supported in up to nine weights and three scales.</text>
  <text style="stroke:none;fill:black;font-family:sans-serif;font-size:13;" transform="matrix(1 0 0 1 263 1989)">For optimal layout with text and other symbols, vertically align</text>
  <text style="stroke:none;fill:black;font-family:sans-serif;font-size:13;" transform="matrix(1 0 0 1 263 2007)">symbols with the adjacent text.</text>
  <line style="fill:none;stroke:#00AEEF;stroke-width:0.5;opacity:1.0;" x1="776" x2="776" y1="1919" y2="1933"/>
  <g transform="matrix(1 0 0 1 776 1933)">
   <path d="M3.31055 0.15625Q3.70117 0.15625 3.91602-0.00976562Q4.13086-0.175781 4.26758-0.585938L5.52734-4.0332L11.2891-4.0332L12.5488-0.585938Q12.6855-0.175781 12.9004-0.00976562Q13.1152 0.15625 13.4961 0.15625Q13.8867 0.15625 14.1162-0.0585938Q14.3457-0.273438 14.3457-0.644531Q14.3457-0.869141 14.2383-1.17188L9.6582-13.3691Q9.48242-13.8184 9.17969-14.043Q8.87695-14.2676 8.4082-14.2676Q7.5-14.2676 7.17773-13.3789L2.59766-1.16211Q2.49023-0.859375 2.49023-0.634766Q2.49023-0.263672 2.70996-0.0537109Q2.92969 0.15625 3.31055 0.15625ZM6.00586-5.51758L8.37891-12.0898L8.42773-12.0898L10.8008-5.51758Z"/>
  </g>
  <line style="fill:none;stroke:#00AEEF;stroke-width:0.5;opacity:1.0;" x1="793.197" x2="793.197" y1="1919" y2="1933"/>
  <text style="stroke:none;fill:black;font-family:sans-serif;font-size:13;font-weight:bold;" transform="matrix(1 0 0 1 776 1953)">Margins</text>
  <text style="stroke:none;fill:black;font-family:sans-serif;font-size:13;" transform="matrix(1 0 0 1 776 1971)">Leading and trailing margins on the left and right side of each symbol</text>
  <text style="stroke:none;fill:black;font-family:sans-serif;font-size:13;" transform="matrix(1 0 0 1 776 1989)">can be adjusted by modifying the x-location of the margin guidelines.</text>
  <text style="stroke:none;fill:black;font-family:sans-serif;font-size:13;" transform="matrix(1 0 0 1 776 2007)">Modifications are automatically applied proportionally to all</text>
  <text style="stroke:none;fill:black;font-family:sans-serif;font-size:13;" transform="matrix(1 0 0 1 776 2025)">scales and weights.</text>
  <g transform="matrix(1 0 0 1 1289 1933)">
   <path d="M2.8418 1.86523L4.54102 3.57422Q5.18555 4.22852 5.90332 4.17969Q6.62109 4.13086 7.31445 3.35938L18.0078-8.42773L17.041-9.4043L6.42578 2.27539Q6.16211 2.57812 5.89355 2.61719Q5.625 2.65625 5.27344 2.30469L4.10156 1.14258Q3.75 0.791016 3.79395 0.522461Q3.83789 0.253906 4.14062-0.0195312L15.6152-10.8203L14.6387-11.7871L3.04688-0.898438Q2.30469-0.214844 2.25098 0.498047Q2.19727 1.21094 2.8418 1.86523ZM9.25781-16.3281Q8.94531-16.0254 8.90625-15.6348Q8.86719-15.2441 9.04297-14.9512Q9.21875-14.6777 9.55566-14.541Q9.89258-14.4043 10.3809-14.5215Q11.4746-14.7754 12.5977-14.7314Q13.7207-14.6875 14.7949-13.9844L14.209-12.5293Q13.9551-11.9043 14.0674-11.4404Q14.1797-10.9766 14.5801-10.5664L16.875-8.25195Q17.2363-7.88086 17.5781-7.82227Q17.9199-7.76367 18.3398-7.8418L19.4043-8.03711L20.0684-7.36328L20.0293-6.80664Q20-6.43555 20.1221-6.12305Q20.2441-5.81055 20.6055-5.44922L21.3672-4.70703Q21.7285-4.3457 22.1533-4.33105Q22.5781-4.31641 22.9297-4.66797L25.8398-7.58789Q26.1914-7.93945 26.1816-8.35449Q26.1719-8.76953 25.8105-9.13086L25.0391-9.89258Q24.6875-10.2539 24.3799-10.3857Q24.0723-10.5176 23.7109-10.4883L23.1348-10.4395L22.4902-11.0742L22.7344-12.1973Q22.832-12.6172 22.6953-12.9834Q22.5586-13.3496 22.1191-13.7891L19.9219-15.9766Q18.6719-17.2168 17.2607-17.8369Q15.8496-18.457 14.4189-18.4814Q12.9883-18.5059 11.665-17.959Q10.3418-17.4121 9.25781-16.3281ZM10.752-15.957Q11.6602-16.6211 12.7002-16.9043Q13.7402-17.1875 14.8047-17.085Q15.8691-16.9824 16.8701-16.5137Q17.8711-16.0449 18.7012-15.2051L21.1328-12.793Q21.3086-12.6172 21.3525-12.4512Q21.3965-12.2852 21.3379-12.0312L21.0156-10.5469L22.5195-9.0625L23.5059-9.12109Q23.6914-9.13086 23.7891-9.09668Q23.8867-9.0625 24.0332-8.91602L24.6094-8.33984L22.168-5.89844L21.5918-6.47461Q21.4453-6.62109 21.4062-6.71875Q21.3672-6.81641 21.377-7.01172L21.4453-7.98828L19.9512-9.47266L18.4277-9.21875Q18.1836-9.16992 18.042-9.2041Q17.9004-9.23828 17.7148-9.41406L15.7129-11.416Q15.5176-11.5918 15.4932-11.7529Q15.4688-11.9141 15.5859-12.1875L16.4648-14.2773Q15.293-15.3711 13.8281-15.791Q12.3633-16.2109 10.8398-15.7617Q10.7227-15.7324 10.6885-15.8057Q10.6543-15.8789 10.752-15.957Z"/>
  </g>
  <text style="stroke:none;fill:black;font-family:sans-serif;font-size:13;font-weight:bold;" transform="matrix(1 0 0 1 1289 1953)">Exporting</text>
  <text style="stroke:none;fill:black;font-family:sans-serif;font-size:13;" transform="matrix(1 0 0 1 1289 1971)">Symbols should be outlined when exporting to ensure the</text>
  <text style="stroke:none;fill:black;font-family:sans-serif;font-size:13;" transform="matrix(1 0 0 1 1289 1989)">design is preserved when submitting to Xcode.</text>
  <text id="template-version" style="stroke:none;fill:black;font-family:sans-serif;font-size:13;text-anchor:end;" transform="matrix(1 0 0 1 3036 1933)">Template v.3.0</text>
  <text style="stroke:none;fill:black;font-family:sans-serif;font-size:13;text-anchor:end;" transform="matrix(1 0 0 1 3036 1951)">Requires Xcode 13 or greater</text>
  <text id="descriptive-name" style="stroke:none;fill:black;font-family:sans-serif;font-size:13;text-anchor:end;" transform="matrix(1 0 0 1 3036 1969)">Generated from wave.3.up.circle.fill</text>
  <text style="stroke:none;fill:black;font-family:sans-serif;font-size:13;text-anchor:end;" transform="matrix(1 0 0 1 3036 1987)">Typeset at 100 points</text>
  <text style="stroke:none;fill:black;font-family:sans-serif;font-size:13;" transform="matrix(1 0 0 1 263 726)">Small</text>
  <text style="stroke:none;fill:black;font-family:sans-serif;font-size:13;" transform="matrix(1 0 0 1 263 1156)">Medium</text>
  <text style="stroke:none;fill:black;font-family:sans-serif;font-size:13;" transform="matrix(1 0 0 1 263 1586)">Large</text>
 </g>
 <g id="Guides">
  <g id="H-reference" style="fill:#27AAE1;stroke:none;" transform="matrix(1 0 0 1 339 696)">
   <path d="M0.993347 0L3.6377 0L29.3282-67.1326L30.0301-67.1326L30.0301-70.459L28.1227-70.459ZM11.6882-24.4797L46.9818-24.4797L46.2311-26.7288L12.4382-26.7288ZM55.1193 0L57.7637 0L30.6381-70.459L29.4327-70.459L29.4327-67.1326Z"/>
  </g>
  <line id="Baseline-S" style="fill:none;stroke:#27AAE1;opacity:1;stroke-width:0.5;" x1="263" x2="3036" y1="696" y2="696"/>
  <line id="Capline-S" style="fill:none;stroke:#27AAE1;opacity:1;stroke-width:0.5;" x1="263" x2="3036" y1="625.541" y2="625.541"/>
  <g id="H-reference" style="fill:#27AAE1;stroke:none;" transform="matrix(1 0 0 1 339 1126)">
   <path d="M0.993347 0L3.6377 0L29.3282-67.1326L30.0301-67.1326L30.0301-70.459L28.1227-70.459ZM11.6882-24.4797L46.9818-24.4797L46.2311-26.7288L12.4382-26.7288ZM55.1193 0L57.7637 0L30.6381-70.459L29.4327-70.459L29.4327-67.1326Z"/>
  </g>
  <line id="Baseline-M" style="fill:none;stroke:#27AAE1;opacity:1;stroke-width:0.5;" x1="263" x2="3036" y1="1126" y2="1126"/>
  <line id="Capline-M" style="fill:none;stroke:#27AAE1;opacity:1;stroke-width:0.5;" x1="263" x2="3036" y1="1055.54" y2="1055.54"/>
  <g id="H-reference" style="fill:#27AAE1;stroke:none;" transform="matrix(1 0 0 1 339 1556)">
   <path d="M0.993347 0L3.6377 0L29.3282-67.1326L30.0301-67.1326L30.0301-70.459L28.1227-70.459ZM11.6882-24.4797L46.9818-24.4797L46.2311-26.7288L12.4382-26.7288ZM55.1193 0L57.7637 0L30.6381-70.459L29.4327-70.459L29.4327-67.1326Z"/>
  </g>
  <line id="Baseline-L" style="fill:none;stroke:#27AAE1;opacity:1;stroke-width:0.5;" x1="263" x2="3036" y1="1556" y2="1556"/>
  <line id="Capline-L" style="fill:none;stroke:#27AAE1;opacity:1;stroke-width:0.5;" x1="263" x2="3036" y1="1485.54" y2="1485.54"/>
  <line id="left-margin-Regular-M" style="fill:none;stroke:#00AEEF;stroke-width:0.5;opacity:1.0;" x1="1388.71" x2="1388.71" y1="1030.78" y2="1150.12"/>
  <line id="right-margin-Regular-M" style="fill:none;stroke:#00AEEF;stroke-width:0.5;opacity:1.0;" x1="1510.98" x2="1510.98" y1="1030.78" y2="1150.12"/>
 </g>
 <g id="Symbols">
  <g id="Black-L" transform="matrix(1 0 0 1 2854.12 1556)">
   <path d="M79.28-103.15C41.9075-103.15 11.33-72.5725 11.33-35.2C11.33 2.1725 41.9075 32.75 79.28 32.75C116.653 32.75 147.23 2.1725 147.23-35.2C147.23-72.5725 116.653-103.15 79.28-103.15ZM106.069-1.225C104.824-1.225 104.201-1.84788 102.955-2.47075C93.6118-8.08229 81.7772-11.191 69.3197-11.191C62.468-11.191 54.9935-9.94525 48.7648-8.6995C47.519-8.6995 46.2733-8.07663 45.6504-8.07663C43.1589-8.07663 41.2903-9.94525 41.2903-12.4368C41.2903-14.9283 42.536-16.7969 45.0275-16.7969C53.1249-18.6655 61.2279-19.9113 69.9482-19.9113C84.2743-19.9113 97.3547-16.174 108.566-9.94525C109.812-8.6995 111.058-8.07663 111.058-5.58513C109.801-2.47075 107.932-1.225 106.069-1.225ZM112.915-18.6598C111.669-18.6598 110.424-19.2827 109.178-19.9056C98.5891-26.7572 83.6345-30.4945 67.4454-30.4945C59.348-30.4945 51.8678-29.2487 46.2676-28.003C45.0219-27.3801 44.399-27.3801 43.1532-27.3801C40.0389-27.3801 38.1646-29.8716 38.1646-32.3688C38.1646-35.4831 39.4103-36.7289 42.5247-37.9803C49.9992-39.8489 57.4794-41.7175 68.0682-41.7175C85.5087-41.7175 101.704-37.3574 115.412-29.26C117.281-28.0143 118.527-26.1457 118.527-24.2714C117.898-21.157 116.035-18.6598 112.915-18.6598ZM121.013-38.5975C119.767-38.5975 119.144-39.2204 117.275-39.8433C104.818-46.6949 86.7545-51.055 69.314-51.055C60.5938-51.055 51.2506-49.8093 43.1476-47.9406C41.9018-47.9406 41.279-47.3178 39.4103-47.3178C35.6731-46.6892 33.1816-49.8093 33.1816-53.5408C33.1816-57.2724 35.0502-59.1524 37.5417-59.7696C47.5134-62.2668 58.1022-63.5125 69.314-63.5125C88.6231-63.5125 108.555-59.1524 124.133-51.055C126.001-49.8093 127.87-47.9406 127.87-44.8263C127.247-41.089 124.75-38.5975 121.013-38.5975Z"/>
  </g>
  <g id="Heavy-L" transform="matrix(1 0 0 1 2558.34 1556)">
   <path d="M78.34-102.22C41.4845-102.22 11.33-72.0655 11.33-35.21C11.33 1.6455 41.4845 31.8 78.34 31.8C115.195 31.8 145.35 1.6455 145.35-35.21C145.35-72.0655 115.195-102.22 78.34-102.22ZM104.759-1.705C103.53-1.705 102.916-2.31926 101.687-2.93352C92.4735-8.46743 80.8026-11.5331 68.5175-11.5331C61.7606-11.5331 54.3895-10.3046 48.2469-9.0761C47.0184-9.0761 45.7899-8.46184 45.1756-8.46184C42.7186-8.46184 40.8758-10.3046 40.8758-12.7616C40.8758-15.2187 42.1043-17.0615 44.5614-17.0615C52.5467-18.9042 60.5377-20.1327 69.1373-20.1327C83.2652-20.1327 96.1647-16.4472 107.221-10.3046C108.45-9.0761 109.678-8.46184 109.678-6.00481C108.439-2.93352 106.596-1.705 104.759-1.705ZM111.51-18.8986C110.281-18.8986 109.053-19.5129 107.824-20.1272C97.382-26.884 82.6342-30.5696 66.6691-30.5696C58.6837-30.5696 51.307-29.341 45.7843-28.1125C44.5558-27.4983 43.9415-27.4983 42.713-27.4983C39.6417-27.4983 37.7934-29.9553 37.7934-32.4179C37.7934-35.4892 39.0219-36.7177 42.0932-37.9518C49.4643-39.7946 56.841-41.6374 67.2834-41.6374C84.4826-41.6374 100.453-37.3376 113.973-29.3522C115.815-28.1237 117.044-26.2809 117.044-24.4326C116.424-21.3613 114.587-18.8986 111.51-18.8986ZM119.495-38.5605C118.267-38.5605 117.653-39.1748 115.81-39.789C103.525-46.5459 85.7111-50.8457 68.5119-50.8457C59.9122-50.8457 50.6984-49.6172 42.7074-47.7744C41.4789-47.7744 40.8647-47.1601 39.0219-47.1601C35.3363-46.5403 32.8793-49.6172 32.8793-53.2971C32.8793-56.9771 34.7221-58.831 37.1791-59.4397C47.0128-61.9023 57.4552-63.1308 68.5119-63.1308C87.5539-63.1308 107.21-58.831 122.572-50.8457C124.415-49.6172 126.258-47.7744 126.258-44.7031C125.643-41.0175 123.181-38.5605 119.495-38.5605Z"/>
  </g>
  <g id="Bold-L" transform="matrix(1 0 0 1 2262.81 1556)">
   <path d="M77.16-101.05C40.9535-101.05 11.33-71.4265 11.33-35.22C11.33 0.9865 40.9535 30.61 77.16 30.61C113.367 30.61 142.99 0.9865 142.99-35.22C142.99-71.4265 113.367-101.05 77.16-101.05ZM103.113-2.305C101.907-2.305 101.303-2.90844 100.096-3.51188C91.0446-8.94834 79.5793-11.9601 67.5104-11.9601C60.8726-11.9601 53.6313-10.7532 47.5968-9.5463C46.39-9.5463 45.1831-8.94286 44.5796-8.94286C42.1659-8.94286 40.3555-10.7532 40.3555-13.167C40.3555-15.5807 41.5624-17.391 43.9762-17.391C51.8209-19.2014 59.6712-20.4083 68.1193-20.4083C81.9985-20.4083 94.6708-16.7876 105.533-10.7532C106.74-9.5463 107.946-8.94286 107.946-6.52909C106.729-3.51188 104.918-2.305 103.113-2.305ZM109.746-19.1959C108.539-19.1959 107.332-19.7993 106.125-20.4028C95.8667-27.0406 81.3786-30.6613 65.6946-30.6613C57.8499-30.6613 50.6031-29.4544 45.1776-28.2475C43.9707-27.6441 43.3673-27.6441 42.1604-27.6441C39.1432-27.6441 37.3274-30.0578 37.3274-32.4771C37.3274-35.4943 38.5342-36.7012 41.5515-37.9135C48.7928-39.7239 56.0395-41.5342 66.298-41.5342C83.1944-41.5342 98.8839-37.3101 112.165-29.4654C113.975-28.2585 115.182-26.4482 115.182-24.6323C114.573-21.6151 112.769-19.1959 109.746-19.1959ZM117.591-38.5115C116.384-38.5115 115.78-39.1149 113.97-39.7184C101.901-46.3562 84.4013-50.5803 67.5049-50.5803C59.0567-50.5803 50.0051-49.3735 42.1549-47.5631C40.948-47.5631 40.3446-46.9597 38.5342-46.9597C34.9136-46.3508 32.4998-49.3735 32.4998-52.9886C32.4998-56.6038 34.3102-58.4251 36.7239-59.023C46.3845-61.4423 56.643-62.6492 67.5049-62.6492C86.2116-62.6492 105.522-58.4251 120.613-50.5803C122.424-49.3735 124.234-47.5631 124.234-44.5459C123.63-40.9253 121.211-38.5115 117.591-38.5115Z"/>
  </g>
  <g id="Semibold-L" transform="matrix(1 0 0 1 1966.91 1556)">
   <path d="M76.35-100.25C40.589-100.25 11.33-70.991 11.33-35.23C11.33 0.531 40.589 29.79 76.35 29.79C112.111 29.79 141.37 0.531 141.37-35.23C141.37-70.991 112.111-100.25 76.35-100.25ZM101.984-2.72C100.792-2.72 100.196-3.31602 99.0041-3.91203C90.0638-9.2816 78.7395-12.2563 66.8192-12.2563C60.263-12.2563 53.1108-11.0642 47.1506-9.8722C45.9586-9.8722 44.7665-9.27618 44.1705-9.27618C41.7865-9.27618 39.9984-11.0642 39.9984-13.4483C39.9984-15.8324 41.1904-17.6204 43.5745-17.6204C51.3227-19.4085 59.0764-20.6005 67.4206-20.6005C81.129-20.6005 93.6453-17.0244 104.374-11.0642C105.566-9.8722 106.758-9.27618 106.758-6.89212C105.555-3.91203 103.767-2.72 101.984-2.72ZM108.535-19.403C107.343-19.403 106.151-19.9991 104.959-20.5951C94.8265-27.1513 80.5167-30.7274 65.0257-30.7274C57.2775-30.7274 50.1198-29.5353 44.7611-28.3433C43.5691-27.7473 42.9731-27.7473 41.781-27.7473C38.8009-27.7473 37.0075-30.1313 37.0075-32.5208C37.0075-35.5009 38.1995-36.693 41.1796-37.8904C48.3318-39.6785 55.4894-41.4665 65.6217-41.4665C82.3102-41.4665 97.8066-37.2944 110.924-29.5462C112.712-28.3541 113.904-26.5661 113.904-24.7726C113.303-21.7925 111.52-19.403 108.535-19.403ZM116.283-38.481C115.091-38.481 114.495-39.077 112.707-39.673C100.787-46.2292 83.5022-50.4013 66.8137-50.4013C58.4695-50.4013 49.5292-49.2093 41.7756-47.4213C40.5836-47.4213 39.9876-46.8252 38.1995-46.8252C34.6234-46.2238 32.2393-49.2093 32.2393-52.78C32.2393-56.3507 34.0274-58.1496 36.4115-58.7401C45.9531-61.1296 56.0854-62.3217 66.8137-62.3217C85.2903-62.3217 104.363-58.1496 119.269-50.4013C121.057-49.2093 122.845-47.4213 122.845-44.4412C122.249-40.8651 119.859-38.481 116.283-38.481Z"/>
  </g>
  <g id="Medium-L" transform="matrix(1 0 0 1 1670.82 1556)">
   <path d="M75.73-99.64C40.31-99.64 11.33-70.66 11.33-35.24C11.33 0.18 40.31 29.16 75.73 29.16C111.15 29.16 140.13 0.18 140.13-35.24C140.13-70.66 111.15-99.64 75.73-99.64ZM101.12-3.04C99.939-3.04 99.3487-3.63033 98.168-4.22067C89.313-9.53903 78.0967-12.4853 66.29-12.4853C59.7964-12.4853 52.7124-11.3047 46.809-10.124C45.6284-10.124 44.4477-9.53367 43.8574-9.53367C41.496-9.53367 39.725-11.3047 39.725-13.666C39.725-16.0273 40.9057-17.7983 43.267-17.7983C50.9414-19.5693 58.6211-20.75 66.8857-20.75C80.4634-20.75 92.8604-17.208 103.486-11.3047C104.667-10.124 105.848-9.53367 105.848-7.17233C104.656-4.22067 102.885-3.04 101.12-3.04ZM107.608-19.564C106.427-19.564 105.247-20.1543 104.066-20.7446C94.0303-27.2383 79.857-30.7803 64.5137-30.7803C56.8393-30.7803 49.75-29.5996 44.4423-28.419C43.2617-27.8286 42.6713-27.8286 41.4907-27.8286C38.539-27.8286 36.7626-30.19 36.7626-32.5567C36.7626-35.5083 37.9433-36.689 40.895-37.875C47.979-39.646 55.0683-41.417 65.104-41.417C81.6333-41.417 96.982-37.2847 109.975-29.6104C111.746-28.4297 112.926-26.6587 112.926-24.8823C112.331-21.9307 110.565-19.564 107.608-19.564ZM115.282-38.46C114.102-38.46 113.511-39.0503 111.74-39.6407C99.9337-46.1343 82.814-50.2667 66.2847-50.2667C58.02-50.2667 49.165-49.086 41.4853-47.315C40.3046-47.315 39.7143-46.7247 37.9433-46.7247C34.4013-46.129 32.04-49.086 32.04-52.6226C32.04-56.1593 33.811-57.941 36.1723-58.526C45.623-60.8927 55.6587-62.0733 66.2847-62.0733C84.585-62.0733 103.476-57.941 118.239-50.2667C120.01-49.086 121.781-47.315 121.781-44.3633C121.191-40.8213 118.824-38.46 115.282-38.46Z"/>
  </g>
  <g id="Regular-L" transform="matrix(1 0 0 1 1374.91 1556)">
   <path d="M74.93-98.84C39.95-98.84 11.33-70.22 11.33-35.24C11.33-0.26 39.95 28.36 74.93 28.36C109.91 28.36 138.53-0.26 138.53-35.24C138.53-70.22 109.91-98.84 74.93-98.84ZM100.004-3.44C98.8383-3.44 98.2553-4.023 97.0893-4.606C88.3443-9.8583 77.2673-12.768 65.6073-12.768C59.1943-12.768 52.1983-11.602 46.3683-10.436C45.2023-10.436 44.0363-9.853 43.4533-9.853C41.1213-9.853 39.3723-11.602 39.3723-13.934C39.3723-16.266 40.5383-18.015 42.8703-18.015C50.4493-19.764 58.0336-20.93 66.1956-20.93C79.6046-20.93 91.8476-17.432 102.342-11.602C103.508-10.436 104.674-9.853 104.674-7.521C103.497-4.606 101.748-3.44 100.004-3.44ZM106.412-19.7587C105.246-19.7587 104.08-20.3417 102.914-20.9247C93.003-27.3377 79.0057-30.8357 63.853-30.8357C56.274-30.8357 49.2727-29.6697 44.031-28.5037C42.865-27.9207 42.282-27.9207 41.116-27.9207C38.201-27.9207 36.4467-30.2527 36.4467-32.59C36.4467-35.505 37.6127-36.671 40.5277-37.8423C47.5237-39.5913 54.525-41.3403 64.436-41.3403C80.76-41.3403 95.918-37.2593 108.749-29.6803C110.498-28.5143 111.664-26.7653 111.664-25.011C111.076-22.096 109.332-19.7587 106.412-19.7587ZM113.991-38.42C112.825-38.42 112.242-39.003 110.493-39.586C98.833-45.999 81.926-50.08 65.602-50.08C57.44-50.08 48.695-48.914 41.1107-47.165C39.9447-47.165 39.3617-46.582 37.6127-46.582C34.1147-45.9937 31.7827-48.914 31.7827-52.4067C31.7827-55.8994 33.5317-57.659 35.8637-58.2367C45.197-60.574 55.108-61.74 65.602-61.74C83.675-61.74 102.331-57.659 116.911-50.08C118.66-48.914 120.409-47.165 120.409-44.25C119.826-40.752 117.489-38.42 113.991-38.42Z"/>
  </g>
  <g id="Light-L" transform="matrix(1 0 0 1 1079.13 1556)">
   <path d="M74-97.92C39.5315-97.92 11.33-69.7185 11.33-35.25C11.33-0.7815 39.5315 27.42 74 27.42C108.468 27.42 136.67-0.7815 136.67-35.25C136.67-69.7185 108.468-97.92 74-97.92ZM98.7076-3.915C97.5587-3.915 96.9842-4.48948 95.8353-5.06395C87.2181-10.2394 76.3031-13.1066 64.8136-13.1066C58.4944-13.1066 51.6007-11.9577 45.8559-10.8087C44.707-10.8087 43.558-10.2342 42.9836-10.2342C40.6857-10.2342 38.9622-11.9577 38.9622-14.2556C38.9622-16.5535 40.1112-18.2769 42.4091-18.2769C49.8773-20.0003 57.3507-21.1493 65.3933-21.1493C78.6062-21.1493 90.6702-17.7024 101.011-11.9577C102.16-10.8087 103.309-10.2342 103.309-7.93633C102.149-5.06395 100.426-3.915 98.7076-3.915ZM105.022-19.9951C103.873-19.9951 102.724-20.5696 101.575-21.144C91.8087-27.4633 78.0161-30.9101 63.085-30.9101C55.6168-30.9101 48.7179-29.7612 43.5528-28.6122C42.4039-28.0377 41.8294-28.0377 40.6804-28.0377C37.8081-28.0377 36.0794-30.3356 36.0794-32.6388C36.0794-35.5111 37.2284-36.6601 40.1008-37.8142C46.9945-39.5377 53.8934-41.2611 63.6594-41.2611C79.7447-41.2611 94.6811-37.2398 107.325-29.7716C109.048-28.6226 110.197-26.8992 110.197-25.1706C109.617-22.2982 107.899-19.9951 105.022-19.9951ZM112.49-38.3835C111.341-38.3835 110.766-38.958 109.043-39.5325C97.5535-45.8517 80.8937-49.873 64.8084-49.873C56.7658-49.873 48.1486-48.7241 40.6752-47.0006C39.5263-47.0006 38.9518-46.4262 37.2284-46.4262C33.7815-45.8465 31.4836-48.7241 31.4836-52.1657C31.4836-55.6073 33.2071-57.3412 35.505-57.9104C44.7018-60.2136 54.4678-61.3625 64.8084-61.3625C82.6171-61.3625 101-57.3412 115.367-49.873C117.091-48.7241 118.814-47.0006 118.814-44.1282C118.24-40.6814 115.937-38.3835 112.49-38.3835Z"/>
  </g>
  <g id="Thin-L" transform="matrix(1 0 0 1 784.267 1556)">
   <path d="M72.15-107C38.699-107 11.33-79.631 11.33-46.18C11.33-12.729 38.699 14.64 72.15 14.64C105.601 14.64 132.97-12.729 132.97-46.18C132.97-79.631 105.601-107 72.15-107ZM96.1283-15.77C95.0133-15.77 94.4557-16.3275 93.3407-16.885C84.978-21.9078 74.3851-24.6903 63.2348-24.6903C57.1021-24.6903 50.4119-23.5752 44.8368-22.4602C43.7217-22.4602 42.6067-21.9027 42.0492-21.9027C39.8191-21.9027 38.1466-23.5752 38.1466-25.8053C38.1466-28.0354 39.2616-29.7079 41.4917-29.7079C48.7394-31.3805 55.9922-32.4955 63.7974-32.4955C76.6203-32.4955 88.3281-29.1504 98.3634-23.5752C99.4785-22.4602 100.593-21.9027 100.593-19.6726C99.4683-16.885 97.7958-15.77 96.1283-15.77ZM102.256-31.3754C101.141-31.3754 100.026-31.9329 98.9108-32.4904C89.433-38.6231 76.0475-41.9682 61.5572-41.9682C54.3095-41.9682 47.6142-40.8532 42.6016-39.7381C41.4866-39.1806 40.9291-39.1806 39.814-39.1806C37.0264-39.1806 35.3488-41.4107 35.3488-43.6458C35.3488-46.4334 36.4639-47.5485 39.2514-48.6686C45.9416-50.3411 52.6369-52.0137 62.1147-52.0137C77.7252-52.0137 92.2206-48.111 104.491-40.8633C106.164-39.7483 107.279-38.0757 107.279-36.3981C106.716-33.6105 105.049-31.3754 102.256-31.3754ZM109.504-49.221C108.389-49.221 107.831-49.7785 106.159-50.336C95.0082-56.4687 78.8402-60.3713 63.2297-60.3713C55.4245-60.3713 47.0617-59.2563 39.809-57.5838C38.6939-57.5838 38.1364-57.0262 36.4639-57.0262C33.1188-56.4636 30.8887-59.2563 30.8887-62.5963C30.8887-65.9364 32.5612-67.6191 34.7913-68.1715C43.7166-70.4066 53.1944-71.5217 63.2297-71.5217C80.5127-71.5217 98.3533-67.6191 112.296-60.3713C113.969-59.2563 115.641-57.5838 115.641-54.7962C115.084-51.4511 112.849-49.221 109.504-49.221Z"/>
  </g>
  <g id="Ultralight-L" transform="matrix(1 0 0 1 486.926 1556)">
   <path d="M72.78-96.71C38.9825-96.71 11.33-69.0575 11.33-35.26C11.33-1.4625 38.9825 26.19 72.78 26.19C106.577 26.19 134.23-1.4625 134.23-35.26C134.23-69.0575 106.577-96.71 72.78-96.71ZM97.0067-4.535C95.8801-4.535 95.3168-5.09829 94.1902-5.66158C85.7408-10.7363 75.0383-13.5477 63.7725-13.5477C57.5762-13.5477 50.8167-12.4211 45.1838-11.2945C44.0572-11.2945 42.9307-10.7312 42.3674-10.7312C40.1142-10.7312 38.4243-12.4211 38.4243-14.6743C38.4243-16.9274 39.5509-18.6173 41.8041-18.6173C49.1269-20.3072 56.4548-21.4338 64.3409-21.4338C77.2966-21.4338 89.1257-18.054 99.2649-12.4211C100.392-11.2945 101.518-10.7312 101.518-8.47804C100.381-5.66158 98.6914-4.535 97.0067-4.535ZM103.198-20.302C102.071-20.302 100.945-20.8653 99.818-21.4286C90.242-27.6248 76.7179-31.0046 62.0775-31.0046C54.7547-31.0046 47.99-29.878 42.9255-28.7514C41.799-28.1881 41.2357-28.1881 40.1091-28.1881C37.2926-28.1881 35.5976-30.4413 35.5976-32.6996C35.5976-35.516 36.7242-36.6426 39.5407-37.7743C46.3002-39.4642 53.0648-41.1541 62.6407-41.1541C78.4129-41.1541 93.0585-37.211 105.456-29.8882C107.146-28.7617 108.272-27.0718 108.272-25.3768C107.704-22.5603 106.019-20.302 103.198-20.302ZM110.521-38.3325C109.394-38.3325 108.831-38.8958 107.141-39.4591C95.875-45.6553 79.5395-49.5983 63.7673-49.5983C55.8812-49.5983 47.4319-48.4717 40.104-46.7819C38.9774-46.7819 38.4141-46.2186 36.7242-46.2186C33.3445-45.6502 31.0913-48.4717 31.0913-51.8464C31.0913-55.221 32.7812-56.9211 35.0343-57.4793C44.0521-59.7376 53.6281-60.8642 63.7673-60.8642C81.2294-60.8642 99.2547-56.9211 113.342-49.5983C115.032-48.4717 116.722-46.7819 116.722-43.9654C116.159-40.5857 113.9-38.3325 110.521-38.3325Z"/>
  </g>
  <g id="Black-M" transform="matrix(1 0 0 1 2868.75 1126)">
   <path d="M64.65-88.52C35.324-88.52 11.33-64.526 11.33-35.2C11.33-5.874 35.324 18.12 64.65 18.12C93.976 18.12 117.97-5.874 117.97-35.2C117.97-64.526 93.976-88.52 64.65-88.52ZM85.6714-8.54C84.6939-8.54 84.2051-9.02877 83.2276-9.51753C75.8961-13.9209 66.6095-16.3603 56.8342-16.3603C51.4577-16.3603 45.5925-15.3827 40.7049-14.4052C39.7273-14.4052 38.7498-13.9164 38.261-13.9164C36.306-13.9164 34.8397-15.3827 34.8397-17.3378C34.8397-19.2929 35.8172-20.7592 37.7723-20.7592C44.1262-22.2255 50.4847-23.203 57.3274-23.203C68.569-23.203 78.8331-20.2704 87.6309-15.3827C88.6085-14.4052 89.586-13.9164 89.586-11.9614C88.5996-9.51753 87.1333-8.54 85.6714-8.54ZM91.0434-22.221C90.0659-22.221 89.0883-22.7098 88.1108-23.1986C79.8018-28.575 68.0669-31.5076 55.3634-31.5076C49.0095-31.5076 43.1398-30.5301 38.7454-29.5525C37.7678-29.0638 37.2791-29.0638 36.3015-29.0638C33.8577-29.0638 32.387-31.0188 32.387-32.9783C32.387-35.4222 33.3645-36.3997 35.8083-37.3817C41.6735-38.848 47.5432-40.3143 55.8522-40.3143C69.5377-40.3143 82.2456-36.8929 93.0029-30.5389C94.4692-29.5614 95.4467-28.0951 95.4467-26.6244C94.9535-24.1805 93.4917-22.221 91.0434-22.221ZM97.3974-37.866C96.4198-37.866 95.9311-38.3548 94.4648-38.8435C84.6894-44.22 70.5152-47.6413 56.8297-47.6413C49.987-47.6413 42.6555-46.6638 36.2971-45.1975C35.3196-45.1975 34.8308-44.7087 33.3645-44.7087C30.4319-44.2155 28.4768-46.6638 28.4768-49.592C28.4768-52.5201 29.9431-53.9953 31.8982-54.4796C39.7229-56.4391 48.0319-57.4167 56.8297-57.4167C71.9815-57.4167 87.622-53.9953 99.8456-47.6413C101.312-46.6638 102.778-45.1975 102.778-42.7537C102.289-39.8211 100.33-37.866 97.3974-37.866Z"/>
  </g>
  <g id="Heavy-M" transform="matrix(1 0 0 1 2572.86 1126)">
   <path d="M63.82-87.7C34.9505-87.7 11.33-64.0795 11.33-35.21C11.33-6.3405 34.9505 17.28 63.82 17.28C92.6895 17.28 116.31-6.3405 116.31-35.21C116.31-64.0795 92.6895-87.7 63.82-87.7ZM84.5142-8.965C83.5519-8.965 83.0707-9.44616 82.1084-9.92732C74.891-14.2621 65.749-16.6635 56.1258-16.6635C50.8331-16.6635 45.0592-15.7012 40.2476-14.7389C39.2853-14.7389 38.323-14.2577 37.8418-14.2577C35.9172-14.2577 34.4737-15.7012 34.4737-17.6259C34.4737-19.5505 35.436-20.994 37.3607-20.994C43.6157-22.4374 49.8752-23.3998 56.6114-23.3998C67.678-23.3998 77.7823-20.5128 86.4432-15.7012C87.4055-14.7389 88.3678-14.2577 88.3678-12.3331C87.3968-9.92732 85.9533-8.965 84.5142-8.965ZM89.8025-22.4331C88.8402-22.4331 87.8779-22.9142 86.9156-23.3954C78.7359-28.6881 67.1837-31.5751 54.678-31.5751C48.4229-31.5751 42.6447-30.6128 38.3186-29.6504C37.3563-29.1693 36.8751-29.1693 35.9128-29.1693C33.507-29.1693 32.0592-31.0939 32.0592-33.0229C32.0592-35.4287 33.0215-36.391 35.4273-37.3577C41.2012-38.8012 46.9795-40.2447 55.1591-40.2447C68.6316-40.2447 81.1417-36.8766 91.7316-30.6215C93.175-29.6592 94.1373-28.2157 94.1373-26.7679C93.6518-24.3621 92.2127-22.4331 89.8025-22.4331ZM96.0576-37.8345C95.0953-37.8345 94.6141-38.3157 93.1707-38.7968C83.5475-44.0896 69.5939-47.4577 56.1215-47.4577C49.3852-47.4577 42.1679-46.4954 35.9084-45.0519C34.9461-45.0519 34.465-44.5707 33.0215-44.5707C30.1345-44.0852 28.2099-46.4954 28.2099-49.3779C28.2099-52.2605 29.6534-53.7127 31.578-54.1895C39.2809-56.1185 47.4606-57.0808 56.1215-57.0808C71.0374-57.0808 86.4344-53.7127 98.4678-47.4577C99.9112-46.4954 101.355-45.0519 101.355-42.6461C100.874-39.7591 98.9446-37.8345 96.0576-37.8345Z"/>
  </g>
  <g id="Bold-M" transform="matrix(1 0 0 1 2277.08 1126)">
   <path d="M62.89-86.78C34.532-86.78 11.33-63.578 11.33-35.22C11.33-6.862 34.532 16.34 62.89 16.34C91.248 16.34 114.45-6.862 114.45-35.22C114.45-63.578 91.248-86.78 62.89-86.78ZM83.2175-9.44C82.2723-9.44 81.7996-9.91263 80.8544-10.3853C73.7649-14.6433 64.7848-17.0021 55.3322-17.0021C50.1332-17.0021 44.4616-16.0569 39.7353-15.1116C38.79-15.1116 37.8447-14.639 37.3721-14.639C35.4816-14.639 34.0637-16.0569 34.0637-17.9474C34.0637-19.8379 35.0089-21.2558 36.8995-21.2558C43.0437-22.6737 49.1922-23.619 55.8091-23.619C66.6797-23.619 76.605-20.7832 85.1124-16.0569C86.0576-15.1116 87.0029-14.639 87.0029-12.7484C86.049-10.3853 84.6311-9.44 83.2175-9.44ZM88.4122-22.6694C87.4669-22.6694 86.5217-23.1421 85.5764-23.6147C77.5416-28.8137 66.1941-31.6495 53.91-31.6495C47.7657-31.6495 42.0898-30.7042 37.8404-29.7589C36.8952-29.2863 36.4225-29.2863 35.4773-29.2863C33.1141-29.2863 31.6919-31.1768 31.6919-33.0717C31.6919-35.4348 32.6372-36.3801 35.0003-37.3297C40.6719-38.7476 46.3478-40.1655 54.3826-40.1655C67.6163-40.1655 79.9048-36.857 90.307-30.7128C91.7249-29.7675 92.6702-28.3496 92.6702-26.9274C92.1933-24.5643 90.7797-22.6694 88.4122-22.6694ZM94.5564-37.798C93.6112-37.798 93.1385-38.2706 91.7206-38.7433C82.268-43.9422 68.5616-47.2507 55.3279-47.2507C48.711-47.2507 41.6215-46.3054 35.473-44.8875C34.5277-44.8875 34.0551-44.4149 32.6372-44.4149C29.8014-43.9379 27.9108-46.3054 27.9108-49.1369C27.9108-51.9684 29.3287-53.3949 31.2193-53.8632C38.7857-55.7581 46.8205-56.7033 55.3279-56.7033C69.9795-56.7033 85.1038-53.3949 96.9239-47.2507C98.3418-46.3054 99.7597-44.8875 99.7597-42.5243C99.2871-39.6885 97.3922-37.798 94.5564-37.798Z"/>
  </g>
  <g id="Semibold-M" transform="matrix(1 0 0 1 1981.01 1126)">
   <path d="M62.25-86.14C34.244-86.14 11.33-63.226 11.33-35.22C11.33-7.214 34.244 15.7 62.25 15.7C90.256 15.7 113.17-7.214 113.17-35.22C113.17-63.226 90.256-86.14 62.25-86.14ZM82.3252-9.76C81.3917-9.76 80.9249-10.2268 79.9914-10.6935C72.9899-14.8987 64.1213-17.2283 54.786-17.2283C49.6515-17.2283 44.0503-16.2947 39.3827-15.3612C38.4491-15.3612 37.5156-14.8944 37.0488-14.8944C35.1818-14.8944 33.7815-16.2947 33.7815-18.1618C33.7815-20.0289 34.715-21.4292 36.5821-21.4292C42.65-22.8295 48.7223-23.763 55.257-23.763C65.9926-23.763 75.7947-20.9624 84.1965-16.2947C85.1301-15.3612 86.0636-14.8944 86.0636-13.0274C85.1216-10.6935 83.7213-9.76 82.3252-9.76ZM87.4554-22.8252C86.5219-22.8252 85.5883-23.292 84.6548-23.7588C76.7198-28.8932 65.5131-31.6938 53.3814-31.6938C47.3135-31.6938 41.708-30.7603 37.5114-29.8267C36.5778-29.36 36.1111-29.36 35.1775-29.36C32.8437-29.36 31.4392-31.227 31.4392-33.0983C31.4392-35.4322 32.3727-36.3657 34.7065-37.3035C40.3077-38.7038 45.9132-40.1041 53.8482-40.1041C66.9177-40.1041 79.0536-36.8367 89.3267-30.7687C90.727-29.8352 91.6605-28.4349 91.6605-27.0304C91.1895-24.6965 89.7935-22.8252 87.4554-22.8252ZM93.5234-37.766C92.5898-37.766 92.1231-38.2328 90.7228-38.6995C81.3874-43.834 67.8512-47.1013 54.7817-47.1013C48.247-47.1013 41.2455-46.1678 35.1733-44.7675C34.2398-44.7675 33.773-44.3007 32.3727-44.3007C29.5721-43.8297 27.705-46.1678 27.705-48.9642C27.705-51.7605 29.1053-53.1693 30.9724-53.6318C38.4449-55.5031 46.3799-56.4367 54.7817-56.4367C69.2515-56.4367 84.188-53.1693 95.8614-47.1013C97.2617-46.1678 98.662-44.7675 98.662-42.4337C98.1953-39.6331 96.324-37.766 93.5234-37.766Z"/>
  </g>
  <g id="Medium-M" transform="matrix(1 0 0 1 1684.79 1126)">
   <path d="M61.765-85.66C34.0258-85.66 11.33-62.9642 11.33-35.225C11.33-7.48575 34.0258 15.21 61.765 15.21C89.5043 15.21 112.2-7.48575 112.2-35.225C112.2-62.9642 89.5043-85.66 61.765-85.66ZM81.649-10.0075C80.7244-10.0075 80.262-10.4698 79.3374-10.9321C72.4026-15.0972 63.6185-17.4046 54.3721-17.4046C49.2865-17.4046 43.7387-16.48 39.1155-15.5554C38.1908-15.5554 37.2662-15.093 36.8039-15.093C34.9546-15.093 33.5676-16.48 33.5676-18.3293C33.5676-20.1786 34.4923-21.5655 36.3416-21.5655C42.3517-22.9525 48.3661-23.8771 54.8386-23.8771C65.472-23.8771 75.1807-21.1032 83.5025-16.48C84.4271-15.5554 85.3518-15.093 85.3518-13.2437C84.4187-10.9321 83.0318-10.0075 81.649-10.0075ZM86.7303-22.9483C85.8057-22.9483 84.881-23.4106 83.9564-23.8729C76.0969-28.9585 64.997-31.7324 52.9809-31.7324C46.9707-31.7324 41.4187-30.8077 37.262-29.8831C36.3374-29.4208 35.875-29.4208 34.9504-29.4208C32.6388-29.4208 31.2476-31.2701 31.2476-33.1235C31.2476-35.4351 32.1723-36.3598 34.4839-37.2886C40.0317-38.6756 45.5838-40.0626 53.4432-40.0626C66.3882-40.0626 78.4086-36.8263 88.5838-30.8161C89.9708-29.8915 90.8954-28.5045 90.8954-27.1134C90.4289-24.8018 89.0461-22.9483 86.7303-22.9483ZM92.7405-37.7468C91.8159-37.7468 91.3535-38.2091 89.9666-38.6714C80.7202-43.7569 67.3129-46.9932 54.3679-46.9932C47.8954-46.9932 40.9606-46.0685 34.9462-44.6816C34.0215-44.6816 33.5592-44.2192 32.1723-44.2192C29.3983-43.7527 27.5491-46.0685 27.5491-48.8382C27.5491-51.608 28.936-53.0033 30.7853-53.4615C38.1866-55.3149 46.0461-56.2396 54.3679-56.2396C68.6998-56.2396 83.4941-53.0033 95.0563-46.9932C96.4433-46.0685 97.8302-44.6816 97.8302-42.37C97.3679-39.596 95.5144-37.7468 92.7405-37.7468Z"/>
  </g>
  <g id="Regular-M" transform="matrix(1 0 0 1 1388.71 1126)">
   <path d="M61.13-85.03C33.74-85.03 11.33-62.62 11.33-35.23C11.33-7.84 33.74 14.57 61.13 14.57C88.52 14.57 110.93-7.84 110.93-35.23C110.93-62.62 88.52-85.03 61.13-85.03ZM80.7636-10.33C79.8506-10.33 79.3941-10.7865 78.4811-11.243C71.6336-15.3556 62.9601-17.634 53.8302-17.634C48.8086-17.634 43.3306-16.721 38.7656-15.808C37.8526-15.808 36.9397-15.3515 36.4832-15.3515C34.6572-15.3515 33.2876-16.721 33.2876-18.547C33.2876-20.373 34.2006-21.7425 36.0267-21.7425C41.9611-23.112 47.8998-24.025 54.2908-24.025C64.7903-24.025 74.3768-21.286 82.5938-16.721C83.5068-15.808 84.4198-15.3515 84.4198-13.5255C83.4985-11.243 82.129-10.33 80.7636-10.33ZM85.781-23.1078C84.868-23.1078 83.955-23.5643 83.042-24.0208C75.2815-29.0423 64.3213-31.7813 52.4565-31.7813C46.522-31.7813 41.0398-30.8683 36.9355-29.9553C36.0225-29.4988 35.566-29.4988 34.653-29.4988C32.3705-29.4988 30.9968-31.3248 30.9968-33.155C30.9968-35.4375 31.9099-36.3505 34.1924-37.2677C39.6703-38.6372 45.1525-40.0067 52.913-40.0067C65.695-40.0067 77.564-36.8111 87.6111-30.8766C88.9806-29.9636 89.8936-28.5941 89.8936-27.2205C89.433-24.938 88.0676-23.1078 85.781-23.1078ZM91.7155-37.72C90.8025-37.72 90.346-38.1765 88.9765-38.633C79.8465-43.6545 66.608-46.85 53.826-46.85C47.435-46.85 40.5875-45.937 34.6489-44.5675C33.7359-44.5675 33.2794-44.111 31.9099-44.111C29.1708-43.6503 27.3448-45.937 27.3448-48.6718C27.3448-51.4067 28.7143-52.7845 30.5403-53.2369C37.8485-55.067 45.609-55.98 53.826-55.98C67.9775-55.98 82.5855-52.7845 94.0022-46.85C95.3717-45.937 96.7411-44.5675 96.7411-42.285C96.2846-39.546 94.4545-37.72 91.7155-37.72Z"/>
  </g>
  <g id="Light-M" transform="matrix(1 0 0 1 1092.83 1126)">
   <path d="M60.3-84.21C33.3665-84.21 11.33-62.1735 11.33-35.24C11.33-8.3065 33.3665 13.73 60.3 13.73C87.2335 13.73 109.27-8.3065 109.27-35.24C109.27-62.1735 87.2335-84.21 60.3-84.21ZM79.6064-10.755C78.7086-10.755 78.2597-11.2039 77.362-11.6528C70.6286-15.6969 62.0996-17.9373 53.1218-17.9373C48.184-17.9373 42.7973-17.0395 38.3084-16.1417C37.4106-16.1417 36.5128-15.6928 36.0639-15.6928C34.2684-15.6928 32.9217-17.0395 32.9217-18.8351C32.9217-20.6306 33.8195-21.9773 35.615-21.9773C41.4506-23.324 47.2903-24.2217 53.5748-24.2217C63.8993-24.2217 73.326-21.5284 81.4061-17.0395C82.3039-16.1417 83.2016-15.6928 83.2016-13.8972C82.2957-11.6528 80.949-10.755 79.6064-10.755ZM84.5401-23.3199C83.6424-23.3199 82.7446-23.7688 81.8468-24.2177C74.2156-29.1555 63.4382-31.8488 51.7711-31.8488C45.9355-31.8488 40.5447-30.951 36.5087-30.0533C35.611-29.6044 35.1621-29.6044 34.2643-29.6044C32.0198-29.6044 30.6691-31.3999 30.6691-33.1996C30.6691-35.444 31.5669-36.3418 33.8113-37.2437C39.198-38.5904 44.5888-39.937 52.2199-39.937C64.7889-39.937 76.4601-36.7948 86.3398-30.9592C87.6865-30.0614 88.5843-28.7147 88.5843-27.364C88.1313-25.1195 86.7887-23.3199 84.5401-23.3199ZM90.3757-37.6885C89.478-37.6885 89.0291-38.1374 87.6824-38.5863C78.7046-43.5241 65.6867-46.6663 53.1177-46.6663C46.8332-46.6663 40.0999-45.7686 34.2602-44.4219C33.3624-44.4219 32.9135-43.973 31.5669-43.973C28.8735-43.52 27.0779-45.7686 27.0779-48.4578C27.0779-51.1471 28.4246-52.5019 30.2202-52.9467C37.4065-54.7464 45.0377-55.6442 53.1177-55.6442C67.0334-55.6442 81.3979-52.5019 92.6243-46.6663C93.971-45.7686 95.3176-44.4219 95.3176-42.1774C94.8687-39.4841 93.0691-37.6885 90.3757-37.6885Z"/>
  </g>
  <g id="Thin-M" transform="matrix(1 0 0 1 797.217 1126)">
   <path d="M59.2-83.13C32.8715-83.13 11.33-61.5885 11.33-35.26C11.33-8.9315 32.8715 12.61 59.2 12.61C85.5285 12.61 107.07-8.9315 107.07-35.26C107.07-61.5885 85.5285-83.13 59.2-83.13ZM78.0727-11.325C77.1951-11.325 76.7563-11.7638 75.8787-12.2026C69.2966-16.1559 60.9592-18.3459 52.1831-18.3459C47.3562-18.3459 42.0905-17.4683 37.7024-16.5907C36.8248-16.5907 35.9471-16.1519 35.5083-16.1519C33.7531-16.1519 32.4367-17.4683 32.4367-19.2236C32.4367-20.9788 33.3143-22.2952 35.0695-22.2952C40.774-23.6116 46.4825-24.4893 52.6259-24.4893C62.7184-24.4893 71.9334-21.8564 79.832-17.4683C80.7096-16.5907 81.5872-16.1519 81.5872-14.3967C80.7016-12.2026 79.3852-11.325 78.0727-11.325ZM82.8956-23.6076C82.018-23.6076 81.1404-24.0465 80.2628-24.4853C72.8031-29.3122 62.2677-31.945 50.8626-31.945C45.1581-31.945 39.8884-31.0674 35.9432-30.1898C35.0655-29.751 34.6267-29.751 33.7491-29.751C31.5551-29.751 30.2347-31.5062 30.2347-33.2654C30.2347-35.4595 31.1123-36.3371 33.3063-37.2187C38.572-38.5351 43.8417-39.8515 51.3014-39.8515C63.5881-39.8515 74.9971-36.7799 84.6549-31.0754C85.9713-30.1977 86.8489-28.8813 86.8489-27.5609C86.4061-25.3669 85.0937-23.6076 82.8956-23.6076ZM88.6002-37.6535C87.7225-37.6535 87.2837-38.0923 85.9673-38.5311C77.1911-43.358 64.4657-46.4297 52.1791-46.4297C46.0357-46.4297 39.4536-45.5521 33.7451-44.2356C32.8675-44.2356 32.4287-43.7968 31.1123-43.7968C28.4794-43.354 26.7242-45.5521 26.7242-48.1809C26.7242-50.8098 28.0406-52.1342 29.7959-52.569C36.8208-54.3282 44.2805-55.2058 52.1791-55.2058C65.7821-55.2058 79.824-52.1342 90.7982-46.4297C92.1146-45.5521 93.431-44.2356 93.431-42.0416C92.9922-39.4087 91.233-37.6535 88.6002-37.6535Z"/>
  </g>
  <g id="Ultralight-M" transform="matrix(1 0 0 1 501.066 1126)">
   <path d="M58.64-82.57C32.6195-82.57 11.33-61.2805 11.33-35.26C11.33-9.2395 32.6195 12.05 58.64 12.05C84.6605 12.05 105.95-9.2395 105.95-35.26C105.95-61.2805 84.6605-82.57 58.64-82.57ZM77.292-11.605C76.4246-11.605 75.9909-12.0387 75.1236-12.4724C68.6185-16.3794 60.3786-18.5438 51.7051-18.5438C46.9347-18.5438 41.7306-17.6765 37.3939-16.8091C36.5265-16.8091 35.6592-16.3754 35.2255-16.3754C33.4908-16.3754 32.1898-17.6765 32.1898-19.4112C32.1898-21.1459 33.0571-22.4469 34.7918-22.4469C40.4296-23.7479 46.0713-24.6153 52.1428-24.6153C62.1173-24.6153 71.2245-22.0132 79.0306-17.6765C79.898-16.8091 80.7653-16.3754 80.7653-14.6407C79.8901-12.4724 78.589-11.605 77.292-11.605ZM82.0584-23.744C81.1911-23.744 80.3237-24.1776 79.4564-24.6113C72.0839-29.3817 61.6718-31.9838 50.4002-31.9838C44.7624-31.9838 39.5544-31.1164 35.6552-30.2491C34.7879-29.8154 34.3542-29.8154 33.4868-29.8154C31.3185-29.8154 30.0135-31.5501 30.0135-33.2888C30.0135-35.4571 30.8809-36.3245 33.0492-37.1958C38.2533-38.4968 43.4614-39.7978 50.8338-39.7978C62.9767-39.7978 74.2523-36.7621 83.7971-31.1243C85.0981-30.257 85.9655-28.9559 85.9655-27.651C85.5278-25.4826 84.2308-23.744 82.0584-23.744ZM87.6962-37.6255C86.8289-37.6255 86.3952-38.0592 85.0942-38.4929C76.4207-43.2633 63.8441-46.299 51.7012-46.299C45.6297-46.299 39.1246-45.4317 33.4829-44.1306C32.6156-44.1306 32.1819-43.697 30.8809-43.697C28.2788-43.2593 26.5441-45.4317 26.5441-48.0298C26.5441-50.6279 27.8451-51.9368 29.5798-52.3665C36.5226-54.1052 43.895-54.9725 51.7012-54.9725C65.1451-54.9725 79.0227-51.9368 89.8685-46.299C91.1696-45.4317 92.4706-44.1306 92.4706-41.9623C92.0369-39.3602 90.2983-37.6255 87.6962-37.6255Z"/>
  </g>
  <g id="Black-S" transform="matrix(1 0 0 1 2880.08 696)">
   <path d="M53.32-77.2C30.2255-77.2 11.33-58.3045 11.33-35.21C11.33-12.1155 30.2255 6.78 53.32 6.78C76.4145 6.78 95.31-12.1155 95.31-35.21C95.31-58.3045 76.4145-77.2 53.32-77.2ZM69.8746-14.215C69.1047-14.215 68.7198-14.5999 67.95-14.9848C62.1764-18.4525 54.8631-20.3735 47.165-20.3735C42.931-20.3735 38.3121-19.6037 34.463-18.8339C33.6932-18.8339 32.9234-18.449 32.5384-18.449C30.9988-18.449 29.8441-19.6037 29.8441-21.1434C29.8441-22.683 30.6139-23.8377 32.1535-23.8377C37.1573-24.9924 42.1647-25.7622 47.5534-25.7622C56.4063-25.7622 64.4893-23.4528 71.4177-19.6037C72.1875-18.8339 72.9573-18.449 72.9573-16.9094C72.1805-14.9848 71.0258-14.215 69.8746-14.215ZM74.1051-24.9889C73.3352-24.9889 72.5654-25.3738 71.7956-25.7588C65.2522-29.9927 56.0109-32.3022 46.0067-32.3022C41.0029-32.3022 36.3805-31.5324 32.9199-30.7626C32.15-30.3777 31.7651-30.3777 30.9953-30.3777C29.0708-30.3777 27.9126-31.9173 27.9126-33.4604C27.9126-35.385 28.6824-36.1548 30.6069-36.9281C35.2258-38.0828 39.8482-39.2375 46.3917-39.2375C57.1691-39.2375 67.1767-36.5432 75.6482-31.5394C76.8029-30.7696 77.5727-29.6148 77.5727-28.4566C77.1843-26.5321 76.0331-24.9889 74.1051-24.9889ZM79.1089-37.3095C78.339-37.3095 77.9541-37.6944 76.7994-38.0793C69.1012-42.3133 57.9389-45.0077 47.1615-45.0077C41.7728-45.0077 35.9991-44.2379 30.9918-43.0831C30.222-43.0831 29.8371-42.6982 28.6824-42.6982C26.3729-42.3098 24.8333-44.2379 24.8333-46.5438C24.8333-48.8498 25.988-50.0115 27.5276-50.3929C33.6897-51.936 40.2331-52.7058 47.1615-52.7058C59.0936-52.7058 71.4107-50.0115 81.0369-45.0077C82.1916-44.2379 83.3463-43.0831 83.3463-41.1586C82.9614-38.8491 81.4183-37.3095 79.1089-37.3095Z"/>
  </g>
  <g id="Heavy-S" transform="matrix(1 0 0 1 2583.97 696)">
   <path d="M52.715-76.6C29.9533-76.6 11.33-57.9768 11.33-35.215C11.33-12.4533 29.9533 6.17 52.715 6.17C75.4767 6.17 94.1-12.4533 94.1-35.215C94.1-57.9768 75.4767-76.6 52.715-76.6ZM69.031-14.5225C68.2723-14.5225 67.8929-14.9019 67.1342-15.2812C61.4438-18.6989 54.2359-20.5923 46.6486-20.5923C42.4757-20.5923 37.9233-19.8336 34.1297-19.0748C33.371-19.0748 32.6122-18.6955 32.2329-18.6955C30.7154-18.6955 29.5773-19.8336 29.5773-21.351C29.5773-22.8685 30.3361-24.0066 31.8535-24.0066C36.7852-25.1447 41.7204-25.9034 47.0315-25.9034C55.7568-25.9034 63.7234-23.6272 70.5519-19.8336C71.3107-19.0748 72.0694-18.6955 72.0694-17.178C71.3038-15.2812 70.1657-14.5225 69.031-14.5225ZM73.2006-25.1412C72.4418-25.1412 71.6831-25.5206 70.9244-25.8999C64.4752-30.0729 55.3671-32.3491 45.5071-32.3491C40.5754-32.3491 36.0196-31.5904 32.6088-30.8316C31.8501-30.4523 31.4707-30.4523 30.712-30.4523C28.8152-30.4523 27.6736-31.9697 27.6736-33.4906C27.6736-35.3874 28.4324-36.1462 30.3292-36.9083C34.8815-38.0464 39.4373-39.1845 45.8865-39.1845C56.5086-39.1845 66.372-36.529 74.7215-31.5973C75.8596-30.8385 76.6183-29.7004 76.6183-28.5589C76.2355-26.6621 75.1008-25.1412 73.2006-25.1412ZM78.1323-37.2843C77.3736-37.2843 76.9942-37.6636 75.8561-38.043C68.2689-42.216 57.2674-44.8715 46.6452-44.8715C41.3341-44.8715 35.6437-44.1128 30.7085-42.9747C29.9498-42.9747 29.5704-42.5953 28.4324-42.5953C26.1562-42.2125 24.6387-44.1128 24.6387-46.3855C24.6387-48.6582 25.7768-49.8032 27.2943-50.1791C33.3675-51.7 39.8167-52.4588 46.6452-52.4588C58.4054-52.4588 70.545-49.8032 80.0325-44.8715C81.1706-44.1128 82.3087-42.9747 82.3087-41.0779C81.9294-38.8017 80.4085-37.2843 78.1323-37.2843Z"/>
  </g>
  <g id="Bold-S" transform="matrix(1 0 0 1 2287.93 696)">
   <path d="M52.04-75.93C29.6495-75.93 11.33-57.6105 11.33-35.22C11.33-12.8295 29.6495 5.49 52.04 5.49C74.4305 5.49 92.75-12.8295 92.75-35.22C92.75-57.6105 74.4305-75.93 52.04-75.93ZM68.0899-14.865C67.3436-14.865 66.9704-15.2382 66.224-15.6114C60.6264-18.9733 53.5361-20.8358 46.0726-20.8358C41.9677-20.8358 37.4896-20.0895 33.7578-19.3431C33.0115-19.3431 32.2651-18.9699 31.8919-18.9699C30.3992-18.9699 29.2797-20.0895 29.2797-21.5822C29.2797-23.0749 30.0261-24.1944 31.5188-24.1944C36.37-25.3139 41.2247-26.0603 46.4492-26.0603C55.0322-26.0603 62.8689-23.8212 69.586-20.0895C70.3324-19.3431 71.0787-18.9699 71.0787-17.4772C70.3256-15.6114 69.206-14.865 68.0899-14.865ZM72.1914-25.3105C71.4451-25.3105 70.6988-25.6837 69.9524-26.0569C63.6084-30.1618 54.6488-32.4008 44.9497-32.4008C40.0984-32.4008 35.6169-31.6545 32.2617-30.9081C31.5154-30.535 31.1422-30.535 30.3958-30.535C28.53-30.535 27.4071-32.0277 27.4071-33.5238C27.4071-35.3896 28.1534-36.136 30.0193-36.8857C34.4974-38.0052 38.9789-39.1248 45.3229-39.1248C55.7717-39.1248 65.4743-36.5125 73.6875-31.6613C74.8071-30.9149 75.5534-29.7954 75.5534-28.6725C75.1768-26.8066 74.0607-25.3105 72.1914-25.3105ZM77.0427-37.2555C76.2964-37.2555 75.9232-37.6287 74.8037-38.0019C67.3402-42.1068 56.5181-44.719 46.0692-44.719C40.8447-44.719 35.2471-43.9727 30.3925-42.8531C29.6461-42.8531 29.2729-42.48 28.1534-42.48C25.9144-42.1034 24.4217-43.9727 24.4217-46.2083C24.4217-48.444 25.5412-49.5703 27.0339-49.9401C33.0081-51.4362 39.352-52.1825 46.0692-52.1825C57.6376-52.1825 69.5792-49.5703 78.912-44.719C80.0315-43.9727 81.151-42.8531 81.151-40.9873C80.7779-38.7482 79.2818-37.2555 77.0427-37.2555Z"/>
  </g>
  <g id="Semibold-S" transform="matrix(1 0 0 1 1991.69 696)">
   <path d="M51.575-75.47C29.4402-75.47 11.33-57.3598 11.33-35.225C11.33-13.0902 29.4402 5.02 51.575 5.02C73.7097 5.02 91.82-13.0902 91.82-35.225C91.82-57.3598 73.7097-75.47 51.575-75.47ZM67.4416-15.1025C66.7038-15.1025 66.3349-15.4714 65.597-15.8403C60.0633-19.1639 53.054-21.0051 45.6758-21.0051C41.6177-21.0051 37.1908-20.2673 33.5016-19.5294C32.7638-19.5294 32.026-19.1605 31.6571-19.1605C30.1814-19.1605 29.0747-20.2673 29.0747-21.7429C29.0747-23.2186 29.8125-24.3253 31.2882-24.3253C36.084-25.4321 40.8832-26.1699 46.048-26.1699C54.533-26.1699 62.2802-23.9564 68.9206-20.2673C69.6584-19.5294 70.3962-19.1605 70.3962-17.6849C69.6517-15.8403 68.545-15.1025 67.4416-15.1025ZM71.4963-25.4287C70.7584-25.4287 70.0206-25.7976 69.2828-26.1665C63.0113-30.2246 54.154-32.438 44.5657-32.438C39.7698-32.438 35.3395-31.7002 32.0226-30.9624C31.2848-30.5935 30.9159-30.5935 30.1781-30.5935C28.3335-30.5935 27.2234-32.0691 27.2234-33.5481C27.2234-35.3927 27.9612-36.1305 29.8058-36.8717C34.2328-37.9784 38.6631-39.0852 44.9346-39.0852C55.2641-39.0852 64.8558-36.5028 72.9753-31.7069C74.082-30.9691 74.8198-29.8624 74.8198-28.7523C74.4476-26.9077 73.3442-25.4287 71.4963-25.4287ZM76.2921-37.2373C75.5543-37.2373 75.1854-37.6062 74.0787-37.9751C66.7004-42.0331 56.0019-44.6155 45.6724-44.6155C40.5076-44.6155 34.9739-43.8777 30.1747-42.7709C29.4369-42.7709 29.068-42.402 27.9612-42.402C25.7478-42.0298 24.2721-43.8777 24.2721-46.0878C24.2721-48.2979 25.3789-49.4114 26.8545-49.7769C32.7605-51.2559 39.032-51.9937 45.6724-51.9937C57.1087-51.9937 68.9139-49.4114 78.1401-44.6155C79.2468-43.8777 80.3535-42.7709 80.3535-40.9264C79.9846-38.7129 78.5056-37.2373 76.2921-37.2373Z"/>
  </g>
  <g id="Medium-S" transform="matrix(1 0 0 1 1695.33 696)">
   <path d="M51.22-75.12C29.2805-75.12 11.33-57.1695 11.33-35.23C11.33-13.2905 29.2805 4.66 51.22 4.66C73.1595 4.66 91.11-13.2905 91.11-35.23C91.11-57.1695 73.1595-75.12 51.22-75.12ZM66.9466-15.285C66.2153-15.285 65.8497-15.6507 65.1183-16.0163C59.6335-19.3106 52.686-21.1355 45.3728-21.1355C41.3505-21.1355 36.9626-20.4042 33.3061-19.6729C32.5747-19.6729 31.8434-19.3072 31.4778-19.3072C30.0151-19.3072 28.9182-20.4042 28.9182-21.8668C28.9182-23.3295 29.6495-24.4265 31.1121-24.4265C35.8657-25.5234 40.6226-26.2548 45.7418-26.2548C54.1519-26.2548 61.8307-24.0608 68.4126-20.4042C69.1439-19.6729 69.8752-19.3072 69.8752-17.8446C69.1373-16.0163 68.0403-15.285 66.9466-15.285ZM70.9655-25.5201C70.2342-25.5201 69.5029-25.8858 68.7716-26.2514C62.5554-30.2737 53.7763-32.4676 44.2725-32.4676C39.5189-32.4676 35.1277-31.7363 31.8401-31.005C31.1088-30.6393 30.7431-30.6393 30.0118-30.6393C28.1835-30.6393 27.0832-32.102 27.0832-33.5679C27.0832-35.3962 27.8145-36.1275 29.6428-36.8622C34.0307-37.9591 38.422-39.0561 44.6381-39.0561C54.8766-39.0561 64.3837-36.4965 72.4315-31.7429C73.5285-31.0116 74.2598-29.9147 74.2598-28.8144C73.8908-26.9861 72.7972-25.5201 70.9655-25.5201ZM75.7191-37.2245C74.9878-37.2245 74.6221-37.5902 73.5252-37.9558C66.212-41.9781 55.6079-44.5377 45.3695-44.5377C40.2502-44.5377 34.7654-43.8063 30.0085-42.7094C29.2772-42.7094 28.9115-42.3437 27.8145-42.3437C25.6206-41.9747 24.158-43.8063 24.158-45.997C24.158-48.1876 25.2549-49.2912 26.7176-49.6536C32.5714-51.1195 38.7876-51.8508 45.3695-51.8508C56.7049-51.8508 68.4059-49.2912 77.5507-44.5377C78.6477-43.8063 79.7447-42.7094 79.7447-40.8811C79.379-38.6871 77.9131-37.2245 75.7191-37.2245Z"/>
  </g>
  <g id="Regular-S" transform="matrix(1 0 0 1 1399.08 696)">
   <path d="M50.76-74.66C29.0735-74.66 11.33-56.9165 11.33-35.23C11.33-13.5435 29.0735 4.2 50.76 4.2C72.4465 4.2 90.19-13.5435 90.19-35.23C90.19-56.9165 72.4465-74.66 50.76-74.66ZM66.3053-15.515C65.5824-15.515 65.221-15.8764 64.4981-16.2379C59.0764-19.4941 52.2091-21.2981 44.9802-21.2981C41.0044-21.2981 36.6671-20.5752 33.0526-19.8523C32.3298-19.8523 31.6069-19.4909 31.2454-19.4909C29.7997-19.4909 28.7153-20.5752 28.7153-22.021C28.7153-23.4667 29.4382-24.551 30.884-24.551C35.5827-25.6354 40.2848-26.3583 45.3449-26.3583C53.6581-26.3583 61.2484-24.1896 67.7543-20.5752C68.4772-19.8523 69.2001-19.4909 69.2001-18.0451C68.4706-16.2379 67.3863-15.515 66.3053-15.515ZM70.2778-25.6321C69.555-25.6321 68.8321-25.9935 68.1092-26.355C61.9647-30.3308 53.2868-32.4995 43.8926-32.4995C39.1939-32.4995 34.8533-31.7766 31.6036-31.0537C30.8807-30.6923 30.5193-30.6923 29.7964-30.6923C27.9892-30.6923 26.9016-32.138 26.9016-33.5871C26.9016-35.3943 27.6244-36.1172 29.4317-36.8433C33.769-37.9277 38.1095-39.012 44.2541-39.012C54.3744-39.012 63.7719-36.4819 71.7269-31.7832C72.8112-31.0603 73.5341-29.976 73.5341-28.8883C73.1694-27.0811 72.0883-25.6321 70.2778-25.6321ZM74.9766-37.2015C74.2537-37.2015 73.8923-37.5629 72.8079-37.9244C65.5791-41.9002 55.0973-44.4303 44.9769-44.4303C39.9167-44.4303 34.4951-43.7075 29.7931-42.6231C29.0702-42.6231 28.7088-42.2617 27.6244-42.2617C25.4558-41.897 24.01-43.7075 24.01-45.8728C24.01-48.0382 25.0944-49.1291 26.5401-49.4872C32.3265-50.9363 38.471-51.6592 44.9769-51.6592C56.1816-51.6592 67.7478-49.1291 76.7871-44.4303C77.8714-43.7075 78.9557-42.6231 78.9557-40.8159C78.5943-38.6473 77.1452-37.2015 74.9766-37.2015Z"/>
  </g>
  <g id="Light-S" transform="matrix(1 0 0 1 1103.1 696)">
   <path d="M50.025-73.93C28.7427-73.93 11.33-56.5173 11.33-35.235C11.33-13.9528 28.7427 3.46 50.025 3.46C71.3072 3.46 88.72-13.9528 88.72-35.235C88.72-56.5173 71.3072-73.93 50.025-73.93ZM65.2805-15.8875C64.5711-15.8875 64.2164-16.2422 63.507-16.5969C58.1864-19.7925 51.447-21.5628 44.353-21.5628C40.4512-21.5628 36.1948-20.8534 32.6477-20.144C31.9383-20.144 31.2289-19.7892 30.8742-19.7892C29.4554-19.7892 28.3913-20.8534 28.3913-22.2722C28.3913-23.691 29.1007-24.7551 30.5195-24.7551C35.1306-25.8192 39.745-26.5286 44.7109-26.5286C52.8691-26.5286 60.3179-24.4004 66.7025-20.8534C67.412-20.144 68.1214-19.7892 68.1214-18.3704C67.4055-16.5969 66.3414-15.8875 65.2805-15.8875ZM69.179-25.816C68.4696-25.816 67.7602-26.1707 67.0508-26.5254C61.0208-30.4271 52.5047-32.5554 43.2856-32.5554C38.6745-32.5554 34.4148-31.846 31.2257-31.1366C30.5163-30.7819 30.1616-30.7819 29.4522-30.7819C27.6786-30.7819 26.6113-32.2007 26.6113-33.6227C26.6113-35.3962 27.3207-36.1056 29.0942-36.8183C33.3507-37.8824 37.6104-38.9465 43.6403-38.9465C53.572-38.9465 62.7943-36.4636 70.6011-31.8524C71.6652-31.143 72.3746-30.0789 72.3746-29.0116C72.0167-27.238 70.9558-25.816 69.179-25.816ZM73.7902-37.1698C73.0808-37.1698 72.7261-37.5245 71.662-37.8792C64.5679-41.7809 54.2814-44.2638 44.3497-44.2638C39.3839-44.2638 34.0633-43.5544 29.4489-42.4903C28.7395-42.4903 28.3848-42.1356 27.3207-42.1356C25.1925-41.7777 23.7737-43.5544 23.7737-45.6794C23.7737-47.8044 24.8378-48.875 26.2566-49.2265C31.9351-50.6485 37.9651-51.3579 44.3497-51.3579C55.3456-51.3579 66.6961-48.875 75.5669-44.2638C76.631-43.5544 77.6951-42.4903 77.6951-40.7168C77.3404-38.5886 75.9184-37.1698 73.7902-37.1698Z"/>
  </g>
  <g id="Thin-S" transform="matrix(1 0 0 1 807.362 696)">
   <path d="M49.055-72.97C28.3062-72.97 11.33-55.9937 11.33-35.245C11.33-14.4963 28.3062 2.48 49.055 2.48C69.8037 2.48 86.78-14.4963 86.78-35.245C86.78-55.9937 69.8037-72.97 49.055-72.97ZM63.9281-16.3825C63.2365-16.3825 62.8906-16.7283 62.199-17.0741C57.0118-20.1896 50.4414-21.9155 43.5251-21.9155C39.7212-21.9155 35.5715-21.2239 32.1133-20.5322C31.4217-20.5322 30.7301-20.1864 30.3843-20.1864C29.001-20.1864 27.9636-21.2239 27.9636-22.6071C27.9636-23.9904 28.6552-25.0278 30.0385-25.0278C34.534-26.0652 39.0327-26.7569 43.8741-26.7569C51.8278-26.7569 59.0898-24.682 65.3145-21.2239C66.0061-20.5322 66.6977-20.1864 66.6977-18.8032C65.9998-17.0741 64.9624-16.3825 63.9281-16.3825ZM67.7289-26.0621C67.0372-26.0621 66.3456-26.4079 65.654-26.7537C59.7752-30.5577 51.4725-32.6325 42.4846-32.6325C37.989-32.6325 33.8361-31.9409 30.7269-31.2493C30.0353-30.9035 29.6895-30.9035 28.9979-30.9035C27.2688-30.9035 26.2282-32.2867 26.2282-33.6731C26.2282-35.4022 26.9199-36.0938 28.6489-36.7886C32.7987-37.826 36.9516-38.8635 42.8304-38.8635C52.5131-38.8635 61.5042-36.4428 69.1153-31.9472C70.1527-31.2556 70.8443-30.2181 70.8443-29.1776C70.4954-27.4485 69.4611-26.0621 67.7289-26.0621ZM72.2244-37.1313C71.5328-37.1313 71.187-37.4771 70.1496-37.8229C63.2333-41.6268 53.2047-44.0475 43.522-44.0475C38.6806-44.0475 33.4934-43.3559 28.9947-42.3184C28.3031-42.3184 27.9573-41.9726 26.9199-41.9726C24.845-41.6237 23.4617-43.3559 23.4617-45.4276C23.4617-47.4993 24.4992-48.5431 25.8824-48.8857C31.4186-50.2721 37.2974-50.9638 43.522-50.9638C54.2422-50.9638 65.3082-48.5431 73.9566-44.0475C74.9941-43.3559 76.0315-42.3184 76.0315-40.5894C75.6857-38.5145 74.2993-37.1313 72.2244-37.1313Z"/>
  </g>
  <g id="Ultralight-S" transform="matrix(1 0 0 1 511.151 696)">
   <path d="M48.555-72.48C28.0812-72.48 11.33-55.7287 11.33-35.255C11.33-14.7812 28.0812 1.97 48.555 1.97C69.0287 1.97 85.78-14.7812 85.78-35.255C85.78-55.7287 69.0287-72.48 48.555-72.48ZM63.231-16.6425C62.5485-16.6425 62.2073-16.9837 61.5248-17.325C56.4064-20.3991 49.923-22.1022 43.0984-22.1022C39.3449-22.1022 35.2502-21.4197 31.8379-20.7373C31.1554-20.7373 30.473-20.396 30.1317-20.396C28.7668-20.396 27.7431-21.4197 27.7431-22.7846C27.7431-24.1495 28.4256-25.1732 29.7905-25.1732C34.2265-26.1969 38.6656-26.8794 43.4428-26.8794C51.291-26.8794 58.4568-24.832 64.599-21.4197C65.2814-20.7373 65.9639-20.396 65.9639-19.0311C65.2752-17.325 64.2515-16.6425 63.231-16.6425ZM66.9814-26.1938C66.2989-26.1938 65.6165-26.535 64.934-26.8763C59.1331-30.6298 50.9405-32.6772 42.0716-32.6772C37.6357-32.6772 33.5378-31.9947 30.4699-31.3123C29.7874-30.971 29.4462-30.971 28.7637-30.971C27.0576-30.971 26.0308-32.3359 26.0308-33.704C26.0308-35.4101 26.7132-36.0926 28.4194-36.7781C32.5141-37.8018 36.612-38.8255 42.4129-38.8255C51.9673-38.8255 60.8392-36.4369 68.3494-32.0009C69.3731-31.3185 70.0555-30.2948 70.0555-29.268C69.7112-27.5618 68.6906-26.1938 66.9814-26.1938ZM71.4174-37.1163C70.7349-37.1163 70.3937-37.4575 69.37-37.7987C62.5454-41.5522 52.6497-43.9408 43.0953-43.9408C38.3181-43.9408 33.1997-43.2584 28.7606-42.2347C28.0781-42.2347 27.7369-41.8935 26.7132-41.8935C24.6659-41.5491 23.3009-43.2584 23.3009-45.3026C23.3009-47.3469 24.3246-48.3768 25.6895-48.7149C31.1523-50.083 36.9532-50.7654 43.0953-50.7654C53.6734-50.7654 64.5928-48.3768 73.1266-43.9408C74.1503-43.2584 75.174-42.2347 75.174-40.5285C74.8327-38.4812 73.4647-37.1163 71.4174-37.1163Z"/>
  </g>
 </g>
</svg>
