<?xml version="1.0" encoding="UTF-8"?>
<svg width="100px" height="100px" viewBox="0 0 100 100" version="1.1" xmlns="http://www.w3.org/2000/svg" xmlns:xlink="http://www.w3.org/1999/xlink">
    <title>Seasons</title>
    <g id="Placeholders" stroke="none" stroke-width="1" fill="none" fill-rule="evenodd">
        <g id="Empty-placeholders" transform="translate(-573, 0)" fill="#000000" fill-rule="nonzero">
            <g id="Symbol" transform="translate(573, 0)">
                <path d="M36.7937053,88.3240998 C37.2658239,88.679011 37.9361496,88.5429335 38.363082,87.9777377 L41.0393747,84.402006 L43.1157949,84.6583379 L49.0070227,85.0255651 L45.1935602,89.5187062 L43.93648,91.1828958 L39.4921605,90.5987904 C38.8006947,90.5062346 38.2657559,90.8746685 38.1777498,91.4368456 L38.1698253,91.5000935 C38.0697377,92.187918 38.5259075,92.6293026 39.2272225,92.7134379 L42.4659348,93.1296817 L40.3194106,95.9713644 C39.8806185,96.5522607 39.9499925,97.2444014 40.5007868,97.6584564 C41.0831029,98.0962077 41.7376677,97.948282 42.1764598,97.3673857 L44.322984,94.525703 L45.601017,97.5048848 C45.8754288,98.154244 46.4264754,98.4700259 47.0655303,98.2119806 C47.6375502,97.977387 47.8557614,97.3291296 47.5656206,96.6679468 L45.7935292,92.5789171 L47.0506094,90.9147275 L50.3289741,86.019331 L52.3185214,91.5518101 L53.1378243,93.4723138 L50.4024609,97.0282405 C49.9755285,97.5934363 50.0291416,98.2737288 50.5170211,98.6404881 C51.0835763,99.0663913 51.7028147,98.8672934 52.1178874,98.3177981 L54.0746539,95.7273267 L55.482028,99.0252434 C55.7618089,99.6628094 56.3318967,99.946408 56.9524255,99.6957223 L57.0215685,99.6656605 C57.660613,99.407629 57.918307,98.7398154 57.6320722,98.1061749 L56.2246659,94.808234 L59.4594918,95.1969094 C60.1608363,95.2810725 60.7212051,94.9638972 60.7937187,94.2799303 C60.8620838,93.6667482 60.4533678,93.1625416 59.7244179,93.0822776 L55.2760161,92.5689362 L54.456681,90.6484082 L51.8280972,85.374017 L57.634951,86.4408455 L59.7232236,86.6814866 L61.4440145,90.8057843 C61.7065766,91.4708308 62.3365101,91.7474707 62.8966633,91.5285869 C63.5318558,91.2430085 63.6830207,90.6182176 63.4086062,89.9688619 L62.1581764,86.9857838 L65.6963564,87.430247 C66.425282,87.5105432 66.9621294,87.1264338 67.0426191,86.3992613 C67.1308614,85.7271184 66.7182448,85.1954291 65.9893192,85.115133 L62.4235661,84.6745931 L64.3764483,82.0565506 C64.7915258,81.5070489 64.8284579,80.8701868 64.2500259,80.4600066 C63.7621464,80.0932473 63.1037126,80.2136485 62.6767827,80.7788411 L60.004334,84.3820634 L57.927946,84.1257557 L52.0485707,83.7428377 L55.8620332,79.2496966 L57.1191183,77.5855005 L61.5476671,78.1577706 C62.2647403,78.2537576 62.8292576,77.8657976 62.8857703,77.2683063 C62.9701363,76.5686486 62.513962,76.1272698 61.8126175,76.0431067 L58.5896683,75.6387082 L60.7361949,72.7970223 C61.1749773,72.2161388 61.1252332,71.5633707 60.5429171,71.1256194 C59.9921228,70.7115644 59.3179281,70.8201175 58.8791457,71.401001 L56.7326191,74.2426869 L55.438823,71.2516598 C55.162811,70.6406492 54.6515894,70.3106031 54.0458879,70.5438683 L53.978206,70.5721191 C53.4180529,70.7910029 53.1840638,71.4274347 53.474207,72.0886142 L55.262069,76.1894792 L54.0049839,77.8536753 L50.7147669,82.7647626 L48.737072,77.2165927 L47.9295893,75.2803738 L50.6374038,71.7283383 C51.0643338,71.1631458 50.9988288,70.4985295 50.5267102,70.1436183 C49.9601549,69.7177151 49.3527835,69.9011029 48.9377059,70.4506046 L46.9652108,73.0292521 L45.561713,69.7588502 C45.2872985,69.1094945 44.6573649,68.8328546 44.0340216,69.1027398 C43.3555064,69.3803516 43.1372735,70.0285776 43.4116687,70.6779187 L44.8151988,73.9483448 L41.5961016,73.5714933 C40.8947506,73.4873254 40.3305088,73.7769883 40.2342936,74.4923393 C40.1646012,75.0570666 40.5860839,75.5790464 41.2557582,75.6770051 L45.7677248,76.2151574 L46.5870599,78.1356854 L49.2156195,83.4101087 L43.4087899,82.3432481 L41.3323698,82.0869161 L39.6115789,77.9626185 C39.3333124,77.2857159 38.719051,77.0209078 38.1746653,77.2516445 C37.52763,77.5529211 37.3725662,78.1501803 37.6469872,78.7995408 L38.8974169,81.7826189 L35.3473846,81.3538465 C34.6579118,81.2540071 34.0854571,81.6852019 34.0129711,82.369139 C33.9167559,83.08449 34.3649297,83.5691067 35.0544218,83.6689606 L38.6044219,84.0977087 L36.6633842,86.700004 C36.2483115,87.2494993 36.2271501,87.8981967 36.7937053,88.3240998 Z" id="Winter"></path>
                <path d="M46.0762173,1.04632717 C45.801812,0.251058828 44.8900394,-0.192714606 44.0931084,0.0811182429 C43.2961427,0.354963024 42.8514415,1.2648334 43.1258468,2.06010174 L44.3519242,5.61346006 C44.6263295,6.4087284 45.5381141,6.85253649 46.3350798,6.57869171 C47.1320108,6.30485886 47.5767,5.39495383 47.3022947,4.59968549 L46.0762173,1.04632717 Z M55.2018389,5.12182803 C54.8407744,5.88942521 55.1677316,6.83699667 55.9199752,7.20309611 C56.6949656,7.58029558 57.6334188,7.27678916 58.0225062,6.48064704 L59.6790415,3.09133214 C60.0571913,2.31786431 59.7302461,1.3703275 58.9550701,0.993153043 C58.2028612,0.627041664 57.2533087,0.953316683 56.8694855,1.70977918 L55.2018389,5.12182803 Z M37.0647389,13.6819295 C37.8227829,14.0649519 38.7723354,13.7386769 39.1503235,12.9653034 C39.5230701,12.2315629 39.1844427,11.2501694 38.4491683,10.8782005 L35.0469323,9.2082101 C34.3175049,8.85318681 33.3451709,9.16837374 32.961313,9.92484817 C32.5944362,10.6754877 32.9272284,11.6399702 33.6625029,12.0119392 L37.0647389,13.6819295 Z M47.4502184,9.81053277 C42.7194369,11.436073 40.1512538,16.6906431 41.7801925,21.4115548 C43.4091193,26.1324317 48.680522,28.7122025 53.4113035,27.0866623 C58.1251039,25.4669569 60.68744,20.1954411 59.0585133,15.4745641 C57.4295746,10.7536525 52.1640188,8.1908274 47.4502184,9.81053277 Z M67.807045,14.1151113 C68.6040107,13.8412665 69.0486772,12.931408 68.7742718,12.1361397 C68.4998665,11.3408714 67.5881167,10.8970513 66.791151,11.1708961 L63.2474143,12.3885568 C62.4504486,12.6624016 62.0057593,13.5723066 62.2801647,14.3675749 C62.55457,15.1628433 63.4663426,15.6066167 64.2633083,15.3327719 L67.807045,14.1151113 Z M33.0485257,22.7651739 C32.2515948,23.0390068 31.8068812,23.9489201 32.0812865,24.7441885 C32.3556919,25.5394568 33.2674888,25.9832219 34.0644198,25.7093891 L37.6082606,24.4916926 C38.4051916,24.2178597 38.8498928,23.3079894 38.5754875,22.512721 C38.3010821,21.7174527 37.3892976,21.2736446 36.5923666,21.5474775 L33.0485257,22.7651739 Z M63.779802,23.2211004 C63.0106467,22.8608119 62.0780406,23.181264 61.6942174,23.9377265 C61.3273095,24.6883884 61.6542642,25.6359529 62.4123489,26.0189807 L65.8315337,27.6831551 C66.6006925,28.0434539 67.5444064,27.7002575 67.9112796,26.9496075 C68.2952734,26.1930767 67.9683192,25.2455139 67.193148,24.8683533 L63.779802,23.2211004 Z M41.176607,33.7889534 C40.7927515,34.5454348 41.1255446,35.5099197 41.877791,35.8760271 C42.6300035,36.2421489 43.6023411,35.9269724 43.9861954,35.1704875 L45.6426972,31.781188 C46.0096052,31.0305261 45.6826516,30.0829651 44.9415468,29.6940989 C44.1893031,29.3279995 43.2228042,29.6600974 42.8389811,30.4165599 L41.176607,33.7889534 Z M56.5037208,31.2668151 C56.2293133,30.4715405 55.3175381,30.0277595 54.5206071,30.3015923 C53.7236414,30.5754371 53.2789428,31.4853151 53.5533503,32.2805897 L54.7794229,35.8339341 C55.0538402,36.6292371 55.9656128,37.0730106 56.7625785,36.7991658 C57.5595095,36.5253329 58.0042107,35.6154626 57.7297934,34.8201596 L56.5037208,31.2668151 Z" id="Shape"></path>
                <path d="M94.9326952,34.6103756 C95.253377,36.1034867 95.5383628,37.5678762 95.6906447,39.0137187 C95.7289692,39.3775909 96.1008839,39.4616914 96.806389,39.2660201 L96.8892728,39.2421973 C97.0836829,39.184448 97.2881964,39.2949046 97.3460665,39.4889091 C97.371245,39.5733181 97.365124,39.6639523 97.3288235,39.7442266 L97.1202811,40.2084124 L97.1202811,40.2084124 L96.9259482,40.6472139 L96.9259482,40.6472139 L96.6889414,41.1927959 L96.6889414,41.1927959 L96.477196,41.6932502 L96.477196,41.6932502 L96.3349648,42.0389759 L96.3349648,42.0389759 L96.1674268,42.4604567 L96.1674268,42.4604567 L96.0583512,42.7469523 L96.0583512,42.7469523 L95.963485,43.0080635 L95.963485,43.0080635 L95.9081351,43.1680353 L95.9081351,43.1680353 L95.8369516,43.3868393 L95.8369516,43.3868393 L95.79739,43.5186063 L95.79739,43.5186063 L95.7641439,43.6390914 C95.7591291,43.658232 95.7543775,43.6769026 95.749889,43.6951032 L95.7261159,43.7986653 L95.7261159,43.7986653 L95.7086581,43.8909455 C95.7038914,43.9198253 95.7001772,43.9468247 95.6975156,43.9719439 C95.6510017,44.410925 96.0802624,44.6029794 96.9852977,44.548107 L97.1550923,44.5354092 L97.1550923,44.5354092 L97.3353723,44.5172695 L97.3353723,44.5172695 L97.5261376,44.4936879 C97.5588056,44.4893042 97.5919105,44.4846937 97.6254523,44.4798564 L97.8319458,44.448112 L97.8319458,44.448112 L98.0489246,44.4109256 L98.0489246,44.4109256 L98.2763888,44.3682973 C98.3151733,44.3607391 98.3543947,44.3529541 98.394053,44.3449424 L98.6372453,44.2941513 L98.6372453,44.2941513 L98.890923,44.2379182 L98.890923,44.2379182 L99.2910997,44.143365 L99.2910997,44.143365 L99.5709909,44.0735272 L99.2280201,44.4060563 L99.2280201,44.4060563 L98.5739001,45.0463746 L98.5739001,45.0463746 L98.1111542,45.5049656 L98.1111542,45.5049656 L97.6722745,45.9450016 L97.6722745,45.9450016 L97.257261,46.3664826 L97.257261,46.3664826 L96.8661139,46.7694084 L96.8661139,46.7694084 L96.6186082,47.0277173 L96.6186082,47.0277173 L96.2672381,47.399718 L96.2672381,47.399718 L96.0462505,47.6374101 L96.0462505,47.6374101 L95.8358701,47.8668556 L95.8358701,47.8668556 L95.6360969,48.0880543 L95.6360969,48.0880543 L95.4469309,48.3010063 L95.4469309,48.3010063 L95.2683722,48.5057116 L95.2683722,48.5057116 L95.1004207,48.7021702 L95.1004207,48.7021702 L94.9430764,48.8903821 L94.9430764,48.8903821 L94.7963394,49.0703473 L94.7963394,49.0703473 L94.6602096,49.2420658 L94.6602096,49.2420658 C94.319798,49.6781508 94.5679036,49.9759725 95.4045264,50.1355312 L95.5537125,50.1615297 C95.6311881,50.1738517 95.7129874,50.185158 95.7991106,50.1954484 L95.9771221,50.2146748 L95.9771221,50.2146748 L96.1666636,50.2311924 L96.1666636,50.2311924 L96.3677353,50.2450012 L96.3677353,50.2450012 L96.5803372,50.2561011 L96.5803372,50.2561011 L96.8044691,50.2644922 C96.8427853,50.265665 96.8815819,50.2667249 96.9208589,50.267672 L97.2873234,50.2731479 L97.2873234,50.2731479 L97.5460458,50.2734126 L94.6500011,52.3136321 L94.6500011,52.3136321 L93.0726715,53.412128 L93.0726715,53.412128 L92.0534203,54.1115498 L92.0534203,54.1115498 L91.8817726,54.2278715 C91.443926,54.5238265 91.500166,54.7491443 92.0504926,54.9038248 L92.163177,54.9328809 L92.163177,54.9328809 L92.2882008,54.9601729 L92.2882008,54.9601729 L92.4255639,54.9857008 C92.4494861,54.9898085 92.4739223,54.9938426 92.4988727,54.9978033 L92.6547448,55.020685 L92.6547448,55.020685 L92.8229562,55.0418027 L92.8229562,55.0418027 L93.0035069,55.0611563 L93.0035069,55.0611563 L93.2974691,55.086879 L93.2974691,55.086879 L93.5088683,55.1018194 C93.7112842,55.1149014 93.8647475,55.2892546 93.8516381,55.4912482 C93.8422654,55.6356671 93.7486095,55.7610594 93.6126,55.8112873 L87.0966017,58.2057835 L87.0966017,58.2057835 L86.2652474,58.5054608 C85.9785377,58.6075932 85.9690366,58.7395743 86.2367441,58.9014041 L86.3094461,58.9424834 L86.3094461,58.9424834 L86.3936985,58.9848063 L86.3936985,58.9848063 L86.4895012,59.028373 C86.5064309,59.0357378 86.5238418,59.0431543 86.541734,59.0506227 L86.6548623,59.096055 L86.6548623,59.096055 L86.7795409,59.1427309 L86.7795409,59.1427309 L86.9157699,59.1906505 L86.9157699,59.1906505 L87.0635493,59.2398138 L87.0635493,59.2398138 L87.222879,59.2902208 L87.222879,59.2902208 L87.393759,59.3418715 L87.393759,59.3418715 L87.5761894,59.3947659 L87.5761894,59.3947659 L87.871492,59.4764394 L87.871492,59.4764394 L88.305655,59.5896904 L88.305655,59.5896904 L88.7860194,59.7079161 L88.7860194,59.7079161 L89.1766123,59.7998501 L81.7826397,60.162157 L81.7826397,60.162157 L80.9897453,60.2085899 L80.9897453,60.2085899 C76.8511798,60.6426632 72.8174489,59.2790711 70.8282592,56.5316789 C70.1433164,57.6429844 69.6814453,58.8418034 69.2755474,60.2836166 L69.1751424,60.6492222 L69.1751424,60.6492222 L69.0764893,61.0254925 L69.0764893,61.0254925 L68.9790081,61.4129672 L68.9790081,61.4129672 L68.8821185,61.8121863 L68.8821185,61.8121863 L68.7852403,62.2236896 L68.7852403,62.2236896 L68.6386752,62.8651584 L68.6386752,62.8651584 L68.4378797,63.7684835 L68.4378797,63.7684835 L68.2266862,64.730663 L68.2266862,64.730663 C68.1312055,65.0655326 67.8214028,65.227955 67.5134617,65.0978591 L66.3243493,64.6703321 C65.4464344,64.4050915 65.1081004,63.9857938 65.0167299,63.1182751 C64.8775501,61.7968302 65.6254352,60.0306661 66.5654943,58.4390894 L66.7332405,58.1601613 L66.7332405,58.1601613 L66.9041278,57.8856142 L66.9041278,57.8856142 L67.0773077,57.6162043 C67.1353221,57.5273413 67.1935772,57.4394606 67.2519314,57.3526882 L67.4271504,57.0958219 L67.4271504,57.0958219 L67.6021159,56.846362 L67.6021159,56.846362 L67.7759794,56.6050647 L67.7759794,56.6050647 L67.9478922,56.3726863 L67.9478922,56.3726863 L68.1170057,56.1499832 L68.1170057,56.1499832 L68.2824713,55.9377118 L68.2824713,55.9377118 L68.5219733,55.6405183 L68.5219733,55.6405183 L68.6746062,55.4576347 C68.6995171,55.428223 68.7241522,55.3993562 68.7484939,55.3710502 L68.8908813,55.2080684 L68.8908813,55.2080684 C71.0443499,52.7486013 73.7953854,51.4978584 76.5191583,50.5771687 L76.9727609,50.4266258 C77.0482836,50.4019944 77.1237584,50.3775801 77.199172,50.3533639 L77.650812,50.2102942 L77.650812,50.2102942 L78.1003401,50.0710766 L78.1003401,50.0710766 L79.8644764,49.5346481 L79.8644764,49.5346481 L80.2938024,49.4011315 C83.6343168,48.3502755 86.4254433,47.1547528 87.2767567,43.8592682 L87.3140568,43.7576183 C87.3395315,43.6829636 87.3504915,43.6287615 87.3432393,43.5599056 C87.3161692,43.3028874 87.0695994,43.1338225 86.8755834,43.1541718 C86.6718866,43.1755366 86.5315073,43.2955564 86.3999685,43.4487975 L86.3563749,43.5010185 C84.6305929,45.6323711 82.4726546,46.4393688 80.1420545,46.9892289 L79.772668,47.0740676 L79.772668,47.0740676 L79.4006388,47.1555661 L79.4006388,47.1555661 L79.0261938,47.2346581 L79.0261938,47.2346581 L77.6998898,47.5060058 L77.6998898,47.5060058 L77.3173831,47.5858207 L77.3173831,47.5858207 L76.9337092,47.6683636 L76.9337092,47.6683636 L76.549095,47.7545679 C73.7898663,48.3877166 70.9756869,49.3748785 68.4825524,52.2624021 C68.07388,52.7275174 67.3745843,52.6059366 67.2847479,52.0631786 L67.2282199,51.7424339 L67.2282199,51.7424339 L67.1658202,51.3958099 C67.1021999,51.0376237 67.0374915,50.6468167 66.9948528,50.2419834 C66.9730017,50.0345181 66.9762993,49.7874112 67.0047455,49.5006627 L67.0248311,49.3238565 L67.0248311,49.3238565 L67.0509524,49.1375364 C67.0558089,49.1056902 67.0609169,49.0734476 67.0662764,49.0408086 L67.1014511,48.8402175 C67.1078165,48.8059928 67.1144335,48.7713717 67.1213019,48.7363542 L67.1655301,48.5214921 L67.1655301,48.5214921 L67.2157941,48.297116 L67.2157941,48.297116 L67.2720937,48.063226 L67.2720937,48.063226 L67.334429,47.8198219 L67.334429,47.8198219 L67.4028,47.5669038 C67.4146981,47.523958 67.4268477,47.4806157 67.4392488,47.4368771 L67.5166733,47.169688 L67.5166733,47.169688 L67.6001334,46.892985 L67.6001334,46.892985 L67.6896293,46.6067679 L67.6896293,46.6067679 L67.7851608,46.3110369 L67.7851608,46.3110369 L67.886728,46.0057919 L67.886728,46.0057919 L68.0503956,45.5300857 L68.0503956,45.5300857 L68.167052,45.2010557 L68.167052,45.2010557 L68.3533534,44.6896719 L68.3533534,44.6896719 L68.485099,44.336857 L68.485099,44.336857 L68.6228802,43.974528 L68.6228802,43.974528 L68.7666971,43.6026851 L68.7666971,43.6026851 L68.9937393,43.0270819 L68.9937393,43.0270819 L69.2343618,42.4300723 L69.2343618,42.4300723 L69.4023214,42.0201733 L69.4023214,42.0201733 L69.6655777,41.3874862 L69.6655777,41.3874862 L70.0377101,40.5106041 C70.1175141,40.3245128 70.3333801,40.238215 70.5198604,40.3178524 C70.5796768,40.3433973 70.6316193,40.3843408 70.6703739,40.4364941 C71.121421,41.0434823 71.6927259,41.0441581 72.3842885,40.4385214 L72.5206847,40.3199052 L72.5206847,40.3199052 L72.914074,39.9847641 L72.914074,39.9847641 L73.3823192,39.5944788 L73.3823192,39.5944788 L74.1636203,38.9554375 L74.1636203,38.9554375 L75.0916388,38.2083138 L75.0916388,38.2083138 L76.3318854,37.2221125 L76.3318854,37.2221125 L76.8463714,36.8158776 C77.0055547,36.6904095 77.2365229,36.7174719 77.3622533,36.8763231 C77.3976906,36.9210954 77.4221645,36.9735051 77.4337268,37.0293799 C77.6356376,38.0051138 78.0442741,38.4607097 78.6596364,38.3961674 C78.6989971,38.3920391 78.7420731,38.3857023 78.7888643,38.3771571 L78.8874003,38.357122 C78.9046486,38.3532921 78.9223097,38.3492168 78.9403836,38.3448961 L79.0537806,38.3160273 L79.0537806,38.3160273 L79.1770849,38.2812693 L79.1770849,38.2812693 L79.3102965,38.2406221 L79.3102965,38.2406221 L79.5286902,38.1686092 L79.5286902,38.1686092 L79.6866702,38.113239 L79.6866702,38.113239 L79.9422163,38.0191417 L79.9422163,38.0191417 L80.1249645,37.9490486 L80.1249645,37.9490486 L80.4176631,37.8328668 L80.4176631,37.8328668 L80.8426034,37.6573457 L80.8426034,37.6573457 L81.4295075,37.4048176 L81.4295075,37.4048176 L81.9436138,37.1762938 L81.9436138,37.1762938 L82.4973492,36.9242133 L82.4973492,36.9242133 L83.090714,36.6485762 L83.090714,36.6485762 L83.8881486,36.2709031 L83.8881486,36.2709031 L84.5706767,35.9422583 C84.7531351,35.8538229 84.9728878,35.9297351 85.061508,36.1118128 C85.0971879,36.1851201 85.1073661,36.2682034 85.0904338,36.3479292 C84.8491639,37.4839464 85.0436641,38.018902 85.6739344,37.9527961 C85.7912907,37.9404872 85.9081198,37.9274315 86.0243871,37.9135832 L86.3714689,37.8696143 C89.2491927,37.4826259 91.7540738,36.5715592 93.3434768,34.4197401 C93.8033013,33.8192644 94.7867837,33.8460406 94.9326952,34.6103756 Z" id="Fall"></path>
                <path d="M6.50070033,55.3410255 C7.47911082,53.9952193 8.78594991,53.2194016 10.057947,52.7775971 L10.2695616,52.7070153 C10.4103399,52.6619686 10.5504389,52.6208837 10.6893603,52.5834369 L10.8967968,52.5299547 L10.8967968,52.5299547 L11.1020932,52.4816869 C11.1361101,52.4740633 11.1700223,52.4666468 11.203822,52.4594325 L11.4052074,52.418531 L11.4052074,52.418531 L11.6035183,52.3822369 L11.6035183,52.3822369 L11.7983809,52.3503074 L11.7983809,52.3503074 L11.9894216,52.3224998 L11.9894216,52.3224998 L12.1762665,52.2985713 L12.1762665,52.2985713 L12.3585421,52.278279 L12.3585421,52.278279 L12.5358744,52.2613804 L12.5358744,52.2613804 L12.7078898,52.2476325 L12.7078898,52.2476325 L12.9551262,52.2323873 L12.9551262,52.2323873 L13.1882973,52.2228657 L13.1882973,52.2228657 L13.4061417,52.2182484 L13.4061417,52.2182484 L13.6073981,52.217716 L13.6073981,52.217716 L13.8477563,52.2219443 L13.8477563,52.2219443 L14.0533923,52.2300359 L14.0533923,52.2300359 L14.290202,52.2451683 L14.290202,52.2451683 L14.4704855,52.2623838 L14.4704855,52.2623838 L14.5422291,52.42763 L14.5422291,52.42763 L14.5824656,52.5266503 L14.5824656,52.5266503 L14.6637412,52.7386672 L14.6637412,52.7386672 L14.7191351,52.8925384 L14.7191351,52.8925384 L14.7780751,53.0652587 L14.7780751,53.0652587 L14.8187626,53.1904142 L14.8187626,53.1904142 L14.8810212,53.3924652 L14.8810212,53.3924652 L14.9437162,53.6108638 L14.9437162,53.6108638 L14.9851793,53.7650816 L14.9851793,53.7650816 L15.04601,54.0086416 C15.0526421,54.0364904 15.0592246,54.0645956 15.0657504,54.0929514 L15.1041673,54.2660475 L15.1041673,54.2660475 L15.1408776,54.4448803 L15.1408776,54.4448803 L15.175536,54.6291721 L15.175536,54.6291721 L15.2077968,54.8186447 C15.2129546,54.8506398 15.2179981,54.8828392 15.2229202,54.915237 L15.2509368,55.1119599 C15.255344,55.1451286 15.2596154,55.1784842 15.2637437,55.212021 L15.2867387,55.4153686 C15.4525136,57.0245587 15.2704022,59.0082742 13.9930329,60.765299 C12.4775559,62.8897418 9.68588783,64.6958024 7.77735394,64.5152329 L7.67596818,64.5036496 L7.30869698,62.1213673 L4.92143415,62.4878723 C4.07671037,60.7286485 4.95816127,57.4667543 6.50070033,55.3410255 Z M16.6023691,52.42763 L16.6741127,52.2623838 L16.6741127,52.2623838 L16.8875437,52.2426242 L16.8875437,52.2426242 L17.0912059,52.2300359 L17.0912059,52.2300359 L17.2968419,52.2219443 L17.2968419,52.2219443 L17.5372,52.217716 L17.5372,52.217716 L17.7384564,52.2182484 L17.7384564,52.2182484 L17.8819208,52.2208221 L17.8819208,52.2208221 L18.1101231,52.2286179 L18.1101231,52.2286179 L18.3528112,52.2418642 L18.3528112,52.2418642 L18.5220281,52.2541278 L18.5220281,52.2541278 L18.6967487,52.2694207 L18.6967487,52.2694207 L18.8765993,52.2879858 L18.8765993,52.2879858 L19.0612063,52.3100658 L19.0612063,52.3100658 L19.2501958,52.3359035 L19.2501958,52.3359035 L19.4431942,52.3657417 L19.4431942,52.3657417 L19.6398277,52.3998232 C19.6728821,52.4058705 19.7060724,52.4121047 19.7393908,52.418531 L19.9407762,52.4594325 L19.9407762,52.4594325 L20.1448623,52.5051842 C20.179081,52.5132271 20.2133966,52.5214823 20.2478014,52.5299547 L20.4552379,52.5834369 L20.4552379,52.5834369 L20.6644409,52.6423761 C22.0641849,53.0540345 23.5567751,53.8456852 24.6438978,55.3410255 C26.1583907,57.4281047 27.0356165,60.6104097 26.2675344,62.3904402 L26.223164,62.4878723 L23.8359012,62.1213673 L23.46863,64.5036496 C21.5588197,64.7602031 18.6941043,62.8910278 17.1515653,60.765299 C16.1459767,59.3821092 15.8191604,57.8584308 15.80649,56.487584 L15.8071314,56.2666705 C15.8104113,56.0471893 15.8214338,55.832144 15.8386442,55.6227853 L15.8578595,55.4153686 C15.8613866,55.3811305 15.8650712,55.347062 15.8689061,55.3131688 L15.8936614,55.1119599 L15.8936614,55.1119599 L15.921678,54.915237 L15.921678,54.915237 L15.9526105,54.7232782 L15.9526105,54.7232782 L16.0037205,54.4448803 L16.0037205,54.4448803 L16.0404309,54.2660475 L16.0404309,54.2660475 L16.0788478,54.0929514 L16.0788478,54.0929514 L16.1186256,53.9258702 L16.1186256,53.9258702 L16.1594188,53.7650816 L16.1594188,53.7650816 L16.2217568,53.5363058 L16.2217568,53.5363058 L16.3052032,53.2558902 L16.3052032,53.2558902 L16.3665231,53.0652587 L16.3665231,53.0652587 L16.4443793,52.8391073 L16.4443793,52.8391073 L16.5152403,52.6470214 L16.5152403,52.6470214 L16.6023691,52.42763 L16.6023691,52.42763 Z M1.06508649,44.2725756 C2.46071707,42.9165072 5.83961216,42.7699052 8.37378347,43.5762162 C10.7649675,44.3517296 12.1507037,46.2276918 12.9181295,47.7817058 L13.0189824,47.9914877 L13.0189824,47.9914877 L13.1123883,48.196477 C13.1273476,48.2301979 13.1420056,48.2636858 13.1563669,48.2969239 L13.2390117,48.4932215 L13.2390117,48.4932215 L13.3147549,48.6827227 L13.3147549,48.6827227 L13.3838148,48.8646261 L13.3838148,48.8646261 L13.4464095,49.0381301 L13.4464095,49.0381301 L13.5027571,49.2024333 L13.5027571,49.2024333 L13.5530759,49.3567341 L13.5530759,49.3567341 L13.617727,49.5676777 L13.617727,49.5676777 L13.6539278,49.6934661 L13.6539278,49.6934661 L13.6984247,49.857884 L13.6984247,49.857884 L13.7396123,50.0234296 L13.7396123,50.0234296 L13.7726702,50.1733055 L13.7726702,50.1733055 L13.6519451,50.2805309 L13.6519451,50.2805309 L13.5051018,50.4036574 L13.5051018,50.4036574 L13.3485866,50.5288948 L13.3485866,50.5288948 L13.2093367,50.6359763 L13.2093367,50.6359763 L13.0519967,50.7525872 L13.0519967,50.7525872 L12.8771517,50.8771573 L12.8771517,50.8771573 L12.6853868,51.0081162 L12.6853868,51.0081162 L12.477287,51.1438934 L12.477287,51.1438934 L12.3297678,51.2363131 L12.3297678,51.2363131 L12.175422,51.329711 L12.175422,51.329711 L12.0144231,51.4236219 L12.0144231,51.4236219 L11.8469442,51.5175806 C11.8185007,51.5332185 11.7897945,51.548839 11.7608291,51.5644324 L11.5839555,51.6575902 L11.5839555,51.6575902 L11.4010355,51.7496325 L11.4010355,51.7496325 L11.2122424,51.8400941 C11.1483517,51.8699327 11.0835111,51.8994304 11.0177495,51.9285095 L10.8177302,52.0144136 C10.5136431,52.1411535 10.1914895,52.2578472 9.85390217,52.3574281 L9.62658636,52.4212026 C8.40234901,52.7469848 6.99039527,52.8365749 5.50906807,52.3723353 C3.01784882,51.5796907 0.420151506,49.5119751 0.0187896134,47.6315582 L0,47.5344698 L2.16690011,46.4349549 L1.06508649,44.2725756 Z M22.7340876,43.5395657 C25.2230058,42.7476531 28.5267485,42.8749248 29.9661375,44.1644341 L30.0427846,44.2359251 L28.9409709,46.3983044 L31.1078711,47.4978193 C30.7405998,49.4036451 28.1329743,51.5293739 25.598803,52.3356848 C23.7813785,52.9251155 22.0576356,52.6607052 20.6593642,52.1464202 L20.4520935,52.0674788 L20.4520935,52.0674788 L20.2498787,51.9852424 C20.1833357,51.9573313 20.1176644,51.9289466 20.0528936,51.9001637 L19.8613122,51.8126959 C19.8298419,51.7979439 19.798604,51.7831114 19.7676021,51.7682075 L19.584452,51.6780052 L19.584452,51.6780052 L19.4071402,51.5865461 L19.4071402,51.5865461 L19.2358403,51.4942832 L19.2358403,51.4942832 L19.0707264,51.4016696 C19.0437325,51.3862299 19.0170037,51.3707944 18.9905434,51.3553727 L18.8350342,51.2630821 L18.8350342,51.2630821 L18.6861456,51.1715732 L18.6861456,51.1715732 L18.5440512,51.0812988 L18.5440512,51.0812988 L18.4089251,50.992712 L18.4089251,50.992712 L18.2196814,50.8639869 L18.2196814,50.8639869 L18.0470941,50.7416068 L18.0470941,50.7416068 L17.8439014,50.5909457 L17.8439014,50.5909457 L17.7124604,50.4893159 L17.7124604,50.4893159 L17.5060009,50.3219081 L17.5060009,50.3219081 L17.3352009,50.1733055 L17.3352009,50.1733055 L17.3720833,50.0118702 L17.3720833,50.0118702 L17.4096062,49.8650027 L17.4096062,49.8650027 L17.4616949,49.677069 L17.4616949,49.677069 L17.5109437,49.5115587 L17.5109437,49.5115587 L17.5910163,49.2613178 L17.5910163,49.2613178 L17.6624431,49.0536393 L17.6624431,49.0536393 L17.7441035,48.8306817 L17.7441035,48.8306817 L17.8044449,48.6743826 L17.8044449,48.6743826 L17.8696584,48.5125341 L17.8696584,48.5125341 L17.9398735,48.345633 L17.9398735,48.345633 L18.0152197,48.1741756 L18.0152197,48.1741756 L18.0958267,47.9986587 L18.0958267,47.9986587 L18.1818239,47.8195786 L18.1818239,47.8195786 L18.2733408,47.6374321 L18.2733408,47.6374321 L18.370507,47.4527155 C18.3871794,47.4217429 18.4040925,47.3906838 18.4212491,47.3595487 L18.5271322,47.1719082 C18.6359803,46.9835207 18.7537881,46.7931404 18.8811385,46.6030016 L19.0116914,46.4130261 C19.8366494,45.2430279 21.0318822,44.1105418 22.7340876,43.5395657 Z M13.8461244,35 L15.6090262,36.7225733 L17.2984738,35.0366505 C18.9879213,35.9529129 20.1999163,39.1048556 20.1999163,41.7436913 C20.1999163,44.3514819 18.7242028,46.2930807 17.439464,47.489287 L17.2731094,47.6410802 C17.2456098,47.6656724 17.2182347,47.6899107 17.1910012,47.7137942 L17.0294367,47.8528327 C17.0028382,47.8752942 16.9764156,47.8973994 16.950186,47.9191474 L16.795261,48.0453432 L16.795261,48.0453432 L16.6457897,48.1629284 L16.6457897,48.1629284 L16.502594,48.271864 L16.502594,48.271864 L16.3664958,48.3721109 L16.3664958,48.3721109 L16.238317,48.46363 L16.238317,48.46363 L16.0626956,48.5844588 L16.0626956,48.5844588 L15.9095161,48.6854304 L15.9095161,48.6854304 L15.7493787,48.7862487 L15.5718206,48.8902719 L15.5718206,48.8902719 L15.4276439,48.80486 L15.4276439,48.80486 L15.3216448,48.7385824 L15.3216448,48.7385824 L15.1421238,48.6212502 L15.1421238,48.6212502 L14.9820062,48.511705 L14.9820062,48.511705 L14.8644856,48.42849 L14.8644856,48.42849 L14.67385,48.2884904 L14.67385,48.2884904 L14.5382447,48.1850979 L14.5382447,48.1850979 L14.3966715,48.0737045 L14.3966715,48.0737045 L14.2498536,47.9543503 L14.2498536,47.9543503 L14.0985146,47.8270756 L14.0985146,47.8270756 L13.9433778,47.6919203 C13.9172454,47.6687399 13.8909849,47.6452329 13.8646113,47.6214 L13.7051342,47.4744991 L13.7051342,47.4744991 L13.5436678,47.319818 C13.5166311,47.2933917 13.4895417,47.2666429 13.4624146,47.2395724 L13.2993205,47.0732961 L13.2993205,47.0732961 L13.1360456,46.8993398 L13.1360456,46.8993398 L12.9733132,46.7177436 C11.9188834,45.5126255 10.9446819,43.8258707 10.9446819,41.7070408 C10.9446819,39.1137023 12.0797726,36.0247976 13.757334,35.0493726 L13.8461244,35 Z" id="Shape"></path>
            </g>
        </g>
    </g>
</svg>