<?xml version="1.0" encoding="UTF-8"?>
<!--Generator: Apple Native CoreSVG 149-->
<!DOCTYPE svg
PUBLIC "-//W3C//DTD SVG 1.1//EN"
       "http://www.w3.org/Graphics/SVG/1.1/DTD/svg11.dtd">
<svg version="1.1" xmlns="http://www.w3.org/2000/svg" xmlns:xlink="http://www.w3.org/1999/xlink" width="3300" height="2200">
 <!--glyph: "", point size: 100.0, font version: "17.0d8e1", template writer version: "58"-->
 <g id="Notes">
  <rect height="2200" id="artboard" style="fill:white;opacity:1" width="3300" x="0" y="0"/>
  <line style="fill:none;stroke:black;opacity:1;stroke-width:0.5;" x1="263" x2="3036" y1="292" y2="292"/>
  <text style="stroke:none;fill:black;font-family:SF Pro,SF Pro Display,SF Pro Text,sans-serif;font-size:13;font-weight:bold;" transform="matrix(1 0 0 1 263 322)">Weight/Scale Variations</text>
  <text style="stroke:none;fill:black;font-family:SF Pro,SF Pro Display,SF Pro Text,sans-serif;font-size:13;text-anchor:middle;" transform="matrix(1 0 0 1 559.711 322)">Ultralight</text>
  <text style="stroke:none;fill:black;font-family:SF Pro,SF Pro Display,SF Pro Text,sans-serif;font-size:13;text-anchor:middle;" transform="matrix(1 0 0 1 856.422 322)">Thin</text>
  <text style="stroke:none;fill:black;font-family:SF Pro,SF Pro Display,SF Pro Text,sans-serif;font-size:13;text-anchor:middle;" transform="matrix(1 0 0 1 1153.13 322)">Light</text>
  <text style="stroke:none;fill:black;font-family:SF Pro,SF Pro Display,SF Pro Text,sans-serif;font-size:13;text-anchor:middle;" transform="matrix(1 0 0 1 1449.84 322)">Regular</text>
  <text style="stroke:none;fill:black;font-family:SF Pro,SF Pro Display,SF Pro Text,sans-serif;font-size:13;text-anchor:middle;" transform="matrix(1 0 0 1 1746.56 322)">Medium</text>
  <text style="stroke:none;fill:black;font-family:SF Pro,SF Pro Display,SF Pro Text,sans-serif;font-size:13;text-anchor:middle;" transform="matrix(1 0 0 1 2043.27 322)">Semibold</text>
  <text style="stroke:none;fill:black;font-family:SF Pro,SF Pro Display,SF Pro Text,sans-serif;font-size:13;text-anchor:middle;" transform="matrix(1 0 0 1 2339.98 322)">Bold</text>
  <text style="stroke:none;fill:black;font-family:SF Pro,SF Pro Display,SF Pro Text,sans-serif;font-size:13;text-anchor:middle;" transform="matrix(1 0 0 1 2636.69 322)">Heavy</text>
  <text style="stroke:none;fill:black;font-family:SF Pro,SF Pro Display,SF Pro Text,sans-serif;font-size:13;text-anchor:middle;" transform="matrix(1 0 0 1 2933.4 322)">Black</text>
  <line style="fill:none;stroke:black;opacity:1;stroke-width:0.5;" x1="263" x2="3036" y1="1903" y2="1903"/>
  <g transform="matrix(1 0 0 1 263 1933)">
   <path d="M9.24805 0.830078Q10.8691 0.830078 12.2949 0.214844Q13.7207-0.400391 14.8096-1.49414Q15.8984-2.58789 16.5186-4.01367Q17.1387-5.43945 17.1387-7.05078Q17.1387-8.66211 16.5186-10.0879Q15.8984-11.5137 14.8047-12.6074Q13.7109-13.7012 12.2852-14.3164Q10.8594-14.9316 9.23828-14.9316Q7.62695-14.9316 6.20117-14.3164Q4.77539-13.7012 3.69141-12.6074Q2.60742-11.5137 1.9873-10.0879Q1.36719-8.66211 1.36719-7.05078Q1.36719-5.43945 1.9873-4.01367Q2.60742-2.58789 3.69629-1.49414Q4.78516-0.400391 6.21094 0.214844Q7.63672 0.830078 9.24805 0.830078ZM9.24805-0.654297Q7.91992-0.654297 6.7627-1.14746Q5.60547-1.64062 4.73145-2.51953Q3.85742-3.39844 3.36426-4.56055Q2.87109-5.72266 2.87109-7.05078Q2.87109-8.37891 3.35938-9.54102Q3.84766-10.7031 4.72168-11.582Q5.5957-12.4609 6.75293-12.9541Q7.91016-13.4473 9.23828-13.4473Q10.5762-13.4473 11.7334-12.9541Q12.8906-12.4609 13.7695-11.582Q14.6484-10.7031 15.1465-9.54102Q15.6445-8.37891 15.6445-7.05078Q15.6445-5.72266 15.1514-4.56055Q14.6582-3.39844 13.7842-2.51953Q12.9102-1.64062 11.748-1.14746Q10.5859-0.654297 9.24805-0.654297ZM5.83984-7.04102Q5.83984-6.71875 6.04492-6.51855Q6.25-6.31836 6.5918-6.31836L8.50586-6.31836L8.50586-4.39453Q8.50586-4.0625 8.70605-3.85742Q8.90625-3.65234 9.22852-3.65234Q9.56055-3.65234 9.76562-3.85742Q9.9707-4.0625 9.9707-4.39453L9.9707-6.31836L11.8945-6.31836Q12.2266-6.31836 12.4316-6.51855Q12.6367-6.71875 12.6367-7.04102Q12.6367-7.37305 12.4316-7.57812Q12.2266-7.7832 11.8945-7.7832L9.9707-7.7832L9.9707-9.69727Q9.9707-10.0391 9.76562-10.2441Q9.56055-10.4492 9.22852-10.4492Q8.90625-10.4492 8.70605-10.2441Q8.50586-10.0391 8.50586-9.69727L8.50586-7.7832L6.5918-7.7832Q6.25-7.7832 6.04492-7.57812Q5.83984-7.37305 5.83984-7.04102Z"/>
  </g>
  <g transform="matrix(1 0 0 1 281.867 1933)">
   <path d="M11.709 2.91016Q13.75 2.91016 15.5518 2.12891Q17.3535 1.34766 18.7305-0.0292969Q20.1074-1.40625 20.8887-3.20801Q21.6699-5.00977 21.6699-7.05078Q21.6699-9.0918 20.8887-10.8936Q20.1074-12.6953 18.7305-14.0723Q17.3535-15.4492 15.5469-16.2305Q13.7402-17.0117 11.6992-17.0117Q9.6582-17.0117 7.85645-16.2305Q6.05469-15.4492 4.68262-14.0723Q3.31055-12.6953 2.5293-10.8936Q1.74805-9.0918 1.74805-7.05078Q1.74805-5.00977 2.5293-3.20801Q3.31055-1.40625 4.6875-0.0292969Q6.06445 1.34766 7.86621 2.12891Q9.66797 2.91016 11.709 2.91016ZM11.709 1.25Q9.98047 1.25 8.47656 0.605469Q6.97266-0.0390625 5.83496-1.17676Q4.69727-2.31445 4.05762-3.81836Q3.41797-5.32227 3.41797-7.05078Q3.41797-8.7793 4.05762-10.2832Q4.69727-11.7871 5.83008-12.9297Q6.96289-14.0723 8.4668-14.7119Q9.9707-15.3516 11.6992-15.3516Q13.4277-15.3516 14.9316-14.7119Q16.4355-14.0723 17.5781-12.9297Q18.7207-11.7871 19.3652-10.2832Q20.0098-8.7793 20.0098-7.05078Q20.0098-5.32227 19.3701-3.81836Q18.7305-2.31445 17.5928-1.17676Q16.4551-0.0390625 14.9463 0.605469Q13.4375 1.25 11.709 1.25ZM7.39258-7.04102Q7.39258-6.68945 7.62695-6.46484Q7.86133-6.24023 8.23242-6.24023L10.8789-6.24023L10.8789-3.57422Q10.8789-3.21289 11.1035-2.9834Q11.3281-2.75391 11.6797-2.75391Q12.0508-2.75391 12.2852-2.9834Q12.5195-3.21289 12.5195-3.57422L12.5195-6.24023L15.1758-6.24023Q15.5371-6.24023 15.7715-6.46484Q16.0059-6.68945 16.0059-7.04102Q16.0059-7.41211 15.7715-7.6416Q15.5371-7.87109 15.1758-7.87109L12.5195-7.87109L12.5195-10.5176Q12.5195-10.8984 12.2852-11.1279Q12.0508-11.3574 11.6797-11.3574Q11.3281-11.3574 11.1035-11.1279Q10.8789-10.8984 10.8789-10.5176L10.8789-7.87109L8.23242-7.87109Q7.85156-7.87109 7.62207-7.6416Q7.39258-7.41211 7.39258-7.04102Z"/>
  </g>
  <g transform="matrix(1 0 0 1 305.646 1933)">
   <path d="M14.9707 5.66406Q17.0605 5.66406 18.96 5.01465Q20.8594 4.36523 22.4512 3.19336Q24.043 2.02148 25.2197 0.429688Q26.3965-1.16211 27.0459-3.06641Q27.6953-4.9707 27.6953-7.05078Q27.6953-9.14062 27.0459-11.04Q26.3965-12.9395 25.2197-14.5312Q24.043-16.123 22.4512-17.2998Q20.8594-18.4766 18.9551-19.126Q17.0508-19.7754 14.9609-19.7754Q12.8711-19.7754 10.9717-19.126Q9.07227-18.4766 7.48535-17.2998Q5.89844-16.123 4.72168-14.5312Q3.54492-12.9395 2.90039-11.04Q2.25586-9.14062 2.25586-7.05078Q2.25586-4.9707 2.90527-3.06641Q3.55469-1.16211 4.72656 0.429688Q5.89844 2.02148 7.49023 3.19336Q9.08203 4.36523 10.9814 5.01465Q12.8809 5.66406 14.9707 5.66406ZM14.9707 3.84766Q13.1641 3.84766 11.5283 3.2959Q9.89258 2.74414 8.53516 1.74805Q7.17773 0.751953 6.17676-0.610352Q5.17578-1.97266 4.62891-3.6084Q4.08203-5.24414 4.08203-7.05078Q4.08203-8.86719 4.62891-10.5029Q5.17578-12.1387 6.17188-13.501Q7.16797-14.8633 8.52539-15.8594Q9.88281-16.8555 11.5186-17.4023Q13.1543-17.9492 14.9609-17.9492Q16.7773-17.9492 18.4131-17.4023Q20.0488-16.8555 21.4111-15.8594Q22.7734-14.8633 23.7695-13.501Q24.7656-12.1387 25.3174-10.5029Q25.8691-8.86719 25.8691-7.05078Q25.8789-5.24414 25.332-3.6084Q24.7852-1.97266 23.7842-0.610352Q22.7832 0.751953 21.4209 1.74805Q20.0586 2.74414 18.4229 3.2959Q16.7871 3.84766 14.9707 3.84766ZM9.45312-7.04102Q9.45312-6.66016 9.71191-6.41113Q9.9707-6.16211 10.3711-6.16211L14.0625-6.16211L14.0625-2.46094Q14.0625-2.06055 14.3115-1.80664Q14.5605-1.55273 14.9414-1.55273Q15.3516-1.55273 15.6055-1.80664Q15.8594-2.06055 15.8594-2.46094L15.8594-6.16211L19.5605-6.16211Q19.9609-6.16211 20.2148-6.41113Q20.4688-6.66016 20.4688-7.04102Q20.4688-7.45117 20.2148-7.70508Q19.9609-7.95898 19.5605-7.95898L15.8594-7.95898L15.8594-11.6504Q15.8594-12.0605 15.6055-12.3145Q15.3516-12.5684 14.9414-12.5684Q14.5605-12.5684 14.3115-12.3096Q14.0625-12.0508 14.0625-11.6504L14.0625-7.95898L10.3711-7.95898Q9.96094-7.95898 9.70703-7.70508Q9.45312-7.45117 9.45312-7.04102Z"/>
  </g>
  <text style="stroke:none;fill:black;font-family:SF Pro,SF Pro Display,SF Pro Text,sans-serif;font-size:13;font-weight:bold;" transform="matrix(1 0 0 1 263 1953)">Design Variations</text>
  <text style="stroke:none;fill:black;font-family:SF Pro,SF Pro Display,SF Pro Text,sans-serif;font-size:13;" transform="matrix(1 0 0 1 263 1971)">Symbols are supported in up to nine weights and three scales.</text>
  <text style="stroke:none;fill:black;font-family:SF Pro,SF Pro Display,SF Pro Text,sans-serif;font-size:13;" transform="matrix(1 0 0 1 263 1989)">For optimal layout with text and other symbols, vertically align</text>
  <text style="stroke:none;fill:black;font-family:SF Pro,SF Pro Display,SF Pro Text,sans-serif;font-size:13;" transform="matrix(1 0 0 1 263 2007)">symbols with the adjacent text.</text>
  <line style="fill:none;stroke:#00AEEF;stroke-width:0.5;opacity:1.0;" x1="776" x2="776" y1="1919" y2="1933"/>
  <g transform="matrix(1 0 0 1 776 1933)">
   <path d="M3.31055 0.15625Q3.70117 0.15625 3.91602-0.00976562Q4.13086-0.175781 4.26758-0.585938L5.52734-4.0332L11.2891-4.0332L12.5488-0.585938Q12.6855-0.175781 12.9004-0.00976562Q13.1152 0.15625 13.4961 0.15625Q13.8867 0.15625 14.1162-0.0585938Q14.3457-0.273438 14.3457-0.644531Q14.3457-0.869141 14.2383-1.17188L9.6582-13.3691Q9.48242-13.8184 9.17969-14.043Q8.87695-14.2676 8.4082-14.2676Q7.5-14.2676 7.17773-13.3789L2.59766-1.16211Q2.49023-0.859375 2.49023-0.634766Q2.49023-0.263672 2.70996-0.0537109Q2.92969 0.15625 3.31055 0.15625ZM6.00586-5.51758L8.37891-12.0898L8.42773-12.0898L10.8008-5.51758Z"/>
  </g>
  <line style="fill:none;stroke:#00AEEF;stroke-width:0.5;opacity:1.0;" x1="793.197" x2="793.197" y1="1919" y2="1933"/>
  <text style="stroke:none;fill:black;font-family:SF Pro,SF Pro Display,SF Pro Text,sans-serif;font-size:13;font-weight:bold;" transform="matrix(1 0 0 1 776 1953)">Margins</text>
  <text style="stroke:none;fill:black;font-family:SF Pro,SF Pro Display,SF Pro Text,sans-serif;font-size:13;" transform="matrix(1 0 0 1 776 1971)">Leading and trailing margins on the left and right side of each symbol</text>
  <text style="stroke:none;fill:black;font-family:SF Pro,SF Pro Display,SF Pro Text,sans-serif;font-size:13;" transform="matrix(1 0 0 1 776 1989)">can be adjusted by modifying the x-location of the margin guidelines.</text>
  <text style="stroke:none;fill:black;font-family:SF Pro,SF Pro Display,SF Pro Text,sans-serif;font-size:13;" transform="matrix(1 0 0 1 776 2007)">Modifications are automatically applied proportionally to all</text>
  <text style="stroke:none;fill:black;font-family:SF Pro,SF Pro Display,SF Pro Text,sans-serif;font-size:13;" transform="matrix(1 0 0 1 776 2025)">scales and weights.</text>
  <g transform="matrix(1 0 0 1 1289 1933)">
   <path d="M2.8418 1.86523L4.54102 3.57422Q5.18555 4.22852 5.90332 4.17969Q6.62109 4.13086 7.31445 3.35938L18.0078-8.42773L17.041-9.4043L6.42578 2.27539Q6.16211 2.57812 5.89355 2.61719Q5.625 2.65625 5.27344 2.30469L4.10156 1.14258Q3.75 0.791016 3.79395 0.522461Q3.83789 0.253906 4.14062-0.0195312L15.6152-10.8203L14.6387-11.7871L3.04688-0.898438Q2.30469-0.214844 2.25098 0.498047Q2.19727 1.21094 2.8418 1.86523ZM9.25781-16.3281Q8.94531-16.0254 8.90625-15.6348Q8.86719-15.2441 9.04297-14.9512Q9.21875-14.6777 9.55566-14.541Q9.89258-14.4043 10.3809-14.5215Q11.4746-14.7754 12.5977-14.7314Q13.7207-14.6875 14.7949-13.9844L14.209-12.5293Q13.9551-11.9043 14.0674-11.4404Q14.1797-10.9766 14.5801-10.5664L16.875-8.25195Q17.2363-7.88086 17.5781-7.82227Q17.9199-7.76367 18.3398-7.8418L19.4043-8.03711L20.0684-7.36328L20.0293-6.80664Q20-6.43555 20.1221-6.12305Q20.2441-5.81055 20.6055-5.44922L21.3672-4.70703Q21.7285-4.3457 22.1533-4.33105Q22.5781-4.31641 22.9297-4.66797L25.8398-7.58789Q26.1914-7.93945 26.1816-8.35449Q26.1719-8.76953 25.8105-9.13086L25.0391-9.89258Q24.6875-10.2539 24.3799-10.3857Q24.0723-10.5176 23.7109-10.4883L23.1348-10.4395L22.4902-11.0742L22.7344-12.1973Q22.832-12.6172 22.6953-12.9834Q22.5586-13.3496 22.1191-13.7891L19.9219-15.9766Q18.6719-17.2168 17.2607-17.8369Q15.8496-18.457 14.4189-18.4814Q12.9883-18.5059 11.665-17.959Q10.3418-17.4121 9.25781-16.3281ZM10.752-15.957Q11.6602-16.6211 12.7002-16.9043Q13.7402-17.1875 14.8047-17.085Q15.8691-16.9824 16.8701-16.5137Q17.8711-16.0449 18.7012-15.2051L21.1328-12.793Q21.3086-12.6172 21.3525-12.4512Q21.3965-12.2852 21.3379-12.0312L21.0156-10.5469L22.5195-9.0625L23.5059-9.12109Q23.6914-9.13086 23.7891-9.09668Q23.8867-9.0625 24.0332-8.91602L24.6094-8.33984L22.168-5.89844L21.5918-6.47461Q21.4453-6.62109 21.4062-6.71875Q21.3672-6.81641 21.377-7.01172L21.4453-7.98828L19.9512-9.47266L18.4277-9.21875Q18.1836-9.16992 18.042-9.2041Q17.9004-9.23828 17.7148-9.41406L15.7129-11.416Q15.5176-11.5918 15.4932-11.7529Q15.4688-11.9141 15.5859-12.1875L16.4648-14.2773Q15.293-15.3711 13.8281-15.791Q12.3633-16.2109 10.8398-15.7617Q10.7227-15.7324 10.6885-15.8057Q10.6543-15.8789 10.752-15.957Z"/>
  </g>
  <text style="stroke:none;fill:black;font-family:SF Pro,SF Pro Display,SF Pro Text,sans-serif;font-size:13;font-weight:bold;" transform="matrix(1 0 0 1 1289 1953)">Exporting</text>
  <text style="stroke:none;fill:black;font-family:SF Pro,SF Pro Display,SF Pro Text,sans-serif;font-size:13;" transform="matrix(1 0 0 1 1289 1971)">Symbols should be outlined when exporting to ensure the</text>
  <text style="stroke:none;fill:black;font-family:SF Pro,SF Pro Display,SF Pro Text,sans-serif;font-size:13;" transform="matrix(1 0 0 1 1289 1989)">design is preserved when submitting to Xcode.</text>
  <text id="template-version" style="stroke:none;fill:black;font-family:SF Pro,SF Pro Display,SF Pro Text,sans-serif;font-size:13;text-anchor:end;" transform="matrix(1 0 0 1 3036 1933)">Template v.3.0</text>
  <text style="stroke:none;fill:black;font-family:SF Pro,SF Pro Display,SF Pro Text,sans-serif;font-size:13;text-anchor:end;" transform="matrix(1 0 0 1 3036 1951)">Requires Xcode 13 or greater</text>
  <text id="descriptive-name" style="stroke:none;fill:black;font-family:SF Pro,SF Pro Display,SF Pro Text,sans-serif;font-size:13;text-anchor:end;" transform="matrix(1 0 0 1 3036 1969)">Generated from eye.tv.fill</text>
  <text style="stroke:none;fill:black;font-family:SF Pro,SF Pro Display,SF Pro Text,sans-serif;font-size:13;text-anchor:end;" transform="matrix(1 0 0 1 3036 1987)">Typeset at 100 points</text>
  <text style="stroke:none;fill:black;font-family:SF Pro,SF Pro Display,SF Pro Text,sans-serif;font-size:13;" transform="matrix(1 0 0 1 263 726)">Small</text>
  <text style="stroke:none;fill:black;font-family:SF Pro,SF Pro Display,SF Pro Text,sans-serif;font-size:13;" transform="matrix(1 0 0 1 263 1156)">Medium</text>
  <text style="stroke:none;fill:black;font-family:SF Pro,SF Pro Display,SF Pro Text,sans-serif;font-size:13;" transform="matrix(1 0 0 1 263 1586)">Large</text>
 </g>
 <g id="Guides">
  <g id="H-reference" style="fill:#27AAE1;stroke:none;" transform="matrix(1 0 0 1 339 696)">
   <path d="M0.993347 0L3.6377 0L29.3282-67.1326L30.0301-67.1326L30.0301-70.459L28.1227-70.459ZM11.6882-24.4797L46.9818-24.4797L46.2311-26.7288L12.4382-26.7288ZM55.1193 0L57.7637 0L30.6381-70.459L29.4327-70.459L29.4327-67.1326Z"/>
  </g>
  <line id="Baseline-S" style="fill:none;stroke:#27AAE1;opacity:1;stroke-width:0.5;" x1="263" x2="3036" y1="696" y2="696"/>
  <line id="Capline-S" style="fill:none;stroke:#27AAE1;opacity:1;stroke-width:0.5;" x1="263" x2="3036" y1="625.541" y2="625.541"/>
  <g id="H-reference" style="fill:#27AAE1;stroke:none;" transform="matrix(1 0 0 1 339 1126)">
   <path d="M0.993347 0L3.6377 0L29.3282-67.1326L30.0301-67.1326L30.0301-70.459L28.1227-70.459ZM11.6882-24.4797L46.9818-24.4797L46.2311-26.7288L12.4382-26.7288ZM55.1193 0L57.7637 0L30.6381-70.459L29.4327-70.459L29.4327-67.1326Z"/>
  </g>
  <line id="Baseline-M" style="fill:none;stroke:#27AAE1;opacity:1;stroke-width:0.5;" x1="263" x2="3036" y1="1126" y2="1126"/>
  <line id="Capline-M" style="fill:none;stroke:#27AAE1;opacity:1;stroke-width:0.5;" x1="263" x2="3036" y1="1055.54" y2="1055.54"/>
  <g id="H-reference" style="fill:#27AAE1;stroke:none;" transform="matrix(1 0 0 1 339 1556)">
   <path d="M0.993347 0L3.6377 0L29.3282-67.1326L30.0301-67.1326L30.0301-70.459L28.1227-70.459ZM11.6882-24.4797L46.9818-24.4797L46.2311-26.7288L12.4382-26.7288ZM55.1193 0L57.7637 0L30.6381-70.459L29.4327-70.459L29.4327-67.1326Z"/>
  </g>
  <line id="Baseline-L" style="fill:none;stroke:#27AAE1;opacity:1;stroke-width:0.5;" x1="263" x2="3036" y1="1556" y2="1556"/>
  <line id="Capline-L" style="fill:none;stroke:#27AAE1;opacity:1;stroke-width:0.5;" x1="263" x2="3036" y1="1485.54" y2="1485.54"/>
  <line id="left-margin-Regular-M" style="fill:none;stroke:#00AEEF;stroke-width:0.5;opacity:1.0;" x1="1376.18" x2="1376.18" y1="1030.78" y2="1150.12"/>
  <line id="right-margin-Regular-M" style="fill:none;stroke:#00AEEF;stroke-width:0.5;opacity:1.0;" x1="1523.51" x2="1523.51" y1="1030.78" y2="1150.12"/>
 </g>
 <g id="Symbols">
  <g id="Black-L" transform="matrix(1 0 0 1 2835.61 1556)">
   <path d="M161.237-105.561C174.917-105.561 182.71-97.9992 182.864-84.3453L182.867-83.9297L182.867-10.0039C182.867 3.72461 175.21 11.4711 161.649 11.6247L161.237 11.627L34.332 11.627C20.6519 11.627 12.8581 4.01778 12.7035-9.58972L12.7012-10.0039L12.7012-83.9297C12.7012-97.7065 20.3582-105.406 33.9193-105.559L34.332-105.561L161.237-105.561ZM101.187-78.75C71.2395-78.75 51.7012-54.5214 51.7012-47.25C51.7012-39.9787 71.2395-15.75 101.187-15.75C131.636-15.75 150.701-39.9787 150.701-47.25C150.701-54.5214 131.636-78.75 101.187-78.75ZM101.243-65.5949C111.457-65.5949 119.779-57.4355 119.779-47.2223C119.779-37.3144 111.457-28.8773 101.243-28.8773C91.0006-28.8773 82.6787-37.3144 82.6509-47.2223C82.6509-57.491 91.0006-65.5949 101.243-65.5949ZM101.187-54.9099C96.9289-54.9099 93.5334-51.3852 93.5334-47.1945C93.5334-43.0037 96.9289-39.5623 101.187-39.5623C105.445-39.5623 108.897-43.0037 108.897-47.1945C108.897-51.3852 105.445-54.9099 101.187-54.9099ZM63.6289 36.334L131.989 36.334C136.432 36.334 139.996 32.5742 139.996 28.375C139.996 24.1758 136.432 20.416 131.989 20.416L63.6289 20.416C59.1367 20.416 55.6211 24.1758 55.6211 28.375C55.6211 32.5742 59.1367 36.334 63.6289 36.334Z"/>
  </g>
  <g id="Heavy-L" transform="matrix(1 0 0 1 2540.73 1556)">
   <path d="M159.088-103.461C171.893-103.461 179.055-96.5276 179.202-83.7019L179.205-83.2949L179.205-9.71094C179.205 3.19037 172.176 10.2581 159.49 10.4039L159.088 10.4062L32.8183 10.4062C20.0137 10.4062 12.8514 3.4729 12.7035-9.30547L12.7012-9.71094L12.7012-83.2949C12.7012-96.2446 19.7301-103.313 32.4158-103.459L32.8183-103.461L159.088-103.461ZM96.1725-78.461C65.9241-78.461 45.7012-53.9134 45.7012-46.4894C45.7012-39.037 65.9241-14.461 96.1725-14.461C126.935-14.461 146.701-39.037 146.701-46.4894C146.701-53.9134 126.907-78.461 96.1725-78.461ZM96.2298-65.661C106.913-65.661 115.624-57.1277 115.624-46.461C115.624-36.0788 106.913-27.2894 96.2298-27.2894C85.5186-27.2894 76.8353-36.0788 76.8068-46.461C76.8068-57.1561 85.5186-65.661 96.2298-65.661ZM96.2011-54.141C91.9168-54.141 88.4892-50.6423 88.4892-46.4325C88.4892-42.2512 91.9168-38.781 96.2011-38.781C100.457-38.781 103.942-42.2512 103.942-46.4325C103.942-50.6423 100.457-54.141 96.2011-54.141ZM62.5058 33.9902L129.401 33.9902C133.405 33.9902 136.578 30.6699 136.578 26.9102C136.578 23.1016 133.405 19.7812 129.401 19.7812L62.5058 19.7812C58.5508 19.7812 55.3769 23.1016 55.3769 26.9102C55.3769 30.6699 58.5508 33.9902 62.5058 33.9902Z"/>
  </g>
  <g id="Bold-L" transform="matrix(1 0 0 1 2246.07 1556)">
   <path d="M156.647-101.068C168.526-101.068 174.961-94.8594 175.101-83.0084L175.104-82.6113L175.104-9.41797C175.104 2.55834 168.799 8.89885 157.041 9.03676L156.647 9.03906L31.1582 9.03906C19.3268 9.03906 12.8446 2.83015 12.7036-9.02085L12.7012-9.41797L12.7012-82.6113C12.7012-94.5876 19.0534-100.928 30.7658-101.066L31.1582-101.068L156.647-101.068ZM93.6866-78.068C63.444-78.068 42.7012-53.2005 42.7012-45.5826C42.7012-37.9939 63.4149-13.068 93.6866-13.068C124.394-13.068 144.701-37.9939 144.701-45.5826C144.701-53.2005 124.365-78.068 93.6866-78.068ZM93.7446-65.6926C104.814-65.6926 113.848-56.7905 113.848-45.5534C113.848-34.6665 104.814-25.4726 93.7446-25.4726C82.5598-25.4726 73.612-34.6665 73.5828-45.5534C73.5539-56.7905 82.5598-65.6926 93.7446-65.6926ZM93.7156-53.2588C89.4741-53.2588 86.046-49.7564 86.046-45.5534C86.046-41.3505 89.4741-37.9064 93.7156-37.9064C97.9279-37.9064 101.385-41.3505 101.385-45.5534C101.385-49.7564 97.9279-53.2588 93.7156-53.2588ZM61.2851 31.4023L126.569 31.4023C129.987 31.4023 132.721 28.5215 132.721 25.25C132.721 21.9297 129.987 19.0488 126.569 19.0488L61.2851 19.0488C57.8183 19.0488 55.084 21.9297 55.084 25.25C55.084 28.5215 57.8183 31.4023 61.2851 31.4023Z"/>
  </g>
  <g id="Semibold-L" transform="matrix(1 0 0 1 1950.78 1556)">
   <path d="M154.987-99.4082C166.186-99.4082 172.136-93.729 172.269-82.512L172.272-82.123L172.272-9.22266C172.272 2.12156 166.449 7.97744 155.371 8.10906L154.987 8.11133L29.9863 8.11133C18.7869 8.11133 12.8373 2.38436 12.7035-8.83366L12.7012-9.22266L12.7012-82.123C12.7012-93.4673 18.5236-99.2754 29.6022-99.4059L29.9863-99.4082L154.987-99.4082ZM92.216-78.4082C61.8906-78.4082 40.7012-53.5553 40.7012-45.9082C40.7012-38.2906 61.8317-13.4082 92.216-13.4082C122.954-13.4082 143.701-38.2906 143.701-45.9082C143.701-53.5553 122.895-78.4082 92.216-78.4082ZM92.216-66.467C103.621-66.467 112.905-57.3788 112.905-45.9082C112.905-34.7317 103.621-25.3494 92.216-25.3494C80.7224-25.3494 71.557-34.7317 71.4979-45.9082C71.4686-57.3788 80.7224-66.467 92.216-66.467ZM92.216-53.4964C88.0016-53.4964 84.5536-50.0846 84.5536-45.9082C84.5536-41.7611 88.0016-38.32 92.216-38.32C96.4009-38.32 99.849-41.7611 99.849-45.9082C99.849-50.0846 96.4009-53.4964 92.216-53.4964ZM60.4062 29.5957L124.567 29.5957C127.643 29.5957 130.084 27.0566 130.084 24.0781C130.084 21.0996 127.643 18.5605 124.567 18.5605L60.4062 18.5605C57.3789 18.5605 54.8887 21.0996 54.8887 24.0781C54.8887 27.0566 57.3789 29.5957 60.4062 29.5957Z"/>
  </g>
  <g id="Medium-L" transform="matrix(1 0 0 1 1655.14 1556)">
   <path d="M153.717-98.1875C164.429-98.1875 169.991-92.8944 170.12-82.1666L170.123-81.7812L170.123-9.02734C170.123 1.82973 164.687 7.25061 154.097 7.37666L153.717 7.37891L29.1074 7.37891C18.4434 7.37891 12.834 2.08576 12.7035-8.6419L12.7012-9.02734L12.7012-81.7812C12.7012-92.6383 18.1851-98.0592 28.7287-98.1852L29.1074-98.1875L153.717-98.1875ZM91.2159-78.1875C61.035-78.1875 39.7012-53.3581 39.7012-45.6727C39.7012-38.017 60.9758-13.1875 91.2159-13.1875C121.781-13.1875 142.701-38.017 142.701-45.6727C142.701-53.3581 121.693-78.1875 91.2159-78.1875ZM91.2159-66.5708C102.786-66.5708 112.195-57.3485 112.195-45.6727C112.195-34.3221 102.786-24.8042 91.2159-24.8042C79.5578-24.8042 70.2668-34.3221 70.2075-45.6727C70.178-57.3485 79.5578-66.5708 91.2159-66.5708ZM91.2159-53.2102C87.0438-53.2102 83.6115-49.811 83.6115-45.6727C83.6115-41.564 87.0438-38.1648 91.2159-38.1648C95.3586-38.1648 98.7909-41.564 98.7909-45.6727C98.7909-49.811 95.3586-53.2102 91.2159-53.2102ZM59.7715 28.1797L123.053 28.1797C125.836 28.1797 128.082 25.9336 128.082 23.248C128.082 20.4648 125.836 18.2188 123.053 18.2188L59.7715 18.2188C56.9883 18.2188 54.7422 20.4648 54.7422 23.248C54.7422 25.9336 56.9883 28.1797 59.7715 28.1797Z"/>
  </g>
  <g id="Regular-L" transform="matrix(1 0 0 1 1359.82 1556)">
   <path d="M152.057-96.5273C162.087-96.5273 167.212-91.7643 167.337-81.6739L167.34-81.293L167.34-8.83203C167.34 1.39173 162.339 6.32858 152.431 6.44891L152.057 6.45117L27.9844 6.45117C17.9535 6.45117 12.8286 1.64055 12.7035-8.45112L12.7012-8.83203L12.7012-81.293C12.7012-91.5167 17.7023-96.4059 27.6105-96.5251L27.9844-96.5273L152.057-96.5273ZM90.2164-78.5273C59.7013-78.5273 37.7012-53.3729 37.7012-45.5424C37.7012-37.7119 59.6406-12.5273 90.2164-12.5273C121.095-12.5273 142.701-37.7119 142.701-45.5424C142.701-53.3729 121.004-78.5273 90.2164-78.5273ZM90.2164-67.1897C102.247-67.1897 111.974-57.6358 111.974-45.5424C111.974-33.7513 102.247-23.8951 90.2164-23.8951C78.0952-23.8951 68.4891-33.7513 68.428-45.5424C68.3679-57.6358 78.0952-67.1897 90.2164-67.1897ZM90.2467-53.1008C86.0346-53.1008 82.5498-49.6844 82.5498-45.5424C82.5498-41.4307 86.0346-37.984 90.2467-37.984C94.3981-37.984 97.8531-41.4307 97.8531-45.5424C97.8531-49.6844 94.3981-53.1008 90.2467-53.1008ZM58.9414 26.4219L121.1 26.4219C123.541 26.4219 125.494 24.4688 125.494 22.0762C125.494 19.6348 123.541 17.7305 121.1 17.7305L58.9414 17.7305C56.5 17.7305 54.5469 19.6348 54.5469 22.0762C54.5469 24.4688 56.5 26.4219 58.9414 26.4219Z"/>
  </g>
  <g id="Light-L" transform="matrix(1 0 0 1 1064.97 1556)">
   <path d="M149.616-94.5254C158.817-94.5254 163.503-90.0571 163.626-80.8861L163.629-80.5117L163.629-7.70898C163.629 1.58919 159.066 6.1339 149.986 6.25344L149.616 6.25586L26.7148 6.25586C17.513 6.25586 12.827 1.83513 12.7037-7.33463L12.7012-7.70898L12.7012-80.5117C12.7012-89.8098 17.2645-94.4021 26.3442-94.523L26.7148-94.5254L149.616-94.5254ZM88.2011-75.5254C59.5433-75.5254 38.7012-51.4756 38.7012-44.0399C38.7012-36.6042 59.4564-12.5254 88.2011-12.5254C117.149-12.5254 137.701-36.6042 137.701-44.0399C137.701-51.4756 117.003-75.5254 88.2011-75.5254ZM88.2011-64.7204C99.5774-64.7204 108.899-55.571 108.899-44.0399C108.899-32.7702 99.5774-23.3594 88.2011-23.3594C76.709-23.3594 67.5906-32.7702 67.5036-44.0399C67.4748-55.571 76.709-64.7204 88.2011-64.7204ZM88.23-50.8656C84.438-50.8656 81.3116-47.8158 81.3116-44.0399C81.3116-40.293 84.438-37.2142 88.23-37.2142C91.9932-37.2142 95.0908-40.293 95.0908-44.0399C95.0908-47.8158 91.9932-50.8656 88.23-50.8656ZM57.7695 24.4199L118.61 24.4199C120.465 24.4199 121.93 22.9551 121.93 21.0996C121.93 19.1953 120.465 17.7305 118.61 17.7305L57.7695 17.7305C55.914 17.7305 54.4004 19.1953 54.4004 21.0996C54.4004 22.9551 55.914 24.4199 57.7695 24.4199Z"/>
  </g>
  <g id="Thin-L" transform="matrix(1 0 0 1 770.697 1556)">
   <path d="M146.393-91.8398C154.473-91.8398 158.621-87.8598 158.743-79.8998L158.746-79.5352L158.746-6.29297C158.746 1.78773 154.719 5.93575 146.757 6.05778L146.393 6.06055L25.0547 6.06055C16.9739 6.06055 12.826 2.03313 12.704-5.92837L12.7012-6.29297L12.7012-79.5352C12.7012-87.6159 16.7285-91.7165 24.6901-91.8371L25.0547-91.8398L146.393-91.8398ZM85.7011-72.8398C58.6363-72.8398 38.7012-49.8617 38.7012-42.8538C38.7012-35.8179 58.5245-12.8398 85.7011-12.8398C112.934-12.8398 132.701-35.8179 132.701-42.8538C132.701-49.8617 112.71-72.8398 85.7011-72.8398ZM85.7011-62.5652C96.5214-62.5652 105.553-53.8263 105.553-42.8538C105.553-32.1046 96.5214-23.1144 85.7011-23.1144C74.713-23.1144 65.9617-32.1046 65.8497-42.8538C65.8219-53.8263 74.713-62.5652 85.7011-62.5652ZM85.757-48.8845C82.346-48.8845 79.578-46.2321 79.578-42.8538C79.578-39.5034 82.346-36.8231 85.757-36.8231C89.0843-36.8231 91.8243-39.5034 91.8243-42.8538C91.8243-46.2321 89.0843-48.8845 85.757-48.8845ZM56.207 21.7344L115.241 21.7344C116.412 21.7344 117.291 20.9043 117.291 19.7812C117.291 18.6094 116.412 17.7793 115.241 17.7793L56.207 17.7793C55.084 17.7793 54.1562 18.6094 54.1562 19.7812C54.1562 20.9043 55.084 21.7344 56.207 21.7344Z"/>
  </g>
  <g id="Ultralight-L" transform="matrix(1 0 0 1 475.231 1556)">
   <path d="M144.782-90.4727C152.231-90.4727 156.133-86.6875 156.253-79.3501L156.256-78.998L156.256-5.56055C156.256 1.89137 152.469 5.84034 145.128 5.96008L144.782 5.96289L24.1758 5.96289C16.7238 5.96289 12.8223 2.12857 12.704-5.21381L12.7012-5.56055L12.7012-78.998C12.7012-86.4481 16.4863-90.3497 23.8237-90.4698L24.1758-90.4727L144.782-90.4727ZM84.7013-71.4727C58.305-71.4727 38.7012-48.8377 38.7012-41.9727C38.7012-35.0801 58.1394-12.4727 84.7013-12.4727C111.208-12.4727 130.701-35.0801 130.701-41.9727C130.701-48.8377 110.987-71.4727 84.7013-71.4727ZM84.7013-61.3544C95.3041-61.3544 104.222-52.7526 104.222-41.9727C104.222-31.4133 95.3041-22.5633 84.7013-22.5633C73.9053-22.5633 65.2907-31.4133 65.1801-41.9727C65.1526-52.7526 73.9053-61.3544 84.7013-61.3544ZM84.7565-47.6521C81.5536-47.6521 78.9305-45.1708 78.9305-41.9727C78.9305-38.8021 81.5536-36.2933 84.7565-36.2933C87.9042-36.2933 90.4999-38.8021 90.4999-41.9727C90.4999-45.1708 87.9042-47.6521 84.7565-47.6521ZM55.4258 20.3672L113.532 20.3672C114.313 20.3672 114.899 19.8789 114.899 19.0977C114.899 18.3164 114.313 17.8281 113.532 17.8281L55.4258 17.8281C54.6445 17.8281 54.0586 18.3164 54.0586 19.0977C54.0586 19.8789 54.6445 20.3672 55.4258 20.3672Z"/>
  </g>
  <g id="Black-M" transform="matrix(1 0 0 1 2853.27 1126)">
   <path d="M129.449-91.498C140.7-91.498 147.414-84.9087 147.562-73.7603L147.564-73.3828L147.564-15.4238C147.564-4.17329 140.975 2.5411 129.827 2.68892L129.449 2.69141L30.8164 2.69141C19.5659 2.69141 12.8515-3.89797 12.7037-15.0463L12.7012-15.4238L12.7012-73.3828C12.7012-84.6334 19.2906-91.3477 30.4389-91.4955L30.8164-91.498L129.449-91.498ZM80.1616-67.498C63.3977-67.498 51.2707-57.2795 46.2549-49.9311L45.8689-49.3497C44.4475-47.146 43.7012-45.245 43.7012-44.0244C43.7012-38.6643 57.8098-20.498 80.1616-20.498C102.91-20.498 116.701-38.6643 116.701-44.0244C116.701-49.3317 102.91-67.498 80.1616-67.498ZM80.2408-57.0154C87.4272-57.0154 93.372-51.2064 93.372-43.9716C93.372-36.948 87.4272-30.9806 80.2408-30.9806C73.0016-30.9806 67.057-36.948 67.057-43.9716C67.057-51.2328 73.0016-57.0154 80.2408-57.0154ZM80.1616-49.6485C77.0175-49.6485 74.5604-47.0345 74.5604-43.9452C74.5604-40.8294 77.0175-38.321 80.1616-38.321C83.332-38.321 85.8684-40.8294 85.8684-43.9452C85.8684-47.0345 83.332-49.6485 80.1616-49.6485ZM53.0332 22.3691L107.232 22.3691C111.041 22.3691 114.068 19.0977 114.068 15.582C114.068 12.0664 111.041 8.79492 107.232 8.79492L53.0332 8.79492C49.2246 8.79492 46.1973 12.0664 46.1973 15.582C46.1973 19.0977 49.2246 22.3691 53.0332 22.3691Z"/>
  </g>
  <g id="Heavy-M" transform="matrix(1 0 0 1 2558.07 1126)">
   <path d="M127.691-89.6914C138.261-89.6914 144.393-83.729 144.535-73.2657L144.537-72.8945L144.537-15.4238C144.537-4.80655 138.527 1.27931 128.062 1.41941L127.691 1.42188L29.498 1.42188C18.929 1.42188 12.8438-4.54052 12.7037-15.051L12.7012-15.4238L12.7012-72.8945C12.7012-83.4636 18.6636-89.5488 29.1268-89.6889L29.498-89.6914L127.691-89.6914ZM78.1739-67.6914C55.4558-67.6914 40.7012-49.211 40.7012-43.705C40.7012-38.1718 55.4558-19.6914 78.1739-19.6914C101.274-19.6914 115.701-38.1718 115.701-43.705C115.701-49.211 101.274-67.6914 78.1739-67.6914ZM78.2285-57.5517C85.8921-57.5517 92.192-51.3643 92.192-43.6778C92.192-36.182 85.8921-29.8311 78.2285-29.8311C70.5376-29.8311 64.2376-36.182 64.2376-43.6778C64.2376-51.3916 70.5376-57.5517 78.2285-57.5517ZM78.1739-49.4291C74.983-49.4291 72.4467-46.8124 72.4467-43.6505C72.4467-40.4887 74.983-37.8993 78.1739-37.8993C81.3921-37.8993 83.983-40.4887 83.983-43.6505C83.983-46.8124 81.3921-49.4291 78.1739-49.4291ZM52.1055 20.3184L105.084 20.3184C108.551 20.3184 111.236 17.4375 111.236 14.2148C111.236 11.041 108.551 8.11133 105.084 8.11133L52.1055 8.11133C48.6875 8.11133 45.9531 11.041 45.9531 14.2148C45.9531 17.4375 48.6875 20.3184 52.1055 20.3184Z"/>
  </g>
  <g id="Bold-M" transform="matrix(1 0 0 1 2263.07 1126)">
   <path d="M125.787-87.6895C135.527-87.6895 140.982-82.4518 141.116-72.7288L141.119-72.3574L141.119-15.375C141.119-5.53857 135.786-0.177963 126.155-0.0454852L125.787-0.042969L28.0332-0.042969C18.2932-0.042969 12.8386-5.28062 12.7038-15.0036L12.7012-15.375L12.7012-72.3574C12.7012-82.1939 18.034-87.5545 27.6654-87.687L28.0332-87.6895L125.787-87.6895ZM77.1868-68.6895C53.5763-68.6895 37.7012-49.5229 37.7012-43.6895C37.7012-37.8849 53.5474-18.6895 77.1868-18.6895C101.173-18.6895 116.701-37.8849 116.701-43.6895C116.701-49.5229 101.144-68.6895 77.1868-68.6895ZM77.2157-58.7757C85.615-58.7757 92.4554-52.0803 92.4554-43.6895C92.4554-35.4998 85.615-28.6033 77.2157-28.6033C68.7874-28.6033 61.9756-35.4998 61.9465-43.6895C61.9179-52.1091 68.7874-58.7757 77.2157-58.7757ZM77.1868-49.6665C73.8674-49.6665 71.1831-46.9366 71.1831-43.6608C71.1831-40.3849 73.8674-37.7125 77.1868-37.7125C80.5061-37.7125 83.2193-40.3849 83.2193-43.6608C83.2193-46.9366 80.5061-49.6665 77.1868-49.6665ZM51.1289 18.0723L102.691 18.0723C105.719 18.0723 108.111 15.5332 108.111 12.7012C108.111 9.82031 105.719 7.33008 102.691 7.33008L51.1289 7.33008C48.1016 7.33008 45.709 9.82031 45.709 12.7012C45.709 15.5332 48.1016 18.0723 51.1289 18.0723Z"/>
  </g>
  <g id="Semibold-M" transform="matrix(1 0 0 1 1967.53 1126)">
   <path d="M124.42-86.2734C133.622-86.2734 138.64-81.5199 138.772-72.3413L138.775-71.9668L138.775-15.375C138.775-6.02698 133.877-1.14882 124.786-1.02207L124.42-1.01953L27.0078-1.01953C17.8059-1.01953 12.8348-5.773 12.7039-14.9985L12.7012-15.375L12.7012-71.9668C12.7012-81.2649 17.5497-86.1424 26.6371-86.2708L27.0078-86.2734L124.42-86.2734ZM76.1865-69.2734C52.1864-69.2734 35.7012-49.7604 35.7012-43.7586C35.7012-37.7865 52.1864-18.2734 76.1865-18.2734C100.573-18.2734 116.701-37.7865 116.701-43.7586C116.701-49.7604 100.543-69.2734 76.1865-69.2734ZM76.2162-59.6352C85.0677-59.6352 92.2261-52.6282 92.2261-43.7586C92.2261-35.1552 85.0677-27.8821 76.2162-27.8821C67.3052-27.8821 60.2062-35.1552 60.1763-43.7586C60.1468-52.6282 67.3052-59.6352 76.2162-59.6352ZM76.1865-49.849C72.8003-49.849 70.0676-47.0995 70.0676-43.7586C70.0676-40.4178 72.8003-37.6682 76.1865-37.6682C79.5726-37.6682 82.335-40.4178 82.335-43.7586C82.335-47.0995 79.5726-49.849 76.1865-49.849ZM50.3965 16.5098L101.031 16.5098C103.766 16.5098 105.914 14.2637 105.914 11.6758C105.914 9.03906 103.766 6.79297 101.031 6.79297L50.3965 6.79297C47.7109 6.79297 45.5625 9.03906 45.5625 11.6758C45.5625 14.2637 47.7109 16.5098 50.3965 16.5098Z"/>
  </g>
  <g id="Medium-M" transform="matrix(1 0 0 1 1671.72 1126)">
   <path d="M123.443-85.1992C132.207-85.1992 136.839-80.8309 136.966-72.0476L136.969-71.6738L136.969-15.3262C136.969-6.41843 132.458-1.92644 123.811-1.80338L123.443-1.80078L26.2266-1.80078C17.4632-1.80078 12.8309-6.16905 12.7039-14.9524L12.7012-15.3262L12.7012-71.6738C12.7012-80.5815 17.2118-85.0735 25.8588-85.1966L26.2266-85.1992L123.443-85.1992ZM75.2012-69.1992C51.3777-69.1992 34.7012-49.7211 34.7012-43.7141C34.7012-37.6773 51.3479-18.1992 75.2012-18.1992C99.382-18.1992 115.701-37.6773 115.701-43.7141C115.701-49.7211 99.3521-69.1992 75.2012-69.1992ZM75.231-59.9211C84.2541-59.9211 91.5499-52.7543 91.5499-43.6843C91.5499-34.882 84.2541-27.4773 75.231-27.4773C66.1483-27.4773 58.9119-34.882 58.8819-43.6843C58.8523-52.7841 66.1483-59.9211 75.231-59.9211ZM75.231-49.7805C71.8361-49.7805 69.0964-47.0149 69.0964-43.6843C69.0964-40.3834 71.8361-37.6476 75.231-37.6476C78.5663-37.6476 81.3358-40.3834 81.3358-43.6843C81.3358-47.0149 78.5663-49.7805 75.231-49.7805ZM49.8594 15.2891L99.8105 15.2891C102.252 15.2891 104.254 13.2871 104.254 10.8457C104.254 8.4043 102.252 6.35352 99.8105 6.35352L49.8594 6.35352C47.418 6.35352 45.416 8.4043 45.416 10.8457C45.416 13.2871 47.418 15.2891 49.8594 15.2891Z"/>
  </g>
  <g id="Regular-M" transform="matrix(1 0 0 1 1376.18 1126)">
   <path d="M122.125-83.832C130.354-83.832 134.504-79.9433 134.622-71.6519L134.625-71.2832L134.625-15.3262C134.625-6.90509 130.594-2.89435 122.485-2.77986L122.125-2.77734L25.25-2.77734C17.0214-2.77734 12.8238-6.66604 12.7038-14.9575L12.7012-15.3262L12.7012-71.2832C12.7012-79.7043 16.7796-83.715 24.8896-83.8295L25.25-83.832L122.125-83.832ZM73.2166-68.832C48.9993-68.832 31.7012-49.0414 31.7012-42.832C31.7012-36.6532 48.9993-16.832 73.2166-16.832C97.7398-16.832 114.701-36.6532 114.701-42.832C114.701-49.0414 97.7091-68.832 73.2166-68.832ZM73.2166-59.8696C82.6769-59.8696 90.331-52.3756 90.331-42.832C90.331-33.5332 82.6769-25.7944 73.2166-25.7944C63.6643-25.7944 56.1022-33.5332 56.0714-42.832C56.041-52.3756 63.6643-59.8696 73.2166-59.8696ZM73.2166-49.0108C69.7875-49.0108 66.9709-46.2273 66.9709-42.832C66.9709-39.4673 69.7875-36.6837 73.2166-36.6837C76.6149-36.6837 79.4316-39.4673 79.4316-42.832C79.4316-46.2273 76.6149-49.0108 73.2166-49.0108ZM49.1758 13.7266L98.1504 13.7266C100.348 13.7266 102.105 11.9688 102.105 9.82031C102.105 7.62305 100.348 5.81641 98.1504 5.81641L49.1758 5.81641C47.0273 5.81641 45.2207 7.62305 45.2207 9.82031C45.2207 11.9688 47.0273 13.7266 49.1758 13.7266Z"/>
  </g>
  <g id="Light-M" transform="matrix(1 0 0 1 1081.1 1126)">
   <path d="M119.928-82.0254C127.38-82.0254 131.234-78.4278 131.351-70.9528L131.354-70.5996L131.354-14.3496C131.354-6.75346 127.614-3.03896 120.275-2.92647L119.928-2.92383L24.127-2.92383C16.627-2.92383 12.8193-6.52147 12.7039-13.9964L12.7012-14.3496L12.7012-70.5996C12.7012-78.1958 16.3935-81.9103 23.7781-82.0228L24.127-82.0254L119.928-82.0254ZM72.2159-67.0254C49.2938-67.0254 32.7012-47.9679 32.7012-42.0402C32.7012-36.1422 49.2347-17.0254 72.2159-17.0254C95.4039-17.0254 111.701-36.1422 111.701-42.0402C111.701-47.9679 95.3155-67.0254 72.2159-67.0254ZM72.2159-58.4302C81.2664-58.4302 88.6312-51.1985 88.6312-42.0402C88.6312-33.119 81.2664-25.6205 72.2159-25.6205C63.0766-25.6205 55.8303-33.119 55.771-42.0402C55.7416-51.1985 63.0766-58.4302 72.2159-58.4302ZM72.2454-47.6419C69.1399-47.6419 66.5667-45.1226 66.5667-42.0402C66.5667-38.9875 69.1399-36.4386 72.2454-36.4386C75.2919-36.4386 77.8355-38.9875 77.8355-42.0402C77.8355-45.1226 75.2919-47.6419 72.2454-47.6419ZM48.1504 11.9199L95.9043 11.9199C97.5645 11.9199 98.9316 10.6016 98.9316 8.94141C98.9316 7.23242 97.5645 5.86523 95.9043 5.86523L48.1504 5.86523C46.4414 5.86523 45.0742 7.23242 45.0742 8.94141C45.0742 10.6016 46.4414 11.9199 48.1504 11.9199Z"/>
  </g>
  <g id="Thin-M" transform="matrix(1 0 0 1 786.59 1126)">
   <path d="M116.998-79.6328C123.478-79.6328 126.844-76.4241 126.956-70.0531L126.959-69.7207L126.959-13.0801C126.959-6.552 123.703-3.23265 117.33-3.122L116.998-3.11914L22.6133-3.11914C16.1332-3.11914 12.8147-6.32785 12.7041-12.7453L12.7012-13.0801L12.7012-69.7207C12.7012-76.2008 15.9099-79.5193 22.2809-79.6299L22.6133-79.6328L116.998-79.6328ZM69.7154-64.6328C48.3828-64.6328 32.7012-46.649 32.7012-41.1328C32.7012-35.6166 48.298-17.6328 69.7154-17.6328C91.1895-17.6328 106.701-35.6166 106.701-41.1328C106.701-46.649 91.0483-64.6328 69.7154-64.6328ZM69.7154-56.5555C78.2203-56.5555 85.2842-49.7166 85.2842-41.1328C85.2842-32.7178 78.2203-25.6819 69.7154-25.6819C61.0694-25.6819 54.2034-32.7178 54.1184-41.1328C54.0904-49.7166 61.0694-56.5555 69.7154-56.5555ZM69.7437-45.9454C67.0312-45.9454 64.799-43.8346 64.799-41.1328C64.799-38.4591 67.0312-36.2921 69.7437-36.2921C72.4279-36.2921 74.6036-38.4591 74.6036-41.1328C74.6036-43.8346 72.4279-45.9454 69.7437-45.9454ZM46.7344 9.57617L92.877 9.57617C93.9512 9.57617 94.7812 8.79492 94.7812 7.7207C94.7812 6.69531 93.9512 5.91406 92.877 5.91406L46.7344 5.91406C45.709 5.91406 44.8789 6.69531 44.8789 7.7207C44.8789 8.79492 45.709 9.57617 46.7344 9.57617Z"/>
  </g>
  <g id="Ultralight-M" transform="matrix(1 0 0 1 491.002 1126)">
   <path d="M115.533-78.4121C121.482-78.4121 124.602-75.4429 124.71-69.5508L124.713-69.2324L124.713-12.3965C124.713-6.44802 121.697-3.32735 115.849-3.21968L115.533-3.2168L21.8809-3.2168C15.8844-3.2168 12.8101-6.23311 12.704-12.0805L12.7012-12.3965L12.7012-69.2324C12.7012-75.2288 15.6703-78.3032 21.5625-78.4093L21.8809-78.4121L115.533-78.4121ZM68.715-63.4121C48.0126-63.4121 32.7012-45.7986 32.7012-40.426C32.7012-35.0533 47.9014-17.4121 68.715-17.4121C89.5009-17.4121 104.701-35.0533 104.701-40.426C104.701-41.6617 103.887-43.5449 102.382-45.7125L101.974-46.2841C96.679-53.5045 84.1585-63.4121 68.715-63.4121ZM68.715-55.5469C76.9959-55.5469 83.943-48.8173 83.943-40.426C83.943-32.2008 76.9959-25.3049 68.715-25.3049C60.2673-25.3049 53.5147-32.2008 53.4589-40.426C53.4313-48.8173 60.2673-55.5469 68.715-55.5469ZM68.7428-44.9401C66.1862-44.9401 64.1021-42.9461 64.1021-40.426C64.1021-37.9335 66.1862-35.9118 68.7428-35.9118C71.2437-35.9118 73.3001-37.9335 73.3001-40.426C73.3001-42.9461 71.2437-44.9401 68.7428-44.9401ZM46.0508 8.30664L91.3633 8.30664C92.0957 8.30664 92.6328 7.86719 92.6328 7.13477C92.6328 6.40234 92.0957 5.91406 91.3633 5.91406L46.0508 5.91406C45.3184 5.91406 44.7812 6.40234 44.7812 7.13477C44.7812 7.86719 45.3184 8.30664 46.0508 8.30664Z"/>
  </g>
  <g id="Black-S" transform="matrix(1 0 0 1 2867.96 696)">
   <path d="M104.059-79.1445C112.825-79.1445 118.028-74.0602 118.167-65.3915L118.17-65.0332L118.17-19.6719C118.17-10.9053 113.086-5.70243 104.417-5.56341L104.059-5.56055L26.8126-5.56055C18.0459-5.56055 12.8431-10.6449 12.7041-19.3136L12.7012-19.6719L12.7012-65.0332C12.7012-73.7998 17.7855-79.0026 26.4543-79.1416L26.8126-79.1445L104.059-79.1445ZM65.1748-61.1445C54.1894-61.1445 45.7444-55.4728 40.9991-50.2264L40.5583-49.7282C40.2005-49.3144 39.8661-48.9046 39.5559-48.5017L39.1952-48.0217C38.5553-47.1486 38.0333-46.315 37.6353-45.5534L37.4305-45.1453C36.9495-44.1439 36.7012-43.2873 36.7012-42.6578C36.7012-42.0243 36.9495-41.1643 37.4305-40.16L37.6353-39.7508C37.6715-39.6814 37.7087-39.6114 37.7469-39.5408L37.9885-39.1107C38.4537-38.3103 39.0412-37.4472 39.7449-36.5535L40.1402-36.0633C44.6823-30.5593 53.4919-24.1445 65.1748-24.1445C74.5839-24.1445 82.0325-28.1586 86.9556-32.5605L87.5021-33.0603C88.2163-33.7284 88.8725-34.4022 89.4688-35.0693L89.9047-35.5681C90.7539-36.5625 91.467-37.5346 92.0376-38.4425L92.311-38.8909C92.3546-38.9646 92.3972-39.0379 92.4388-39.1107L92.6762-39.5408C92.7137-39.6114 92.7503-39.6814 92.7858-39.7508L92.9868-40.16C93.4588-41.1643 93.7012-42.0243 93.7012-42.6578C93.7012-43.2873 93.4588-44.1439 92.9868-45.1453L92.7858-45.5534C92.6437-45.8303 92.4853-46.1168 92.311-46.4112L92.0376-46.8586C91.9901-46.9341 91.9415-47.0101 91.892-47.0864L91.5831-47.5496C91.1019-48.2513 90.5416-48.9834 89.9047-49.7282L89.4688-50.2264C84.7734-55.4728 76.3593-61.1445 65.1748-61.1445ZM65.2274-52.937C70.8642-52.937 75.5264-48.3419 75.5264-42.6312C75.5264-37.0799 70.8642-32.3519 65.2274-32.3519C59.5644-32.3519 54.9022-37.0799 54.9022-42.6312C54.9022-48.3685 59.5644-52.937 65.2274-52.937ZM65.1748-47.0935C62.7251-47.0935 60.8023-45.0483 60.8023-42.6047C60.8023-40.161 62.7251-38.1689 65.1748-38.1689C67.6507-38.1689 69.6262-40.161 69.6262-42.6047C69.6262-45.0483 67.6507-47.0935 65.1748-47.0935ZM44.2442 9.82031L86.627 9.82031C89.6055 9.82031 91.9493 7.28125 91.9493 4.54688C91.9493 1.8125 89.6055-0.726562 86.627-0.726562L44.2442-0.726562C41.2657-0.726562 38.9219 1.8125 38.9219 4.54688C38.9219 7.28125 41.2657 9.82031 44.2442 9.82031Z"/>
  </g>
  <g id="Heavy-S" transform="matrix(1 0 0 1 2572.23 696)">
   <path d="M102.985-77.9727C111.264-77.9727 116.08-73.3213 116.214-65.0949L116.217-64.7402L116.217-19.7695C116.217-11.4413 111.518-6.67263 103.337-6.53995L102.985-6.53711L25.9336-6.53711C17.6054-6.53711 12.8367-11.1885 12.704-19.4148L12.7012-19.7695L12.7012-64.7402C12.7012-73.0685 17.3525-77.8372 25.5788-77.9699L25.9336-77.9727L102.985-77.9727ZM64.1875-60.9727C52.0345-60.9727 42.7751-54.2116 38.0936-48.5078L37.6924-48.0075L37.6924-48.0075L37.3153-47.5138L37.3153-47.5138L36.9624-47.0281C35.4863-44.9418 34.7012-43.111 34.7012-41.9727C34.7012-40.9657 35.3156-39.4168 36.4792-37.6286L36.7952-37.1569C36.9593-36.9185 37.1328-36.6765 37.3153-36.4315L37.6924-35.9379L37.6924-35.9379L38.0936-35.4375L38.0936-35.4375L38.5185-34.9317L38.5185-34.9317L38.9669-34.4216C43.8744-28.9618 52.7493-22.9727 64.1875-22.9727C74.1825-22.9727 82.1109-27.3958 87.2225-32.105L87.7689-32.6196C89.196-33.994 90.3824-35.3799 91.3097-36.6755L91.6452-37.1569C92.9924-39.1433 93.7012-40.8781 93.7012-41.9727C93.7012-43.4175 92.4662-45.9778 90.1582-48.7601L89.7267-49.2682L89.7267-49.2682L89.2719-49.78C84.3736-55.1693 75.6364-60.9727 64.1875-60.9727ZM64.2148-52.9597C70.2543-52.9597 75.2278-48.0857 75.2278-41.9451C75.2278-35.9973 70.2543-30.9582 64.2148-30.9582C58.1482-30.9582 53.2019-35.9973 53.2019-41.9451C53.2019-48.0857 58.1482-52.9597 64.2148-52.9597ZM64.1875-46.5712C61.6461-46.5712 59.6512-44.451 59.6512-41.9451C59.6512-39.4118 61.6461-37.3466 64.1875-37.3466C66.729-37.3466 68.7785-39.4118 68.7785-41.9451C68.7785-44.451 66.729-46.5712 64.1875-46.5712ZM43.6583 8.45312L85.2598 8.45312C87.9942 8.45312 90.1426 6.1582 90.1426 3.61914C90.1426 1.03125 87.9942-1.26367 85.2598-1.26367L43.6583-1.26367C40.9239-1.26367 38.7754 1.03125 38.7754 3.61914C38.7754 6.1582 40.9239 8.45312 43.6583 8.45312Z"/>
  </g>
  <g id="Bold-S" transform="matrix(1 0 0 1 2276.62 696)">
   <path d="M101.764-76.6543C109.554-76.6543 113.887-72.534 114.017-64.7598L114.02-64.3984L114.02-19.8672C114.02-11.9807 109.804-7.74092 102.121-7.61425L101.764-7.61133L24.9571-7.61133C17.1667-7.61133 12.8337-11.7316 12.7042-19.5058L12.7012-19.8672L12.7012-64.3984C12.7012-72.2849 16.9162-76.5247 24.6-76.6514L24.9571-76.6543L101.764-76.6543ZM63.1864-61.6543C50.3723-61.6543 40.4266-54.5676 35.3735-48.567L34.9404-48.0406C32.8389-45.4246 31.7012-43.0668 31.7012-41.669C31.7012-40.2624 32.8389-37.8984 34.9404-35.2781L35.3735-34.7508L35.3735-34.7508L35.832-34.218C36.2246-33.7719 36.6433-33.3214 37.0874-32.8695L37.6323-32.3269C43.1095-26.9893 52.0683-21.6543 63.1864-21.6543C82.3526-21.6543 94.7012-36.9803 94.7012-41.669C94.7012-46.3283 82.3526-61.6543 63.1864-61.6543ZM63.2157-53.7422C69.9165-53.7422 75.3591-48.3795 75.3591-41.6396C75.3591-35.0756 69.9165-29.5371 63.2157-29.5371C56.4856-29.5371 51.0427-35.0756 51.0427-41.6396C51.0137-48.4088 56.4856-53.7422 63.2157-53.7422ZM63.1864-46.5041C60.4944-46.5041 58.3291-44.3063 58.3291-41.6396C58.3291-38.973 60.4944-36.7752 63.1864-36.7752C65.8785-36.7752 68.0731-38.973 68.0731-41.6396C68.0731-44.3063 65.8785-46.5041 63.1864-46.5041ZM43.0235 6.93945L83.6973 6.93945C86.1387 6.93945 88.0918 4.88867 88.0918 2.54492C88.0918 0.201172 86.1387-1.84961 83.6973-1.84961L43.0235-1.84961C40.5821-1.84961 38.5801 0.201172 38.5801 2.54492C38.5801 4.88867 40.5821 6.93945 43.0235 6.93945Z"/>
  </g>
  <g id="Semibold-S" transform="matrix(1 0 0 1 1980.66 696)">
   <path d="M100.934-75.7266C108.338-75.7266 112.38-71.9396 112.503-64.5054L112.506-64.1543L112.506-19.916C112.506-12.3679 108.577-8.51217 101.278-8.39532L100.934-8.39258L24.2735-8.39258C16.8215-8.39258 12.8252-12.1322 12.704-19.5649L12.7012-19.916L12.7012-64.1543C12.7012-71.7024 16.5828-75.6055 23.9267-75.7238L24.2735-75.7266L100.934-75.7266ZM62.2011-61.7266C43.5063-61.7266 30.7012-46.4351 30.7012-41.7414C30.7012-40.2299 32.0124-37.6363 34.4083-34.8079L34.8702-34.275C40.0895-28.3876 49.8625-21.7266 62.2011-21.7266C74.733-21.7266 84.4443-28.3876 89.5992-34.275L90.0552-34.8079C92.4199-37.6363 93.7012-40.2299 93.7012-41.7414C93.7012-42.5863 93.2958-43.7745 92.5202-45.1551L92.248-45.6222C88.4373-51.9401 77.3914-61.7266 62.2011-61.7266ZM62.2304-54.1989C69.0871-54.1989 74.6545-48.6786 74.6545-41.7118C74.6545-34.9517 69.0871-29.2543 62.2304-29.2543C55.315-29.2543 49.7767-34.9517 49.7767-41.7118C49.7476-48.7081 55.315-54.1989 62.2304-54.1989ZM62.2011-46.6122C59.5052-46.6122 57.3369-44.3982 57.3369-41.7118C57.3369-39.055 59.5052-36.841 62.2011-36.841C64.8676-36.841 67.0652-39.055 67.0652-41.7118C67.0652-44.3982 64.8676-46.6122 62.2011-46.6122ZM42.584 5.91406L82.6231 5.91406C84.8692 5.91406 86.7247 4.00977 86.7247 1.8125C86.7247-0.384766 84.8692-2.28906 82.6231-2.28906L42.584-2.28906C40.2891-2.28906 38.4825-0.384766 38.4825 1.8125C38.4825 4.00977 40.2891 5.91406 42.584 5.91406Z"/>
  </g>
  <g id="Medium-S" transform="matrix(1 0 0 1 1684.54 696)">
   <path d="M100.299-75.043C107.459-75.043 111.213-71.5435 111.331-64.3583L111.334-64.0078L111.334-19.9648C111.334-12.7088 107.693-9.04688 100.643-8.93246L100.299-8.92969L23.7364-8.92969C16.5765-8.92969 12.8214-12.4765 12.704-19.6165L12.7012-19.9648L12.7012-64.0078C12.7012-71.3119 16.3426-74.9273 23.3926-75.0403L23.7364-75.043L100.299-75.043ZM62.2164-62.043C43.0524-62.043 29.7012-46.4095 29.7012-41.543C29.7012-36.6766 43.0524-21.043 62.2164-21.043C81.6832-21.043 94.7012-36.6766 94.7012-41.543C94.7012-46.4095 81.6832-62.043 62.2164-62.043ZM62.2164-54.5912C69.4522-54.5912 75.265-48.8427 75.265-41.543C75.265-34.4258 69.4522-28.4644 62.2164-28.4644C54.9505-28.4644 49.1677-34.4258 49.1677-41.543C49.1377-48.8427 54.9505-54.5912 62.2164-54.5912ZM62.2164-46.5615C59.4615-46.5615 57.1908-44.2804 57.1908-41.5126C57.1908-38.8056 59.4615-36.5244 62.2164-36.5244C64.9715-36.5244 67.2421-38.8056 67.2421-41.5126C67.2421-44.2804 64.9715-46.5615 62.2164-46.5615ZM42.2422 5.08398L81.793 5.08398C83.9415 5.08398 85.6504 3.32617 85.6504 1.27539C85.6504-0.82422 83.9415-2.58203 81.793-2.58203L42.2422-2.58203C40.0938-2.58203 38.3848-0.82422 38.3848 1.27539C38.3848 3.32617 40.0938 5.08398 42.2422 5.08398Z"/>
  </g>
  <g id="Regular-S" transform="matrix(1 0 0 1 1388.58 696)">
   <path d="M99.4688-74.1152C106.291-74.1152 109.709-70.9485 109.818-64.1033L109.821-63.7637L109.821-20.0625C109.821-13.0966 106.512-9.77019 99.8015-9.6647L99.4688-9.66211L23.0528-9.66211C16.2808-9.66211 12.8158-12.8744 12.704-19.7173L12.7012-20.0625L12.7012-63.7637C12.7012-70.7277 16.0552-74.0069 22.7169-74.1126L23.0528-74.1152L99.4688-74.1152ZM61.217-63.1152C41.614-63.1152 27.7012-47.169 27.7012-42.1152C27.7012-37.0928 41.614-21.1152 61.217-21.1152C72.1534-21.1152 81.1887-25.9484 87.1059-31.1339L87.739-31.7008C92.1866-35.7703 94.7012-39.9556 94.7012-42.1152C94.7012-47.169 81.1013-63.1152 61.217-63.1152ZM61.217-55.8641C68.8456-55.8641 74.9422-49.8372 74.9422-42.1152C74.9422-34.613 68.8456-28.3663 61.217-28.3663C53.5258-28.3663 47.4918-34.613 47.429-42.1152C47.398-49.8372 53.5258-55.8641 61.217-55.8641ZM61.217-47.2946C58.3719-47.2946 56.0271-44.9403 56.0271-42.1152C56.0271-39.3215 58.3719-36.9672 61.217-36.9672C64.0308-36.9672 66.3757-39.3215 66.3757-42.1152C66.3757-44.9403 64.0308-47.2946 61.217-47.2946ZM41.8028 4.05859L80.7676 4.05859C82.6719 4.05859 84.2833 2.49609 84.2833 0.542969C84.2833-1.41016 82.6719-3.02148 80.7676-3.02148L41.8028-3.02148C39.8497-3.02148 38.2872-1.41016 38.2872 0.542969C38.2872 2.49609 39.8497 4.05859 41.8028 4.05859Z"/>
  </g>
  <g id="Light-S" transform="matrix(1 0 0 1 1093.34 696)">
   <path d="M97.5157-72.5527C103.658-72.5527 106.782-69.6289 106.888-63.5031L106.891-63.1777L106.891-19.1836C106.891-12.9453 103.872-9.91398 97.8362-9.8113L97.5157-9.8086L22.0762-9.8086C15.9339-9.8086 12.8099-12.7324 12.704-18.8582L12.7012-19.1836L12.7012-63.1777C12.7012-69.416 15.7194-72.4473 21.7557-72.55L22.0762-72.5527L97.5157-72.5527ZM59.7012-61.5527C47.9763-61.5527 38.3239-55.5064 32.7864-49.8404L32.2715-49.3021C29.3414-46.1713 27.7012-43.2209 27.7012-41.5527C27.7012-36.8167 41.0598-21.5527 59.7012-21.5527C72.3333-21.5527 82.4032-28.4047 87.6737-34.3514L88.1328-34.8814C90.4379-37.6046 91.7012-40.0845 91.7012-41.5527C91.7012-46.3189 78.4944-61.5527 59.7012-61.5527ZM59.7012-54.6749C67.0181-54.6749 72.9687-48.883 72.9687-41.5527C72.9687-34.4034 67.0181-28.4305 59.7012-28.4305C52.3236-28.4305 46.464-34.4034 46.4334-41.5527C46.4033-48.883 52.3236-54.6749 59.7012-54.6749ZM59.7012-46.1681C57.1206-46.1681 54.9953-44.0866 54.9953-41.5527C54.9953-39.0489 57.1206-36.9373 59.7012-36.9373C62.2515-36.9373 64.3767-39.0489 64.3767-41.5527C64.3767-44.0866 62.2515-46.1681 59.7012-46.1681ZM40.8751 2.49609L78.7657 2.49609C80.2305 2.49609 81.5001 1.27539 81.5001-0.238281C81.5001-1.75195 80.2305-2.97266 78.7657-2.97266L40.8751-2.97266C39.3614-2.97266 38.1407-1.75195 38.1407-0.238281C38.1407 1.27539 39.3614 2.49609 40.8751 2.49609Z"/>
  </g>
  <g id="Thin-S" transform="matrix(1 0 0 1 798.553 696)">
   <path d="M94.9766-70.4043C100.248-70.4043 102.933-67.8644 103.031-62.6459L103.034-62.3477L103.034-18.0605C103.034-12.741 100.446-10.1025 95.2722-10.0066L94.9766-10.0039L20.7579-10.0039C15.5341-10.0039 12.8034-12.5438 12.704-17.7623L12.7012-18.0605L12.7012-62.3477C12.7012-67.6672 15.3352-70.3057 20.4649-70.4016L20.7579-70.4043L94.9766-70.4043ZM58.1863-59.4043C48.7102-59.4043 40.5788-55.1555 35.1031-50.5492L34.5057-50.0361C34.2125-49.779 33.9277-49.5213 33.6514-49.2635L33.1104-48.7483C32.1397-47.8044 31.2863-46.8666 30.5612-45.9678L30.1784-45.4816L30.1784-45.4816L29.8216-45.0043C29.707-44.8468 29.5968-44.691 29.491-44.5371L29.187-44.0812C28.2187-42.5817 27.7012-41.2902 27.7012-40.4043C27.7012-39.297 28.5041-37.5558 29.9841-35.5669L30.3523-35.085C31.1778-34.0315 32.1836-32.9193 33.3521-31.8028L33.9029-31.2874C39.3378-26.3058 47.9561-21.4043 58.1863-21.4043C70.2007-21.4043 79.9856-28.1417 85.0177-33.8464L85.4493-34.3469C85.6588-34.5956 85.859-34.8419 86.0496-35.085L86.4178-35.5669C87.8983-37.5558 88.7012-39.297 88.7012-40.4043C88.7012-41.5117 87.8889-43.2529 86.3968-45.2417L86.0257-45.7236L86.0257-45.7236L85.6289-46.2138C84.9464-47.0372 84.1584-47.8902 83.2736-48.7483L82.7312-49.2635C82.4542-49.5213 82.1686-49.779 81.8747-50.0361L81.2759-50.5492C75.7876-55.1555 67.6463-59.4043 58.1863-59.4043ZM58.1863-52.9058C65.2236-52.9058 71.0931-47.3399 71.0931-40.4043C71.0931-33.6144 65.2236-27.9028 58.1863-27.9028C51.0592-27.9028 45.3694-33.6144 45.3093-40.4043C45.2795-47.3399 51.0592-52.9058 58.1863-52.9058ZM58.2162-44.1926C56.0302-44.1926 54.2634-42.5316 54.2634-40.4043C54.2634-38.3062 56.0302-36.6159 58.2162-36.6159C60.3723-36.6159 62.1392-38.3062 62.1392-40.4043C62.1392-42.5316 60.3723-44.1926 58.2162-44.1926ZM39.6544 0.347656L76.0801 0.347656C77.0567 0.347656 77.7891-0.335938 77.7891-1.26367C77.7891-2.24023 77.0567-2.97266 76.0801-2.97266L39.6544-2.97266C38.7266-2.97266 37.9454-2.24023 37.9454-1.26367C37.9454-0.335938 38.7266 0.347656 39.6544 0.347656Z"/>
  </g>
  <g id="Ultralight-S" transform="matrix(1 0 0 1 502.843 696)">
   <path d="M93.6583-69.3301C98.4434-69.3301 100.931-66.9384 101.028-62.2471L101.031-61.957L101.031-17.4746C101.031-12.6416 98.6397-10.2003 93.9484-10.1045L93.6583-10.1016L20.0743-10.1016C15.2891-10.1016 12.8018-12.4463 12.7042-17.1817L12.7012-17.4746L12.7012-61.957C12.7012-66.7421 15.0929-69.2295 19.7842-69.3271L20.0743-69.3301L93.6583-69.3301ZM56.6871-57.3301C47.5101-57.3301 39.6596-53.1545 34.4524-48.6983L33.8949-48.2112C33.7126-48.0486 33.5339-47.8858 33.3588-47.7231L32.8444-47.2349C32.7605-47.1536 32.6775-47.0724 32.5954-46.9912L32.1143-46.5052C31.7228-46.1012 31.3549-45.7002 31.0116-45.3051L30.6116-44.8339C28.7357-42.572 27.7012-40.5471 27.7012-39.3301C27.7012-38.6587 28.0139-37.7413 28.6079-36.6739L28.8438-36.2668C29.3417-35.4392 29.9957-34.534 30.7925-33.5915L31.2027-33.1174C31.6247-32.6405 32.0818-32.156 32.5725-31.669L33.0742-31.1813C33.1597-31.0999 33.2461-31.0185 33.3334-30.9372L33.8679-30.449C39.0485-25.8149 47.1277-21.3301 56.6871-21.3301C66.2626-21.3301 74.3487-25.8149 79.5323-30.449L80.0671-30.9372C80.2418-31.0999 80.4128-31.2627 80.5802-31.4253L81.0711-31.9123C81.6307-32.4793 82.1442-33.0418 82.6092-33.5915L82.9958-34.0595C84.7436-36.227 85.7012-38.1551 85.7012-39.3301C85.7012-40.4212 84.8658-42.1617 83.3368-44.1401L82.9716-44.6008C82.9088-44.6782 82.8449-44.7559 82.78-44.8339L82.3786-45.3051L82.3786-45.3051L81.9536-45.7819C81.7353-46.0215 81.5082-46.2628 81.2726-46.5052L80.7902-46.9912L80.7902-46.9912L80.2854-47.4789C80.0275-47.723 79.7614-47.9673 79.4873-48.2112L78.9284-48.6983C73.709-53.1545 65.8483-57.3301 56.6871-57.3301ZM56.6871-51.1736C63.3783-51.1736 68.959-45.9007 68.959-39.3301C68.959-32.8976 63.3783-27.4865 56.6871-27.4865C49.9104-27.4865 44.5004-32.8976 44.4433-39.3301C44.415-45.9007 49.9104-51.1736 56.6871-51.1736ZM56.7155-42.919C54.6369-42.919 52.957-41.3454 52.957-39.3301C52.957-37.3424 54.6369-35.7411 56.7155-35.7411C58.7656-35.7411 60.4455-37.3424 60.4455-39.3301C60.4455-41.3454 58.7656-42.919 56.7155-42.919ZM39.0196-0.726562L74.7129-0.726562C75.3965-0.726562 75.8848-1.16602 75.8848-1.80078C75.8848-2.48438 75.3965-2.92383 74.7129-2.92383L39.0196-2.92383C38.3848-2.92383 37.8477-2.48438 37.8477-1.80078C37.8477-1.16602 38.3848-0.726562 39.0196-0.726562Z"/>
  </g>
 </g>
</svg>
