<?xml version="1.0" encoding="UTF-8"?>
<svg width="3300px" height="2200px" viewBox="0 0 3300 2200" version="1.1" xmlns="http://www.w3.org/2000/svg" xmlns:xlink="http://www.w3.org/1999/xlink">
    <title>tv.arrowshape.turn.up.backward.fill</title>
    <g id="App-Symbols" stroke="none" stroke-width="1" fill="none" fill-rule="evenodd">
        <g id="tv.arrowshape.turn.up.backward.fill">
            <g id="Notes">
                <rect id="artboard" fill="#FFFFFF" fill-rule="nonzero" x="0" y="0" width="3300" height="2200"></rect>
                <line x1="263" y1="292" x2="3036" y2="292" id="Path" stroke="#000000" stroke-width="0.5"></line>
                <text id="Weight/Scale-Variations" fill="#000000" fill-rule="nonzero" font-family="Helvetica-Bold, Helvetica" font-size="13" font-weight="bold">
                    <tspan x="263" y="322">Weight/Scale Variations</tspan>
                </text>
                <text id="Ultralight" fill="#000000" fill-rule="nonzero" font-family="Helvetica" font-size="13" font-weight="normal">
                    <tspan x="533.711" y="322">Ultralight</tspan>
                </text>
                <text id="Thin" fill="#000000" fill-rule="nonzero" font-family="Helvetica" font-size="13" font-weight="normal">
                    <tspan x="843.422" y="322">Thin</tspan>
                </text>
                <text id="Light" fill="#000000" fill-rule="nonzero" font-family="Helvetica" font-size="13" font-weight="normal">
                    <tspan x="1138.63" y="322">Light</tspan>
                </text>
                <text id="Regular" fill="#000000" fill-rule="nonzero" font-family="Helvetica" font-size="13" font-weight="normal">
                    <tspan x="1426.84" y="322">Regular</tspan>
                </text>
                <text id="Medium" fill="#000000" fill-rule="nonzero" font-family="Helvetica" font-size="13" font-weight="normal">
                    <tspan x="1723.06" y="322">Medium</tspan>
                </text>
                <text id="Semibold" fill="#000000" fill-rule="nonzero" font-family="Helvetica" font-size="13" font-weight="normal">
                    <tspan x="2015.77" y="322">Semibold</tspan>
                </text>
                <text id="Bold" fill="#000000" fill-rule="nonzero" font-family="Helvetica" font-size="13" font-weight="normal">
                    <tspan x="2326.48" y="322">Bold</tspan>
                </text>
                <text id="Heavy" fill="#000000" fill-rule="nonzero" font-family="Helvetica" font-size="13" font-weight="normal">
                    <tspan x="2618.19" y="322">Heavy</tspan>
                </text>
                <text id="Black" fill="#000000" fill-rule="nonzero" font-family="Helvetica" font-size="13" font-weight="normal">
                    <tspan x="2917.4" y="322">Black</tspan>
                </text>
                <line x1="263" y1="1903" x2="3036" y2="1903" id="Path" stroke="#000000" stroke-width="0.5"></line>
                <g id="Group" transform="translate(264, 1918)" fill="#000000" fill-rule="nonzero">
                    <path d="M8.24805,15.830078 C12.5547,15.830078 16.1387,12.25586 16.1387,7.94922 C16.1387,3.6426 12.5449,0.0684 8.23828,0.0684 C3.94141,0.0684 0.36719,3.6426 0.36719,7.94922 C0.36719,12.25586 3.95117,15.830078 8.24805,15.830078 Z M8.24805,14.345703 C4.70312,14.345703 1.87109,11.50391 1.87109,7.94922 C1.87109,4.3945 4.69336,1.5527 8.23828,1.5527 C11.793,1.5527 14.6348,4.3945 14.6445252,7.94922 C14.6543,11.50391 11.8027,14.345703 8.24805,14.345703 Z M5.39648,8.68164 L7.50586,8.68164 L7.50586,10.80078 C7.50586,11.24023 7.79883,11.54297 8.22852,11.54297 C8.67773,11.54297 8.9707,11.24023 8.9707,10.80078 L8.9707,8.68164 L11.0996,8.68164 C11.5391,8.68164 11.8418,8.38867 11.8418,7.95898 C11.8418,7.51953 11.5391,7.2168 11.0996,7.2168 L8.9707,7.2168 L8.9707,5.10742 C8.9707,4.6582 8.67773,4.3555 8.22852,4.3555 C7.79883,4.3555 7.50586,4.6582 7.50586,5.10742 L7.50586,7.2168 L5.39648,7.2168 C4.94727,7.2168 4.64453,7.51953 4.64453,7.95898 C4.64453,8.38867 4.94727,8.68164 5.39648,8.68164 Z" id="Shape"></path>
                </g>
                <g id="Group" transform="translate(282.506, 1915)" fill="#000000" fill-rule="nonzero">
                    <path d="M10.709,20.91016 C16.1582,20.91016 20.6699,16.38867 20.6699,10.94922 C20.6699,5.5 16.1484,0.9883 10.6992,0.9883 C5.25977,0.9883 0.74805,5.5 0.74805,10.94922 C0.74805,16.38867 5.26953,20.91016 10.709,20.91016 Z M10.709,19.25 C6.09961,19.25 2.41797,15.55859 2.41797,10.94922 C2.41797,6.3398 6.08984,2.6484 10.6992,2.6484 C15.3086,2.6484 19,6.3398 19.009819,10.94922 C19.0195,15.55859 15.3184,19.25 10.709,19.25 Z M6.98828,11.76953 L9.8789,11.76953 L9.8789,14.67969 C9.8789,15.16797 10.2109,15.5 10.6895,15.5 C11.1777,15.5 11.5195,15.16797 11.5195,14.67969 L11.5195,11.76953 L14.4297,11.76953 C14.918,11.76953 15.25,11.4375 15.25,10.95898 C15.25,10.4707 14.918,10.12891 14.4297,10.12891 L11.5195,10.12891 L11.5195,7.2383 C11.5195,6.7305 11.1777,6.3984 10.6895,6.3984 C10.2109,6.3984 9.8789,6.7402 9.8789,7.2383 L9.8789,10.12891 L6.98828,10.12891 C6.48047,10.12891 6.14844,10.4707 6.14844,10.95898 C6.14844,11.4375 6.49023,11.76953 6.98828,11.76953 Z" id="Shape"></path>
                </g>
                <g id="Group" transform="translate(306.924, 1913)" fill="#000000" fill-rule="nonzero">
                    <path d="M12.9707,25.66406 C19.9336,25.66406 25.6953,19.9023438 25.6953,12.94922 C25.6953,5.9863 19.9238,0.2246 12.9609,0.2246 C6.00781,0.2246 0.25586,5.9863 0.25586,12.94922 C0.25586,19.9023438 6.01758,25.66406 12.9707,25.66406 Z M12.9707,23.84766 C6.93555,23.84766 2.08203,18.98438 2.08203,12.94922 C2.08203,6.9043 6.92578,2.0508 12.9609,2.0508 C19.0059,2.0508 23.8594,6.9043 23.8691148,12.94922 C23.8789,18.98438 19.0156,23.84766 12.9707,23.84766 Z M8.0586,13.85742 L12.0625,13.85742 L12.0625,17.87109 C12.0625,18.4082 12.4336,18.7793 12.9512,18.7793 C13.4883,18.7793 13.8594,18.4082 13.8594,17.87109 L13.8594,13.85742 L17.8828,13.85742 C18.4102,13.85742 18.791,13.48633 18.791,12.96875 C18.791,12.43164 18.4199,12.05078 17.8828,12.05078 L13.8594,12.05078 L13.8594,8.0469 C13.8594,7.4902 13.4883,7.1191 12.9512,7.1191 C12.4336,7.1191 12.0625,7.5 12.0625,8.0469 L12.0625,12.05078 L8.0586,12.05078 C7.50195,12.05078 7.13086,12.43164 7.13086,12.96875 C7.13086,13.48633 7.51172,13.85742 8.0586,13.85742 Z" id="Shape"></path>
                </g>
                <text id="Design-Variations" fill="#000000" fill-rule="nonzero" font-family="Helvetica-Bold, Helvetica" font-size="13" font-weight="bold">
                    <tspan x="263" y="1953">Design Variations</tspan>
                </text>
                <text id="Symbols-are-supported-in-up-to-nine-weights-and-three-scales." fill="#000000" fill-rule="nonzero" font-family="Helvetica" font-size="13" font-weight="normal">
                    <tspan x="263" y="1971">Symbols are supported in up to nine weights and three scales.</tspan>
                </text>
                <text id="For-optimal-layout-with-text-and-other-symbols,-vertically-align" fill="#000000" fill-rule="nonzero" font-family="Helvetica" font-size="13" font-weight="normal">
                    <tspan x="263" y="1989">For optimal layout with text and other symbols, vertically align</tspan>
                </text>
                <text id="symbols-with-the-adjacent-text." fill="#000000" fill-rule="nonzero" font-family="Helvetica" font-size="13" font-weight="normal">
                    <tspan x="263" y="2007">symbols with the adjacent text.</tspan>
                </text>
                <line x1="776" y1="1919" x2="776" y2="1933" id="Path" stroke="#00AEEF" stroke-width="0.5"></line>
                <g id="Group" transform="translate(778, 1918)" fill="#000000" fill-rule="nonzero">
                    <path d="M1.31055,15.126953 C1.82812,15.126953 2.08203,14.9316406 2.26758,14.394531 L3.52734,10.9375 L9.2891,10.9375 L10.5488,14.394531 C10.7344,14.9316406 10.9883,15.126953 11.4961,15.126953 C12.0137,15.126953 12.3457,14.814453 12.3457,14.326172 C12.3457,14.160156 12.3164,14.013672 12.2383,13.79883 L7.6582,1.6113 C7.43359,1.0059 7.0332,0.7129 6.4082,0.7129 C5.80273,0.7129 5.39258,1.0059 5.17773,1.6016 L0.59766,13.80859 C0.51953,14.023438 0.49023,14.169922 0.49023,14.335938 C0.49023,14.824219 0.80273,15.126953 1.31055,15.126953 Z M4.00586,9.46289 L6.37891,2.8906 L6.42773,2.8906 L8.8008,9.46289 L4.00586,9.46289 Z" id="Shape"></path>
                </g>
                <line x1="792.836" y1="1919" x2="792.836" y2="1933" id="Path" stroke="#00AEEF" stroke-width="0.5"></line>
                <text id="Margins" fill="#000000" fill-rule="nonzero" font-family="Helvetica-Bold, Helvetica" font-size="13" font-weight="bold">
                    <tspan x="776" y="1953">Margins</tspan>
                </text>
                <text id="Leading-and-trailing-margins-on-the-left-and-right-side-of-each-symbol" fill="#000000" fill-rule="nonzero" font-family="Helvetica" font-size="13" font-weight="normal">
                    <tspan x="776" y="1971">Leading and trailing margins on the left and right side of each symbol</tspan>
                </text>
                <text id="can-be-adjusted-by-modifying-the-x-location-of-the-margin-guidelines." fill="#000000" fill-rule="nonzero" font-family="Helvetica" font-size="13" font-weight="normal">
                    <tspan x="776" y="1989">can be adjusted by modifying the x-location of the margin guidelines.</tspan>
                </text>
                <text id="Modifications-are-automatically-applied-proportionally-to-all" fill="#000000" fill-rule="nonzero" font-family="Helvetica" font-size="13" font-weight="normal">
                    <tspan x="776" y="2007">Modifications are automatically applied proportionally to all</tspan>
                </text>
                <text id="scales-and-weights." fill="#000000" fill-rule="nonzero" font-family="Helvetica" font-size="13" font-weight="normal">
                    <tspan x="776" y="2025">scales and weights.</tspan>
                </text>
                <g id="Group" transform="translate(1291, 1914)" fill="#000000" fill-rule="nonzero">
                    <path d="M0.8418,20.86523 L2.54102,22.57422 C3.40039,23.44336 4.38672,23.38477 5.31445,22.35938 L15.4902,11.14844 C15.7539,11.23633 16.0273,11.2168 16.3398,11.1582 L17.4043,10.96289 L18.0684,11.63672 L18.0293,12.19336 C17.9902,12.69141 18.1172,13.07227 18.6055,13.55078 L19.3672,14.29297 C19.8457,14.77148 20.4609,14.80078 20.9297,14.33203 L23.8398,11.41211 C24.3086,10.94336 24.2891,10.34766 23.8105,9.86914 L23.0391,9.10742 C22.5605,8.6289 22.1895,8.4727 21.7109,8.5117 L21.1348,8.5605 L20.4902,7.9258 L20.7344,6.8027 C20.8613,6.2363 20.7051,5.7969 20.1191,5.2109 L17.9219,3.0234 C14.582,-0.2969 10.1484,-0.2188 7.25781,2.6719 C6.83789,3.082 6.80859,3.6582 7.04297,4.0488 C7.27734,4.4102 7.73633,4.6445 8.3809,4.4785 C9.8457,4.1367 11.3691,4.0781 12.7949,5.0156 L12.209,6.4707 C12.0137,6.9492 11.9844,7.3496 12.1113,7.7109 L1.04688,18.101562 C0.06055,19.0195312 -0.01758,19.996094 0.8418,20.86523 Z M8.752,3.043 C11.1836,1.2656 14.4746,1.5684 16.7012,3.7949 L19.1328,6.207 C19.3672,6.4414 19.4062,6.627 19.3379,6.9688 L19.0156,8.4531 L20.5195,9.9375 L21.5059,9.87891 C21.7598,9.86914 21.8379,9.88867 22.0332,10.08398 L22.6094,10.66016 L20.168,13.10156 L19.5918,12.52539 C19.3965,12.33008 19.3672,12.25195 19.377,11.98828 L19.4453,11.01172 L17.9512,9.52734 L16.4277,9.78125 C16.1055,9.84961 15.959,9.82031 15.7148,9.58594 L13.7129,7.584 C13.459,7.3496 13.4297,7.1836 13.5859,6.8125 L14.4648,4.7227 C12.9023,3.2676 10.8711,2.6426 8.8398,3.2383 C8.6836,3.2773 8.625,3.1504 8.752,3.043 Z M3.27344,21.3047 L2.10156,20.14258 C1.63281,19.683594 1.74023,19.341797 2.14062,18.9804688 L12.9512,8.8047 L14.416,10.28906 L4.42578,21.27539 C4.07422,21.67578 3.74219,21.77344 3.27344,21.3047 Z" id="Shape"></path>
                </g>
                <text id="Exporting" fill="#000000" fill-rule="nonzero" font-family="Helvetica-Bold, Helvetica" font-size="13" font-weight="bold">
                    <tspan x="1289" y="1953">Exporting</tspan>
                </text>
                <text id="Symbols-should-be-outlined-when-exporting-to-ensure-the" fill="#000000" fill-rule="nonzero" font-family="Helvetica" font-size="13" font-weight="normal">
                    <tspan x="1289" y="1971">Symbols should be outlined when exporting to ensure the</tspan>
                </text>
                <text id="design-is-preserved-when-submitting-to-Xcode." fill="#000000" fill-rule="nonzero" font-family="Helvetica" font-size="13" font-weight="normal">
                    <tspan x="1289" y="1989">design is preserved when submitting to Xcode.</tspan>
                </text>
                <text id="template-version" fill="#000000" fill-rule="nonzero" font-family="Helvetica" font-size="13" font-weight="normal">
                    <tspan x="2952" y="1933">Template v.2.0</tspan>
                </text>
                <text id="Requires-Xcode-12-or-greater" fill="#000000" fill-rule="nonzero" font-family="Helvetica" font-size="13" font-weight="normal">
                    <tspan x="2865" y="1951">Requires Xcode 12 or greater</tspan>
                </text>
                <text id="Generated-from-tv.ar" fill="#000000" fill-rule="nonzero" font-family="Helvetica" font-size="13" font-weight="normal">
                    <tspan x="2753" y="1969">Generated from tv.arrowshape.turn.up.forward.fill</tspan>
                </text>
                <text id="Typeset-at-100-points" fill="#000000" fill-rule="nonzero" font-family="Helvetica" font-size="13" font-weight="normal">
                    <tspan x="2912" y="1987">Typeset at 100 points</tspan>
                </text>
                <text id="Small" fill="#000000" fill-rule="nonzero" font-family="Helvetica" font-size="13" font-weight="normal">
                    <tspan x="263" y="726">Small</tspan>
                </text>
                <text id="Medium" fill="#000000" fill-rule="nonzero" font-family="Helvetica" font-size="13" font-weight="normal">
                    <tspan x="263" y="1156">Medium</tspan>
                </text>
                <text id="Large" fill="#000000" fill-rule="nonzero" font-family="Helvetica" font-size="13" font-weight="normal">
                    <tspan x="263" y="1586">Large</tspan>
                </text>
            </g>
            <g id="Guides" transform="translate(263, 625)">
                <g id="H-reference" transform="translate(76, 0)" fill="#27AAE1" fill-rule="nonzero">
                    <path d="M0.976562,71 L3.66211,71 L12.9883,46.5371 L45.752,46.5371 L55.127,71 L57.7637,71 L30.6152,0.541 L28.125,0.541 L0.976562,71 Z M29.3457,3.8613 L29.4434,3.8613 L44.873,44.291 L13.8672,44.291 L29.3457,3.8613 Z" id="Shape"></path>
                </g>
                <line x1="0" y1="71" x2="2773" y2="71" id="Baseline-S" stroke="#27AAE1" stroke-width="0.5"></line>
                <line x1="0" y1="0.541" x2="2773" y2="0.541" id="Capline-S" stroke="#27AAE1" stroke-width="0.5"></line>
                <g id="H-reference" transform="translate(76, 430)" fill="#27AAE1" fill-rule="nonzero">
                    <path d="M0.976562,71 L3.66211,71 L12.9883,46.5371 L45.752,46.5371 L55.127,71 L57.7637,71 L30.6152,0.541 L28.125,0.541 L0.976562,71 Z M29.3457,3.8613 L29.4434,3.8613 L44.873,44.291 L13.8672,44.291 L29.3457,3.8613 Z" id="Shape"></path>
                </g>
                <line x1="0" y1="501" x2="2773" y2="501" id="Baseline-M" stroke="#27AAE1" stroke-width="0.5"></line>
                <line x1="0" y1="430.54" x2="2773" y2="430.54" id="Capline-M" stroke="#27AAE1" stroke-width="0.5"></line>
                <g id="H-reference" transform="translate(76, 860)" fill="#27AAE1" fill-rule="nonzero">
                    <path d="M0.976562,71 L3.66211,71 L12.9883,46.5371 L45.752,46.5371 L55.127,71 L57.7637,71 L30.6152,0.541 L28.125,0.541 L0.976562,71 Z M29.3457,3.8613 L29.4434,3.8613 L44.873,44.291 L13.8672,44.291 L29.3457,3.8613 Z" id="Shape"></path>
                </g>
                <line x1="0" y1="931" x2="2773" y2="931" id="Baseline-L" stroke="#27AAE1" stroke-width="0.5"></line>
                <line x1="0" y1="860.54" x2="2773" y2="860.54" id="Capline-L" stroke="#27AAE1" stroke-width="0.5"></line>
                <line x1="1113.43" y1="405.79" x2="1113.43" y2="525.12" id="left-margin" stroke="#00AEEF" stroke-width="0.5"></line>
                <line x1="1260.26" y1="405.79" x2="1260.26" y2="525.12" id="right-margin" stroke="#00AEEF" stroke-width="0.5"></line>
            </g>
            <g id="Symbols" transform="translate(487.9335, 616.6055)" fill="#000000" fill-rule="nonzero">
                <g id="Black-L" transform="translate(2360.3165, 833.3945)">
                    <path d="M148.6,0.189 C162.27982,0.189 170.073159,7.75076553 170.227658,21.4046817 L170.23,21.8203 L170.23,95.7461 C170.23,109.474608 162.573459,117.221115 149.012736,117.374673 L148.6,117.377 L21.6953,117.377 C8.015183,117.377 0.22135058,109.767778 0.0668419433,96.1602827 L0.0645,95.7461 L0.0645,21.8203 C0.0645,8.04346 7.72153125,0.34392607 21.2825545,0.191313075 L21.6953,0.189 L148.6,0.189 Z M84.0696509,27.189 C81.8774029,27.189 80.2331658,28.0130555 77.8415807,30.1854446 L52.05736,54.0070617 C50.76195,55.2555717 50.0645,57.0284622 50.0645,58.7014779 C50.0645,60.2496632 50.78695,62.17234 52.1073601,63.4208501 L77.8415807,87.2674742 C80.0338798,89.3150327 81.8026579,90.189 84.0945999,90.189 C87.607207,90.189 90.3226701,87.4922305 90.3226701,83.9714056 L90.3226701,74.8073089 L91.1097454,74.8107606 C100.301897,74.9486081 105.201857,79.2020772 108.583411,85.1949597 C110.277444,88.4660213 112.295355,89.5897008 114.960971,89.5897008 C118.872201,89.5897008 121.0645,85.6693772 121.0645,77.6788923 C121.0645,55.7549962 110.352189,42.8203829 90.6465481,42.8203829 L90.3226701,42.8203829 L90.3226701,33.5064691 C90.3226701,29.9607394 87.607207,27.189 84.0696509,27.189 Z M50.9922,142.084 L119.352,142.084 C123.795,142.084 127.359,138.3242 127.359,134.125 C127.359,129.9258 123.795,126.166 119.352,126.166 L50.9922,126.166 C46.5,126.166 42.9844,129.9258 42.9844,134.125 C42.9844,138.3242 46.5,142.084 50.9922,142.084 Z" id="Shape"></path>
                </g>
                <g id="Heavy-L" transform="translate(2065.4365, 835.3945)">
                    <path d="M146.451,0.289 C159.256208,0.289 166.417854,7.22236616 166.565665,20.0481188 L166.568,20.4551 L166.568,94.03906 C166.568,106.940367 159.539742,114.008053 146.853497,114.153897 L146.451,114.1562 L20.1816,114.1562 C7.37698542,114.1562 0.214660601,107.222902 0.0668348904,94.4445293 L0.0645,94.03906 L0.0645,20.4551 C0.0645,7.5054125 7.09344341,0.437153765 19.7791209,0.291303506 L20.1816,0.289 L146.451,0.289 Z M81.5754781,25.289 C79.4831101,25.289 77.9332099,26.0893371 75.6858889,28.1547111 L49.0795766,52.7323079 C47.7104461,54.0231997 47.0645,55.7270817 47.0645,57.301901 C47.0645,58.7734595 47.7363686,60.5806552 49.1049701,61.8456921 L75.6858889,86.5266025 C77.7523873,88.4370061 79.4314239,89.289 81.6012948,89.289 C84.8819179,89.289 87.3617477,86.8105829 87.3617477,83.5318287 L87.3617477,73.2050907 L87.8783458,73.2050907 C98.5984583,73.2050907 104.56555,77.439052 108.569464,84.7968657 C110.145181,87.8432435 112.056726,88.8243001 114.48487,88.8243001 C117.972132,88.8243001 120.0645,85.3648263 120.0645,78.4717231 C120.0645,55.210725 108.956926,41.5794573 87.8783458,41.5794573 L87.3617477,41.5794573 L87.3617477,31.1494321 C87.3617477,27.8707308 84.8819179,25.289 81.5754781,25.289 Z M49.8691,137.7402 L116.764,137.7402 C120.768,137.7402 123.941,134.4199 123.941,130.6602 C123.941,126.8516 120.768,123.5312 116.764,123.5312 L49.8691,123.5312 C45.9141,123.5312 42.7402,126.8516 42.7402,130.6602 C42.7402,134.4199 45.9141,137.7402 49.8691,137.7402 Z" id="Shape"></path>
                </g>
                <g id="Bold-L" transform="translate(1770.7765, 837.3945)">
                    <path d="M144.01,0.682 C155.889011,0.682 162.324658,6.89056539 162.464666,18.7415773 L162.467,19.1387 L162.467,92.33203 C162.467,104.30834 156.161892,110.648855 144.40395,110.786761 L144.01,110.78906 L18.5215,110.78906 C6.69006044,110.78906 0.207887876,104.580152 0.0668512901,92.7291522 L0.0645,92.33203 L0.0645,19.1387 C0.0645,7.16237033 6.41665674,0.822196921 18.1291013,0.684298692 L18.5215,0.682 L144.01,0.682 Z M78.9643286,23.682 C77.0343882,23.682 75.6137224,24.4580311 73.5229353,26.3579919 L46.0479096,51.8334584 C44.6271888,53.1714544 44.0645,54.7235713 44.0645,56.1686003 C44.0645,57.5601402 44.6540881,59.1924908 46.0479096,60.5304868 L73.5229353,86.1130412 C75.4260862,87.8791696 77.0075438,88.682 79.0179075,88.682 C81.9932963,88.682 84.1912962,86.4608851 84.1912962,83.4905385 L84.1912962,71.79643 L85.4580125,71.798955 C97.0858062,71.9134373 103.995932,75.9238059 108.619486,84.4184346 L108.97081,85.0709489 C110.390806,87.6106967 112.113073,88.3608459 114.18596,88.3608459 C117.134505,88.3608459 119.0645,85.4975324 119.0645,79.9047051 C119.0645,55.1249591 107.538382,40.7281032 84.9418408,40.7281032 L84.1912962,40.7281032 L84.1912962,28.9804398 C84.1912962,26.0100932 81.9932963,23.682 78.9643286,23.682 Z M48.6484,133.1523 L113.932,133.1523 C117.35,133.1523 120.084,130.2715 120.084,127 C120.084,123.6797 117.35,120.7988 113.932,120.7988 L48.6484,120.7988 C45.1816,120.7988 42.4473,123.6797 42.4473,127 C42.4473,130.2715 45.1816,133.1523 48.6484,133.1523 Z" id="Shape"></path>
                </g>
                <g id="Semibold-L" transform="translate(1475.4865, 839.3945)">
                    <path d="M142.35,0.3418 C153.549273,0.3418 159.49892,6.0209935 159.632693,17.2380116 L159.635,17.627 L159.635,90.52734 C159.635,101.871557 153.812617,107.727437 142.7341,107.85906 L142.35,107.86133 L17.3496,107.86133 C6.15022841,107.86133 0.200579946,102.134361 0.0668068624,90.9163442 L0.0645,90.52734 L0.0645,17.627 C0.0645,6.28269432 5.88688288,0.474588249 16.9654964,0.344050754 L17.3496,0.3418 L142.35,0.3418 Z M76.5969262,21.3418 C74.7893637,21.3418 73.4943722,22.0745989 71.578903,23.8657988 L43.9800797,49.6758402 C42.5501633,51.03283 42.0645,52.4983723 42.0645,53.8282379 C42.0645,55.1309236 42.5772366,56.65077 44.0071531,57.9806355 L71.578903,83.9263537 C73.3055216,85.5547526 74.7893637,86.3418 76.6508519,86.3418 C79.3217236,86.3418 81.2911738,84.3063153 81.2911738,81.6465842 L81.2911738,69.0808387 L82.6878006,69.0829152 C95.2797045,69.1868468 102.860407,73.2003846 107.918836,82.9493255 C109.240791,85.4733243 110.859503,86.124695 112.748009,86.124695 C115.256993,86.124695 117.0645,83.7363729 117.0645,79.1497096 C117.0645,53.5297046 105.436815,38.7384936 82.1814459,38.7384936 L81.2911738,38.7384936 L81.2911738,26.1726926 C81.2911738,23.4858372 79.3217236,21.3418 76.5969262,21.3418 Z M47.7695,129.3457 L111.93,129.3457 C115.006,129.3457 117.447,126.8066 117.447,123.8281 C117.447,120.8496 115.006,118.3105 111.93,118.3105 L47.7695,118.3105 C44.7422,118.3105 42.252,120.8496 42.252,123.8281 C42.252,126.8066 44.7422,129.3457 47.7695,129.3457 Z" id="Shape"></path>
                </g>
                <g id="Medium-L" transform="translate(1179.8465, 840.3945)">
                    <path d="M141.08,0.5625 C151.792471,0.5625 157.354305,5.8556231 157.483689,16.5833558 L157.486,16.9688 L157.486,89.72266 C157.486,100.579729 152.050194,106.000612 141.460398,106.126659 L141.08,106.12891 L16.4707,106.12891 C5.80665294,106.12891 0.197338727,100.835758 0.0668308554,90.1081014 L0.0645,89.72266 L0.0645,16.9688 C0.0645,6.11165176 5.54835484,0.690797509 16.091991,0.564750716 L16.4707,0.5625 L141.08,0.5625 Z M75.7799413,20.5625 C74.0483405,20.5625 72.8114345,21.3032857 70.9973095,22.9769793 L42.9885635,49.0428819 C41.5047041,50.4421875 41.0645,51.8140712 41.0645,53.076211 C41.0645,54.2834506 41.5317243,55.7102344 42.9885635,57.0821181 L70.9973095,83.3126085 C72.6740255,84.8491362 74.075811,85.5625 75.8074681,85.5625 C78.3361649,85.5625 80.1228193,83.7241624 80.1228193,81.254783 L80.1228193,68.0297769 L81.6382057,68.0315204 C95.0313776,68.1258091 103.250925,72.0557673 108.681145,82.5717666 C109.890524,84.9039801 111.457245,85.452756 113.161432,85.452756 C115.360313,85.452756 117.0645,83.4223524 117.0645,79.6085113 C117.0645,53.3780209 105.217887,38.2598221 81.1397921,38.2598221 L80.1228193,38.2598221 L80.1228193,25.0348611 C80.1228193,22.5654255 78.3361649,20.5625 75.7799413,20.5625 Z M47.1348,126.9297 L110.416,126.9297 C113.199,126.9297 115.445,124.6836 115.445,121.998 C115.445,119.2148 113.199,116.9688 110.416,116.9688 L47.1348,116.9688 C44.3516,116.9688 42.1055,119.2148 42.1055,121.998 C42.1055,124.6836 44.3516,126.9297 47.1348,126.9297 Z" id="Shape"></path>
                </g>
                <g id="Regular-L" transform="translate(884.591, 842.6172)">
                    <path d="M139.3555,0 C149.386117,0 154.511141,4.76298125 154.636156,14.8534106 L154.6385,15.2343 L154.6385,87.69527 C154.6385,97.919033 149.637311,102.855875 139.729348,102.976214 L139.3555,102.97847 L15.2832,102.97847 C5.25228642,102.97847 0.127356683,98.1678472 0.00234407808,88.0761838 L0,87.69527 L0,15.2343 C0,5.0105963 5.0010913,0.121396479 14.9093406,0.00223374994 L15.2832,0 L139.3555,0 Z M73.2248539,18 C71.6069507,18 70.4715352,18.7349433 68.7968961,20.2895196 L39.9299506,47.1135013 C38.4255192,48.5550228 38,49.826991 38,51.0141536 C38,52.1447598 38.4255192,53.4449772 39.9299506,54.8582495 L68.7968961,81.8800916 C70.3296373,83.3216131 71.6636866,84 73.2815897,84 C75.5523627,84 77.1418979,82.3606181 77.1418979,80.1276548 L77.1418979,65.7970139 L78.3339912,65.7970139 L79.3394069,65.8029763 L80.3275767,65.8210613 C94.0420353,66.1604946 102.736745,70.1511906 108.534928,81.4561215 C109.641917,83.6042791 111.117864,84 112.565502,84 C114.382097,84 116,82.4454237 116,79.6471284 C116,52.1165106 103.737954,36.3443481 78.3339912,36.3443481 L77.1418979,36.3443481 L77.1418979,22.0702635 C77.1418979,19.8373003 75.5523627,18 73.2248539,18 Z M46.2402,122.9492 L108.3985,122.9492 C110.8395,122.9492 112.7925,120.9961 112.7925,118.6035 C112.7925,116.1621 110.8395,114.2578 108.3985,114.2578 L46.2402,114.2578 C43.7988,114.2578 41.8457,116.1621 41.8457,118.6035 C41.8457,120.9961 43.7988,122.9492 46.2402,122.9492 Z" id="Shape"></path>
                </g>
                <g id="Light-L" transform="translate(589.6765, 844.3945)">
                    <path d="M136.979,0.2246 C146.180653,0.2246 150.866189,4.69291865 150.9895,13.8639255 L150.992,14.2383 L150.992,87.04102 C150.992,96.3391891 146.429153,100.883898 137.349566,101.003437 L136.979,101.00586 L14.0781,101.00586 C4.876348,101.00586 0.19032464,96.5851266 0.0669998841,87.4153695 L0.0645,87.04102 L0.0645,14.2383 C0.0645,4.94015067 4.62783333,0.347856693 13.70753,0.227048525 L14.0781,0.2246 L136.979,0.2246 Z M71.392015,19.2246 C70.0490445,19.2246 69.0623883,19.8567729 67.8016485,21.0387055 L39.9830293,47.0138632 C38.3934228,48.5256177 38.0645,49.6526081 38.0645,50.7246 C38.0645,51.7691208 38.4209266,52.8960549 39.9830293,54.4078657 L67.8016485,80.4929641 C68.9801576,81.5924271 70.0764921,82.2246 71.4468542,82.2246 C73.3379359,82.2246 74.5712842,80.795315 74.5712842,78.9536822 L74.5712842,64.4955554 L75.9142547,64.4955554 L76.9477027,64.5018556 C77.2891017,64.5060688 77.6274256,64.5124081 77.9626993,64.5209126 L78.9593952,64.5529605 L79.4509274,64.5739293 L80.4204544,64.6259029 C93.0675614,65.3990872 101.053597,69.7027585 105.925262,79.9432045 C106.829688,81.7573099 107.953358,82.2246 109.241545,82.2246 C110.748921,82.2246 112.0645,80.9052557 112.0645,78.6513312 C112.0645,51.1643627 99.2104658,37.1460549 75.9142547,37.1460549 L74.5712842,37.1460549 L74.5712842,22.6054585 C74.5712842,20.7363546 73.3379359,19.2246 71.392015,19.2246 Z M45.1328,119.1699 L105.973,119.1699 C107.828,119.1699 109.293,117.7051 109.293,115.8496 C109.293,113.9453 107.828,112.4805 105.973,112.4805 L45.1328,112.4805 C43.2773,112.4805 41.7637,113.9453 41.7637,115.8496 C41.7637,117.7051 43.2773,119.1699 45.1328,119.1699 Z" id="Shape"></path>
                </g>
                <g id="Thin-L" transform="translate(295.4015, 846.3945)">
                    <path d="M133.756,0.9102 C141.959,0.9102 146.109,5.0117 146.109,13.2148 L146.109,86.45703 C146.109,94.66016 141.959,98.81055 133.756,98.81055 L12.418,98.81055 C4.2148,98.81055 0.0645,94.66016 0.0645,86.45703 L0.0645,13.2148 C0.0645,5.0117 4.2148,0.9102 12.418,0.9102 L133.756,0.9102 Z M69.931064,19.9102 C68.8814035,19.9102 68.047099,20.4739633 67.2665921,21.1988176 L40.0830143,46.4068568 C38.3775406,47.9789285 38.0863136,48.8830251 38.0657442,49.807878 L38.0645,49.9236426 C38.0645,50.8632481 38.3334883,51.8028537 40.0830143,53.4404284 L67.2665921,78.6484675 C68.047099,79.3732668 68.9083575,79.9102 69.958018,79.9102 C71.4652341,79.9102 72.2726398,78.7826733 72.2726398,77.3598499 L72.2726398,62.5947925 L73.8067548,62.5947925 C90.0361168,62.5947925 99.6445094,66.9437643 104.408357,77.9504984 C105.05426,79.400152 105.780969,79.9102 106.884483,79.9102 C108.095591,79.9102 109.0645,78.9169341 109.0645,77.3061896 C109.0645,49.5209702 95.1229161,37.5746745 73.8067548,37.5746745 L72.2726398,37.5746745 L72.2726398,22.4874352 C72.2726398,21.0646118 71.4652341,19.9102 69.931064,19.9102 Z M43.5703,114.4844 L102.604,114.4844 C103.775,114.4844 104.654,113.6543 104.654,112.5312 C104.654,111.3594 103.775,110.5293 102.604,110.5293 L43.5703,110.5293 C42.4473,110.5293 41.5195,111.3594 41.5195,112.5312 C41.5195,113.6543 42.4473,114.4844 43.5703,114.4844 Z" id="Shape"></path>
                </g>
                <g id="Ultralight-L" transform="translate(0, 848.6718)">
                    <path d="M132.0805,0 C139.53025,0 143.431543,3.78518181 143.55164,11.1226144 L143.5545,11.4747 L143.5545,84.91215 C143.5545,92.3640737 139.76776,96.31304 132.427191,96.4327829 L132.0805,96.43559 L11.4746,96.43559 C4.02263692,96.43559 0.121057562,92.6012687 0.00277274465,85.258892 L0,84.91215 L0,11.4747 C0,4.02455625 3.78508491,0.122965942 11.1225145,0.00286012802 L11.4746,0 L132.0805,0 Z M68.3727843,19 C67.4595361,19 66.707417,19.5081409 66.1433276,20.0162819 L39.0670391,45.0230934 C37.3956632,46.5684096 37.0617358,47.3951738 37.008164,48.1984956 L37,48.3992399 L37,48.604619 C37.0200731,49.4743916 37.3108983,50.3042604 39.0670391,51.950122 L66.2768277,77.0796833 C66.824081,77.5670278 67.529786,78 68.3727843,78 C69.6889928,78 70.3068285,77.010448 70.3068285,75.780163 L70.3068285,60.7225507 L71.9453502,60.7225507 C73.4212387,60.7225507 74.8435669,60.7576901 76.2133751,60.8291866 L77.2309,60.8896448 C90.8349834,61.7983737 99.0816032,66.4654601 103.050526,76.1545999 C103.58777,77.4383446 104.098113,78 105.118854,78 C106.220187,78 106.999152,77.144152 106.999152,75.8336227 C106.999152,47.6708818 92.386685,36.6518315 71.9453502,36.6518315 L70.3068285,36.6518315 L70.3068285,21.1931072 C70.3068285,19.9628222 69.6889928,19 68.3727843,19 Z M42.7246,110.8399 L100.8305,110.8399 C101.6115,110.8399 102.1975,110.3516 102.1975,109.5704 C102.1975,108.7891 101.6115,108.3008 100.8305,108.3008 L42.7246,108.3008 C41.9433,108.3008 41.3574,108.7891 41.3574,109.5704 C41.3574,110.3516 41.9433,110.8399 42.7246,110.8399 Z" id="Shape"></path>
                </g>
                <g id="Black-M" transform="translate(2377.5865, 417.3945)">
                    <path d="M117.199,0.252 C128.449589,0.252 135.163694,6.8412941 135.311507,17.9896876 L135.314,18.3672 L135.314,76.3262 C135.314,87.5767098 128.724901,94.2910976 117.576512,94.4389172 L117.199,94.44141 L18.5664,94.44141 C7.31591,94.44141 0.601512667,87.8520279 0.453692786,76.7037098 L0.4512,76.3262 L0.4512,18.3672 C0.4512,7.11661111 7.04059189,0.402310469 18.1888909,0.25449275 L18.5664,0.252 L117.199,0.252 Z M66.9114136,24.252 C65.1749373,24.252 63.8138893,24.8654389 61.9601037,26.5642707 L43.0467225,43.9533178 C42.0375065,44.9206619 41.4512,46.3835409 41.4512,47.752 C41.4512,49.0260877 42.0610548,50.6069189 43.0702709,51.5743113 L62.2146927,69.1737302 C63.8127464,70.6132011 65.1502716,71.252 66.9114136,71.252 C69.7976753,71.252 72.0503897,69.010549 72.0503897,66.084849 L72.0503897,60.1862489 L72.5161589,60.1905199 C77.0538437,60.2954676 79.7779051,62.3195956 81.5726674,64.6088462 L81.8557038,64.9821388 L82.1232867,65.3585118 L82.2515449,65.5473636 L82.4975186,65.9254184 L82.6154436,66.1142294 L82.8416938,66.4904392 L83.0558424,66.8634598 C84.4168423,69.5532213 85.9656044,70.6385611 88.2887236,70.6385611 C91.0482855,70.6385611 92.6965332,68.358402 93.2454499,63.7255991 L93.3134892,63.0792639 C93.4053306,62.087867 93.4512,60.9979003 93.4512,59.8087436 C93.4512,44.2753827 85.3556204,35.7488425 72.5342172,35.5798651 L72.0503897,35.5773041 L72.0503897,29.4191896 C72.0503897,26.5170608 69.7976753,24.252 66.9114136,24.252 Z M40.7832,114.1191 L94.982,114.1191 C98.791,114.1191 101.818,110.8477 101.818,107.332 C101.818,103.8164 98.791,100.54492 94.982,100.54492 L40.7832,100.54492 C36.9746,100.54492 33.9473,103.8164 33.9473,107.332 C33.9473,110.8477 36.9746,114.1191 40.7832,114.1191 Z" id="Shape"></path>
                </g>
                <g id="Heavy-M" transform="translate(2082.8377, 419.4531)">
                    <path d="M114.9898,0 C125.559451,0 131.692116,5.96238338 131.833307,16.4257386 L131.8358,16.7969 L131.8358,74.2676 C131.8358,84.8848512 125.826038,90.9707105 115.361002,91.1108066 L114.9898,91.11328 L16.7968,91.11328 C6.2278407,91.11328 0.142562439,85.1508771 0.0024733503,74.6404427 L0,74.2676 L0,16.7969 C0,6.22784186 5.96238338,0.142562453 16.425642,0.00247335046 L16.7968,0 L114.9898,0 Z M64.9454573,22 C63.3024459,22 62.0272211,22.5895722 60.2370047,24.2354339 L40.5694842,42.3644139 C39.5147908,43.3470006 39,44.7226523 39,46 C39,47.2036952 39.5394003,48.6776005 40.5940937,49.6601873 L60.4811678,68.0146834 C62.0135942,69.4013943 63.2925945,70 64.9700166,70 C67.6675707,70 69.7520466,67.9365426 69.7520466,65.2098304 L69.7520466,58.3070615 L69.9972377,58.3070615 C76.5840193,58.3070615 80.2630755,61.1185519 82.6835293,64.8878024 L82.9737332,65.3540041 C83.115802,65.5893722 83.2534054,65.8280469 83.3869218,66.0696026 C84.6621466,68.5997975 86.1825624,69.5086815 88.2670383,69.5086815 C91.3324293,69.5086815 93,66.4135105 93,60.1248747 C93,43.5147794 84.731886,34.0793782 70.4323993,33.8923312 L69.7520466,33.8894961 L69.7520466,26.8147808 C69.7520466,24.0880283 67.6675707,22 64.9454573,22 Z M39.4043,110.0098 L92.3828,110.0098 C95.8498,110.0098 98.5348,107.1289 98.5348,103.9062 C98.5348,100.7324 95.8498,97.80273 92.3828,97.80273 L39.4043,97.80273 C35.9863,97.80273 33.2519,100.7324 33.2519,103.9062 C33.2519,107.1289 35.9863,110.0098 39.4043,110.0098 Z" id="Shape"></path>
                </g>
                <g id="Bold-M" transform="translate(1787.8377, 421.455)">
                    <path d="M113.0858,0 C122.825512,0 128.280388,5.23766173 128.415239,14.9607155 L128.4178,15.3321 L128.4178,72.3145 C128.4178,82.1509283 123.08467,87.5115366 113.453601,87.6440148 L113.0858,87.646531 L15.332,87.646531 C5.59199125,87.646531 0.137404156,82.408878 0.00256135527,72.6858822 L0,72.3145 L0,15.3321 C0,5.4956125 5.33283698,0.134994672 14.9641883,0.00251617734 L15.332,0 L113.0858,0 Z M62.8572573,19 C61.266688,19 60.0672327,19.6011785 58.3463099,21.1955246 L37.5385026,40.4845699 C36.4694008,41.5039129 36,42.8107575 36,44.013061 C36,45.1369452 36.4955677,46.522209 37.5646694,47.5154301 L58.3463099,66.8829107 C59.9368792,68.3465777 61.214568,69 62.8833707,69 C65.3865748,69 67.2639645,67.1181417 67.2639645,64.6089936 L67.2639645,56.3497188 L67.7072519,56.3497188 C76.2337926,56.3497188 81.0315604,59.6168356 84.2909858,65.6021987 C85.4904411,67.9283917 86.9506034,68.6602011 88.8019331,68.6602011 C91.4094307,68.6602011 93,66.072666 93,60.8975475 C93,42.5493779 84.3170458,31.8071197 67.7072519,31.8071197 L67.2639645,31.8071197 L67.2639645,23.4694149 C67.2639645,20.9602669 65.3865748,19 62.8572573,19 Z M38.4277,105.7618 L89.9898,105.7618 C93.0178,105.7618 95.4098,103.2227 95.4098,100.3907 C95.4098,97.50981 93.0178,95.01958 89.9898,95.01958 L38.4277,95.01958 C35.4004,95.01958 33.0078,97.50981 33.0078,100.3907 C33.0078,103.2227 35.4004,105.7618 38.4277,105.7618 Z" id="Shape"></path>
                </g>
                <g id="Semibold-M" transform="translate(1492.2977, 422.8711)">
                    <path d="M111.7188,0 C120.920453,0 125.938929,4.75346005 126.07112,13.9320707 L126.0738,14.3066 L126.0738,70.8984 C126.0738,80.2464197 121.176271,85.1245804 112.084698,85.2513346 L111.7188,85.25387 L14.3066,85.25387 C5.10474933,85.25387 0.133583253,80.5004002 0.0026547091,71.2748578 L0,70.8984 L0,14.3066 C0,5.00845067 4.84847474,0.131015289 13.9358713,0.00260334981 L14.3066,0 L111.7188,0 Z M61.3976607,17 C59.9287648,17 58.8516,17.5615854 57.3288053,18.939965 L35.5188732,39.1315653 C34.4338844,40.1596995 34,41.37717 34,42.4864799 C34,43.5686944 34.4611063,44.8403005 35.5460951,45.8684347 L57.0845387,65.9437759 C58.603634,67.3506713 59.8514545,68 61.4247715,68 C63.7576918,68 65.4937849,66.2413891 65.4937849,63.9416543 L65.4937849,54.7426929 L66.5259456,54.7452056 C75.5584666,54.8440926 81.0215593,57.8665639 84.8035626,64.6686716 L85.1255077,65.2578582 C86.2437728,67.2296453 87.6350021,67.7565281 89.2022616,67.7565281 C91.4537938,67.7565281 93,65.5920493 93,61.3443063 C93,41.9724405 84.1567583,30.365523 66.0634457,30.365523 L65.4937849,30.365523 L65.4937849,21.1395215 C65.4937849,18.8397812 63.7576918,17 61.3976607,17 Z M37.6953,102.7832 L88.3298,102.7832 C91.0648,102.7832 93.2128,100.5371 93.2128,97.9492 C93.2128,95.31246 91.0648,93.06637 88.3298,93.06637 L37.6953,93.06637 C35.0097,93.06637 32.8613,95.31246 32.8613,97.9492 C32.8613,100.5371 35.0097,102.7832 37.6953,102.7832 Z" id="Shape"></path>
                </g>
                <g id="Medium-M" transform="translate(1196.0365, 423.3945)">
                    <path d="M111.193,0.5508 C119.956569,0.5508 124.589319,4.91908322 124.716316,13.7024444 L124.719,14.0762 L124.719,70.4238 C124.719,79.3315685 120.207966,83.823561 111.560832,83.9466202 L111.193,83.94922 L13.9766,83.94922 C5.21322778,83.94922 0.580869483,79.5809465 0.453883329,70.7975568 L0.4512,70.4238 L0.4512,14.0762 C0.4512,5.16846111 4.96184479,0.676459298 13.6087762,0.553399784 L13.9766,0.5508 L111.193,0.5508 Z M60.5417332,16.5508 C59.0987798,16.5508 58.0641558,17.1533671 56.4850368,18.6324109 L34.9215873,38.8461772 C33.8599197,39.8595804 33.4512,41.0099665 33.4512,42.0508 C33.4512,43.0642033 33.8599197,44.2419635 34.9215873,45.2554228 L56.4850368,65.6061046 C57.9279902,66.9756014 59.0987798,67.5508 60.5962106,67.5508 C62.7198803,67.5508 64.2717884,65.9895666 64.2717884,63.8531513 L64.2717884,54.047563 L65.4154542,54.0497177 C74.926035,54.1389461 80.8386027,57.0099183 85.0345138,64.6049393 L85.2362099,64.9761352 C86.2980447,66.9756014 87.6320991,67.4412474 89.0751083,67.4412474 C90.98098,67.4412474 92.4512,65.6334955 92.4512,62.1549789 C92.4512,42.2699051 83.7387233,30.1362154 64.9524489,30.1362154 L64.2717884,30.1362154 L64.2717884,20.3853641 C64.2717884,18.249005 62.7198803,16.5508 60.5417332,16.5508 Z M37.6094,101.0391 L87.5605,101.0391 C90.002,101.0391 92.004,99.0371 92.004,96.5957 C92.004,94.1543 90.002,92.10352 87.5605,92.10352 L37.6094,92.10352 C35.168,92.10352 33.166,94.1543 33.166,96.5957 C33.166,99.0371 35.168,101.0391 37.6094,101.0391 Z" id="Shape"></path>
                </g>
                <g id="Regular-M" transform="translate(900.4965, 424.3945)">
                    <path d="M109.9938,0.918 C118.222786,0.918 122.372628,4.80668591 122.491185,13.0981423 L122.4938,13.4668 L122.4938,69.4238 C122.4938,77.8449101 118.463218,81.8556508 110.354197,81.9701354 L109.9938,81.97266 L13.1188,81.97266 C4.8902087,81.97266 0.692587692,78.0839644 0.57264585,69.7924598 L0.57,69.4238 L0.57,13.4668 C0.57,5.04573913 4.64836606,1.03500886 12.7583893,0.920524571 L13.1188,0.918 L109.9938,0.918 Z M58.1558994,15.918 C56.8424936,15.918 55.9354052,16.4523983 54.5685489,17.7140464 L32.0133899,38.8558683 C30.909553,39.9049178 30.57,40.9539673 30.57,41.918 C30.57,42.8536492 30.9379457,43.9310938 32.0133899,44.9518063 L54.3363339,66.0750385 C55.6944299,67.3509349 56.826138,67.918 58.2125109,67.918 C60.1364321,67.918 61.5510817,66.5003373 61.5510817,64.6006612 L61.5510817,53.7696636 L62.8383787,53.7713756 C73.5186383,53.8503787 80.3231315,56.6807656 85.1757999,65.8198546 C86.1660663,67.6344675 87.4675509,67.918 88.6558125,67.918 C90.1836851,67.918 91.57,66.5570403 91.57,64.1186593 C91.57,43.1655304 82.7142725,30.094685 62.3715715,30.094685 L61.5510817,30.094685 L61.5510817,19.3770877 C61.5510817,17.4774057 60.1364321,15.918 58.1558994,15.918 Z M36.9258,98.4766 L85.9004,98.4766 C88.098,98.4766 89.855,96.7188 89.855,94.57031 C89.855,92.37305 88.098,90.56641 85.9004,90.56641 L36.9258,90.56641 C34.7773,90.56641 32.9707,92.37305 32.9707,94.57031 C32.9707,96.7188 34.7773,98.4766 36.9258,98.4766 Z" id="Shape"></path>
                </g>
                <g id="Light-M" transform="translate(605.4265, 426.3945)">
                    <path d="M107.678,0.7246 C115.129569,0.7246 118.984414,4.32219678 119.101261,11.7971697 L119.104,12.1504 L119.104,68.4004 C119.104,75.9965403 115.363795,79.7110396 108.024657,79.8235339 L107.678,79.82617 L11.877,79.82617 C4.37698769,79.82617 0.569289136,76.2285344 0.453904331,68.7536271 L0.4512,68.4004 L0.4512,12.1504 C0.4512,4.55419077 4.14351375,0.839729231 11.5281413,0.727236026 L11.877,0.7246 L107.678,0.7246 Z M57.0765201,15.7246 C55.9043221,15.7246 55.0670706,16.2535904 53.8948726,17.3393378 L31.9304511,37.7736026 C30.7301314,38.9150542 30.4512,39.833746 30.4512,40.7246143 C30.4512,41.5876589 30.7581389,42.5341743 31.9304511,43.6477453 L53.8948726,64.1934185 C54.983334,65.1956495 55.9322724,65.7246 57.1044132,65.7246 C58.7510804,65.7246 59.8395417,64.5274955 59.8395417,62.9127975 L59.8395417,51.8047913 L61.3054727,51.8066053 C72.6560167,51.8914531 79.6904425,54.9659811 84.1205802,63.8315065 C84.9019883,65.390523 85.9346634,65.7246 86.9952316,65.7246 C88.2790592,65.7246 89.4512,64.5831769 89.4512,62.6065612 C89.4512,41.3648991 79.7667349,29.7557887 60.8163733,29.7557887 L59.8395417,29.7557887 L59.8395417,18.6477881 C59.8395417,17.0331072 58.7510804,15.7246 57.0765201,15.7246 Z M35.9004,94.6699 L83.6543,94.6699 C85.3145,94.6699 86.6816,93.3516 86.6816,91.69141 C86.6816,89.98242 85.3145,88.61523 83.6543,88.61523 L35.9004,88.61523 C34.1914,88.61523 32.8242,89.98242 32.8242,91.69141 C32.8242,93.3516 34.1914,94.6699 35.9004,94.6699 Z" id="Shape"></path>
                </g>
                <g id="Thin-M" transform="translate(311.3597, 429.5117)">
                    <path d="M104.2968,0 C110.777071,0 114.142671,3.20870129 114.254897,9.57974341 L114.2578,9.9121 L114.2578,66.5527 C114.2578,73.0807966 111.002036,76.4001533 104.629208,76.5107985 L104.2968,76.51366 L9.9121,76.51366 C3.43202542,76.51366 0.113492359,73.304949 0.00286126771,66.8874986 L0,66.5527 L0,9.9121 C0,3.43202542 3.20870129,0.113492359 9.57974341,0.00286126771 L9.9121,0 L104.2968,0 Z M54.6937893,15 C53.9043724,15 53.2743585,15.3673834 52.6355985,15.9538163 L31.3399958,35.9249731 C30.2863581,36.9489021 30.0438717,37.6334108 30.0059108,38.2839812 L30,38.5 C30,39.2545888 30.2134583,40.0091831 31.5232167,41.2488659 L52.6303586,61.0673496 C53.251758,61.6325931 53.906427,62 54.720499,62 C55.9498547,62 56.6714533,61.0837132 56.6714533,59.8709865 L56.6714533,48.5252481 L58.3010595,48.5271562 C70.2359292,48.6176007 77.3822319,51.9324774 81.098146,60.4099762 C81.6593772,61.6227028 82.3007374,62 83.1827034,62 C84.171508,62 85,61.164565 85,59.7901348 C85,38.3652691 74.5237939,28.6903787 57.7939157,28.6903787 L56.6714533,28.6903787 L56.6714533,17.1559365 C56.6714533,15.9432429 55.9498547,15 54.6937893,15 Z M34.0332,89.20897 L80.1758,89.20897 C81.25,89.20897 82.08,88.42772 82.08,87.3535 C82.08,86.32811 81.25,85.54686 80.1758,85.54686 L34.0332,85.54686 C33.0078,85.54686 32.1777,86.32811 32.1777,87.3535 C32.1777,88.42772 33.0078,89.20897 34.0332,89.20897 Z" id="Shape"></path>
                </g>
                <g id="Ultralight-M" transform="translate(15.3205, 430.3945)">
                    <path d="M103.283,0.3379 C109.231772,0.3379 112.352449,3.30710997 112.460116,9.19915871 L112.463,9.5176 L112.463,66.3535 C112.463,72.3019772 109.446687,75.4226492 103.598978,75.5303156 L103.283,75.5332 L9.6309,75.5332 C3.6343807,75.5332 0.560065159,72.5168873 0.454040088,66.6694622 L0.4512,66.3535 L0.4512,9.5176 C0.4512,3.52117895 3.42031345,0.446768606 9.31245363,0.340740179 L9.6309,0.3379 L103.283,0.3379 Z M53.670022,15.3379 C52.9248208,15.3379 52.3127223,15.7395725 51.8336722,16.1947099 L31.0215077,35.6336297 C29.7948937,36.7744534 29.5141432,37.4294048 29.4617726,38.0562076 L29.4521954,38.2438618 L29.4512,38.3379137 L29.4565814,38.5342782 C29.4949892,39.1878855 29.7634183,39.8495183 31.0215077,41.0421978 L51.8336722,60.4810901 C52.3127223,60.9362714 52.9248208,61.3379 53.670022,61.3379 C54.7346263,61.3379 55.266874,60.5346428 55.266874,59.5171803 L55.266874,47.9502518 L57.0040075,47.9521479 C69.4147445,48.0445224 76.7649589,51.5189511 80.2042985,59.8920326 C80.6566954,60.9362714 81.1091468,61.3379 81.9076,61.3379 C82.7858495,61.3379 83.4512,60.6417426 83.4512,59.5171803 C83.4512,37.8292017 72.4329921,28.993339 56.4911254,28.993339 L55.266874,28.993339 L55.266874,17.1586142 C55.266874,16.1411902 54.7346263,15.3379 53.670022,15.3379 Z M33.8008,87.05664 L79.1133,87.05664 C79.8457,87.05664 80.3828,86.61719 80.3828,85.88477 C80.3828,85.15234 79.8457,84.66406 79.1133,84.66406 L33.8008,84.66406 C33.0684,84.66406 32.5312,85.15234 32.5312,85.88477 C32.5312,86.61719 33.0684,87.05664 33.8008,87.05664 Z" id="Shape"></path>
                </g>
                <g id="Black-S" transform="translate(2391.9665, -0.6055)">
                    <path d="M91.74058,0.6055 C100.507485,0.6055 105.709722,5.68984869 105.848722,14.3585385 L105.85158,14.7168 L105.85158,60.0781 C105.85158,68.8447095 100.767815,74.0475745 92.0988532,74.1865916 L91.74058,74.18945 L14.49458,74.18945 C5.72787189,74.18945 0.525073641,69.1050527 0.386058405,60.4363615 L0.3832,60.0781 L0.3832,14.7168 C0.3832,5.95019054 5.46752922,0.74737416 14.1363145,0.608358416 L14.49458,0.6055 L91.74058,0.6055 Z M52.4108657,18.6055 C51.0646696,18.6055 50.0018654,19.0804861 48.5376014,20.4104082 L33.6349321,34.1369513 C32.8319643,34.8968999 32.3832,36.036847 32.3832,37.1055 C32.3832,38.1029343 32.8555682,39.3378689 33.6585844,40.0978174 L48.7725937,54.015378 C50.012836,55.121656 51.0549503,55.6055 52.4108657,55.6055 C54.6781459,55.6055 56.4258501,53.8481196 56.4258501,51.568274 L56.4258501,46.8661015 L56.8637144,46.8706094 C61.2726908,46.98731 63.538742,49.3501419 64.9481579,51.6557359 L65.1584061,52.0096804 L65.2587866,52.1857316 C66.3215425,54.2993389 67.5496707,55.1305334 69.3445827,55.1305334 C71.6360215,55.1305334 72.9523484,53.1351963 73.2936171,49.0566799 L73.3374945,48.4292677 C73.3679649,47.8933859 73.3832,47.3248859 73.3832,46.723596 C73.3832,34.4646671 67.0319022,27.6865332 56.8644779,27.5374214 L56.4258501,27.5349075 L56.4258501,22.6427357 C56.4258501,20.3628901 54.6781459,18.6055 52.4108657,18.6055 Z M32.3086,89.57031 L74.6914,89.57031 C77.6699,89.57031 80.0137,87.03125 80.0137,84.29688 C80.0137,81.5625 77.6699,79.023438 74.6914,79.023438 L32.3086,79.023438 C29.3301,79.023438 26.9863,81.5625 26.9863,84.29688 C26.9863,87.03125 29.3301,89.57031 32.3086,89.57031 Z" id="Shape"></path>
                </g>
                <g id="Heavy-S" transform="translate(2096.2365, 0.3945)">
                    <path d="M91.049,0.7773 C99.3287183,0.7773 104.144124,5.42865489 104.278127,13.6550544 L104.281,14.0098 L104.281,58.9805 C104.281,67.3087254 99.5822101,72.0773695 91.4017205,72.2100454 L91.049,72.21289 L13.998,72.21289 C5.66977465,72.21289 0.90114025,67.5615448 0.768464618,59.3352415 L0.76562,58.9805 L0.76562,14.0098 C0.76562,5.68147606 5.41695545,0.912820829 13.6432585,0.78014463 L13.998,0.7773 L91.049,0.7773 Z M51.4076304,17.7773 C50.0895232,17.7773 49.0698352,18.2479478 47.6025438,19.560861 L31.9842542,33.9037736 C31.1884187,34.6716646 30.76562,35.761658 30.76562,36.7772772 C30.76562,37.7186236 31.1884187,38.9076473 32.0091097,39.6508315 L47.6025438,53.9937289 C48.9455066,55.2323236 50.0149057,55.7773 51.432486,55.7773 C53.5961397,55.7773 55.2375726,54.1175879 55.2375726,51.9624348 L55.2375726,46.5126404 L55.8122033,46.5165476 C61.2638927,46.6308723 64.1603047,49.2413931 66.1057051,52.6808208 C67.1253422,54.6873402 68.3439764,55.3809503 70.0102648,55.3809503 C72.4475331,55.3809503 73.76562,52.9533116 73.76562,48.0237157 C73.76562,34.9592948 67.3374567,27.3275657 55.8062664,27.1683453 L55.2375726,27.1658033 L55.2375726,21.59215 C55.2375726,19.4617799 53.5961397,17.7773 51.4076304,17.7773 Z M31.7227,87.20312 L73.3242,87.20312 C76.0586,87.20312 78.207,84.9082 78.207,82.36914 C78.207,79.78125 76.0586,77.48633 73.3242,77.48633 L31.7227,77.48633 C28.9883,77.48633 26.8398,79.78125 26.8398,82.36914 C26.8398,84.9082 28.9883,87.20312 31.7227,87.20312 Z" id="Shape"></path>
                </g>
                <g id="Bold-S" transform="translate(1801.3821, 2.4902)">
                    <path d="M89.06248,0 C96.852533,0 101.185865,4.12034493 101.31539,11.8945001 L101.31838,12.2559 L101.31838,56.7871 C101.31838,64.6735697 97.1030793,68.9133775 89.4195637,69.040046 L89.06248,69.04297 L12.25588,69.04297 C4.46553152,69.04297 0.132505574,64.9226542 0.00299017545,57.1484999 L0,56.7871 L0,12.2559 C0,4.3694303 4.21499036,0.129593411 11.8987831,0.0029239899 L12.25588,0 L89.06248,0 Z M49.6517597,15 C48.3436194,15 47.3557752,15.5042944 45.9141143,16.8314851 L29.2014114,32.1997173 C28.4004522,32.9695042 28,34.0312024 28,34.9867362 C28,35.9157426 28.4004522,37.0305501 29.2280937,37.8002827 L45.9141143,53.2481735 C47.2489916,54.4691444 48.3168825,55 49.6784966,55 C51.734177,55 53.3093585,53.4605186 53.3093585,51.416721 L53.3093585,44.9137312 L54.0331904,44.9168801 C60.432784,45.0176147 64.1507353,47.5338993 66.818334,52.2660905 C67.8061782,54.1771734 69.0342718,54.7345727 70.5292972,54.7345727 C72.6651337,54.7345727 74,52.6642314 74,48.4970102 C74,34.1758605 67.3799373,25.3437716 54.0361254,25.168562 L53.3093585,25.1659056 L53.3093585,18.6629159 C53.3093585,16.619102 51.734177,15 49.6517597,15 Z M30.32228,83.59375 L70.99608,83.59375 C73.43748,83.59375 75.39058,81.54297 75.39058,79.19922 C75.39058,76.8554719 73.43748,74.80469 70.99608,74.80469 L30.32228,74.80469 C27.88088,74.80469 25.87888,76.8554719 25.87888,79.19922 C25.87888,81.54297 27.88088,83.59375 30.32228,83.59375 Z" id="Shape"></path>
                </g>
                <g id="Semibold-S" transform="translate(1505.0665, 3.4179)">
                    <path d="M88.23238,0 C95.6366877,0 99.6788822,3.78703072 99.801505,11.2211548 L99.80438,11.5723 L99.80438,55.8106 C99.80438,63.3586615 95.8760979,67.2144287 88.5769923,67.3312812 L88.23238,67.33402 L11.57228,67.33402 C4.12031692,67.33402 0.124039981,63.5943768 0.00284139186,56.1617109 L0,55.8106 L0,11.5723 C0,4.02423846 3.88163136,0.121083716 11.2255019,0.00277317032 L11.57228,0 L88.23238,0 Z M48.3666914,14 C47.1082627,14 46.2246922,14.510391 44.8323543,15.799875 L28.1513342,31.3538977 C27.3480433,32.1329908 27,33.1000763 27,33.9865621 C27,34.8461998 27.3480433,35.8670367 28.1513342,36.6191716 L44.8323543,52.3075894 C46.0907829,53.4895881 47.1082627,54 48.3934513,54 C50.2677417,54 51.6868394,52.5762254 51.6868394,50.7226321 L51.6868394,43.6843204 L52.0884574,43.6843204 C59.0237603,43.6843204 63.2270117,45.9082819 66.3418761,51.3202225 L66.6439779,51.8563589 C67.5602252,53.4186967 68.6926668,53.8119525 69.9476265,53.8119525 C71.7147676,53.8119525 73,52.0658125 73,48.6809912 C73,33.8253629 66.4668093,24.3693485 52.0884574,24.3693485 L51.6868394,24.3693485 L51.6868394,17.3847993 C51.6868394,15.5043247 50.2677417,14 48.3666914,14 Z M30.2484,81.64066 L70.2875,81.64066 C72.5336,81.64066 74.3891,79.73637 74.3891,77.5391 C74.3891,75.341834 72.5336,73.43754 70.2875,73.43754 L30.2484,73.43754 C27.9535,73.43754 26.1469,75.341834 26.1469,77.5391 C26.1469,79.73637 27.9535,81.64066 30.2484,81.64066 Z" id="Shape"></path>
                </g>
                <g id="Medium-S" transform="translate(1208.5365, 3.3945)">
                    <path d="M88.3633,0.707 C95.5235127,0.707 99.2777806,4.20650244 99.3951597,11.3916542 L99.398,11.7422 L99.398,55.7852 C99.398,63.0411683 95.7573862,66.7031176 88.7071028,66.8175418 L88.3633,66.82031 L11.8008,66.82031 C4.64088254,66.82031 0.885863865,63.2735348 0.768460883,56.1334905 L0.76562,55.7852 L0.76562,11.7422 C0.76562,4.43810794 4.40698919,0.822667523 11.4570107,0.709731922 L11.8008,0.707 L88.3633,0.707 Z M47.8052805,13.707 C46.5730962,13.707 45.7049351,14.2076751 44.3047049,15.5149903 L26.9137813,31.6201629 C26.1016546,32.3990035 25.76562,33.3446978 25.76562,34.207 C25.76562,35.0414333 26.1016546,36.014984 26.9137813,36.7660251 L44.3047049,53.0658851 C45.5649351,54.2063215 46.6010848,54.707 47.8613149,54.707 C49.6816027,54.707 51.0257985,53.3996723 51.0257985,51.5916649 L51.0257985,43.9423873 L51.9382287,43.9445273 C59.2376994,44.02177 63.8582608,46.2009613 67.3819641,52.2528115 L67.6985578,52.8066908 C68.603077,54.3181616 69.7293087,54.6235538 70.881148,54.6235538 C72.5054013,54.6235538 73.76562,53.0937017 73.76562,50.2008944 C73.76562,34.652013 67.1005149,24.4993996 51.5299365,24.4993996 L51.0257985,24.4993996 L51.0257985,16.9614167 C51.0257985,15.1533694 49.6816027,13.707 47.8052805,13.707 Z M30.3066,80.83398 L69.8574,80.83398 C72.0059,80.83398 73.7148,79.07617 73.7148,77.02539 C73.7148,74.92578 72.0059,73.16797 69.8574,73.16797 L30.3066,73.16797 C28.1582,73.16797 26.4492,74.92578 26.4492,77.02539 C26.4492,79.07617 28.1582,80.83398 30.3066,80.83398 Z" id="Shape"></path>
                </g>
                <g id="Regular-S" transform="translate(912.5865, 4.3945)">
                    <path d="M87.5332,0.6348 C94.3551645,0.6348 97.7738273,3.80152201 97.8823321,10.6466847 L97.885,10.9863 L97.885,54.6875 C97.885,61.6534048 94.5763689,64.9798058 87.865963,65.0852969 L87.5332,65.08789 L11.1172,65.08789 C4.34526557,65.08789 0.880203494,61.8755697 0.768414824,55.0326723 L0.76562,54.6875 L0.76562,10.9863 C0.76562,4.02226721 4.11966676,0.743082585 10.7813592,0.637439884 L11.1172,0.6348 L87.5332,0.6348 Z M46.9575596,11.6348 C45.7533358,11.6348 44.9791752,12.1540269 43.6316166,13.4232943 L25.8551642,30.1540517 C25.0523483,30.9328625 24.76562,31.8271097 24.76562,32.6348 C24.76562,33.4136791 25.0523483,34.3367558 25.8551642,35.0867371 L43.6316166,52.0194135 C44.8358404,53.1444156 45.810705,53.6348 47.0148701,53.6348 C48.6778709,53.6348 49.91075,52.4232632 49.91075,50.7790288 L49.91075,42.3559733 L50.8892912,42.3576623 C58.9448396,42.4255106 64.1704588,44.554886 68.2032899,51.8751831 C69.0634749,53.4328768 70.2389847,53.6348 71.2425046,53.6348 C72.5327527,53.6348 73.76562,52.4521104 73.76562,50.2886491 C73.76562,33.932906 67.19977,22.913645 50.4841479,22.913645 L49.91075,22.913645 L49.91075,14.663673 C49.91075,13.0194446 48.6778709,11.6348 46.9575596,11.6348 Z M29.8672,78.80859 L68.832,78.80859 C70.7363,78.80859 72.3477,77.24609 72.3477,75.292969 C72.3477,73.33984 70.7363,71.72852 68.832,71.72852 L29.8672,71.72852 C27.9141,71.72852 26.3516,73.33984 26.3516,75.292969 C26.3516,77.24609 27.9141,78.80859 29.8672,78.80859 Z" id="Shape"></path>
                </g>
                <g id="Light-S" transform="translate(617.3365, 6.3945)">
                    <path d="M85.5801,0.1973 C91.7222431,0.1973 94.8463125,3.12111026 94.9522131,9.24693031 L94.955,9.5723 L94.955,53.5664 C94.955,59.8046569 91.9368297,62.8360233 85.9005839,62.9386988 L85.5801,62.9414 L10.1406,62.9414 C3.99835862,62.9414 0.874306891,60.0175897 0.768406843,53.8917697 L0.76562,53.5664 L0.76562,9.5723 C0.76562,3.3340431 3.78377102,0.302676694 9.82011102,0.200001235 L10.1406,0.1973 L85.5801,0.1973 Z M45.9887374,11.1973 C45.0704677,11.1973 44.3970771,11.5893362 43.4657285,12.4420734 L25.9181586,28.8344117 C25.0186373,29.7064392 24.76562,30.4659563 24.76562,31.1973 C24.76562,31.9005357 25.0186373,32.688166 25.9181586,33.5320227 L43.2620222,49.8752189 C44.2177887,50.7753596 45.0329709,51.1973 46.0449251,51.1973 C47.4223296,51.1973 48.40619,50.1846426 48.40619,48.8063011 L48.40619,40.1987094 L49.5417449,40.2005356 C58.1446331,40.273821 63.5616469,42.5670839 67.1837034,49.6501808 C67.8864526,50.9441355 68.7859738,51.1973 69.6854951,51.1973 C70.7817884,51.1973 71.76562,50.2127731 71.76562,48.4968774 C71.76562,31.9286489 64.4851396,22.280293 49.1089392,22.280293 L48.40619,22.280293 L48.40619,13.7008145 C48.40619,12.3224615 47.4223296,11.1973 45.9887374,11.1973 Z M28.9395,75.24609 L66.8301,75.24609 C68.2949,75.24609 69.5645,74.02539 69.5645,72.511719 C69.5645,70.99805 68.2949,69.77734 66.8301,69.77734 L28.9395,69.77734 C27.4258,69.77734 26.2051,70.99805 26.2051,72.511719 C26.2051,74.02539 27.4258,75.24609 28.9395,75.24609 Z" id="Shape"></path>
                </g>
                <g id="Thin-S" transform="translate(323.3231, 8.7402)">
                    <path d="M82.27538,0 C87.5470152,0 90.2319814,2.53994866 90.3296167,7.75835689 L90.33238,8.0566 L90.33238,52.3438 C90.33238,57.6633315 87.7450367,60.30179 82.5710119,60.3976864 L82.27538,60.4004 L8.05668,60.4004 C2.83294111,60.4004 0.102160823,57.8604513 0.00281221803,52.6420431 L0,52.3438 L0,8.0566 C0,2.73706852 2.63404438,0.0986100137 7.76366007,0.00271358469 L8.05668,0 L82.27538,0 Z M43.2403263,11 C42.5540763,11 42.0076285,11.3016856 41.4301427,11.8199326 L24.219998,27.7630873 C23.1663763,28.7296654 23,29.3648129 23,30.000017 C23,30.6351645 23.1940867,31.2703686 24.219998,32.2369466 L41.4243216,48.2013532 C41.984344,48.6983334 42.5540763,49 43.2403263,49 C44.3216585,49 44.9593396,48.2267489 44.9593396,47.1773302 L44.9593396,38.2020169 L46.3144633,38.2040289 C55.766593,38.2860023 61.4798109,40.882178 64.5896385,47.7020367 C65.0887105,48.7238381 65.6709707,49 66.4196071,49 C67.2791138,49 68,48.2819779 68,47.0668666 C68,30.0552742 59.7375273,21.9636757 45.8465851,21.9636757 L44.9593396,21.9636757 L44.9593396,12.8502984 C44.9593396,11.8285197 44.3216585,11 43.2403263,11 Z M26.95318,70.7519562 L63.37888,70.7519562 C64.35548,70.7519562 65.08788,70.068362 65.08788,69.14063 C65.08788,68.16407 64.35548,67.43164 63.37888,67.43164 L26.95318,67.43164 C26.02538,67.43164 25.24418,68.16407 25.24418,69.14063 C25.24418,70.068362 26.02538,70.7519562 26.95318,70.7519562 Z" id="Shape"></path>
                </g>
                <g id="Ultralight-S" transform="translate(27.6121, 9.8144)">
                    <path d="M80.95708,0 C85.742224,0 88.229515,2.39168412 88.3270925,7.08300378 L88.33008,7.3731 L88.33008,51.8555 C88.33008,56.688468 85.9384919,59.1298479 81.2471761,59.2255699 L80.95708,59.2285 L7.37308,59.2285 C2.587936,59.2285 0.100568208,56.8837794 0.00298755392,52.1484082 L0,51.8555 L0,7.3731 C0,2.587956 2.39166491,0.100569 7.08298381,0.0029875776 L7.37308,0 L80.95708,0 Z M42.2934994,12 C41.6746269,12 41.1902752,12.3456071 40.7328166,12.7444138 L24.2378,27.899559 C23.1614689,28.8832895 23,29.4416407 23,30 C23,30.558343 23.1883621,31.1166942 24.2378,32.1004247 L40.7328166,47.2555427 C41.1902752,47.6543603 41.6746269,48 42.2934994,48 C43.2084166,48 43.66582,47.335304 43.66582,46.4844909 L43.66582,37.5775372 L45.0849133,37.5795972 C54.7253669,37.6634848 60.4489903,40.3165291 63.2553091,46.8301361 C63.6320332,47.6809492 64.0356504,48 64.7083642,48 C65.4349193,48 66,47.4150708 66,46.4844909 C66,29.7075299 57.4430334,22.6351361 44.6076303,22.6351361 L43.66582,22.6351361 L43.66582,13.5155091 C43.66582,12.6912686 43.2084166,12 42.2934994,12 Z M26.31838,68.603538 L62.01168,68.603538 C62.69528,68.603538 63.18358,68.16408 63.18358,67.52932 C63.18358,66.84572 62.69528,66.40627 62.01168,66.40627 L26.31838,66.40627 C25.68358,66.40627 25.14648,66.84572 25.14648,67.52932 C25.14648,68.16408 25.68358,68.603538 26.31838,68.603538 Z" id="Shape"></path>
                </g>
            </g>
        </g>
    </g>
</svg>
