<?xml version="1.0" encoding="UTF-8"?>
<!--Generator: Apple Native CoreSVG 175-->
<!DOCTYPE svg
PUBLIC "-//W3C//DTD SVG 1.1//EN"
       "http://www.w3.org/Graphics/SVG/1.1/DTD/svg11.dtd">
<svg version="1.1" xmlns="http://www.w3.org/2000/svg" xmlns:xlink="http://www.w3.org/1999/xlink" width="3300" height="2200">
 <!--glyph: "", point size: 100.0, font version: "17.3d3e1", template writer version: "65.1"-->
 <g id="Notes">
  <rect height="2200" id="artboard" style="fill:white;opacity:1" width="3300" x="0" y="0"/>
  <line style="fill:none;stroke:black;opacity:1;stroke-width:0.5;" x1="263" x2="3036" y1="292" y2="292"/>
  <text style="stroke:none;fill:black;font-family:sans-serif;font-size:13;font-weight:bold;" transform="matrix(1 0 0 1 263 322)">Weight/Scale Variations</text>
  <text style="stroke:none;fill:black;font-family:sans-serif;font-size:13;text-anchor:middle;" transform="matrix(1 0 0 1 559.711 322)">Ultralight</text>
  <text style="stroke:none;fill:black;font-family:sans-serif;font-size:13;text-anchor:middle;" transform="matrix(1 0 0 1 856.422 322)">Thin</text>
  <text style="stroke:none;fill:black;font-family:sans-serif;font-size:13;text-anchor:middle;" transform="matrix(1 0 0 1 1153.13 322)">Light</text>
  <text style="stroke:none;fill:black;font-family:sans-serif;font-size:13;text-anchor:middle;" transform="matrix(1 0 0 1 1449.84 322)">Regular</text>
  <text style="stroke:none;fill:black;font-family:sans-serif;font-size:13;text-anchor:middle;" transform="matrix(1 0 0 1 1746.56 322)">Medium</text>
  <text style="stroke:none;fill:black;font-family:sans-serif;font-size:13;text-anchor:middle;" transform="matrix(1 0 0 1 2043.27 322)">Semibold</text>
  <text style="stroke:none;fill:black;font-family:sans-serif;font-size:13;text-anchor:middle;" transform="matrix(1 0 0 1 2339.98 322)">Bold</text>
  <text style="stroke:none;fill:black;font-family:sans-serif;font-size:13;text-anchor:middle;" transform="matrix(1 0 0 1 2636.69 322)">Heavy</text>
  <text style="stroke:none;fill:black;font-family:sans-serif;font-size:13;text-anchor:middle;" transform="matrix(1 0 0 1 2933.4 322)">Black</text>
  <line style="fill:none;stroke:black;opacity:1;stroke-width:0.5;" x1="263" x2="3036" y1="1903" y2="1903"/>
  <g transform="matrix(1 0 0 1 263 1933)">
   <path d="M9.24805 0.830078Q10.8691 0.830078 12.2949 0.214844Q13.7207-0.400391 14.8096-1.49414Q15.8984-2.58789 16.5186-4.01367Q17.1387-5.43945 17.1387-7.05078Q17.1387-8.66211 16.5186-10.0879Q15.8984-11.5137 14.8047-12.6074Q13.7109-13.7012 12.2852-14.3164Q10.8594-14.9316 9.23828-14.9316Q7.62695-14.9316 6.20117-14.3164Q4.77539-13.7012 3.69141-12.6074Q2.60742-11.5137 1.9873-10.0879Q1.36719-8.66211 1.36719-7.05078Q1.36719-5.43945 1.9873-4.01367Q2.60742-2.58789 3.69629-1.49414Q4.78516-0.400391 6.21094 0.214844Q7.63672 0.830078 9.24805 0.830078ZM9.24805-0.654297Q7.91992-0.654297 6.7627-1.14746Q5.60547-1.64062 4.73145-2.51953Q3.85742-3.39844 3.36426-4.56055Q2.87109-5.72266 2.87109-7.05078Q2.87109-8.37891 3.35938-9.54102Q3.84766-10.7031 4.72168-11.582Q5.5957-12.4609 6.75293-12.9541Q7.91016-13.4473 9.23828-13.4473Q10.5762-13.4473 11.7334-12.9541Q12.8906-12.4609 13.7695-11.582Q14.6484-10.7031 15.1465-9.54102Q15.6445-8.37891 15.6445-7.05078Q15.6445-5.72266 15.1514-4.56055Q14.6582-3.39844 13.7842-2.51953Q12.9102-1.64062 11.748-1.14746Q10.5859-0.654297 9.24805-0.654297ZM5.6543-7.05078Q5.6543-6.72852 5.85938-6.52832Q6.06445-6.32812 6.40625-6.32812L8.51562-6.32812L8.51562-4.20898Q8.51562-3.88672 8.71094-3.67676Q8.90625-3.4668 9.23828-3.4668Q9.56055-3.4668 9.77051-3.67676Q9.98047-3.88672 9.98047-4.20898L9.98047-6.32812L12.0898-6.32812Q12.4219-6.32812 12.627-6.52832Q12.832-6.72852 12.832-7.05078Q12.832-7.38281 12.627-7.58789Q12.4219-7.79297 12.0898-7.79297L9.98047-7.79297L9.98047-9.90234Q9.98047-10.2344 9.77051-10.4443Q9.56055-10.6543 9.23828-10.6543Q8.90625-10.6543 8.71094-10.4443Q8.51562-10.2344 8.51562-9.90234L8.51562-7.79297L6.40625-7.79297Q6.06445-7.79297 5.85938-7.58789Q5.6543-7.38281 5.6543-7.05078Z"/>
  </g>
  <g transform="matrix(1 0 0 1 281.867 1933)">
   <path d="M11.709 2.91016Q13.75 2.91016 15.5518 2.12891Q17.3535 1.34766 18.7305-0.0292969Q20.1074-1.40625 20.8887-3.20801Q21.6699-5.00977 21.6699-7.05078Q21.6699-9.0918 20.8887-10.8936Q20.1074-12.6953 18.7305-14.0723Q17.3535-15.4492 15.5469-16.2305Q13.7402-17.0117 11.6992-17.0117Q9.6582-17.0117 7.85645-16.2305Q6.05469-15.4492 4.68262-14.0723Q3.31055-12.6953 2.5293-10.8936Q1.74805-9.0918 1.74805-7.05078Q1.74805-5.00977 2.5293-3.20801Q3.31055-1.40625 4.6875-0.0292969Q6.06445 1.34766 7.86621 2.12891Q9.66797 2.91016 11.709 2.91016ZM11.709 1.25Q9.98047 1.25 8.47656 0.605469Q6.97266-0.0390625 5.83496-1.17676Q4.69727-2.31445 4.05762-3.81836Q3.41797-5.32227 3.41797-7.05078Q3.41797-8.7793 4.05762-10.2832Q4.69727-11.7871 5.83008-12.9297Q6.96289-14.0723 8.4668-14.7119Q9.9707-15.3516 11.6992-15.3516Q13.4277-15.3516 14.9316-14.7119Q16.4355-14.0723 17.5781-12.9297Q18.7207-11.7871 19.3652-10.2832Q20.0098-8.7793 20.0098-7.05078Q20.0098-5.32227 19.3701-3.81836Q18.7305-2.31445 17.5928-1.17676Q16.4551-0.0390625 14.9463 0.605469Q13.4375 1.25 11.709 1.25ZM7.17773-7.05078Q7.17773-6.69922 7.41211-6.47461Q7.64648-6.25 8.01758-6.25L10.8887-6.25L10.8887-3.36914Q10.8887-2.99805 11.1133-2.76855Q11.3379-2.53906 11.6895-2.53906Q12.0605-2.53906 12.29-2.76855Q12.5195-2.99805 12.5195-3.36914L12.5195-6.25L15.4004-6.25Q15.7715-6.25 16.001-6.47461Q16.2305-6.69922 16.2305-7.05078Q16.2305-7.42188 16.001-7.65137Q15.7715-7.88086 15.4004-7.88086L12.5195-7.88086L12.5195-10.752Q12.5195-11.1328 12.29-11.3623Q12.0605-11.5918 11.6895-11.5918Q11.3379-11.5918 11.1133-11.3574Q10.8887-11.123 10.8887-10.752L10.8887-7.88086L8.01758-7.88086Q7.63672-7.88086 7.40723-7.65137Q7.17773-7.42188 7.17773-7.05078Z"/>
  </g>
  <g transform="matrix(1 0 0 1 305.646 1933)">
   <path d="M14.9707 5.66406Q17.0605 5.66406 18.96 5.01465Q20.8594 4.36523 22.4512 3.19336Q24.043 2.02148 25.2197 0.429688Q26.3965-1.16211 27.0459-3.06641Q27.6953-4.9707 27.6953-7.05078Q27.6953-9.14062 27.0459-11.04Q26.3965-12.9395 25.2197-14.5312Q24.043-16.123 22.4512-17.2998Q20.8594-18.4766 18.9551-19.126Q17.0508-19.7754 14.9609-19.7754Q12.8711-19.7754 10.9717-19.126Q9.07227-18.4766 7.48535-17.2998Q5.89844-16.123 4.72168-14.5312Q3.54492-12.9395 2.90039-11.04Q2.25586-9.14062 2.25586-7.05078Q2.25586-4.9707 2.90527-3.06641Q3.55469-1.16211 4.72656 0.429688Q5.89844 2.02148 7.49023 3.19336Q9.08203 4.36523 10.9814 5.01465Q12.8809 5.66406 14.9707 5.66406ZM14.9707 3.84766Q13.1641 3.84766 11.5283 3.2959Q9.89258 2.74414 8.53516 1.74805Q7.17773 0.751953 6.17676-0.610352Q5.17578-1.97266 4.62891-3.6084Q4.08203-5.24414 4.08203-7.05078Q4.08203-8.86719 4.62891-10.5029Q5.17578-12.1387 6.17188-13.501Q7.16797-14.8633 8.52539-15.8594Q9.88281-16.8555 11.5186-17.4023Q13.1543-17.9492 14.9609-17.9492Q16.7773-17.9492 18.4131-17.4023Q20.0488-16.8555 21.4111-15.8594Q22.7734-14.8633 23.7695-13.501Q24.7656-12.1387 25.3174-10.5029Q25.8691-8.86719 25.8691-7.05078Q25.8789-5.24414 25.332-3.6084Q24.7852-1.97266 23.7842-0.610352Q22.7832 0.751953 21.4209 1.74805Q20.0586 2.74414 18.4229 3.2959Q16.7871 3.84766 14.9707 3.84766ZM9.19922-7.05078Q9.19922-6.66992 9.45801-6.4209Q9.7168-6.17188 10.1172-6.17188L14.0625-6.17188L14.0625-2.2168Q14.0625-1.81641 14.3115-1.55762Q14.5605-1.29883 14.9512-1.29883Q15.3516-1.29883 15.6104-1.55273Q15.8691-1.80664 15.8691-2.2168L15.8691-6.17188L19.8242-6.17188Q20.2246-6.17188 20.4785-6.4209Q20.7324-6.66992 20.7324-7.05078Q20.7324-7.46094 20.4785-7.71484Q20.2246-7.96875 19.8242-7.96875L15.8691-7.96875L15.8691-11.9141Q15.8691-12.3242 15.6104-12.583Q15.3516-12.8418 14.9512-12.8418Q14.5605-12.8418 14.3115-12.583Q14.0625-12.3242 14.0625-11.9141L14.0625-7.96875L10.1172-7.96875Q9.70703-7.96875 9.45312-7.71484Q9.19922-7.46094 9.19922-7.05078Z"/>
  </g>
  <text style="stroke:none;fill:black;font-family:sans-serif;font-size:13;font-weight:bold;" transform="matrix(1 0 0 1 263 1953)">Design Variations</text>
  <text style="stroke:none;fill:black;font-family:sans-serif;font-size:13;" transform="matrix(1 0 0 1 263 1971)">Symbols are supported in up to nine weights and three scales.</text>
  <text style="stroke:none;fill:black;font-family:sans-serif;font-size:13;" transform="matrix(1 0 0 1 263 1989)">For optimal layout with text and other symbols, vertically align</text>
  <text style="stroke:none;fill:black;font-family:sans-serif;font-size:13;" transform="matrix(1 0 0 1 263 2007)">symbols with the adjacent text.</text>
  <line style="fill:none;stroke:#00AEEF;stroke-width:0.5;opacity:1.0;" x1="776" x2="776" y1="1919" y2="1933"/>
  <g transform="matrix(1 0 0 1 776 1933)">
   <path d="M3.31055 0.15625Q3.70117 0.15625 3.91602-0.00976562Q4.13086-0.175781 4.26758-0.585938L5.52734-4.0332L11.2891-4.0332L12.5488-0.585938Q12.6855-0.175781 12.9004-0.00976562Q13.1152 0.15625 13.4961 0.15625Q13.8867 0.15625 14.1162-0.0585938Q14.3457-0.273438 14.3457-0.644531Q14.3457-0.869141 14.2383-1.17188L9.6582-13.3691Q9.48242-13.8184 9.17969-14.043Q8.87695-14.2676 8.4082-14.2676Q7.5-14.2676 7.17773-13.3789L2.59766-1.16211Q2.49023-0.859375 2.49023-0.634766Q2.49023-0.263672 2.70996-0.0537109Q2.92969 0.15625 3.31055 0.15625ZM6.00586-5.51758L8.37891-12.0898L8.42773-12.0898L10.8008-5.51758Z"/>
  </g>
  <line style="fill:none;stroke:#00AEEF;stroke-width:0.5;opacity:1.0;" x1="793.197" x2="793.197" y1="1919" y2="1933"/>
  <text style="stroke:none;fill:black;font-family:sans-serif;font-size:13;font-weight:bold;" transform="matrix(1 0 0 1 776 1953)">Margins</text>
  <text style="stroke:none;fill:black;font-family:sans-serif;font-size:13;" transform="matrix(1 0 0 1 776 1971)">Leading and trailing margins on the left and right side of each symbol</text>
  <text style="stroke:none;fill:black;font-family:sans-serif;font-size:13;" transform="matrix(1 0 0 1 776 1989)">can be adjusted by modifying the x-location of the margin guidelines.</text>
  <text style="stroke:none;fill:black;font-family:sans-serif;font-size:13;" transform="matrix(1 0 0 1 776 2007)">Modifications are automatically applied proportionally to all</text>
  <text style="stroke:none;fill:black;font-family:sans-serif;font-size:13;" transform="matrix(1 0 0 1 776 2025)">scales and weights.</text>
  <g transform="matrix(1 0 0 1 1289 1933)">
   <path d="M2.8418 1.86523L4.54102 3.57422Q5.18555 4.22852 5.90332 4.17969Q6.62109 4.13086 7.31445 3.35938L18.0078-8.42773L17.041-9.4043L6.42578 2.27539Q6.16211 2.57812 5.89355 2.61719Q5.625 2.65625 5.27344 2.30469L4.10156 1.14258Q3.75 0.791016 3.79395 0.522461Q3.83789 0.253906 4.14062-0.0195312L15.6152-10.8203L14.6387-11.7871L3.04688-0.898438Q2.30469-0.214844 2.25098 0.498047Q2.19727 1.21094 2.8418 1.86523ZM9.25781-16.3281Q8.94531-16.0254 8.90625-15.6348Q8.86719-15.2441 9.04297-14.9512Q9.21875-14.6777 9.55566-14.541Q9.89258-14.4043 10.3809-14.5215Q11.4746-14.7754 12.5977-14.7314Q13.7207-14.6875 14.7949-13.9844L14.209-12.5293Q13.9551-11.9043 14.0674-11.4404Q14.1797-10.9766 14.5801-10.5664L16.875-8.25195Q17.2363-7.88086 17.5781-7.82227Q17.9199-7.76367 18.3398-7.8418L19.4043-8.03711L20.0684-7.36328L20.0293-6.80664Q20-6.43555 20.1221-6.12305Q20.2441-5.81055 20.6055-5.44922L21.3672-4.70703Q21.7285-4.3457 22.1533-4.33105Q22.5781-4.31641 22.9297-4.66797L25.8398-7.58789Q26.1914-7.93945 26.1816-8.35449Q26.1719-8.76953 25.8105-9.13086L25.0391-9.89258Q24.6875-10.2539 24.3799-10.3857Q24.0723-10.5176 23.7109-10.4883L23.1348-10.4395L22.4902-11.0742L22.7344-12.1973Q22.832-12.6172 22.6953-12.9834Q22.5586-13.3496 22.1191-13.7891L19.9219-15.9766Q18.6719-17.2168 17.2607-17.8369Q15.8496-18.457 14.4189-18.4814Q12.9883-18.5059 11.665-17.959Q10.3418-17.4121 9.25781-16.3281ZM10.752-15.957Q11.6602-16.6211 12.7002-16.9043Q13.7402-17.1875 14.8047-17.085Q15.8691-16.9824 16.8701-16.5137Q17.8711-16.0449 18.7012-15.2051L21.1328-12.793Q21.3086-12.6172 21.3525-12.4512Q21.3965-12.2852 21.3379-12.0312L21.0156-10.5469L22.5195-9.0625L23.5059-9.12109Q23.6914-9.13086 23.7891-9.09668Q23.8867-9.0625 24.0332-8.91602L24.6094-8.33984L22.168-5.89844L21.5918-6.47461Q21.4453-6.62109 21.4062-6.71875Q21.3672-6.81641 21.377-7.01172L21.4453-7.98828L19.9512-9.47266L18.4277-9.21875Q18.1836-9.16992 18.042-9.2041Q17.9004-9.23828 17.7148-9.41406L15.7129-11.416Q15.5176-11.5918 15.4932-11.7529Q15.4688-11.9141 15.5859-12.1875L16.4648-14.2773Q15.293-15.3711 13.8281-15.791Q12.3633-16.2109 10.8398-15.7617Q10.7227-15.7324 10.6885-15.8057Q10.6543-15.8789 10.752-15.957Z"/>
  </g>
  <text style="stroke:none;fill:black;font-family:sans-serif;font-size:13;font-weight:bold;" transform="matrix(1 0 0 1 1289 1953)">Exporting</text>
  <text style="stroke:none;fill:black;font-family:sans-serif;font-size:13;" transform="matrix(1 0 0 1 1289 1971)">Symbols should be outlined when exporting to ensure the</text>
  <text style="stroke:none;fill:black;font-family:sans-serif;font-size:13;" transform="matrix(1 0 0 1 1289 1989)">design is preserved when submitting to Xcode.</text>
  <text id="template-version" style="stroke:none;fill:black;font-family:sans-serif;font-size:13;text-anchor:end;" transform="matrix(1 0 0 1 3036 1933)">Template v.3.0</text>
  <text style="stroke:none;fill:black;font-family:sans-serif;font-size:13;text-anchor:end;" transform="matrix(1 0 0 1 3036 1951)">Requires Xcode 13 or greater</text>
  <text id="descriptive-name" style="stroke:none;fill:black;font-family:sans-serif;font-size:13;text-anchor:end;" transform="matrix(1 0 0 1 3036 1969)">Generated from music.waveform.circle.fill</text>
  <text style="stroke:none;fill:black;font-family:sans-serif;font-size:13;text-anchor:end;" transform="matrix(1 0 0 1 3036 1987)">Typeset at 100 points</text>
  <text style="stroke:none;fill:black;font-family:sans-serif;font-size:13;" transform="matrix(1 0 0 1 263 726)">Small</text>
  <text style="stroke:none;fill:black;font-family:sans-serif;font-size:13;" transform="matrix(1 0 0 1 263 1156)">Medium</text>
  <text style="stroke:none;fill:black;font-family:sans-serif;font-size:13;" transform="matrix(1 0 0 1 263 1586)">Large</text>
 </g>
 <g id="Guides">
  <g id="H-reference" style="fill:#27AAE1;stroke:none;" transform="matrix(1 0 0 1 339 696)">
   <path d="M0.993347 0L3.6377 0L29.3282-67.1326L30.0301-67.1326L30.0301-70.459L28.1227-70.459ZM11.6882-24.4797L46.9818-24.4797L46.2311-26.7288L12.4382-26.7288ZM55.1193 0L57.7637 0L30.6381-70.459L29.4327-70.459L29.4327-67.1326Z"/>
  </g>
  <line id="Baseline-S" style="fill:none;stroke:#27AAE1;opacity:1;stroke-width:0.5;" x1="263" x2="3036" y1="696" y2="696"/>
  <line id="Capline-S" style="fill:none;stroke:#27AAE1;opacity:1;stroke-width:0.5;" x1="263" x2="3036" y1="625.541" y2="625.541"/>
  <g id="H-reference" style="fill:#27AAE1;stroke:none;" transform="matrix(1 0 0 1 339 1126)">
   <path d="M0.993347 0L3.6377 0L29.3282-67.1326L30.0301-67.1326L30.0301-70.459L28.1227-70.459ZM11.6882-24.4797L46.9818-24.4797L46.2311-26.7288L12.4382-26.7288ZM55.1193 0L57.7637 0L30.6381-70.459L29.4327-70.459L29.4327-67.1326Z"/>
  </g>
  <line id="Baseline-M" style="fill:none;stroke:#27AAE1;opacity:1;stroke-width:0.5;" x1="263" x2="3036" y1="1126" y2="1126"/>
  <line id="Capline-M" style="fill:none;stroke:#27AAE1;opacity:1;stroke-width:0.5;" x1="263" x2="3036" y1="1055.54" y2="1055.54"/>
  <g id="H-reference" style="fill:#27AAE1;stroke:none;" transform="matrix(1 0 0 1 339 1556)">
   <path d="M0.993347 0L3.6377 0L29.3282-67.1326L30.0301-67.1326L30.0301-70.459L28.1227-70.459ZM11.6882-24.4797L46.9818-24.4797L46.2311-26.7288L12.4382-26.7288ZM55.1193 0L57.7637 0L30.6381-70.459L29.4327-70.459L29.4327-67.1326Z"/>
  </g>
  <line id="Baseline-L" style="fill:none;stroke:#27AAE1;opacity:1;stroke-width:0.5;" x1="263" x2="3036" y1="1556" y2="1556"/>
  <line id="Capline-L" style="fill:none;stroke:#27AAE1;opacity:1;stroke-width:0.5;" x1="263" x2="3036" y1="1485.54" y2="1485.54"/>
  <line id="left-margin-Regular-M" style="fill:none;stroke:#00AEEF;stroke-width:0.5;opacity:1.0;" x1="1388.71" x2="1388.71" y1="1030.78" y2="1150.12"/>
  <line id="right-margin-Regular-M" style="fill:none;stroke:#00AEEF;stroke-width:0.5;opacity:1.0;" x1="1510.98" x2="1510.98" y1="1030.78" y2="1150.12"/>
 </g>
 <g id="Symbols">
  <g id="Black-L" transform="matrix(1 0 0 1 2854.12 1556)">
   <path d="M79.28-103.15C41.7535-103.15 11.33-72.7279 11.33-35.2C11.33 2.32786 41.7535 32.75 79.28 32.75C116.806 32.75 147.23 2.32786 147.23-35.2C147.23-72.7279 116.806-103.15 79.28-103.15ZM47.0269-6.8758L28.5208-6.8758L28.5208-12.4828L47.0269-12.4828L47.0269-6.8758L47.0269-6.8758ZM47.0269-14.1637L28.5208-14.1637L28.5208-19.7748L47.0269-19.7748L47.0269-14.1637L47.0269-14.1637ZM47.0269-21.4543L28.5208-21.4543L28.5208-27.0641L47.0269-27.0641L47.0269-21.4543L47.0269-21.4543ZM47.0269-28.7477L28.5208-28.7477L28.5208-34.3547L47.0269-34.3547L47.0269-28.7477L47.0269-28.7477ZM47.0269-36.0397L28.5208-36.0397L28.5208-41.6481L47.0269-41.6481L47.0269-36.0397L47.0269-36.0397ZM67.781-6.8758L49.2722-6.8758L49.2722-12.4828L67.781-12.4828L67.781-6.8758ZM67.781-14.1637L49.2722-14.1637L49.2722-19.7748L67.781-19.7748L67.781-14.1637ZM67.781-21.4543L49.2722-21.4543L49.2722-27.0641L67.781-27.0641L67.781-21.4543ZM88.5337-6.8758L70.0263-6.8758L70.0263-12.4828L88.5351-12.4828L88.5337-6.8758L88.5337-6.8758ZM88.5337-14.1637L70.0263-14.1637L70.0263-19.7748L88.5351-19.7748L88.5337-14.1637L88.5337-14.1637ZM88.5337-21.4543L70.0263-21.4543L70.0263-27.0641L88.5351-27.0641L88.5337-21.4543L88.5337-21.4543ZM88.5337-28.7477L70.0263-28.7477L70.0263-34.3547L88.5351-34.3547L88.5337-28.7477L88.5337-28.7477ZM88.5337-36.0397L70.0263-36.0397L70.0263-41.6481L88.5351-41.6481L88.5337-36.0397L88.5337-36.0397ZM88.5337-43.3318L70.0263-43.3318L70.0263-48.9402L88.5351-48.9402L88.5337-43.3318L88.5337-43.3318ZM88.5337-50.621L70.0263-50.621L70.0263-56.2308L88.5351-56.2308L88.5337-50.621L88.5337-50.621ZM109.285-6.8758L90.7776-6.8758L90.7776-12.4828L109.286-12.4828L109.285-6.8758L109.285-6.8758ZM109.285-14.1637L90.7776-14.1637L90.7776-19.7748L109.286-19.7748L109.285-14.1637L109.285-14.1637ZM109.285-21.4543L90.7776-21.4543L90.7776-27.0641L109.286-27.0641L109.285-21.4543L109.285-21.4543ZM109.285-28.7477L90.7776-28.7477L90.7776-34.3547L109.286-34.3547L109.285-28.7477L109.285-28.7477ZM109.285-36.0397L90.7776-36.0397L90.7776-41.6481L109.286-41.6481L109.285-36.0397L109.285-36.0397ZM130.039-6.8758L111.53-6.8758L111.53-12.4828L130.038-12.4828L130.038-6.8758L130.039-6.8758ZM130.039-14.1637L111.53-14.1637L111.53-19.7748L130.038-19.7748L130.038-14.1637L130.039-14.1637ZM130.039-21.4585L111.53-21.4585L111.53-27.0669L130.038-27.0669L130.038-21.4585L130.039-21.4585ZM130.039-28.7477L111.53-28.7477L111.53-34.3589L130.038-34.3589L130.038-28.7477L130.039-28.7477ZM130.039-36.0397L111.53-36.0397L111.53-41.6523L130.038-41.6523L130.038-36.0397L130.039-36.0397ZM130.039-43.3331L111.53-43.3331L111.53-48.9402L130.038-48.9402L130.038-43.3331L130.039-43.3331ZM130.039-50.6252L111.53-50.6252L111.53-56.2322L130.038-56.2322L130.038-50.6252L130.039-50.6252ZM111.53-57.9158L111.53-63.5242L130.038-63.5242L130.038-57.9158L111.53-57.9158Z"/>
  </g>
  <g id="Heavy-L" transform="matrix(1 0 0 1 2558.34 1556)">
   <path d="M78.34-102.22C41.3327-102.22 11.33-72.2187 11.33-35.21C11.33 1.79871 41.3327 31.8 78.34 31.8C115.347 31.8 145.35 1.79871 145.35-35.21C145.35-72.2187 115.347-102.22 78.34-102.22ZM46.533-7.27763L28.283-7.27763L28.283-12.8071L46.533-12.8071L46.533-7.27763L46.533-7.27763ZM46.533-14.4647L28.283-14.4647L28.283-19.9982L46.533-19.9982L46.533-14.4647L46.533-14.4647ZM46.533-21.6544L28.283-21.6544L28.283-27.1866L46.533-27.1866L46.533-21.6544L46.533-21.6544ZM46.533-28.847L28.283-28.847L28.283-34.3764L46.533-34.3764L46.533-28.847L46.533-28.847ZM46.533-36.0381L28.283-36.0381L28.283-41.5689L46.533-41.5689L46.533-36.0381L46.533-36.0381ZM67.0001-7.27763L48.7473-7.27763L48.7473-12.8071L67.0001-12.8071L67.0001-7.27763ZM67.0001-14.4647L48.7473-14.4647L48.7473-19.9982L67.0001-19.9982L67.0001-14.4647ZM67.0001-21.6544L48.7473-21.6544L48.7473-27.1866L67.0001-27.1866L67.0001-21.6544ZM87.4657-7.27763L69.2143-7.27763L69.2143-12.8071L87.4671-12.8071L87.4657-7.27763L87.4657-7.27763ZM87.4657-14.4647L69.2143-14.4647L69.2143-19.9982L87.4671-19.9982L87.4657-14.4647L87.4657-14.4647ZM87.4657-21.6544L69.2143-21.6544L69.2143-27.1866L87.4671-27.1866L87.4657-21.6544L87.4657-21.6544ZM87.4657-28.847L69.2143-28.847L69.2143-34.3764L87.4671-34.3764L87.4657-28.847L87.4657-28.847ZM87.4657-36.0381L69.2143-36.0381L69.2143-41.5689L87.4671-41.5689L87.4657-36.0381L87.4657-36.0381ZM87.4657-43.2293L69.2143-43.2293L69.2143-48.7601L87.4671-48.7601L87.4657-43.2293L87.4657-43.2293ZM87.4657-50.4177L69.2143-50.4177L69.2143-55.9499L87.4671-55.9499L87.4657-50.4177L87.4657-50.4177ZM107.93-7.27763L89.6786-7.27763L89.6786-12.8071L107.931-12.8071L107.93-7.27763L107.93-7.27763ZM107.93-14.4647L89.6786-14.4647L89.6786-19.9982L107.931-19.9982L107.93-14.4647L107.93-14.4647ZM107.93-21.6544L89.6786-21.6544L89.6786-27.1866L107.931-27.1866L107.93-21.6544L107.93-21.6544ZM107.93-28.847L89.6786-28.847L89.6786-34.3764L107.931-34.3764L107.93-28.847L107.93-28.847ZM107.93-36.0381L89.6786-36.0381L89.6786-41.5689L107.931-41.5689L107.93-36.0381L107.93-36.0381ZM128.397-7.27763L110.144-7.27763L110.144-12.8071L128.396-12.8071L128.396-7.27763L128.397-7.27763ZM128.397-14.4647L110.144-14.4647L110.144-19.9982L128.396-19.9982L128.396-14.4647L128.397-14.4647ZM128.397-21.6586L110.144-21.6586L110.144-27.1894L128.396-27.1894L128.396-21.6586L128.397-21.6586ZM128.397-28.847L110.144-28.847L110.144-34.3805L128.396-34.3805L128.396-28.847L128.397-28.847ZM128.397-36.0381L110.144-36.0381L110.144-41.573L128.396-41.573L128.396-36.0381L128.397-36.0381ZM128.397-43.2306L110.144-43.2306L110.144-48.7601L128.396-48.7601L128.396-43.2306L128.397-43.2306ZM128.397-50.4218L110.144-50.4218L110.144-55.9512L128.396-55.9512L128.396-50.4218L128.397-50.4218ZM110.144-57.6116L110.144-63.1424L128.396-63.1424L128.396-57.6116L110.144-57.6116Z"/>
  </g>
  <g id="Bold-L" transform="matrix(1 0 0 1 2262.81 1556)">
   <path d="M77.16-101.05C40.8043-101.05 11.33-71.577 11.33-35.22C11.33 1.13702 40.8043 30.61 77.16 30.61C113.516 30.61 142.99 1.13702 142.99-35.22C142.99-71.577 113.516-101.05 77.16-101.05ZM45.9131-7.7795L27.9845-7.7795L27.9845-13.2116L45.9131-13.2116L45.9131-7.7795L45.9131-7.7795ZM45.9131-14.84L27.9845-14.84L27.9845-20.2761L45.9131-20.2761L45.9131-14.84L45.9131-14.84ZM45.9131-21.9031L27.9845-21.9031L27.9845-27.3379L45.9131-27.3379L45.9131-21.9031L45.9131-21.9031ZM45.9131-28.969L27.9845-28.969L27.9845-34.4011L45.9131-34.4011L45.9131-28.969L45.9131-28.969ZM45.9131-36.0335L27.9845-36.0335L27.9845-41.4669L45.9131-41.4669L45.9131-36.0335L45.9131-36.0335ZM66.0197-7.7795L48.0884-7.7795L48.0884-13.2116L66.0197-13.2116L66.0197-7.7795ZM66.0197-14.84L48.0884-14.84L48.0884-20.2761L66.0197-20.2761L66.0197-14.84ZM66.0197-21.9031L48.0884-21.9031L48.0884-27.3379L66.0197-27.3379L66.0197-21.9031ZM86.125-7.7795L68.195-7.7795L68.195-13.2116L86.1263-13.2116L86.125-7.7795L86.125-7.7795ZM86.125-14.84L68.195-14.84L68.195-20.2761L86.1263-20.2761L86.125-14.84L86.125-14.84ZM86.125-21.9031L68.195-21.9031L68.195-27.3379L86.1263-27.3379L86.125-21.9031L86.125-21.9031ZM86.125-28.969L68.195-28.969L68.195-34.4011L86.1263-34.4011L86.125-28.969L86.125-28.969ZM86.125-36.0335L68.195-36.0335L68.195-41.4669L86.1263-41.4669L86.125-36.0335L86.125-36.0335ZM86.125-43.098L68.195-43.098L68.195-48.5315L86.1263-48.5315L86.125-43.098L86.125-43.098ZM86.125-50.1599L68.195-50.1599L68.195-55.5946L86.1263-55.5946L86.125-50.1599L86.125-50.1599ZM106.229-7.7795L88.2989-7.7795L88.2989-13.2116L106.23-13.2116L106.229-7.7795L106.229-7.7795ZM106.229-14.84L88.2989-14.84L88.2989-20.2761L106.23-20.2761L106.229-14.84L106.229-14.84ZM106.229-21.9031L88.2989-21.9031L88.2989-27.3379L106.23-27.3379L106.229-21.9031L106.229-21.9031ZM106.229-28.969L88.2989-28.969L88.2989-34.4011L106.23-34.4011L106.229-28.969L106.229-28.969ZM106.229-36.0335L88.2989-36.0335L88.2989-41.4669L106.23-41.4669L106.229-36.0335L106.229-36.0335ZM126.336-7.7795L108.404-7.7795L108.404-13.2116L126.334-13.2116L126.334-7.7795L126.336-7.7795ZM126.336-14.84L108.404-14.84L108.404-20.2761L126.334-20.2761L126.334-14.84L126.336-14.84ZM126.336-21.9072L108.404-21.9072L108.404-27.3406L126.334-27.3406L126.334-21.9072L126.336-21.9072ZM126.336-28.969L108.404-28.969L108.404-34.4051L126.334-34.4051L126.334-28.969L126.336-28.969ZM126.336-36.0335L108.404-36.0335L108.404-41.471L126.334-41.471L126.334-36.0335L126.336-36.0335ZM126.336-43.0994L108.404-43.0994L108.404-48.5315L126.334-48.5315L126.334-43.0994L126.336-43.0994ZM126.336-50.1639L108.404-50.1639L108.404-55.596L126.334-55.596L126.334-50.1639L126.336-50.1639ZM108.404-57.2271L108.404-62.6605L126.334-62.6605L126.334-57.2271L108.404-57.2271Z"/>
  </g>
  <g id="Semibold-L" transform="matrix(1 0 0 1 1966.91 1556)">
   <path d="M76.35-100.25C40.4417-100.25 11.33-71.1397 11.33-35.23C11.33 0.679665 40.4417 29.79 76.35 29.79C112.258 29.79 141.37 0.679665 141.37-35.23C141.37-71.1397 112.258-100.25 76.35-100.25ZM45.4876-8.12714L27.7796-8.12714L27.7796-13.4924L45.4876-13.4924L45.4876-8.12714L45.4876-8.12714ZM45.4876-15.1007L27.7796-15.1007L27.7796-20.47L45.4876-20.47L45.4876-15.1007L45.4876-15.1007ZM45.4876-22.077L27.7796-22.077L27.7796-27.4449L45.4876-27.4449L45.4876-22.077L45.4876-22.077ZM45.4876-29.0559L27.7796-29.0559L27.7796-34.4212L45.4876-34.4212L45.4876-29.0559L45.4876-29.0559ZM45.4876-36.0335L27.7796-36.0335L27.7796-41.4001L45.4876-41.4001L45.4876-36.0335L45.4876-36.0335ZM65.3468-8.12714L47.6361-8.12714L47.6361-13.4924L65.3468-13.4924L65.3468-8.12714ZM65.3468-15.1007L47.6361-15.1007L47.6361-20.47L65.3468-20.47L65.3468-15.1007ZM65.3468-22.077L47.6361-22.077L47.6361-27.4449L65.3468-27.4449L65.3468-22.077ZM85.2047-8.12714L67.4953-8.12714L67.4953-13.4924L85.206-13.4924L85.2047-8.12714L85.2047-8.12714ZM85.2047-15.1007L67.4953-15.1007L67.4953-20.47L85.206-20.47L85.2047-15.1007L85.2047-15.1007ZM85.2047-22.077L67.4953-22.077L67.4953-27.4449L85.206-27.4449L85.2047-22.077L85.2047-22.077ZM85.2047-29.0559L67.4953-29.0559L67.4953-34.4212L85.206-34.4212L85.2047-29.0559L85.2047-29.0559ZM85.2047-36.0335L67.4953-36.0335L67.4953-41.4001L85.206-41.4001L85.2047-36.0335L85.2047-36.0335ZM85.2047-43.0111L67.4953-43.0111L67.4953-48.3777L85.206-48.3777L85.2047-43.0111L85.2047-43.0111ZM85.2047-49.986L67.4953-49.986L67.4953-55.3539L85.206-55.3539L85.2047-49.986L85.2047-49.986ZM105.061-8.12714L87.3518-8.12714L87.3518-13.4924L105.063-13.4924L105.061-8.12714L105.061-8.12714ZM105.061-15.1007L87.3518-15.1007L87.3518-20.47L105.063-20.47L105.061-15.1007L105.061-15.1007ZM105.061-22.077L87.3518-22.077L87.3518-27.4449L105.063-27.4449L105.061-22.077L105.061-22.077ZM105.061-29.0559L87.3518-29.0559L87.3518-34.4212L105.063-34.4212L105.061-29.0559L105.061-29.0559ZM105.061-36.0335L87.3518-36.0335L87.3518-41.4001L105.063-41.4001L105.061-36.0335L105.061-36.0335ZM124.92-8.12714L107.21-8.12714L107.21-13.4924L124.919-13.4924L124.919-8.12714L124.92-8.12714ZM124.92-15.1007L107.21-15.1007L107.21-20.47L124.919-20.47L124.919-15.1007L124.92-15.1007ZM124.92-22.081L107.21-22.081L107.21-27.4476L124.919-27.4476L124.919-22.081L124.92-22.081ZM124.92-29.0559L107.21-29.0559L107.21-34.4251L124.919-34.4251L124.919-29.0559L124.92-29.0559ZM124.92-36.0335L107.21-36.0335L107.21-41.4041L124.919-41.4041L124.919-36.0335L124.92-36.0335ZM124.92-43.0124L107.21-43.0124L107.21-48.3777L124.919-48.3777L124.919-43.0124L124.92-43.0124ZM124.92-49.99L107.21-49.99L107.21-55.3553L124.919-55.3553L124.919-49.99L124.92-49.99ZM107.21-56.9663L107.21-62.3329L124.919-62.3329L124.919-56.9663L107.21-56.9663Z"/>
  </g>
  <g id="Medium-L" transform="matrix(1 0 0 1 1670.82 1556)">
   <path d="M75.73-99.64C40.1641-99.64 11.33-70.8072 11.33-35.24C11.33 0.327247 40.1641 29.16 75.73 29.16C111.296 29.16 140.13 0.327247 140.13-35.24C140.13-70.8072 111.296-99.64 75.73-99.64ZM45.1619-8.39558L27.6227-8.39558L27.6227-13.7096L45.1619-13.7096L45.1619-8.39558L45.1619-8.39558ZM45.1619-15.3027L27.6227-15.3027L27.6227-20.6207L45.1619-20.6207L45.1619-15.3027L45.1619-15.3027ZM45.1619-22.2124L27.6227-22.2124L27.6227-27.5291L45.1619-27.5291L45.1619-22.2124L45.1619-22.2124ZM45.1619-29.1248L27.6227-29.1248L27.6227-34.4389L45.1619-34.4389L45.1619-29.1248L45.1619-29.1248ZM45.1619-36.0359L27.6227-36.0359L27.6227-41.3512L45.1619-41.3512L45.1619-36.0359L45.1619-36.0359ZM64.8317-8.39558L47.2899-8.39558L47.2899-13.7096L64.8317-13.7096L64.8317-8.39558ZM64.8317-15.3027L47.2899-15.3027L47.2899-20.6207L64.8317-20.6207L64.8317-15.3027ZM64.8317-22.2124L47.2899-22.2124L47.2899-27.5291L64.8317-27.5291L64.8317-22.2124ZM84.5003-8.39558L66.9597-8.39558L66.9597-13.7096L84.5016-13.7096L84.5003-8.39558L84.5003-8.39558ZM84.5003-15.3027L66.9597-15.3027L66.9597-20.6207L84.5016-20.6207L84.5003-15.3027L84.5003-15.3027ZM84.5003-22.2124L66.9597-22.2124L66.9597-27.5291L84.5016-27.5291L84.5003-22.2124L84.5003-22.2124ZM84.5003-29.1248L66.9597-29.1248L66.9597-34.4389L84.5016-34.4389L84.5003-29.1248L84.5003-29.1248ZM84.5003-36.0359L66.9597-36.0359L66.9597-41.3512L84.5016-41.3512L84.5003-36.0359L84.5003-36.0359ZM84.5003-42.9469L66.9597-42.9469L66.9597-48.2623L84.5016-48.2623L84.5003-42.9469L84.5003-42.9469ZM84.5003-49.8553L66.9597-49.8553L66.9597-55.172L84.5016-55.172L84.5003-49.8553L84.5003-49.8553ZM104.167-8.39558L86.6269-8.39558L86.6269-13.7096L104.169-13.7096L104.167-8.39558L104.167-8.39558ZM104.167-15.3027L86.6269-15.3027L86.6269-20.6207L104.169-20.6207L104.167-15.3027L104.167-15.3027ZM104.167-22.2124L86.6269-22.2124L86.6269-27.5291L104.169-27.5291L104.167-22.2124L104.167-22.2124ZM104.167-29.1248L86.6269-29.1248L86.6269-34.4389L104.169-34.4389L104.167-29.1248L104.167-29.1248ZM104.167-36.0359L86.6269-36.0359L86.6269-41.3512L104.169-41.3512L104.167-36.0359L104.167-36.0359ZM123.837-8.39558L106.295-8.39558L106.295-13.7096L123.836-13.7096L123.836-8.39558L123.837-8.39558ZM123.837-15.3027L106.295-15.3027L106.295-20.6207L123.836-20.6207L123.836-15.3027L123.837-15.3027ZM123.837-22.2164L106.295-22.2164L106.295-27.5318L123.836-27.5318L123.836-22.2164L123.837-22.2164ZM123.837-29.1248L106.295-29.1248L106.295-34.4428L123.836-34.4428L123.836-29.1248L123.837-29.1248ZM123.837-36.0359L106.295-36.0359L106.295-41.3552L123.836-41.3552L123.836-36.0359L123.837-36.0359ZM123.837-42.9482L106.295-42.9482L106.295-48.2623L123.836-48.2623L123.836-42.9482L123.837-42.9482ZM123.837-49.8593L106.295-49.8593L106.295-55.1734L123.836-55.1734L123.836-49.8593L123.837-49.8593ZM106.295-56.769L106.295-62.0844L123.836-62.0844L123.836-56.769L106.295-56.769Z"/>
  </g>
  <g id="Regular-L" transform="matrix(1 0 0 1 1374.91 1556)">
   <path d="M74.93-98.84C39.8059-98.84 11.33-70.3654 11.33-35.24C11.33-0.114582 39.8059 28.36 74.93 28.36C110.054 28.36 138.53-0.114582 138.53-35.24C138.53-70.3654 110.054-98.84 74.93-98.84ZM44.7416-8.72905L27.4203-8.72905L27.4203-13.9771L44.7416-13.9771L44.7416-8.72905L44.7416-8.72905ZM44.7416-15.5504L27.4203-15.5504L27.4203-20.8023L44.7416-20.8023L44.7416-15.5504L44.7416-15.5504ZM44.7416-22.3743L27.4203-22.3743L27.4203-27.6249L44.7416-27.6249L44.7416-22.3743L44.7416-22.3743ZM44.7416-29.2008L27.4203-29.2008L27.4203-34.4488L44.7416-34.4488L44.7416-29.2008L44.7416-29.2008ZM44.7416-36.026L27.4203-36.026L27.4203-41.2753L44.7416-41.2753L44.7416-36.026L44.7416-36.026ZM64.1671-8.72905L46.8432-8.72905L46.8432-13.9771L64.1671-13.9771L64.1671-8.72905ZM64.1671-15.5504L46.8432-15.5504L46.8432-20.8023L64.1671-20.8023L64.1671-15.5504ZM64.1671-22.3743L46.8432-22.3743L46.8432-27.6249L64.1671-27.6249L64.1671-22.3743ZM83.5913-8.72905L66.2687-8.72905L66.2687-13.9771L83.5926-13.9771L83.5913-8.72905L83.5913-8.72905ZM83.5913-15.5504L66.2687-15.5504L66.2687-20.8023L83.5926-20.8023L83.5913-15.5504L83.5913-15.5504ZM83.5913-22.3743L66.2687-22.3743L66.2687-27.6249L83.5926-27.6249L83.5913-22.3743L83.5913-22.3743ZM83.5913-29.2008L66.2687-29.2008L66.2687-34.4488L83.5926-34.4488L83.5913-29.2008L83.5913-29.2008ZM83.5913-36.026L66.2687-36.026L66.2687-41.2753L83.5926-41.2753L83.5913-36.026L83.5913-36.026ZM83.5913-42.8512L66.2687-42.8512L66.2687-48.1005L83.5926-48.1005L83.5913-42.8512L83.5913-42.8512ZM83.5913-49.6738L66.2687-49.6738L66.2687-54.9244L83.5926-54.9244L83.5913-49.6738L83.5913-49.6738ZM103.014-8.72905L85.6916-8.72905L85.6916-13.9771L103.015-13.9771L103.014-8.72905L103.014-8.72905ZM103.014-15.5504L85.6916-15.5504L85.6916-20.8023L103.015-20.8023L103.014-15.5504L103.014-15.5504ZM103.014-22.3743L85.6916-22.3743L85.6916-27.6249L103.015-27.6249L103.014-22.3743L103.014-22.3743ZM103.014-29.2008L85.6916-29.2008L85.6916-34.4488L103.015-34.4488L103.014-29.2008L103.014-29.2008ZM103.014-36.026L85.6916-36.026L85.6916-41.2753L103.015-41.2753L103.014-36.026L103.014-36.026ZM122.44-8.72905L105.116-8.72905L105.116-13.9771L122.438-13.9771L122.438-8.72905L122.44-8.72905ZM122.44-15.5504L105.116-15.5504L105.116-20.8023L122.438-20.8023L122.438-15.5504L122.44-15.5504ZM122.44-22.3782L105.116-22.3782L105.116-27.6275L122.438-27.6275L122.438-22.3782L122.44-22.3782ZM122.44-29.2008L105.116-29.2008L105.116-34.4527L122.438-34.4527L122.438-29.2008L122.44-29.2008ZM122.44-36.026L105.116-36.026L105.116-41.2792L122.438-41.2792L122.438-36.026L122.44-36.026ZM122.44-42.8525L105.116-42.8525L105.116-48.1005L122.438-48.1005L122.438-42.8525L122.44-42.8525ZM122.44-49.6777L105.116-49.6777L105.116-54.9257L122.438-54.9257L122.438-49.6777L122.44-49.6777ZM105.116-56.5016L105.116-61.751L122.438-61.751L122.438-56.5016L105.116-56.5016Z"/>
  </g>
  <g id="Light-L" transform="matrix(1 0 0 1 1079.13 1556)">
   <path d="M74-97.92C39.3895-97.92 11.33-69.8618 11.33-35.25C11.33-0.638209 39.3895 27.42 74 27.42C108.611 27.42 136.67-0.638209 136.67-35.25C136.67-69.8618 108.611-97.92 74-97.92ZM44.2531-9.12671L27.185-9.12671L27.185-14.298L44.2531-14.298L44.2531-9.12671L44.2531-9.12671ZM44.2531-15.8483L27.185-15.8483L27.185-21.0234L44.2531-21.0234L44.2531-15.8483L44.2531-15.8483ZM44.2531-22.5724L27.185-22.5724L27.185-27.7463L44.2531-27.7463L44.2531-22.5724L44.2531-22.5724ZM44.2531-29.2991L27.185-29.2991L27.185-34.4704L44.2531-34.4704L44.2531-29.2991L44.2531-29.2991ZM44.2531-36.0245L27.185-36.0245L27.185-41.1971L44.2531-41.1971L44.2531-36.0245L44.2531-36.0245ZM63.3945-9.12671L46.3239-9.12671L46.3239-14.298L63.3945-14.298L63.3945-9.12671ZM63.3945-15.8483L46.3239-15.8483L46.3239-21.0234L63.3945-21.0234L63.3945-15.8483ZM63.3945-22.5724L46.3239-22.5724L46.3239-27.7463L63.3945-27.7463L63.3945-22.5724ZM82.5347-9.12671L65.4653-9.12671L65.4653-14.298L82.5359-14.298L82.5347-9.12671L82.5347-9.12671ZM82.5347-15.8483L65.4653-15.8483L65.4653-21.0234L82.5359-21.0234L82.5347-15.8483L82.5347-15.8483ZM82.5347-22.5724L65.4653-22.5724L65.4653-27.7463L82.5359-27.7463L82.5347-22.5724L82.5347-22.5724ZM82.5347-29.2991L65.4653-29.2991L65.4653-34.4704L82.5359-34.4704L82.5347-29.2991L82.5347-29.2991ZM82.5347-36.0245L65.4653-36.0245L65.4653-41.1971L82.5359-41.1971L82.5347-36.0245L82.5347-36.0245ZM82.5347-42.7499L65.4653-42.7499L65.4653-47.9225L82.5359-47.9225L82.5347-42.7499L82.5347-42.7499ZM82.5347-49.4727L65.4653-49.4727L65.4653-54.6466L82.5359-54.6466L82.5347-49.4727L82.5347-49.4727ZM101.674-9.12671L84.6042-9.12671L84.6042-14.298L101.675-14.298L101.674-9.12671L101.674-9.12671ZM101.674-15.8483L84.6042-15.8483L84.6042-21.0234L101.675-21.0234L101.674-15.8483L101.674-15.8483ZM101.674-22.5724L84.6042-22.5724L84.6042-27.7463L101.675-27.7463L101.674-22.5724L101.674-22.5724ZM101.674-29.2991L84.6042-29.2991L84.6042-34.4704L101.675-34.4704L101.674-29.2991L101.674-29.2991ZM101.674-36.0245L84.6042-36.0245L84.6042-41.1971L101.675-41.1971L101.674-36.0245L101.674-36.0245ZM120.815-9.12671L103.744-9.12671L103.744-14.298L120.814-14.298L120.814-9.12671L120.815-9.12671ZM120.815-15.8483L103.744-15.8483L103.744-21.0234L120.814-21.0234L120.814-15.8483L120.815-15.8483ZM120.815-22.5762L103.744-22.5762L103.744-27.7488L120.814-27.7488L120.814-22.5762L120.815-22.5762ZM120.815-29.2991L103.744-29.2991L103.744-34.4742L120.814-34.4742L120.814-29.2991L120.815-29.2991ZM120.815-36.0245L103.744-36.0245L103.744-41.2009L120.814-41.2009L120.814-36.0245L120.815-36.0245ZM120.815-42.7512L103.744-42.7512L103.744-47.9225L120.814-47.9225L120.814-42.7512L120.815-42.7512ZM120.815-49.4766L103.744-49.4766L103.744-54.6479L120.814-54.6479L120.814-49.4766L120.815-49.4766ZM103.744-56.2007L103.744-61.3733L120.814-61.3733L120.814-56.2007L103.744-56.2007Z"/>
  </g>
  <g id="Thin-L" transform="matrix(1 0 0 1 784.267 1556)">
   <path d="M72.15-96.09C38.5612-96.09 11.33-68.8601 11.33-35.27C11.33-1.67994 38.5612 25.55 72.15 25.55C105.739 25.55 132.97-1.67994 132.97-35.27C132.97-68.8601 105.739-96.09 72.15-96.09ZM43.2812-9.91786L26.717-9.91786L26.717-14.9365L43.2812-14.9365L43.2812-9.91786L43.2812-9.91786ZM43.2812-16.441L26.717-16.441L26.717-21.4634L43.2812-21.4634L43.2812-16.441L43.2812-16.441ZM43.2812-22.9666L26.717-22.9666L26.717-27.9878L43.2812-27.9878L43.2812-22.9666L43.2812-22.9666ZM43.2812-29.4947L26.717-29.4947L26.717-34.5134L43.2812-34.5134L43.2812-29.4947L43.2812-29.4947ZM43.2812-36.0216L26.717-36.0216L26.717-41.0415L43.2812-41.0415L43.2812-36.0216L43.2812-36.0216ZM61.8576-9.91786L45.2909-9.91786L45.2909-14.9365L61.8576-14.9365L61.8576-9.91786ZM61.8576-16.441L45.2909-16.441L45.2909-21.4634L61.8576-21.4634L61.8576-16.441ZM61.8576-22.9666L45.2909-22.9666L45.2909-27.9878L61.8576-27.9878L61.8576-22.9666ZM80.4327-9.91786L63.8673-9.91786L63.8673-14.9365L80.434-14.9365L80.4327-9.91786L80.4327-9.91786ZM80.4327-16.441L63.8673-16.441L63.8673-21.4634L80.434-21.4634L80.4327-16.441L80.4327-16.441ZM80.4327-22.9666L63.8673-22.9666L63.8673-27.9878L80.434-27.9878L80.4327-22.9666L80.4327-22.9666ZM80.4327-29.4947L63.8673-29.4947L63.8673-34.5134L80.434-34.5134L80.4327-29.4947L80.4327-29.4947ZM80.4327-36.0216L63.8673-36.0216L63.8673-41.0415L80.434-41.0415L80.4327-36.0216L80.4327-36.0216ZM80.4327-42.5485L63.8673-42.5485L63.8673-47.5684L80.434-47.5684L80.4327-42.5485L80.4327-42.5485ZM80.4327-49.0729L63.8673-49.0729L63.8673-54.094L80.434-54.094L80.4327-49.0729L80.4327-49.0729ZM99.0066-9.91786L82.4412-9.91786L82.4412-14.9365L99.0079-14.9365L99.0066-9.91786L99.0066-9.91786ZM99.0066-16.441L82.4412-16.441L82.4412-21.4634L99.0079-21.4634L99.0066-16.441L99.0066-16.441ZM99.0066-22.9666L82.4412-22.9666L82.4412-27.9878L99.0079-27.9878L99.0066-22.9666L99.0066-22.9666ZM99.0066-29.4947L82.4412-29.4947L82.4412-34.5134L99.0079-34.5134L99.0066-29.4947L99.0066-29.4947ZM99.0066-36.0216L82.4412-36.0216L82.4412-41.0415L99.0079-41.0415L99.0066-36.0216L99.0066-36.0216ZM117.583-9.91786L101.016-9.91786L101.016-14.9365L117.582-14.9365L117.582-9.91786L117.583-9.91786ZM117.583-16.441L101.016-16.441L101.016-21.4634L117.582-21.4634L117.582-16.441L117.583-16.441ZM117.583-22.9704L101.016-22.9704L101.016-27.9903L117.582-27.9903L117.582-22.9704L117.583-22.9704ZM117.583-29.4947L101.016-29.4947L101.016-34.5171L117.582-34.5171L117.582-29.4947L117.583-29.4947ZM117.583-36.0216L101.016-36.0216L101.016-41.0453L117.582-41.0453L117.582-36.0216L117.583-36.0216ZM117.583-42.5497L101.016-42.5497L101.016-47.5684L117.582-47.5684L117.582-42.5497L117.583-42.5497ZM117.583-49.0766L101.016-49.0766L101.016-54.0953L117.582-54.0953L117.582-49.0766L117.583-49.0766ZM101.016-55.6022L101.016-60.6221L117.582-60.6221L117.582-55.6022L101.016-55.6022Z"/>
  </g>
  <g id="Ultralight-L" transform="matrix(1 0 0 1 486.926 1556)">
   <path d="M72.78-96.71C38.8433-96.71 11.33-69.198 11.33-35.26C11.33-1.322 38.8433 26.19 72.78 26.19C106.717 26.19 134.23-1.322 134.23-35.26C134.23-69.198 106.717-96.71 72.78-96.71ZM43.6122-9.64525L26.8764-9.64525L26.8764-14.7159L43.6122-14.7159L43.6122-9.64525L43.6122-9.64525ZM43.6122-16.236L26.8764-16.236L26.8764-21.3104L43.6122-21.3104L43.6122-16.236L43.6122-16.236ZM43.6122-22.8292L26.8764-22.8292L26.8764-27.9023L43.6122-27.9023L43.6122-22.8292L43.6122-22.8292ZM43.6122-29.4249L26.8764-29.4249L26.8764-34.4956L43.6122-34.4956L43.6122-29.4249L43.6122-29.4249ZM43.6122-36.0194L26.8764-36.0194L26.8764-41.0913L43.6122-41.0913L43.6122-36.0194L43.6122-36.0194ZM62.381-9.64525L45.6427-9.64525L45.6427-14.7159L62.381-14.7159L62.381-9.64525ZM62.381-16.236L45.6427-16.236L45.6427-21.3104L62.381-21.3104L62.381-16.236ZM62.381-22.8292L45.6427-22.8292L45.6427-27.9023L62.381-27.9023L62.381-22.8292ZM81.1485-9.64525L64.4115-9.64525L64.4115-14.7159L81.1498-14.7159L81.1485-9.64525L81.1485-9.64525ZM81.1485-16.236L64.4115-16.236L64.4115-21.3104L81.1498-21.3104L81.1485-16.236L81.1485-16.236ZM81.1485-22.8292L64.4115-22.8292L64.4115-27.9023L81.1498-27.9023L81.1485-22.8292L81.1485-22.8292ZM81.1485-29.4249L64.4115-29.4249L64.4115-34.4956L81.1498-34.4956L81.1485-29.4249L81.1485-29.4249ZM81.1485-36.0194L64.4115-36.0194L64.4115-41.0913L81.1498-41.0913L81.1485-36.0194L81.1485-36.0194ZM81.1485-42.6139L64.4115-42.6139L64.4115-47.6858L81.1498-47.6858L81.1485-42.6139L81.1485-42.6139ZM81.1485-49.2058L64.4115-49.2058L64.4115-54.279L81.1498-54.279L81.1485-49.2058L81.1485-49.2058ZM99.9148-9.64525L83.1778-9.64525L83.1778-14.7159L99.9161-14.7159L99.9148-9.64525L99.9148-9.64525ZM99.9148-16.236L83.1778-16.236L83.1778-21.3104L99.9161-21.3104L99.9148-16.236L99.9148-16.236ZM99.9148-22.8292L83.1778-22.8292L83.1778-27.9023L99.9161-27.9023L99.9148-22.8292L99.9148-22.8292ZM99.9148-29.4249L83.1778-29.4249L83.1778-34.4956L99.9161-34.4956L99.9148-29.4249L99.9148-29.4249ZM99.9148-36.0194L83.1778-36.0194L83.1778-41.0913L99.9161-41.0913L99.9148-36.0194L99.9148-36.0194ZM118.684-9.64525L101.945-9.64525L101.945-14.7159L118.682-14.7159L118.682-9.64525L118.684-9.64525ZM118.684-16.236L101.945-16.236L101.945-21.3104L118.682-21.3104L118.682-16.236L118.684-16.236ZM118.684-22.833L101.945-22.833L101.945-27.9049L118.682-27.9049L118.682-22.833L118.684-22.833ZM118.684-29.4249L101.945-29.4249L101.945-34.4993L118.682-34.4993L118.682-29.4249L118.684-29.4249ZM118.684-36.0194L101.945-36.0194L101.945-41.0951L118.682-41.0951L118.682-36.0194L118.684-36.0194ZM118.684-42.6151L101.945-42.6151L101.945-47.6858L118.682-47.6858L118.682-42.6151L118.684-42.6151ZM118.684-49.2096L101.945-49.2096L101.945-54.2803L118.682-54.2803L118.682-49.2096L118.684-49.2096ZM101.945-55.8028L101.945-60.8747L118.682-60.8747L118.682-55.8028L101.945-55.8028Z"/>
  </g>
  <g id="Black-M" transform="matrix(1 0 0 1 2868.75 1126)">
   <path d="M64.65-88.52C35.2032-88.52 11.33-64.6479 11.33-35.2C11.33-5.75209 35.2032 18.12 64.65 18.12C94.0968 18.12 117.97-5.75209 117.97-35.2C117.97-64.6479 94.0968-88.52 64.65-88.52ZM39.3411-12.9742L24.8196-12.9742L24.8196-17.3739L39.3411-17.3739L39.3411-12.9742L39.3411-12.9742ZM39.3411-18.6929L24.8196-18.6929L24.8196-23.096L39.3411-23.096L39.3411-18.6929L39.3411-18.6929ZM39.3411-24.4138L24.8196-24.4138L24.8196-28.8158L39.3411-28.8158L39.3411-24.4138L39.3411-24.4138ZM39.3411-30.1369L24.8196-30.1369L24.8196-34.5367L39.3411-34.5367L39.3411-30.1369L39.3411-30.1369ZM39.3411-35.8589L24.8196-35.8589L24.8196-40.2598L39.3411-40.2598L39.3411-35.8589L39.3411-35.8589ZM55.6268-12.9742L41.103-12.9742L41.103-17.3739L55.6268-17.3739L55.6268-12.9742ZM55.6268-18.6929L41.103-18.6929L41.103-23.096L55.6268-23.096L55.6268-18.6929ZM55.6268-24.4138L41.103-24.4138L41.103-28.8158L55.6268-28.8158L55.6268-24.4138ZM71.9113-12.9742L57.3887-12.9742L57.3887-17.3739L71.9124-17.3739L71.9113-12.9742L71.9113-12.9742ZM71.9113-18.6929L57.3887-18.6929L57.3887-23.096L71.9124-23.096L71.9113-18.6929L71.9113-18.6929ZM71.9113-24.4138L57.3887-24.4138L57.3887-28.8158L71.9124-28.8158L71.9113-24.4138L71.9113-24.4138ZM71.9113-30.1369L57.3887-30.1369L57.3887-34.5367L71.9124-34.5367L71.9113-30.1369L71.9113-30.1369ZM71.9113-35.8589L57.3887-35.8589L57.3887-40.2598L71.9124-40.2598L71.9113-35.8589L71.9113-35.8589ZM71.9113-41.5809L57.3887-41.5809L57.3887-45.9818L71.9124-45.9818L71.9113-41.5809L71.9113-41.5809ZM71.9113-47.3008L57.3887-47.3008L57.3887-51.7027L71.9124-51.7027L71.9113-47.3008L71.9113-47.3008ZM88.1948-12.9742L73.6721-12.9742L73.6721-17.3739L88.1959-17.3739L88.1948-12.9742L88.1948-12.9742ZM88.1948-18.6929L73.6721-18.6929L73.6721-23.096L88.1959-23.096L88.1948-18.6929L88.1948-18.6929ZM88.1948-24.4138L73.6721-24.4138L73.6721-28.8158L88.1959-28.8158L88.1948-24.4138L88.1948-24.4138ZM88.1948-30.1369L73.6721-30.1369L73.6721-34.5367L88.1959-34.5367L88.1948-30.1369L88.1948-30.1369ZM88.1948-35.8589L73.6721-35.8589L73.6721-40.2598L88.1959-40.2598L88.1948-35.8589L88.1948-35.8589ZM104.48-12.9742L89.9567-12.9742L89.9567-17.3739L104.479-17.3739L104.479-12.9742L104.48-12.9742ZM104.48-18.6929L89.9567-18.6929L89.9567-23.096L104.479-23.096L104.479-18.6929L104.48-18.6929ZM104.48-24.4171L89.9567-24.4171L89.9567-28.818L104.479-28.818L104.479-24.4171L104.48-24.4171ZM104.48-30.1369L89.9567-30.1369L89.9567-34.54L104.479-34.54L104.479-30.1369L104.48-30.1369ZM104.48-35.8589L89.9567-35.8589L89.9567-40.2631L104.479-40.2631L104.479-35.8589L104.48-35.8589ZM104.48-41.582L89.9567-41.582L89.9567-45.9818L104.479-45.9818L104.479-41.582L104.48-41.582ZM104.48-47.304L89.9567-47.304L89.9567-51.7038L104.479-51.7038L104.479-47.304L104.48-47.304ZM89.9567-53.025L89.9567-57.4258L104.479-57.4258L104.479-53.025L89.9567-53.025Z"/>
  </g>
  <g id="Heavy-M" transform="matrix(1 0 0 1 2572.86 1126)">
   <path d="M63.82-87.7C34.8316-87.7 11.33-64.1995 11.33-35.21C11.33-6.22048 34.8316 17.28 63.82 17.28C92.8084 17.28 116.31-6.22048 116.31-35.21C116.31-64.1995 92.8084-87.7 63.82-87.7ZM38.9051-13.3301L24.6096-13.3301L24.6096-17.6614L38.9051-17.6614L38.9051-13.3301L38.9051-13.3301ZM38.9051-18.9598L24.6096-18.9598L24.6096-23.2944L38.9051-23.2944L38.9051-18.9598L38.9051-18.9598ZM38.9051-24.5917L24.6096-24.5917L24.6096-28.9252L38.9051-28.9252L38.9051-24.5917L38.9051-24.5917ZM38.9051-30.2257L24.6096-30.2257L24.6096-34.557L38.9051-34.557L38.9051-30.2257L38.9051-30.2257ZM38.9051-35.8587L24.6096-35.8587L24.6096-40.191L38.9051-40.191L38.9051-35.8587L38.9051-35.8587ZM54.9372-13.3301L40.6396-13.3301L40.6396-17.6614L54.9372-17.6614L54.9372-13.3301ZM54.9372-18.9598L40.6396-18.9598L40.6396-23.2944L54.9372-23.2944L54.9372-18.9598ZM54.9372-24.5917L40.6396-24.5917L40.6396-28.9252L54.9372-28.9252L54.9372-24.5917ZM70.9683-13.3301L56.6717-13.3301L56.6717-17.6614L70.9694-17.6614L70.9683-13.3301L70.9683-13.3301ZM70.9683-18.9598L56.6717-18.9598L56.6717-23.2944L70.9694-23.2944L70.9683-18.9598L70.9683-18.9598ZM70.9683-24.5917L56.6717-24.5917L56.6717-28.9252L70.9694-28.9252L70.9683-24.5917L70.9683-24.5917ZM70.9683-30.2257L56.6717-30.2257L56.6717-34.557L70.9694-34.557L70.9683-30.2257L70.9683-30.2257ZM70.9683-35.8587L56.6717-35.8587L56.6717-40.191L70.9694-40.191L70.9683-35.8587L70.9683-35.8587ZM70.9683-41.4916L56.6717-41.4916L56.6717-45.824L70.9694-45.824L70.9683-41.4916L70.9683-41.4916ZM70.9683-47.1224L56.6717-47.1224L56.6717-51.4559L70.9694-51.4559L70.9683-47.1224L70.9683-47.1224ZM86.9983-13.3301L72.7017-13.3301L72.7017-17.6614L86.9994-17.6614L86.9983-13.3301L86.9983-13.3301ZM86.9983-18.9598L72.7017-18.9598L72.7017-23.2944L86.9994-23.2944L86.9983-18.9598L86.9983-18.9598ZM86.9983-24.5917L72.7017-24.5917L72.7017-28.9252L86.9994-28.9252L86.9983-24.5917L86.9983-24.5917ZM86.9983-30.2257L72.7017-30.2257L72.7017-34.557L86.9994-34.557L86.9983-30.2257L86.9983-30.2257ZM86.9983-35.8587L72.7017-35.8587L72.7017-40.191L86.9994-40.191L86.9983-35.8587L86.9983-35.8587ZM103.03-13.3301L88.7327-13.3301L88.7327-17.6614L103.029-17.6614L103.029-13.3301L103.03-13.3301ZM103.03-18.9598L88.7327-18.9598L88.7327-23.2944L103.029-23.2944L103.029-18.9598L103.03-18.9598ZM103.03-24.5949L88.7327-24.5949L88.7327-28.9273L103.029-28.9273L103.029-24.5949L103.03-24.5949ZM103.03-30.2257L88.7327-30.2257L88.7327-34.5603L103.029-34.5603L103.029-30.2257L103.03-30.2257ZM103.03-35.8587L88.7327-35.8587L88.7327-40.1943L103.029-40.1943L103.029-35.8587L103.03-35.8587ZM103.03-41.4927L88.7327-41.4927L88.7327-45.824L103.029-45.824L103.029-41.4927L103.03-41.4927ZM103.03-47.1256L88.7327-47.1256L88.7327-51.4569L103.029-51.4569L103.029-47.1256L103.03-47.1256ZM88.7327-52.7575L88.7327-57.0899L103.029-57.0899L103.029-52.7575L88.7327-52.7575Z"/>
  </g>
  <g id="Bold-M" transform="matrix(1 0 0 1 2277.08 1126)">
   <path d="M62.89-86.78C34.4152-86.78 11.33-63.6959 11.33-35.22C11.33-6.74411 34.4152 16.34 62.89 16.34C91.3648 16.34 114.45-6.74411 114.45-35.22C114.45-63.6959 91.3648-86.78 62.89-86.78ZM38.4165-13.7278L24.3743-13.7278L24.3743-17.9823L38.4165-17.9823L38.4165-13.7278L38.4165-13.7278ZM38.4165-19.2578L24.3743-19.2578L24.3743-23.5155L38.4165-23.5155L38.4165-19.2578L38.4165-19.2578ZM38.4165-24.7898L24.3743-24.7898L24.3743-29.0465L38.4165-29.0465L38.4165-24.7898L38.4165-24.7898ZM38.4165-30.324L24.3743-30.324L24.3743-34.5786L38.4165-34.5786L38.4165-30.324L38.4165-30.324ZM38.4165-35.8572L24.3743-35.8572L24.3743-40.1128L38.4165-40.1128L38.4165-35.8572L38.4165-35.8572ZM54.1646-13.7278L40.1203-13.7278L40.1203-17.9823L54.1646-17.9823L54.1646-13.7278ZM54.1646-19.2578L40.1203-19.2578L40.1203-23.5155L54.1646-23.5155L54.1646-19.2578ZM54.1646-24.7898L40.1203-24.7898L40.1203-29.0465L54.1646-29.0465L54.1646-24.7898ZM69.9117-13.7278L55.8683-13.7278L55.8683-17.9823L69.9127-17.9823L69.9117-13.7278L69.9117-13.7278ZM69.9117-19.2578L55.8683-19.2578L55.8683-23.5155L69.9127-23.5155L69.9117-19.2578L69.9117-19.2578ZM69.9117-24.7898L55.8683-24.7898L55.8683-29.0465L69.9127-29.0465L69.9117-24.7898L69.9117-24.7898ZM69.9117-30.324L55.8683-30.324L55.8683-34.5786L69.9127-34.5786L69.9117-30.324L69.9117-30.324ZM69.9117-35.8572L55.8683-35.8572L55.8683-40.1128L69.9127-40.1128L69.9117-35.8572L69.9117-35.8572ZM69.9117-41.3903L55.8683-41.3903L55.8683-45.6459L69.9127-45.6459L69.9117-41.3903L69.9117-41.3903ZM69.9117-46.9214L55.8683-46.9214L55.8683-51.178L69.9127-51.178L69.9117-46.9214L69.9117-46.9214ZM85.6576-13.7278L71.6143-13.7278L71.6143-17.9823L85.6587-17.9823L85.6576-13.7278L85.6576-13.7278ZM85.6576-19.2578L71.6143-19.2578L71.6143-23.5155L85.6587-23.5155L85.6576-19.2578L85.6576-19.2578ZM85.6576-24.7898L71.6143-24.7898L71.6143-29.0465L85.6587-29.0465L85.6576-24.7898L85.6576-24.7898ZM85.6576-30.324L71.6143-30.324L71.6143-34.5786L85.6587-34.5786L85.6576-30.324L85.6576-30.324ZM85.6576-35.8572L71.6143-35.8572L71.6143-40.1128L85.6587-40.1128L85.6576-35.8572L85.6576-35.8572ZM101.406-13.7278L87.3614-13.7278L87.3614-17.9823L101.405-17.9823L101.405-13.7278L101.406-13.7278ZM101.406-19.2578L87.3614-19.2578L87.3614-23.5155L101.405-23.5155L101.405-19.2578L101.406-19.2578ZM101.406-24.793L87.3614-24.793L87.3614-29.0486L101.405-29.0486L101.405-24.793L101.406-24.793ZM101.406-30.324L87.3614-30.324L87.3614-34.5818L101.405-34.5818L101.405-30.324L101.406-30.324ZM101.406-35.8572L87.3614-35.8572L87.3614-40.116L101.405-40.116L101.405-35.8572L101.406-35.8572ZM101.406-41.3914L87.3614-41.3914L87.3614-45.6459L101.405-45.6459L101.405-41.3914L101.406-41.3914ZM101.406-46.9245L87.3614-46.9245L87.3614-51.1791L101.405-51.1791L101.405-46.9245L101.406-46.9245ZM87.3614-52.4566L87.3614-56.7122L101.405-56.7122L101.405-52.4566L87.3614-52.4566Z"/>
  </g>
  <g id="Semibold-M" transform="matrix(1 0 0 1 1981.01 1126)">
   <path d="M62.25-86.14C34.1286-86.14 11.33-63.3424 11.33-35.22C11.33-7.09757 34.1286 15.7 62.25 15.7C90.3714 15.7 113.17-7.09757 113.17-35.22C113.17-63.3424 90.3714-86.14 62.25-86.14ZM38.0803-13.9946L24.2124-13.9946L24.2124-18.1963L38.0803-18.1963L38.0803-13.9946L38.0803-13.9946ZM38.0803-19.4559L24.2124-19.4559L24.2124-23.6608L38.0803-23.6608L38.0803-19.4559L38.0803-19.4559ZM38.0803-24.9193L24.2124-24.9193L24.2124-29.1231L38.0803-29.1231L38.0803-24.9193L38.0803-24.9193ZM38.0803-30.3848L24.2124-30.3848L24.2124-34.5866L38.0803-34.5866L38.0803-30.3848L38.0803-30.3848ZM38.0803-35.8493L24.2124-35.8493L24.2124-40.0521L38.0803-40.0521L38.0803-35.8493L38.0803-35.8493ZM53.6329-13.9946L39.7629-13.9946L39.7629-18.1963L53.6329-18.1963L53.6329-13.9946ZM53.6329-19.4559L39.7629-19.4559L39.7629-23.6608L53.6329-23.6608L53.6329-19.4559ZM53.6329-24.9193L39.7629-24.9193L39.7629-29.1231L53.6329-29.1231L53.6329-24.9193ZM69.1845-13.9946L55.3155-13.9946L55.3155-18.1963L69.1855-18.1963L69.1845-13.9946L69.1845-13.9946ZM69.1845-19.4559L55.3155-19.4559L55.3155-23.6608L69.1855-23.6608L69.1845-19.4559L69.1845-19.4559ZM69.1845-24.9193L55.3155-24.9193L55.3155-29.1231L69.1855-29.1231L69.1845-24.9193L69.1845-24.9193ZM69.1845-30.3848L55.3155-30.3848L55.3155-34.5866L69.1855-34.5866L69.1845-30.3848L69.1845-30.3848ZM69.1845-35.8493L55.3155-35.8493L55.3155-40.0521L69.1855-40.0521L69.1845-35.8493L69.1845-35.8493ZM69.1845-41.3137L55.3155-41.3137L55.3155-45.5165L69.1855-45.5165L69.1845-41.3137L69.1845-41.3137ZM69.1845-46.7761L55.3155-46.7761L55.3155-50.9799L69.1855-50.9799L69.1845-46.7761L69.1845-46.7761ZM84.735-13.9946L70.866-13.9946L70.866-18.1963L84.7361-18.1963L84.735-13.9946L84.735-13.9946ZM84.735-19.4559L70.866-19.4559L70.866-23.6608L84.7361-23.6608L84.735-19.4559L84.735-19.4559ZM84.735-24.9193L70.866-24.9193L70.866-29.1231L84.7361-29.1231L84.735-24.9193L84.735-24.9193ZM84.735-30.3848L70.866-30.3848L70.866-34.5866L84.7361-34.5866L84.735-30.3848L84.735-30.3848ZM84.735-35.8493L70.866-35.8493L70.866-40.0521L84.7361-40.0521L84.735-35.8493L84.735-35.8493ZM100.288-13.9946L86.4176-13.9946L86.4176-18.1963L100.287-18.1963L100.287-13.9946L100.288-13.9946ZM100.288-19.4559L86.4176-19.4559L86.4176-23.6608L100.287-23.6608L100.287-19.4559L100.288-19.4559ZM100.288-24.9224L86.4176-24.9224L86.4176-29.1252L100.287-29.1252L100.287-24.9224L100.288-24.9224ZM100.288-30.3848L86.4176-30.3848L86.4176-34.5897L100.287-34.5897L100.287-30.3848L100.288-30.3848ZM100.288-35.8493L86.4176-35.8493L86.4176-40.0552L100.287-40.0552L100.287-35.8493L100.288-35.8493ZM100.288-41.3148L86.4176-41.3148L86.4176-45.5165L100.287-45.5165L100.287-41.3148L100.288-41.3148ZM100.288-46.7792L86.4176-46.7792L86.4176-50.981L100.287-50.981L100.287-46.7792L100.288-46.7792ZM86.4176-52.2426L86.4176-56.4454L100.287-56.4454L100.287-52.2426L86.4176-52.2426Z"/>
  </g>
  <g id="Medium-M" transform="matrix(1 0 0 1 1684.79 1126)">
   <path d="M61.765-85.66C33.9115-85.66 11.33-63.0796 11.33-35.225C11.33-7.37043 33.9115 15.21 61.765 15.21C89.6185 15.21 112.2-7.37043 112.2-35.225C112.2-63.0796 89.6185-85.66 61.765-85.66ZM37.8255-14.2017L24.0897-14.2017L24.0897-18.3635L37.8255-18.3635L37.8255-14.2017L37.8255-14.2017ZM37.8255-19.611L24.0897-19.611L24.0897-23.7759L37.8255-23.7759L37.8255-19.611L37.8255-19.611ZM37.8255-25.0224L24.0897-25.0224L24.0897-29.1862L37.8255-29.1862L37.8255-25.0224L37.8255-25.0224ZM37.8255-30.4359L24.0897-30.4359L24.0897-34.5976L37.8255-34.5976L37.8255-30.4359L37.8255-30.4359ZM37.8255-35.8483L24.0897-35.8483L24.0897-40.011L37.8255-40.011L37.8255-35.8483L37.8255-35.8483ZM53.23-14.2017L39.4921-14.2017L39.4921-18.3635L53.23-18.3635L53.23-14.2017ZM53.23-19.611L39.4921-19.611L39.4921-23.7759L53.23-23.7759L53.23-19.611ZM53.23-25.0224L39.4921-25.0224L39.4921-29.1862L53.23-29.1862L53.23-25.0224ZM68.6334-14.2017L54.8966-14.2017L54.8966-18.3635L68.6345-18.3635L68.6334-14.2017L68.6334-14.2017ZM68.6334-19.611L54.8966-19.611L54.8966-23.7759L68.6345-23.7759L68.6334-19.611L68.6334-19.611ZM68.6334-25.0224L54.8966-25.0224L54.8966-29.1862L68.6345-29.1862L68.6334-25.0224L68.6334-25.0224ZM68.6334-30.4359L54.8966-30.4359L54.8966-34.5976L68.6345-34.5976L68.6334-30.4359L68.6334-30.4359ZM68.6334-35.8483L54.8966-35.8483L54.8966-40.011L68.6345-40.011L68.6334-35.8483L68.6334-35.8483ZM68.6334-41.2607L54.8966-41.2607L54.8966-45.4234L68.6345-45.4234L68.6334-41.2607L68.6334-41.2607ZM68.6334-46.671L54.8966-46.671L54.8966-50.8348L68.6345-50.8348L68.6334-46.671L68.6334-46.671ZM84.0359-14.2017L70.299-14.2017L70.299-18.3635L84.0369-18.3635L84.0359-14.2017L84.0359-14.2017ZM84.0359-19.611L70.299-19.611L70.299-23.7759L84.0369-23.7759L84.0359-19.611L84.0359-19.611ZM84.0359-25.0224L70.299-25.0224L70.299-29.1862L84.0369-29.1862L84.0359-25.0224L84.0359-25.0224ZM84.0359-30.4359L70.299-30.4359L70.299-34.5976L84.0369-34.5976L84.0359-30.4359L84.0359-30.4359ZM84.0359-35.8483L70.299-35.8483L70.299-40.011L84.0369-40.011L84.0359-35.8483L84.0359-35.8483ZM99.4403-14.2017L85.7024-14.2017L85.7024-18.3635L99.4393-18.3635L99.4393-14.2017L99.4403-14.2017ZM99.4403-19.611L85.7024-19.611L85.7024-23.7759L99.4393-23.7759L99.4393-19.611L99.4403-19.611ZM99.4403-25.0255L85.7024-25.0255L85.7024-29.1883L99.4393-29.1883L99.4393-25.0255L99.4403-25.0255ZM99.4403-30.4359L85.7024-30.4359L85.7024-34.6007L99.4393-34.6007L99.4393-30.4359L99.4403-30.4359ZM99.4403-35.8483L85.7024-35.8483L85.7024-40.0141L99.4393-40.0141L99.4393-35.8483L99.4403-35.8483ZM99.4403-41.2617L85.7024-41.2617L85.7024-45.4234L99.4393-45.4234L99.4393-41.2617L99.4403-41.2617ZM99.4403-46.6741L85.7024-46.6741L85.7024-50.8359L99.4393-50.8359L99.4393-46.6741L99.4403-46.6741ZM85.7024-52.0855L85.7024-56.2483L99.4393-56.2483L99.4393-52.0855L85.7024-52.0855Z"/>
  </g>
  <g id="Regular-M" transform="matrix(1 0 0 1 1388.71 1126)">
   <path d="M61.13-85.03C33.6272-85.03 11.33-62.7339 11.33-35.23C11.33-7.72613 33.6272 14.57 61.13 14.57C88.6328 14.57 110.93-7.72613 110.93-35.23C110.93-62.7339 88.6328-85.03 61.13-85.03ZM37.4919-14.4714L23.929-14.4714L23.929-18.5808L37.4919-18.5808L37.4919-14.4714L37.4919-14.4714ZM37.4919-19.8126L23.929-19.8126L23.929-23.925L37.4919-23.925L37.4919-19.8126L37.4919-19.8126ZM37.4919-25.1559L23.929-25.1559L23.929-29.2672L37.4919-29.2672L37.4919-25.1559L37.4919-25.1559ZM37.4919-30.5012L23.929-30.5012L23.929-34.6105L37.4919-34.6105L37.4919-30.5012L37.4919-30.5012ZM37.4919-35.8454L23.929-35.8454L23.929-39.9558L37.4919-39.9558L37.4919-35.8454L37.4919-35.8454ZM52.7025-14.4714L39.1375-14.4714L39.1375-18.5808L52.7025-18.5808L52.7025-14.4714ZM52.7025-19.8126L39.1375-19.8126L39.1375-23.925L52.7025-23.925L52.7025-19.8126ZM52.7025-25.1559L39.1375-25.1559L39.1375-29.2672L52.7025-29.2672L52.7025-25.1559ZM67.912-14.4714L54.348-14.4714L54.348-18.5808L67.913-18.5808L67.912-14.4714L67.912-14.4714ZM67.912-19.8126L54.348-19.8126L54.348-23.925L67.913-23.925L67.912-19.8126L67.912-19.8126ZM67.912-25.1559L54.348-25.1559L54.348-29.2672L67.913-29.2672L67.912-25.1559L67.912-25.1559ZM67.912-30.5012L54.348-30.5012L54.348-34.6105L67.913-34.6105L67.912-30.5012L67.912-30.5012ZM67.912-35.8454L54.348-35.8454L54.348-39.9558L67.913-39.9558L67.912-35.8454L67.912-35.8454ZM67.912-41.1897L54.348-41.1897L54.348-45.3L67.913-45.3L67.912-41.1897L67.912-41.1897ZM67.912-46.5319L54.348-46.5319L54.348-50.6433L67.913-50.6433L67.912-46.5319L67.912-46.5319ZM83.1205-14.4714L69.5565-14.4714L69.5565-18.5808L83.1215-18.5808L83.1205-14.4714L83.1205-14.4714ZM83.1205-19.8126L69.5565-19.8126L69.5565-23.925L83.1215-23.925L83.1205-19.8126L83.1205-19.8126ZM83.1205-25.1559L69.5565-25.1559L69.5565-29.2672L83.1215-29.2672L83.1205-25.1559L83.1205-25.1559ZM83.1205-30.5012L69.5565-30.5012L69.5565-34.6105L83.1215-34.6105L83.1205-30.5012L83.1205-30.5012ZM83.1205-35.8454L69.5565-35.8454L69.5565-39.9558L83.1215-39.9558L83.1205-35.8454L83.1205-35.8454ZM98.331-14.4714L84.766-14.4714L84.766-18.5808L98.33-18.5808L98.33-14.4714L98.331-14.4714ZM98.331-19.8126L84.766-19.8126L84.766-23.925L98.33-23.925L98.33-19.8126L98.331-19.8126ZM98.331-25.1589L84.766-25.1589L84.766-29.2693L98.33-29.2693L98.33-25.1589L98.331-25.1589ZM98.331-30.5012L84.766-30.5012L84.766-34.6135L98.33-34.6135L98.33-30.5012L98.331-30.5012ZM98.331-35.8454L84.766-35.8454L84.766-39.9588L98.33-39.9588L98.33-35.8454L98.331-35.8454ZM98.331-41.1907L84.766-41.1907L84.766-45.3L98.33-45.3L98.33-41.1907L98.331-41.1907ZM98.331-46.535L84.766-46.535L84.766-50.6443L98.33-50.6443L98.33-46.535L98.331-46.535ZM84.766-51.8782L84.766-55.9886L98.33-55.9886L98.33-51.8782L84.766-51.8782Z"/>
  </g>
  <g id="Light-M" transform="matrix(1 0 0 1 1092.83 1126)">
   <path d="M60.3-84.21C33.2555-84.21 11.33-62.2855 11.33-35.24C11.33-8.19453 33.2555 13.73 60.3 13.73C87.3445 13.73 109.27-8.19453 109.27-35.24C109.27-62.2855 87.3445-84.21 60.3-84.21ZM37.0559-14.8274L23.719-14.8274L23.719-18.8682L37.0559-18.8682L37.0559-14.8274L37.0559-14.8274ZM37.0559-20.0796L23.719-20.0796L23.719-24.1234L37.0559-24.1234L37.0559-20.0796L37.0559-20.0796ZM37.0559-25.3338L23.719-25.3338L23.719-29.3766L37.0559-29.3766L37.0559-25.3338L37.0559-25.3338ZM37.0559-30.59L23.719-30.59L23.719-34.6308L37.0559-34.6308L37.0559-30.59L37.0559-30.59ZM37.0559-35.8452L23.719-35.8452L23.719-39.887L37.0559-39.887L37.0559-35.8452L37.0559-35.8452ZM52.0129-14.8274L38.674-14.8274L38.674-18.8682L52.0129-18.8682L52.0129-14.8274ZM52.0129-20.0796L38.674-20.0796L38.674-24.1234L52.0129-24.1234L52.0129-20.0796ZM52.0129-25.3338L38.674-25.3338L38.674-29.3766L52.0129-29.3766L52.0129-25.3338ZM66.9689-14.8274L53.6311-14.8274L53.6311-18.8682L66.9699-18.8682L66.9689-14.8274L66.9689-14.8274ZM66.9689-20.0796L53.6311-20.0796L53.6311-24.1234L66.9699-24.1234L66.9689-20.0796L66.9689-20.0796ZM66.9689-25.3338L53.6311-25.3338L53.6311-29.3766L66.9699-29.3766L66.9689-25.3338L66.9689-25.3338ZM66.9689-30.59L53.6311-30.59L53.6311-34.6308L66.9699-34.6308L66.9689-30.59L66.9689-30.59ZM66.9689-35.8452L53.6311-35.8452L53.6311-39.887L66.9699-39.887L66.9689-35.8452L66.9689-35.8452ZM66.9689-41.1004L53.6311-41.1004L53.6311-45.1422L66.9699-45.1422L66.9689-41.1004L66.9689-41.1004ZM66.9689-46.3536L53.6311-46.3536L53.6311-50.3964L66.9699-50.3964L66.9689-46.3536L66.9689-46.3536ZM81.9239-14.8274L68.5861-14.8274L68.5861-18.8682L81.925-18.8682L81.9239-14.8274L81.9239-14.8274ZM81.9239-20.0796L68.5861-20.0796L68.5861-24.1234L81.925-24.1234L81.9239-20.0796L81.9239-20.0796ZM81.9239-25.3338L68.5861-25.3338L68.5861-29.3766L81.925-29.3766L81.9239-25.3338L81.9239-25.3338ZM81.9239-30.59L68.5861-30.59L68.5861-34.6308L81.925-34.6308L81.9239-30.59L81.9239-30.59ZM81.9239-35.8452L68.5861-35.8452L68.5861-39.887L81.925-39.887L81.9239-35.8452L81.9239-35.8452ZM96.881-14.8274L83.5421-14.8274L83.5421-18.8682L96.88-18.8682L96.88-14.8274L96.881-14.8274ZM96.881-20.0796L83.5421-20.0796L83.5421-24.1234L96.88-24.1234L96.88-20.0796L96.881-20.0796ZM96.881-25.3368L83.5421-25.3368L83.5421-29.3786L96.88-29.3786L96.88-25.3368L96.881-25.3368ZM96.881-30.59L83.5421-30.59L83.5421-34.6338L96.88-34.6338L96.88-30.59L96.881-30.59ZM96.881-35.8452L83.5421-35.8452L83.5421-39.89L96.88-39.89L96.88-35.8452L96.881-35.8452ZM96.881-41.1014L83.5421-41.1014L83.5421-45.1422L96.88-45.1422L96.88-41.1014L96.881-41.1014ZM96.881-46.3566L83.5421-46.3566L83.5421-50.3974L96.88-50.3974L96.88-46.3566L96.881-46.3566ZM83.5421-51.6108L83.5421-55.6526L96.88-55.6526L96.88-51.6108L83.5421-51.6108Z"/>
  </g>
  <g id="Thin-M" transform="matrix(1 0 0 1 797.217 1126)">
   <path d="M59.2-83.13C32.763-83.13 11.33-61.698 11.33-35.26C11.33-8.82205 32.763 12.61 59.2 12.61C85.637 12.61 107.07-8.82205 107.07-35.26C107.07-61.698 85.637-83.13 59.2-83.13ZM36.478-15.3059L23.4407-15.3059L23.4407-19.256L36.478-19.256L36.478-15.3059L36.478-15.3059ZM36.478-20.4401L23.4407-20.4401L23.4407-24.3931L36.478-24.3931L36.478-20.4401L36.478-20.4401ZM36.478-25.5763L23.4407-25.5763L23.4407-29.5283L36.478-29.5283L36.478-25.5763L36.478-25.5763ZM36.478-30.7144L23.4407-30.7144L23.4407-34.6645L36.478-34.6645L36.478-30.7144L36.478-30.7144ZM36.478-35.8516L23.4407-35.8516L23.4407-39.8026L36.478-39.8026L36.478-35.8516L36.478-35.8516ZM51.0991-15.3059L38.0598-15.3059L38.0598-19.256L51.0991-19.256L51.0991-15.3059ZM51.0991-20.4401L38.0598-20.4401L38.0598-24.3931L51.0991-24.3931L51.0991-20.4401ZM51.0991-25.5763L38.0598-25.5763L38.0598-29.5283L51.0991-29.5283L51.0991-25.5763ZM65.7191-15.3059L52.6809-15.3059L52.6809-19.256L65.7201-19.256L65.7191-15.3059L65.7191-15.3059ZM65.7191-20.4401L52.6809-20.4401L52.6809-24.3931L65.7201-24.3931L65.7191-20.4401L65.7191-20.4401ZM65.7191-25.5763L52.6809-25.5763L52.6809-29.5283L65.7201-29.5283L65.7191-25.5763L65.7191-25.5763ZM65.7191-30.7144L52.6809-30.7144L52.6809-34.6645L65.7201-34.6645L65.7191-30.7144L65.7191-30.7144ZM65.7191-35.8516L52.6809-35.8516L52.6809-39.8026L65.7201-39.8026L65.7191-35.8516L65.7191-35.8516ZM65.7191-40.9887L52.6809-40.9887L52.6809-44.9398L65.7201-44.9398L65.7191-40.9887L65.7191-40.9887ZM65.7191-46.1239L52.6809-46.1239L52.6809-50.0759L65.7201-50.0759L65.7191-46.1239L65.7191-46.1239ZM80.3382-15.3059L67.2999-15.3059L67.2999-19.256L80.3392-19.256L80.3382-15.3059L80.3382-15.3059ZM80.3382-20.4401L67.2999-20.4401L67.2999-24.3931L80.3392-24.3931L80.3382-20.4401L80.3382-20.4401ZM80.3382-25.5763L67.2999-25.5763L67.2999-29.5283L80.3392-29.5283L80.3382-25.5763L80.3382-25.5763ZM80.3382-30.7144L67.2999-30.7144L67.2999-34.6645L80.3392-34.6645L80.3382-30.7144L80.3382-30.7144ZM80.3382-35.8516L67.2999-35.8516L67.2999-39.8026L80.3392-39.8026L80.3382-35.8516L80.3382-35.8516ZM94.9593-15.3059L81.92-15.3059L81.92-19.256L94.9583-19.256L94.9583-15.3059L94.9593-15.3059ZM94.9593-20.4401L81.92-20.4401L81.92-24.3931L94.9583-24.3931L94.9583-20.4401L94.9593-20.4401ZM94.9593-25.5792L81.92-25.5792L81.92-29.5303L94.9583-29.5303L94.9583-25.5792L94.9593-25.5792ZM94.9593-30.7144L81.92-30.7144L81.92-34.6674L94.9583-34.6674L94.9583-30.7144L94.9593-30.7144ZM94.9593-35.8516L81.92-35.8516L81.92-39.8056L94.9583-39.8056L94.9583-35.8516L94.9593-35.8516ZM94.9593-40.9897L81.92-40.9897L81.92-44.9398L94.9583-44.9398L94.9583-40.9897L94.9593-40.9897ZM94.9593-46.1269L81.92-46.1269L81.92-50.0769L94.9583-50.0769L94.9583-46.1269L94.9593-46.1269ZM81.92-51.263L81.92-55.2141L94.9583-55.2141L94.9583-51.263L81.92-51.263Z"/>
  </g>
  <g id="Ultralight-M" transform="matrix(1 0 0 1 501.066 1126)">
   <path d="M58.64-82.57C32.5123-82.57 11.33-61.3887 11.33-35.26C11.33-9.13133 32.5123 12.05 58.64 12.05C84.7677 12.05 105.95-9.13133 105.95-35.26C105.95-61.3887 84.7677-82.57 58.64-82.57ZM36.1838-15.5394L23.2991-15.5394L23.2991-19.4432L36.1838-19.4432L36.1838-15.5394L36.1838-15.5394ZM36.1838-20.6135L23.2991-20.6135L23.2991-24.5203L36.1838-24.5203L36.1838-20.6135L36.1838-20.6135ZM36.1838-25.6896L23.2991-25.6896L23.2991-29.5954L36.1838-29.5954L36.1838-25.6896L36.1838-25.6896ZM36.1838-30.7676L23.2991-30.7676L23.2991-34.6715L36.1838-34.6715L36.1838-30.7676L36.1838-30.7676ZM36.1838-35.8447L23.2991-35.8447L23.2991-39.7495L36.1838-39.7495L36.1838-35.8447L36.1838-35.8447ZM50.6338-15.5394L37.7471-15.5394L37.7471-19.4432L50.6338-19.4432L50.6338-15.5394ZM50.6338-20.6135L37.7471-20.6135L37.7471-24.5203L50.6338-24.5203L50.6338-20.6135ZM50.6338-25.6896L37.7471-25.6896L37.7471-29.5954L50.6338-29.5954L50.6338-25.6896ZM65.0829-15.5394L52.1971-15.5394L52.1971-19.4432L65.0838-19.4432L65.0829-15.5394L65.0829-15.5394ZM65.0829-20.6135L52.1971-20.6135L52.1971-24.5203L65.0838-24.5203L65.0829-20.6135L65.0829-20.6135ZM65.0829-25.6896L52.1971-25.6896L52.1971-29.5954L65.0838-29.5954L65.0829-25.6896L65.0829-25.6896ZM65.0829-30.7676L52.1971-30.7676L52.1971-34.6715L65.0838-34.6715L65.0829-30.7676L65.0829-30.7676ZM65.0829-35.8447L52.1971-35.8447L52.1971-39.7495L65.0838-39.7495L65.0829-35.8447L65.0829-35.8447ZM65.0829-40.9217L52.1971-40.9217L52.1971-44.8265L65.0838-44.8265L65.0829-40.9217L65.0829-40.9217ZM65.0829-45.9968L52.1971-45.9968L52.1971-49.9026L65.0838-49.9026L65.0829-45.9968L65.0829-45.9968ZM79.5309-15.5394L66.6452-15.5394L66.6452-19.4432L79.5319-19.4432L79.5309-15.5394L79.5309-15.5394ZM79.5309-20.6135L66.6452-20.6135L66.6452-24.5203L79.5319-24.5203L79.5309-20.6135L79.5309-20.6135ZM79.5309-25.6896L66.6452-25.6896L66.6452-29.5954L79.5319-29.5954L79.5309-25.6896L79.5309-25.6896ZM79.5309-30.7676L66.6452-30.7676L66.6452-34.6715L79.5319-34.6715L79.5309-30.7676L79.5309-30.7676ZM79.5309-35.8447L66.6452-35.8447L66.6452-39.7495L79.5319-39.7495L79.5309-35.8447L79.5309-35.8447ZM93.9809-15.5394L81.0942-15.5394L81.0942-19.4432L93.98-19.4432L93.98-15.5394L93.9809-15.5394ZM93.9809-20.6135L81.0942-20.6135L81.0942-24.5203L93.98-24.5203L93.98-20.6135L93.9809-20.6135ZM93.9809-25.6925L81.0942-25.6925L81.0942-29.5973L93.98-29.5973L93.98-25.6925L93.9809-25.6925ZM93.9809-30.7676L81.0942-30.7676L81.0942-34.6744L93.98-34.6744L93.98-30.7676L93.9809-30.7676ZM93.9809-35.8447L81.0942-35.8447L81.0942-39.7524L93.98-39.7524L93.98-35.8447L93.9809-35.8447ZM93.9809-40.9227L81.0942-40.9227L81.0942-44.8265L93.98-44.8265L93.98-40.9227L93.9809-40.9227ZM93.9809-45.9997L81.0942-45.9997L81.0942-49.9036L93.98-49.9036L93.98-45.9997L93.9809-45.9997ZM81.0942-51.0758L81.0942-54.9806L93.98-54.9806L93.98-51.0758L81.0942-51.0758Z"/>
  </g>
  <g id="Black-S" transform="matrix(1 0 0 1 2880.08 696)">
   <path d="M53.32-77.2C30.1304-77.2 11.33-58.4005 11.33-35.21C11.33-12.0195 30.1304 6.78 53.32 6.78C76.5096 6.78 95.31-12.0195 95.31-35.21C95.31-58.4005 76.5096-77.2 53.32-77.2ZM33.389-17.7069L21.9531-17.7069L21.9531-21.1718L33.389-21.1718L33.389-17.7069L33.389-17.7069ZM33.389-22.2105L21.9531-22.2105L21.9531-25.6779L33.389-25.6779L33.389-22.2105L33.389-22.2105ZM33.389-26.7158L21.9531-26.7158L21.9531-30.1824L33.389-30.1824L33.389-26.7158L33.389-26.7158ZM33.389-31.2228L21.9531-31.2228L21.9531-34.6876L33.389-34.6876L33.389-31.2228L33.389-31.2228ZM33.389-35.7289L21.9531-35.7289L21.9531-39.1946L33.389-39.1946L33.389-35.7289L33.389-35.7289ZM46.2141-17.7069L34.7765-17.7069L34.7765-21.1718L46.2141-21.1718L46.2141-17.7069ZM46.2141-22.2105L34.7765-22.2105L34.7765-25.6779L46.2141-25.6779L46.2141-22.2105ZM46.2141-26.7158L34.7765-26.7158L34.7765-30.1824L46.2141-30.1824L46.2141-26.7158ZM59.0384-17.7069L47.6016-17.7069L47.6016-21.1718L59.0392-21.1718L59.0384-17.7069L59.0384-17.7069ZM59.0384-22.2105L47.6016-22.2105L47.6016-25.6779L59.0392-25.6779L59.0384-22.2105L59.0384-22.2105ZM59.0384-26.7158L47.6016-26.7158L47.6016-30.1824L59.0392-30.1824L59.0384-26.7158L59.0384-26.7158ZM59.0384-31.2228L47.6016-31.2228L47.6016-34.6876L59.0392-34.6876L59.0384-31.2228L59.0384-31.2228ZM59.0384-35.7289L47.6016-35.7289L47.6016-39.1946L59.0392-39.1946L59.0384-35.7289L59.0384-35.7289ZM59.0384-40.2351L47.6016-40.2351L47.6016-43.7008L59.0392-43.7008L59.0384-40.2351L59.0384-40.2351ZM59.0384-44.7395L47.6016-44.7395L47.6016-48.2061L59.0392-48.2061L59.0384-44.7395L59.0384-44.7395ZM71.8618-17.7069L60.425-17.7069L60.425-21.1718L71.8626-21.1718L71.8618-17.7069L71.8618-17.7069ZM71.8618-22.2105L60.425-22.2105L60.425-25.6779L71.8626-25.6779L71.8618-22.2105L71.8618-22.2105ZM71.8618-26.7158L60.425-26.7158L60.425-30.1824L71.8626-30.1824L71.8618-26.7158L71.8618-26.7158ZM71.8618-31.2228L60.425-31.2228L60.425-34.6876L71.8626-34.6876L71.8618-31.2228L71.8618-31.2228ZM71.8618-35.7289L60.425-35.7289L60.425-39.1946L71.8626-39.1946L71.8618-35.7289L71.8618-35.7289ZM84.6869-17.7069L73.2492-17.7069L73.2492-21.1718L84.686-21.1718L84.686-17.7069L84.6869-17.7069ZM84.6869-22.2105L73.2492-22.2105L73.2492-25.6779L84.686-25.6779L84.686-22.2105L84.6869-22.2105ZM84.6869-26.7184L73.2492-26.7184L73.2492-30.1841L84.686-30.1841L84.686-26.7184L84.6869-26.7184ZM84.6869-31.2228L73.2492-31.2228L73.2492-34.6902L84.686-34.6902L84.686-31.2228L84.6869-31.2228ZM84.6869-35.7289L73.2492-35.7289L73.2492-39.1972L84.686-39.1972L84.686-35.7289L84.6869-35.7289ZM84.6869-40.2359L73.2492-40.2359L73.2492-43.7008L84.686-43.7008L84.686-40.2359L84.6869-40.2359ZM84.6869-44.7421L73.2492-44.7421L73.2492-48.2069L84.686-48.2069L84.686-44.7421L84.6869-44.7421ZM73.2492-49.2473L73.2492-52.7131L84.686-52.7131L84.686-49.2473L73.2492-49.2473Z"/>
  </g>
  <g id="Heavy-S" transform="matrix(1 0 0 1 2583.97 696)">
   <path d="M52.715-76.6C29.8595-76.6 11.33-58.0714 11.33-35.215C11.33-12.3586 29.8595 6.17 52.715 6.17C75.5705 6.17 94.1-12.3586 94.1-35.215C94.1-58.0714 75.5705-76.6 52.715-76.6ZM33.0712-17.9641L21.8001-17.9641L21.8001-21.3791L33.0712-21.3791L33.0712-17.9641L33.0712-17.9641ZM33.0712-22.4028L21.8001-22.4028L21.8001-25.8203L33.0712-25.8203L33.0712-22.4028L33.0712-22.4028ZM33.0712-26.8432L21.8001-26.8432L21.8001-30.2598L33.0712-30.2598L33.0712-26.8432L33.0712-26.8432ZM33.0712-31.2852L21.8001-31.2852L21.8001-34.7002L33.0712-34.7002L33.0712-31.2852L33.0712-31.2852ZM33.0712-35.7264L21.8001-35.7264L21.8001-39.1422L33.0712-39.1422L33.0712-35.7264L33.0712-35.7264ZM45.7115-17.9641L34.4387-17.9641L34.4387-21.3791L45.7115-21.3791L45.7115-17.9641ZM45.7115-22.4028L34.4387-22.4028L34.4387-25.8203L45.7115-25.8203L45.7115-22.4028ZM45.7115-26.8432L34.4387-26.8432L34.4387-30.2598L45.7115-30.2598L45.7115-26.8432ZM58.351-17.9641L47.079-17.9641L47.079-21.3791L58.3518-21.3791L58.351-17.9641L58.351-17.9641ZM58.351-22.4028L47.079-22.4028L47.079-25.8203L58.3518-25.8203L58.351-22.4028L58.351-22.4028ZM58.351-26.8432L47.079-26.8432L47.079-30.2598L58.3518-30.2598L58.351-26.8432L58.351-26.8432ZM58.351-31.2852L47.079-31.2852L47.079-34.7002L58.3518-34.7002L58.351-31.2852L58.351-31.2852ZM58.351-35.7264L47.079-35.7264L47.079-39.1422L58.3518-39.1422L58.351-35.7264L58.351-35.7264ZM58.351-40.1677L47.079-40.1677L47.079-43.5834L58.3518-43.5834L58.351-40.1677L58.351-40.1677ZM58.351-44.6072L47.079-44.6072L47.079-48.0238L58.3518-48.0238L58.351-44.6072L58.351-44.6072ZM70.9896-17.9641L59.7176-17.9641L59.7176-21.3791L70.9904-21.3791L70.9896-17.9641L70.9896-17.9641ZM70.9896-22.4028L59.7176-22.4028L59.7176-25.8203L70.9904-25.8203L70.9896-22.4028L70.9896-22.4028ZM70.9896-26.8432L59.7176-26.8432L59.7176-30.2598L70.9904-30.2598L70.9896-26.8432L70.9896-26.8432ZM70.9896-31.2852L59.7176-31.2852L59.7176-34.7002L70.9904-34.7002L70.9896-31.2852L70.9896-31.2852ZM70.9896-35.7264L59.7176-35.7264L59.7176-39.1422L70.9904-39.1422L70.9896-35.7264L70.9896-35.7264ZM83.6299-17.9641L72.3571-17.9641L72.3571-21.3791L83.6291-21.3791L83.6291-17.9641L83.6299-17.9641ZM83.6299-22.4028L72.3571-22.4028L72.3571-25.8203L83.6291-25.8203L83.6291-22.4028L83.6299-22.4028ZM83.6299-26.8457L72.3571-26.8457L72.3571-30.2615L83.6291-30.2615L83.6291-26.8457L83.6299-26.8457ZM83.6299-31.2852L72.3571-31.2852L72.3571-34.7027L83.6291-34.7027L83.6291-31.2852L83.6299-31.2852ZM83.6299-35.7264L72.3571-35.7264L72.3571-39.1448L83.6291-39.1448L83.6291-35.7264L83.6299-35.7264ZM83.6299-40.1685L72.3571-40.1685L72.3571-43.5834L83.6291-43.5834L83.6291-40.1685L83.6299-40.1685ZM83.6299-44.6097L72.3571-44.6097L72.3571-48.0247L83.6291-48.0247L83.6291-44.6097L83.6299-44.6097ZM72.3571-49.0501L72.3571-52.4659L83.6291-52.4659L83.6291-49.0501L72.3571-49.0501Z"/>
  </g>
  <g id="Bold-S" transform="matrix(1 0 0 1 2287.93 696)">
   <path d="M52.04-75.93C29.5573-75.93 11.33-57.7036 11.33-35.22C11.33-12.7364 29.5573 5.49 52.04 5.49C74.5227 5.49 92.75-12.7364 92.75-35.22C92.75-57.7036 74.5227-75.93 52.04-75.93ZM32.7166-18.2505L21.6293-18.2505L21.6293-21.6097L32.7166-21.6097L32.7166-18.2505L32.7166-18.2505ZM32.7166-22.6168L21.6293-22.6168L21.6293-25.9785L32.7166-25.9785L32.7166-22.6168L32.7166-22.6168ZM32.7166-26.9847L21.6293-26.9847L21.6293-30.3456L32.7166-30.3456L32.7166-26.9847L32.7166-26.9847ZM32.7166-31.3543L21.6293-31.3543L21.6293-34.7136L32.7166-34.7136L32.7166-31.3543L32.7166-31.3543ZM32.7166-35.7231L21.6293-35.7231L21.6293-39.0832L32.7166-39.0832L32.7166-35.7231L32.7166-35.7231ZM45.1507-18.2505L34.0618-18.2505L34.0618-21.6097L45.1507-21.6097L45.1507-18.2505ZM45.1507-22.6168L34.0618-22.6168L34.0618-25.9785L45.1507-25.9785L45.1507-22.6168ZM45.1507-26.9847L34.0618-26.9847L34.0618-30.3456L45.1507-30.3456L45.1507-26.9847ZM57.5841-18.2505L46.4959-18.2505L46.4959-21.6097L57.5849-21.6097L57.5841-18.2505L57.5841-18.2505ZM57.5841-22.6168L46.4959-22.6168L46.4959-25.9785L57.5849-25.9785L57.5841-22.6168L57.5841-22.6168ZM57.5841-26.9847L46.4959-26.9847L46.4959-30.3456L57.5849-30.3456L57.5841-26.9847L57.5841-26.9847ZM57.5841-31.3543L46.4959-31.3543L46.4959-34.7136L57.5849-34.7136L57.5841-31.3543L57.5841-31.3543ZM57.5841-35.7231L46.4959-35.7231L46.4959-39.0832L57.5849-39.0832L57.5841-35.7231L57.5841-35.7231ZM57.5841-40.0919L46.4959-40.0919L46.4959-43.452L57.5849-43.452L57.5841-40.0919L57.5841-40.0919ZM57.5841-44.459L46.4959-44.459L46.4959-47.8199L57.5849-47.8199L57.5841-44.459L57.5841-44.459ZM70.0165-18.2505L58.9284-18.2505L58.9284-21.6097L70.0174-21.6097L70.0165-18.2505L70.0165-18.2505ZM70.0165-22.6168L58.9284-22.6168L58.9284-25.9785L70.0174-25.9785L70.0165-22.6168L70.0165-22.6168ZM70.0165-26.9847L58.9284-26.9847L58.9284-30.3456L70.0174-30.3456L70.0165-26.9847L70.0165-26.9847ZM70.0165-31.3543L58.9284-31.3543L58.9284-34.7136L70.0174-34.7136L70.0165-31.3543L70.0165-31.3543ZM70.0165-35.7231L58.9284-35.7231L58.9284-39.0832L70.0174-39.0832L70.0165-35.7231L70.0165-35.7231ZM82.4507-18.2505L71.3617-18.2505L71.3617-21.6097L82.4498-21.6097L82.4498-18.2505L82.4507-18.2505ZM82.4507-22.6168L71.3617-22.6168L71.3617-25.9785L82.4498-25.9785L82.4498-22.6168L82.4507-22.6168ZM82.4507-26.9872L71.3617-26.9872L71.3617-30.3473L82.4498-30.3473L82.4498-26.9872L82.4507-26.9872ZM82.4507-31.3543L71.3617-31.3543L71.3617-34.7161L82.4498-34.7161L82.4498-31.3543L82.4507-31.3543ZM82.4507-35.7231L71.3617-35.7231L71.3617-39.0857L82.4498-39.0857L82.4498-35.7231L82.4507-35.7231ZM82.4507-40.0927L71.3617-40.0927L71.3617-43.452L82.4498-43.452L82.4498-40.0927L82.4507-40.0927ZM82.4507-44.4615L71.3617-44.4615L71.3617-47.8207L82.4498-47.8207L82.4498-44.4615L82.4507-44.4615ZM71.3617-48.8294L71.3617-52.1895L82.4498-52.1895L82.4498-48.8294L71.3617-48.8294Z"/>
  </g>
  <g id="Semibold-S" transform="matrix(1 0 0 1 1991.69 696)">
   <path d="M51.575-75.47C29.3491-75.47 11.33-57.4518 11.33-35.225C11.33-12.9982 29.3491 5.02 51.575 5.02C73.8009 5.02 91.82-12.9982 91.82-35.225C91.82-57.4518 73.8009-75.47 51.575-75.47ZM32.4723-18.4493L21.5117-18.4493L21.5117-21.7702L32.4723-21.7702L32.4723-18.4493L32.4723-18.4493ZM32.4723-22.7657L21.5117-22.7657L21.5117-26.0891L32.4723-26.0891L32.4723-22.7657L32.4723-22.7657ZM32.4723-27.0838L21.5117-27.0838L21.5117-30.4063L32.4723-30.4063L32.4723-27.0838L32.4723-27.0838ZM32.4723-31.4035L21.5117-31.4035L21.5117-34.7244L32.4723-34.7244L32.4723-31.4035L32.4723-31.4035ZM32.4723-35.7224L21.5117-35.7224L21.5117-39.0441L32.4723-39.0441L32.4723-35.7224L32.4723-35.7224ZM44.7644-18.4493L33.8021-18.4493L33.8021-21.7702L44.7644-21.7702L44.7644-18.4493ZM44.7644-22.7657L33.8021-22.7657L33.8021-26.0891L44.7644-26.0891L44.7644-22.7657ZM44.7644-27.0838L33.8021-27.0838L33.8021-30.4063L44.7644-30.4063L44.7644-27.0838ZM57.0557-18.4493L46.0943-18.4493L46.0943-21.7702L57.0566-21.7702L57.0557-18.4493L57.0557-18.4493ZM57.0557-22.7657L46.0943-22.7657L46.0943-26.0891L57.0566-26.0891L57.0557-22.7657L57.0557-22.7657ZM57.0557-27.0838L46.0943-27.0838L46.0943-30.4063L57.0566-30.4063L57.0557-27.0838L57.0557-27.0838ZM57.0557-31.4035L46.0943-31.4035L46.0943-34.7244L57.0566-34.7244L57.0557-31.4035L57.0557-31.4035ZM57.0557-35.7224L46.0943-35.7224L46.0943-39.0441L57.0566-39.0441L57.0557-35.7224L57.0557-35.7224ZM57.0557-40.0412L46.0943-40.0412L46.0943-43.3629L57.0566-43.3629L57.0557-40.0412L57.0557-40.0412ZM57.0557-44.3585L46.0943-44.3585L46.0943-47.681L57.0566-47.681L57.0557-44.3585L57.0557-44.3585ZM69.3462-18.4493L58.3847-18.4493L58.3847-21.7702L69.347-21.7702L69.3462-18.4493L69.3462-18.4493ZM69.3462-22.7657L58.3847-22.7657L58.3847-26.0891L69.347-26.0891L69.3462-22.7657L69.3462-22.7657ZM69.3462-27.0838L58.3847-27.0838L58.3847-30.4063L69.347-30.4063L69.3462-27.0838L69.3462-27.0838ZM69.3462-31.4035L58.3847-31.4035L58.3847-34.7244L69.347-34.7244L69.3462-31.4035L69.3462-31.4035ZM69.3462-35.7224L58.3847-35.7224L58.3847-39.0441L69.347-39.0441L69.3462-35.7224L69.3462-35.7224ZM81.6383-18.4493L70.676-18.4493L70.676-21.7702L81.6375-21.7702L81.6375-18.4493L81.6383-18.4493ZM81.6383-22.7657L70.676-22.7657L70.676-26.0891L81.6375-26.0891L81.6375-22.7657L81.6383-22.7657ZM81.6383-27.0862L70.676-27.0862L70.676-30.408L81.6375-30.408L81.6375-27.0862L81.6383-27.0862ZM81.6383-31.4035L70.676-31.4035L70.676-34.7268L81.6375-34.7268L81.6375-31.4035L81.6383-31.4035ZM81.6383-35.7224L70.676-35.7224L70.676-39.0465L81.6375-39.0465L81.6375-35.7224L81.6383-35.7224ZM81.6383-40.042L70.676-40.042L70.676-43.3629L81.6375-43.3629L81.6375-40.042L81.6383-40.042ZM81.6383-44.3609L70.676-44.3609L70.676-47.6818L81.6375-47.6818L81.6375-44.3609L81.6383-44.3609ZM70.676-48.679L70.676-52.0007L81.6375-52.0007L81.6375-48.679L70.676-48.679Z"/>
  </g>
  <g id="Medium-S" transform="matrix(1 0 0 1 1695.33 696)">
   <path d="M51.22-75.12C29.1901-75.12 11.33-57.2607 11.33-35.23C11.33-13.1993 29.1901 4.66 51.22 4.66C73.2499 4.66 91.11-13.1993 91.11-35.23C91.11-57.2607 73.2499-75.12 51.22-75.12ZM32.2858-18.6023L21.4219-18.6023L21.4219-21.8939L32.2858-21.8939L32.2858-18.6023L32.2858-18.6023ZM32.2858-22.8806L21.4219-22.8806L21.4219-26.1747L32.2858-26.1747L32.2858-22.8806L32.2858-22.8806ZM32.2858-27.1606L21.4219-27.1606L21.4219-30.4538L32.2858-30.4538L32.2858-27.1606L32.2858-27.1606ZM32.2858-31.4422L21.4219-31.4422L21.4219-34.7338L32.2858-34.7338L32.2858-31.4422L32.2858-31.4422ZM32.2858-35.723L21.4219-35.723L21.4219-39.0154L32.2858-39.0154L32.2858-35.723L32.2858-35.723ZM44.4695-18.6023L33.6039-18.6023L33.6039-21.8939L44.4695-21.8939L44.4695-18.6023ZM44.4695-22.8806L33.6039-22.8806L33.6039-26.1747L44.4695-26.1747L44.4695-22.8806ZM44.4695-27.1606L33.6039-27.1606L33.6039-30.4538L44.4695-30.4538L44.4695-27.1606ZM56.6524-18.6023L45.7876-18.6023L45.7876-21.8939L56.6532-21.8939L56.6524-18.6023L56.6524-18.6023ZM56.6524-22.8806L45.7876-22.8806L45.7876-26.1747L56.6532-26.1747L56.6524-22.8806L56.6524-22.8806ZM56.6524-27.1606L45.7876-27.1606L45.7876-30.4538L56.6532-30.4538L56.6524-27.1606L56.6524-27.1606ZM56.6524-31.4422L45.7876-31.4422L45.7876-34.7338L56.6532-34.7338L56.6524-31.4422L56.6524-31.4422ZM56.6524-35.723L45.7876-35.723L45.7876-39.0154L56.6532-39.0154L56.6524-35.723L56.6524-35.723ZM56.6524-40.0037L45.7876-40.0037L45.7876-43.2961L56.6532-43.2961L56.6524-40.0037L56.6524-40.0037ZM56.6524-44.2829L45.7876-44.2829L45.7876-47.5761L56.6532-47.5761L56.6524-44.2829L56.6524-44.2829ZM68.8344-18.6023L57.9697-18.6023L57.9697-21.8939L68.8353-21.8939L68.8344-18.6023L68.8344-18.6023ZM68.8344-22.8806L57.9697-22.8806L57.9697-26.1747L68.8353-26.1747L68.8344-22.8806L68.8344-22.8806ZM68.8344-27.1606L57.9697-27.1606L57.9697-30.4538L68.8353-30.4538L68.8344-27.1606L68.8344-27.1606ZM68.8344-31.4422L57.9697-31.4422L57.9697-34.7338L68.8353-34.7338L68.8344-31.4422L68.8344-31.4422ZM68.8344-35.723L57.9697-35.723L57.9697-39.0154L68.8353-39.0154L68.8344-35.723L68.8344-35.723ZM81.0181-18.6023L70.1525-18.6023L70.1525-21.8939L81.0173-21.8939L81.0173-18.6023L81.0181-18.6023ZM81.0181-22.8806L70.1525-22.8806L70.1525-26.1747L81.0173-26.1747L81.0173-22.8806L81.0181-22.8806ZM81.0181-27.163L70.1525-27.163L70.1525-30.4554L81.0173-30.4554L81.0173-27.163L81.0181-27.163ZM81.0181-31.4422L70.1525-31.4422L70.1525-34.7362L81.0173-34.7362L81.0173-31.4422L81.0181-31.4422ZM81.0181-35.723L70.1525-35.723L70.1525-39.0178L81.0173-39.0178L81.0173-35.723L81.0181-35.723ZM81.0181-40.0046L70.1525-40.0046L70.1525-43.2961L81.0173-43.2961L81.0173-40.0046L81.0181-40.0046ZM81.0181-44.2853L70.1525-44.2853L70.1525-47.5769L81.0173-47.5769L81.0173-44.2853L81.0181-44.2853ZM70.1525-48.5653L70.1525-51.8577L81.0173-51.8577L81.0173-48.5653L70.1525-48.5653Z"/>
  </g>
  <g id="Regular-S" transform="matrix(1 0 0 1 1399.08 696)">
   <path d="M50.76-74.66C28.9842-74.66 11.33-57.0067 11.33-35.23C11.33-13.4533 28.9842 4.2 50.76 4.2C72.5358 4.2 90.19-13.4533 90.19-35.23C90.19-57.0067 72.5358-74.66 50.76-74.66ZM32.0442-18.794L21.3055-18.794L21.3055-22.0477L32.0442-22.0477L32.0442-18.794L32.0442-18.794ZM32.0442-23.023L21.3055-23.023L21.3055-26.2791L32.0442-26.2791L32.0442-23.023L32.0442-23.023ZM32.0442-27.2536L21.3055-27.2536L21.3055-30.5089L32.0442-30.5089L32.0442-27.2536L32.0442-27.2536ZM32.0442-31.4859L21.3055-31.4859L21.3055-34.7395L32.0442-34.7395L32.0442-31.4859L32.0442-31.4859ZM32.0442-35.7173L21.3055-35.7173L21.3055-38.9717L32.0442-38.9717L32.0442-35.7173L32.0442-35.7173ZM44.0874-18.794L33.3471-18.794L33.3471-22.0477L44.0874-22.0477L44.0874-18.794ZM44.0874-23.023L33.3471-23.023L33.3471-26.2791L44.0874-26.2791L44.0874-23.023ZM44.0874-27.2536L33.3471-27.2536L33.3471-30.5089L44.0874-30.5089L44.0874-27.2536ZM56.1297-18.794L45.3903-18.794L45.3903-22.0477L56.1305-22.0477L56.1297-18.794L56.1297-18.794ZM56.1297-23.023L45.3903-23.023L45.3903-26.2791L56.1305-26.2791L56.1297-23.023L56.1297-23.023ZM56.1297-27.2536L45.3903-27.2536L45.3903-30.5089L56.1305-30.5089L56.1297-27.2536L56.1297-27.2536ZM56.1297-31.4859L45.3903-31.4859L45.3903-34.7395L56.1305-34.7395L56.1297-31.4859L56.1297-31.4859ZM56.1297-35.7173L45.3903-35.7173L45.3903-38.9717L56.1305-38.9717L56.1297-35.7173L56.1297-35.7173ZM56.1297-39.9487L45.3903-39.9487L45.3903-43.2031L56.1305-43.2031L56.1297-39.9487L56.1297-39.9487ZM56.1297-44.1785L45.3903-44.1785L45.3903-47.4337L56.1305-47.4337L56.1297-44.1785L56.1297-44.1785ZM68.1713-18.794L57.4318-18.794L57.4318-22.0477L68.1721-22.0477L68.1713-18.794L68.1713-18.794ZM68.1713-23.023L57.4318-23.023L57.4318-26.2791L68.1721-26.2791L68.1713-23.023L68.1713-23.023ZM68.1713-27.2536L57.4318-27.2536L57.4318-30.5089L68.1721-30.5089L68.1713-27.2536L68.1713-27.2536ZM68.1713-31.4859L57.4318-31.4859L57.4318-34.7395L68.1721-34.7395L68.1713-31.4859L68.1713-31.4859ZM68.1713-35.7173L57.4318-35.7173L57.4318-38.9717L68.1721-38.9717L68.1713-35.7173L68.1713-35.7173ZM80.2145-18.794L69.4742-18.794L69.4742-22.0477L80.2137-22.0477L80.2137-18.794L80.2145-18.794ZM80.2145-23.023L69.4742-23.023L69.4742-26.2791L80.2137-26.2791L80.2137-23.023L80.2145-23.023ZM80.2145-27.2561L69.4742-27.2561L69.4742-30.5105L80.2137-30.5105L80.2137-27.2561L80.2145-27.2561ZM80.2145-31.4859L69.4742-31.4859L69.4742-34.7419L80.2137-34.7419L80.2137-31.4859L80.2145-31.4859ZM80.2145-35.7173L69.4742-35.7173L69.4742-38.9741L80.2137-38.9741L80.2137-35.7173L80.2145-35.7173ZM80.2145-39.9495L69.4742-39.9495L69.4742-43.2031L80.2137-43.2031L80.2137-39.9495L80.2145-39.9495ZM80.2145-44.1809L69.4742-44.1809L69.4742-47.4345L80.2137-47.4345L80.2137-44.1809L80.2145-44.1809ZM69.4742-48.4115L69.4742-51.666L80.2137-51.666L80.2137-48.4115L69.4742-48.4115Z"/>
  </g>
  <g id="Light-S" transform="matrix(1 0 0 1 1103.1 696)">
   <path d="M50.025-73.93C28.6551-73.93 11.33-56.6057 11.33-35.235C11.33-13.8643 28.6551 3.46 50.025 3.46C71.3949 3.46 88.72-13.8643 88.72-35.235C88.72-56.6057 71.3949-73.93 50.025-73.93ZM31.658-19.1054L21.1195-19.1054L21.1195-22.2984L31.658-22.2984L31.658-19.1054L31.658-19.1054ZM31.658-23.2556L21.1195-23.2556L21.1195-26.4509L31.658-26.4509L31.658-23.2556L31.658-23.2556ZM31.658-27.4073L21.1195-27.4073L21.1195-30.6019L31.658-30.6019L31.658-27.4073L31.658-27.4073ZM31.658-31.5607L21.1195-31.5607L21.1195-34.7536L31.658-34.7536L31.658-31.5607L31.658-31.5607ZM31.658-35.7132L21.1195-35.7132L21.1195-38.907L31.658-38.907L31.658-35.7132L31.658-35.7132ZM43.4767-19.1054L32.9367-19.1054L32.9367-22.2984L43.4767-22.2984L43.4767-19.1054ZM43.4767-23.2556L32.9367-23.2556L32.9367-26.4509L43.4767-26.4509L43.4767-23.2556ZM43.4767-27.4073L32.9367-27.4073L32.9367-30.6019L43.4767-30.6019L43.4767-27.4073ZM55.2946-19.1054L44.7554-19.1054L44.7554-22.2984L55.2954-22.2984L55.2946-19.1054L55.2946-19.1054ZM55.2946-23.2556L44.7554-23.2556L44.7554-26.4509L55.2954-26.4509L55.2946-23.2556L55.2946-23.2556ZM55.2946-27.4073L44.7554-27.4073L44.7554-30.6019L55.2954-30.6019L55.2946-27.4073L55.2946-27.4073ZM55.2946-31.5607L44.7554-31.5607L44.7554-34.7536L55.2954-34.7536L55.2946-31.5607L55.2946-31.5607ZM55.2946-35.7132L44.7554-35.7132L44.7554-38.907L55.2954-38.907L55.2946-35.7132L55.2946-35.7132ZM55.2946-39.8657L44.7554-39.8657L44.7554-43.0595L55.2954-43.0595L55.2946-39.8657L55.2946-39.8657ZM55.2946-44.0167L44.7554-44.0167L44.7554-47.2113L55.2954-47.2113L55.2946-44.0167L55.2946-44.0167ZM67.1118-19.1054L56.5725-19.1054L56.5725-22.2984L67.1126-22.2984L67.1118-19.1054L67.1118-19.1054ZM67.1118-23.2556L56.5725-23.2556L56.5725-26.4509L67.1126-26.4509L67.1118-23.2556L67.1118-23.2556ZM67.1118-27.4073L56.5725-27.4073L56.5725-30.6019L67.1126-30.6019L67.1118-27.4073L67.1118-27.4073ZM67.1118-31.5607L56.5725-31.5607L56.5725-34.7536L67.1126-34.7536L67.1118-31.5607L67.1118-31.5607ZM67.1118-35.7132L56.5725-35.7132L56.5725-38.907L67.1126-38.907L67.1118-35.7132L67.1118-35.7132ZM78.9305-19.1054L68.3904-19.1054L68.3904-22.2984L78.9297-22.2984L78.9297-19.1054L78.9305-19.1054ZM78.9305-23.2556L68.3904-23.2556L68.3904-26.4509L78.9297-26.4509L78.9297-23.2556L78.9305-23.2556ZM78.9305-27.4097L68.3904-27.4097L68.3904-30.6035L78.9297-30.6035L78.9297-27.4097L78.9305-27.4097ZM78.9305-31.5607L68.3904-31.5607L68.3904-34.756L78.9297-34.756L78.9297-31.5607L78.9305-31.5607ZM78.9305-35.7132L68.3904-35.7132L68.3904-38.9093L78.9297-38.9093L78.9297-35.7132L78.9305-35.7132ZM78.9305-39.8665L68.3904-39.8665L68.3904-43.0595L78.9297-43.0595L78.9297-39.8665L78.9305-39.8665ZM78.9305-44.0191L68.3904-44.0191L68.3904-47.212L78.9297-47.212L78.9297-44.0191L78.9305-44.0191ZM68.3904-48.1708L68.3904-51.3646L78.9297-51.3646L78.9297-48.1708L68.3904-48.1708Z"/>
  </g>
  <g id="Thin-S" transform="matrix(1 0 0 1 807.362 696)">
   <path d="M49.055-72.97C28.2208-72.97 11.33-56.08 11.33-35.245C11.33-14.41 28.2208 2.48 49.055 2.48C69.8892 2.48 86.78-14.41 86.78-35.245C86.78-56.08 69.8892-72.97 49.055-72.97ZM31.1485-19.5198L20.8741-19.5198L20.8741-22.6327L31.1485-22.6327L31.1485-19.5198L31.1485-19.5198ZM31.1485-23.5659L20.8741-23.5659L20.8741-26.6811L31.1485-26.6811L31.1485-23.5659L31.1485-23.5659ZM31.1485-27.6136L20.8741-27.6136L20.8741-30.728L31.1485-30.728L31.1485-27.6136L31.1485-27.6136ZM31.1485-31.6628L20.8741-31.6628L20.8741-34.7757L31.1485-34.7757L31.1485-31.6628L31.1485-31.6628ZM31.1485-35.7112L20.8741-35.7112L20.8741-38.8249L31.1485-38.8249L31.1485-35.7112L31.1485-35.7112ZM42.6709-19.5198L32.395-19.5198L32.395-22.6327L42.6709-22.6327L42.6709-19.5198ZM42.6709-23.5659L32.395-23.5659L32.395-26.6811L42.6709-26.6811L42.6709-23.5659ZM42.6709-27.6136L32.395-27.6136L32.395-30.728L42.6709-30.728L42.6709-27.6136ZM54.1925-19.5198L43.9175-19.5198L43.9175-22.6327L54.1933-22.6327L54.1925-19.5198L54.1925-19.5198ZM54.1925-23.5659L43.9175-23.5659L43.9175-26.6811L54.1933-26.6811L54.1925-23.5659L54.1925-23.5659ZM54.1925-27.6136L43.9175-27.6136L43.9175-30.728L54.1933-30.728L54.1925-27.6136L54.1925-27.6136ZM54.1925-31.6628L43.9175-31.6628L43.9175-34.7757L54.1933-34.7757L54.1925-31.6628L54.1925-31.6628ZM54.1925-35.7112L43.9175-35.7112L43.9175-38.8249L54.1933-38.8249L54.1925-35.7112L54.1925-35.7112ZM54.1925-39.7597L43.9175-39.7597L43.9175-42.8734L54.1933-42.8734L54.1925-39.7597L54.1925-39.7597ZM54.1925-43.8065L43.9175-43.8065L43.9175-46.921L54.1933-46.921L54.1925-43.8065L54.1925-43.8065ZM65.7134-19.5198L55.4383-19.5198L55.4383-22.6327L65.7142-22.6327L65.7134-19.5198L65.7134-19.5198ZM65.7134-23.5659L55.4383-23.5659L55.4383-26.6811L65.7142-26.6811L65.7134-23.5659L65.7134-23.5659ZM65.7134-27.6136L55.4383-27.6136L55.4383-30.728L65.7142-30.728L65.7134-27.6136L65.7134-27.6136ZM65.7134-31.6628L55.4383-31.6628L55.4383-34.7757L65.7142-34.7757L65.7134-31.6628L65.7134-31.6628ZM65.7134-35.7112L55.4383-35.7112L55.4383-38.8249L65.7142-38.8249L65.7134-35.7112L65.7134-35.7112ZM77.2359-19.5198L66.96-19.5198L66.96-22.6327L77.2351-22.6327L77.2351-19.5198L77.2359-19.5198ZM77.2359-23.5659L66.96-23.5659L66.96-26.6811L77.2351-26.6811L77.2351-23.5659L77.2359-23.5659ZM77.2359-27.6159L66.96-27.6159L66.96-30.7296L77.2351-30.7296L77.2351-27.6159L77.2359-27.6159ZM77.2359-31.6628L66.96-31.6628L66.96-34.778L77.2351-34.778L77.2351-31.6628L77.2359-31.6628ZM77.2359-35.7112L66.96-35.7112L66.96-38.8272L77.2351-38.8272L77.2351-35.7112L77.2359-35.7112ZM77.2359-39.7604L66.96-39.7604L66.96-42.8734L77.2351-42.8734L77.2351-39.7604L77.2359-39.7604ZM77.2359-43.8089L66.96-43.8089L66.96-46.9218L77.2351-46.9218L77.2351-43.8089L77.2359-43.8089ZM66.96-47.8565L66.96-50.9702L77.2351-50.9702L77.2351-47.8565L66.96-47.8565Z"/>
  </g>
  <g id="Ultralight-S" transform="matrix(1 0 0 1 511.151 696)">
   <path d="M48.555-72.48C27.9969-72.48 11.33-55.8139 11.33-35.255C11.33-14.6961 27.9969 1.97 48.555 1.97C69.1131 1.97 85.78-14.6961 85.78-35.255C85.78-55.8139 69.1131-72.48 48.555-72.48ZM30.8858-19.7382L20.7476-19.7382L20.7476-22.8099L30.8858-22.8099L30.8858-19.7382L30.8858-19.7382ZM30.8858-23.7307L20.7476-23.7307L20.7476-26.8046L30.8858-26.8046L30.8858-23.7307L30.8858-23.7307ZM30.8858-27.7247L20.7476-27.7247L20.7476-30.7979L30.8858-30.7979L30.8858-27.7247L30.8858-27.7247ZM30.8858-31.7202L20.7476-31.7202L20.7476-34.7919L30.8858-34.7919L30.8858-31.7202L30.8858-31.7202ZM30.8858-35.715L20.7476-35.715L20.7476-38.7875L30.8858-38.7875L30.8858-35.715L30.8858-35.715ZM42.2555-19.7382L32.1158-19.7382L32.1158-22.8099L42.2555-22.8099L42.2555-19.7382ZM42.2555-23.7307L32.1158-23.7307L32.1158-26.8046L42.2555-26.8046L42.2555-23.7307ZM42.2555-27.7247L32.1158-27.7247L32.1158-30.7979L42.2555-30.7979L42.2555-27.7247ZM53.6245-19.7382L43.4855-19.7382L43.4855-22.8099L53.6252-22.8099L53.6245-19.7382L53.6245-19.7382ZM53.6245-23.7307L43.4855-23.7307L43.4855-26.8046L53.6252-26.8046L53.6245-23.7307L53.6245-23.7307ZM53.6245-27.7247L43.4855-27.7247L43.4855-30.7979L53.6252-30.7979L53.6245-27.7247L53.6245-27.7247ZM53.6245-31.7202L43.4855-31.7202L43.4855-34.7919L53.6252-34.7919L53.6245-31.7202L53.6245-31.7202ZM53.6245-35.715L43.4855-35.715L43.4855-38.7875L53.6252-38.7875L53.6245-35.715L53.6245-35.715ZM53.6245-39.7098L43.4855-39.7098L43.4855-42.7823L53.6252-42.7823L53.6245-39.7098L53.6245-39.7098ZM53.6245-43.7031L43.4855-43.7031L43.4855-46.7763L53.6252-46.7763L53.6245-43.7031L53.6245-43.7031ZM64.9926-19.7382L54.8537-19.7382L54.8537-22.8099L64.9934-22.8099L64.9926-19.7382L64.9926-19.7382ZM64.9926-23.7307L54.8537-23.7307L54.8537-26.8046L64.9934-26.8046L64.9926-23.7307L64.9926-23.7307ZM64.9926-27.7247L54.8537-27.7247L54.8537-30.7979L64.9934-30.7979L64.9926-27.7247L64.9926-27.7247ZM64.9926-31.7202L54.8537-31.7202L54.8537-34.7919L64.9934-34.7919L64.9926-31.7202L64.9926-31.7202ZM64.9926-35.715L54.8537-35.715L54.8537-38.7875L64.9934-38.7875L64.9926-35.715L64.9926-35.715ZM76.3624-19.7382L66.2227-19.7382L66.2227-22.8099L76.3616-22.8099L76.3616-19.7382L76.3624-19.7382ZM76.3624-23.7307L66.2227-23.7307L66.2227-26.8046L76.3616-26.8046L76.3616-23.7307L76.3624-23.7307ZM76.3624-27.727L66.2227-27.727L66.2227-30.7994L76.3616-30.7994L76.3616-27.727L76.3624-27.727ZM76.3624-31.7202L66.2227-31.7202L66.2227-34.7942L76.3616-34.7942L76.3616-31.7202L76.3624-31.7202ZM76.3624-35.715L66.2227-35.715L66.2227-38.7898L76.3616-38.7898L76.3616-35.715L76.3624-35.715ZM76.3624-39.7106L66.2227-39.7106L66.2227-42.7823L76.3616-42.7823L76.3616-39.7106L76.3624-39.7106ZM76.3624-43.7054L66.2227-43.7054L66.2227-46.777L76.3616-46.777L76.3616-43.7054L76.3624-43.7054ZM66.2227-47.6994L66.2227-50.7718L76.3616-50.7718L76.3616-47.6994L66.2227-47.6994Z"/>
  </g>
 </g>
</svg>
