<?xml version="1.0" encoding="UTF-8"?>
<svg width="3300px" height="2200px" viewBox="0 0 3300 2200" version="1.1" xmlns="http://www.w3.org/2000/svg" xmlns:xlink="http://www.w3.org/1999/xlink">
    <title>bubble.left.and.bubble.right</title>
    <g id="App-Symbols" stroke="none" stroke-width="1" fill="none" fill-rule="evenodd">
        <g id="bubble.left.and.bubble.right">
            <g id="Notes">
                <rect id="artboard" fill="#FFFFFF" fill-rule="nonzero" x="0" y="0" width="3300" height="2200"></rect>
                <line x1="256" y1="293" x2="3029" y2="293" id="Path" stroke="#000000" stroke-width="0.5"></line>
                <text id="Weight/Scale-Variations" fill="#000000" fill-rule="nonzero" font-family="Helvetica-Bold, Helvetica" font-size="13" font-weight="bold">
                    <tspan x="256" y="323">Weight/Scale Variations</tspan>
                </text>
                <text id="Ultralight" fill="#000000" fill-rule="nonzero" font-family="Helvetica" font-size="13" font-weight="normal">
                    <tspan x="526.711" y="323">Ultralight</tspan>
                </text>
                <text id="Thin" fill="#000000" fill-rule="nonzero" font-family="Helvetica" font-size="13" font-weight="normal">
                    <tspan x="836.422" y="323">Thin</tspan>
                </text>
                <text id="Light" fill="#000000" fill-rule="nonzero" font-family="Helvetica" font-size="13" font-weight="normal">
                    <tspan x="1131.63" y="323">Light</tspan>
                </text>
                <text id="Regular" fill="#000000" fill-rule="nonzero" font-family="Helvetica" font-size="13" font-weight="normal">
                    <tspan x="1419.84" y="323">Regular</tspan>
                </text>
                <text id="Medium" fill="#000000" fill-rule="nonzero" font-family="Helvetica" font-size="13" font-weight="normal">
                    <tspan x="1716.06" y="323">Medium</tspan>
                </text>
                <text id="Semibold" fill="#000000" fill-rule="nonzero" font-family="Helvetica" font-size="13" font-weight="normal">
                    <tspan x="2008.77" y="323">Semibold</tspan>
                </text>
                <text id="Bold" fill="#000000" fill-rule="nonzero" font-family="Helvetica" font-size="13" font-weight="normal">
                    <tspan x="2319.48" y="323">Bold</tspan>
                </text>
                <text id="Heavy" fill="#000000" fill-rule="nonzero" font-family="Helvetica" font-size="13" font-weight="normal">
                    <tspan x="2611.19" y="323">Heavy</tspan>
                </text>
                <text id="Black" fill="#000000" fill-rule="nonzero" font-family="Helvetica" font-size="13" font-weight="normal">
                    <tspan x="2910.4" y="323">Black</tspan>
                </text>
                <line x1="256" y1="1904" x2="3029" y2="1904" id="Path" stroke="#000000" stroke-width="0.5"></line>
                <g id="Group" transform="translate(257, 1919)" fill="#000000" fill-rule="nonzero">
                    <path d="M8.24805,15.830078 C12.5547,15.830078 16.1387,12.25586 16.1387,7.94922 C16.1387,3.6426 12.5449,0.0684 8.23828,0.0684 C3.94141,0.0684 0.36719,3.6426 0.36719,7.94922 C0.36719,12.25586 3.95117,15.830078 8.24805,15.830078 Z M8.24805,14.345703 C4.70312,14.345703 1.87109,11.50391 1.87109,7.94922 C1.87109,4.3945 4.69336,1.5527 8.23828,1.5527 C11.793,1.5527 14.6348,4.3945 14.6445252,7.94922 C14.6543,11.50391 11.8027,14.345703 8.24805,14.345703 Z M8.22852,11.37695 C8.69727,11.37695 8.9707,11.06445 8.9707,10.54688 L8.9707,8.68164 L11.002,8.68164 C11.5,8.68164 11.832,8.42773 11.832,7.95898 C11.832,7.48047 11.5195,7.2168 11.002,7.2168 L8.9707,7.2168 L8.9707,5.18555 C8.9707,4.668 8.69727,4.3457 8.22852,4.3457 C7.75977,4.3457 7.50586,4.6875 7.50586,5.18555 L7.50586,7.2168 L5.49414,7.2168 C4.97656,7.2168 4.64453,7.48047 4.64453,7.95898 C4.64453,8.42773 4.99609,8.68164 5.49414,8.68164 L7.50586,8.68164 L7.50586,10.54688 C7.50586,11.04492 7.75977,11.37695 8.22852,11.37695 Z" id="Shape"></path>
                </g>
                <g id="Group" transform="translate(275.506, 1916)" fill="#000000" fill-rule="nonzero">
                    <path d="M10.709,20.91016 C16.1582,20.91016 20.6699,16.38867 20.6699,10.94922 C20.6699,5.5 16.1484,0.9883 10.6992,0.9883 C5.25977,0.9883 0.74805,5.5 0.74805,10.94922 C0.74805,16.38867 5.26953,20.91016 10.709,20.91016 Z M10.709,19.25 C6.09961,19.25 2.41797,15.55859 2.41797,10.94922 C2.41797,6.3398 6.08984,2.6484 10.6992,2.6484 C15.3086,2.6484 19,6.3398 19.009819,10.94922 C19.0195,15.55859 15.3184,19.25 10.709,19.25 Z M10.6797,15.33398 C11.207,15.33398 11.5098,14.98242 11.5098,14.40625 L11.5098,11.76953 L14.3223,11.76953 C14.8691,11.76953 15.25,11.48633 15.25,10.96875 C15.25,10.44141 14.8887,10.13867 14.3223,10.13867 L11.5098,10.13867 L11.5098,7.3164 C11.5098,6.75 11.207,6.3887 10.6797,6.3887 C10.1621,6.3887 9.8789,6.7695 9.8789,7.3164 L9.8789,10.13867 L7.07617,10.13867 C6.50977,10.13867 6.13867,10.44141 6.13867,10.96875 C6.13867,11.48633 6.5293,11.76953 7.07617,11.76953 L9.8789,11.76953 L9.8789,14.40625 C9.8789,14.96289 10.1621,15.33398 10.6797,15.33398 Z" id="Shape"></path>
                </g>
                <g id="Group" transform="translate(299.924, 1914)" fill="#000000" fill-rule="nonzero">
                    <path d="M12.9707,25.66406 C19.9336,25.66406 25.6953,19.9023438 25.6953,12.94922 C25.6953,5.9863 19.9238,0.2246 12.9609,0.2246 C6.00781,0.2246 0.25586,5.9863 0.25586,12.94922 C0.25586,19.9023438 6.01758,25.66406 12.9707,25.66406 Z M12.9707,23.84766 C6.93555,23.84766 2.08203,18.98438 2.08203,12.94922 C2.08203,6.9043 6.92578,2.0508 12.9609,2.0508 C19.0059,2.0508 23.8594,6.9043 23.8691148,12.94922 C23.8789,18.98438 19.0156,23.84766 12.9707,23.84766 Z M12.9414,18.61328 C13.5176,18.61328 13.8594,18.22266 13.8594,17.61719 L13.8594,13.86719 L17.7754,13.86719 C18.3711,13.86719 18.7812,13.53516 18.7812,12.97852 C18.7812,12.40234 18.3906,12.06055 17.7754,12.06055 L13.8594,12.06055 L13.8594,8.1348 C13.8594,7.5195 13.5176,7.1289 12.9414,7.1289 C12.375,7.1289 12.0527,7.5391 12.0527,8.1348 L12.0527,12.06055 L8.1465,12.06055 C7.53125,12.06055 7.13086,12.40234 7.13086,12.97852 C7.13086,13.53516 7.55078,13.86719 8.1465,13.86719 L12.0527,13.86719 L12.0527,17.61719 C12.0527,18.20312 12.375,18.61328 12.9414,18.61328 Z" id="Shape"></path>
                </g>
                <text id="Design-Variations" fill="#000000" fill-rule="nonzero" font-family="Helvetica-Bold, Helvetica" font-size="13" font-weight="bold">
                    <tspan x="256" y="1954">Design Variations</tspan>
                </text>
                <text id="Symbols-are-supported-in-up-to-nine-weights-and-three-scales." fill="#000000" fill-rule="nonzero" font-family="Helvetica" font-size="13" font-weight="normal">
                    <tspan x="256" y="1972">Symbols are supported in up to nine weights and three scales.</tspan>
                </text>
                <text id="For-optimal-layout-with-text-and-other-symbols,-vertically-align" fill="#000000" fill-rule="nonzero" font-family="Helvetica" font-size="13" font-weight="normal">
                    <tspan x="256" y="1990">For optimal layout with text and other symbols, vertically align</tspan>
                </text>
                <text id="symbols-with-the-adjacent-text." fill="#000000" fill-rule="nonzero" font-family="Helvetica" font-size="13" font-weight="normal">
                    <tspan x="256" y="2008">symbols with the adjacent text.</tspan>
                </text>
                <line x1="769" y1="1920" x2="769" y2="1934" id="Path" stroke="#00AEEF" stroke-width="0.5"></line>
                <g id="Group" transform="translate(771, 1919)" fill="#000000" fill-rule="nonzero">
                    <path d="M1.31055,15.126953 C1.82812,15.126953 2.08203,14.9316406 2.26758,14.394531 L3.52734,10.9375 L9.2891,10.9375 L10.5488,14.394531 C10.7344,14.9316406 10.9883,15.126953 11.4961,15.126953 C12.0137,15.126953 12.3457,14.814453 12.3457,14.326172 C12.3457,14.160156 12.3164,14.013672 12.2383,13.79883 L7.6582,1.6113 C7.43359,1.0059 7.0332,0.7129 6.4082,0.7129 C5.80273,0.7129 5.39258,1.0059 5.17773,1.6016 L0.59766,13.80859 C0.51953,14.023438 0.49023,14.169922 0.49023,14.335938 C0.49023,14.824219 0.80273,15.126953 1.31055,15.126953 Z M4.00586,9.46289 L6.37891,2.8906 L6.42773,2.8906 L8.8008,9.46289 L4.00586,9.46289 Z" id="Shape"></path>
                </g>
                <line x1="785.836" y1="1920" x2="785.836" y2="1934" id="Path" stroke="#00AEEF" stroke-width="0.5"></line>
                <text id="Margins" fill="#000000" fill-rule="nonzero" font-family="Helvetica-Bold, Helvetica" font-size="13" font-weight="bold">
                    <tspan x="769" y="1954">Margins</tspan>
                </text>
                <text id="Leading-and-trailing-margins-on-the-left-and-right-side-of-each-symbol" fill="#000000" fill-rule="nonzero" font-family="Helvetica" font-size="13" font-weight="normal">
                    <tspan x="769" y="1972">Leading and trailing margins on the left and right side of each symbol</tspan>
                </text>
                <text id="can-be-adjusted-by-modifying-the-x-location-of-the-margin-guidelines." fill="#000000" fill-rule="nonzero" font-family="Helvetica" font-size="13" font-weight="normal">
                    <tspan x="769" y="1990">can be adjusted by modifying the x-location of the margin guidelines.</tspan>
                </text>
                <text id="Modifications-are-automatically-applied-proportionally-to-all" fill="#000000" fill-rule="nonzero" font-family="Helvetica" font-size="13" font-weight="normal">
                    <tspan x="769" y="2008">Modifications are automatically applied proportionally to all</tspan>
                </text>
                <text id="scales-and-weights." fill="#000000" fill-rule="nonzero" font-family="Helvetica" font-size="13" font-weight="normal">
                    <tspan x="769" y="2026">scales and weights.</tspan>
                </text>
                <g id="Group" transform="translate(1284, 1915)" fill="#000000" fill-rule="nonzero">
                    <path d="M0.8418,20.86523 L2.54102,22.57422 C3.40039,23.44336 4.38672,23.38477 5.31445,22.35938 L15.4902,11.14844 C15.7539,11.23633 16.0273,11.2168 16.3398,11.1582 L17.4043,10.96289 L18.0684,11.63672 L18.0293,12.19336 C17.9902,12.69141 18.1172,13.07227 18.6055,13.55078 L19.3672,14.29297 C19.8457,14.77148 20.4609,14.80078 20.9297,14.33203 L23.8398,11.41211 C24.3086,10.94336 24.2891,10.34766 23.8105,9.86914 L23.0391,9.10742 C22.5605,8.6289 22.1895,8.4727 21.7109,8.5117 L21.1348,8.5605 L20.4902,7.9258 L20.7344,6.8027 C20.8613,6.2363 20.7051,5.7969 20.1191,5.2109 L17.9219,3.0234 C14.582,-0.2969 10.1484,-0.2188 7.25781,2.6719 C6.83789,3.082 6.80859,3.6582 7.04297,4.0488 C7.27734,4.4102 7.73633,4.6445 8.3809,4.4785 C9.8457,4.1367 11.3691,4.0781 12.7949,5.0156 L12.209,6.4707 C12.0137,6.9492 11.9844,7.3496 12.1113,7.7109 L1.04688,18.101562 C0.06055,19.0195312 -0.01758,19.996094 0.8418,20.86523 Z M8.752,3.043 C11.1836,1.2656 14.4746,1.5684 16.7012,3.7949 L19.1328,6.207 C19.3672,6.4414 19.4062,6.627 19.3379,6.9688 L19.0156,8.4531 L20.5195,9.9375 L21.5059,9.87891 C21.7598,9.86914 21.8379,9.88867 22.0332,10.08398 L22.6094,10.66016 L20.168,13.10156 L19.5918,12.52539 C19.3965,12.33008 19.3672,12.25195 19.377,11.98828 L19.4453,11.01172 L17.9512,9.52734 L16.4277,9.78125 C16.1055,9.84961 15.959,9.82031 15.7148,9.58594 L13.7129,7.584 C13.459,7.3496 13.4297,7.1836 13.5859,6.8125 L14.4648,4.7227 C12.9023,3.2676 10.8711,2.6426 8.8398,3.2383 C8.6836,3.2773 8.625,3.1504 8.752,3.043 Z M3.27344,21.3047 L2.10156,20.14258 C1.63281,19.683594 1.74023,19.341797 2.14062,18.9804688 L12.9512,8.8047 L14.416,10.28906 L4.42578,21.27539 C4.07422,21.67578 3.74219,21.77344 3.27344,21.3047 Z" id="Shape"></path>
                </g>
                <text id="Exporting" fill="#000000" fill-rule="nonzero" font-family="Helvetica-Bold, Helvetica" font-size="13" font-weight="bold">
                    <tspan x="1282" y="1954">Exporting</tspan>
                </text>
                <text id="Symbols-should-be-outlined-when-exporting-to-ensure-the" fill="#000000" fill-rule="nonzero" font-family="Helvetica" font-size="13" font-weight="normal">
                    <tspan x="1282" y="1972">Symbols should be outlined when exporting to ensure the</tspan>
                </text>
                <text id="design-is-preserved-when-submitting-to-Xcode." fill="#000000" fill-rule="nonzero" font-family="Helvetica" font-size="13" font-weight="normal">
                    <tspan x="1282" y="1990">design is preserved when submitting to Xcode.</tspan>
                </text>
                <text id="template-version" fill="#000000" fill-rule="nonzero" font-family="Helvetica" font-size="13" font-weight="normal">
                    <tspan x="2945" y="1934">Template v.2.0</tspan>
                </text>
                <text id="Requires-Xcode-12-or-greater" fill="#000000" fill-rule="nonzero" font-family="Helvetica" font-size="13" font-weight="normal">
                    <tspan x="2858" y="1952">Requires Xcode 12 or greater</tspan>
                </text>
                <text id="Generated-from-bubble.left.and.bubble.right.fill" fill="#000000" fill-rule="nonzero" font-family="Helvetica" font-size="13" font-weight="normal">
                    <tspan x="2761" y="1970">Generated from bubble.left.and.bubble.right.fill</tspan>
                </text>
                <text id="Typeset-at-100-points" fill="#000000" fill-rule="nonzero" font-family="Helvetica" font-size="13" font-weight="normal">
                    <tspan x="2905" y="1988">Typeset at 100 points</tspan>
                </text>
                <text id="Small" fill="#000000" fill-rule="nonzero" font-family="Helvetica" font-size="13" font-weight="normal">
                    <tspan x="256" y="727">Small</tspan>
                </text>
                <text id="Medium" fill="#000000" fill-rule="nonzero" font-family="Helvetica" font-size="13" font-weight="normal">
                    <tspan x="256" y="1157">Medium</tspan>
                </text>
                <text id="Large" fill="#000000" fill-rule="nonzero" font-family="Helvetica" font-size="13" font-weight="normal">
                    <tspan x="256" y="1587">Large</tspan>
                </text>
            </g>
            <g id="Guides" transform="translate(256, 626)">
                <g id="H-reference" transform="translate(76, 0)" fill="#27AAE1" fill-rule="nonzero">
                    <path d="M0.976562,71 L3.66211,71 L12.9883,46.5371 L45.7031,46.5371 L55.0781,71 L57.7148,71 L30.6152,0.541 L28.125,0.541 L0.976562,71 Z M29.2969,3.8613 L29.3945,3.8613 L44.873,44.291 L13.8672,44.291 L29.2969,3.8613 Z" id="Shape"></path>
                </g>
                <line x1="0" y1="71" x2="2773" y2="71" id="Baseline-S" stroke="#27AAE1" stroke-width="0.5"></line>
                <line x1="0" y1="0.541" x2="2773" y2="0.541" id="Capline-S" stroke="#27AAE1" stroke-width="0.5"></line>
                <g id="H-reference" transform="translate(76, 430)" fill="#27AAE1" fill-rule="nonzero">
                    <path d="M0.976562,71 L3.66211,71 L12.9883,46.5371 L45.7031,46.5371 L55.0781,71 L57.7148,71 L30.6152,0.541 L28.125,0.541 L0.976562,71 Z M29.2969,3.8613 L29.3945,3.8613 L44.873,44.291 L13.8672,44.291 L29.2969,3.8613 Z" id="Shape"></path>
                </g>
                <line x1="0" y1="501" x2="2773" y2="501" id="Baseline-M" stroke="#27AAE1" stroke-width="0.5"></line>
                <line x1="0" y1="430.54" x2="2773" y2="430.54" id="Capline-M" stroke="#27AAE1" stroke-width="0.5"></line>
                <g id="H-reference" transform="translate(76, 860)" fill="#27AAE1" fill-rule="nonzero">
                    <path d="M0.976562,71 L3.66211,71 L12.9883,46.5371 L45.7031,46.5371 L55.0781,71 L57.7148,71 L30.6152,0.541 L28.125,0.541 L0.976562,71 Z M29.2969,3.8613 L29.3945,3.8613 L44.873,44.291 L13.8672,44.291 L29.2969,3.8613 Z" id="Shape"></path>
                </g>
                <line x1="0" y1="931" x2="2773" y2="931" id="Baseline-L" stroke="#27AAE1" stroke-width="0.5"></line>
                <line x1="0" y1="860.54" x2="2773" y2="860.54" id="Capline-L" stroke="#27AAE1" stroke-width="0.5"></line>
                <line x1="1105.4" y1="405.79" x2="1105.4" y2="525.12" id="left-margin" stroke="#00AEEF" stroke-width="0.5"></line>
                <line x1="1268.29" y1="405.79" x2="1268.29" y2="525.12" id="right-margin" stroke="#00AEEF" stroke-width="0.5"></line>
            </g>
            <g id="Symbols" transform="translate(474.88, 618.09)" fill="#000000" fill-rule="nonzero">
                <g id="Black-L" transform="translate(2351.61, 832.66)">
                    <path d="M80.752767,0 C111.934742,0 138.782084,13.9671506 152.256378,34.5129059 C180.88737,39.89694 201.98,60.4498902 201.98,85.0702917 C201.98,103.810634 190.005082,120.436974 171.985682,128.778711 C174.551736,133.749473 179.341703,140.491425 181.907757,143.862401 C184.929998,147.861865 183.105249,152.832626 177.231836,152.832626 C169.533675,152.832626 153.795211,145.06224 142.219458,136.777638 C125.922576,137.222757 111.293862,133.642979 99.7052509,127.20024 C91.8280024,128.718711 83.4228214,129.415669 74.6286595,129.175943 C60.1729172,139.501473 40.5188046,149.186108 30.90538,149.186108 C23.570693,149.186108 21.2919553,142.99079 25.0661146,138.006052 L26.105219,136.625991 C29.4391547,132.146135 34.5727234,124.782252 37.4567508,119.206466 C14.9542161,108.809725 0,88.087454 0,64.7303926 C0,28.9114845 35.8901187,0 80.752767,0 Z M80.752767,11.7497412 C42.370279,11.7497412 11.8209518,35.5340659 11.8209518,64.7303926 C11.8209518,83.6723997 24.6388513,100.264459 46.9989649,110.661199 C51.5564403,112.797516 52.0549142,116.073201 50.0610187,119.77615 C47.8127998,124.008091 42.7401379,130.69607 38.8340937,135.56395 L37.9552247,136.653051 C37.5991719,137.151525 37.8128036,137.578788 38.382488,137.365157 C44.5746412,134.847468 56.4236552,127.583218 65.1068501,121.412772 L66.2970248,120.559466 C69.0030258,118.42315 71.2817635,117.497412 74.2726067,117.497412 C77.1210288,117.568623 79.328556,117.639833 80.752767,117.639833 L82.2306207,117.628095 C83.7043863,117.604653 85.1656243,117.546205 86.6119665,117.453694 C77.7773526,108.677871 72.6508871,97.4829988 72.6508871,85.0702917 C72.6508871,56.6223707 100.811464,33.6048665 136.228204,33.1411307 C123.715034,20.1702847 103.633122,11.7497412 80.752767,11.7497412 Z M171.244377,143.348185 C171.700565,143.51959 171.871635,143.176779 171.586518,142.776833 L170.761988,141.75207 C167.65111,137.860032 163.669767,132.587724 161.892537,129.235793 C160.295881,126.264763 160.695045,123.636544 164.344544,121.922489 C182.249897,113.580751 192.514113,100.268252 192.514113,85.0702917 C192.514113,61.6448641 168.051066,42.5617109 137.315444,42.5617109 C106.522798,42.5617109 82.0597512,61.6448641 82.0597512,85.0702917 C82.0597512,108.438584 106.522798,127.521737 137.315444,127.521737 L138.133888,127.514429 C139.237075,127.497251 140.71241,127.452359 142.504575,127.407467 C144.899558,127.407467 146.724308,128.150224 148.891197,129.86428 L150.023535,130.676368 C156.959774,135.599324 166.328359,141.345446 171.244377,143.348185 Z" id="Path-9"></path>
                </g>
                <g id="Heavy-L" transform="translate(2057.98, 834.08)">
                    <path d="M78.3579305,0 C108.61516,0 134.666307,13.5529351 147.741002,33.4893773 C175.522902,38.7137403 195.99,58.657164 195.99,82.5474129 C195.99,100.731984 184.370215,116.865247 166.885205,124.959598 C169.375159,129.782945 174.023073,136.324955 176.513027,139.59596 C179.44564,143.476814 177.675006,148.30016 171.975778,148.30016 C164.505916,148.30016 149.234199,140.760216 138.00174,132.721305 C122.188166,133.153223 107.993286,129.67961 96.7483519,123.427938 C89.1047142,124.901378 80.9488007,125.577666 72.415442,125.345049 C58.388405,135.364361 39.3171627,144.761785 29.9888376,144.761785 C22.8716711,144.761785 20.6605125,138.750198 24.3227439,133.913289 L25.3310322,132.574156 C28.5660953,128.227156 33.5474209,121.081659 36.3459184,115.671231 C14.5107279,105.58282 0,85.4750971 0,62.8107221 C0,28.0540739 34.8257469,0 78.3579305,0 Z M78.3579305,11.4012862 C41.113729,11.4012862 11.4703849,34.4802534 11.4703849,62.8107221 C11.4703849,81.1909774 23.9081516,97.2909755 45.6051448,107.379386 C50.0274618,109.452347 50.5111527,112.630888 48.576389,116.22402 C46.3948442,120.330458 41.4726192,126.820095 37.6824142,131.543611 L36.8296093,132.600413 C36.4841158,133.084104 36.6914119,133.498696 37.2442015,133.2914 C41.3254578,131.631988 47.9392424,127.847582 54.4026461,123.71419 L55.4780276,123.022365 C58.1607001,121.286245 60.7913881,119.506668 63.1760152,117.812106 L64.3308936,116.984106 C66.9566443,114.911145 69.1678029,114.012862 72.0699484,114.012862 C74.8338966,114.081961 76.9759564,114.151059 78.3579305,114.151059 L79.7919564,114.139669 C81.2220154,114.116922 82.6399183,114.060207 84.0433673,113.97044 C75.4707562,105.454876 70.4963232,94.5920038 70.4963232,82.5474129 C70.4963232,54.9431549 97.8217583,32.608267 132.188166,32.158284 C120.046091,19.5721066 100.559737,11.4012862 78.3579305,11.4012862 Z M166.165885,139.096993 C166.608544,139.263316 166.774541,138.930671 166.497879,138.542586 L165.697802,137.548213 C162.679181,133.7716 158.81591,128.655649 157.091387,125.403124 C155.542082,122.520205 155.929408,119.969929 159.470676,118.306706 C176.845021,110.212355 186.804837,97.2946565 186.804837,82.5474129 C186.804837,59.8166992 163.067276,41.2994837 133.243162,41.2994837 C103.363715,41.2994837 79.6261542,59.8166992 79.6261542,82.5474129 C79.6261542,105.222686 103.363715,123.739901 133.243162,123.739901 L134.037334,123.73281 C135.107804,123.716141 136.539386,123.67258 138.278402,123.62902 C140.602359,123.62902 142.372993,124.34975 144.47562,126.012973 L145.574377,126.800977 C152.304912,131.577936 161.395658,137.153649 166.165885,139.096993 Z" id="Path-9"></path>
                </g>
                <g id="Bold-L" transform="translate(1764.73, 835.69)">
                    <path d="M79.6453051,0 C110.399643,0 136.878795,13.7756019 150.168299,34.039588 C178.406639,39.3497842 199.21,59.6208666 199.21,83.9036182 C199.21,102.386951 187.399309,118.785274 169.627031,127.012611 C172.157893,131.915202 176.88217,138.564694 179.413032,141.889439 C182.393826,145.834053 180.594101,150.736644 174.801238,150.736644 C167.208651,150.736644 151.686029,143.072824 140.269027,134.901838 C124.195645,135.340852 109.767552,131.810169 98.3378702,125.455786 C90.5686521,126.953433 82.2787417,127.640833 73.6051849,127.404395 C59.347692,137.588318 39.9631204,147.140136 30.4815365,147.140136 C23.2474391,147.140136 20.9999526,141.029782 24.7223522,136.113405 L25.7472061,134.752271 C29.0354194,130.333853 34.0985852,123.070959 36.9430604,117.571641 C14.7491306,107.317483 0,86.8794024 0,63.8426652 C0,28.5149858 35.3979134,0 79.6453051,0 Z M79.6453051,11.5886026 C41.7892033,11.5886026 11.6588365,35.0467436 11.6588365,63.8426652 C11.6588365,82.5248972 24.3009485,98.8894088 46.3544104,109.143566 C50.8493835,111.250585 51.3410212,114.481347 49.3744704,118.133512 C47.1570841,122.307416 42.1539898,128.903674 38.3015141,133.704795 L37.4346981,134.77896 C37.0835283,135.270597 37.2942302,135.692001 37.8561018,135.481299 C43.9633344,132.998139 55.6498483,125.833512 64.2139598,119.74769 L65.3878122,118.906086 C68.0567025,116.799067 70.304189,115.886026 73.2540152,115.886026 C76.0633734,115.95626 78.240626,116.026494 79.6453051,116.026494 L81.1028912,116.014916 C82.5564452,115.991796 83.9976434,115.934149 85.4241502,115.842907 C76.7106962,107.187438 71.6545362,96.1460946 71.6545362,83.9036182 C71.6545362,55.8458385 99.428912,33.1440016 134.359939,32.6866256 C122.018377,19.8936648 102.211874,11.5886026 79.6453051,11.5886026 Z M168.895893,141.382275 C169.345824,141.55133 169.514548,141.21322 169.233341,140.818759 L168.420119,139.808049 C165.351904,135.969388 161.425162,130.769386 159.672306,127.463424 C158.097547,124.533139 158.491236,121.940965 162.090685,120.250416 C179.75048,112.023079 189.87393,98.8931502 189.87393,83.9036182 C189.87393,60.7994523 165.746375,41.9780098 135.432268,41.9780098 C105.06192,41.9780098 80.9343649,60.7994523 80.9343649,83.9036182 C80.9343649,106.951432 105.06192,125.772875 135.432268,125.772875 L136.239488,125.765667 C137.327545,125.748724 138.782648,125.704448 140.550234,125.660172 C142.912372,125.660172 144.712097,126.392743 146.849269,128.083292 L147.966078,128.884242 C154.807192,133.739683 164.047293,139.407002 168.895893,141.382275 Z" id="Path-9"></path>
                </g>
                <g id="Semibold-L" transform="translate(1470.39, 836.76)">
                    <path d="M73.8561177,0 C102.375012,0 126.92947,12.7742931 139.252999,31.5653485 C165.438775,36.489562 184.73,55.2871978 184.73,77.8049063 C184.73,94.9447389 173.777794,110.151115 157.297332,117.780431 C159.644233,122.326667 164.025115,128.492826 166.372017,131.575906 C169.136145,135.233797 167.467237,139.780033 162.095441,139.780033 C155.054737,139.780033 140.660409,132.673273 130.073277,125.096213 C115.168222,125.503316 101.788866,122.229268 91.1899742,116.336767 C83.9854781,117.725555 76.2981374,118.362989 68.2550365,118.143737 C55.0338796,127.58742 37.0583165,136.444944 28.2659216,136.444944 C21.5576499,136.444944 19.4735266,130.778734 22.9253558,126.219714 L23.875716,124.957517 C26.9249185,120.860261 31.6200574,114.125287 34.2577759,109.025698 C13.6770588,99.5168852 0,80.5643894 0,59.2021261 C0,26.4423137 32.8249412,0 73.8561177,0 Z M73.8561177,10.7462605 C38.7516667,10.7462605 10.8113894,32.4992969 10.8113894,59.2021261 C10.8113894,76.5264006 22.5345826,91.701423 42.985042,101.210235 C47.1532885,103.164101 47.6091905,106.160028 45.7855827,109.546728 C43.7293718,113.417243 39.089938,119.534038 35.5174875,123.986179 L34.7136779,124.982266 C34.3880336,125.438168 34.5834202,125.828941 35.104451,125.633555 C40.7677665,123.330888 51.6048214,116.687038 59.5464324,111.043576 L60.6349608,110.263146 C63.1098572,108.30928 65.1939804,107.462605 67.9293922,107.462605 C70.5345463,107.527734 72.5535407,107.592863 73.8561177,107.592863 L75.2077561,107.582127 C76.5556554,107.560687 77.8920971,107.50723 79.2149152,107.422621 C71.1348171,99.3962921 66.4461748,89.1575124 66.4461748,77.8049063 C66.4461748,51.7865657 92.2017113,30.7348598 124.593703,30.3107291 C113.149214,18.4476517 94.7823879,10.7462605 73.8561177,10.7462605 Z M156.619338,131.105605 C157.036565,131.262372 157.193025,130.948839 156.932258,130.583049 L156.178147,129.645806 C153.332952,126.086166 149.691633,121.264136 148.066186,118.198475 C146.605892,115.481185 146.970966,113.077428 150.308781,111.50976 C166.684937,103.880444 176.072542,91.7048925 176.072542,77.8049063 C176.072542,56.3801156 153.69875,38.9267494 125.588087,38.9267494 C97.4252719,38.9267494 75.0514795,56.3801156 75.0514795,77.8049063 C75.0514795,99.1774415 97.4252719,116.630808 125.588087,116.630808 L126.336633,116.624123 C127.345602,116.608412 128.694938,116.567354 130.334043,116.526296 C132.524485,116.526296 134.193392,117.205619 136.17522,118.773287 L137.210851,119.516018 C143.554704,124.018532 152.123169,129.273909 156.619338,131.105605 Z" id="Path-9"></path>
                </g>
                <g id="Medium-L" transform="translate(1175.49, 837.59)">
                    <path d="M77.3024433,0 C107.152106,0 132.852342,13.3703761 145.750919,33.0382728 C173.158595,38.1922633 193.35,57.8670476 193.35,81.4354931 C193.35,99.3751165 181.886734,115.291063 164.637249,123.276383 C167.093663,128.034759 171.678969,134.488648 174.135384,137.715592 C177.028493,141.54417 175.28171,146.302546 169.659251,146.302546 C162.290009,146.302546 147.224003,138.864166 136.142846,130.933539 C120.542282,131.359639 106.538609,127.932815 95.4451444,121.765355 C87.9044671,123.218947 79.8584142,123.886125 71.4400005,123.656642 C57.6019088,133.540993 38.7875575,142.811833 29.5848857,142.811833 C22.563588,142.811833 20.3822139,136.881222 23.9951147,132.109467 L24.9898213,130.788372 C28.1813078,126.499927 33.0955346,119.45068 35.8563361,114.113131 C14.3152673,104.160611 0,84.3237411 0,61.964657 C0,27.6761834 34.3566415,0 77.3024433,0 Z M77.3024433,11.24771 C40.559924,11.24771 11.3158779,34.0158018 11.3158779,61.964657 C11.3158779,80.0973288 23.586107,95.9804587 44.99084,105.932978 C49.3535882,107.978016 49.8307637,111.113741 47.9220614,114.658474 C45.7699022,118.709597 40.9139799,125.111819 37.1748293,129.771709 L36.3335117,130.814276 C35.992672,131.291451 36.1971758,131.700459 36.7425194,131.495955 C42.6701004,129.08584 54.0128416,122.131969 62.3250295,116.225168 L63.4643516,115.408321 C66.0547333,113.363283 68.2361074,112.4771 71.0991608,112.4771 C73.8258784,112.545268 75.9390845,112.613436 77.3024433,112.613436 L78.7171528,112.602199 C80.1279488,112.579758 81.5267524,112.523808 82.9112968,112.43525 C74.4541595,104.034391 69.5467325,93.3178424 69.5467325,81.4354931 C69.5467325,54.2030665 96.5040919,32.1690312 130.407581,31.7251095 C118.429061,19.3084689 99.2051897,11.24771 77.3024433,11.24771 Z M163.927619,137.223346 C164.364314,137.387428 164.528075,137.059265 164.25514,136.676407 L163.46584,135.695428 C160.487881,131.969686 156.676648,126.922648 154.975354,123.713935 C153.446919,120.869848 153.829027,118.353925 157.322594,116.713106 C174.462905,108.727786 184.288562,95.9840901 184.288562,81.4354931 C184.288562,59.0109638 160.870748,40.7431765 131.448366,40.7431765 C101.971398,40.7431765 78.553584,59.0109638 78.553584,81.4354931 C78.553584,103.805328 101.971398,122.073116 131.448366,122.073116 L132.231841,122.066119 C133.287892,122.049675 134.700191,122.006702 136.415781,121.963728 C138.708434,121.963728 140.455218,122.674749 142.529523,124.315569 L143.613479,125.092958 C150.253354,129.805571 159.221646,135.306179 163.927619,137.223346 Z" id="Path-9"></path>
                </g>
                <g id="Regular-L" transform="translate(881.14, 838.67)">
                    <path d="M70.2418736,0 C97.3651591,0 120.718013,12.1491667 132.438474,30.0206576 C157.342816,34.7038984 175.69,52.5816478 175.69,73.9974232 C175.69,90.2984961 165.273754,104.760728 149.599784,112.016694 C151.831837,116.340454 155.998335,122.204864 158.230388,125.13707 C160.85925,128.615957 159.272013,132.939717 154.163092,132.939717 C147.466934,132.939717 133.777011,126.180736 123.707974,118.974469 C109.532317,119.36165 96.8076968,116.247822 86.7274756,110.643678 C79.8755408,111.964503 72.56439,112.570744 64.9148885,112.362221 C52.3407259,121.343766 35.2448202,129.767835 26.8826924,129.767835 C20.5026986,129.767835 18.5205646,124.378909 21.803474,120.04299 L22.7073271,118.84256 C25.607313,114.945809 30.0726893,108.540419 32.5813276,103.690385 C13.0077544,94.6468985 0,76.6218674 0,56.3049939 C0,25.1483251 31.2186105,0 70.2418736,0 Z M70.2418736,10.2203784 C36.8553041,10.2203784 10.2823201,30.9089021 10.2823201,56.3049939 C10.2823201,72.7814828 21.4318239,87.213896 40.8815138,96.2573824 C44.8457818,98.115633 45.2793736,100.964951 43.5450063,104.185918 C41.5894188,107.867024 37.1770216,113.684487 33.7793936,117.918756 L33.0149194,118.866098 C32.705211,119.29969 32.8910361,119.67134 33.3865696,119.485515 C38.7727434,117.295532 49.0794732,110.976807 56.6324512,105.609515 L57.6677111,104.867277 C60.0214952,103.009026 62.0036292,102.203784 64.6051801,102.203784 C67.0828476,102.265726 69.0030399,102.327668 70.2418736,102.327668 L71.5273678,102.317457 C72.809306,102.297066 74.0803472,102.246226 75.3384315,102.165757 C67.6537433,94.5322068 63.1945458,84.794475 63.1945458,73.9974232 C63.1945458,49.2523235 87.6897021,29.2308099 118.49655,28.8274346 C107.612112,17.5448922 90.1440899,10.2203784 70.2418736,10.2203784 Z M148.954969,124.689784 C149.351779,124.838879 149.500582,124.540689 149.252576,124.1928 L148.535369,123.301421 C145.829407,119.915977 142.36628,115.32992 140.820377,112.414281 C139.431545,109.829965 139.778753,107.543838 142.953228,106.052887 C158.527995,98.7969213 167.456206,87.2171957 167.456206,73.9974232 C167.456206,53.6210821 146.177304,37.0218189 119.442273,37.0218189 C92.6576409,37.0218189 71.3787389,53.6210821 71.3787389,73.9974232 C71.3787389,94.3240659 92.6576409,110.923329 119.442273,110.923329 L120.154187,110.916972 C121.113782,110.90203 122.397085,110.862981 123.955979,110.823932 C126.039229,110.823932 127.626466,111.470011 129.51131,112.960963 L130.496261,113.667349 C136.52967,117.949525 144.678826,122.947725 148.954969,124.689784 Z" id="Path-9"></path>
                </g>
                <g id="Light-L" transform="translate(587.41, 840.77)">
                    <path d="M67.6791187,0 C93.8128187,0 116.313651,11.7059078 127.606494,28.9253624 C151.602208,33.4377364 169.28,50.6632212 169.28,71.2976482 C169.28,87.003981 159.243788,100.938563 144.141679,107.929796 C146.292295,112.095805 150.30678,117.746254 152.457397,120.571479 C154.990346,123.92344 153.461018,128.089449 148.538495,128.089449 C142.086645,128.089449 128.896195,121.577067 119.194523,114.633719 C105.536062,115.006774 93.2756954,112.006553 83.5632482,106.606875 C76.9613043,107.87951 69.9168987,108.463632 62.5464871,108.262717 C50.4310894,116.916573 33.9589229,125.033293 25.9018849,125.033293 C19.7546634,125.033293 17.844847,119.840979 21.0079804,115.663256 L21.8788567,114.506623 C24.6730375,110.752044 28.9754957,104.580353 31.3926071,99.9072705 C12.5331701,91.1937332 0,73.8263403 0,54.2507222 C0,24.2307956 30.0796083,0 67.6791187,0 Z M67.6791187,9.84749082 C35.5106487,9.84749082 9.90717258,29.7811995 9.90717258,54.2507222 C9.90717258,70.126071 20.6498898,84.0319217 39.3899633,92.745459 C43.2095961,94.5359119 43.6273684,97.2812729 41.9562791,100.384725 C40.0720406,103.931526 35.8206285,109.53674 32.546962,113.616524 L31.8103794,114.529302 C31.5119706,114.947075 31.6910159,115.305165 32.16847,115.12612 C37.3581308,113.016038 47.2888224,106.92785 54.5662322,101.756382 L55.5637209,101.041224 C57.8316279,99.2507711 59.7414443,98.4749082 62.2480783,98.4749082 C64.6353488,98.53459 66.4854835,98.5942717 67.6791187,98.5942717 L68.917712,98.5844336 C70.1528791,98.5647867 71.3775467,98.5158013 72.5897301,98.4382678 C65.1854156,91.083226 60.8889106,81.7007725 60.8889106,71.2976482 C60.8889106,47.4553664 84.4903681,28.1643321 114.173237,27.7756738 C103.685914,16.9047717 86.8552083,9.84749082 67.6791187,9.84749082 Z M143.520389,120.140512 C143.902721,120.284168 144.046096,119.996857 143.807138,119.661661 L143.116098,118.802804 C140.508862,115.540877 137.172087,111.12214 135.682586,108.312878 C134.344424,105.822849 134.678964,103.620132 137.73762,102.183577 C152.744146,95.1923435 161.346613,84.035101 161.346613,71.2976482 C161.346613,51.6647321 140.844066,35.6710883 115.084455,35.6710883 C89.2770531,35.6710883 68.7745058,51.6647321 68.7745058,71.2976482 C68.7745058,90.882679 89.2770531,106.876323 115.084455,106.876323 L115.770396,106.870198 C116.69498,106.855801 117.931462,106.818177 119.433481,106.780553 C121.440723,106.780553 122.97005,107.40306 124.786127,108.839614 L125.735142,109.520227 C131.548424,113.64617 139.40026,118.462012 143.520389,120.140512 Z" id="Path-9"></path>
                </g>
                <g id="Thin-L" transform="translate(294.68, 843.55)">
                    <path d="M64.0448844,0 C88.7752566,0 110.067839,11.0773237 120.754279,27.3721279 C143.46147,31.6421964 160.19,47.9427068 160.19,67.469106 C160.19,82.3320399 150.692713,95.5183624 136.401557,102.134181 C138.43669,106.076483 142.235604,111.423514 144.270737,114.09703 C146.667672,117.268997 145.220466,121.2113 140.562273,121.2113 C134.456874,121.2113 121.974725,115.04862 112.794014,108.478116 C99.8689846,108.831139 88.2669757,105.992023 79.0760676,100.882297 C72.828635,102.086595 66.1625,102.639351 59.1878649,102.449224 C47.72304,110.638385 32.1353961,118.319253 24.5110051,118.319253 C18.6938772,118.319253 16.8866141,113.405756 19.8798936,109.452369 L20.7040055,108.357845 C23.3481443,104.804879 27.4195691,98.9645952 29.7068864,94.5424484 C11.8601638,86.2968107 0,69.8620123 0,51.3375661 C0,22.92965 28.4643931,0 64.0448844,0 Z M64.0448844,9.31870011 C33.6037974,9.31870011 9.37517708,28.1820082 9.37517708,51.3375661 C9.37517708,66.3604402 19.5410317,79.5195743 37.2748004,87.7652119 C40.8893265,89.459521 41.2846653,92.0574617 39.7033102,94.9942641 C37.9202515,98.3506098 33.8971318,103.654835 30.7992547,107.515542 L30.1022252,108.379306 C29.8198403,108.774645 29.9892713,109.113507 30.441087,108.944076 C35.3520734,106.947301 44.7495065,101.186037 51.6361338,96.2922664 L52.5800594,95.6155108 C54.7261843,93.9212017 56.5334473,93.1870011 58.9054801,93.1870011 C61.1645589,93.2434781 62.915345,93.299955 64.0448844,93.299955 L65.2169677,93.2906452 C66.3858087,93.2720533 67.5447141,93.2256983 68.6918057,93.1523282 C61.6850882,86.1922375 57.619297,77.3136032 57.619297,67.469106 C57.619297,44.9071074 79.953403,26.6519634 108.042361,26.2841753 C98.1181863,15.997019 82.191256,9.31870011 64.0448844,9.31870011 Z M135.813629,113.689205 C136.175431,113.825147 136.311106,113.553264 136.08498,113.236067 L135.431047,112.423329 C132.963815,109.336561 129.806218,105.155102 128.3967,102.496691 C127.130395,100.140372 127.446971,98.0559365 130.341383,96.6965218 C144.542089,90.0807036 152.682621,79.5225829 152.682621,67.469106 C152.682621,48.8904385 133.281019,33.7556217 108.904649,33.7556217 C84.4830526,33.7556217 65.0814513,48.8904385 65.0814513,67.469106 C65.0814513,86.0024596 84.4830526,101.137276 108.904649,101.137276 L109.553755,101.13148 C110.428691,101.117856 111.598777,101.082253 113.02014,101.046649 C114.919597,101.046649 116.366803,101.635728 118.08536,102.995143 L118.983415,103.639209 C124.484534,107.543597 131.914743,112.100837 135.813629,113.689205 Z" id="Path-9"></path>
                </g>
                <g id="Ultralight-L" transform="translate(0, 844.96)">
                    <path d="M62.5256225,0 C86.669345,0 107.456828,10.8145493 117.889766,26.7228109 C140.058302,30.8915855 156.39,46.805418 156.39,65.8686153 C156.39,80.3789732 147.118006,93.252492 133.165862,99.7113708 C135.152718,103.560155 138.861516,108.780345 140.848371,111.390439 C143.188446,114.487162 141.775571,118.335946 137.227878,118.335946 C131.267311,118.335946 119.081261,112.319456 110.118333,105.904816 C97.4999095,106.249465 86.1731214,103.477699 77.2002386,98.4891844 C71.1010065,99.6649137 64.5930044,100.204557 57.7838204,100.018941 C46.5909621,108.01384 31.3730857,115.512504 23.9295592,115.512504 C18.2504242,115.512504 16.4860327,110.715564 19.4083061,106.855958 L20.2128686,105.787398 C22.7942836,102.318715 26.7691267,96.6169738 29.0021847,92.2997285 C11.578819,84.2496924 0,68.2047575 0,50.119745 C0,22.3857167 27.7891656,0 62.5256225,0 Z M62.5256225,9.09764349 C32.8066538,9.09764349 9.15278072,27.5134794 9.15278072,50.119745 C9.15278072,64.7862491 19.0774827,77.6332244 36.3905739,85.6832605 C39.9193569,87.3373775 40.3053175,89.8736902 38.761475,92.7408263 C37.0207138,96.0175533 33.0930298,101.195952 30.0686401,104.965076 L29.3881453,105.808351 C29.1124592,106.194311 29.2778709,106.525135 29.7189687,106.359723 C34.5134575,104.410315 43.6879663,98.7857186 50.4112302,94.0080376 L51.3327642,93.3473359 C53.427979,91.6932189 55.1923705,90.9764349 57.5081343,90.9764349 C59.7136236,91.0315721 61.4228778,91.0867093 62.5256225,91.0867093 L63.6699019,91.0776204 C64.8110158,91.0594695 65.9424299,91.0142141 67.0623104,90.9425845 C60.221805,84.1475999 56.2524618,75.479583 56.2524618,65.8686153 C56.2524618,43.8418287 78.056762,26.01973 105.479398,25.6606665 C95.7906433,15.6175405 80.241529,9.09764349 62.5256225,9.09764349 Z M132.591881,110.992289 C132.9451,111.125006 133.077557,110.859573 132.856795,110.5499 L132.218375,109.756442 C129.80967,106.742898 126.726977,102.660631 125.350895,100.065282 C124.114629,97.7648594 124.423696,95.7298702 127.249447,94.4027033 C141.113286,87.9438245 149.060709,77.6361617 149.060709,65.8686153 C149.060709,47.7306679 130.11935,32.9548765 106.321231,32.9548765 C82.4789599,32.9548765 63.5376002,47.7306679 63.5376002,65.8686153 C63.5376002,83.9623238 82.4789599,98.7381151 106.321231,98.7381151 L106.954939,98.7324563 C107.80912,98.7191556 108.95145,98.6843965 110.339095,98.6496373 C112.193494,98.6496373 113.606369,99.224743 115.284159,100.55191 L116.16091,101.180697 C121.531533,104.992466 128.785484,109.4416 132.591881,110.992289 Z" id="Path-9"></path>
                </g>
                <g id="Black-M" transform="translate(2371.51, 417.85)">
                    <path d="M63.7170437,0 C88.320823,0 109.50441,11.0206198 120.136147,27.2320121 C142.727102,31.4802224 159.37,47.6972918 159.37,67.1237369 C159.37,81.9105887 149.921329,95.0294114 135.703328,101.611364 C137.728043,105.533486 141.507512,110.853146 143.532227,113.512976 C145.916892,116.668707 144.477094,120.590829 139.842746,120.590829 C133.7686,120.590829 121.350346,114.459695 112.21663,107.922825 C99.3577632,108.274041 87.815144,105.449458 78.6712835,100.365889 C72.455831,101.564021 65.8238194,102.113948 58.8848869,101.924795 C47.4787495,110.072036 31.9708976,117.713586 24.3855352,117.713586 C18.5981847,117.713586 16.8001729,112.825241 19.77813,108.89209 L20.5980233,107.80317 C23.228627,104.268391 27.2792105,98.4580032 29.5548192,94.058493 C11.7994525,85.8550641 0,69.5043942 0,51.0747731 C0,22.8122749 28.3186861,0 63.7170437,0 Z M63.7170437,9.27099842 C33.4317822,9.27099842 9.32718629,28.0377467 9.32718629,51.0747731 C9.32718629,66.0207463 19.4410027,79.1125198 37.0839937,87.3159487 C40.6800173,89.0015848 41.0733324,91.5862268 39.500072,94.507996 C37.7261407,97.8471608 33.7236151,103.124234 30.6415958,106.965178 L29.9481343,107.824521 C29.6671949,108.217836 29.8357585,108.554963 30.2852615,108.3864 C35.1711089,106.399846 44.5204373,100.668073 51.3718125,95.7993538 L52.3109062,95.1260625 C54.4460452,93.4404265 56.2440571,92.7099842 58.6039476,92.7099842 C60.8514623,92.766172 62.5932863,92.8223599 63.7170437,92.8223599 L64.8831272,92.8130978 C66.045985,92.794601 67.198958,92.7484833 68.3401778,92.6754888 C61.3693271,85.7510262 57.3243484,76.9178409 57.3243484,67.1237369 C57.3243484,44.6772315 79.5441278,26.5155341 107.4893,26.1496286 C97.615927,15.9151316 81.7705254,9.27099842 63.7170437,9.27099842 Z M135.11841,113.107239 C135.478359,113.242485 135.61334,112.971994 135.388372,112.656421 L134.737786,111.847843 C132.283184,108.776876 129.14175,104.616821 127.739447,101.972019 C126.479625,99.6277617 126.79458,97.5539959 129.674175,96.2015399 C143.802189,89.6195876 151.90105,79.115513 151.90105,67.1237369 C151.90105,48.6401722 132.598764,33.5828293 108.347174,33.5828293 C84.0505905,33.5828293 64.7483045,48.6401722 64.7483045,67.1237369 C64.7483045,85.5622197 84.0505905,100.619563 108.347174,100.619563 L108.992958,100.613796 C109.863415,100.600242 111.027512,100.56482 112.441598,100.529399 C114.331333,100.529399 115.77113,101.115463 117.48089,102.467919 L118.374348,103.108688 C123.847308,106.993089 131.239482,111.527001 135.11841,113.107239 Z" id="Path-9"></path>
                </g>
                <g id="Heavy-M" transform="translate(2077.42, 418.87)">
                    <path d="M61.8219644,0 C85.6939754,0 106.247518,10.6928433 116.563044,26.4220746 C138.482097,30.5439342 154.63,46.2786738 154.63,65.1273354 C154.63,79.474395 145.462352,92.2030362 131.667224,98.5892274 C133.63172,102.394697 137.29878,107.55614 139.263276,110.136861 C141.577015,113.198733 140.18004,117.004203 135.683527,117.004203 C129.790039,117.004203 117.741131,111.055422 108.879071,104.712972 C96.4026537,105.053742 85.2033363,102.313169 76.3314335,97.3807953 C70.3008417,98.5432931 63.8660801,99.0768636 57.1335262,98.8933363 C46.0666313,106.798261 31.0200156,114.212536 23.660258,114.212536 C18.0450355,114.212536 16.3005003,109.469581 19.1898866,105.65341 L19.9853947,104.596876 C22.5377586,101.167229 26.4678692,95.5296545 28.6757965,91.260995 C11.4485119,83.3015534 0,67.4371869 0,49.5557016 C0,22.1337897 27.4764286,0 61.8219644,0 Z M61.8219644,8.99525937 C32.4374504,8.99525937 9.04977609,27.203845 9.04977609,49.5557016 C9.04977609,64.05715 18.8627863,76.7595466 35.9810375,84.7189882 C39.4701078,86.3544899 39.8517248,88.8622592 38.3252566,91.6971288 C36.6040857,94.9369798 32.7206036,100.057101 29.7302501,103.783808 L29.0574136,104.617592 C28.78483,104.999209 28.9483801,105.32631 29.3845139,105.162759 C34.1250459,103.23529 43.1963056,97.6739924 49.8439065,92.950079 L50.7550695,92.2968128 C52.826705,90.6613111 54.5712402,89.9525937 56.8609425,89.9525937 C59.0416115,90.0071104 60.7316299,90.0616271 61.8219644,90.0616271 L62.9533661,90.0526404 C64.0816381,90.0346938 65.2003193,89.9899477 66.3075967,89.9191242 C59.5440738,83.2006098 55.6194013,74.6301421 55.6194013,65.1273354 C55.6194013,43.3484364 77.1783177,25.7269061 104.292342,25.3718835 C94.7126234,15.441782 79.3384975,8.99525937 61.8219644,8.99525937 Z M131.099703,109.743191 C131.448947,109.874415 131.579914,109.611968 131.361636,109.305781 L130.7304,108.521252 C128.348803,105.541622 125.300802,101.505296 123.940207,98.9391557 C122.717854,96.6646219 123.023442,94.6525342 125.817392,93.3403032 C139.525208,86.954112 147.383193,76.7624508 147.383193,65.1273354 C147.383193,47.1935109 128.654997,32.5840051 105.124701,32.5840051 C81.5507486,32.5840051 62.8225533,47.1935109 62.8225533,65.1273354 C62.8225533,83.0174188 81.5507486,97.6269246 105.124701,97.6269246 L105.751278,97.6213295 C106.595845,97.6081785 107.725319,97.5738105 109.097348,97.5394426 C110.930878,97.5394426 112.327853,98.108076 113.98676,99.4203071 L114.853645,100.042018 C120.163828,103.810889 127.336143,108.209953 131.099703,109.743191 Z" id="Path-9"></path>
                </g>
                <g id="Bold-M" transform="translate(1783.61, 420.73)">
                    <path d="M62.8694555,0 C87.145946,0 108.047741,10.8740193 118.53805,26.8697616 C140.828493,31.0614606 157.25,47.0628044 157.25,66.2308316 C157.25,80.820983 147.927018,93.7652943 133.898151,100.259691 C135.895933,104.12964 139.625125,109.378536 141.622907,112.002984 C143.97585,115.116735 142.555205,118.986684 137.982505,118.986684 C131.989159,118.986684 119.736098,112.937109 110.723882,106.487195 C98.0360686,106.833738 86.6469937,104.04673 77.6247683,99.0307836 C71.4919961,100.212978 64.948206,100.755589 58.1015779,100.568953 C46.8471692,108.607816 31.5456086,116.147715 24.0611496,116.147715 C18.3507846,116.147715 16.5766906,111.324397 19.5150338,107.443567 L20.3240206,106.369131 C22.919631,102.881373 26.9163321,97.1482776 29.1616698,92.8072914 C11.6424918,84.7129876 0,68.5798205 0,50.3953572 C0,22.5088174 27.9419802,0 62.8694555,0 Z M62.8694555,9.14767209 C32.98706,9.14767209 9.20311253,27.664778 9.20311253,50.3953572 C9.20311253,65.1425134 19.1823912,78.0601352 36.5906884,86.154439 C40.1388763,87.8176521 40.5269594,90.3679122 38.9746271,93.2508149 C37.2242934,96.5455608 33.2750108,101.752436 30.2339897,105.542287 L29.5497529,106.390198 C29.2725507,106.778281 29.438872,107.110924 29.8823955,106.944603 C34.7032495,104.984475 43.9282097,99.3289485 50.6884453,94.5249946 L51.6150468,93.8606597 C53.7217834,92.1974466 55.4958773,91.4767209 57.8243757,91.4767209 C60.0419932,91.5321613 61.7606467,91.5876018 62.8694555,91.5876018 L64.0200273,91.5784628 C65.1674163,91.5602122 66.3050521,91.5147079 67.4310909,91.4426844 C60.5529691,84.6103337 56.5617982,75.8946507 56.5617982,66.2308316 C56.5617982,44.0829181 78.4860018,26.1628144 106.059437,25.8017764 C96.317403,15.7034225 80.682783,9.14767209 62.8694555,9.14767209 Z M133.321014,111.602644 C133.676175,111.736091 133.80936,111.469198 133.587385,111.157822 L132.945453,110.360001 C130.523503,107.329885 127.423858,103.225169 126.040209,100.615548 C124.797145,98.3024755 125.107911,96.2562957 127.949201,94.9218306 C141.889278,88.427434 149.880405,78.0630886 149.880405,66.2308316 C149.880405,47.9931423 130.834885,33.1360978 106.905899,33.1360978 C82.9325177,33.1360978 63.8869981,47.9931423 63.8869981,66.2308316 C63.8869981,84.4240387 82.9325177,99.2810832 106.905899,99.2810832 L107.543092,99.2753933 C108.40197,99.2620194 109.550582,99.2270692 110.945858,99.1921189 C112.810454,99.1921189 114.231099,99.7703871 115.918115,101.104852 L116.799688,101.737097 C122.199844,105.569827 129.493684,110.043427 133.321014,111.602644 Z" id="Path-9"></path>
                </g>
                <g id="Semibold-M" transform="translate(1488.9, 420.73)">
                    <path d="M58.3196659,0 C80.8392951,0 100.228451,10.0870792 109.959589,24.9252281 C130.636898,28.8135788 145.87,43.6569239 145.87,61.4377832 C145.87,74.9720623 137.221712,86.9796087 124.208097,93.0040135 C126.061302,96.5938985 129.520617,101.462938 131.373822,103.897458 C133.556485,106.785871 132.23865,110.375756 127.996871,110.375756 C122.437257,110.375756 111.070935,104.763982 102.710923,98.7808399 C90.9413121,99.1023047 80.3764513,96.5169888 72.0071539,91.8640407 C66.3182033,92.9606814 60.2479798,93.4640244 53.8968341,93.2908942 C43.4568939,100.747994 29.2626895,107.74224 22.3198721,107.74224 C17.0227596,107.74224 15.3770548,103.26798 18.1027534,99.6680005 L18.8531949,98.6713205 C21.2609639,95.4359676 24.9684284,90.1177695 27.0512736,86.0909354 C10.7999381,78.582407 0,63.6167784 0,46.7483036 C0,20.8798804 25.9198515,0 58.3196659,0 Z M58.3196659,8.48566568 C30.5998247,8.48566568 8.53709395,25.6627101 8.53709395,46.7483036 C8.53709395,60.4282253 17.7941838,72.4110138 33.9426627,79.9195422 C37.2340724,81.4623905 37.5940704,83.8280912 36.1540786,86.5023616 C34.5304144,89.5586707 30.8669369,94.3887305 28.0459909,97.9043142 L27.4112716,98.6908632 C27.1541302,99.0508612 27.308415,99.3594308 27.7198412,99.205146 C32.1918156,97.3868707 40.7491761,92.1406278 47.0201813,87.6843305 L47.8797257,87.0680727 C49.8340003,85.5252244 51.4797051,84.8566568 53.6396927,84.8566568 C55.6968238,84.9080851 57.2911004,84.9595133 58.3196659,84.9595133 L59.3869722,84.9510358 C60.451326,84.9341059 61.5066324,84.8918947 62.5511811,84.8250834 C56.170821,78.487182 52.4684865,70.4022429 52.4684865,61.4377832 C52.4684865,40.8926884 72.8060609,24.2694419 98.3840386,23.9345318 C89.3470244,14.566984 74.8438636,8.48566568 58.3196659,8.48566568 Z M123.672727,103.52609 C124.002185,103.649879 124.125732,103.402301 123.919821,103.11346 L123.324345,102.373376 C121.077668,99.5625454 118.202341,95.7548832 116.918825,93.3341178 C115.76572,91.1884394 116.053997,89.2903393 118.689665,88.0524479 C131.620915,82.0280432 139.033734,72.4137534 139.033734,61.4377832 C139.033734,44.5199343 121.366517,30.7380769 99.1692433,30.7380769 C76.9307877,30.7380769 59.2635702,44.5199343 59.2635702,61.4377832 C59.2635702,78.314369 76.9307877,92.0962264 99.1692433,92.0962264 L99.7603237,92.0909483 C100.557046,92.0785423 101.622533,92.0461213 102.916835,92.0137004 C104.646493,92.0137004 105.964327,92.55012 107.529255,93.7880113 L108.34703,94.3745013 C113.356383,97.929861 120.122377,102.079712 123.672727,103.52609 Z" id="Path-9"></path>
                </g>
                <g id="Medium-M" transform="translate(1193.7, 421.31)">
                    <path d="M61.0503393,0 C84.624394,0 104.921399,10.5593816 115.108174,26.09229 C136.753646,30.1627029 152.7,45.7010508 152.7,64.3144546 C152.7,78.4824427 143.646777,91.0522126 130.023832,97.3586951 C131.963809,101.116668 135.585098,106.213688 137.525074,108.762198 C139.809935,111.785854 138.430396,115.543826 133.990006,115.543826 C128.170077,115.543826 116.271556,109.669295 107.520107,103.406007 C95.1994129,103.742524 84.1398788,101.036157 75.3787098,96.165346 C69.4233883,97.3133341 63.0689416,97.8402449 56.4204193,97.6590083 C45.4916549,105.465269 30.6328422,112.787002 23.3649447,112.787002 C17.819808,112.787002 16.0970471,108.103246 18.9503699,104.334707 L19.7359488,103.29136 C22.2564557,99.9045195 26.137513,94.3373099 28.3178822,90.1219294 C11.3056184,82.2618328 0,66.5954759 0,48.9371767 C0,21.8575289 27.1334841,0 61.0503393,0 Z M61.0503393,8.88298587 C32.0325854,8.88298587 8.93682215,26.8643027 8.93682215,48.9371767 C8.93682215,63.2576267 18.6273522,75.8014794 35.5319435,83.661576 C38.9774653,85.2766644 39.3543192,87.7531331 37.8469034,90.5526196 C36.1472152,93.7520327 32.3122044,98.808248 29.3591747,102.48844 L28.6947362,103.311817 C28.4255548,103.688671 28.5870636,104.011689 29.0177538,103.85018 C33.6991173,101.946769 42.6571549,96.4548835 49.2217844,91.7899312 L50.1215748,91.1448187 C52.1673534,89.5297303 53.8901143,88.8298587 56.151238,88.8298587 C58.3046891,88.883695 59.9736137,88.9375313 61.0503393,88.9375313 L62.1676195,88.9286568 C63.281809,88.9109342 64.3865275,88.8667465 65.4799846,88.796807 C58.80088,82.1621491 54.9251929,73.6986529 54.9251929,64.3144546 C54.9251929,42.8073869 76.2150237,25.4057981 102.990627,25.0552067 C93.5304766,15.2490468 78.3482414,8.88298587 61.0503393,8.88298587 Z M129.463395,108.373442 C129.808279,108.503027 129.937611,108.243857 129.722058,107.941491 L129.098701,107.166754 C126.746829,104.224314 123.736872,100.238367 122.393259,97.7042558 C121.186162,95.4581113 121.487936,93.4711374 124.247014,92.1752848 C137.783738,85.8688023 145.543643,75.8043474 145.543643,64.3144546 C145.543643,46.6044695 127.049202,32.1773109 103.812596,32.1773109 C80.5328805,32.1773109 62.0384395,46.6044695 62.0384395,64.3144546 C62.0384395,81.9812446 80.5328805,96.4084032 103.812596,96.4084032 L104.431353,96.4028779 C105.265379,96.389891 106.380756,96.355952 107.73566,96.3220131 C109.546304,96.3220131 110.925843,96.8835492 112.564045,98.1794017 L113.42011,98.7933526 C118.664014,102.515183 125.746808,106.859341 129.463395,108.373442 Z" id="Path-9"></path>
                </g>
                <g id="Regular-M" transform="translate(895.12, 421.91)">
                    <path d="M58.6933594,0 C81.357287,0 100.870683,10.1517139 110.664175,25.0849409 C131.473977,28.9982068 146.804688,43.9366633 146.804688,61.8314565 C146.804688,75.4524589 138.100984,87.5369458 125.003982,93.5999529 C126.869061,97.2128407 130.350543,102.113079 132.215622,104.563199 C134.412271,107.47012 133.085993,111.083008 128.817033,111.083008 C123.221795,111.083008 111.782642,105.435275 103.369061,99.4137954 C91.5240345,99.73732 80.8914775,97.1354383 72.4685523,92.4526756 C66.7431488,93.5563432 60.6340292,94.0629115 54.2421875,93.8886719 C43.7353516,101.393555 29.4501953,108.432617 22.4628906,108.432617 C17.1318359,108.432617 15.4755859,103.929687 18.21875,100.306641 L18.974,99.3035742 C21.3971973,96.0474902 25.128418,90.6952148 27.2246094,86.6425781 C10.8691406,79.0859375 0,64.0244141 0,47.0478516 C0,21.0136719 26.0859375,0 58.6933594,0 Z M58.6933594,8.54003906 C30.7958984,8.54003906 8.59179688,25.8271484 8.59179688,47.0478516 C8.59179688,60.8154297 17.9082031,72.875 34.1601563,80.4316406 C37.4726562,81.984375 37.8349609,84.3652344 36.3857422,87.0566406 C34.7516741,90.1325335 31.0647222,94.9935427 28.2257005,98.5316532 L27.5869141,99.3232422 C27.328125,99.6855469 27.4833984,99.9960937 27.8974609,99.8408203 C32.3980903,98.0108941 41.0102836,92.7310349 47.3214713,88.2461831 L48.1865234,87.6259766 C50.1533203,86.0732422 51.8095703,85.4003906 53.9833984,85.4003906 C56.0537109,85.4521484 57.6582031,85.5039063 58.6933594,85.5039063 L59.7675046,85.4953744 C60.8386785,85.478336 61.9007469,85.4358543 62.9519887,85.368615 C56.5307453,78.9901023 52.8046875,70.8533576 52.8046875,61.8314565 C52.8046875,41.1547155 73.2725785,24.4249526 99.0144515,24.0878965 C89.919531,14.6603245 75.3234387,8.54003906 58.6933594,8.54003906 Z M124.465181,104.189452 C124.796751,104.314034 124.92109,104.064869 124.713859,103.774177 L124.114568,103.029351 C121.853495,100.20051 118.959743,96.3684493 117.668003,93.9321725 C116.507509,91.7727453 116.797633,89.8624828 119.45019,88.6166594 C132.464299,82.5536522 139.924617,72.8777572 139.924617,61.8314565 C139.924617,44.8052035 122.144194,30.9350365 99.8046875,30.9350365 C77.4237351,30.9350365 59.6433118,44.8052035 59.6433118,61.8314565 C59.6433118,78.816182 77.4237351,92.6863491 99.8046875,92.6863491 L100.399555,92.6810371 C101.201382,92.6685516 102.273697,92.6359229 103.576292,92.6032942 C105.317033,92.6032942 106.643312,93.143151 108.218268,94.3889744 L109.041282,94.9792224 C114.082734,98.5573637 120.892082,102.733805 124.465181,104.189452 Z" id="Path-9"></path>
                </g>
                <g id="Light-M" transform="translate(604.94, 424)">
                    <path d="M53.2461309,0 C73.8066588,0 91.5090502,9.20955101 100.393625,22.7568512 C119.272106,26.3069337 133.18,39.858978 133.18,56.0929867 C133.18,68.4498475 125.284072,79.4127942 113.40258,84.9131042 C115.094565,88.1906862 118.252936,92.6361423 119.94492,94.8588703 C121.937702,97.4960052 120.734513,100.773587 116.861749,100.773587 C111.785795,100.773587 101.408289,95.6500108 93.7755587,90.1873741 C83.0298481,90.4808729 73.3840803,88.1204674 65.7428721,83.8723037 C60.5488333,84.8735418 55.0066905,85.3330964 49.2080645,85.1750277 C39.6763497,91.9833954 26.716974,98.3691747 20.3781488,98.3691747 C15.5418601,98.3691747 14.0393237,94.2841541 16.5278995,90.9973559 L17.2130561,90.0873824 C19.4113606,87.1334899 22.7962932,82.2779498 24.6979408,78.6014313 C9.8603946,71.7461093 0,58.0824196 0,42.6814224 C0,19.0634296 23.664947,0 53.2461309,0 Z M53.2461309,7.7474529 C27.9377847,7.7474529 7.79440716,23.4301757 7.79440716,42.6814224 C7.79440716,55.1712555 16.246174,66.1115981 30.9898116,72.9669201 C33.9948843,74.3755479 34.3235641,76.5354438 33.0088448,78.9770654 C31.5264317,81.7674899 28.1816594,86.1773574 25.6061224,89.387102 L25.0266206,90.105225 C24.7918493,90.4339048 24.9327121,90.7156304 25.3083461,90.5747676 C29.3912799,88.9146736 37.2041905,84.124829 42.929648,80.0562085 L43.7144161,79.4935622 C45.498678,78.0849344 47.0012143,77.474529 48.9732932,77.474529 C50.8514636,77.5214833 52.3070457,77.5684375 53.2461309,77.5684375 L54.2205865,77.5606975 C55.1923466,77.5452404 56.1558463,77.5067014 57.1095242,77.4457024 C51.2842253,71.6591684 47.9039764,64.2775808 47.9039764,56.0929867 C47.9039764,37.335218 66.472278,22.1581152 89.8250926,21.8523407 C81.5742559,13.2997253 68.3328015,7.7474529 53.2461309,7.7474529 Z M112.913785,94.5198101 C113.214582,94.6328301 113.327381,94.40679 113.139382,94.1430765 L112.595711,93.4673761 C110.544484,90.9010749 107.919297,87.4246613 106.747441,85.2144911 C105.69465,83.2554765 105.957848,81.5225022 108.364226,80.3923015 C120.170518,74.8919914 126.938457,66.1140994 126.938457,56.0929867 C126.938457,40.6469106 110.808204,28.0640096 90.5419882,28.0640096 C70.238173,28.0640096 54.1079199,40.6469106 54.1079199,56.0929867 C54.1079199,71.5013894 70.238173,84.0842904 90.5419882,84.0842904 L91.0816474,84.0794714 C91.8090583,84.0681447 92.7818535,84.0385442 93.963557,84.0089437 C95.5427427,84.0089437 96.7459317,84.4986973 98.1747187,85.628898 L98.9213507,86.1643661 C103.494914,89.4104264 109.672298,93.1992598 112.913785,94.5198101 Z" id="Path-9"></path>
                </g>
                <g id="Thin-M" transform="translate(311.77, 426.49)">
                    <path d="M50.1236479,0 C69.4784563,0 86.1427363,8.66948048 94.5062981,21.4223339 C112.277699,24.764231 125.37,37.5215503 125.37,52.8035571 C125.37,64.4357815 117.937108,74.7558343 106.752376,79.9335927 C108.345139,83.0189693 111.318295,87.203733 112.911058,89.2961148 C114.786978,91.7786017 113.654347,94.8639783 110.008691,94.8639783 C105.230403,94.8639783 95.4614599,90.0408609 88.2763313,84.8985665 C78.1607753,85.1748539 69.0806588,82.9528682 61.8875498,78.9538273 C56.9981021,79.8963503 51.780964,80.3289555 46.3223836,80.1801563 C37.3496318,86.5892647 25.1502254,92.6005664 19.1831245,92.6005664 C14.6304475,92.6005664 13.2160236,88.7551014 15.5586632,85.661049 L16.2036405,84.8044385 C18.2730311,82.0237695 21.459463,77.4529702 23.2495933,73.9920516 C9.28215702,67.5387425 0,54.6763249 0,40.1784797 C0,17.9455036 22.2771768,0 50.1236479,0 Z M50.1236479,7.29312337 C26.2994449,7.29312337 7.33732412,22.0561731 7.33732412,40.1784797 C7.33732412,51.9358785 15.2934587,62.2346528 29.1724935,68.6879619 C32.0013413,70.0139844 32.3107466,72.0472187 31.0731256,74.3456576 C29.6776449,76.9724449 26.5290182,81.123707 24.1045169,84.1452243 L23.5589985,84.8212348 C23.3379948,85.1306401 23.470597,85.3958446 23.824203,85.2632423 C27.6677036,83.7005003 35.0224461,79.1915438 40.4121487,75.3615172 L41.1508961,74.8318659 C42.8305245,73.5058434 44.2449484,72.9312337 46.1013798,72.9312337 C47.8694098,72.9754345 49.2396329,73.0196352 50.1236479,73.0196352 L51.0409591,73.012349 C51.9557328,72.9977984 52.8627306,72.9615194 53.7604824,72.9040976 C48.2767932,67.4569 45.0947704,60.5081867 45.0947704,52.8035571 C45.0947704,35.1457897 62.5741815,20.8587093 84.5575301,20.5708662 C76.7905426,12.519797 64.3255994,7.29312337 50.1236479,7.29312337 Z M106.292245,88.9769379 C106.575403,89.0833302 106.681587,88.8705456 106.504613,88.6222969 L105.992823,87.9862212 C104.061886,85.5704142 101.590646,82.297866 100.48751,80.2173055 C99.4964582,78.3731724 99.7442212,76.7418238 102.009483,75.6779008 C113.123426,70.5001424 119.494476,62.2370074 119.494476,52.8035571 C119.494476,38.2632766 104.31014,26.4182676 85.2323852,26.4182676 C66.1192353,26.4182676 50.9348995,38.2632766 50.9348995,52.8035571 C50.9348995,67.3083735 66.1192353,79.1533825 85.2323852,79.1533825 L85.7403975,79.1488461 C86.4251512,79.1381836 87.3408993,79.110319 88.4533049,79.0824543 C89.9398832,79.0824543 91.0725143,79.5434876 92.4175138,80.6074106 L93.1203614,81.1114775 C97.4257199,84.1671809 103.240847,87.7338279 106.292245,88.9769379 Z" id="Path-9"></path>
                </g>
                <g id="Ultralight-M" transform="translate(16.89, 427.76)">
                    <path d="M48.7962928,0 C67.6385546,0 83.8615376,8.43989864 92.0036188,20.8550359 C109.304404,24.1084341 122.05,36.5279191 122.05,51.4052337 C122.05,62.729418 114.813943,72.7761791 103.925401,77.8168221 C105.475985,80.820493 108.370407,84.8944373 109.920991,86.9314095 C111.747234,89.3481562 110.644596,92.351827 107.095483,92.351827 C102.443732,92.351827 92.9334863,87.6564335 85.9386315,82.6503154 C76.0909518,82.9192862 67.2512915,80.7561424 60.2486676,76.8630024 C55.4887003,77.780566 50.4097205,78.2017151 45.0956921,78.0568563 C36.3605533,84.2962412 24.4842069,90.1483539 18.6751244,90.1483539 C14.2430096,90.1483539 12.8660419,86.404723 15.1466447,83.3926062 L15.7745419,82.5586801 C17.7891317,79.8516477 20.8911818,75.4018905 22.6339065,72.0326227 C9.03635051,65.7502075 0,53.2284075 0,39.1144887 C0,17.4702777 21.6872412,0 48.7962928,0 Z M48.7962928,7.09998969 C25.6029931,7.09998969 7.14301993,21.47209 7.14301993,39.1144887 C7.14301993,50.5605326 14.8884632,60.5865787 28.3999588,66.8689938 C31.1538942,68.159901 31.4551058,70.1392921 30.2502591,72.3768646 C28.8917329,74.9340903 25.8264869,78.9754203 23.4661904,81.916923 L22.9351182,82.5750316 C22.719967,82.8762433 22.8490577,83.1344247 23.1932997,83.005334 C26.9350181,81.4839759 34.0949952,77.0944239 39.3419698,73.3658225 L40.0611539,72.8501972 C41.6963031,71.55929 43.0732708,70.9998969 44.8805409,70.9998969 C46.6017505,71.0429271 47.935688,71.0859574 48.7962928,71.0859574 L49.6893121,71.0788642 C50.5798611,71.0646988 51.4628401,71.0293806 52.3368181,70.9734794 C46.9983458,65.6705324 43.900588,58.9058323 43.900588,51.4052337 C43.900588,34.2150725 60.9171162,20.306337 82.3183102,20.0261164 C74.757005,12.1882525 62.6221537,7.09998969 48.7962928,7.09998969 Z M103.477455,86.6206849 C103.753114,86.7242598 103.856486,86.5171101 103.684199,86.2754354 L103.185962,85.656204 C101.306159,83.3043715 98.9003616,80.1184856 97.8264389,78.0930217 C96.8616313,76.2977242 97.1028332,74.7095764 99.3081076,73.6738279 C110.127735,68.6331848 116.330069,60.588871 116.330069,51.4052337 C116.330069,37.2500033 101.547839,25.7186692 82.975294,25.7186692 C64.3682912,25.7186692 49.5860611,37.2500033 49.5860611,51.4052337 C49.5860611,65.5259391 64.3682912,77.0572732 82.975294,77.0572732 L83.4698533,77.0528569 C84.1364737,77.0424768 85.0279713,77.01535 86.1109186,76.9882233 C87.5581299,76.9882233 88.6607671,77.4370476 89.9701488,78.4727962 L90.6543839,78.9635146 C94.8457295,81.9382981 100.506863,85.4104945 103.477455,86.6206849 Z" id="Path-9"></path>
                </g>
                <g id="Black-S" transform="translate(2389.02, 0)">
                    <path d="M49.8437839,0 C69.0905252,0 85.6617607,8.62107467 93.9786248,21.3027229 C111.650799,24.6259605 124.67,37.3120498 124.67,52.5087299 C124.67,64.0760061 117.27861,74.3384371 106.156327,79.4872857 C107.740197,82.5554351 110.696753,86.7168333 112.280622,88.7975323 C114.146068,91.2661584 113.019761,94.3343078 109.39446,94.3343078 C104.642852,94.3343078 94.9284534,89.5381202 87.7834428,84.4245377 C77.7243668,84.6992824 68.6949488,82.4897031 61.5420023,78.5129907 C56.6798547,79.4502512 51.4918464,79.880441 46.0637438,79.7324726 C37.1410911,86.1057959 25.0097998,92.0835337 19.076016,92.0835337 C14.5487588,92.0835337 13.1422323,88.2595397 15.4717918,85.1827629 L16.1131679,84.3309353 C18.1710041,81.565792 21.3396447,77.0205136 23.1197798,73.578919 C9.23033034,67.1616417 0,54.3710411 0,39.9541442 C0,17.8453053 22.1527928,0 49.8437839,0 Z M49.8437839,7.25240241 C26.1526026,7.25240241 7.29635637,21.9330231 7.29635637,39.9541442 C7.29635637,51.645896 15.2080681,61.8871673 29.0096097,68.3044445 C31.8226627,69.6230632 32.1303404,71.6449451 30.8996297,73.9305507 C29.5119406,76.5426714 26.3808941,80.670755 23.96993,83.6754018 L23.4274575,84.3476378 C23.2076877,84.6553154 23.3395496,84.9190392 23.6911812,84.7871773 C27.5132217,83.2331608 34.8268992,78.74938 40.1865086,74.9407382 L40.9211312,74.4140442 C42.5913814,73.0954255 43.997908,72.5240241 45.843974,72.5240241 C47.6021322,72.5679781 48.9647048,72.611932 49.8437839,72.611932 L50.7559733,72.6046866 C51.6656394,72.5902172 52.5675729,72.5541407 53.4603122,72.4970395 C48.0072411,67.0802563 44.8429849,60.1703409 44.8429849,52.5087299 C44.8429849,34.9495542 62.2248003,20.7422453 84.0854054,20.4560093 C76.3617846,12.449893 63.9664391,7.25240241 49.8437839,7.25240241 Z M105.698765,88.4801376 C105.980342,88.5859358 106.085933,88.3743393 105.909948,88.1274767 L105.401015,87.4949525 C103.480859,85.0926341 101.023417,81.8383581 99.9264411,79.7694143 C98.9409224,77.9355779 99.1873021,76.3133379 101.439916,75.2553553 C112.491805,70.1065068 118.827282,61.8895088 118.827282,52.5087299 C118.827282,38.0496346 103.727728,26.2707619 84.7564925,26.2707619 C65.7500603,26.2707619 50.6505059,38.0496346 50.6505059,52.5087299 C50.6505059,66.932559 65.7500603,78.7114318 84.7564925,78.7114318 L85.2616683,78.7069207 C85.9425987,78.6963177 86.8532338,78.6686087 87.9594283,78.6408996 C89.4377063,78.6408996 90.5640134,79.0993587 91.9015031,80.1573413 L92.6004264,80.6585938 C96.881746,83.6972357 102.664405,87.2439685 105.698765,88.4801376 Z" id="Path-9"></path>
                </g>
                <g id="Heavy-S" transform="translate(2094, 0.54)">
                    <path d="M48.5843957,0 C67.3448354,0 83.4973703,8.40324852 91.6040947,20.7644733 C108.829751,24.0037437 121.52,36.3692973 121.52,51.1820073 C121.52,62.4570166 114.315366,72.4601498 103.474107,77.4789039 C105.017957,80.4695314 107.899811,84.5257847 109.443661,86.5539114 C111.261973,88.9601633 110.164124,91.9507908 106.630423,91.9507908 C101.998872,91.9507908 92.5299242,87.275787 85.5654445,82.2914079 C75.7605282,82.5592107 66.9592539,80.4054602 59.9870388,76.5292262 C55.2477416,77.4428052 50.1908172,77.8621255 44.8998648,77.7178958 C36.2026582,83.9301863 24.3778846,89.7568863 18.594028,89.7568863 C14.1811596,89.7568863 12.8101714,86.029512 15.0808706,83.0304752 L15.7060413,82.2001705 C17.7118827,79.5048933 20.8004622,75.0744591 22.5356192,71.7198223 C8.99711032,65.4646884 0,52.9972641 0,38.9446347 C0,17.3944133 21.5930648,0 48.5843957,0 Z M48.5843957,7.06915811 C25.4918126,7.06915811 7.11200149,21.3788479 7.11200149,38.9446347 C7.11200149,50.3409744 14.8238103,60.3234825 28.2766324,66.5786164 C31.0186089,67.8639178 31.3185126,69.8347134 30.1188979,72.0625693 C28.7662711,74.6086903 25.7143359,78.6324709 23.3642889,81.5612001 L22.8355229,82.216451 C22.6213059,82.5163546 22.7498361,82.7734149 23.0925832,82.6448848 C26.8180533,81.1301332 33.9469382,76.7596427 39.1711279,73.0472327 L39.8871891,72.5338465 C41.5152376,71.248545 42.8862259,70.6915811 44.6856479,70.6915811 C46.3993832,70.7344245 47.7275281,70.7772678 48.5843957,70.7772678 L49.4735371,70.7702054 C50.360219,70.7561016 51.2393636,70.7209367 52.1095464,70.6652783 C46.7942563,65.3853593 43.7099505,58.6500347 43.7099505,51.1820073 C43.7099505,34.0664941 60.6525847,20.2181571 81.9608444,19.9391534 C74.432374,12.1353253 62.350218,7.06915811 48.5843957,7.06915811 Z M103.028106,86.2445361 C103.302568,86.3476612 103.405491,86.141411 103.233952,85.9007858 L102.737879,85.2842434 C100.866239,82.9426237 98.4708885,79.7705725 97.4016293,77.7539042 C96.4410114,75.9664027 96.6811659,74.3851514 98.8768639,73.3539005 C109.649507,68.3351464 115.824908,60.3257648 115.824908,51.1820073 C115.824908,37.0882458 101.10687,25.6069864 82.6149753,25.6069864 C64.088773,25.6069864 49.3707345,37.0882458 49.3707345,51.1820073 C49.3707345,65.2413939 64.088773,76.7226533 82.6149753,76.7226533 L83.1073869,76.7182562 C83.7711125,76.7079212 84.6587388,76.6809122 85.7369834,76.6539032 C87.1779103,76.6539032 88.2757593,77.1007786 89.579455,78.1320295 L90.2607188,78.6206169 C94.4338636,81.5824824 100.070414,85.0396009 103.028106,86.2445361 Z" id="Path-9"></path>
                </g>
                <g id="Bold-S" transform="translate(1799.19, 1.18)">
                    <path d="M49.647879,0 C68.8189735,0 85.3250777,8.5871906 93.6092534,21.2189952 C111.21197,24.5291713 124.18,37.1653994 124.18,52.3023508 C124.18,63.8241633 116.817661,74.0462591 105.739093,79.1748707 C107.316737,82.2309612 110.261673,86.3760035 111.839317,88.4485246 C113.697431,90.907448 112.575551,93.9635385 108.964499,93.9635385 C104.231566,93.9635385 94.5553489,89.1862017 87.4384208,84.0927175 C77.4188808,84.3663824 68.4249519,82.1654876 61.3001191,78.2044051 C56.4570816,79.1379818 51.2894641,79.5664808 45.882696,79.419094 C36.9951127,85.7673678 24.9115019,91.7216107 19.0010401,91.7216107 C14.4915767,91.7216107 13.0905783,87.9126465 15.4109819,84.8479626 L16.0498371,83.999483 C18.0995852,81.2452078 21.2557718,76.717794 23.0289104,73.2897262 C9.19405167,66.8976712 0,54.1573425 0,39.7971094 C0,17.7751666 22.065724,0 49.647879,0 Z M49.647879,7.22389774 C26.0498131,7.22389774 7.26767894,21.846818 7.26767894,39.7971094 C7.26767894,51.4429082 15.1482947,61.6439274 28.895591,68.0359824 C31.6975877,69.3494183 32.0040561,71.3633535 30.7781825,73.6399758 C29.3959475,76.2418299 26.2772073,80.3536885 23.8757192,83.346526 L23.3353788,84.0161198 C23.1164728,84.3225882 23.2478164,84.5852754 23.598066,84.4539318 C27.4050844,82.9060232 34.6900164,78.4398653 40.0285605,74.6461929 L40.7602958,74.121569 C42.4239813,72.808133 43.8249796,72.2389774 45.66379,72.2389774 C47.4150379,72.2827586 48.7722551,72.3265398 49.647879,72.3265398 L50.5564832,72.3193228 C51.462574,72.3049103 52.3609626,72.2689757 53.2501931,72.2120989 C47.8185545,66.8166056 44.6667351,59.9338488 44.6667351,52.3023508 C44.6667351,34.8121893 61.9802334,20.6607205 83.7549182,20.3756095 C76.0616541,12.4009603 63.715027,7.22389774 49.647879,7.22389774 Z M105.283329,88.1323773 C105.563799,88.2377598 105.668975,88.0269949 105.493682,87.7811026 L104.98675,87.1510644 C103.07414,84.758188 100.626357,81.5167025 99.5336926,79.4558905 C98.5520473,77.6292617 98.7974587,76.0133978 101.041219,74.9595735 C112.049669,69.8309618 118.360246,61.6462597 118.360246,52.3023508 C118.360246,37.9000853 103.320039,26.1675079 84.4233676,26.1675079 C65.4916378,26.1675079 50.4514303,37.9000853 50.4514303,52.3023508 C50.4514303,66.6694889 65.4916378,78.4020662 84.4233676,78.4020662 L84.9265579,78.3975729 C85.604812,78.3870116 86.5118679,78.3594114 87.6137146,78.3318113 C89.0861825,78.3318113 90.2080628,78.7884685 91.5402956,79.8422928 L92.2364719,80.3415751 C96.5009643,83.3682741 102.260895,86.9010668 105.283329,88.1323773 Z" id="Path-9"></path>
                </g>
                <g id="Semibold-S" transform="translate(1503.77, 1.62)">
                    <path d="M46.2095495,0 C64.0529631,0 79.4159485,7.99249066 87.1264093,19.7494884 C103.510062,22.8304205 115.58,34.5915354 115.58,48.6801877 C115.58,59.404065 108.727534,68.9182366 98.4162052,73.6916698 C99.8845906,76.5361129 102.625577,80.3940931 104.093962,82.3230833 C105.823394,84.6117156 104.779209,87.4561587 101.418238,87.4561587 C97.0130812,87.4561587 88.0069836,83.009673 81.3829335,78.2689345 C72.0572897,78.5236469 63.6862291,76.4751736 57.0548218,72.7884131 C52.5471854,73.6573357 47.7374477,74.0561592 42.7051216,73.9189796 C34.4330417,79.827608 23.1862731,85.369494 17.6851362,85.369494 C13.4879726,85.369494 12.1839994,81.824317 14.343705,78.9718756 L14.9383167,78.1821569 C16.846111,75.6186271 19.7837181,71.4047563 21.4340591,68.2140969 C8.55732398,62.2647193 0,50.4067132 0,37.0409881 C0,16.5441597 20.5375776,0 46.2095495,0 Z M46.2095495,6.7236117 C24.2457513,6.7236117 6.76436086,20.3338318 6.76436086,37.0409881 C6.76436086,47.8802652 14.09921,57.3748199 26.8944468,63.3241975 C29.5023932,64.5466723 29.7876373,66.4211338 28.6466608,68.5400902 C27.3601515,70.9617547 24.4573974,74.7888494 22.2222228,77.57442 L21.7193033,78.1976416 C21.5155574,78.4828857 21.6378049,78.7273807 21.9637982,78.6051332 C25.5071642,77.1644239 32.2875833,73.0075667 37.2564102,69.4766224 L37.9374697,68.988331 C39.4859378,67.7658561 40.789911,67.236117 42.5013758,67.236117 C44.1313423,67.2768662 45.3945663,67.3176153 46.2095495,67.3176153 L47.055229,67.3108982 C47.898569,67.2974838 48.7347403,67.2640377 49.5623878,67.2110999 C44.5069136,62.1892678 41.5733713,55.7831716 41.5733713,48.6801877 C41.5733713,32.4012952 57.6878352,19.2298765 77.9545292,18.9645107 C70.7940569,11.5421403 59.3024868,6.7236117 46.2095495,6.7236117 Z M97.9920049,82.0288305 C98.2530512,82.1269148 98.3509436,81.9307463 98.1877896,81.701883 L97.7159651,81.1154778 C95.935812,78.8883184 93.6575485,75.8713197 92.6405556,73.9532278 C91.7268935,72.2531009 91.955309,70.7491425 94.0436795,69.7683001 C104.289747,64.9948669 110.163289,57.3769906 110.163289,48.6801877 C110.163289,35.2753411 96.1646807,24.3552953 78.5766856,24.3552953 C60.9560598,24.3552953 46.9574514,35.2753411 46.9574514,48.6801877 C46.9574514,62.0523396 60.9560598,72.9723854 78.5766856,72.9723854 L79.0450278,72.9682032 C79.6763099,72.9583733 80.5205483,72.9326846 81.5460874,72.9069959 C82.9165805,72.9069959 83.9607658,73.3320276 85.2007357,74.31287 L85.8486988,74.7775749 C89.8178568,77.5946619 95.1788874,80.8827936 97.9920049,82.0288305 Z" id="Path-9"></path>
                </g>
                <g id="Medium-S" transform="translate(1208.04, 1.91)">
                    <path d="M48.5164287,0 C67.2506235,0 83.380562,8.39149283 91.4759454,20.7354249 C108.677504,23.9701637 121.35,36.3184185 121.35,51.1104064 C121.35,62.3696426 114.155445,72.3587819 103.329352,77.3705151 C104.871042,80.3569588 107.748864,84.4075376 109.290555,86.4328271 C111.106324,88.8357128 110.01001,91.8221566 106.481252,91.8221566 C101.856181,91.8221566 92.4004798,87.1536928 85.445743,82.1762866 C75.6545433,82.4437148 66.8655815,80.2929773 59.9031201,76.4221659 C55.1704529,77.3344669 50.1206029,77.7532005 44.8370523,77.6091726 C36.1520126,83.8127724 24.3437813,89.6313212 18.5680159,89.6313212 C14.1613209,89.6313212 12.7922506,85.9091613 15.0597733,82.91432 L15.6840694,82.0851768 C17.6871048,79.3936702 20.7713635,74.9694339 22.504093,71.61949 C8.98452384,65.3731068 0,52.9231238 0,38.8901532 C0,17.3700794 21.5628572,0 48.5164287,0 Z M48.5164287,7.05926873 C25.4561509,7.05926873 7.10205218,21.34894 7.10205218,38.8901532 C7.10205218,50.2705501 14.8030726,60.2390932 28.2370749,66.4854764 C30.9752155,67.7689798 31.2746997,69.7370184 30.0767631,71.9617576 C28.7260286,74.5043168 25.6783629,78.5224682 23.3316035,81.4471004 L22.8035772,82.1014345 C22.5896599,82.4009187 22.7180103,82.6576193 23.0602779,82.529269 C26.7805362,81.0166365 33.8994483,76.6522601 39.1163296,72.9450435 L39.831389,72.4323755 C41.45716,71.1488721 42.8262303,70.5926873 44.6231351,70.5926873 C46.334473,70.6354708 47.6607598,70.6782542 48.5164287,70.6782542 L49.4043263,70.6712017 C50.2897677,70.6571176 51.1676825,70.6220019 52.0366479,70.5664213 C46.7287936,65.2938886 43.6488026,58.5679864 43.6488026,51.1104064 C43.6488026,34.0188369 60.5677349,20.189873 81.8461855,19.9112596 C74.3282471,12.1183486 62.2629934,7.05926873 48.5164287,7.05926873 Z M102.883975,86.1238846 C103.158053,86.2268654 103.260832,86.0209038 103.089533,85.7806152 L102.594154,85.1649353 C100.725132,82.8265914 98.333133,79.6589777 97.2653696,77.6451306 C96.3060956,75.8601297 96.5459141,74.2810905 98.7385404,73.2512823 C109.496114,68.2395492 115.662875,60.2413723 115.662875,51.1104064 C115.662875,37.0363613 100.965427,25.5711635 82.4994013,25.5711635 C63.9991162,25.5711635 49.3016675,37.0363613 49.3016675,51.1104064 C49.3016675,65.1501247 63.9991162,76.6153224 82.4994013,76.6153224 L82.9911241,76.6109315 C83.6539212,76.6006109 84.5403058,76.5736397 85.6170419,76.5466685 C87.055953,76.5466685 88.1522662,76.9929187 89.4541381,78.0227269 L90.1344489,78.5106309 C94.3017556,81.4683529 99.9304204,84.9206351 102.883975,86.1238846 Z" id="Path-9"></path>
                </g>
                <g id="Regular-S" transform="translate(912.62, 2.35)">
                    <path d="M44.2584974,0 C61.3485293,0 76.0628612,7.65503301 83.4477722,18.9156287 C99.1396765,21.8664782 110.7,33.1310172 110.7,46.6248207 C110.7,56.8959162 104.136858,66.008382 94.2608921,70.5802721 C95.6672797,73.3046175 98.2925364,76.9997068 99.698924,78.8472514 C101.355336,81.0392535 100.355238,83.7635989 97.1361733,83.7635989 C92.9170107,83.7635989 84.291167,79.504852 77.9467965,74.9642763 C69.0148985,75.2082342 60.9972795,73.2462512 54.6458623,69.7151526 C50.3285467,70.5473876 45.721885,70.9293721 40.9020329,70.7979844 C32.9792154,76.4571397 22.207306,81.7650371 16.9384373,81.7650371 C12.9184856,81.7650371 11.6695685,78.3695439 13.7380874,75.6375379 L14.3075936,74.8811625 C16.1348372,72.4258697 18.9484131,68.3899162 20.5290738,65.3339724 C8.19601804,59.6357884 0,48.2784491 0,35.4770495 C0,15.8456349 19.6704433,0 44.2584974,0 Z M44.2584974,6.43972846 C23.2220511,6.43972846 6.47875712,19.4753 6.47875712,35.4770495 C6.47875712,45.8586724 13.5039154,54.9523495 25.7589138,60.6505335 C28.2567479,61.8213932 28.5299485,63.6167115 27.4371461,65.6462016 C26.2049556,67.965619 23.4247612,71.6311268 21.2839597,74.2990854 L20.8022744,74.8959934 C20.6071311,75.169194 20.724217,75.403366 21.0364463,75.28628 C24.4302049,73.9064001 30.9243422,69.9250531 35.6833761,66.5431918 L36.33568,66.0755169 C37.818769,64.9046571 39.067686,64.3972846 40.7068896,64.3972846 C42.2680359,64.4363133 43.4779243,64.4753419 44.2584974,64.4753419 L45.0684707,64.4689083 C45.8762034,64.4560603 46.6770701,64.4240265 47.4697727,64.3733238 C42.6277499,59.5635226 39.8180672,53.4279036 39.8180672,46.6248207 C39.8180672,31.033253 55.2521488,18.4179558 74.6631458,18.1637943 C67.8050017,11.05481 56.7986269,6.43972846 44.2584974,6.43972846 Z M93.8546024,78.5654226 C94.1046268,78.6593655 94.198386,78.4714796 94.0421207,78.2522794 L93.5902174,77.6906332 C91.8852257,75.5575086 89.7031547,72.6678931 88.7291011,70.8307866 C87.8540155,69.2024422 88.0727869,67.7619837 90.0729825,66.8225542 C99.8864423,62.2506642 105.511993,54.9544286 105.511993,46.6248207 C105.511993,33.7859513 92.1044312,23.32697 75.2590336,23.32697 C58.3823829,23.32697 44.9748215,33.7859513 44.9748215,46.6248207 C44.9748215,59.4323758 58.3823829,69.8913572 75.2590336,69.8913572 L75.7076015,69.8873516 C76.3122297,69.8779367 77.1208228,69.8533326 78.1030617,69.8287285 C79.4156901,69.8287285 80.415788,70.2358146 81.6034041,71.1752441 L82.224009,71.6203283 C86.0255818,74.3184727 91.1602599,77.4677734 93.8546024,78.5654226 Z" id="Path-9"></path>
                </g>
                <g id="Light-S" transform="translate(618.28, 4.01)">
                    <path d="M42.3474259,0 C58.6995142,0 72.7784847,7.32449048 79.844517,18.0988563 C94.8588486,20.9222888 105.92,31.7004276 105.92,44.6115719 C105.92,54.4391639 99.640253,63.1581556 90.1907289,67.5326325 C91.536389,70.1393414 94.0482878,73.6748775 95.3939479,75.4426456 C96.9788364,77.5399975 96.0219226,80.1467064 92.9418562,80.1467064 C88.904876,80.1467064 80.6514942,76.0718512 74.5810721,71.7273364 C66.0348514,71.9607603 58.3634313,70.0834953 52.2862668,66.7048687 C48.1553719,67.501168 43.7476247,67.8666584 39.1358927,67.7409441 C31.5551807,73.1557384 21.2483998,78.234442 16.2070395,78.234442 C12.3606684,78.234442 11.1656793,74.9855654 13.14488,72.3715268 L13.689795,71.6478115 C15.4381387,69.2985377 18.1302251,65.4368557 19.6426332,62.5128668 C7.84211591,57.0607291 0,46.193797 0,33.9451589 C0,15.1614241 18.8210782,0 42.3474259,0 Z M42.3474259,6.1616625 C22.2193284,6.1616625 6.19900591,18.6343611 6.19900591,33.9451589 C6.19900591,43.8785057 12.9208195,52.57952 24.64665,58.0316577 C27.0366282,59.15196 27.298032,60.8697568 26.2524166,62.8116141 C25.0734318,65.0308795 22.4132855,68.5381115 20.3649233,71.0908683 L19.904037,71.662002 C19.71732,71.9234059 19.8293502,72.1474663 20.1280975,72.0354361 C23.3753144,70.7151391 29.5890364,66.9057057 34.1425763,63.6698724 L34.7667139,63.2223916 C36.1857634,62.1020893 37.3807525,61.616625 38.9491757,61.616625 C40.442912,61.6539684 41.6005577,61.6913118 42.3474259,61.6913118 L43.1224247,61.685156 C43.8952797,61.6728628 44.6615651,61.6422121 45.4200391,61.5936988 C40.7870937,56.9915837 38.0987324,51.1208992 38.0987324,44.6115719 C38.0987324,29.6932444 52.866374,17.6226728 71.4392087,17.3794859 C64.8771976,10.5774659 54.3460755,6.1616625 42.3474259,6.1616625 Z M89.8019827,75.1729861 C90.0412112,75.2628726 90.1309218,75.0830995 89.981404,74.8733644 L89.5490138,74.3359699 C87.9176433,72.2949531 85.8297935,69.5301106 84.8977993,67.7723299 C84.0604997,66.214297 84.2698246,64.8360372 86.1836523,63.937172 C95.5733692,59.5626951 100.95601,52.5815093 100.95601,44.6115719 C100.95601,32.3270819 88.1273835,22.3197169 72.0093662,22.3197169 C55.8614453,22.3197169 43.0328193,32.3270819 43.0328193,44.6115719 C43.0328193,56.8660997 55.8614453,66.8734648 72.0093662,66.8734648 L72.4385651,66.8696321 C73.0170855,66.8606238 73.7907638,66.8370821 74.7305899,66.8135404 C75.9865393,66.8135404 76.9434531,67.2030486 78.0797883,68.1019138 L78.6735956,68.5277793 C82.3110174,71.1094185 87.2239813,74.1227331 89.8019827,75.1729861 Z" id="Path-9"></path>
                </g>
                <g id="Thin-S" transform="translate(324.71, 6.2)">
                    <path d="M39.6927157,0 C55.0197108,0 68.2160873,6.86532681 74.8391583,16.9642603 C88.9122591,19.6106951 99.28,29.7131652 99.28,41.814925 C99.28,51.0264369 93.3939229,59.1988452 84.5367784,63.2990914 C85.7980806,65.7423887 88.1525115,69.0562863 89.4138137,70.713235 C90.8993474,72.6791065 90.0024214,75.1224038 87.1154407,75.1224038 C83.3315341,75.1224038 75.5955471,71.3029965 69.9056726,67.2308342 C61.8952044,67.4496251 54.7046966,65.6900435 49.0085024,62.523219 C45.1365683,63.2695993 41.0051377,63.6121776 36.6825097,63.4943441 C29.5770236,68.5696913 19.9163626,73.330017 15.1910393,73.330017 C11.5857927,73.330017 10.465716,70.2848087 12.320843,67.8346411 L12.8315979,67.1562946 C14.47034,64.954294 16.9936627,61.3346963 18.4112596,58.5940088 C7.3505029,53.4836592 0,43.2979623 0,31.8171768 C0,14.2109723 17.641207,0 39.6927157,0 Z M39.6927157,5.77539514 C20.8264249,5.77539514 5.81039753,17.466195 5.81039753,31.8171768 C5.81039753,41.1278138 12.1108286,49.2833718 23.1015805,54.3937215 C25.3417338,55.4437933 25.5867506,57.0539035 24.6066835,58.874028 C23.5016079,60.9541703 21.008223,64.2415381 19.0882703,66.6342656 L18.6562764,67.1695956 C18.4812644,67.4146123 18.5862716,67.6246267 18.8662908,67.5196195 C21.9099435,66.2820904 27.7341345,62.7114658 32.0022184,59.6784831 L32.5872295,59.2590543 C33.9173205,58.2089825 35.0373972,57.7539514 36.5074977,57.7539514 C37.9075935,57.7889538 38.9926678,57.8239561 39.6927157,57.8239561 L40.4191307,57.8181863 C41.1435364,57.8066637 41.8617842,57.7779345 42.5727104,57.7324624 C38.2301989,53.4188485 35.7103677,47.9161903 35.7103677,41.814925 C35.7103677,27.8318099 49.5522433,16.5179282 66.9607688,16.2899864 C60.8101226,9.914377 50.9391841,5.77539514 39.6927157,5.77539514 Z M84.1724022,70.4604801 C84.3966337,70.5447318 84.4807205,70.3762285 84.3405758,70.1796414 L83.9352917,69.6759356 C82.4061898,67.7628677 80.4492249,65.1713499 79.5756563,63.5237624 C78.790846,62.0634007 78.9870486,60.7715424 80.7809007,59.9290261 C89.5819873,55.8287799 94.6271962,49.2852365 94.6271962,41.814925 C94.6271962,30.3005352 82.6027817,20.9205201 67.4951839,20.9205201 C52.3595571,20.9205201 40.3351426,30.3005352 40.3351426,41.814925 C40.3351426,53.3012309 52.3595571,62.6812461 67.4951839,62.6812461 L67.8974768,62.6776537 C68.4397305,62.6692101 69.1649078,62.6471442 70.0458173,62.6250783 C71.2230327,62.6250783 72.1199587,62.9901687 73.1850584,63.832685 L73.7416406,64.2318536 C77.1510367,66.6516529 81.7560127,69.4760663 84.1724022,70.4604801 Z" id="Path-9"></path>
                </g>
                <g id="Ultralight-S" transform="translate(29.61, 7.38)">
                    <path d="M38.5172867,0 C53.3904003,0 66.1959896,6.66202241 72.6229302,16.461894 C86.2792813,19.0299594 96.34,28.8332628 96.34,40.5766507 C96.34,49.51538 90.6282286,57.4457771 82.0333726,61.4246017 C83.2573236,63.7955452 85.5420322,67.0113076 86.7659832,68.6191888 C88.2075255,70.5268444 87.3371603,72.8977879 84.5356724,72.8977879 C80.8638194,72.8977879 73.3569199,69.1914855 67.8355408,65.2399131 C60.0622884,65.4522248 53.0847146,63.7447501 47.557203,60.6717055 C43.7999294,61.395983 39.7908437,61.7284165 35.5962227,61.6140724 C28.7011528,66.5391223 19.3265751,71.1584795 14.7411838,71.1584795 C11.2427001,71.1584795 10.1557925,68.2034495 11.9559832,65.8258392 L12.451613,65.1675808 C14.0418267,63.0307885 16.4904257,59.5183788 17.8660431,56.8588518 C7.13283088,51.8998361 0,42.0157704 0,30.8749679 C0,13.7901397 17.1187941,0 38.5172867,0 Z M38.5172867,5.60436712 C20.2096875,5.60436712 5.63833298,16.9489648 5.63833298,30.8749679 C5.63833298,39.909887 11.752188,47.8239327 22.4174685,52.7829485 C24.5912836,53.8019243 24.8290446,55.3643539 23.8780005,57.1305787 C22.8056497,59.1491213 20.386102,62.3391396 18.5230052,64.6610107 L18.1038041,65.1804879 C17.9339748,65.4182489 18.0358724,65.6220441 18.3075992,65.5201465 C21.2611196,64.3192646 26.9128376,60.8543777 31.0545298,57.9112113 L31.6222169,57.5042032 C32.9129196,56.4852274 33.9998272,56.0436712 35.4263934,56.0436712 C36.7850278,56.077637 37.8379695,56.1116029 38.5172867,56.1116029 L39.2221903,56.1060039 C39.925144,56.0948225 40.6221222,56.0669441 41.3119955,56.0228185 C37.0980798,51.8369446 34.6528689,46.4972379 34.6528689,40.5766507 C34.6528689,27.0076205 48.084842,16.0287793 64.9778452,15.8075875 C59.0093393,9.62078042 49.430711,5.60436712 38.5172867,5.60436712 Z M81.6797868,68.3739188 C81.897378,68.4556754 81.9789748,68.2921621 81.8429802,68.1013965 L81.4496978,67.6126071 C79.9658776,65.7561913 78.0668647,63.2414167 77.2191653,61.6426195 C76.4575958,60.2255039 76.6479881,58.9719016 78.3887185,58.1543349 C86.9291767,54.1755103 91.8249807,47.8257421 91.8249807,40.5766507 C91.8249807,29.403239 80.1566477,20.3009963 65.4964345,20.3009963 C50.8090223,20.3009963 39.1406893,29.403239 39.1406893,40.5766507 C39.1406893,51.7228101 50.8090223,60.8250528 65.4964345,60.8250528 L65.8868142,60.8215668 C66.41301,60.8133733 67.1167125,60.7919608 67.9715354,60.7705484 C69.1138897,60.7705484 69.9842548,61.1248273 71.0178135,61.942394 L71.5579135,62.3297419 C74.8663464,64.6778831 79.3349543,67.4186566 81.6797868,68.3739188 Z" id="Path-9"></path>
                </g>
            </g>
        </g>
    </g>
</svg>