<?xml version="1.0" encoding="UTF-8"?>
<svg width="100px" height="100px" viewBox="0 0 100 100" version="1.1" xmlns="http://www.w3.org/2000/svg" xmlns:xlink="http://www.w3.org/1999/xlink">
    <title>Messages</title>
    <g id="Placeholders" stroke="none" stroke-width="1" fill="none" fill-rule="evenodd">
        <g id="Empty-placeholders" transform="translate(-1205, 10)" fill="#000000" fill-rule="nonzero">
            <g id="Messages" transform="translate(1205, -10)">
                <g id="Symbol" transform="translate(0, 10)">
                    <path d="M68.8239229,42.6632191 C67.4643872,40.5070629 66.5477206,38.9269437 66.0739229,37.9228615 C64.5081355,34.6046111 63.8658587,31.4928069 63.7739229,28.4421461 C63.7739229,23.7017884 65.0256962,19.0130174 67.5292429,14.3758331 C59.6623313,15.0299658 52.3617214,17.7401372 46.667034,22.1707679 C39.9648118,27.3850136 36.2739229,34.3512006 36.2739229,41.7862844 C36.2739229,47.1030605 38.1939229,52.2615785 41.8261451,56.7041255 C45.1234784,60.7369863 49.6872562,64.0166518 55.0692562,66.2300885 C55.4625895,70.4954386 53.9192562,74.7651425 50.8459229,77.8042643 C50.3725895,78.2722903 50.2328118,78.9734587 50.4917007,79.5816749 C50.7505895,80.1898911 51.3574784,80.5860806 52.0299229,80.5860806 C55.9548118,80.5860806 59.6825895,79.3568047 62.8103673,77.030824 C65.473034,75.0509649 67.5514784,72.3329307 68.7597007,69.2803124 C69.6017007,69.327768 70.443034,69.3517135 71.2737007,69.3517135 C80.5519229,69.3517135 89.2908118,66.5285368 95.8801451,61.4020187 C97.4138182,60.2088694 98.7898168,58.8617479 100,57.5005387 C94.1826152,57.0897077 88.7739229,55.9520218 83.7739229,54.0874811 C77.1072562,50.9272427 72.1239229,47.1191554 68.8239229,42.6632191 Z" id="Path" transform="translate(68.137, 47.481) scale(-1, 1) translate(-68.137, -47.481)"></path>
                    <path d="M70,27.5652114 C70,20.1301276 66.3088889,13.1639406 59.6064444,7.94969482 C53.0168889,2.82317676 44.278,0 35,0 C25.7213333,0 16.9822222,2.82317676 10.3931111,7.94969482 C3.69088889,13.1639406 0,20.1301276 0,27.5652114 C0,32.8819875 1.92,38.0405055 5.55222222,42.4830524 C8.84955556,46.5159133 13.4133333,49.7955787 18.7953333,52.0090155 C19.1886667,56.2743656 17.6453333,60.5440694 14.572,63.5831912 C14.0986667,64.0512173 13.9588889,64.7523856 14.2177778,65.3606018 C14.4766667,65.968818 15.0835556,66.3650075 15.756,66.3650075 C19.6808889,66.3650075 23.4086667,65.1357316 26.5364444,62.8097509 C29.1991111,60.8298918 31.2775556,58.1118577 32.4857778,55.0592393 C33.3277778,55.106695 34.1691111,55.1306405 34.9997778,55.1306405 C44.278,55.1306405 53.0168889,52.3074637 59.6062222,47.1809457 C66.3088889,41.9664823 70,35.0002952 70,27.5652114 Z" id="Path"></path>
                </g>
            </g>
        </g>
    </g>
</svg>