<?xml version="1.0" encoding="UTF-8"?>
<!--Generator: Apple Native CoreSVG 149-->
<!DOCTYPE svg
PUBLIC "-//W3C//DTD SVG 1.1//EN"
       "http://www.w3.org/Graphics/SVG/1.1/DTD/svg11.dtd">
<svg version="1.1" xmlns="http://www.w3.org/2000/svg" xmlns:xlink="http://www.w3.org/1999/xlink" width="3300" height="2200">
 <!--glyph: "", point size: 100.0, font version: "17.0d8e1", template writer version: "58"-->
 <g id="Notes">
  <rect height="2200" id="artboard" style="fill:white;opacity:1" width="3300" x="0" y="0"/>
  <line style="fill:none;stroke:black;opacity:1;stroke-width:0.5;" x1="263" x2="3036" y1="292" y2="292"/>
  <text style="stroke:none;fill:black;font-family:SF Pro,SF Pro Display,SF Pro Text,sans-serif;font-size:13;font-weight:bold;" transform="matrix(1 0 0 1 263 322)">Weight/Scale Variations</text>
  <text style="stroke:none;fill:black;font-family:SF Pro,SF Pro Display,SF Pro Text,sans-serif;font-size:13;text-anchor:middle;" transform="matrix(1 0 0 1 559.711 322)">Ultralight</text>
  <text style="stroke:none;fill:black;font-family:SF Pro,SF Pro Display,SF Pro Text,sans-serif;font-size:13;text-anchor:middle;" transform="matrix(1 0 0 1 856.422 322)">Thin</text>
  <text style="stroke:none;fill:black;font-family:SF Pro,SF Pro Display,SF Pro Text,sans-serif;font-size:13;text-anchor:middle;" transform="matrix(1 0 0 1 1153.13 322)">Light</text>
  <text style="stroke:none;fill:black;font-family:SF Pro,SF Pro Display,SF Pro Text,sans-serif;font-size:13;text-anchor:middle;" transform="matrix(1 0 0 1 1449.84 322)">Regular</text>
  <text style="stroke:none;fill:black;font-family:SF Pro,SF Pro Display,SF Pro Text,sans-serif;font-size:13;text-anchor:middle;" transform="matrix(1 0 0 1 1746.56 322)">Medium</text>
  <text style="stroke:none;fill:black;font-family:SF Pro,SF Pro Display,SF Pro Text,sans-serif;font-size:13;text-anchor:middle;" transform="matrix(1 0 0 1 2043.27 322)">Semibold</text>
  <text style="stroke:none;fill:black;font-family:SF Pro,SF Pro Display,SF Pro Text,sans-serif;font-size:13;text-anchor:middle;" transform="matrix(1 0 0 1 2339.98 322)">Bold</text>
  <text style="stroke:none;fill:black;font-family:SF Pro,SF Pro Display,SF Pro Text,sans-serif;font-size:13;text-anchor:middle;" transform="matrix(1 0 0 1 2636.69 322)">Heavy</text>
  <text style="stroke:none;fill:black;font-family:SF Pro,SF Pro Display,SF Pro Text,sans-serif;font-size:13;text-anchor:middle;" transform="matrix(1 0 0 1 2933.4 322)">Black</text>
  <line style="fill:none;stroke:black;opacity:1;stroke-width:0.5;" x1="263" x2="3036" y1="1903" y2="1903"/>
  <g transform="matrix(1 0 0 1 263 1933)">
   <path d="M9.24805 0.830078Q10.8691 0.830078 12.2949 0.214844Q13.7207-0.400391 14.8096-1.49414Q15.8984-2.58789 16.5186-4.01367Q17.1387-5.43945 17.1387-7.05078Q17.1387-8.66211 16.5186-10.0879Q15.8984-11.5137 14.8047-12.6074Q13.7109-13.7012 12.2852-14.3164Q10.8594-14.9316 9.23828-14.9316Q7.62695-14.9316 6.20117-14.3164Q4.77539-13.7012 3.69141-12.6074Q2.60742-11.5137 1.9873-10.0879Q1.36719-8.66211 1.36719-7.05078Q1.36719-5.43945 1.9873-4.01367Q2.60742-2.58789 3.69629-1.49414Q4.78516-0.400391 6.21094 0.214844Q7.63672 0.830078 9.24805 0.830078ZM9.24805-0.654297Q7.91992-0.654297 6.7627-1.14746Q5.60547-1.64062 4.73145-2.51953Q3.85742-3.39844 3.36426-4.56055Q2.87109-5.72266 2.87109-7.05078Q2.87109-8.37891 3.35938-9.54102Q3.84766-10.7031 4.72168-11.582Q5.5957-12.4609 6.75293-12.9541Q7.91016-13.4473 9.23828-13.4473Q10.5762-13.4473 11.7334-12.9541Q12.8906-12.4609 13.7695-11.582Q14.6484-10.7031 15.1465-9.54102Q15.6445-8.37891 15.6445-7.05078Q15.6445-5.72266 15.1514-4.56055Q14.6582-3.39844 13.7842-2.51953Q12.9102-1.64062 11.748-1.14746Q10.5859-0.654297 9.24805-0.654297ZM5.83984-7.04102Q5.83984-6.71875 6.04492-6.51855Q6.25-6.31836 6.5918-6.31836L8.50586-6.31836L8.50586-4.39453Q8.50586-4.0625 8.70605-3.85742Q8.90625-3.65234 9.22852-3.65234Q9.56055-3.65234 9.76562-3.85742Q9.9707-4.0625 9.9707-4.39453L9.9707-6.31836L11.8945-6.31836Q12.2266-6.31836 12.4316-6.51855Q12.6367-6.71875 12.6367-7.04102Q12.6367-7.37305 12.4316-7.57812Q12.2266-7.7832 11.8945-7.7832L9.9707-7.7832L9.9707-9.69727Q9.9707-10.0391 9.76562-10.2441Q9.56055-10.4492 9.22852-10.4492Q8.90625-10.4492 8.70605-10.2441Q8.50586-10.0391 8.50586-9.69727L8.50586-7.7832L6.5918-7.7832Q6.25-7.7832 6.04492-7.57812Q5.83984-7.37305 5.83984-7.04102Z"/>
  </g>
  <g transform="matrix(1 0 0 1 281.867 1933)">
   <path d="M11.709 2.91016Q13.75 2.91016 15.5518 2.12891Q17.3535 1.34766 18.7305-0.0292969Q20.1074-1.40625 20.8887-3.20801Q21.6699-5.00977 21.6699-7.05078Q21.6699-9.0918 20.8887-10.8936Q20.1074-12.6953 18.7305-14.0723Q17.3535-15.4492 15.5469-16.2305Q13.7402-17.0117 11.6992-17.0117Q9.6582-17.0117 7.85645-16.2305Q6.05469-15.4492 4.68262-14.0723Q3.31055-12.6953 2.5293-10.8936Q1.74805-9.0918 1.74805-7.05078Q1.74805-5.00977 2.5293-3.20801Q3.31055-1.40625 4.6875-0.0292969Q6.06445 1.34766 7.86621 2.12891Q9.66797 2.91016 11.709 2.91016ZM11.709 1.25Q9.98047 1.25 8.47656 0.605469Q6.97266-0.0390625 5.83496-1.17676Q4.69727-2.31445 4.05762-3.81836Q3.41797-5.32227 3.41797-7.05078Q3.41797-8.7793 4.05762-10.2832Q4.69727-11.7871 5.83008-12.9297Q6.96289-14.0723 8.4668-14.7119Q9.9707-15.3516 11.6992-15.3516Q13.4277-15.3516 14.9316-14.7119Q16.4355-14.0723 17.5781-12.9297Q18.7207-11.7871 19.3652-10.2832Q20.0098-8.7793 20.0098-7.05078Q20.0098-5.32227 19.3701-3.81836Q18.7305-2.31445 17.5928-1.17676Q16.4551-0.0390625 14.9463 0.605469Q13.4375 1.25 11.709 1.25ZM7.39258-7.04102Q7.39258-6.68945 7.62695-6.46484Q7.86133-6.24023 8.23242-6.24023L10.8789-6.24023L10.8789-3.57422Q10.8789-3.21289 11.1035-2.9834Q11.3281-2.75391 11.6797-2.75391Q12.0508-2.75391 12.2852-2.9834Q12.5195-3.21289 12.5195-3.57422L12.5195-6.24023L15.1758-6.24023Q15.5371-6.24023 15.7715-6.46484Q16.0059-6.68945 16.0059-7.04102Q16.0059-7.41211 15.7715-7.6416Q15.5371-7.87109 15.1758-7.87109L12.5195-7.87109L12.5195-10.5176Q12.5195-10.8984 12.2852-11.1279Q12.0508-11.3574 11.6797-11.3574Q11.3281-11.3574 11.1035-11.1279Q10.8789-10.8984 10.8789-10.5176L10.8789-7.87109L8.23242-7.87109Q7.85156-7.87109 7.62207-7.6416Q7.39258-7.41211 7.39258-7.04102Z"/>
  </g>
  <g transform="matrix(1 0 0 1 305.646 1933)">
   <path d="M14.9707 5.66406Q17.0605 5.66406 18.96 5.01465Q20.8594 4.36523 22.4512 3.19336Q24.043 2.02148 25.2197 0.429688Q26.3965-1.16211 27.0459-3.06641Q27.6953-4.9707 27.6953-7.05078Q27.6953-9.14062 27.0459-11.04Q26.3965-12.9395 25.2197-14.5312Q24.043-16.123 22.4512-17.2998Q20.8594-18.4766 18.9551-19.126Q17.0508-19.7754 14.9609-19.7754Q12.8711-19.7754 10.9717-19.126Q9.07227-18.4766 7.48535-17.2998Q5.89844-16.123 4.72168-14.5312Q3.54492-12.9395 2.90039-11.04Q2.25586-9.14062 2.25586-7.05078Q2.25586-4.9707 2.90527-3.06641Q3.55469-1.16211 4.72656 0.429688Q5.89844 2.02148 7.49023 3.19336Q9.08203 4.36523 10.9814 5.01465Q12.8809 5.66406 14.9707 5.66406ZM14.9707 3.84766Q13.1641 3.84766 11.5283 3.2959Q9.89258 2.74414 8.53516 1.74805Q7.17773 0.751953 6.17676-0.610352Q5.17578-1.97266 4.62891-3.6084Q4.08203-5.24414 4.08203-7.05078Q4.08203-8.86719 4.62891-10.5029Q5.17578-12.1387 6.17188-13.501Q7.16797-14.8633 8.52539-15.8594Q9.88281-16.8555 11.5186-17.4023Q13.1543-17.9492 14.9609-17.9492Q16.7773-17.9492 18.4131-17.4023Q20.0488-16.8555 21.4111-15.8594Q22.7734-14.8633 23.7695-13.501Q24.7656-12.1387 25.3174-10.5029Q25.8691-8.86719 25.8691-7.05078Q25.8789-5.24414 25.332-3.6084Q24.7852-1.97266 23.7842-0.610352Q22.7832 0.751953 21.4209 1.74805Q20.0586 2.74414 18.4229 3.2959Q16.7871 3.84766 14.9707 3.84766ZM9.45312-7.04102Q9.45312-6.66016 9.71191-6.41113Q9.9707-6.16211 10.3711-6.16211L14.0625-6.16211L14.0625-2.46094Q14.0625-2.06055 14.3115-1.80664Q14.5605-1.55273 14.9414-1.55273Q15.3516-1.55273 15.6055-1.80664Q15.8594-2.06055 15.8594-2.46094L15.8594-6.16211L19.5605-6.16211Q19.9609-6.16211 20.2148-6.41113Q20.4688-6.66016 20.4688-7.04102Q20.4688-7.45117 20.2148-7.70508Q19.9609-7.95898 19.5605-7.95898L15.8594-7.95898L15.8594-11.6504Q15.8594-12.0605 15.6055-12.3145Q15.3516-12.5684 14.9414-12.5684Q14.5605-12.5684 14.3115-12.3096Q14.0625-12.0508 14.0625-11.6504L14.0625-7.95898L10.3711-7.95898Q9.96094-7.95898 9.70703-7.70508Q9.45312-7.45117 9.45312-7.04102Z"/>
  </g>
  <text style="stroke:none;fill:black;font-family:SF Pro,SF Pro Display,SF Pro Text,sans-serif;font-size:13;font-weight:bold;" transform="matrix(1 0 0 1 263 1953)">Design Variations</text>
  <text style="stroke:none;fill:black;font-family:SF Pro,SF Pro Display,SF Pro Text,sans-serif;font-size:13;" transform="matrix(1 0 0 1 263 1971)">Symbols are supported in up to nine weights and three scales.</text>
  <text style="stroke:none;fill:black;font-family:SF Pro,SF Pro Display,SF Pro Text,sans-serif;font-size:13;" transform="matrix(1 0 0 1 263 1989)">For optimal layout with text and other symbols, vertically align</text>
  <text style="stroke:none;fill:black;font-family:SF Pro,SF Pro Display,SF Pro Text,sans-serif;font-size:13;" transform="matrix(1 0 0 1 263 2007)">symbols with the adjacent text.</text>
  <line style="fill:none;stroke:#00AEEF;stroke-width:0.5;opacity:1.0;" x1="776" x2="776" y1="1919" y2="1933"/>
  <g transform="matrix(1 0 0 1 776 1933)">
   <path d="M3.31055 0.15625Q3.70117 0.15625 3.91602-0.00976562Q4.13086-0.175781 4.26758-0.585938L5.52734-4.0332L11.2891-4.0332L12.5488-0.585938Q12.6855-0.175781 12.9004-0.00976562Q13.1152 0.15625 13.4961 0.15625Q13.8867 0.15625 14.1162-0.0585938Q14.3457-0.273438 14.3457-0.644531Q14.3457-0.869141 14.2383-1.17188L9.6582-13.3691Q9.48242-13.8184 9.17969-14.043Q8.87695-14.2676 8.4082-14.2676Q7.5-14.2676 7.17773-13.3789L2.59766-1.16211Q2.49023-0.859375 2.49023-0.634766Q2.49023-0.263672 2.70996-0.0537109Q2.92969 0.15625 3.31055 0.15625ZM6.00586-5.51758L8.37891-12.0898L8.42773-12.0898L10.8008-5.51758Z"/>
  </g>
  <line style="fill:none;stroke:#00AEEF;stroke-width:0.5;opacity:1.0;" x1="793.197" x2="793.197" y1="1919" y2="1933"/>
  <text style="stroke:none;fill:black;font-family:SF Pro,SF Pro Display,SF Pro Text,sans-serif;font-size:13;font-weight:bold;" transform="matrix(1 0 0 1 776 1953)">Margins</text>
  <text style="stroke:none;fill:black;font-family:SF Pro,SF Pro Display,SF Pro Text,sans-serif;font-size:13;" transform="matrix(1 0 0 1 776 1971)">Leading and trailing margins on the left and right side of each symbol</text>
  <text style="stroke:none;fill:black;font-family:SF Pro,SF Pro Display,SF Pro Text,sans-serif;font-size:13;" transform="matrix(1 0 0 1 776 1989)">can be adjusted by modifying the x-location of the margin guidelines.</text>
  <text style="stroke:none;fill:black;font-family:SF Pro,SF Pro Display,SF Pro Text,sans-serif;font-size:13;" transform="matrix(1 0 0 1 776 2007)">Modifications are automatically applied proportionally to all</text>
  <text style="stroke:none;fill:black;font-family:SF Pro,SF Pro Display,SF Pro Text,sans-serif;font-size:13;" transform="matrix(1 0 0 1 776 2025)">scales and weights.</text>
  <g transform="matrix(1 0 0 1 1289 1933)">
   <path d="M2.8418 1.86523L4.54102 3.57422Q5.18555 4.22852 5.90332 4.17969Q6.62109 4.13086 7.31445 3.35938L18.0078-8.42773L17.041-9.4043L6.42578 2.27539Q6.16211 2.57812 5.89355 2.61719Q5.625 2.65625 5.27344 2.30469L4.10156 1.14258Q3.75 0.791016 3.79395 0.522461Q3.83789 0.253906 4.14062-0.0195312L15.6152-10.8203L14.6387-11.7871L3.04688-0.898438Q2.30469-0.214844 2.25098 0.498047Q2.19727 1.21094 2.8418 1.86523ZM9.25781-16.3281Q8.94531-16.0254 8.90625-15.6348Q8.86719-15.2441 9.04297-14.9512Q9.21875-14.6777 9.55566-14.541Q9.89258-14.4043 10.3809-14.5215Q11.4746-14.7754 12.5977-14.7314Q13.7207-14.6875 14.7949-13.9844L14.209-12.5293Q13.9551-11.9043 14.0674-11.4404Q14.1797-10.9766 14.5801-10.5664L16.875-8.25195Q17.2363-7.88086 17.5781-7.82227Q17.9199-7.76367 18.3398-7.8418L19.4043-8.03711L20.0684-7.36328L20.0293-6.80664Q20-6.43555 20.1221-6.12305Q20.2441-5.81055 20.6055-5.44922L21.3672-4.70703Q21.7285-4.3457 22.1533-4.33105Q22.5781-4.31641 22.9297-4.66797L25.8398-7.58789Q26.1914-7.93945 26.1816-8.35449Q26.1719-8.76953 25.8105-9.13086L25.0391-9.89258Q24.6875-10.2539 24.3799-10.3857Q24.0723-10.5176 23.7109-10.4883L23.1348-10.4395L22.4902-11.0742L22.7344-12.1973Q22.832-12.6172 22.6953-12.9834Q22.5586-13.3496 22.1191-13.7891L19.9219-15.9766Q18.6719-17.2168 17.2607-17.8369Q15.8496-18.457 14.4189-18.4814Q12.9883-18.5059 11.665-17.959Q10.3418-17.4121 9.25781-16.3281ZM10.752-15.957Q11.6602-16.6211 12.7002-16.9043Q13.7402-17.1875 14.8047-17.085Q15.8691-16.9824 16.8701-16.5137Q17.8711-16.0449 18.7012-15.2051L21.1328-12.793Q21.3086-12.6172 21.3525-12.4512Q21.3965-12.2852 21.3379-12.0312L21.0156-10.5469L22.5195-9.0625L23.5059-9.12109Q23.6914-9.13086 23.7891-9.09668Q23.8867-9.0625 24.0332-8.91602L24.6094-8.33984L22.168-5.89844L21.5918-6.47461Q21.4453-6.62109 21.4062-6.71875Q21.3672-6.81641 21.377-7.01172L21.4453-7.98828L19.9512-9.47266L18.4277-9.21875Q18.1836-9.16992 18.042-9.2041Q17.9004-9.23828 17.7148-9.41406L15.7129-11.416Q15.5176-11.5918 15.4932-11.7529Q15.4688-11.9141 15.5859-12.1875L16.4648-14.2773Q15.293-15.3711 13.8281-15.791Q12.3633-16.2109 10.8398-15.7617Q10.7227-15.7324 10.6885-15.8057Q10.6543-15.8789 10.752-15.957Z"/>
  </g>
  <text style="stroke:none;fill:black;font-family:SF Pro,SF Pro Display,SF Pro Text,sans-serif;font-size:13;font-weight:bold;" transform="matrix(1 0 0 1 1289 1953)">Exporting</text>
  <text style="stroke:none;fill:black;font-family:SF Pro,SF Pro Display,SF Pro Text,sans-serif;font-size:13;" transform="matrix(1 0 0 1 1289 1971)">Symbols should be outlined when exporting to ensure the</text>
  <text style="stroke:none;fill:black;font-family:SF Pro,SF Pro Display,SF Pro Text,sans-serif;font-size:13;" transform="matrix(1 0 0 1 1289 1989)">design is preserved when submitting to Xcode.</text>
  <text id="template-version" style="stroke:none;fill:black;font-family:SF Pro,SF Pro Display,SF Pro Text,sans-serif;font-size:13;text-anchor:end;" transform="matrix(1 0 0 1 3036 1933)">Template v.3.0</text>
  <text style="stroke:none;fill:black;font-family:SF Pro,SF Pro Display,SF Pro Text,sans-serif;font-size:13;text-anchor:end;" transform="matrix(1 0 0 1 3036 1951)">Requires Xcode 13 or greater</text>
  <text id="descriptive-name" style="stroke:none;fill:black;font-family:SF Pro,SF Pro Display,SF Pro Text,sans-serif;font-size:13;text-anchor:end;" transform="matrix(1 0 0 1 3036 1969)">Generated from pg.tv</text>
  <text style="stroke:none;fill:black;font-family:SF Pro,SF Pro Display,SF Pro Text,sans-serif;font-size:13;text-anchor:end;" transform="matrix(1 0 0 1 3036 1987)">Typeset at 100 points</text>
  <text style="stroke:none;fill:black;font-family:SF Pro,SF Pro Display,SF Pro Text,sans-serif;font-size:13;" transform="matrix(1 0 0 1 263 726)">Small</text>
  <text style="stroke:none;fill:black;font-family:SF Pro,SF Pro Display,SF Pro Text,sans-serif;font-size:13;" transform="matrix(1 0 0 1 263 1156)">Medium</text>
  <text style="stroke:none;fill:black;font-family:SF Pro,SF Pro Display,SF Pro Text,sans-serif;font-size:13;" transform="matrix(1 0 0 1 263 1586)">Large</text>
 </g>
 <g id="Guides">
  <g id="H-reference" style="fill:#27AAE1;stroke:none;" transform="matrix(1 0 0 1 339 696)">
   <path d="M0.993347 0L3.6377 0L29.3282-67.1326L30.0301-67.1326L30.0301-70.459L28.1227-70.459ZM11.6882-24.4797L46.9818-24.4797L46.2311-26.7288L12.4382-26.7288ZM55.1193 0L57.7637 0L30.6381-70.459L29.4327-70.459L29.4327-67.1326Z"/>
  </g>
  <line id="Baseline-S" style="fill:none;stroke:#27AAE1;opacity:1;stroke-width:0.5;" x1="263" x2="3036" y1="696" y2="696"/>
  <line id="Capline-S" style="fill:none;stroke:#27AAE1;opacity:1;stroke-width:0.5;" x1="263" x2="3036" y1="625.541" y2="625.541"/>
  <g id="H-reference" style="fill:#27AAE1;stroke:none;" transform="matrix(1 0 0 1 339 1126)">
   <path d="M0.993347 0L3.6377 0L29.3282-67.1326L30.0301-67.1326L30.0301-70.459L28.1227-70.459ZM11.6882-24.4797L46.9818-24.4797L46.2311-26.7288L12.4382-26.7288ZM55.1193 0L57.7637 0L30.6381-70.459L29.4327-70.459L29.4327-67.1326Z"/>
  </g>
  <line id="Baseline-M" style="fill:none;stroke:#27AAE1;opacity:1;stroke-width:0.5;" x1="263" x2="3036" y1="1126" y2="1126"/>
  <line id="Capline-M" style="fill:none;stroke:#27AAE1;opacity:1;stroke-width:0.5;" x1="263" x2="3036" y1="1055.54" y2="1055.54"/>
  <g id="H-reference" style="fill:#27AAE1;stroke:none;" transform="matrix(1 0 0 1 339 1556)">
   <path d="M0.993347 0L3.6377 0L29.3282-67.1326L30.0301-67.1326L30.0301-70.459L28.1227-70.459ZM11.6882-24.4797L46.9818-24.4797L46.2311-26.7288L12.4382-26.7288ZM55.1193 0L57.7637 0L30.6381-70.459L29.4327-70.459L29.4327-67.1326Z"/>
  </g>
  <line id="Baseline-L" style="fill:none;stroke:#27AAE1;opacity:1;stroke-width:0.5;" x1="263" x2="3036" y1="1556" y2="1556"/>
  <line id="Capline-L" style="fill:none;stroke:#27AAE1;opacity:1;stroke-width:0.5;" x1="263" x2="3036" y1="1485.54" y2="1485.54"/>
  <line id="left-margin-Regular-M" style="fill:none;stroke:#00AEEF;stroke-width:0.5;opacity:1.0;" x1="1376.11" x2="1376.11" y1="1030.78" y2="1150.12"/>
  <line id="right-margin-Regular-M" style="fill:none;stroke:#00AEEF;stroke-width:0.5;opacity:1.0;" x1="1523.58" x2="1523.58" y1="1030.78" y2="1150.12"/>
 </g>
 <g id="Symbols">
  <g id="Black-L" transform="matrix(1 0 0 1 2835.62 1556)">
   <path d="M34.332 13.4336L161.237 13.4336C168.137 13.4336 173.468 11.5537 177.228 7.79395C180.987 4.03418 182.867-1.29622 182.867-8.19727L182.867-82.123C182.867-88.9915 180.987-94.3138 177.228-98.0898C173.468-101.866 168.137-103.754 161.237-103.754L34.332-103.754C27.4635-103.754 22.1413-101.866 18.3652-98.0898C14.5892-94.3138 12.7012-88.9915 12.7012-82.123L12.7012-8.19727C12.7012-1.29622 14.5892 4.03418 18.3652 7.79395C22.1413 11.5537 27.4635 13.4336 34.332 13.4336ZM36.8222-5.51172C35.097-5.51172 33.8031-5.91048 32.9404-6.70801C32.0778-7.50554 31.6465-8.83203 31.6465-10.6875L31.6465-79.6328C31.6465-81.4557 32.0778-82.7741 32.9404-83.5879C33.8031-84.4017 35.097-84.8086 36.8222-84.8086L158.746-84.8086C160.471-84.8086 161.765-84.4017 162.628-83.5879C163.49-82.7741 163.922-81.4557 163.922-79.6328L163.922-10.6875C163.922-8.83203 163.49-7.50554 162.628-6.70801C161.765-5.91048 160.471-5.51172 158.746-5.51172L36.8222-5.51172ZM63.6289 38.1895L131.989 38.1895C134.202 38.1895 136.09 37.3838 137.653 35.7725C139.215 34.1612 139.996 32.3138 139.996 30.2305C139.996 28.1146 139.215 26.2509 137.653 24.6396C136.09 23.0283 134.202 22.2227 131.989 22.2227L63.6289 22.2227C61.3828 22.2227 59.4866 23.0283 57.9404 24.6396C56.3942 26.2509 55.6211 28.1146 55.6211 30.2305C55.6211 32.3138 56.3942 34.1612 57.9404 35.7725C59.4866 37.3838 61.3828 38.1895 63.6289 38.1895ZM54.8164-16.8019C59.958-16.8019 62.8907-19.8487 62.8907-25.2569L62.8907-32.7599L70.7364-32.7599C83.5713-32.7599 92.293-40.5675 92.293-52.6788C92.293-64.9044 84.0664-72.712 71.8408-72.712L54.8164-72.712C49.6748-72.712 46.7422-69.6651 46.7422-64.2569L46.7422-25.2569C46.7422-19.8487 49.6748-16.8019 54.8164-16.8019ZM67.4229-44.6808L62.8907-44.6808L62.8907-60.5626L67.5371-60.5626C72.793-60.5626 75.9922-57.8585 75.9922-52.6407C75.9922-47.3849 72.793-44.6808 67.4229-44.6808ZM124.438-16.8019C140.814-16.8019 149.879-26.8565 149.879-39.92C149.879-45.3282 146.946-48.3751 141.805-48.3751L131.179-48.3751C127.522-48.3751 125.199-46.4708 125.199-43.005C125.199-39.5392 127.561-37.6349 131.179-37.6349L134.34-37.6349L134.264-36.8731C133.807-32.4552 130.074-29.5226 124.818-29.5226C117.734-29.5226 113.126-35.502 113.126-45.5186C113.126-55.3067 117.163-60.9435 124.019-60.9435C127.903-60.9435 130.531-59.4962 133.121-56.0304C135.102-53.4024 137.501-52.1837 140.662-52.1837C144.775-52.1837 147.594-54.964 147.594-59.0011C147.594-60.3722 147.289-61.6671 146.489-63.1524C143.252-68.9415 134.949-73.6642 123.942-73.6642C106.994-73.6642 96.6729-63.3048 96.6729-45.2901C96.6729-27.047 106.994-16.8019 124.438-16.8019Z"/>
  </g>
  <g id="Heavy-L" transform="matrix(1 0 0 1 2540.71 1556)">
   <path d="M32.8183 12.2617L159.137 12.2617C165.615 12.2617 170.587 10.5283 174.054 7.06152C177.52 3.59473 179.254-1.3776 179.254-7.85547L179.254-81.4395C179.254-87.8522 177.52-92.8083 174.054-96.3076C170.587-99.8072 165.615-101.557 159.137-101.557L32.8183-101.557C26.4056-101.557 21.4495-99.8072 17.9502-96.3076C14.4509-92.8083 12.7012-87.8522 12.7012-81.4395L12.7012-7.85547C12.7012-1.3776 14.4509 3.59473 17.9502 7.06152C21.4495 10.5283 26.4056 12.2617 32.8183 12.2617ZM34.7715-4.24219C32.916-4.24219 31.5244-4.68164 30.5967-5.56055C29.669-6.43946 29.2051-7.85547 29.2051-9.8086L29.2051-79.4863C29.2051-81.4069 29.669-82.8148 30.5967-83.71C31.5244-84.6051 32.916-85.0527 34.7715-85.0527L157.184-85.0527C159.039-85.0527 160.431-84.6051 161.359-83.71C162.286-82.8148 162.75-81.4069 162.75-79.4863L162.75-9.8086C162.75-7.85547 162.286-6.43946 161.359-5.56055C160.431-4.68164 159.039-4.24219 157.184-4.24219L34.7715-4.24219ZM62.5058 35.8945L129.498 35.8945C131.484 35.8945 133.168 35.1784 134.552 33.7461C135.935 32.3138 136.627 30.67 136.627 28.8145C136.627 26.8939 135.935 25.2175 134.552 23.7852C133.168 22.3529 131.484 21.6367 129.498 21.6367L62.5058 21.6367C60.5201 21.6367 58.8356 22.3529 57.4521 23.7852C56.0686 25.2175 55.3769 26.8939 55.3769 28.8145C55.3769 30.67 56.0686 32.3138 57.4521 33.7461C58.8356 35.1784 60.5201 35.8945 62.5058 35.8945ZM53.1973-16.7191C57.6153-16.7191 60.167-19.347 60.167-23.9935L60.167-33.6674L69.1553-33.6674C81.3809-33.6674 89.7979-41.3226 89.7979-53.0531C89.7979-64.8597 81.7998-72.515 69.9932-72.515L53.1973-72.515C48.7793-72.515 46.1895-69.849 46.1895-65.2025L46.1895-23.9935C46.1895-19.347 48.7793-16.7191 53.1973-16.7191ZM66.2227-44.1791L60.167-44.1791L60.167-61.8129L66.2989-61.8129C72.1641-61.8129 75.668-58.7279 75.668-53.015C75.668-47.264 72.1641-44.1791 66.2227-44.1791ZM121.638-16.6049C137.634-16.6049 146.584-26.3549 146.584-39.8754L146.584-40.2562C146.584-44.9027 144.032-47.5306 139.614-47.5306L127.655-47.5306C124.418-47.5306 122.323-45.8168 122.323-42.7318C122.323-39.6468 124.456-37.933 127.655-37.933L133.102-37.933L133.064-37.0951C132.683-31.5726 128.265-27.8402 121.942-27.8402C113.906-27.8402 108.727-34.4291 108.727-45.3216C108.727-56.0238 113.411-62.2318 121.333-62.2318C125.941-62.2318 129.217-60.3656 131.845-56.2142C133.559-53.7006 135.653-52.5961 138.472-52.5961C142.052-52.5961 144.489-54.9955 144.489-58.5375C144.489-59.7943 144.223-60.975 143.499-62.3841C140.338-68.6302 132.073-73.4672 121.295-73.4672C104.689-73.4672 94.4825-62.9554 94.4825-45.1312C94.4825-27.0785 104.689-16.6049 121.638-16.6049Z"/>
  </g>
  <g id="Bold-L" transform="matrix(1 0 0 1 2246 1556)">
   <path d="M31.1582 10.9922L156.842 10.9922C162.799 10.9922 167.356 9.41342 170.514 6.25586C173.671 3.09831 175.25-1.47526 175.25-7.46484L175.25-80.6582C175.25-86.6153 173.671-91.1807 170.514-94.3545C167.356-97.5283 162.799-99.1152 156.842-99.1152L31.1582-99.1152C25.2011-99.1152 20.6357-97.5283 17.4619-94.3545C14.2881-91.1807 12.7012-86.6153 12.7012-80.6582L12.7012-7.46484C12.7012-1.47526 14.2881 3.09831 17.4619 6.25586C20.6357 9.41342 25.2011 10.9922 31.1582 10.9922ZM32.4765-2.82617C30.4908-2.82617 29.0016-3.30631 28.0088-4.2666C27.0159-5.22689 26.5195-6.73242 26.5195-8.7832L26.5195-79.3398C26.5195-81.3906 27.0159-82.8961 28.0088-83.8564C29.0016-84.8167 30.4908-85.2969 32.4765-85.2969L155.475-85.2969C157.46-85.2969 158.957-84.8167 159.967-83.8564C160.976-82.8961 161.481-81.3906 161.481-79.3398L161.481-8.7832C161.481-6.73242 160.976-5.22689 159.967-4.2666C158.957-3.30631 157.46-2.82617 155.475-2.82617L32.4765-2.82617ZM61.2851 33.3555L126.715 33.3555C128.44 33.3555 129.905 32.7451 131.11 31.5244C132.314 30.3037 132.916 28.8633 132.916 27.2031C132.916 25.543 132.314 24.1025 131.11 22.8818C129.905 21.6611 128.44 21.0508 126.715 21.0508L61.2851 21.0508C59.5598 21.0508 58.095 21.6611 56.8906 22.8818C55.6862 24.1025 55.084 25.543 55.084 27.2031C55.084 28.8633 55.6862 30.3037 56.8906 31.5244C58.095 32.7451 59.5598 33.3555 61.2851 33.3555ZM51.5782-15.3916C55.1963-15.3916 57.3291-17.6006 57.3291-21.3711L57.3291-33.4443L67.6123-33.4443C79.1905-33.4443 87.2266-40.9853 87.2266-52.2588C87.2266-63.5703 79.4571-71.0732 68.1836-71.0732L51.5782-71.0732C47.96-71.0732 45.8272-68.8642 45.8272-65.0937L45.8272-21.3711C45.8272-17.6006 47.96-15.3916 51.5782-15.3916ZM65.0987-42.4326L57.3291-42.4326L57.3291-61.9707L65.1367-61.9707C71.7256-61.9707 75.5342-58.4668 75.5342-52.2207C75.5342-45.9365 71.6875-42.4326 65.0987-42.4326ZM118.762-15.2011C134.263-15.2011 143.137-24.6084 143.137-38.5859L143.137-39.4238C143.137-43.1943 141.004-45.4033 137.386-45.4033L123.941-45.4033C121.161-45.4033 119.333-43.8418 119.333-41.2138C119.333-38.5859 121.199-37.0244 123.941-37.0244L131.939-37.0244L131.901-36.1484C131.673-29.331 126.455-24.7226 118.952-24.7226C109.812-24.7226 104.022-31.997 104.022-43.9179C104.022-55.6103 109.469-62.5039 118.533-62.5039C123.941-62.5039 127.94-60.1045 130.645-55.1914C132.054-52.8681 133.768-51.8398 136.205-51.8398C139.214-51.8398 141.232-53.8584 141.232-56.791C141.232-57.8955 141.042-59 140.395-60.333C137.31-67.0742 129.045-72.0254 118.495-72.0254C102.347-72.0254 92.292-61.3613 92.292-43.7656C92.292-25.9033 102.347-15.2011 118.762-15.2011Z"/>
  </g>
  <g id="Semibold-L" transform="matrix(1 0 0 1 1950.68 1556)">
   <path d="M29.9863 10.1133L155.231 10.1133C160.829 10.1133 165.102 8.6403 168.048 5.69434C170.994 2.74837 172.467-1.55664 172.467-7.2207L172.467-80.1211C172.467-85.72 170.994-90.0006 168.048-92.9629C165.102-95.9251 160.829-97.4062 155.231-97.4062L29.9863-97.4062C24.3874-97.4062 20.1068-95.9251 17.1445-92.9629C14.1823-90.0006 12.7012-85.72 12.7012-80.1211L12.7012-7.2207C12.7012-1.55664 14.1823 2.74837 17.1445 5.69434C20.1068 8.6403 24.3874 10.1133 29.9863 10.1133ZM30.914-1.80078C28.8307-1.80078 27.26-2.32161 26.2021-3.36328C25.1442-4.40495 24.6152-5.98372 24.6152-8.09961L24.6152-79.1934C24.6152-81.3418 25.1442-82.9287 26.2021-83.9541C27.26-84.9795 28.8307-85.4922 30.914-85.4922L154.303-85.4922C156.386-85.4922 157.949-84.9795 158.991-83.9541C160.032-82.9287 160.553-81.3418 160.553-79.1934L160.553-8.09961C160.553-5.98372 160.032-4.40495 158.991-3.36328C157.949-2.32161 156.386-1.80078 154.303-1.80078L30.914-1.80078ZM60.4551 31.5977L124.811 31.5977C126.341 31.5977 127.643 31.0524 128.717 29.9619C129.791 28.8714 130.328 27.5775 130.328 26.0801C130.328 24.6152 129.791 23.3376 128.717 22.2471C127.643 21.1566 126.341 20.6113 124.811 20.6113L60.4551 20.6113C58.8926 20.6113 57.5742 21.1566 56.5 22.2471C55.4258 23.3376 54.8887 24.6152 54.8887 26.0801C54.8887 27.5775 55.4258 28.8714 56.5 29.9619C57.5742 31.0524 58.8926 31.5977 60.4551 31.5977ZM50.8828-15.7587C53.9678-15.7587 55.7959-17.6249 55.7959-20.8623L55.7959-34.5732L66.917-34.5732C78.0381-34.5732 85.8457-41.9999 85.8457-52.9687C85.8457-63.9374 78.2666-71.3642 67.336-71.3642L50.8828-71.3642C47.836-71.3642 45.9698-69.4599 45.9698-66.2607L45.9698-20.8623C45.9698-17.6249 47.836-15.7587 50.8828-15.7587ZM64.708-42.4951L55.7959-42.4951L55.7959-63.3281L64.7461-63.3281C71.792-63.3281 75.8672-59.5576 75.8672-52.9687C75.8672-46.3037 71.7539-42.4951 64.708-42.4951ZM117.152-15.4921C132.349-15.4921 141.108-24.6708 141.108-38.9531L141.108-40.0957C141.108-43.2949 139.28-45.1992 136.233-45.1992L121.761-45.1992C119.323-45.1992 117.647-43.79 117.647-41.4667C117.647-39.1435 119.323-37.6962 121.761-37.6962L131.511-37.6962L131.473-36.7822C131.32-29.0888 125.569-23.833 117.267-23.833C107.364-23.833 101.194-31.5644 101.194-44.2089C101.194-56.5869 107.098-63.9374 117-63.9374C122.98-63.9374 127.436-61.1953 130.178-55.749C131.397-53.54 132.882-52.5878 135.015-52.5878C137.643-52.5878 139.356-54.3017 139.356-56.8916C139.356-57.8818 139.204-58.872 138.633-60.1669C135.586-67.2509 127.321-72.2783 116.962-72.2783C101.08-72.2783 91.1397-61.538 91.1397-44.0947C91.1397-26.3847 101.118-15.4921 117.152-15.4921Z"/>
  </g>
  <g id="Medium-L" transform="matrix(1 0 0 1 1655.02 1556)">
   <path d="M29.1074 9.42969L154.01 9.42969C159.348 9.42969 163.409 8.03809 166.193 5.25488C168.975 2.47168 170.367-1.60547 170.367-6.97656L170.367-79.7305C170.367-85.069 168.975-89.1299 166.193-91.9131C163.409-94.6963 159.348-96.0879 154.01-96.0879L29.1074-96.0879C23.7363-96.0879 19.6592-94.6963 16.876-91.9131C14.0928-89.1299 12.7012-85.069 12.7012-79.7305L12.7012-6.97656C12.7012-1.60547 14.0928 2.47168 16.876 5.25488C19.6592 8.03809 23.7363 9.42969 29.1074 9.42969ZM29.6933-1.06836C27.5449-1.06836 25.9254-1.60547 24.8349-2.67969C23.7444-3.75391 23.1992-5.38151 23.1992-7.5625L23.1992-79.0957C23.1992-81.3092 23.7444-82.945 24.8349-84.0029C25.9254-85.0608 27.5449-85.5898 29.6933-85.5898L153.375-85.5898C155.523-85.5898 157.143-85.0608 158.234-84.0029C159.324-82.945 159.869-81.3092 159.869-79.0957L159.869-7.5625C159.869-5.38151 159.324-3.75391 158.234-2.67969C157.143-1.60547 155.523-1.06836 153.375-1.06836L29.6933-1.06836ZM59.7715 30.2793L123.346 30.2793C124.713 30.2793 125.885 29.7829 126.862 28.79C127.838 27.7972 128.326 26.6172 128.326 25.25C128.326 23.8828 127.838 22.7109 126.862 21.7344C125.885 20.7578 124.713 20.2695 123.346 20.2695L59.7715 20.2695C58.4043 20.2695 57.2243 20.7578 56.2314 21.7344C55.2386 22.7109 54.7422 23.8828 54.7422 25.25C54.7422 26.6172 55.2386 27.7972 56.2314 28.79C57.2243 29.7829 58.4043 30.2793 59.7715 30.2793ZM50.1114-15.4785C52.7393-15.4785 54.377-17.1543 54.377-19.8965L54.377-34.8643L66.1836-34.8643C76.9619-34.8643 84.541-42.2529 84.541-52.9932C84.541-63.6953 77.1143-71.0459 66.4502-71.0459L50.1114-71.0459C47.4453-71.0459 45.8457-69.3701 45.8457-66.6279L45.8457-19.8965C45.8457-17.1543 47.4453-15.4785 50.1114-15.4785ZM64.1651-42.0244L54.377-42.0244L54.377-63.8477L64.2032-63.8477C71.5918-63.8477 75.8194-59.8867 75.8194-52.9551C75.8194-46.0234 71.5918-42.0244 64.1651-42.0244ZM115.657-15.1738C130.625-15.1738 139.347-24.2002 139.347-38.7109L139.347-40.082C139.347-42.8623 137.709-44.5381 135.081-44.5381L119.847-44.5381C117.638-44.5381 116.114-43.167 116.114-41.0723C116.114-39.0156 117.638-37.6445 119.847-37.6445L130.93-37.6445L130.93-36.6924C130.815-28.3516 124.646-22.6387 115.733-22.6387C105.26-22.6387 98.7471-30.751 98.7471-43.8906C98.7471-56.8018 105.069-64.4951 115.581-64.4951C121.941-64.4951 126.816-61.4863 129.597-55.6592C130.663-53.5264 131.92-52.6123 133.862-52.6123C136.186-52.6123 137.671-54.1358 137.671-56.3828C137.671-57.335 137.557-58.2871 137.062-59.5059C134.015-66.8565 125.788-71.96 115.543-71.96C99.8897-71.96 90.0254-61.1436 90.0254-43.8145C90.0254-26.1807 99.9278-15.1738 115.657-15.1738Z"/>
  </g>
  <g id="Regular-L" transform="matrix(1 0 0 1 1359.68 1556)">
   <path d="M27.9844 8.55078L152.399 8.55078C157.411 8.55078 161.204 7.26497 163.776 4.69336C166.347 2.12175 167.633-1.68685 167.633-6.73242L167.633-79.1934C167.633-84.2064 166.347-87.9987 163.776-90.5703C161.204-93.1419 157.411-94.4277 152.399-94.4277L27.9844-94.4277C22.9388-94.4277 19.1302-93.1419 16.5586-90.5703C13.987-87.9987 12.7012-84.2064 12.7012-79.1934L12.7012-6.73242C12.7012-1.68685 13.987 2.12175 16.5586 4.69336C19.1302 7.26497 22.9388 8.55078 27.9844 8.55078ZM28.1308-0.091797C25.8847-0.091797 24.192-0.661458 23.0527-1.80078C21.9134-2.94011 21.3437-4.63282 21.3437-6.87891L21.3437-78.998C21.3437-81.2767 21.9134-82.9775 23.0527-84.1006C24.192-85.2237 25.8847-85.7852 28.1308-85.7852L152.203-85.7852C154.449-85.7852 156.142-85.2237 157.282-84.1006C158.421-82.9775 158.991-81.2767 158.991-78.998L158.991-6.87891C158.991-4.63282 158.421-2.94011 157.282-1.80078C156.142-0.661458 154.449-0.091797 152.203-0.091797L28.1308-0.091797ZM58.9414 28.5215L121.442 28.5215C122.646 28.5215 123.671 28.0983 124.518 27.252C125.364 26.4056 125.787 25.3802 125.787 24.1758C125.787 22.9713 125.364 21.9459 124.518 21.0996C123.671 20.2533 122.646 19.8301 121.442 19.8301L58.9414 19.8301C57.7369 19.8301 56.7034 20.2533 55.8408 21.0996C54.9782 21.9459 54.5469 22.9713 54.5469 24.1758C54.5469 25.3802 54.9782 26.4056 55.8408 27.252C56.7034 28.0983 57.7369 28.5215 58.9414 28.5215ZM48.378-15.2168C50.4727-15.2168 51.8057-16.5879 51.8057-18.7588L51.8057-35.3643L64.4883-35.3643C74.8096-35.3643 82.1602-42.6387 82.1602-53.0742C82.1602-63.4717 74.8858-70.708 64.5645-70.708L48.378-70.708C46.2832-70.708 44.9502-69.3369 44.9502-67.166L44.9502-18.7588C44.9502-16.5879 46.2832-15.2168 48.378-15.2168ZM62.7744-41.458L51.8057-41.458L51.8057-64.6143L62.7744-64.6143C70.6582-64.6143 75.1143-60.3486 75.1143-53.0742C75.1143-45.7617 70.6201-41.458 62.7744-41.458ZM113.048-14.8359C127.711-14.8359 136.356-23.6338 136.356-38.4873L136.356-40.1631C136.356-42.334 135.023-43.7051 132.929-43.7051L116.704-43.7051C114.8-43.7051 113.429-42.4863 113.429-40.6963C113.429-38.9062 114.8-37.6875 116.704-37.6875L129.501-37.6875L129.501-36.6973C129.501-27.4805 122.798-21.1582 113.048-21.1582C101.851-21.1582 94.919-29.7275 94.919-43.5527C94.919-57.1494 101.736-65.2998 113.048-65.2998C119.98-65.2998 125.312-61.9482 128.13-55.5879C129.006-53.5693 130.034-52.7314 131.71-52.7314C133.614-52.7314 134.833-53.9883 134.833-55.8545C134.833-56.6924 134.757-57.5684 134.3-58.749C131.329-66.4424 123.103-71.6221 113.048-71.6221C97.6612-71.6221 87.8731-60.6914 87.8731-43.5146C87.8731-26.0332 97.6992-14.8359 113.048-14.8359Z"/>
  </g>
  <g id="Light-L" transform="matrix(1 0 0 1 1064.73 1556)">
   <path d="M26.7148 8.20898L150.153 8.20898C154.742 8.20898 158.217 7.02897 160.577 4.66895C162.937 2.30892 164.117-1.18229 164.117-5.80469L164.117-78.6074C164.117-83.2298 162.937-86.7129 160.577-89.0566C158.217-91.4004 154.742-92.5723 150.153-92.5723L26.7148-92.5723C22.0924-92.5723 18.6012-91.4004 16.2412-89.0566C13.8812-86.7129 12.7012-83.2298 12.7012-78.6074L12.7012-5.80469C12.7012-1.18229 13.8812 2.30892 16.2412 4.66895C18.6012 7.02897 22.0924 8.20898 26.7148 8.20898ZM26.9101 1.56836C24.4036 1.56836 22.5075 0.941732 21.2217-0.311523C19.9358-1.56478 19.2929-3.44466 19.2929-5.95117L19.2929-78.4121C19.2929-80.9512 19.9358-82.8473 21.2217-84.1006C22.5075-85.3539 24.4036-85.9805 26.9101-85.9805L149.957-85.9805C152.463-85.9805 154.351-85.3539 155.621-84.1006C156.891-82.8473 157.526-80.9512 157.526-78.4121L157.526-5.95117C157.526-3.44466 156.891-1.56478 155.621-0.311523C154.351 0.941732 152.463 1.56836 149.957 1.56836L26.9101 1.56836ZM57.7695 26.3242L119.098 26.3242C120.042 26.3242 120.831 26.0068 121.466 25.3721C122.1 24.7373 122.418 23.9479 122.418 23.0039C122.418 22.0599 122.1 21.2705 121.466 20.6357C120.831 20.001 120.042 19.6836 119.098 19.6836L57.7695 19.6836C56.8255 19.6836 56.028 20.001 55.3769 20.6357C54.7259 21.2705 54.4004 22.0599 54.4004 23.0039C54.4004 23.9479 54.7259 24.7373 55.3769 25.3721C56.028 26.0068 56.8255 26.3242 57.7695 26.3242ZM47.378-14.0391C49.4727-14.0391 50.8057-15.4102 50.8057-17.5811L50.8057-34.1866L63.4883-34.1866C73.8096-34.1866 81.1602-41.461 81.1602-51.8965C81.1602-62.294 73.8858-69.5303 63.5645-69.5303L47.378-69.5303C45.2832-69.5303 43.9502-68.1592 43.9502-65.9883L43.9502-17.5811C43.9502-15.4102 45.2832-14.0391 47.378-14.0391ZM61.7744-40.2803L50.8057-40.2803L50.8057-63.4366L61.7744-63.4366C69.6582-63.4366 74.1143-59.1709 74.1143-51.8965C74.1143-44.584 69.6201-40.2803 61.7744-40.2803ZM112.048-13.6582C126.711-13.6582 135.356-22.4561 135.356-37.3096L135.356-38.9854C135.356-41.1563 134.023-42.5274 131.929-42.5274L115.704-42.5274C113.8-42.5274 112.429-41.3086 112.429-39.5186C112.429-37.7286 113.8-36.5098 115.704-36.5098L128.501-36.5098L128.501-35.5196C128.501-26.3028 121.798-19.9805 112.048-19.9805C100.851-19.9805 93.919-28.5498 93.919-42.375C93.919-55.9717 100.736-64.1221 112.048-64.1221C118.98-64.1221 124.312-60.7705 127.13-54.4102C128.006-52.3916 129.034-51.5537 130.71-51.5537C132.614-51.5537 133.833-52.8106 133.833-54.6768C133.833-55.5147 133.757-56.3907 133.3-57.5713C130.329-65.2647 122.103-70.4444 112.048-70.4444C96.6612-70.4444 86.8731-59.5137 86.8731-42.3369C86.8731-24.8555 96.6992-13.6582 112.048-13.6582Z"/>
  </g>
  <g id="Thin-L" transform="matrix(1 0 0 1 770.333 1556)">
   <path d="M25.0547 7.7207L147.174 7.7207C151.243 7.7207 154.311 6.68717 156.378 4.62012C158.445 2.55306 159.479-0.53125 159.479-4.63281L159.479-77.875C159.479-81.944 158.445-85.012 156.378-87.0791C154.311-89.1462 151.243-90.1797 147.174-90.1797L25.0547-90.1797C20.9531-90.1797 17.8688-89.1462 15.8017-87.0791C13.7347-85.012 12.7012-81.944 12.7012-77.875L12.7012-4.63281C12.7012-0.53125 13.7347 2.55306 15.8017 4.62012C17.8688 6.68717 20.9531 7.7207 25.0547 7.7207ZM25.2988 3.81445C22.4017 3.81445 20.237 3.10644 18.8047 1.69043C17.3724 0.274414 16.6562-1.88216 16.6562-4.7793L16.6562-77.6797C16.6562-80.5443 17.3724-82.6846 18.8047-84.1006C20.237-85.5166 22.4017-86.2246 25.2988-86.2246L146.93-86.2246C149.794-86.2246 151.943-85.5166 153.375-84.1006C154.807-82.6846 155.524-80.5443 155.524-77.6797L155.524-4.7793C155.524-1.88216 154.807 0.274414 153.375 1.69043C151.943 3.10644 149.794 3.81445 146.93 3.81445L25.2988 3.81445ZM56.2558 23.4434L115.973 23.4434C116.559 23.4434 117.047 23.2562 117.438 22.8818C117.828 22.5075 118.024 22.0273 118.024 21.4414C118.024 20.8555 117.828 20.3835 117.438 20.0254C117.047 19.6673 116.559 19.4883 115.973 19.4883L56.2558 19.4883C55.6373 19.4883 55.1328 19.6673 54.7422 20.0254C54.3515 20.3835 54.1562 20.8555 54.1562 21.4414C54.1562 22.0273 54.3515 22.5075 54.7422 22.8818C55.1328 23.2562 55.6373 23.4434 56.2558 23.4434ZM44.7017-13.6465C46.3013-13.6465 47.2915-14.6748 47.2915-16.3506L47.2915-34.8985L60.774-34.8985C71.2476-34.8985 78.4458-41.8301 78.4458-52.0371C78.4458-62.2442 71.3238-69.1377 60.812-69.1377L44.7017-69.1377C43.1021-69.1377 42.1118-68.1094 42.1118-66.4336L42.1118-16.3506C42.1118-14.6748 43.1021-13.6465 44.7017-13.6465ZM59.5933-39.5449L47.2915-39.5449L47.2915-64.4912L59.5933-64.4912C68.0865-64.4912 73.1138-59.8447 73.1138-52.0371C73.1138-44.2295 68.0484-39.5449 59.5933-39.5449ZM108.381-13.3037C122.664-13.3037 131.195-21.9873 131.195-36.4981L131.195-39.0879C131.195-40.7637 130.205-41.792 128.605-41.792L110.933-41.792C109.448-41.792 108.419-40.8779 108.419-39.5068C108.419-38.1358 109.448-37.2217 110.933-37.2217L126.015-37.2217L126.015-35.2793C126.015-24.9199 119.007-18.1406 108.381-18.1406C96.6128-18.1406 89.0337-27.4717 89.0337-41.9824C89.0337-56.3027 96.4605-65.1768 108.381-65.1768C116.189-65.1768 122.283-61.1016 124.949-54.0176C125.558-52.4561 126.358-51.8086 127.653-51.8086C129.1-51.8086 130.014-52.7608 130.014-54.208C130.014-54.9317 129.9-55.6934 129.519-56.7217C126.625-64.6817 118.436-70.0137 108.381-70.0137C93.3755-70.0137 83.7017-59.0068 83.7017-41.9824C83.7017-24.6533 93.4898-13.3037 108.381-13.3037Z"/>
  </g>
  <g id="Ultralight-L" transform="matrix(1 0 0 1 474.819 1556)">
   <path d="M24.2246 7.52539L145.612 7.52539C149.42 7.52539 152.285 6.55697 154.205 4.62012C156.125 2.68327 157.086-0.189457 157.086-3.99805L157.086-77.4844C157.086-81.2604 156.125-84.1087 154.205-86.0293C152.285-87.9499 149.42-88.9102 145.612-88.9102L24.2246-88.9102C20.3835-88.9102 17.5026-87.9499 15.582-86.0293C13.6615-84.1087 12.7012-81.2604 12.7012-77.4844L12.7012-3.99805C12.7012-0.189457 13.6615 2.68327 15.582 4.62012C17.5026 6.55697 20.3835 7.52539 24.2246 7.52539ZM24.4687 4.9375C21.4088 4.9375 19.1058 4.1888 17.5596 2.69141C16.0133 1.19401 15.2402-1.08464 15.2402-4.14453L15.2402-77.2891C15.2402-80.349 16.0133-82.6276 17.5596-84.125C19.1058-85.6224 21.4088-86.3711 24.4687-86.3711L145.416-86.3711C148.476-86.3711 150.763-85.6224 152.277-84.125C153.79-82.6276 154.547-80.349 154.547-77.2891L154.547-4.14453C154.547-1.08464 153.79 1.19401 152.277 2.69141C150.763 4.1888 148.476 4.9375 145.416 4.9375L24.4687 4.9375ZM55.4258 21.9297L114.41 21.9297C114.8 21.9297 115.118 21.8158 115.363 21.5879C115.607 21.36 115.729 21.0345 115.729 20.6113C115.729 20.2532 115.607 19.9603 115.363 19.7324C115.118 19.5045 114.8 19.3906 114.41 19.3906L55.4258 19.3906C55.0351 19.3906 54.7096 19.5045 54.4492 19.7324C54.1888 19.9603 54.0586 20.2532 54.0586 20.6113C54.0586 21.0345 54.1888 21.36 54.4492 21.5879C54.7096 21.8158 55.0351 21.9297 55.4258 21.9297ZM44.6206-12.3389C45.5347-12.3389 46.1441-12.9483 46.1441-13.9385L46.1441-35.0762L60.6548-35.0762C71.357-35.0762 78.3267-41.5127 78.3267-51.4532C78.3267-61.3936 71.357-67.8682 60.6929-67.8682L44.6206-67.8682C43.7066-67.8682 43.1353-67.2588 43.1353-66.2686L43.1353-13.9385C43.1353-12.9483 43.7066-12.3389 44.6206-12.3389ZM60.1978-37.8184L46.1441-37.8184L46.1441-65.126L60.1978-65.126C69.4908-65.126 75.2798-59.9463 75.2798-51.4532C75.2798-42.9981 69.4527-37.8184 60.1978-37.8184ZM107.043-12.1104C120.831-12.1104 129.21-20.6416 129.21-34.6573L129.21-38.504C129.21-39.4942 128.638-40.1036 127.724-40.1036L108.11-40.1036C107.196-40.1036 106.625-39.5323 106.625-38.7325C106.625-37.9327 107.196-37.3614 108.11-37.3614L126.201-37.3614L126.201-34.2002C126.201-22.3555 118.85-14.9288 107.043-14.9288C94.5132-14.9288 86.0581-25.2881 86.0581-40.751C86.0581-55.9473 94.3228-65.8497 107.043-65.8497C115.956-65.8497 123.116-60.8223 125.515-52.7862C125.858-51.834 126.277-51.4151 127.077-51.4151C127.953-51.4151 128.41-51.9864 128.41-52.8243C128.41-53.3956 128.295-54.043 128.029-54.8428C125.172-63.1836 117.022-68.668 107.043-68.668C92.5708-68.668 82.9732-57.5469 82.9732-40.7129C82.9732-23.6504 92.7232-12.1104 107.043-12.1104Z"/>
  </g>
  <g id="Black-M" transform="matrix(1 0 0 1 2853.81 1126)">
   <path d="M30.3281 3.42383L128.863 3.42383C134.43 3.42383 138.759 1.87761 141.852-1.21484C144.944-4.30729 146.49-8.63671 146.49-14.2031L146.49-71.918C146.49-77.4844 144.944-81.8138 141.852-84.9062C138.759-87.9987 134.43-89.5449 128.863-89.5449L30.3281-89.5449C24.7617-89.5449 20.4323-87.9987 17.3398-84.9062C14.2474-81.8138 12.7012-77.4844 12.7012-71.918L12.7012-14.2031C12.7012-8.63671 14.2474-4.30729 17.3398-1.21484C20.4323 1.87761 24.7617 3.42383 30.3281 3.42383ZM32.7207-12.6406C31.4186-12.6406 30.4339-12.9417 29.7666-13.5439C29.0993-14.1462 28.7656-15.1634 28.7656-16.5957L28.7656-69.5254C28.7656-70.9577 29.0993-71.9749 29.7666-72.5771C30.4339-73.1794 31.4186-73.4805 32.7207-73.4805L126.422-73.4805C127.757-73.4805 128.749-73.1794 129.4-72.5771C130.051-71.9749 130.377-70.9577 130.377-69.5254L130.377-16.5957C130.377-15.1634 130.051-14.1462 129.4-13.5439C128.749-12.9417 127.757-12.6406 126.422-12.6406L32.7207-12.6406ZM52.6914 22.9062L106.451 22.9062C108.306 22.9062 109.877 22.2389 111.163 20.9043C112.449 19.5696 113.092 18.056 113.092 16.3633C113.092 14.638 112.449 13.1081 111.163 11.7734C109.877 10.4388 108.306 9.77148 106.451 9.77148L52.6914 9.77148C50.8685 9.77148 49.3141 10.4388 48.0283 11.7734C46.7425 13.1081 46.0996 14.638 46.0996 16.3633C46.0996 18.056 46.7425 19.5696 48.0283 20.9043C49.3141 22.2389 50.8685 22.9062 52.6914 22.9062ZM45.1133-19.9932C49.2002-19.9932 51.5313-22.415 51.5313-26.7139L51.5313-32.6777L57.7676-32.6777C67.9698-32.6777 74.9024-38.8838 74.9024-48.5107C74.9024-58.2285 68.3633-64.4346 58.6455-64.4346L45.1133-64.4346C41.0264-64.4346 38.6953-62.0127 38.6953-57.7139L38.6953-26.7139C38.6953-22.415 41.0264-19.9932 45.1133-19.9932ZM55.1338-42.1533L51.5313-42.1533L51.5313-54.7773L55.2246-54.7773C59.4024-54.7773 61.9453-52.6279 61.9453-48.4805C61.9453-44.3027 59.4024-42.1533 55.1338-42.1533ZM100.453-19.9932C113.471-19.9932 120.676-27.9854 120.676-38.3691C120.676-42.668 118.345-45.0898 114.258-45.0898L105.812-45.0898C102.905-45.0898 101.059-43.5762 101.059-40.8213C101.059-38.0664 102.936-36.5527 105.812-36.5527L108.324-36.5527L108.264-35.9473C107.9-32.4355 104.934-30.1045 100.756-30.1045C95.125-30.1045 91.4619-34.8574 91.4619-42.8193C91.4619-50.5996 94.6709-55.0801 100.12-55.0801C103.208-55.0801 105.297-53.9297 107.355-51.1748C108.93-49.0859 110.837-48.1172 113.35-48.1172C116.619-48.1172 118.859-50.3271 118.859-53.5361C118.859-54.626 118.617-55.6553 117.981-56.8359C115.408-61.4375 108.809-65.1914 100.06-65.1914C86.5879-65.1914 78.3838-56.957 78.3838-42.6377C78.3838-28.1367 86.5879-19.9932 100.453-19.9932Z"/>
  </g>
  <g id="Heavy-M" transform="matrix(1 0 0 1 2558.49 1126)">
   <path d="M29.1074 2.34961L127.301 2.34961C132.542 2.34961 136.586 0.917317 139.435-1.94727C142.283-4.81185 143.707-8.84829 143.707-14.0566L143.707-71.3809C143.707-76.5892 142.283-80.6257 139.435-83.4902C136.586-86.3548 132.542-87.7871 127.301-87.7871L29.1074-87.7871C23.8991-87.7871 19.8626-86.3548 16.998-83.4902C14.1335-80.6257 12.7012-76.5892 12.7012-71.3809L12.7012-14.0566C12.7012-8.84829 14.1335-4.81185 16.998-1.94727C19.8626 0.917317 23.8991 2.34961 29.1074 2.34961ZM31.0117-11.7617C29.612-11.7617 28.5622-12.0872 27.8623-12.7383C27.1624-13.3893 26.8125-14.4472 26.8125-15.9121L26.8125-69.5254C26.8125-70.9903 27.1624-72.0482 27.8623-72.6992C28.5622-73.3503 29.612-73.6758 31.0117-73.6758L125.396-73.6758C126.796-73.6758 127.838-73.3503 128.521-72.6992C129.205-72.0482 129.547-70.9903 129.547-69.5254L129.547-15.9121C129.547-14.4472 129.205-13.3893 128.521-12.7383C127.838-12.0872 126.796-11.7617 125.396-11.7617L31.0117-11.7617ZM51.8613 21.1484L104.547 21.1484C106.207 21.1484 107.623 20.5462 108.795 19.3418C109.967 18.1374 110.553 16.7702 110.553 15.2402C110.553 13.6452 109.967 12.2455 108.795 11.041C107.623 9.83659 106.207 9.23438 104.547 9.23438L51.8613 9.23438C50.2012 9.23438 48.7933 9.83659 47.6377 11.041C46.4821 12.2455 45.9043 13.6452 45.9043 15.2402C45.9043 16.7702 46.4821 18.1374 47.6377 19.3418C48.7933 20.5462 50.2012 21.1484 51.8613 21.1484ZM44.416-20.084C47.9278-20.084 49.9561-22.1729 49.9561-25.8662L49.9561-33.5557L57.1006-33.5557C66.8184-33.5557 73.5088-39.6406 73.5088-48.9648C73.5088-58.3496 67.1514-64.4346 57.7666-64.4346L44.416-64.4346C40.9043-64.4346 38.8457-62.3154 38.8457-58.6221L38.8457-25.8662C38.8457-22.1729 40.9043-20.084 44.416-20.084ZM54.7696-41.9111L49.9561-41.9111L49.9561-55.9277L54.8301-55.9277C59.4922-55.9277 62.2774-53.4756 62.2774-48.9346C62.2774-44.3633 59.4922-41.9111 54.7696-41.9111ZM98.8174-19.9932C111.532-19.9932 118.647-27.7432 118.647-38.4902L118.647-38.793C118.647-42.4863 116.618-44.5752 113.106-44.5752L103.601-44.5752C101.027-44.5752 99.3623-43.2129 99.3623-40.7607C99.3623-38.3086 101.058-36.9463 103.601-36.9463L107.93-36.9463L107.899-36.2803C107.597-31.8906 104.085-28.9238 99.0596-28.9238C92.6719-28.9238 88.5547-34.1611 88.5547-42.8193C88.5547-51.3262 92.2783-56.2607 98.5752-56.2607C102.238-56.2607 104.842-54.7773 106.931-51.4775C108.293-49.4795 109.958-48.6016 112.198-48.6016C115.044-48.6016 116.981-50.5088 116.981-53.3242C116.981-54.3232 116.77-55.2617 116.194-56.3818C113.682-61.3467 107.112-65.1914 98.545-65.1914C85.3457-65.1914 77.2325-56.8359 77.2325-42.668C77.2325-28.3184 85.3457-19.9932 98.8174-19.9932Z"/>
  </g>
  <g id="Bold-M" transform="matrix(1 0 0 1 2263.31 1126)">
   <path d="M27.7891 1.17773L125.543 1.17773C130.393 1.17773 134.12-0.124351 136.725-2.72852C139.329-5.33269 140.631-9.05991 140.631-13.9102L140.631-70.7461C140.631-75.5964 139.329-79.3236 136.725-81.9277C134.12-84.5319 130.393-85.834 125.543-85.834L27.7891-85.834C22.9388-85.834 19.2116-84.5319 16.6074-81.9277C14.0033-79.3236 12.7012-75.5964 12.7012-70.7461L12.7012-13.9102C12.7012-9.05991 14.0033-5.33269 16.6074-2.72852C19.2116-0.124351 22.9388 1.17773 27.7891 1.17773ZM29.0586-10.7852C27.6263-10.7852 26.5358-11.1351 25.7871-11.835C25.0384-12.5349 24.6641-13.6498 24.6641-15.1797L24.6641-69.4766C24.6641-71.0065 25.0384-72.1214 25.7871-72.8213C26.5358-73.5212 27.6263-73.8711 29.0586-73.8711L124.273-73.8711C125.738-73.8711 126.837-73.5212 127.569-72.8213C128.302-72.1214 128.668-71.0065 128.668-69.4766L128.668-15.1797C128.668-13.6498 128.302-12.5349 127.569-11.835C126.837-11.1351 125.738-10.7852 124.273-10.7852L29.0586-10.7852ZM50.9336 19.1953L102.398 19.1953C103.863 19.1953 105.109 18.6745 106.134 17.6328C107.159 16.5911 107.672 15.3704 107.672 13.9707C107.672 12.571 107.159 11.3421 106.134 10.2842C105.109 9.22625 103.863 8.69727 102.398 8.69727L50.9336 8.69727C49.5013 8.69727 48.2644 9.22625 47.2227 10.2842C46.181 11.3421 45.6602 12.571 45.6602 13.9707C45.6602 15.3704 46.181 16.5911 47.2227 17.6328C48.2644 18.6745 49.5013 19.1953 50.9336 19.1953ZM42.7188-20.1748C45.5948-20.1748 47.2901-21.9307 47.2901-24.9277L47.2901-34.5244L55.4639-34.5244C64.667-34.5244 71.0547-40.5186 71.0547-49.4795C71.0547-58.4707 64.8789-64.4346 55.918-64.4346L42.7188-64.4346C39.8428-64.4346 38.1475-62.6787 38.1475-59.6816L38.1475-24.9277C38.1475-21.9307 39.8428-20.1748 42.7188-20.1748ZM53.4658-41.6689L47.2901-41.6689L47.2901-57.1992L53.4961-57.1992C58.7334-57.1992 61.7608-54.4141 61.7608-49.4492C61.7608-44.4541 58.7032-41.6689 53.4658-41.6689ZM96.1211-20.0234C108.442-20.0234 115.496-27.501 115.496-38.6113L115.496-39.2773C115.496-42.2744 113.801-44.0303 110.925-44.0303L100.238-44.0303C98.0283-44.0303 96.5752-42.7891 96.5752-40.7002C96.5752-38.6113 98.0586-37.3701 100.238-37.3701L106.596-37.3701L106.565-36.6738C106.384-31.2549 102.236-27.5918 96.2725-27.5918C89.0069-27.5918 84.4053-33.374 84.4053-42.8496C84.4053-52.1436 88.7344-57.623 95.9395-57.623C100.238-57.623 103.417-55.7158 105.566-51.8105C106.687-49.9639 108.049-49.1465 109.986-49.1465C112.378-49.1465 113.982-50.751 113.982-53.082C113.982-53.96 113.831-54.8379 113.316-55.8975C110.864-61.2559 104.295-65.1914 95.9092-65.1914C83.0733-65.1914 75.0811-56.7148 75.0811-42.7285C75.0811-28.5303 83.0733-20.0234 96.1211-20.0234Z"/>
  </g>
  <g id="Semibold-M" transform="matrix(1 0 0 1 1967.68 1126)">
   <path d="M26.8613 0.347656L124.322 0.347656C128.912 0.347656 132.42-0.864909 134.845-3.29004C137.27-5.71517 138.482-9.22265 138.482-13.8125L138.482-70.3066C138.482-74.8965 137.27-78.404 134.845-80.8291C132.42-83.2542 128.912-84.4668 124.322-84.4668L26.8613-84.4668C22.2715-84.4668 18.764-83.2542 16.3389-80.8291C13.9138-78.404 12.7012-74.8965 12.7012-70.3066L12.7012-13.8125C12.7012-9.22265 13.9138-5.71517 16.3389-3.29004C18.764-0.864909 22.2715 0.347656 26.8613 0.347656ZM27.7402-10.1016C26.2428-10.1016 25.1035-10.4678 24.3223-11.2002C23.541-11.9326 23.1504-13.0801 23.1504-14.6426L23.1504-69.4766C23.1504-71.0065 23.541-72.1377 24.3223-72.8701C25.1035-73.6026 26.2428-73.9688 27.7402-73.9688L123.443-73.9688C124.973-73.9688 126.121-73.6026 126.886-72.8701C127.651-72.1377 128.033-71.0065 128.033-69.4766L128.033-14.6426C128.033-13.0801 127.651-11.9326 126.886-11.2002C126.121-10.4678 124.973-10.1016 123.443-10.1016L27.7402-10.1016ZM50.2988 17.8281L100.885 17.8281C102.22 17.8281 103.359 17.3561 104.303 16.4121C105.247 15.4681 105.719 14.3451 105.719 13.043C105.719 11.7735 105.247 10.6585 104.303 9.69824C103.359 8.73795 102.22 8.25781 100.885 8.25781L50.2988 8.25781C48.9967 8.25781 47.8737 8.73795 46.9297 9.69824C45.9857 10.6585 45.5137 11.7735 45.5137 13.043C45.5137 14.3451 45.9857 15.4681 46.9297 16.4121C47.8737 17.3561 48.9967 17.8281 50.2988 17.8281ZM41.961-19.9522C44.4131-19.9522 45.8662-21.4356 45.8662-24.0088L45.8662-34.9072L54.7061-34.9072C63.5459-34.9072 69.752-40.8106 69.752-49.5293C69.752-58.2481 63.7276-64.1514 55.0391-64.1514L41.961-64.1514C39.5391-64.1514 38.0557-62.6377 38.0557-60.0947L38.0557-24.0088C38.0557-21.4356 39.5391-19.9522 41.961-19.9522ZM52.9502-41.2041L45.8662-41.2041L45.8662-57.7637L52.9805-57.7637C58.5811-57.7637 61.8203-54.7666 61.8203-49.5293C61.8203-44.2314 58.5508-41.2041 52.9502-41.2041ZM94.6367-19.7402C106.716-19.7402 113.679-27.0361 113.679-38.3887L113.679-39.2969C113.679-41.8398 112.226-43.3535 109.804-43.3535L98.2998-43.3535C96.3623-43.3535 95.0303-42.2334 95.0303-40.3867C95.0303-38.54 96.3623-37.3897 98.2998-37.3897L106.05-37.3897L106.02-36.6631C105.898-30.5479 101.327-26.3701 94.7276-26.3701C86.8565-26.3701 81.9522-32.5156 81.9522-42.5664C81.9522-52.4053 86.6446-58.2481 94.5157-58.2481C99.2686-58.2481 102.811-56.0684 104.99-51.7393C105.959-49.9834 107.14-49.2266 108.835-49.2266C110.924-49.2266 112.286-50.5889 112.286-52.6475C112.286-53.4346 112.165-54.2217 111.711-55.251C109.289-60.8818 102.72-64.8779 94.4854-64.8779C81.8614-64.8779 73.96-56.3408 73.96-42.4756C73.96-28.3984 81.8916-19.7402 94.6367-19.7402Z"/>
  </g>
  <g id="Medium-M" transform="matrix(1 0 0 1 1671.77 1126)">
   <path d="M26.1777-0.238281L123.395-0.238281C127.789-0.238281 131.134-1.38574 133.429-3.68066C135.724-5.97559 136.871-9.3203 136.871-13.7148L136.871-70.0137C136.871-74.3756 135.724-77.7041 133.429-79.999C131.134-82.2939 127.789-83.4414 123.395-83.4414L26.1777-83.4414C21.7832-83.4414 18.4385-82.2939 16.1436-79.999C13.8487-77.7041 12.7012-74.3756 12.7012-70.0137L12.7012-13.7148C12.7012-9.3203 13.8487-5.97559 16.1436-3.68066C18.4385-1.38574 21.7832-0.238281 26.1777-0.238281ZM26.7148-9.61328C25.1849-9.61328 24.0211-9.99575 23.2236-10.7607C22.4261-11.5257 22.0273-12.6895 22.0273-14.252L22.0273-69.4277C22.0273-70.9902 22.4261-72.154 23.2236-72.9189C24.0211-73.6839 25.1849-74.0664 26.7148-74.0664L122.857-74.0664C124.42-74.0664 125.592-73.6839 126.373-72.9189C127.154-72.154 127.545-70.9902 127.545-69.4277L127.545-14.252C127.545-12.6895 127.154-11.5257 126.373-10.7607C125.592-9.99575 124.42-9.61328 122.857-9.61328L26.7148-9.61328ZM49.8105 16.8027L99.7617 16.8027C100.966 16.8027 102.008 16.3714 102.887 15.5088C103.766 14.6461 104.205 13.6126 104.205 12.4082C104.205 11.2038 103.766 10.1621 102.887 9.2832C102.008 8.40429 100.966 7.96484 99.7617 7.96484L49.8105 7.96484C48.6061 7.96484 47.5644 8.40429 46.6855 9.2832C45.8066 10.1621 45.3672 11.2038 45.3672 12.4082C45.3672 13.6126 45.8066 14.6461 46.6855 15.5088C47.5644 16.3714 48.6061 16.8027 49.8105 16.8027ZM42.1426-18.957C44.2315-18.957 45.5332-20.2891 45.5332-22.4687L45.5332-34.3662L54.918-34.3662C63.4854-34.3662 69.5098-40.2393 69.5098-48.7764C69.5098-57.2832 63.6065-63.126 55.1299-63.126L42.1426-63.126C40.0235-63.126 38.752-61.7939 38.752-59.6143L38.752-22.4687C38.752-20.2891 40.0235-18.957 42.1426-18.957ZM53.3135-40.0576L45.5332-40.0576L45.5332-57.4043L53.3438-57.4043C59.2168-57.4043 62.5772-54.2559 62.5772-48.7461C62.5772-43.2363 59.2168-40.0576 53.3135-40.0576ZM94.2432-18.7148C106.141-18.7148 113.073-25.8896 113.073-37.4238L113.073-38.5137C113.073-40.7236 111.772-42.0557 109.683-42.0557L97.5733-42.0557C95.8174-42.0557 94.6065-40.9658 94.6065-39.3008C94.6065-37.666 95.8174-36.5762 97.5733-36.5762L106.383-36.5762L106.383-35.8193C106.292-29.1894 101.388-24.6484 94.3037-24.6484C85.9785-24.6484 80.8018-31.0967 80.8018-41.541C80.8018-51.8037 85.8272-57.9189 94.1826-57.9189C99.2383-57.9189 103.113-55.5273 105.323-50.8955C106.171-49.2002 107.17-48.4736 108.714-48.4736C110.561-48.4736 111.741-49.6846 111.741-51.4707C111.741-52.2275 111.65-52.9844 111.257-53.9531C108.835-59.7959 102.296-63.8525 94.1524-63.8525C81.71-63.8525 73.8692-55.2549 73.8692-41.4805C73.8692-27.4639 81.7403-18.7148 94.2432-18.7148Z"/>
  </g>
  <g id="Regular-M" transform="matrix(1 0 0 1 1376.11 1126)">
   <path d="M25.25-1.06836L122.223-1.06836C126.357-1.06836 129.482-2.1263 131.598-4.24219C133.713-6.35808 134.771-9.48308 134.771-13.6172L134.771-69.5742C134.771-73.6758 133.713-76.7845 131.598-78.9004C129.482-81.0163 126.357-82.0742 122.223-82.0742L25.25-82.0742C21.1159-82.0742 17.9909-81.0163 15.875-78.9004C13.7591-76.7845 12.7012-73.6758 12.7012-69.5742L12.7012-13.6172C12.7012-9.48308 13.7591-6.35808 15.875-4.24219C17.9909-2.1263 21.1159-1.06836 25.25-1.06836ZM25.3965-8.92969C23.8014-8.92969 22.597-9.32846 21.7832-10.126C20.9694-10.9235 20.5625-12.1198 20.5625-13.7148L20.5625-69.4277C20.5625-71.0228 20.9694-72.2191 21.7832-73.0166C22.597-73.8141 23.8014-74.2129 25.3965-74.2129L122.076-74.2129C123.704-74.2129 124.917-73.8141 125.714-73.0166C126.511-72.2191 126.91-71.0228 126.91-69.4277L126.91-13.7148C126.91-12.1198 126.511-10.9235 125.714-10.126C124.917-9.32846 123.704-8.92969 122.076-8.92969L25.3965-8.92969ZM49.1758 15.4844L98.2969 15.4844C99.3711 15.4844 100.299 15.1019 101.08 14.3369C101.861 13.572 102.252 12.6361 102.252 11.5293C102.252 10.4551 101.861 9.52734 101.08 8.74609C100.299 7.96484 99.3711 7.57422 98.2969 7.57422L49.1758 7.57422C48.1016 7.57422 47.1739 7.96484 46.3926 8.74609C45.6113 9.52734 45.2207 10.4551 45.2207 11.5293C45.2207 12.6361 45.6113 13.572 46.3926 14.3369C47.1739 15.1019 48.1016 15.4844 49.1758 15.4844ZM41.1426-18.5898C43.2315-18.5898 44.5332-19.9219 44.5332-22.1015L44.5332-33.999L53.918-33.999C62.4854-33.999 68.5098-39.8721 68.5098-48.4092C68.5098-56.916 62.6065-62.7588 54.1299-62.7588L41.1426-62.7588C39.0235-62.7588 37.752-61.4267 37.752-59.2471L37.752-22.1015C37.752-19.9219 39.0235-18.5898 41.1426-18.5898ZM52.3135-39.6904L44.5332-39.6904L44.5332-57.0371L52.3438-57.0371C58.2168-57.0371 61.5772-53.8887 61.5772-48.3789C61.5772-42.8691 58.2168-39.6904 52.3135-39.6904ZM93.2432-18.3476C105.141-18.3476 112.073-25.5224 112.073-37.0566L112.073-38.1465C112.073-40.3564 110.772-41.6885 108.683-41.6885L96.5733-41.6885C94.8174-41.6885 93.6065-40.5986 93.6065-38.9336C93.6065-37.2988 94.8174-36.209 96.5733-36.209L105.383-36.209L105.383-35.4521C105.292-28.8222 100.388-24.2812 93.3037-24.2812C84.9785-24.2812 79.8018-30.7295 79.8018-41.1738C79.8018-51.4365 84.8272-57.5517 93.1826-57.5517C98.2383-57.5517 102.113-55.1601 104.323-50.5283C105.171-48.833 106.17-48.1064 107.714-48.1064C109.561-48.1064 110.741-49.3174 110.741-51.1035C110.741-51.8603 110.65-52.6172 110.257-53.5859C107.835-59.4287 101.296-63.4853 93.1524-63.4853C80.71-63.4853 72.8692-54.8877 72.8692-41.1133C72.8692-27.0967 80.7403-18.3476 93.2432-18.3476Z"/>
  </g>
  <g id="Light-M" transform="matrix(1 0 0 1 1080.96 1126)">
   <path d="M24.127-1.36133L120.221-1.36133C123.964-1.36133 126.804-2.32162 128.741-4.24219C130.678-6.16276 131.646-9.01107 131.646-12.7871L131.646-69.0371C131.646-72.7806 130.678-75.6207 128.741-77.5576C126.804-79.4945 123.964-80.4629 120.221-80.4629L24.127-80.4629C20.3509-80.4629 17.5026-79.4945 15.582-77.5576C13.6615-75.6207 12.7012-72.7806 12.7012-69.0371L12.7012-12.7871C12.7012-9.01107 13.6615-6.16276 15.582-4.24219C17.5026-2.32162 20.3509-1.36133 24.127-1.36133ZM24.2734-7.41602C22.4505-7.41602 21.0752-7.87175 20.1475-8.7832C19.2198-9.69467 18.7559-11.0619 18.7559-12.8848L18.7559-68.8906C18.7559-70.7461 19.2198-72.1295 20.1475-73.041C21.0752-73.9525 22.4505-74.4082 24.2734-74.4082L120.025-74.4082C121.913-74.4082 123.313-73.9525 124.225-73.041C125.136-72.1295 125.592-70.7461 125.592-68.8906L125.592-12.8848C125.592-11.0619 125.136-9.69467 124.225-8.7832C123.313-7.87175 121.913-7.41602 120.025-7.41602L24.2734-7.41602ZM48.1504 13.5312L96.1973 13.5312C97.0111 13.5312 97.7272 13.2382 98.3457 12.6523C98.9642 12.0664 99.2734 11.334 99.2734 10.4551C99.2734 9.64129 98.9642 8.93327 98.3457 8.33105C97.7272 7.72884 97.0111 7.42773 96.1973 7.42773L48.1504 7.42773C47.3041 7.42773 46.5798 7.72884 45.9775 8.33105C45.3753 8.93327 45.0742 9.64129 45.0742 10.4551C45.0742 11.334 45.3753 12.0664 45.9775 12.6523C46.5798 13.2382 47.3041 13.5312 48.1504 13.5312ZM39.3545-18.0391C41.0196-18.0391 42.0791-19.1289 42.0791-20.8545L42.0791-34.0537L52.1602-34.0537C60.3643-34.0537 66.2071-39.8359 66.2071-48.1309C66.2071-56.3955 60.4248-62.1475 52.2207-62.1475L39.3545-62.1475C37.6895-62.1475 36.6299-61.0576 36.6299-59.332L36.6299-20.8545C36.6299-19.1289 37.6895-18.0391 39.3545-18.0391ZM50.7979-38.8975L42.0791-38.8975L42.0791-57.3037L50.7979-57.3037C57.0645-57.3037 60.6065-53.9131 60.6065-48.1309C60.6065-42.3184 57.0342-38.8975 50.7979-38.8975ZM90.7588-17.7363C102.414-17.7363 109.286-24.7295 109.286-36.5361L109.286-37.8682C109.286-39.5938 108.227-40.6836 106.562-40.6836L93.6651-40.6836C92.1514-40.6836 91.0616-39.7149 91.0616-38.292C91.0616-36.8691 92.1514-35.9004 93.6651-35.9004L103.837-35.9004L103.837-35.1133C103.837-27.7871 98.5088-22.7617 90.7588-22.7617C81.8584-22.7617 76.3487-29.5733 76.3487-40.5625C76.3487-51.3701 81.7676-57.8486 90.7588-57.8486C96.2686-57.8486 100.507-55.1846 102.747-50.1289C103.443-48.5244 104.261-47.8584 105.593-47.8584C107.106-47.8584 108.075-48.8574 108.075-50.3408C108.075-51.0068 108.015-51.7031 107.651-52.6416C105.29-58.7568 98.751-62.874 90.7588-62.874C78.5283-62.874 70.7481-54.1856 70.7481-40.5322C70.7481-26.6367 78.5586-17.7363 90.7588-17.7363Z"/>
  </g>
  <g id="Thin-M" transform="matrix(1 0 0 1 786.349 1126)">
   <path d="M22.6133-1.75195L117.535-1.75195C120.823-1.75195 123.297-2.59017 124.957-4.2666C126.617-5.94303 127.447-8.42513 127.447-11.7129L127.447-68.4023C127.447-71.6576 126.617-74.1153 124.957-75.7754C123.297-77.4355 120.823-78.2656 117.535-78.2656L22.6133-78.2656C19.3581-78.2656 16.8923-77.4355 15.2158-75.7754C13.5394-74.1153 12.7012-71.6576 12.7012-68.4023L12.7012-11.7129C12.7012-8.42513 13.5394-5.94303 15.2158-4.2666C16.8923-2.59017 19.3581-1.75195 22.6133-1.75195ZM22.8086-5.41406C20.6276-5.41406 19.0081-5.95117 17.9502-7.02539C16.8923-8.09961 16.3633-9.69465 16.3633-11.8105L16.3633-68.2559C16.3633-70.4043 16.8923-72.0075 17.9502-73.0654C19.0081-74.1233 20.6276-74.6523 22.8086-74.6523L117.389-74.6523C119.537-74.6523 121.148-74.1233 122.223-73.0654C123.297-72.0075 123.834-70.4043 123.834-68.2559L123.834-11.8105C123.834-9.69465 123.297-8.09961 122.223-7.02539C121.148-5.95117 119.537-5.41406 117.389-5.41406L22.8086-5.41406ZM46.7344 10.8945L93.4141 10.8945C93.9349 10.8945 94.3743 10.7236 94.7324 10.3818C95.0905 10.04 95.2695 9.60872 95.2695 9.08789C95.2695 8.56706 95.0905 8.13574 94.7324 7.79395C94.3743 7.45215 93.9349 7.28125 93.4141 7.28125L46.7344 7.28125C46.2461 7.28125 45.8148 7.45215 45.4404 7.79395C45.0661 8.13574 44.8789 8.56706 44.8789 9.08789C44.8789 9.60872 45.0661 10.04 45.4404 10.3818C45.8148 10.7236 46.2461 10.8945 46.7344 10.8945ZM37.6118-17.8418C38.8833-17.8418 39.6704-18.6592 39.6704-19.9912L39.6704-34.7343L50.3872-34.7343C58.7124-34.7343 64.4341-40.2441 64.4341-48.3574C64.4341-56.4707 58.773-61.9502 50.4175-61.9502L37.6118-61.9502C36.3404-61.9502 35.5533-61.1328 35.5533-59.8008L35.5533-19.9912C35.5533-18.6592 36.3404-17.8418 37.6118-17.8418ZM49.4488-38.4277L39.6704-38.4277L39.6704-58.2568L49.4488-58.2568C56.1997-58.2568 60.1958-54.5635 60.1958-48.3574C60.1958-42.1513 56.1695-38.4277 49.4488-38.4277ZM88.229-17.5693C99.5816-17.5693 106.363-24.4717 106.363-36.0058L106.363-38.0644C106.363-39.3965 105.576-40.2138 104.304-40.2138L90.2574-40.2138C89.0767-40.2138 88.2593-39.4873 88.2593-38.3974C88.2593-37.3076 89.0767-36.581 90.2574-36.581L102.246-36.581L102.246-35.0371C102.246-26.8027 96.6753-21.414 88.229-21.414C78.8745-21.414 72.8501-28.831 72.8501-40.3652C72.8501-51.748 78.7534-58.8017 88.229-58.8017C94.4351-58.8017 99.2788-55.5625 101.398-49.9316C101.882-48.6904 102.518-48.1758 103.547-48.1758C104.698-48.1758 105.424-48.9326 105.424-50.083C105.424-50.6582 105.334-51.2636 105.031-52.081C102.73-58.4082 96.2212-62.6465 88.229-62.6465C76.3013-62.6465 68.6118-53.8974 68.6118-40.3652C68.6118-26.5908 76.3921-17.5693 88.229-17.5693Z"/>
  </g>
  <g id="Ultralight-M" transform="matrix(1 0 0 1 490.688 1126)">
   <path d="M21.832-1.99609L116.168-1.99609C119.195-1.99609 121.482-2.76107 123.028-4.29102C124.575-5.82097 125.348-8.11589 125.348-11.1758L125.348-68.0117C125.348-71.039 124.575-73.3258 123.028-74.8721C121.482-76.4183 119.195-77.1914 116.168-77.1914L21.832-77.1914C18.8372-77.1914 16.5667-76.4183 15.0205-74.8721C13.4743-73.3258 12.7012-71.039 12.7012-68.0117L12.7012-11.1758C12.7012-8.11589 13.4743-5.82097 15.0205-4.29102C16.5667-2.76107 18.8372-1.99609 21.832-1.99609ZM22.0273-4.38867C19.7161-4.38867 17.9827-4.95833 16.8271-6.09766C15.6716-7.23698 15.0938-8.96223 15.0938-11.2734L15.0938-67.8652C15.0938-70.209 15.6716-71.9505 16.8271-73.0898C17.9827-74.2291 19.7161-74.7988 22.0273-74.7988L115.973-74.7988C118.316-74.7988 120.066-74.2291 121.222-73.0898C122.377-71.9505 122.955-70.209 122.955-67.8652L122.955-11.2734C122.955-8.96223 122.377-7.23698 121.222-6.09766C120.066-4.95833 118.316-4.38867 115.973-4.38867L22.0273-4.38867ZM46.0508 9.57617L91.998 9.57617C92.3235 9.57617 92.6165 9.47038 92.877 9.25879C93.1374 9.0472 93.2676 8.7461 93.2676 8.35547C93.2676 7.9974 93.1374 7.71257 92.877 7.50098C92.6165 7.28939 92.3235 7.18359 91.998 7.18359L46.0508 7.18359C45.6927 7.18359 45.3916 7.28939 45.1475 7.50098C44.9033 7.71257 44.7812 7.9974 44.7812 8.35547C44.7812 8.7461 44.9033 9.0472 45.1475 9.25879C45.3916 9.47038 45.6927 9.57617 46.0508 9.57617ZM36.9449-16.7373C37.6714-16.7373 38.1558-17.2217 38.1558-18.0088L38.1558-34.8105L49.69-34.8105C58.1968-34.8105 63.7368-39.9268 63.7368-47.8281C63.7368-55.7295 58.1968-60.876 49.7202-60.876L36.9449-60.876C36.2183-60.876 35.7642-60.3916 35.7642-59.6045L35.7642-18.0088C35.7642-17.2217 36.2183-16.7373 36.9449-16.7373ZM49.3267-36.9902L38.1558-36.9902L38.1558-58.6963L49.3267-58.6963C56.7134-58.6963 61.315-54.5791 61.315-47.8281C61.315-41.1074 56.6831-36.9902 49.3267-36.9902ZM86.563-16.5557C97.522-16.5557 104.182-23.3369 104.182-34.4775L104.182-37.5351C104.182-38.3223 103.728-38.8066 103.001-38.8066L87.4107-38.8066C86.6841-38.8066 86.23-38.3525 86.23-37.7168C86.23-37.081 86.6841-36.6269 87.4107-36.6269L101.791-36.6269L101.791-34.1143C101.791-24.6992 95.9478-18.7959 86.563-18.7959C76.6031-18.7959 69.8824-27.0303 69.8824-39.3213C69.8824-51.4004 76.4517-59.2715 86.563-59.2715C93.647-59.2715 99.3384-55.2754 101.246-48.8877C101.518-48.1309 101.851-47.7978 102.487-47.7978C103.183-47.7978 103.546-48.2519 103.546-48.918C103.546-49.3721 103.456-49.8867 103.244-50.5225C100.973-57.1523 94.4947-61.5117 86.563-61.5117C75.0591-61.5117 67.4302-52.6719 67.4302-39.291C67.4302-25.7285 75.1802-16.5557 86.563-16.5557Z"/>
  </g>
  <g id="Black-S" transform="matrix(1 0 0 1 2867.97 696)">
   <path d="M26.8126-4.58398L104.059-4.58398C108.518-4.58398 111.985-5.8291 114.459-8.31934C116.933-10.8096 118.17-14.2682 118.17-18.6953L118.17-64.0566C118.17-68.5163 116.933-71.9831 114.459-74.457C111.985-76.931 108.518-78.168 104.059-78.168L26.8126-78.168C22.3854-78.168 18.9268-76.931 16.4366-74.457C13.9463-71.9831 12.7012-68.5163 12.7012-64.0566L12.7012-18.6953C12.7012-14.2682 13.9463-10.8096 16.4366-8.31934C18.9268-5.8291 22.3854-4.58398 26.8126-4.58398ZM28.8633-17.6699C26.8125-17.6699 25.7872-18.6953 25.7872-20.7461L25.7872-62.0059C25.7872-64.0566 26.8125-65.082 28.8633-65.082L102.008-65.082C104.058-65.082 105.084-64.0566 105.084-62.0059L105.084-20.7461C105.084-18.6953 104.058-17.6699 102.008-17.6699L28.8633-17.6699ZM44.2442 10.7969L86.627 10.7969C88.1244 10.7969 89.3858 10.2598 90.4112 9.18555C91.4366 8.11133 91.9493 6.89063 91.9493 5.52344C91.9493 4.15625 91.4366 2.93555 90.4112 1.86133C89.3858 0.78711 88.1244 0.25 86.627 0.25L44.2442 0.25C42.7468 0.25 41.4854 0.78711 40.46 1.86133C39.4346 2.93555 38.9219 4.15625 38.9219 5.52344C38.9219 6.89063 39.4346 8.11133 40.46 9.18555C41.4854 10.2598 42.7468 10.7969 44.2442 10.7969ZM38.8106-23.5821C41.9746-23.5821 43.7793-25.4571 43.7793-28.7852L43.7793-33.4024L48.6075-33.4024C56.5059-33.4024 61.8731-38.2071 61.8731-45.6602C61.8731-53.1836 56.8106-57.9883 49.2871-57.9883L38.8106-57.9883C35.6465-57.9883 33.8418-56.1133 33.8418-52.7852L33.8418-28.7852C33.8418-25.4571 35.6465-23.5821 38.8106-23.5821ZM46.5684-40.7383L43.7793-40.7383L43.7793-50.5118L46.6387-50.5118C49.8731-50.5118 51.8418-48.8477 51.8418-45.6368C51.8418-42.4024 49.8731-40.7383 46.5684-40.7383ZM81.6543-23.5821C91.7325-23.5821 97.3106-29.7696 97.3106-37.8086C97.3106-41.1368 95.5059-43.0118 92.3418-43.0118L85.8028-43.0118C83.5528-43.0118 82.1231-41.8399 82.1231-39.7071C82.1231-37.5743 83.5762-36.4024 85.8028-36.4024L87.7481-36.4024L87.7012-35.9336C87.42-33.2149 85.1231-31.4102 81.8887-31.4102C77.5293-31.4102 74.6934-35.0899 74.6934-41.2539C74.6934-47.2774 77.1778-50.7461 81.3965-50.7461C83.7871-50.7461 85.4043-49.8555 86.9981-47.7227C88.2168-46.1055 89.6934-45.3555 91.6387-45.3555C94.17-45.3555 95.9043-47.0664 95.9043-49.5508C95.9043-50.3946 95.7168-51.1914 95.2246-52.1055C93.2325-55.668 88.1231-58.5743 81.3496-58.5743C70.92-58.5743 64.5684-52.1993 64.5684-41.1133C64.5684-29.8868 70.92-23.5821 81.6543-23.5821Z"/>
  </g>
  <g id="Heavy-S" transform="matrix(1 0 0 1 2572.23 696)">
   <path d="M25.9336-5.46289L102.985-5.46289C107.184-5.46289 110.439-6.61849 112.75-8.92969C115.061-11.2409 116.217-14.4961 116.217-18.6953L116.217-63.666C116.217-67.8652 115.061-71.1204 112.75-73.4316C110.439-75.7428 107.184-76.8984 102.985-76.8984L25.9336-76.8984C21.7344-76.8984 18.4792-75.7428 16.168-73.4316C13.8568-71.1204 12.7012-67.8652 12.7012-63.666L12.7012-18.6953C12.7012-14.4961 13.8568-11.2409 16.168-8.92969C18.4792-6.61849 21.7344-5.46289 25.9336-5.46289ZM27.4961-17.084C25.4127-17.084 24.3711-18.1419 24.3711-20.2578L24.3711-62.0547C24.3711-64.1706 25.4127-65.2285 27.4961-65.2285L101.373-65.2285C103.489-65.2285 104.547-64.1706 104.547-62.0547L104.547-20.2578C104.547-18.1419 103.489-17.084 101.373-17.084L27.4961-17.084ZM43.6583 9.57617L85.2598 9.57617C86.627 9.57617 87.7826 9.07975 88.7266 8.08691C89.6706 7.09408 90.1426 5.96289 90.1426 4.69336C90.1426 3.42383 89.6706 2.29264 88.7266 1.2998C87.7826 0.306965 86.627-0.189453 85.2598-0.189453L43.6583-0.189453C42.2911-0.189453 41.1355 0.306965 40.1915 1.2998C39.2474 2.29264 38.7754 3.42383 38.7754 4.69336C38.7754 5.96289 39.2474 7.09408 40.1915 8.08691C41.1355 9.07975 42.2911 9.57617 43.6583 9.57617ZM38.045-23.3828C40.7637-23.3828 42.334-25 42.334-27.8593L42.334-33.8125L47.8653-33.8125C55.3887-33.8125 60.5684-38.5234 60.5684-45.7422C60.5684-53.0078 55.6465-57.7187 48.3809-57.7187L38.045-57.7187C35.3262-57.7187 33.7325-56.0781 33.7325-53.2187L33.7325-27.8593C33.7325-25 35.3262-23.3828 38.045-23.3828ZM46.0606-40.2812L42.334-40.2812L42.334-51.1328L46.1075-51.1328C49.7168-51.1328 51.8731-49.2343 51.8731-45.7187C51.8731-42.1797 49.7168-40.2812 46.0606-40.2812ZM80.1621-23.3125C90.0059-23.3125 95.5137-29.3125 95.5137-37.6328L95.5137-37.8672C95.5137-40.7265 93.9434-42.3437 91.2246-42.3437L83.8653-42.3437C81.8731-42.3437 80.584-41.289 80.584-39.3906C80.584-37.4922 81.8965-36.4375 83.8653-36.4375L87.2168-36.4375L87.1934-35.9218C86.959-32.5234 84.2403-30.2265 80.3496-30.2265C75.4043-30.2265 72.2168-34.2812 72.2168-40.9843C72.2168-47.5703 75.0996-51.3906 79.9746-51.3906C82.8106-51.3906 84.8262-50.2422 86.4434-47.6875C87.4981-46.1406 88.7871-45.4609 90.5215-45.4609C92.7246-45.4609 94.2246-46.9375 94.2246-49.1172C94.2246-49.8906 94.0606-50.6172 93.6153-51.4843C91.67-55.3281 86.584-58.3047 79.9512-58.3047C69.7325-58.3047 63.4512-51.8359 63.4512-40.8672C63.4512-29.7578 69.7325-23.3125 80.1621-23.3125Z"/>
  </g>
  <g id="Bold-S" transform="matrix(1 0 0 1 2276.62 696)">
   <path d="M24.9571-6.43945L101.813-6.43945C105.719-6.43945 108.73-7.49739 110.846-9.61328C112.962-11.7292 114.02-14.7402 114.02-18.6465L114.02-63.1777C114.02-67.1165 112.962-70.1439 110.846-72.2598C108.73-74.3757 105.719-75.4336 101.813-75.4336L24.9571-75.4336C21.0508-75.4336 18.0316-74.3757 15.8995-72.2598C13.7673-70.1439 12.7012-67.1165 12.7012-63.1777L12.7012-18.6465C12.7012-14.7402 13.7673-11.7292 15.8995-9.61328C18.0316-7.49739 21.0508-6.43945 24.9571-6.43945ZM26.0313-16.498C23.8503-16.498 22.7598-17.5722 22.7598-19.7207L22.7598-62.1035C22.7598-64.2845 23.8503-65.375 26.0313-65.375L100.738-65.375C102.886-65.375 103.961-64.2845 103.961-62.1035L103.961-19.7207C103.961-17.5722 102.886-16.498 100.738-16.498L26.0313-16.498ZM43.0235 8.16016L83.6973 8.16016C84.9343 8.16016 85.9841 7.72071 86.8467 6.8418C87.7093 5.96289 88.1407 4.9375 88.1407 3.76562C88.1407 2.59375 87.7093 1.56022 86.8467 0.665039C85.9841-0.230143 84.9343-0.677734 83.6973-0.677734L43.0235-0.677734C41.7865-0.677734 40.7448-0.230143 39.8985 0.665039C39.0521 1.56022 38.629 2.59375 38.629 3.76562C38.629 4.9375 39.0521 5.96289 39.8985 6.8418C40.7448 7.72071 41.7865 8.16016 43.0235 8.16016ZM37.2793-23.9883C39.5059-23.9883 40.8184-25.3477 40.8184-27.668L40.8184-35.0977L47.1465-35.0977C54.2715-35.0977 59.2168-39.7383 59.2168-46.6758C59.2168-53.6367 54.4356-58.2539 47.4981-58.2539L37.2793-58.2539C35.0528-58.2539 33.7403-56.8945 33.7403-54.5742L33.7403-27.668C33.7403-25.3477 35.0528-23.9883 37.2793-23.9883ZM45.5996-40.6289L40.8184-40.6289L40.8184-52.6523L45.6231-52.6523C49.6778-52.6523 52.0215-50.4961 52.0215-46.6523C52.0215-42.7852 49.6543-40.6289 45.5996-40.6289ZM78.6231-23.8711C88.1621-23.8711 93.6231-29.6602 93.6231-38.2617L93.6231-38.7773C93.6231-41.0977 92.3106-42.457 90.084-42.457L81.8106-42.457C80.0996-42.457 78.9746-41.4961 78.9746-39.8789C78.9746-38.2617 80.1231-37.3008 81.8106-37.3008L86.7325-37.3008L86.709-36.7617C86.5684-32.5664 83.3575-29.7305 78.7403-29.7305C73.1153-29.7305 69.5528-34.207 69.5528-41.543C69.5528-48.7383 72.9043-52.9805 78.4825-52.9805C81.8106-52.9805 84.2715-51.5039 85.9356-48.4805C86.8028-47.0508 87.8575-46.418 89.3575-46.418C91.209-46.418 92.4512-47.6602 92.4512-49.4648C92.4512-50.1445 92.334-50.8242 91.9356-51.6445C90.0371-55.793 84.9512-58.8398 78.459-58.8398C68.5215-58.8398 62.334-52.2773 62.334-41.4492C62.334-30.457 68.5215-23.8711 78.6231-23.8711Z"/>
  </g>
  <g id="Semibold-S" transform="matrix(1 0 0 1 1980.66 696)">
   <path d="M24.2247-7.07422L100.982-7.07422C104.693-7.07422 107.542-8.06705 109.528-10.0527C111.513-12.0384 112.506-14.903 112.506-18.6465L112.506-62.8359C112.506-66.612 111.513-69.4928 109.528-71.4785C107.542-73.4642 104.693-74.457 100.982-74.457L24.2247-74.457C20.5137-74.457 17.6654-73.4642 15.6797-71.4785C13.694-69.4928 12.7012-66.612 12.7012-62.8359L12.7012-18.6465C12.7012-14.903 13.694-12.0384 15.6797-10.0527C17.6654-8.06705 20.5137-7.07422 24.2247-7.07422ZM24.9571-16.0586C22.7435-16.0586 21.6368-17.1491 21.6368-19.3301L21.6368-62.1523C21.6368-64.3659 22.7435-65.4727 24.9571-65.4727L100.25-65.4727C102.464-65.4727 103.571-64.3659 103.571-62.1523L103.571-19.3301C103.571-17.1491 102.464-16.0586 100.25-16.0586L24.9571-16.0586ZM42.584 7.18359L82.6231 7.18359C83.7624 7.18359 84.7308 6.77669 85.5284 5.96289C86.3259 5.14909 86.7247 4.20508 86.7247 3.13086C86.7247 1.99154 86.3259 1.02312 85.5284 0.225586C84.7308-0.571938 83.7624-0.9707 82.6231-0.9707L42.584-0.9707C41.4447-0.9707 40.4763-0.571938 39.6788 0.225586C38.8812 1.02312 38.4825 1.99154 38.4825 3.13086C38.4825 4.20508 38.8812 5.14909 39.6788 5.96289C40.4763 6.77669 41.4447 7.18359 42.584 7.18359ZM37.4668-23.0586C39.3653-23.0586 40.4903-24.207 40.4903-26.1992L40.4903-34.6367L47.334-34.6367C54.1778-34.6367 58.9825-39.207 58.9825-45.957C58.9825-52.707 54.3184-57.2773 47.5918-57.2773L37.4668-57.2773C35.5918-57.2773 34.4434-56.1054 34.4434-54.1367L34.4434-26.1992C34.4434-24.207 35.5918-23.0586 37.4668-23.0586ZM45.9746-39.5117L40.4903-39.5117L40.4903-52.332L45.9981-52.332C50.334-52.332 52.8418-50.0117 52.8418-45.957C52.8418-41.8554 50.3106-39.5117 45.9746-39.5117ZM78.2481-22.8945C87.5996-22.8945 92.9903-28.5429 92.9903-37.332L92.9903-38.0351C92.9903-40.0039 91.8653-41.1757 89.9903-41.1757L81.084-41.1757C79.584-41.1757 78.5528-40.3086 78.5528-38.8789C78.5528-37.4492 79.584-36.5586 81.084-36.5586L87.084-36.5586L87.0606-35.9961C86.9668-31.2617 83.4278-28.0273 78.3184-28.0273C72.2246-28.0273 68.4278-32.7851 68.4278-40.5664C68.4278-48.1836 72.0606-52.707 78.1543-52.707C81.834-52.707 84.5762-51.0195 86.2637-47.6679C87.0137-46.3086 87.9278-45.7226 89.2403-45.7226C90.8575-45.7226 91.9121-46.7773 91.9121-48.3711C91.9121-48.9804 91.8184-49.5898 91.4668-50.3867C89.5918-54.7461 84.5059-57.8398 78.1309-57.8398C68.3575-57.8398 62.2403-51.2304 62.2403-40.4961C62.2403-29.5976 68.3809-22.8945 78.2481-22.8945Z"/>
  </g>
  <g id="Medium-S" transform="matrix(1 0 0 1 1684.51 696)">
   <path d="M23.7364-7.61133L100.348-7.61133C103.928-7.61133 106.663-8.55535 108.551-10.4434C110.439-12.3314 111.383-15.0495 111.383-18.5977L111.383-62.5918C111.383-66.2051 110.439-68.9557 108.551-70.8438C106.663-72.7318 103.928-73.6758 100.348-73.6758L23.7364-73.6758C20.1556-73.6758 17.4213-72.7318 15.5333-70.8438C13.6452-68.9557 12.7012-66.2051 12.7012-62.5918L12.7012-18.5977C12.7012-15.0495 13.6452-12.3314 15.5333-10.4434C17.4213-8.55535 20.1556-7.61133 23.7364-7.61133ZM24.1758-15.7168C21.9297-15.7168 20.8067-16.8398 20.8067-19.0859L20.8067-62.1523C20.8067-64.431 21.9297-65.5703 24.1758-65.5703L99.9083-65.5703C102.122-65.5703 103.229-64.431 103.229-62.1523L103.229-19.0859C103.229-16.8398 102.122-15.7168 99.9083-15.7168L24.1758-15.7168ZM42.2422 6.45117L81.8418 6.45117C82.8835 6.45117 83.7787 6.06868 84.5274 5.30371C85.276 4.53874 85.6504 3.65169 85.6504 2.64258C85.6504 1.56836 85.276 0.656901 84.5274-0.091797C83.7787-0.840492 82.8835-1.21484 81.8418-1.21484L42.2422-1.21484C41.168-1.21484 40.2565-0.840492 39.5079-0.091797C38.7591 0.656901 38.3848 1.56836 38.3848 2.64258C38.3848 3.65169 38.7591 4.53874 39.5079 5.30371C40.2565 6.06868 41.168 6.45117 42.2422 6.45117ZM36.4668-23.2774C38.3653-23.2774 39.4903-24.4258 39.4903-26.418L39.4903-34.8555L46.334-34.8555C53.1778-34.8555 57.9825-39.4258 57.9825-46.1758C57.9825-52.9258 53.3184-57.4961 46.5918-57.4961L36.4668-57.4961C34.5918-57.4961 33.4434-56.3242 33.4434-54.3555L33.4434-26.418C33.4434-24.4258 34.5918-23.2774 36.4668-23.2774ZM44.9746-39.7305L39.4903-39.7305L39.4903-52.5508L44.9981-52.5508C49.334-52.5508 51.8418-50.2305 51.8418-46.1758C51.8418-42.0742 49.3106-39.7305 44.9746-39.7305ZM77.2481-23.1133C86.5996-23.1133 91.9903-28.7617 91.9903-37.5508L91.9903-38.2539C91.9903-40.2227 90.8653-41.3945 88.9903-41.3945L80.084-41.3945C78.584-41.3945 77.5528-40.5274 77.5528-39.0977C77.5528-37.668 78.584-36.7774 80.084-36.7774L86.084-36.7774L86.0606-36.2149C85.9668-31.4805 82.4278-28.2461 77.3184-28.2461C71.2246-28.2461 67.4278-33.0039 67.4278-40.7852C67.4278-48.4024 71.0606-52.9258 77.1543-52.9258C80.834-52.9258 83.5762-51.2383 85.2637-47.8867C86.0137-46.5274 86.9278-45.9414 88.2403-45.9414C89.8575-45.9414 90.9121-46.9961 90.9121-48.5899C90.9121-49.1992 90.8184-49.8086 90.4668-50.6055C88.5918-54.9649 83.5059-58.0586 77.1309-58.0586C67.3575-58.0586 61.2403-51.4492 61.2403-40.7149C61.2403-29.8164 67.3809-23.1133 77.2481-23.1133Z"/>
  </g>
  <g id="Regular-S" transform="matrix(1 0 0 1 1388.56 696)">
   <path d="M23.0528-8.24609L99.5176-8.24609C102.903-8.24609 105.475-9.12499 107.233-10.8828C108.991-12.6406 109.87-15.2122 109.87-18.5977L109.87-62.2988C109.87-65.7168 108.991-68.3047 107.233-70.0625C105.475-71.8203 102.903-72.6992 99.5176-72.6992L23.0528-72.6992C19.6674-72.6992 17.0957-71.8203 15.3379-70.0625C13.5801-68.3047 12.7012-65.7168 12.7012-62.2988L12.7012-18.5977C12.7012-15.2122 13.5801-12.6406 15.3379-10.8828C17.0957-9.12499 19.6674-8.24609 23.0528-8.24609ZM23.1504-15.2773C20.8718-15.2773 19.7325-16.4166 19.7325-18.6953L19.7325-62.2012C19.7325-64.5124 20.8718-65.668 23.1504-65.668L99.42-65.668C101.699-65.668 102.838-64.5124 102.838-62.2012L102.838-18.6953C102.838-16.4166 101.699-15.2773 99.42-15.2773L23.1504-15.2773ZM41.8028 5.52344L80.7676 5.52344C81.7442 5.52344 82.5743 5.1735 83.2579 4.47363C83.9415 3.77376 84.2833 2.95182 84.2833 2.00781C84.2833 0.998697 83.9415 0.152344 83.2579-0.53125C82.5743-1.21484 81.7442-1.55664 80.7676-1.55664L41.8028-1.55664C40.8262-1.55664 39.9961-1.21484 39.3126-0.53125C38.629 0.152344 38.2872 0.998697 38.2872 2.00781C38.2872 2.95182 38.629 3.77376 39.3126 4.47363C39.9961 5.1735 40.8262 5.52344 41.8028 5.52344ZM35.3518-23.3242C36.969-23.3242 37.9768-24.3555 37.9768-26.043L37.9768-35.2539L45.2425-35.2539C51.8753-35.2539 56.5393-39.8008 56.5393-46.4101C56.5393-52.9961 51.969-57.5195 45.4065-57.5195L35.3518-57.5195C33.7112-57.5195 32.7268-56.4883 32.7268-54.8008L32.7268-26.043C32.7268-24.3555 33.7112-23.3242 35.3518-23.3242ZM44.0003-39.6601L37.9768-39.6601L37.9768-53.0898L44.0237-53.0898C48.5706-53.0898 51.1721-50.6523 51.1721-46.3867C51.1721-42.1211 48.5706-39.6601 44.0003-39.6601ZM75.6878-23.1367C84.8987-23.1367 90.2659-28.6914 90.2659-37.6211L90.2659-38.4648C90.2659-40.1758 89.2581-41.207 87.6409-41.207L78.2659-41.207C76.9065-41.207 75.969-40.3633 75.969-39.0742C75.969-37.8086 76.9065-36.9648 78.2659-36.9648L85.0862-36.9648L85.0862-36.3789C85.0159-31.2461 81.219-27.7305 75.7346-27.7305C69.2893-27.7305 65.2815-32.7226 65.2815-40.8086C65.2815-48.7539 69.1721-53.4883 75.6409-53.4883C79.555-53.4883 82.555-51.6367 84.2659-48.0508C84.9221-46.7383 85.6956-46.1758 86.8909-46.1758C88.3206-46.1758 89.2346-47.1133 89.2346-48.4961C89.2346-49.082 89.1643-49.668 88.8596-50.418C86.9846-54.9414 81.9221-58.082 75.6175-58.082C65.9846-58.082 59.9143-51.4258 59.9143-40.7617C59.9143-29.9101 66.0081-23.1367 75.6878-23.1367Z"/>
  </g>
  <g id="Light-S" transform="matrix(1 0 0 1 1093.24 696)">
   <path d="M22.0762-8.53906L97.711-8.53906C100.803-8.53906 103.139-9.32844 104.718-10.9072C106.296-12.486 107.086-14.8053 107.086-17.8652L107.086-61.8594C107.086-64.9518 106.296-67.2874 104.718-68.8662C103.139-70.445 100.803-71.2344 97.711-71.2344L22.0762-71.2344C18.9838-71.2344 16.6482-70.445 15.0694-68.8662C13.4906-67.2874 12.7012-64.9518 12.7012-61.8594L12.7012-17.8652C12.7012-14.8053 13.4906-12.486 15.0694-10.9072C16.6482-9.32844 18.9838-8.53906 22.0762-8.53906ZM22.1739-13.959C19.472-13.959 18.1211-15.2936 18.1211-17.9629L18.1211-61.7617C18.1211-64.4636 19.472-65.8145 22.1739-65.8145L97.6133-65.8145C100.315-65.8145 101.666-64.4636 101.666-61.7617L101.666-17.9629C101.666-15.2936 100.315-13.959 97.6133-13.959L22.1739-13.959ZM40.8751 3.76562L78.9122 3.76562C79.6608 3.76562 80.3037 3.49707 80.8409 2.95996C81.3779 2.42285 81.6465 1.79623 81.6465 1.08008C81.6465 0.298828 81.3779-0.352215 80.8409-0.87305C80.3037-1.39388 79.6608-1.6543 78.9122-1.6543L40.8751-1.6543C40.1263-1.6543 39.4834-1.39388 38.9463-0.87305C38.4092-0.352215 38.1407 0.298828 38.1407 1.08008C38.1407 1.79623 38.4092 2.42285 38.9463 2.95996C39.4834 3.49707 40.1263 3.76562 40.8751 3.76562ZM34.7715-22.9063C36.0606-22.9063 36.8809-23.75 36.8809-25.086L36.8809-35.3047L44.6856-35.3047C51.0371-35.3047 55.5606-39.7813 55.5606-46.2032C55.5606-52.6016 51.084-57.0547 44.7325-57.0547L34.7715-57.0547C33.4825-57.0547 32.6621-56.211 32.6621-54.875L32.6621-25.086C32.6621-23.75 33.4825-22.9063 34.7715-22.9063ZM43.6309-39.0547L36.8809-39.0547L36.8809-53.3047L43.6309-53.3047C48.4825-53.3047 51.2246-50.6797 51.2246-46.2032C51.2246-41.7032 48.459-39.0547 43.6309-39.0547ZM74.5684-22.6719C83.5918-22.6719 88.9121-28.086 88.9121-37.2266L88.9121-38.2578C88.9121-39.5938 88.0918-40.4375 86.8028-40.4375L76.8184-40.4375C75.6465-40.4375 74.8028-39.6875 74.8028-38.586C74.8028-37.4844 75.6465-36.7344 76.8184-36.7344L84.6934-36.7344L84.6934-36.125C84.6934-30.4532 80.5684-26.5625 74.5684-26.5625C67.6778-26.5625 63.4121-31.836 63.4121-40.3438C63.4121-48.711 67.6075-53.7266 74.5684-53.7266C78.834-53.7266 82.1153-51.6641 83.8496-47.75C84.3887-46.5078 85.0215-45.9922 86.0528-45.9922C87.2246-45.9922 87.9746-46.7657 87.9746-47.9141C87.9746-48.4297 87.9278-48.9688 87.6465-49.6953C85.8184-54.4297 80.7559-57.6172 74.5684-57.6172C65.0996-57.6172 59.0762-50.8907 59.0762-40.3203C59.0762-29.5625 65.1231-22.6719 74.5684-22.6719Z"/>
  </g>
  <g id="Thin-S" transform="matrix(1 0 0 1 798.361 696)">
   <path d="M20.7579-9.30076L95.3184-9.30076C97.9876-9.30076 100.006-9.97621 101.373-11.3271C102.74-12.678 103.424-14.6881 103.424-17.3574L103.424-61.6445C103.424-64.3138 102.74-66.332 101.373-67.6992C100.006-69.0664 97.9876-69.75 95.3184-69.75L20.7579-69.75C18.1211-69.75 16.1192-69.0664 14.752-67.6992C13.3848-66.332 12.7012-64.3138 12.7012-61.6445L12.7012-17.3574C12.7012-14.6881 13.3848-12.678 14.752-11.3271C16.1192-9.97621 18.1211-9.30076 20.7579-9.30076ZM20.9044-12.6211C17.6491-12.6211 16.0215-14.2324 16.0215-17.4551L16.0215-61.5469C16.0215-64.8021 17.6491-66.4297 20.9044-66.4297L95.2208-66.4297C98.476-66.4297 100.104-64.8021 100.104-61.5469L100.104-17.4551C100.104-14.2324 98.476-12.6211 95.2208-12.6211L20.9044-12.6211ZM39.6544 1.00198L76.4219 1.00198C76.9102 1.00198 77.3171 0.847356 77.6426 0.538108C77.9681 0.228863 78.1309-0.153624 78.1309-0.609353C78.1309-1.09764 77.9681-1.4964 77.6426-1.80564C77.3171-2.11489 76.9102-2.26951 76.4219-2.26951L39.6544-2.26951C39.166-2.26951 38.7673-2.11489 38.4581-1.80564C38.1488-1.4964 37.9942-1.09764 37.9942-0.609353C37.9942-0.153624 38.1488 0.228863 38.4581 0.538108C38.7673 0.847356 39.166 1.00198 39.6544 1.00198ZM32.9707-22.4219C33.9551-22.4219 34.5645-23.0547 34.5645-24.0859L34.5645-35.5L42.8614-35.5C49.3067-35.5 53.7364-39.7656 53.7364-46.0469C53.7364-52.3281 49.3535-56.5703 42.8848-56.5703L32.9707-56.5703C31.9864-56.5703 31.377-55.9375 31.377-54.9062L31.377-24.0859C31.377-23.0547 31.9864-22.4219 32.9707-22.4219ZM42.1348-38.3594L34.5645-38.3594L34.5645-53.7109L42.1348-53.7109C47.3614-53.7109 50.4551-50.8516 50.4551-46.0469C50.4551-41.2422 47.3379-38.3594 42.1348-38.3594ZM72.1582-22.2109C80.9473-22.2109 86.1973-27.5547 86.1973-36.4844L86.1973-38.0781C86.1973-39.1094 85.5879-39.7422 84.6035-39.7422L73.7285-39.7422C72.8145-39.7422 72.1817-39.1797 72.1817-38.3359C72.1817-37.4922 72.8145-36.9297 73.7285-36.9297L83.0098-36.9297L83.0098-35.7344C83.0098-29.3594 78.6973-25.1875 72.1582-25.1875C64.916-25.1875 60.252-30.9297 60.252-39.8594C60.252-48.6719 64.8223-54.1328 72.1582-54.1328C76.9629-54.1328 80.7129-51.625 82.3535-47.2656C82.7285-46.3047 83.2207-45.9062 84.0176-45.9062C84.9082-45.9062 85.4707-46.4922 85.4707-47.3828C85.4707-47.8281 85.4004-48.2969 85.166-48.9297C83.3848-53.8281 78.3457-57.1094 72.1582-57.1094C62.9239-57.1094 56.9707-50.3359 56.9707-39.8594C56.9707-29.1953 62.9942-22.2109 72.1582-22.2109Z"/>
  </g>
  <g id="Ultralight-S" transform="matrix(1 0 0 1 502.602 696)">
   <path d="M20.1231-9.07617L94.0977-9.07617C96.5716-9.07617 98.4271-9.69465 99.6641-10.9316C100.901-12.1686 101.52-14.0078 101.52-16.4492L101.52-60.9316C101.52-63.3731 100.901-65.2204 99.6641-66.4736C98.4271-67.7269 96.5716-68.3535 94.0977-68.3535L20.1231-68.3535C17.6491-68.3535 15.7937-67.7269 14.5567-66.4736C13.3197-65.2204 12.7012-63.3731 12.7012-60.9316L12.7012-16.4492C12.7012-14.0078 13.3197-12.1686 14.5567-10.9316C15.7937-9.69465 17.6491-9.07617 20.1231-9.07617ZM20.2208-11.2734C16.6726-11.2734 14.8985-13.0312 14.8985-16.5469L14.8985-60.834C14.8985-64.3496 16.6726-66.1074 20.2208-66.1074L93.9512-66.1074C97.4994-66.1074 99.2735-64.3496 99.2735-60.834L99.2735-16.5469C99.2735-13.0312 97.4994-11.2734 93.9512-11.2734L20.2208-11.2734ZM39.0196 0.25L75.2012 0.25C75.5267 0.25 75.7953 0.152344 76.0069-0.042969C76.2185-0.238282 76.3243-0.498699 76.3243-0.82422C76.3243-1.14974 76.2185-1.41016 76.0069-1.60547C75.7953-1.80078 75.5267-1.89844 75.2012-1.89844L39.0196-1.89844C38.694-1.89844 38.4255-1.80078 38.2139-1.60547C38.0023-1.41016 37.8965-1.14974 37.8965-0.82422C37.8965-0.498699 38.0023-0.238282 38.2139-0.042969C38.4255 0.152344 38.694 0.25 39.0196 0.25ZM31.9239-21.0019C32.4864-21.0019 32.8614-21.3769 32.8614-21.9863L32.8614-34.9941L41.7911-34.9941C48.377-34.9941 52.6661-38.9551 52.6661-45.0723C52.6661-51.1894 48.377-55.1738 41.8145-55.1738L31.9239-55.1738C31.3614-55.1738 31.0099-54.7988 31.0099-54.1894L31.0099-21.9863C31.0099-21.3769 31.3614-21.0019 31.9239-21.0019ZM41.5099-36.6816L32.8614-36.6816L32.8614-53.4863L41.5099-53.4863C47.2286-53.4863 50.7911-50.2988 50.7911-45.0723C50.7911-39.8691 47.2052-36.6816 41.5099-36.6816ZM70.338-20.8613C78.8224-20.8613 83.9786-26.1113 83.9786-34.7363L83.9786-37.1035C83.9786-37.7129 83.627-38.0879 83.0645-38.0879L70.9942-38.0879C70.4317-38.0879 70.0802-37.7363 70.0802-37.2441C70.0802-36.7519 70.4317-36.4004 70.9942-36.4004L82.127-36.4004L82.127-34.4551C82.127-27.166 77.6036-22.5957 70.338-22.5957C62.627-22.5957 57.4239-28.9707 57.4239-38.4863C57.4239-47.8379 62.5099-53.9316 70.338-53.9316C75.8224-53.9316 80.2286-50.8379 81.7052-45.8926C81.9161-45.3066 82.1739-45.0488 82.6661-45.0488C83.2052-45.0488 83.4864-45.4004 83.4864-45.916C83.4864-46.2676 83.4161-46.666 83.252-47.1582C81.4942-52.291 76.4786-55.666 70.338-55.666C61.4317-55.666 55.5255-48.8223 55.5255-38.4629C55.5255-27.9629 61.5255-20.8613 70.338-20.8613Z"/>
  </g>
 </g>
</svg>
