<?xml version="1.0" encoding="UTF-8"?>
<svg width="3300px" height="2200px" viewBox="0 0 3300 2200" version="1.1" xmlns="http://www.w3.org/2000/svg" xmlns:xlink="http://www.w3.org/1999/xlink">
    <title>tv.eye.fill</title>
    <g id="App-Symbols" stroke="none" stroke-width="1" fill="none" fill-rule="evenodd">
        <g id="tv.eye.fill">
            <g id="Notes">
                <rect id="artboard" fill="#FFFFFF" fill-rule="nonzero" x="0" y="0" width="3300" height="2200"></rect>
                <line x1="263" y1="292" x2="3036" y2="292" id="Path" stroke="#000000" stroke-width="0.5"></line>
                <text id="Weight/Scale-Variations" fill="#000000" fill-rule="nonzero" font-family="Helvetica-Bold, Helvetica" font-size="13" font-weight="bold">
                    <tspan x="263" y="322">Weight/Scale Variations</tspan>
                </text>
                <text id="Ultralight" fill="#000000" fill-rule="nonzero" font-family="Helvetica" font-size="13" font-weight="normal">
                    <tspan x="533.711" y="322">Ultralight</tspan>
                </text>
                <text id="Thin" fill="#000000" fill-rule="nonzero" font-family="Helvetica" font-size="13" font-weight="normal">
                    <tspan x="843.422" y="322">Thin</tspan>
                </text>
                <text id="Light" fill="#000000" fill-rule="nonzero" font-family="Helvetica" font-size="13" font-weight="normal">
                    <tspan x="1138.63" y="322">Light</tspan>
                </text>
                <text id="Regular" fill="#000000" fill-rule="nonzero" font-family="Helvetica" font-size="13" font-weight="normal">
                    <tspan x="1426.84" y="322">Regular</tspan>
                </text>
                <text id="Medium" fill="#000000" fill-rule="nonzero" font-family="Helvetica" font-size="13" font-weight="normal">
                    <tspan x="1723.06" y="322">Medium</tspan>
                </text>
                <text id="Semibold" fill="#000000" fill-rule="nonzero" font-family="Helvetica" font-size="13" font-weight="normal">
                    <tspan x="2015.77" y="322">Semibold</tspan>
                </text>
                <text id="Bold" fill="#000000" fill-rule="nonzero" font-family="Helvetica" font-size="13" font-weight="normal">
                    <tspan x="2326.48" y="322">Bold</tspan>
                </text>
                <text id="Heavy" fill="#000000" fill-rule="nonzero" font-family="Helvetica" font-size="13" font-weight="normal">
                    <tspan x="2618.19" y="322">Heavy</tspan>
                </text>
                <text id="Black" fill="#000000" fill-rule="nonzero" font-family="Helvetica" font-size="13" font-weight="normal">
                    <tspan x="2917.4" y="322">Black</tspan>
                </text>
                <line x1="263" y1="1903" x2="3036" y2="1903" id="Path" stroke="#000000" stroke-width="0.5"></line>
                <g id="Group" transform="translate(264.000000, 1918.000000)" fill="#000000" fill-rule="nonzero">
                    <path d="M8.24805,15.830078 C12.5547,15.830078 16.1387,12.25586 16.1387,7.94922 C16.1387,3.6426 12.5449,0.0684 8.23828,0.0684 C3.94141,0.0684 0.36719,3.6426 0.36719,7.94922 C0.36719,12.25586 3.95117,15.830078 8.24805,15.830078 Z M8.24805,14.345703 C4.70312,14.345703 1.87109,11.50391 1.87109,7.94922 C1.87109,4.3945 4.69336,1.5527 8.23828,1.5527 C11.793,1.5527 14.6348,4.3945 14.6445252,7.94922 C14.6543,11.50391 11.8027,14.345703 8.24805,14.345703 Z M5.39648,8.68164 L7.50586,8.68164 L7.50586,10.80078 C7.50586,11.24023 7.79883,11.54297 8.22852,11.54297 C8.67773,11.54297 8.9707,11.24023 8.9707,10.80078 L8.9707,8.68164 L11.0996,8.68164 C11.5391,8.68164 11.8418,8.38867 11.8418,7.95898 C11.8418,7.51953 11.5391,7.2168 11.0996,7.2168 L8.9707,7.2168 L8.9707,5.10742 C8.9707,4.6582 8.67773,4.3555 8.22852,4.3555 C7.79883,4.3555 7.50586,4.6582 7.50586,5.10742 L7.50586,7.2168 L5.39648,7.2168 C4.94727,7.2168 4.64453,7.51953 4.64453,7.95898 C4.64453,8.38867 4.94727,8.68164 5.39648,8.68164 Z" id="Shape"></path>
                </g>
                <g id="Group" transform="translate(282.506000, 1915.000000)" fill="#000000" fill-rule="nonzero">
                    <path d="M10.709,20.91016 C16.1582,20.91016 20.6699,16.38867 20.6699,10.94922 C20.6699,5.5 16.1484,0.9883 10.6992,0.9883 C5.25977,0.9883 0.74805,5.5 0.74805,10.94922 C0.74805,16.38867 5.26953,20.91016 10.709,20.91016 Z M10.709,19.25 C6.09961,19.25 2.41797,15.55859 2.41797,10.94922 C2.41797,6.3398 6.08984,2.6484 10.6992,2.6484 C15.3086,2.6484 19,6.3398 19.009819,10.94922 C19.0195,15.55859 15.3184,19.25 10.709,19.25 Z M6.98828,11.76953 L9.8789,11.76953 L9.8789,14.67969 C9.8789,15.16797 10.2109,15.5 10.6895,15.5 C11.1777,15.5 11.5195,15.16797 11.5195,14.67969 L11.5195,11.76953 L14.4297,11.76953 C14.918,11.76953 15.25,11.4375 15.25,10.95898 C15.25,10.4707 14.918,10.12891 14.4297,10.12891 L11.5195,10.12891 L11.5195,7.2383 C11.5195,6.7305 11.1777,6.3984 10.6895,6.3984 C10.2109,6.3984 9.8789,6.7402 9.8789,7.2383 L9.8789,10.12891 L6.98828,10.12891 C6.48047,10.12891 6.14844,10.4707 6.14844,10.95898 C6.14844,11.4375 6.49023,11.76953 6.98828,11.76953 Z" id="Shape"></path>
                </g>
                <g id="Group" transform="translate(306.924000, 1913.000000)" fill="#000000" fill-rule="nonzero">
                    <path d="M12.9707,25.66406 C19.9336,25.66406 25.6953,19.9023438 25.6953,12.94922 C25.6953,5.9863 19.9238,0.2246 12.9609,0.2246 C6.00781,0.2246 0.25586,5.9863 0.25586,12.94922 C0.25586,19.9023438 6.01758,25.66406 12.9707,25.66406 Z M12.9707,23.84766 C6.93555,23.84766 2.08203,18.98438 2.08203,12.94922 C2.08203,6.9043 6.92578,2.0508 12.9609,2.0508 C19.0059,2.0508 23.8594,6.9043 23.8691148,12.94922 C23.8789,18.98438 19.0156,23.84766 12.9707,23.84766 Z M8.0586,13.85742 L12.0625,13.85742 L12.0625,17.87109 C12.0625,18.4082 12.4336,18.7793 12.9512,18.7793 C13.4883,18.7793 13.8594,18.4082 13.8594,17.87109 L13.8594,13.85742 L17.8828,13.85742 C18.4102,13.85742 18.791,13.48633 18.791,12.96875 C18.791,12.43164 18.4199,12.05078 17.8828,12.05078 L13.8594,12.05078 L13.8594,8.0469 C13.8594,7.4902 13.4883,7.1191 12.9512,7.1191 C12.4336,7.1191 12.0625,7.5 12.0625,8.0469 L12.0625,12.05078 L8.0586,12.05078 C7.50195,12.05078 7.13086,12.43164 7.13086,12.96875 C7.13086,13.48633 7.51172,13.85742 8.0586,13.85742 Z" id="Shape"></path>
                </g>
                <text id="Design-Variations" fill="#000000" fill-rule="nonzero" font-family="Helvetica-Bold, Helvetica" font-size="13" font-weight="bold">
                    <tspan x="263" y="1953">Design Variations</tspan>
                </text>
                <text id="Symbols-are-supported-in-up-to-nine-weights-and-three-scales." fill="#000000" fill-rule="nonzero" font-family="Helvetica" font-size="13" font-weight="normal">
                    <tspan x="263" y="1971">Symbols are supported in up to nine weights and three scales.</tspan>
                </text>
                <text id="For-optimal-layout-with-text-and-other-symbols,-vertically-align" fill="#000000" fill-rule="nonzero" font-family="Helvetica" font-size="13" font-weight="normal">
                    <tspan x="263" y="1989">For optimal layout with text and other symbols, vertically align</tspan>
                </text>
                <text id="symbols-with-the-adjacent-text." fill="#000000" fill-rule="nonzero" font-family="Helvetica" font-size="13" font-weight="normal">
                    <tspan x="263" y="2007">symbols with the adjacent text.</tspan>
                </text>
                <line x1="776" y1="1919" x2="776" y2="1933" id="Path" stroke="#00AEEF" stroke-width="0.5"></line>
                <g id="Group" transform="translate(778.000000, 1918.000000)" fill="#000000" fill-rule="nonzero">
                    <path d="M1.31055,15.126953 C1.82812,15.126953 2.08203,14.9316406 2.26758,14.394531 L3.52734,10.9375 L9.2891,10.9375 L10.5488,14.394531 C10.7344,14.9316406 10.9883,15.126953 11.4961,15.126953 C12.0137,15.126953 12.3457,14.814453 12.3457,14.326172 C12.3457,14.160156 12.3164,14.013672 12.2383,13.79883 L7.6582,1.6113 C7.43359,1.0059 7.0332,0.7129 6.4082,0.7129 C5.80273,0.7129 5.39258,1.0059 5.17773,1.6016 L0.59766,13.80859 C0.51953,14.023438 0.49023,14.169922 0.49023,14.335938 C0.49023,14.824219 0.80273,15.126953 1.31055,15.126953 Z M4.00586,9.46289 L6.37891,2.8906 L6.42773,2.8906 L8.8008,9.46289 L4.00586,9.46289 Z" id="Shape"></path>
                </g>
                <line x1="792.836" y1="1919" x2="792.836" y2="1933" id="Path" stroke="#00AEEF" stroke-width="0.5"></line>
                <text id="Margins" fill="#000000" fill-rule="nonzero" font-family="Helvetica-Bold, Helvetica" font-size="13" font-weight="bold">
                    <tspan x="776" y="1953">Margins</tspan>
                </text>
                <text id="Leading-and-trailing-margins-on-the-left-and-right-side-of-each-symbol" fill="#000000" fill-rule="nonzero" font-family="Helvetica" font-size="13" font-weight="normal">
                    <tspan x="776" y="1971">Leading and trailing margins on the left and right side of each symbol</tspan>
                </text>
                <text id="can-be-adjusted-by-modifying-the-x-location-of-the-margin-guidelines." fill="#000000" fill-rule="nonzero" font-family="Helvetica" font-size="13" font-weight="normal">
                    <tspan x="776" y="1989">can be adjusted by modifying the x-location of the margin guidelines.</tspan>
                </text>
                <text id="Modifications-are-automatically-applied-proportionally-to-all" fill="#000000" fill-rule="nonzero" font-family="Helvetica" font-size="13" font-weight="normal">
                    <tspan x="776" y="2007">Modifications are automatically applied proportionally to all</tspan>
                </text>
                <text id="scales-and-weights." fill="#000000" fill-rule="nonzero" font-family="Helvetica" font-size="13" font-weight="normal">
                    <tspan x="776" y="2025">scales and weights.</tspan>
                </text>
                <g id="Group" transform="translate(1291.000000, 1914.000000)" fill="#000000" fill-rule="nonzero">
                    <path d="M0.8418,20.86523 L2.54102,22.57422 C3.40039,23.44336 4.38672,23.38477 5.31445,22.35938 L15.4902,11.14844 C15.7539,11.23633 16.0273,11.2168 16.3398,11.1582 L17.4043,10.96289 L18.0684,11.63672 L18.0293,12.19336 C17.9902,12.69141 18.1172,13.07227 18.6055,13.55078 L19.3672,14.29297 C19.8457,14.77148 20.4609,14.80078 20.9297,14.33203 L23.8398,11.41211 C24.3086,10.94336 24.2891,10.34766 23.8105,9.86914 L23.0391,9.10742 C22.5605,8.6289 22.1895,8.4727 21.7109,8.5117 L21.1348,8.5605 L20.4902,7.9258 L20.7344,6.8027 C20.8613,6.2363 20.7051,5.7969 20.1191,5.2109 L17.9219,3.0234 C14.582,-0.2969 10.1484,-0.2188 7.25781,2.6719 C6.83789,3.082 6.80859,3.6582 7.04297,4.0488 C7.27734,4.4102 7.73633,4.6445 8.3809,4.4785 C9.8457,4.1367 11.3691,4.0781 12.7949,5.0156 L12.209,6.4707 C12.0137,6.9492 11.9844,7.3496 12.1113,7.7109 L1.04688,18.101562 C0.06055,19.0195312 -0.01758,19.996094 0.8418,20.86523 Z M8.752,3.043 C11.1836,1.2656 14.4746,1.5684 16.7012,3.7949 L19.1328,6.207 C19.3672,6.4414 19.4062,6.627 19.3379,6.9688 L19.0156,8.4531 L20.5195,9.9375 L21.5059,9.87891 C21.7598,9.86914 21.8379,9.88867 22.0332,10.08398 L22.6094,10.66016 L20.168,13.10156 L19.5918,12.52539 C19.3965,12.33008 19.3672,12.25195 19.377,11.98828 L19.4453,11.01172 L17.9512,9.52734 L16.4277,9.78125 C16.1055,9.84961 15.959,9.82031 15.7148,9.58594 L13.7129,7.584 C13.459,7.3496 13.4297,7.1836 13.5859,6.8125 L14.4648,4.7227 C12.9023,3.2676 10.8711,2.6426 8.8398,3.2383 C8.6836,3.2773 8.625,3.1504 8.752,3.043 Z M3.27344,21.3047 L2.10156,20.14258 C1.63281,19.683594 1.74023,19.341797 2.14062,18.9804688 L12.9512,8.8047 L14.416,10.28906 L4.42578,21.27539 C4.07422,21.67578 3.74219,21.77344 3.27344,21.3047 Z" id="Shape"></path>
                </g>
                <text id="Exporting" fill="#000000" fill-rule="nonzero" font-family="Helvetica-Bold, Helvetica" font-size="13" font-weight="bold">
                    <tspan x="1289" y="1953">Exporting</tspan>
                </text>
                <text id="Symbols-should-be-outlined-when-exporting-to-ensure-the" fill="#000000" fill-rule="nonzero" font-family="Helvetica" font-size="13" font-weight="normal">
                    <tspan x="1289" y="1971">Symbols should be outlined when exporting to ensure the</tspan>
                </text>
                <text id="design-is-preserved-when-submitting-to-Xcode." fill="#000000" fill-rule="nonzero" font-family="Helvetica" font-size="13" font-weight="normal">
                    <tspan x="1289" y="1989">design is preserved when submitting to Xcode.</tspan>
                </text>
                <text id="template-version" fill="#000000" fill-rule="nonzero" font-family="Helvetica" font-size="13" font-weight="normal">
                    <tspan x="2952" y="1933">Template v.2.0</tspan>
                </text>
                <text id="Requires-Xcode-12-or-greater" fill="#000000" fill-rule="nonzero" font-family="Helvetica" font-size="13" font-weight="normal">
                    <tspan x="2865" y="1951">Requires Xcode 12 or greater</tspan>
                </text>
                <text id="Generated-from-tv.ey" fill="#000000" fill-rule="nonzero" font-family="Helvetica" font-size="13" font-weight="normal">
                    <tspan x="2891" y="1969">Generated from tv.eye.fill</tspan>
                </text>
                <text id="Typeset-at-100-points" fill="#000000" fill-rule="nonzero" font-family="Helvetica" font-size="13" font-weight="normal">
                    <tspan x="2912" y="1987">Typeset at 100 points</tspan>
                </text>
                <text id="Small" fill="#000000" fill-rule="nonzero" font-family="Helvetica" font-size="13" font-weight="normal">
                    <tspan x="263" y="726">Small</tspan>
                </text>
                <text id="Medium" fill="#000000" fill-rule="nonzero" font-family="Helvetica" font-size="13" font-weight="normal">
                    <tspan x="263" y="1156">Medium</tspan>
                </text>
                <text id="Large" fill="#000000" fill-rule="nonzero" font-family="Helvetica" font-size="13" font-weight="normal">
                    <tspan x="263" y="1586">Large</tspan>
                </text>
            </g>
            <g id="Guides" transform="translate(263.000000, 625.000000)">
                <g id="H-reference" transform="translate(76.000000, 0.000000)" fill="#27AAE1" fill-rule="nonzero">
                    <path d="M0.976562,71 L3.66211,71 L12.9883,46.5371 L45.752,46.5371 L55.127,71 L57.7637,71 L30.6152,0.541 L28.125,0.541 L0.976562,71 Z M29.3457,3.8613 L29.4434,3.8613 L44.873,44.291 L13.8672,44.291 L29.3457,3.8613 Z" id="Shape"></path>
                </g>
                <line x1="0" y1="71" x2="2773" y2="71" id="Baseline-S" stroke="#27AAE1" stroke-width="0.5"></line>
                <line x1="0" y1="0.541" x2="2773" y2="0.541" id="Capline-S" stroke="#27AAE1" stroke-width="0.5"></line>
                <g id="H-reference" transform="translate(76.000000, 430.000000)" fill="#27AAE1" fill-rule="nonzero">
                    <path d="M0.976562,71 L3.66211,71 L12.9883,46.5371 L45.752,46.5371 L55.127,71 L57.7637,71 L30.6152,0.541 L28.125,0.541 L0.976562,71 Z M29.3457,3.8613 L29.4434,3.8613 L44.873,44.291 L13.8672,44.291 L29.3457,3.8613 Z" id="Shape"></path>
                </g>
                <line x1="0" y1="501" x2="2773" y2="501" id="Baseline-M" stroke="#27AAE1" stroke-width="0.5"></line>
                <line x1="0" y1="430.54" x2="2773" y2="430.54" id="Capline-M" stroke="#27AAE1" stroke-width="0.5"></line>
                <g id="H-reference" transform="translate(76.000000, 860.000000)" fill="#27AAE1" fill-rule="nonzero">
                    <path d="M0.976562,71 L3.66211,71 L12.9883,46.5371 L45.752,46.5371 L55.127,71 L57.7637,71 L30.6152,0.541 L28.125,0.541 L0.976562,71 Z M29.3457,3.8613 L29.4434,3.8613 L44.873,44.291 L13.8672,44.291 L29.3457,3.8613 Z" id="Shape"></path>
                </g>
                <line x1="0" y1="931" x2="2773" y2="931" id="Baseline-L" stroke="#27AAE1" stroke-width="0.5"></line>
                <line x1="0" y1="860.54" x2="2773" y2="860.54" id="Capline-L" stroke="#27AAE1" stroke-width="0.5"></line>
                <line x1="1113.43" y1="405.79" x2="1113.43" y2="525.12" id="left-margin" stroke="#00AEEF" stroke-width="0.5"></line>
                <line x1="1260.26" y1="405.79" x2="1260.26" y2="525.12" id="right-margin" stroke="#00AEEF" stroke-width="0.5"></line>
            </g>
            <g id="Symbols" transform="translate(487.000000, 616.000000)" fill="#000000" fill-rule="nonzero">
                <g id="Black-L" transform="translate(2361.250000, 834.000000)">
                    <path d="M148.6,0.189 C162.27982,0.189 170.073159,7.75076553 170.227658,21.4046817 L170.23,21.8203 L170.23,95.7461 C170.23,109.474608 162.573459,117.221115 149.012736,117.374673 L148.6,117.377 L21.6953,117.377 C8.015183,117.377 0.22135058,109.767778 0.0668419433,96.1602827 L0.0645,95.7461 L0.0645,21.8203 C0.0645,8.04346 7.72153125,0.34392607 21.2825545,0.191313075 L21.6953,0.189 L148.6,0.189 Z M88.5507343,27 C58.6028434,27 39.0645,51.2286137 39.0645,58.5 C39.0645,65.7713294 58.6028434,90 88.5507343,90 C118.999434,90 138.0645,65.7713294 138.0645,58.5 C138.0645,51.2286137 118.999434,27 88.5507343,27 Z M88.6060251,40.1550535 C98.8205727,40.1550535 107.142693,48.3145459 107.142693,58.5277373 C107.142693,68.4356477 98.8205727,76.8726838 88.6060251,76.8726838 C78.3638891,76.8726838 70.0419968,68.4356477 70.0141804,58.5277373 C70.0141804,48.2590144 78.3638891,40.1550535 88.6060251,40.1550535 Z M88.5507343,50.8400638 C84.2922027,50.8400638 80.8966637,54.3647507 80.8966637,58.5554747 C80.8966637,62.7462554 84.2922027,66.1876736 88.5507343,66.1876736 C92.8086958,66.1876736 96.2600957,62.7462554 96.2600957,58.5554747 C96.2600957,54.3647507 92.8086958,50.8400638 88.5507343,50.8400638 Z M50.9922,142.084 L119.352,142.084 C123.795,142.084 127.359,138.3242 127.359,134.125 C127.359,129.9258 123.795,126.166 119.352,126.166 L50.9922,126.166 C46.5,126.166 42.9844,129.9258 42.9844,134.125 C42.9844,138.3242 46.5,142.084 50.9922,142.084 Z" id="Shape"></path>
                </g>
                <g id="Heavy-L" transform="translate(2066.370000, 836.000000)">
                    <path d="M146.451,0.289 C159.256208,0.289 166.417854,7.22236616 166.565665,20.0481188 L166.568,20.4551 L166.568,94.03906 C166.568,106.940367 159.539742,114.008053 146.853497,114.153897 L146.451,114.1562 L20.1816,114.1562 C7.37698542,114.1562 0.214660601,107.222902 0.0668348904,94.4445293 L0.0645,94.03906 L0.0645,20.4551 C0.0645,7.5054125 7.09344341,0.437153765 19.7791209,0.291303506 L20.1816,0.289 L146.451,0.289 Z M83.5357775,25.289 C53.2873961,25.289 33.0645,49.8365678 33.0645,57.2606011 C33.0645,64.7130042 53.2873961,89.289 83.5357775,89.289 C114.298648,89.289 134.0645,64.7130042 134.0645,57.2606011 C134.0645,49.8365678 114.270569,25.289 83.5357775,25.289 Z M83.5931055,38.0890233 C94.2759901,38.0890233 102.987496,46.6223333 102.987496,57.2890291 C102.987496,67.6712113 94.2759901,76.4605661 83.5931055,76.4605661 C72.8819078,76.4605661 64.198598,67.6712113 64.170051,57.2890291 C64.170051,46.5939053 72.8819078,38.0890233 83.5931055,38.0890233 Z M83.5644415,49.6090268 C79.2801145,49.6090268 75.8524892,53.1076583 75.8524892,57.3174572 C75.8524892,61.4987698 79.2801145,64.9690315 83.5644415,64.9690315 C87.820748,64.9690315 91.3054673,61.4987698 91.3054673,57.3174572 C91.3054673,53.1076583 87.820748,49.6090268 83.5644415,49.6090268 Z M49.8691,137.7402 L116.764,137.7402 C120.768,137.7402 123.941,134.4199 123.941,130.6602 C123.941,126.8516 120.768,123.5312 116.764,123.5312 L49.8691,123.5312 C45.9141,123.5312 42.7402,126.8516 42.7402,130.6602 C42.7402,134.4199 45.9141,137.7402 49.8691,137.7402 Z" id="Shape"></path>
                </g>
                <g id="Bold-L" transform="translate(1771.710000, 838.000000)">
                    <path d="M144.01,0.682 C155.889011,0.682 162.324658,6.89056539 162.464666,18.7415773 L162.467,19.1387 L162.467,92.33203 C162.467,104.30834 156.161892,110.648855 144.40395,110.786761 L144.01,110.78906 L18.5215,110.78906 C6.69006044,110.78906 0.207887876,104.580152 0.0668512901,92.7291522 L0.0645,92.33203 L0.0645,19.1387 C0.0645,7.16237033 6.41665674,0.822196921 18.1291013,0.684298692 L18.5215,0.682 L144.01,0.682 Z M81.0498636,23.682 C50.8072646,23.682 30.0645,48.5495422 30.0645,56.1674447 C30.0645,63.756117 50.7782299,88.682 81.0498636,88.682 C111.757435,88.682 132.0645,63.756117 132.0645,56.1674447 C132.0645,48.5495422 111.728281,23.682 81.0498636,23.682 Z M81.1079331,36.0574303 C92.1768335,36.0574303 101.211517,44.9595484 101.211517,56.1966151 C101.211517,67.0834574 92.1768335,76.2774172 81.1079331,76.2774172 C69.9231318,76.2774172 60.975255,67.0834574 60.9460806,56.1966151 C60.9171856,44.9595484 69.9231318,36.0574303 81.1079331,36.0574303 Z M81.0788984,48.4912014 C76.8373867,48.4912014 73.4093237,51.9936241 73.4093237,56.1966151 C73.4093237,60.3995463 76.8373867,63.8436282 81.0788984,63.8436282 C85.2911968,63.8436282 88.748592,60.3995463 88.748592,56.1966151 C88.748592,51.9936241 85.2911968,48.4912014 81.0788984,48.4912014 Z M48.6484,133.1523 L113.932,133.1523 C117.35,133.1523 120.084,130.2715 120.084,127 C120.084,123.6797 117.35,120.7988 113.932,120.7988 L48.6484,120.7988 C45.1816,120.7988 42.4473,123.6797 42.4473,127 C42.4473,130.2715 45.1816,133.1523 48.6484,133.1523 Z" id="Shape"></path>
                </g>
                <g id="Semibold-L" transform="translate(1476.420000, 840.000000)">
                    <path d="M142.35,0.3418 C153.549273,0.3418 159.49892,6.0209935 159.632693,17.2380116 L159.635,17.627 L159.635,90.52734 C159.635,101.871557 153.812617,107.727437 142.7341,107.85906 L142.35,107.86133 L17.3496,107.86133 C6.15022841,107.86133 0.200579946,102.134361 0.0668068624,90.9163442 L0.0645,90.52734 L0.0645,17.627 C0.0645,6.28269432 5.88688288,0.474588249 16.9654964,0.344050754 L17.3496,0.3418 L142.35,0.3418 Z M79.579257,21.3418 C49.2538999,21.3418 28.0645,46.1947146 28.0645,53.8418301 C28.0645,61.4594303 49.1949925,86.3418 79.579257,86.3418 C110.317147,86.3418 131.0645,61.4594303 131.0645,53.8418301 C131.0645,46.1947146 110.257998,21.3418 79.579257,21.3418 Z M79.579257,33.2829714 C90.9845372,33.2829714 100.267884,42.3712171 100.267884,53.8418301 C100.267884,65.0182538 90.9845372,74.4006346 79.579257,74.4006346 C68.0856761,74.4006346 58.9203255,65.0182538 58.8612178,53.8418301 C58.831904,42.3712171 68.0856761,33.2829714 79.579257,33.2829714 Z M79.579257,46.2535645 C75.3649038,46.2535645 71.9168899,49.6653536 71.9168899,53.8418301 C71.9168899,57.9888516 75.3649038,61.4300355 79.579257,61.4300355 C83.7641566,61.4300355 87.2122912,57.9888516 87.2122912,53.8418301 C87.2122912,49.6653536 83.7641566,46.2535645 79.579257,46.2535645 Z M47.7695,129.3457 L111.93,129.3457 C115.006,129.3457 117.447,126.8066 117.447,123.8281 C117.447,120.8496 115.006,118.3105 111.93,118.3105 L47.7695,118.3105 C44.7422,118.3105 42.252,120.8496 42.252,123.8281 C42.252,126.8066 44.7422,129.3457 47.7695,129.3457 Z" id="Shape"></path>
                </g>
                <g id="Medium-L" transform="translate(1180.780000, 841.000000)">
                    <path d="M141.08,0.5625 C151.792471,0.5625 157.354305,5.8556231 157.483689,16.5833558 L157.486,16.9688 L157.486,89.72266 C157.486,100.579729 152.050194,106.000612 141.460398,106.126659 L141.08,106.12891 L16.4707,106.12891 C5.80665294,106.12891 0.197338727,100.835758 0.0668308554,90.1081014 L0.0645,89.72266 L0.0645,16.9688 C0.0645,6.11165176 5.54835484,0.690797509 16.091991,0.564750716 L16.4707,0.5625 L141.08,0.5625 Z M78.5792255,20.5625 C48.3982881,20.5625 27.0645,45.3919405 27.0645,53.0773012 C27.0645,60.7329989 48.3391439,85.5625 78.5792255,85.5625 C109.144661,85.5625 130.0645,60.7329989 130.0645,53.0773012 C130.0645,45.3919405 109.056187,20.5625 78.5792255,20.5625 Z M78.5792255,32.1791666 C90.1488261,32.1791666 99.5579665,41.4014904 99.5579665,53.0773012 C99.5579665,64.4279095 90.1488261,73.9458371 78.5792255,73.9458371 C66.9210902,73.9458371 57.6301171,64.4279095 57.5707731,53.0773012 C57.5413402,41.4014904 66.9210902,32.1791666 78.5792255,32.1791666 Z M78.5792255,45.5397708 C74.4071349,45.5397708 70.9748318,48.9390207 70.9748318,53.0773012 C70.9748318,57.1859793 74.4071349,60.5852292 78.5792255,60.5852292 C82.7218651,60.5852292 86.1541682,57.1859793 86.1541682,53.0773012 C86.1541682,48.9390207 82.7218651,45.5397708 78.5792255,45.5397708 Z M47.1348,126.9297 L110.416,126.9297 C113.199,126.9297 115.445,124.6836 115.445,121.998 C115.445,119.2148 113.199,116.9688 110.416,116.9688 L47.1348,116.9688 C44.3516,116.9688 42.1055,119.2148 42.1055,121.998 C42.1055,124.6836 44.3516,126.9297 47.1348,126.9297 Z" id="Shape"></path>
                </g>
                <g id="Regular-L" transform="translate(885.460000, 843.000000)">
                    <path d="M139.42,0.2227 C149.450617,0.2227 154.575641,4.98568125 154.700656,15.0761106 L154.703,15.457 L154.703,87.91797 C154.703,98.141733 149.701811,103.078575 139.793848,103.198914 L139.42,103.20117 L15.3477,103.20117 C5.31678642,103.20117 0.191856683,98.3905472 0.0668440781,88.2988838 L0.0645,87.91797 L0.0645,15.457 C0.0645,5.2332963 5.0655913,0.344096479 14.9738406,0.22493375 L15.3477,0.2227 L139.42,0.2227 Z M77.5797359,18.2227 C47.0645703,18.2227 25.0645,43.377074 25.0645,51.2075919 C25.0645,59.0381098 47.0039371,84.2227 77.5797359,84.2227 C108.458701,84.2227 130.0645,59.0381098 130.0645,51.2075919 C130.0645,43.377074 108.367472,18.2227 77.5797359,18.2227 Z M77.5797359,29.5603414 C89.6102573,29.5603414 99.3370249,39.1141738 99.3370249,51.2075919 C99.3370249,62.998724 89.6102573,72.854879 77.5797359,72.854879 C65.4584818,72.854879 55.8524222,62.998724 55.7912897,51.2075919 C55.7312177,39.1141738 65.4584818,29.5603414 77.5797359,29.5603414 Z M77.6100215,43.6492056 C73.3979023,43.6492056 69.913072,47.0656185 69.913072,51.2075919 C69.913072,55.3193491 73.3979023,58.7660401 77.6100215,58.7660401 C81.7614454,58.7660401 85.2163624,55.3193491 85.2163624,51.2075919 C85.2163624,47.0656185 81.7614454,43.6492056 77.6100215,43.6492056 Z M46.3047,123.1719 L108.463,123.1719 C110.904,123.1719 112.857,121.2188 112.857,118.8262 C112.857,116.3848 110.904,114.4805 108.463,114.4805 L46.3047,114.4805 C43.8633,114.4805 41.9102,116.3848 41.9102,118.8262 C41.9102,121.2188 43.8633,123.1719 46.3047,123.1719 Z" id="Shape"></path>
                </g>
                <g id="Light-L" transform="translate(590.610000, 845.000000)">
                    <path d="M136.979,0.2246 C146.180653,0.2246 150.866189,4.69291865 150.9895,13.8639255 L150.992,14.2383 L150.992,87.04102 C150.992,96.3391891 146.429153,100.883898 137.349566,101.003437 L136.979,101.00586 L14.0781,101.00586 C4.876348,101.00586 0.19032464,96.5851266 0.0669998841,87.4153695 L0.0645,87.04102 L0.0645,14.2383 C0.0645,4.94015067 4.62783333,0.347856693 13.70753,0.227048525 L14.0781,0.2246 L136.979,0.2246 Z M75.5643814,19.2246 C46.9065834,19.2246 26.0645,43.2744007 26.0645,50.7100855 C26.0645,58.1457704 46.8197323,82.2246 75.5643814,82.2246 C104.511901,82.2246 125.0645,58.1457704 125.0645,50.7100855 C125.0645,43.2744007 104.366655,19.2246 75.5643814,19.2246 Z M75.5643814,30.0296019 C86.9406969,30.0296019 96.2619303,39.1790039 96.2619303,50.7100855 C96.2619303,61.979788 86.9406969,71.3905972 75.5643814,71.3905972 C64.0723435,71.3905972 54.9539208,61.979788 54.8669344,50.7100855 C54.8381391,39.1790039 64.0723435,30.0296019 75.5643814,30.0296019 Z M75.5933121,43.8843648 C71.8012662,43.8843648 68.6749211,46.9341853 68.6749211,50.7100855 C68.6749211,54.4570164 71.8012662,57.5358063 75.5933121,57.5358063 C79.3564866,57.5358063 82.4540789,54.4570164 82.4540789,50.7100855 C82.4540789,46.9341853 79.3564866,43.8843648 75.5933121,43.8843648 Z M45.1328,119.1699 L105.973,119.1699 C107.828,119.1699 109.293,117.7051 109.293,115.8496 C109.293,113.9453 107.828,112.4805 105.973,112.4805 L45.1328,112.4805 C43.2773,112.4805 41.7637,113.9453 41.7637,115.8496 C41.7637,117.7051 43.2773,119.1699 45.1328,119.1699 Z" id="Shape"></path>
                </g>
                <g id="Thin-L" transform="translate(296.335000, 847.000000)">
                    <path d="M133.756,0.9102 C141.836567,0.9102 145.984217,4.89018084 146.106227,12.8502381 L146.109,13.2148 L146.109,86.45703 C146.109,94.5377252 142.081956,98.6857549 134.12059,98.8077766 L133.756,98.81055 L12.418,98.81055 C4.33723582,98.81055 0.189292404,94.7831277 0.0672733228,86.8216256 L0.0645,86.45703 L0.0645,13.2148 C0.0645,5.13413433 4.091835,1.03354654 12.0534014,0.912941034 L12.418,0.9102 L133.756,0.9102 Z M73.0643568,19.9102 C45.9995855,19.9102 26.0645,42.8883467 26.0645,49.8962195 C26.0645,56.9320533 45.8877547,79.9102 73.0643568,79.9102 C100.296846,79.9102 120.0645,56.9320533 120.0645,49.8962195 C120.0645,42.8883467 100.073528,19.9102 73.0643568,19.9102 Z M73.0643568,30.1847691 C83.8846882,30.1847691 92.9158985,38.9237107 92.9158985,49.8962195 C92.9158985,60.6454402 83.8846882,69.6356344 73.0643568,69.6356344 C62.076308,69.6356344 53.3249896,60.6454402 53.2130272,49.8962195 C53.1851581,38.9237107 62.076308,30.1847691 73.0643568,30.1847691 Z M73.1203009,43.8654966 C69.7092611,43.8654966 66.9412627,46.5179077 66.9412627,49.8962195 C66.9412627,53.2466274 69.7092611,55.9269423 73.1203009,55.9269423 C76.4476251,55.9269423 79.1875655,53.2466274 79.1875655,49.8962195 C79.1875655,46.5179077 76.4476251,43.8654966 73.1203009,43.8654966 Z M43.5703,114.4844 L102.604,114.4844 C103.775,114.4844 104.654,113.6543 104.654,112.5312 C104.654,111.3594 103.775,110.5293 102.604,110.5293 L43.5703,110.5293 C42.4473,110.5293 41.5195,111.3594 41.5195,112.5312 C41.5195,113.6543 42.4473,114.4844 43.5703,114.4844 Z" id="Shape"></path>
                </g>
                <g id="Ultralight-L" transform="translate(0.869000, 849.000000)">
                    <path d="M132.145,0.2773 C139.59475,0.2773 143.496043,4.06248181 143.61614,11.3999144 L143.619,11.752 L143.619,85.18945 C143.619,92.6413737 139.83226,96.59034 132.491691,96.7100829 L132.145,96.71289 L11.5391,96.71289 C4.08713692,96.71289 0.185557562,92.8785687 0.0672727447,85.536192 L0.0645,85.18945 L0.0645,11.752 C0.0645,4.30185625 3.84958491,0.400265942 11.1870145,0.280160128 L11.5391,0.2773 L132.145,0.2773 Z M72.0645565,19.2773 C45.6683403,19.2773 26.0645,41.9123493 26.0645,48.7773 C26.0645,55.6698614 45.5027126,78.2773 72.0645565,78.2773 C98.5714363,78.2773 118.0645,55.6698614 118.0645,48.7773 C118.0645,41.9123493 98.3503355,19.2773 72.0645565,19.2773 Z M72.0645565,29.3955672 C82.6674442,29.3955672 91.5855547,37.997393 91.5855547,48.7773 C91.5855547,59.3366604 82.6674442,68.1866559 72.0645565,68.1866559 C61.2686157,68.1866559 52.6539957,59.3366604 52.543372,48.7773 C52.5159066,37.997393 61.2686157,29.3955672 72.0645565,29.3955672 Z M72.1198035,43.0978579 C68.916895,43.0978579 66.2938248,45.5792048 66.2938248,48.7773 C66.2938248,51.9478974 68.916895,54.4567421 72.1198035,54.4567421 C75.2674651,54.4567421 77.8631662,51.9478974 77.8631662,48.7773 C77.8631662,45.5792048 75.2674651,43.0978579 72.1198035,43.0978579 Z M42.7891,111.1172 L100.895,111.1172 C101.676,111.1172 102.262,110.6289 102.262,109.8477 C102.262,109.0664 101.676,108.5781 100.895,108.5781 L42.7891,108.5781 C42.0078,108.5781 41.4219,109.0664 41.4219,109.8477 C41.4219,110.6289 42.0078,111.1172 42.7891,111.1172 Z" id="Shape"></path>
                </g>
                <g id="Black-M" transform="translate(2378.520000, 418.000000)">
                    <path d="M117.199,0.252 C128.449589,0.252 135.163694,6.8412941 135.311507,17.9896876 L135.314,18.3672 L135.314,76.3262 C135.314,87.5767098 128.724901,94.2910976 117.576512,94.4389172 L117.199,94.44141 L18.5664,94.44141 C7.31591,94.44141 0.601512667,87.8520279 0.453692786,76.7037098 L0.4512,76.3262 L0.4512,18.3672 C0.4512,7.11661111 7.04059189,0.402310469 18.1888909,0.25449275 L18.5664,0.252 L117.199,0.252 Z M67.911592,24.252 C51.1477322,24.252 39.0206916,34.470549 34.0049125,41.8188515 L33.6188678,42.4003443 C32.1975438,44.604025 31.4512,46.5049501 31.4512,47.7256351 C31.4512,53.0857394 45.5597789,71.252 67.911592,71.252 C90.6598101,71.252 104.4512,53.0857394 104.4512,47.7256351 C104.4512,42.4183092 90.6598101,24.252 67.911592,24.252 Z M67.990808,34.7345971 C75.1772325,34.7345971 81.1219558,40.5435895 81.1219558,47.7784136 C81.1219558,54.8020154 75.1772325,60.7693975 67.990808,60.7693975 C60.7515728,60.7693975 54.8069578,54.8020154 54.8069578,47.7784136 C54.8069578,40.5172002 60.7515728,34.7345971 67.990808,34.7345971 Z M67.911592,42.1014758 C64.7675143,42.1014758 62.310409,44.7154737 62.310409,47.8048029 C62.310409,50.9205754 64.7675143,53.4289622 67.911592,53.4289622 C71.0820208,53.4289622 73.6183964,50.9205754 73.6183964,47.8048029 C73.6183964,44.7154737 71.0820208,42.1014758 67.911592,42.1014758 Z M40.7832,114.1191 L94.982,114.1191 C98.791,114.1191 101.818,110.8477 101.818,107.332 C101.818,103.8164 98.791,100.54492 94.982,100.54492 L40.7832,100.54492 C36.9746,100.54492 33.9473,103.8164 33.9473,107.332 C33.9473,110.8477 36.9746,114.1191 40.7832,114.1191 Z" id="Shape"></path>
                </g>
                <g id="Heavy-M" transform="translate(2083.320000, 420.000000)">
                    <path d="M115.441,0.0586 C126.010651,0.0586 132.143316,6.02098338 132.284507,16.4843386 L132.287,16.8555 L132.287,74.3262 C132.287,84.9434512 126.277238,91.0293105 115.812202,91.1694066 L115.441,91.17188 L17.248,91.17188 C6.6790407,91.17188 0.593762439,85.2094771 0.45367335,74.6990427 L0.4512,74.3262 L0.4512,16.8555 C0.4512,6.28644186 6.41358338,0.201162453 16.876842,0.0610733505 L17.248,0.0586 L115.441,0.0586 Z M65.923943,22.0586 C43.2057864,22.0586 28.4512,40.5390259 28.4512,46.0449988 C28.4512,51.5782132 43.2057864,70.0586 65.923943,70.0586 C89.023977,70.0586 103.4512,51.5782132 103.4512,46.0449988 C103.4512,40.5390259 89.023977,22.0586 65.923943,22.0586 Z M65.978457,32.1983141 C73.6420884,32.1983141 79.9420317,38.3856604 79.9420317,46.0722403 C79.9420317,53.567962 73.6420884,59.918925 65.978457,59.918925 C58.2875686,59.918925 51.9875695,53.567962 51.9875695,46.0722403 C51.9875695,38.3584188 58.2875686,32.1983141 65.978457,32.1983141 Z M65.923943,40.3209261 C62.73303,40.3209261 60.1966762,42.9376211 60.1966762,46.0994818 C60.1966762,49.2613426 62.73303,51.8507402 65.923943,51.8507402 C69.142113,51.8507402 71.7330367,49.2613426 71.7330367,46.0994818 C71.7330367,42.9376211 69.142113,40.3209261 65.923943,40.3209261 Z M39.8555,110.0684 L92.834,110.0684 C96.301,110.0684 98.986,107.1875 98.986,103.9648 C98.986,100.791 96.301,97.86133 92.834,97.86133 L39.8555,97.86133 C36.4375,97.86133 33.7031,100.791 33.7031,103.9648 C33.7031,107.1875 36.4375,110.0684 39.8555,110.0684 Z" id="Shape"></path>
                </g>
                <g id="Bold-M" transform="translate(1788.320000, 422.000000)">
                    <path d="M113.537,0.0605 C123.276712,0.0605 128.731588,5.29816173 128.866439,15.0212155 L128.869,15.3926 L128.869,72.375 C128.869,82.2114282 123.53587,87.5720366 113.904801,87.7045148 L113.537,87.707031 L15.7832,87.707031 C6.04319125,87.707031 0.588604156,82.469378 0.453761355,72.7463822 L0.4512,72.375 L0.4512,15.3926 C0.4512,5.5561125 5.78403698,0.195494672 15.4153883,0.0630161773 L15.7832,0.0605 L113.537,0.0605 Z M64.936806,19.0605 C41.3262734,19.0605 25.4512,38.2271357 25.4512,44.0605235 C25.4512,49.8650746 41.2973672,69.0605 64.936806,69.0605 C88.9228239,69.0605 104.4512,49.8650746 104.4512,44.0605235 C104.4512,38.2271357 88.8938586,19.0605 64.936806,19.0605 Z M64.9656531,28.9742933 C73.3650096,28.9742933 80.2054399,35.6696657 80.2054399,44.0605235 C80.2054399,52.2501712 73.3650096,59.1467067 64.9656531,59.1467067 C56.5374495,59.1467067 49.7256299,52.2501712 49.6965432,44.0605235 C49.6678766,35.6409466 56.5374495,28.9742933 64.9656531,28.9742933 Z M64.936806,38.0834814 C61.6174375,38.0834814 58.9331193,40.8133836 58.9331193,44.0892426 C58.9331193,47.3651017 61.6174375,50.0375068 64.936806,50.0375068 C68.2561154,50.0375068 70.9693398,47.3651017 70.9693398,44.0892426 C70.9693398,40.8133836 68.2561154,38.0834814 64.936806,38.0834814 Z M38.8789,105.8223 L90.441,105.8223 C93.469,105.8223 95.861,103.2832 95.861,100.4512 C95.861,97.57031 93.469,95.08008 90.441,95.08008 L38.8789,95.08008 C35.8516,95.08008 33.459,97.57031 33.459,100.4512 C33.459,103.2832 35.8516,105.8223 38.8789,105.8223 Z" id="Shape"></path>
                </g>
                <g id="Semibold-M" transform="translate(1492.780000, 423.000000)">
                    <path d="M112.17,0.4766 C121.371653,0.4766 126.390129,5.23006005 126.52232,14.4086707 L126.525,14.7832 L126.525,71.375 C126.525,80.7230197 121.627471,85.6011804 112.535898,85.7279346 L112.17,85.73047 L14.7578,85.73047 C5.55594933,85.73047 0.584783253,80.9770002 0.453854709,71.7514578 L0.4512,71.375 L0.4512,14.7832 C0.4512,5.48505067 5.29967474,0.607615289 14.3870713,0.47920335 L14.7578,0.4766 L112.17,0.4766 Z M63.9364787,17.4766 C39.9363796,17.4766 23.4512,36.9896116 23.4512,42.9914074 C23.4512,48.9635339 39.9363796,68.4766 63.9364787,68.4766 C88.3228599,68.4766 104.4512,48.9635339 104.4512,42.9914074 C104.4512,36.9896116 88.2930523,17.4766 63.9364787,17.4766 Z M63.9661646,27.1148222 C72.8176809,27.1148222 79.976126,34.1218016 79.976126,42.9914074 C79.976126,51.5948372 72.8176809,58.8679018 63.9661646,58.8679018 C55.0552157,58.8679018 47.9562032,51.5948372 47.9263339,42.9914074 C47.8968314,34.1218016 55.0552157,27.1148222 63.9661646,27.1148222 Z M63.9364787,36.900967 C60.5502755,36.900967 57.8176494,39.6505236 57.8176494,42.9914074 C57.8176494,46.3322307 60.5502755,49.0817873 63.9364787,49.0817873 C67.3226211,49.0817873 70.084994,46.3322307 70.084994,42.9914074 C70.084994,39.6505236 67.3226211,36.900967 63.9364787,36.900967 Z M38.1465,103.2598 L88.781,103.2598 C91.516,103.2598 93.664,101.0137 93.664,98.4258 C93.664,95.78906 91.516,93.54297 88.781,93.54297 L38.1465,93.54297 C35.4609,93.54297 33.3125,95.78906 33.3125,98.4258 C33.3125,101.0137 35.4609,103.2598 38.1465,103.2598 Z" id="Shape"></path>
                </g>
                <g id="Medium-M" transform="translate(1196.970000, 424.000000)">
                    <path d="M111.193,0.5508 C119.956569,0.5508 124.589319,4.91908322 124.716316,13.7024444 L124.719,14.0762 L124.719,70.4238 C124.719,79.3315685 120.207966,83.823561 111.560832,83.9466202 L111.193,83.94922 L13.9766,83.94922 C5.21322778,83.94922 0.580869483,79.5809465 0.453883329,70.7975568 L0.4512,70.4238 L0.4512,14.0762 C0.4512,5.16846111 4.96184479,0.676459298 13.6087762,0.553399784 L13.9766,0.5508 L111.193,0.5508 Z M62.9512305,16.5508 C39.1277011,16.5508 22.4512,36.0289172 22.4512,42.0359245 C22.4512,48.0726524 39.0979388,67.5508 62.9512305,67.5508 C87.131968,67.5508 103.4512,48.0726524 103.4512,42.0359245 C103.4512,36.0289172 87.1020838,16.5508 62.9512305,16.5508 Z M62.9809928,25.8289476 C72.0041412,25.8289476 79.2998588,32.9957234 79.2998588,42.0657059 C79.2998588,50.8680214 72.0041412,58.2726707 62.9809928,58.2726707 C53.8982588,58.2726707 46.6618827,50.8680214 46.6319388,42.0657059 C46.6022972,32.9659421 53.8982588,25.8289476 62.9809928,25.8289476 Z M62.9809928,35.9694762 C59.5861436,35.9694762 56.8464301,38.7350638 56.8464301,42.0657059 C56.8464301,45.3665666 59.5861436,48.1024338 62.9809928,48.1024338 C66.3163174,48.1024338 69.0857931,45.3665666 69.0857931,42.0657059 C69.0857931,38.7350638 66.3163174,35.9694762 62.9809928,35.9694762 Z M37.6094,101.0391 L87.5605,101.0391 C90.002,101.0391 92.004,99.0371 92.004,96.5957 C92.004,94.1543 90.002,92.10352 87.5605,92.10352 L37.6094,92.10352 C35.168,92.10352 33.166,94.1543 33.166,96.5957 C33.166,99.0371 35.168,101.0391 37.6094,101.0391 Z" id="Shape"></path>
                </g>
                <g id="Regular-M" transform="translate(901.430000, 425.000000)">
                    <path d="M109.875,0.918 C118.103986,0.918 122.253828,4.80668591 122.372385,13.0981423 L122.375,13.4668 L122.375,69.4238 C122.375,77.8449101 118.344418,81.8556508 110.235397,81.9701354 L109.875,81.97266 L13,81.97266 C4.7714087,81.97266 0.573787692,78.0839644 0.45384585,69.7924598 L0.4512,69.4238 L0.4512,13.4668 C0.4512,5.04573913 4.52956606,1.03500886 12.6395893,0.920524571 L13,0.918 L109.875,0.918 Z M60.9665619,15.918 C36.749257,15.918 19.4512,35.708586 19.4512,41.918 C19.4512,48.0968246 36.749257,67.918 60.9665619,67.918 C85.4897879,67.918 102.4512,48.0968246 102.4512,41.918 C102.4512,35.708586 85.4590641,15.918 60.9665619,15.918 Z M60.9665619,24.8803882 C70.4269179,24.8803882 78.0809659,32.3744475 78.0809659,41.9179906 C78.0809659,51.2168435 70.4269179,58.9556493 60.9665619,58.9556493 C51.4143481,58.9556493 43.8522206,51.2168435 43.8213765,41.9179906 C43.7909611,32.3744475 51.4143481,24.8803882 60.9665619,24.8803882 Z M60.9665619,35.7391566 C57.5375363,35.7391566 54.7208547,38.5227109 54.7208547,41.9179906 C54.7208547,45.2826997 57.5375363,48.066254 60.9665619,48.066254 C64.3649264,48.066254 67.181608,45.2826997 67.181608,41.9179906 C67.181608,38.5227109 64.3649264,35.7391566 60.9665619,35.7391566 Z M36.9258,98.4766 L85.9004,98.4766 C88.098,98.4766 89.855,96.7188 89.855,94.57031 C89.855,92.37305 88.098,90.56641 85.9004,90.56641 L36.9258,90.56641 C34.7773,90.56641 32.9707,92.37305 32.9707,94.57031 C32.9707,96.7188 34.7773,98.4766 36.9258,98.4766 Z" id="Shape"></path>
                </g>
                <g id="Light-M" transform="translate(606.360000, 427.000000)">
                    <path d="M107.678,0.7246 C115.129569,0.7246 118.984414,4.32219678 119.101261,11.7971697 L119.104,12.1504 L119.104,68.4004 C119.104,75.9965403 115.363795,79.7110396 108.024657,79.8235339 L107.678,79.82617 L11.877,79.82617 C4.37698769,79.82617 0.569289136,76.2285344 0.453904331,68.7536271 L0.4512,68.4004 L0.4512,12.1504 C0.4512,4.55419077 4.14351375,0.839729231 11.5281413,0.727236026 L11.877,0.7246 L107.678,0.7246 Z M59.965889,15.7246 C37.0438271,15.7246 20.4512,34.782105 20.4512,40.7097711 C20.4512,46.6078159 36.9847074,65.7246 59.965889,65.7246 C83.1539288,65.7246 99.4512,46.6078159 99.4512,40.7097711 C99.4512,34.782105 83.0654916,15.7246 59.965889,15.7246 Z M59.965889,24.3197645 C69.0164019,24.3197645 76.3812178,31.5514978 76.3812178,40.7097711 C76.3812178,49.6309524 69.0164019,57.1294598 59.965889,57.1294598 C50.8266362,57.1294598 43.5803018,49.6309524 43.521004,40.7097711 C43.4915618,31.5514978 50.8266362,24.3197645 59.965889,24.3197645 Z M59.9954489,35.1081217 C56.8899116,35.1081217 54.3166933,37.627392 54.3166933,40.7097711 C54.3166933,43.7625289 56.8899116,46.3114205 59.9954489,46.3114205 C63.0418665,46.3114205 65.5855249,43.7625289 65.5855249,40.7097711 C65.5855249,37.627392 63.0418665,35.1081217 59.9954489,35.1081217 Z M35.9004,94.6699 L83.6543,94.6699 C85.3145,94.6699 86.6816,93.3516 86.6816,91.69141 C86.6816,89.98242 85.3145,88.61523 83.6543,88.61523 L35.9004,88.61523 C34.1914,88.61523 32.8242,89.98242 32.8242,91.69141 C32.8242,93.3516 34.1914,94.6699 35.9004,94.6699 Z" id="Shape"></path>
                </g>
                <g id="Thin-M" transform="translate(311.842000, 430.000000)">
                    <path d="M104.748,0.1172 C111.228271,0.1172 114.593871,3.32590129 114.706097,9.69694341 L114.709,10.0293 L114.709,66.6699 C114.709,73.1979966 111.453236,76.5173533 105.080408,76.6279985 L104.748,76.63086 L10.3633,76.63086 C3.88322542,76.63086 0.564692359,73.422149 0.454061268,67.0046986 L0.4512,66.6699 L0.4512,10.0293 C0.4512,3.54922542 3.65990129,0.230692359 10.0309434,0.120061268 L10.3633,0.1172 L104.748,0.1172 Z M57.4654352,15.1172 C36.1328088,15.1172 20.4512,33.1010394 20.4512,38.6172 C20.4512,44.1333548 36.0480342,62.1172 57.4654352,62.1172 C78.9394875,62.1172 94.4512,44.1333548 94.4512,38.6172 C94.4512,33.1010394 78.7982931,15.1172 57.4654352,15.1172 Z M57.4654352,23.1944576 C65.9702584,23.1944576 73.0342041,30.0333565 73.0342041,38.6171971 C73.0342041,47.0321575 65.9702584,54.0680987 57.4654352,54.0680987 C48.8193596,54.0680987 41.9533755,47.0321575 41.8684307,38.6171971 C41.8403621,30.0333565 48.8193596,23.1944576 57.4654352,23.1944576 Z M57.4937319,33.8046301 C54.7812365,33.8046301 52.5490336,35.9154021 52.5490336,38.6171971 C52.5490336,41.2908647 54.7812365,43.4579493 57.4937319,43.4579493 C60.1779306,43.4579493 62.3535979,41.2908647 62.3535979,38.6171971 C62.3535979,35.9154021 60.1779306,33.8046301 57.4937319,33.8046301 Z M34.4844,89.32617 L80.627,89.32617 C81.7012,89.32617 82.5312,88.54492 82.5312,87.4707 C82.5312,86.44531 81.7012,85.66406 80.627,85.66406 L34.4844,85.66406 C33.459,85.66406 32.6289,86.44531 32.6289,87.4707 C32.6289,88.54492 33.459,89.32617 34.4844,89.32617 Z" id="Shape"></path>
                </g>
                <g id="Ultralight-M" transform="translate(16.254000, 431.000000)">
                    <path d="M103.283,0.3379 C109.231772,0.3379 112.352449,3.30710997 112.460116,9.19915871 L112.463,9.5176 L112.463,66.3535 C112.463,72.3019772 109.446687,75.4226492 103.598978,75.5303156 L103.283,75.5332 L9.6309,75.5332 C3.6343807,75.5332 0.560065159,72.5168873 0.454040088,66.6694622 L0.4512,66.3535 L0.4512,9.5176 C0.4512,3.52117895 3.42031345,0.446768606 9.31245363,0.340740179 L9.6309,0.3379 L103.283,0.3379 Z M56.4649895,15.3379 C35.7625948,15.3379 20.4512,32.9513985 20.4512,38.3240354 C20.4512,43.6967289 35.6514483,61.3379 56.4649895,61.3379 C77.250929,61.3379 92.4512,43.6967289 92.4512,38.3240354 C92.4512,37.0883289 91.6368095,35.2050808 90.1321137,33.0375292 L89.7240069,32.4658705 C84.4289723,25.2454929 71.9084682,15.3379 56.4649895,15.3379 Z M56.4649895,23.2030511 C64.7459473,23.2030511 71.6930329,29.9327146 71.6930329,38.3240354 C71.6930329,46.5492301 64.7459473,53.4450651 56.4649895,53.4450651 C48.0172833,53.4450651 41.2647184,46.5492301 41.2089486,38.3240354 C41.1813443,29.9327146 48.0172833,23.2030511 56.4649895,23.2030511 Z M56.4927619,33.809877 C53.9362207,33.809877 51.852095,35.8038997 51.852095,38.3240354 C51.852095,40.8165496 53.9362207,42.8381938 56.4927619,42.8381938 C58.9937013,42.8381938 61.0500545,40.8165496 61.0500545,38.3240354 C61.0500545,35.8038997 58.9937013,33.809877 56.4927619,33.809877 Z M33.8008,87.05664 L79.1133,87.05664 C79.8457,87.05664 80.3828,86.61719 80.3828,85.88477 C80.3828,85.15234 79.8457,84.66406 79.1133,84.66406 L33.8008,84.66406 C33.0684,84.66406 32.5312,85.15234 32.5312,85.88477 C32.5312,86.61719 33.0684,87.05664 33.8008,87.05664 Z" id="Shape"></path>
                </g>
                <g id="Black-S" transform="translate(2392.900000, 0.000000)">
                    <path d="M92.123,0.6055 C100.889905,0.6055 106.092142,5.68984869 106.231142,14.3585385 L106.234,14.7168 L106.234,60.0781 C106.234,68.8447095 101.150235,74.0475745 92.4812732,74.1865916 L92.123,74.18945 L14.877,74.18945 C6.11029189,74.18945 0.907493641,69.1050527 0.768478405,60.4363615 L0.76562,60.0781 L0.76562,14.7168 C0.76562,5.95019054 5.84994922,0.74737416 14.5187345,0.608358416 L14.877,0.6055 L92.123,0.6055 Z M53.2392008,18.6055 C42.2538068,18.6055 33.808845,24.2772051 29.0634737,29.5236467 L28.6227562,30.021827 C28.2648745,30.4355807 27.9305277,30.8454365 27.6202952,31.2483466 L27.2596282,31.7283097 C26.6197618,32.6014146 26.0977305,33.4350014 25.6997045,34.1966159 L25.4949345,34.6047092 C25.0139401,35.6061227 24.76562,36.462731 24.76562,37.0922406 C24.76562,37.7257238 25.0139401,38.5857105 25.4949345,39.5899961 L25.6997045,39.9992114 C25.7358887,40.0686316 25.7730977,40.1386445 25.8113269,40.2092257 L26.0529076,40.6393367 C26.5181139,41.4396608 27.1056427,42.3028499 27.8093238,43.1964848 L28.204632,43.6867466 C32.74671,49.1907021 41.5563214,55.6055 53.2392008,55.6055 C62.6483646,55.6055 70.0968859,51.5914284 75.0200117,47.1894606 L75.5665279,46.6896623 C76.2807506,46.0215749 76.9369494,45.3477673 77.5331821,44.6807103 L77.9690825,44.1818782 C78.8182748,43.1875248 79.5314506,42.215375 80.102055,41.3075174 L80.3754459,40.8591412 C80.4190208,40.7853697 80.461598,40.7120934 80.5031738,40.6393367 L80.7405804,40.2092257 C80.7781352,40.1386445 80.8146809,40.0686316 80.8502137,39.9992114 L81.0512264,39.5899961 C81.5232212,38.5857105 81.76562,37.7257238 81.76562,37.0922406 C81.76562,36.462731 81.5232212,35.6061227 81.0512264,34.6047092 L80.8502137,34.1966159 C80.7080823,33.9196652 80.5497454,33.6331974 80.3754459,33.3387733 L80.102055,32.8913647 C80.0545047,32.8158671 80.0059642,32.7399209 79.9564375,32.6635506 L79.647472,32.2004345 C79.1663617,31.4987112 78.6059767,30.7665836 77.9690825,30.021827 L77.5331821,29.5236467 C72.8378501,24.2772051 64.4236785,18.6055 53.2392008,18.6055 Z M53.2918504,26.8129744 C58.9286034,26.8129744 63.5907977,31.408059 63.5907977,37.1187866 C63.5907977,42.6701289 58.9286034,47.3980528 53.2918504,47.3980528 C47.6287726,47.3980528 42.9665783,42.6701289 42.9665783,37.1187866 C42.9665783,31.381513 47.6287726,26.8129744 53.2918504,26.8129744 Z M53.2392008,32.6564868 C50.7895339,32.6564868 48.8667415,34.7016781 48.8667415,37.1453327 C48.8667415,39.5889873 50.7895339,41.5810864 53.2392008,41.5810864 C55.7151385,41.5810864 57.6906345,39.5889873 57.6906345,37.1453327 C57.6906345,34.7016781 55.7151385,32.6564868 53.2392008,32.6564868 Z M32.3086,89.57031 L74.6914,89.57031 C77.6699,89.57031 80.0137,87.03125 80.0137,84.29688 C80.0137,81.5625 77.6699,79.023438 74.6914,79.023438 L32.3086,79.023438 C29.3301,79.023438 26.9863,81.5625 26.9863,84.29688 C26.9863,87.03125 29.3301,89.57031 32.3086,89.57031 Z" id="Shape"></path>
                </g>
                <g id="Heavy-S" transform="translate(2097.170000, 1.000000)">
                    <path d="M91.049,0.7773 C99.3287183,0.7773 104.144124,5.42865489 104.278127,13.6550544 L104.281,14.0098 L104.281,58.9805 C104.281,67.3087254 99.5822101,72.0773695 91.4017205,72.2100454 L91.049,72.21289 L13.998,72.21289 C5.66977465,72.21289 0.90114025,67.5615448 0.768464618,59.3352415 L0.76562,58.9805 L0.76562,14.0098 C0.76562,5.68147606 5.41695545,0.912820829 13.6432585,0.78014463 L13.998,0.7773 L91.049,0.7773 Z M52.2519473,17.7773 C40.0988762,17.7773 30.839504,24.5384045 26.1579804,30.2421808 L25.7568278,30.7425123 L25.7568278,30.7425123 L25.3796928,31.2361624 L25.3796928,31.2361624 L25.0268325,31.7219376 C23.5507375,33.8081771 22.76562,35.6389883 22.76562,36.7773395 C22.76562,37.7843294 23.3800093,39.3332019 24.5436194,41.1214212 L24.8595857,41.5931437 C25.0237553,41.8315207 25.1971726,42.0735223 25.3796928,42.3184769 L25.7568278,42.8121248 L25.7568278,42.8121248 L26.1579804,43.3124541 L26.1579804,43.3124541 L26.5828934,43.8182714 L26.5828934,43.8182714 L27.0313097,44.328383 C31.9388547,49.788234 40.8137627,55.7773 52.2519473,55.7773 C62.2469655,55.7773 70.1753497,51.3542227 75.2869042,46.6450272 L75.8333181,46.1303606 C77.2604315,44.7559508 78.4468533,43.3700584 79.3741144,42.0745315 L79.7096531,41.5931437 C81.056813,39.6066685 81.76562,37.8718938 81.76562,36.7773395 C81.76562,35.3325092 80.5305946,32.7721626 78.2225862,29.9898824 L77.7911608,29.4817667 L77.7911608,29.4817667 L77.3363049,28.9699534 C72.4380649,23.5806789 63.7007863,17.7773 52.2519473,17.7773 Z M52.2792591,25.7903466 C58.3186753,25.7903466 63.2922629,30.6642686 63.2922629,36.8048598 C63.2922629,42.7526958 58.3186753,47.7917963 52.2792591,47.7917963 C46.2125871,47.7917963 41.2663112,42.7526958 41.2663112,36.8048598 C41.2663112,30.6642686 46.2125871,25.7903466 52.2792591,25.7903466 Z M52.2519473,32.1787902 C49.7105022,32.1787902 47.7155712,34.2990416 47.7155712,36.8048598 C47.7155712,39.3381984 49.7105022,41.4034091 52.2519473,41.4034091 C54.7933925,41.4034091 56.8429469,39.3381984 56.8429469,36.8048598 C56.8429469,34.2990416 54.7933925,32.1787902 52.2519473,32.1787902 Z M31.7227,87.20312 L73.3242,87.20312 C76.0586,87.20312 78.207,84.9082 78.207,82.36914 C78.207,79.78125 76.0586,77.48633 73.3242,77.48633 L31.7227,77.48633 C28.9883,77.48633 26.8398,79.78125 26.8398,82.36914 C26.8398,84.9082 28.9883,87.20312 31.7227,87.20312 Z" id="Shape"></path>
                </g>
                <g id="Bold-S" transform="translate(1801.550000, 3.000000)">
                    <path d="M89.8281,0.0957 C97.618153,0.0957 101.951485,4.21604493 102.08101,11.9902001 L102.084,12.3516 L102.084,56.8828 C102.084,64.7692697 97.8686993,69.0090775 90.1851837,69.135746 L89.8281,69.13867 L13.0215,69.13867 C5.23115152,69.13867 0.898125574,65.0183542 0.768610175,57.2441999 L0.76562,56.8828 L0.76562,12.3516 C0.76562,4.4651303 4.98061036,0.225293411 12.6644031,0.0986239899 L13.0215,0.0957 L89.8281,0.0957 Z M51.250824,15.0957 C38.4366918,15.0957 28.4910211,22.182439 23.4379589,28.1830022 L23.0048491,28.7094369 C20.9033003,31.3254372 19.76562,33.683241 19.76562,35.0810474 C19.76562,36.48764 20.9033003,38.8515958 23.0048491,41.4719035 L23.4379589,41.9991753 L23.4379589,41.9991753 L23.8964629,42.532037 C24.2890447,42.9780713 24.7077568,43.4286302 25.1517946,43.8804681 L25.6967448,44.42308 C31.1739463,49.7607157 40.1326799,55.0957 51.250824,55.0957 C70.4170653,55.0957 82.76562,39.7696894 82.76562,35.0810474 C82.76562,30.4216926 70.4170653,15.0957 51.250824,15.0957 Z M51.2801284,23.007787 C57.9809568,23.007787 63.4235521,28.3704531 63.4235521,35.1103946 C63.4235521,41.6744333 57.9809568,47.2129422 51.2801284,47.2129422 C44.5499956,47.2129422 39.1071669,41.6744333 39.1071669,35.1103946 C39.0780959,28.3411659 44.5499956,23.007787 51.2801284,23.007787 Z M51.250824,30.2459098 C48.5588308,30.2459098 46.3934785,32.4437051 46.3934785,35.1103946 C46.3934785,37.777024 48.5588308,39.9748193 51.250824,39.9748193 C53.9428771,39.9748193 56.1374739,37.777024 56.1374739,35.1103946 C56.1374739,32.4437051 53.9428771,30.2459098 51.250824,30.2459098 Z M31.0879,83.68945 L71.7617,83.68945 C74.2031,83.68945 76.1562,81.63867 76.1562,79.29492 C76.1562,76.9511719 74.2031,74.90039 71.7617,74.90039 L31.0879,74.90039 C28.6465,74.90039 26.6445,76.9511719 26.6445,79.29492 C26.6445,81.63867 28.6465,83.68945 31.0879,83.68945 Z" id="Shape"></path>
                </g>
                <g id="Semibold-S" transform="translate(1505.600000, 4.000000)">
                    <path d="M88.998,0.0234 C96.4023077,0.0234 100.444502,3.81043072 100.567125,11.2445548 L100.57,11.5957 L100.57,55.834 C100.57,63.3820615 96.6417179,67.2378287 89.3426123,67.3546812 L88.998,67.35742 L12.3379,67.35742 C4.88593692,67.35742 0.889659981,63.6177768 0.768461392,56.1851109 L0.76562,55.834 L0.76562,11.5957 C0.76562,4.04763846 4.64725136,0.144483716 11.9911219,0.0261731703 L12.3379,0.0234 L88.998,0.0234 Z M50.265473,14.0234 C31.5706941,14.0234 18.76562,29.3148758 18.76562,34.0086211 C18.76562,35.5200607 20.0768596,38.1136923 22.4727359,40.9421416 L22.934618,41.4750208 C28.1539203,47.3624094 37.9269189,54.0234 50.265473,54.0234 C62.7974686,54.0234 72.5086941,47.3624094 77.6636287,41.4750208 L78.119659,40.9421416 C80.4843631,38.1136923 81.76562,35.5200607 81.76562,34.0086211 C81.76562,33.163747 81.3602223,31.9755064 80.5846328,30.5948851 L80.3124404,30.1277599 C76.5016862,23.8099445 65.4557707,14.0234 50.265473,14.0234 Z M50.2948183,21.5510945 C57.1514849,21.5510945 62.7189371,27.0713554 62.7189371,34.0381849 C62.7189371,40.7983099 57.1514849,46.4957116 50.2948183,46.4957116 C43.379461,46.4957116 37.841125,40.7983099 37.841125,34.0381849 C37.8120688,27.0418521 43.379461,21.5510945 50.2948183,21.5510945 Z M50.265473,29.1377956 C47.5696628,29.1377956 45.4013486,31.3518127 45.4013486,34.0381849 C45.4013486,36.6949934 47.5696628,38.9090105 50.265473,38.9090105 C52.9319978,38.9090105 55.1296573,36.6949934 55.1296573,34.0381849 C55.1296573,31.3518127 52.9319978,29.1377956 50.265473,29.1377956 Z M30.6484,81.66406 L70.6875,81.66406 C72.9336,81.66406 74.7891,79.75977 74.7891,77.5625 C74.7891,75.365234 72.9336,73.46094 70.6875,73.46094 L30.6484,73.46094 C28.3535,73.46094 26.5469,75.365234 26.5469,77.5625 C26.5469,79.75977 28.3535,81.66406 30.6484,81.66406 Z" id="Shape"></path>
                </g>
                <g id="Medium-S" transform="translate(1209.470000, 4.000000)">
                    <path d="M88.3633,0.707 C95.5235127,0.707 99.2777806,4.20650244 99.3951597,11.3916542 L99.398,11.7422 L99.398,55.7852 C99.398,63.0411683 95.7573862,66.7031176 88.7071028,66.8175418 L88.3633,66.82031 L11.8008,66.82031 C4.64088254,66.82031 0.885863865,63.2735348 0.768460883,56.1334905 L0.76562,55.7852 L0.76562,11.7422 C0.76562,4.43810794 4.40698919,0.822667523 11.4570107,0.709731922 L11.8008,0.707 L88.3633,0.707 Z M50.2808603,13.707 C31.116835,13.707 17.76562,29.3405038 17.76562,34.2069751 C17.76562,39.0734463 31.116835,54.707 50.2808603,54.707 C69.7476466,54.707 82.76562,39.0734463 82.76562,34.2069751 C82.76562,29.3405038 69.7476466,13.707 50.2808603,13.707 Z M50.2808603,21.1587899 C57.5166158,21.1587899 63.3294013,26.9072994 63.3294013,34.2069751 C63.3294013,41.324201 57.5166158,47.2856204 50.2808603,47.2856204 C43.0149094,47.2856204 37.2321471,41.324201 37.2321471,34.2069751 C37.2021239,26.9072994 43.0149094,21.1587899 50.2808603,21.1587899 Z M50.2808603,29.1884519 C47.525879,29.1884519 45.2552655,31.4696045 45.2552655,34.2374353 C45.2552655,36.944408 47.525879,39.2255605 50.2808603,39.2255605 C53.0359037,39.2255605 55.3065172,36.944408 55.3065172,34.2374353 C55.3065172,31.4696045 53.0359037,29.1884519 50.2808603,29.1884519 Z M30.3066,80.83398 L69.8574,80.83398 C72.0059,80.83398 73.7148,79.07617 73.7148,77.02539 C73.7148,74.92578 72.0059,73.16797 69.8574,73.16797 L30.3066,73.16797 C28.1582,73.16797 26.4492,74.92578 26.4492,77.02539 C26.4492,79.07617 28.1582,80.83398 30.3066,80.83398 Z" id="Shape"></path>
                </g>
                <g id="Regular-S" transform="translate(913.520000, 5.000000)">
                    <path d="M87.5332,0.6348 C94.3551645,0.6348 97.7738273,3.80152201 97.8823321,10.6466847 L97.885,10.9863 L97.885,54.6875 C97.885,61.6534048 94.5763689,64.9798058 87.865963,65.0852969 L87.5332,65.08789 L11.1172,65.08789 C4.34526557,65.08789 0.880203494,61.8755697 0.768414824,55.0326723 L0.76562,54.6875 L0.76562,10.9863 C0.76562,4.02226721 4.11966676,0.743082585 10.7813592,0.637439884 L11.1172,0.6348 L87.5332,0.6348 Z M49.2813778,11.6348 C29.678422,11.6348 15.76562,27.5809942 15.76562,32.6347871 C15.76562,37.657208 29.678422,53.6348 49.2813778,53.6348 C60.2177804,53.6348 69.2531234,48.8015784 75.1703106,43.6160737 L75.8033938,43.0492003 C80.2510033,38.9796802 82.76562,34.7944281 82.76562,32.6347871 C82.76562,27.5809942 69.1657461,11.6348 49.2813778,11.6348 Z M49.2813778,18.8859221 C56.9099929,18.8859221 63.0066228,24.9128271 63.0066228,32.6347871 C63.0066228,40.1370142 56.9099929,46.3836522 49.2813778,46.3836522 C41.5902693,46.3836522 35.5561969,40.1370142 35.4934024,32.6347871 C35.4623927,24.9128271 41.5902693,18.8859221 49.2813778,18.8859221 Z M49.2813778,27.4554418 C46.4363266,27.4554418 44.0914788,29.8096955 44.0914788,32.6347871 C44.0914788,35.4285067 46.4363266,37.7827605 49.2813778,37.7827605 C52.0952464,37.7827605 54.4400942,35.4285067 54.4400942,32.6347871 C54.4400942,29.8096955 52.0952464,27.4554418 49.2813778,27.4554418 Z M29.8672,78.80859 L68.832,78.80859 C70.7363,78.80859 72.3477,77.24609 72.3477,75.292969 C72.3477,73.33984 70.7363,71.72852 68.832,71.72852 L29.8672,71.72852 C27.9141,71.72852 26.3516,73.33984 26.3516,75.292969 C26.3516,77.24609 27.9141,78.80859 29.8672,78.80859 Z" id="Shape"></path>
                </g>
                <g id="Light-S" transform="translate(618.270000, 7.000000)">
                    <path d="M85.5801,0.1973 C91.7222431,0.1973 94.8463125,3.12111026 94.9522131,9.24693031 L94.955,9.5723 L94.955,53.5664 C94.955,59.8046569 91.9368297,62.8360233 85.9005839,62.9386988 L85.5801,62.9414 L10.1406,62.9414 C3.99835862,62.9414 0.874306891,60.0175897 0.768406843,53.8917697 L0.76562,53.5664 L0.76562,9.5723 C0.76562,3.3340431 3.78377102,0.302676694 9.82011102,0.200001235 L10.1406,0.1973 L85.5801,0.1973 Z M47.7655889,11.1973 C36.0406727,11.1973 26.3883632,17.243591 20.8507953,22.9096177 L20.3359138,23.4478839 C17.4057714,26.5786651 15.76562,29.5291123 15.76562,31.1972784 C15.76562,35.9333187 29.1242677,51.1973 47.7655889,51.1973 C60.397708,51.1973 70.4676014,44.3452988 75.7380934,38.3985523 L76.1971885,37.8686341 C78.5022777,35.1453585 79.76562,32.6654509 79.76562,31.1972784 C79.76562,26.4310895 66.5588119,11.1973 47.7655889,11.1973 Z M47.7655889,18.0751229 C55.0824897,18.0751229 61.0331453,23.8669802 61.0331453,31.1972784 C61.0331453,38.3466235 55.0824897,44.3194957 47.7655889,44.3194957 C40.3880021,44.3194957 34.5284377,38.3466235 34.4978012,31.1972784 C34.4676895,23.8669802 40.3880021,18.0751229 47.7655889,18.0751229 Z M47.7655889,26.581894 C45.1850004,26.581894 43.059744,28.6633794 43.059744,31.1972784 C43.059744,33.7010906 45.1850004,35.8126628 47.7655889,35.8126628 C50.3158965,35.8126628 52.4411529,33.7010906 52.4411529,31.1972784 C52.4411529,28.6633794 50.3158965,26.581894 47.7655889,26.581894 Z M28.9395,75.24609 L66.8301,75.24609 C68.2949,75.24609 69.5645,74.02539 69.5645,72.511719 C69.5645,70.99805 68.2949,69.77734 66.8301,69.77734 L28.9395,69.77734 C27.4258,69.77734 26.2051,70.99805 26.2051,72.511719 C26.2051,74.02539 27.4258,75.24609 28.9395,75.24609 Z" id="Shape"></path>
                </g>
                <g id="Thin-S" transform="translate(323.491000, 9.000000)">
                    <path d="M83.041,0.3457 C88.3126352,0.3457 90.9976014,2.88564866 91.0952367,8.10405689 L91.098,8.4023 L91.098,52.6895 C91.098,58.0090315 88.5106567,60.64749 83.3366319,60.7433864 L83.041,60.7461 L8.8223,60.7461 C3.59856111,60.7461 0.867780823,58.2061513 0.768432218,52.9877431 L0.76562,52.6895 L0.76562,8.4023 C0.76562,3.08276852 3.39966438,0.444310014 8.52928007,0.348413585 L8.8223,0.3457 L83.041,0.3457 Z M46.2507384,11.3457 C36.7745992,11.3457 28.6432298,15.5944631 23.167521,20.2008063 L22.5701042,20.713896 C22.2769267,20.970979 21.9920955,21.2287207 21.7158355,21.4864541 L21.1748101,22.0017121 C20.2041261,22.9456062 19.3506905,23.8834076 18.625584,24.7822249 L18.2428648,25.2684251 L18.2428648,25.2684251 L17.8859989,25.7457067 C17.7713968,25.9031824 17.6611703,26.0589739 17.5553859,26.2128837 L17.2514254,26.6687699 C16.2830885,28.1682544 15.76562,29.4597893 15.76562,30.3456821 C15.76562,31.453048 16.568549,33.1942321 18.0485403,35.1831149 L18.4166734,35.6650049 C19.2421816,36.7185475 20.2480446,37.8307153 21.4165646,38.9472168 L21.9673667,39.4626352 C27.4021874,44.4441656 36.0205513,49.3457 46.2507384,49.3457 C58.2651024,49.3457 68.0500126,42.6082758 73.0820843,36.9035591 L73.5136921,36.4030795 C73.7232646,36.1543774 73.9234418,35.9081301 74.1140072,35.6650049 L74.4822579,35.1831149 C75.9627013,33.1942321 76.76562,31.453048 76.76562,30.3456821 C76.76562,29.2383161 75.9533409,27.4971343 74.461197,25.5082548 L74.0900968,25.0263657 L74.0900968,25.0263657 L73.6932966,24.5361511 C73.0107723,23.7128479 72.2228594,22.8597977 71.3380324,22.0017121 L70.7955744,21.4864541 C70.5185983,21.2287207 70.2330525,20.970979 69.9391658,20.713896 L69.3403389,20.2008063 C63.8520268,15.5944631 55.7106829,11.3457 46.2507384,11.3457 Z M46.2507384,17.8441846 C53.288058,17.8441846 59.1574792,23.4100939 59.1574792,30.3456821 C59.1574792,37.135589 53.288058,42.8472393 46.2507384,42.8472393 C39.123571,42.8472393 33.433784,37.135589 33.3736949,30.3456821 C33.3439363,23.4100939 39.123571,17.8441846 46.2507384,17.8441846 Z M46.2806672,26.5573712 C44.0945757,26.5573712 42.3277942,28.2184127 42.3277942,30.3456821 C42.3277942,32.4438272 44.0945757,34.1340527 46.2806672,34.1340527 C48.4367686,34.1340527 50.2036114,32.4438272 50.2036114,30.3456821 C50.2036114,28.2184127 48.4367686,26.5573712 46.2806672,26.5573712 Z M27.7188,71.0976562 L64.1445,71.0976562 C65.1211,71.0976562 65.8535,70.414062 65.8535,69.48633 C65.8535,68.50977 65.1211,67.77734 64.1445,67.77734 L27.7188,67.77734 C26.791,67.77734 26.0098,68.50977 26.0098,69.48633 C26.0098,70.414062 26.791,71.0976562 27.7188,71.0976562 Z" id="Shape"></path>
                </g>
                <g id="Ultralight-S" transform="translate(27.780000, 10.000000)">
                    <path d="M81.7227,0.4199 C86.507844,0.4199 88.995135,2.81158412 89.0927125,7.50290378 L89.0957,7.793 L89.0957,52.2754 C89.0957,57.108368 86.7041119,59.5497479 82.0127961,59.6454699 L81.7227,59.6484 L8.1387,59.6484 C3.353556,59.6484 0.866188208,57.3036794 0.768607554,52.5683082 L0.76562,52.2754 L0.76562,7.793 C0.76562,3.007856 3.15728491,0.520469 7.84860381,0.422887578 L8.1387,0.4199 L81.7227,0.4199 Z M44.7514703,12.4199 C35.574517,12.4199 27.7239927,16.5955038 22.5168537,21.0517123 L21.9593517,21.53877 C21.7770553,21.7013687 21.5983176,21.8641513 21.4232019,22.0269302 L20.9087844,22.5150693 C20.8248802,22.5963616 20.7418974,22.6776063 20.6598439,22.7587798 L20.1787371,23.2447801 C19.7872128,23.6487571 19.4193157,24.0497857 19.0760352,24.4449395 L18.6759779,24.9161168 C16.8000904,27.1780341 15.76562,29.2029461 15.76562,30.419883 C15.76562,31.0912965 16.0783253,32.0086581 16.6723635,33.0760762 L16.908254,33.4832046 C17.4061648,34.3107801 18.0601195,35.21602 18.8568827,36.1584701 L19.2671038,36.6326086 C19.689103,37.1094735 20.1462529,37.5939553 20.636899,38.0809973 L21.1386493,38.5687054 C21.2241148,38.6500698 21.3104955,38.7314586 21.3977836,38.8128483 L21.9323408,39.3010095 C27.1129221,43.9350835 35.1921151,48.4199 44.7514703,48.4199 C54.3270459,48.4199 62.4131625,43.9350835 67.5966989,39.3010095 L68.1315528,38.8128483 C68.3062232,38.650069 68.4772591,38.4872932 68.6445993,38.3247082 L69.1354723,37.8377131 C69.6950804,37.2706569 70.2086697,36.7082326 70.6736229,36.1584701 L71.0601823,35.6905332 C72.8079723,33.5230463 73.76562,31.5948566 73.76562,30.419883 C73.76562,29.3288362 72.9302668,27.5883348 71.4011833,25.6098501 L71.0360675,25.1492394 C70.973184,25.0718293 70.9092903,24.994114 70.8443945,24.9161168 L70.4430598,24.4449395 L70.4430598,24.4449395 L70.0180625,23.9681223 C69.7997126,23.7284911 69.5726344,23.4871663 69.3370453,23.2447801 L68.8545837,22.7587798 L68.8545837,22.7587798 L68.3498133,22.2710727 C68.0919154,22.0269797 67.8257966,21.7826681 67.5516747,21.53877 L66.9928243,21.0517123 C61.7733934,16.5955038 53.9127401,12.4199 44.7514703,12.4199 Z M44.7514703,18.5763591 C51.4426922,18.5763591 57.0234533,23.8493258 57.0234533,30.419883 C57.0234533,36.8524264 51.4426922,42.2634635 44.7514703,42.2634635 C37.9748193,42.2634635 32.5648579,36.8524264 32.507724,30.419883 C32.4794289,23.8493258 37.9748193,18.5763591 44.7514703,18.5763591 Z M44.7799272,26.8309569 C42.7013483,26.8309569 41.0214578,28.4045752 41.0214578,30.419883 C41.0214578,32.4075994 42.7013483,34.0088657 44.7799272,34.0088657 C46.8299908,34.0088657 48.5099397,32.4075994 48.5099397,30.419883 C48.5099397,28.4045752 46.8299908,26.8309569 44.7799272,26.8309569 Z M27.084,69.023438 L62.7773,69.023438 C63.4609,69.023438 63.9492,68.58398 63.9492,67.94922 C63.9492,67.26562 63.4609,66.82617 62.7773,66.82617 L27.084,66.82617 C26.4492,66.82617 25.9121,67.26562 25.9121,67.94922 C25.9121,68.58398 26.4492,69.023438 27.084,69.023438 Z" id="Shape"></path>
                </g>
            </g>
        </g>
    </g>
</svg>