<?xml version="1.0" encoding="UTF-8"?>
<!--Generator: Apple Native CoreSVG 175-->
<!DOCTYPE svg
PUBLIC "-//W3C//DTD SVG 1.1//EN"
       "http://www.w3.org/Graphics/SVG/1.1/DTD/svg11.dtd">
<svg version="1.1" xmlns="http://www.w3.org/2000/svg" xmlns:xlink="http://www.w3.org/1999/xlink" width="3300" height="2200">
 <!--glyph: "", point size: 100.0, font version: "17.3d3e1", template writer version: "65.1"-->
 <g id="Notes">
  <rect height="2200" id="artboard" style="fill:white;opacity:1" width="3300" x="0" y="0"/>
  <line style="fill:none;stroke:black;opacity:1;stroke-width:0.5;" x1="263" x2="3036" y1="292" y2="292"/>
  <text style="stroke:none;fill:black;font-family:sans-serif;font-size:13;font-weight:bold;" transform="matrix(1 0 0 1 263 322)">Weight/Scale Variations</text>
  <text style="stroke:none;fill:black;font-family:sans-serif;font-size:13;text-anchor:middle;" transform="matrix(1 0 0 1 559.711 322)">Ultralight</text>
  <text style="stroke:none;fill:black;font-family:sans-serif;font-size:13;text-anchor:middle;" transform="matrix(1 0 0 1 856.422 322)">Thin</text>
  <text style="stroke:none;fill:black;font-family:sans-serif;font-size:13;text-anchor:middle;" transform="matrix(1 0 0 1 1153.13 322)">Light</text>
  <text style="stroke:none;fill:black;font-family:sans-serif;font-size:13;text-anchor:middle;" transform="matrix(1 0 0 1 1449.84 322)">Regular</text>
  <text style="stroke:none;fill:black;font-family:sans-serif;font-size:13;text-anchor:middle;" transform="matrix(1 0 0 1 1746.56 322)">Medium</text>
  <text style="stroke:none;fill:black;font-family:sans-serif;font-size:13;text-anchor:middle;" transform="matrix(1 0 0 1 2043.27 322)">Semibold</text>
  <text style="stroke:none;fill:black;font-family:sans-serif;font-size:13;text-anchor:middle;" transform="matrix(1 0 0 1 2339.98 322)">Bold</text>
  <text style="stroke:none;fill:black;font-family:sans-serif;font-size:13;text-anchor:middle;" transform="matrix(1 0 0 1 2636.69 322)">Heavy</text>
  <text style="stroke:none;fill:black;font-family:sans-serif;font-size:13;text-anchor:middle;" transform="matrix(1 0 0 1 2933.4 322)">Black</text>
  <line style="fill:none;stroke:black;opacity:1;stroke-width:0.5;" x1="263" x2="3036" y1="1903" y2="1903"/>
  <g transform="matrix(1 0 0 1 263 1933)">
   <path d="M9.24805 0.830078Q10.8691 0.830078 12.2949 0.214844Q13.7207-0.400391 14.8096-1.49414Q15.8984-2.58789 16.5186-4.01367Q17.1387-5.43945 17.1387-7.05078Q17.1387-8.66211 16.5186-10.0879Q15.8984-11.5137 14.8047-12.6074Q13.7109-13.7012 12.2852-14.3164Q10.8594-14.9316 9.23828-14.9316Q7.62695-14.9316 6.20117-14.3164Q4.77539-13.7012 3.69141-12.6074Q2.60742-11.5137 1.9873-10.0879Q1.36719-8.66211 1.36719-7.05078Q1.36719-5.43945 1.9873-4.01367Q2.60742-2.58789 3.69629-1.49414Q4.78516-0.400391 6.21094 0.214844Q7.63672 0.830078 9.24805 0.830078ZM9.24805-0.654297Q7.91992-0.654297 6.7627-1.14746Q5.60547-1.64062 4.73145-2.51953Q3.85742-3.39844 3.36426-4.56055Q2.87109-5.72266 2.87109-7.05078Q2.87109-8.37891 3.35938-9.54102Q3.84766-10.7031 4.72168-11.582Q5.5957-12.4609 6.75293-12.9541Q7.91016-13.4473 9.23828-13.4473Q10.5762-13.4473 11.7334-12.9541Q12.8906-12.4609 13.7695-11.582Q14.6484-10.7031 15.1465-9.54102Q15.6445-8.37891 15.6445-7.05078Q15.6445-5.72266 15.1514-4.56055Q14.6582-3.39844 13.7842-2.51953Q12.9102-1.64062 11.748-1.14746Q10.5859-0.654297 9.24805-0.654297ZM5.6543-7.05078Q5.6543-6.72852 5.85938-6.52832Q6.06445-6.32812 6.40625-6.32812L8.51562-6.32812L8.51562-4.20898Q8.51562-3.88672 8.71094-3.67676Q8.90625-3.4668 9.23828-3.4668Q9.56055-3.4668 9.77051-3.67676Q9.98047-3.88672 9.98047-4.20898L9.98047-6.32812L12.0898-6.32812Q12.4219-6.32812 12.627-6.52832Q12.832-6.72852 12.832-7.05078Q12.832-7.38281 12.627-7.58789Q12.4219-7.79297 12.0898-7.79297L9.98047-7.79297L9.98047-9.90234Q9.98047-10.2344 9.77051-10.4443Q9.56055-10.6543 9.23828-10.6543Q8.90625-10.6543 8.71094-10.4443Q8.51562-10.2344 8.51562-9.90234L8.51562-7.79297L6.40625-7.79297Q6.06445-7.79297 5.85938-7.58789Q5.6543-7.38281 5.6543-7.05078Z"/>
  </g>
  <g transform="matrix(1 0 0 1 281.867 1933)">
   <path d="M11.709 2.91016Q13.75 2.91016 15.5518 2.12891Q17.3535 1.34766 18.7305-0.0292969Q20.1074-1.40625 20.8887-3.20801Q21.6699-5.00977 21.6699-7.05078Q21.6699-9.0918 20.8887-10.8936Q20.1074-12.6953 18.7305-14.0723Q17.3535-15.4492 15.5469-16.2305Q13.7402-17.0117 11.6992-17.0117Q9.6582-17.0117 7.85645-16.2305Q6.05469-15.4492 4.68262-14.0723Q3.31055-12.6953 2.5293-10.8936Q1.74805-9.0918 1.74805-7.05078Q1.74805-5.00977 2.5293-3.20801Q3.31055-1.40625 4.6875-0.0292969Q6.06445 1.34766 7.86621 2.12891Q9.66797 2.91016 11.709 2.91016ZM11.709 1.25Q9.98047 1.25 8.47656 0.605469Q6.97266-0.0390625 5.83496-1.17676Q4.69727-2.31445 4.05762-3.81836Q3.41797-5.32227 3.41797-7.05078Q3.41797-8.7793 4.05762-10.2832Q4.69727-11.7871 5.83008-12.9297Q6.96289-14.0723 8.4668-14.7119Q9.9707-15.3516 11.6992-15.3516Q13.4277-15.3516 14.9316-14.7119Q16.4355-14.0723 17.5781-12.9297Q18.7207-11.7871 19.3652-10.2832Q20.0098-8.7793 20.0098-7.05078Q20.0098-5.32227 19.3701-3.81836Q18.7305-2.31445 17.5928-1.17676Q16.4551-0.0390625 14.9463 0.605469Q13.4375 1.25 11.709 1.25ZM7.17773-7.05078Q7.17773-6.69922 7.41211-6.47461Q7.64648-6.25 8.01758-6.25L10.8887-6.25L10.8887-3.36914Q10.8887-2.99805 11.1133-2.76855Q11.3379-2.53906 11.6895-2.53906Q12.0605-2.53906 12.29-2.76855Q12.5195-2.99805 12.5195-3.36914L12.5195-6.25L15.4004-6.25Q15.7715-6.25 16.001-6.47461Q16.2305-6.69922 16.2305-7.05078Q16.2305-7.42188 16.001-7.65137Q15.7715-7.88086 15.4004-7.88086L12.5195-7.88086L12.5195-10.752Q12.5195-11.1328 12.29-11.3623Q12.0605-11.5918 11.6895-11.5918Q11.3379-11.5918 11.1133-11.3574Q10.8887-11.123 10.8887-10.752L10.8887-7.88086L8.01758-7.88086Q7.63672-7.88086 7.40723-7.65137Q7.17773-7.42188 7.17773-7.05078Z"/>
  </g>
  <g transform="matrix(1 0 0 1 305.646 1933)">
   <path d="M14.9707 5.66406Q17.0605 5.66406 18.96 5.01465Q20.8594 4.36523 22.4512 3.19336Q24.043 2.02148 25.2197 0.429688Q26.3965-1.16211 27.0459-3.06641Q27.6953-4.9707 27.6953-7.05078Q27.6953-9.14062 27.0459-11.04Q26.3965-12.9395 25.2197-14.5312Q24.043-16.123 22.4512-17.2998Q20.8594-18.4766 18.9551-19.126Q17.0508-19.7754 14.9609-19.7754Q12.8711-19.7754 10.9717-19.126Q9.07227-18.4766 7.48535-17.2998Q5.89844-16.123 4.72168-14.5312Q3.54492-12.9395 2.90039-11.04Q2.25586-9.14062 2.25586-7.05078Q2.25586-4.9707 2.90527-3.06641Q3.55469-1.16211 4.72656 0.429688Q5.89844 2.02148 7.49023 3.19336Q9.08203 4.36523 10.9814 5.01465Q12.8809 5.66406 14.9707 5.66406ZM14.9707 3.84766Q13.1641 3.84766 11.5283 3.2959Q9.89258 2.74414 8.53516 1.74805Q7.17773 0.751953 6.17676-0.610352Q5.17578-1.97266 4.62891-3.6084Q4.08203-5.24414 4.08203-7.05078Q4.08203-8.86719 4.62891-10.5029Q5.17578-12.1387 6.17188-13.501Q7.16797-14.8633 8.52539-15.8594Q9.88281-16.8555 11.5186-17.4023Q13.1543-17.9492 14.9609-17.9492Q16.7773-17.9492 18.4131-17.4023Q20.0488-16.8555 21.4111-15.8594Q22.7734-14.8633 23.7695-13.501Q24.7656-12.1387 25.3174-10.5029Q25.8691-8.86719 25.8691-7.05078Q25.8789-5.24414 25.332-3.6084Q24.7852-1.97266 23.7842-0.610352Q22.7832 0.751953 21.4209 1.74805Q20.0586 2.74414 18.4229 3.2959Q16.7871 3.84766 14.9707 3.84766ZM9.19922-7.05078Q9.19922-6.66992 9.45801-6.4209Q9.7168-6.17188 10.1172-6.17188L14.0625-6.17188L14.0625-2.2168Q14.0625-1.81641 14.3115-1.55762Q14.5605-1.29883 14.9512-1.29883Q15.3516-1.29883 15.6104-1.55273Q15.8691-1.80664 15.8691-2.2168L15.8691-6.17188L19.8242-6.17188Q20.2246-6.17188 20.4785-6.4209Q20.7324-6.66992 20.7324-7.05078Q20.7324-7.46094 20.4785-7.71484Q20.2246-7.96875 19.8242-7.96875L15.8691-7.96875L15.8691-11.9141Q15.8691-12.3242 15.6104-12.583Q15.3516-12.8418 14.9512-12.8418Q14.5605-12.8418 14.3115-12.583Q14.0625-12.3242 14.0625-11.9141L14.0625-7.96875L10.1172-7.96875Q9.70703-7.96875 9.45312-7.71484Q9.19922-7.46094 9.19922-7.05078Z"/>
  </g>
  <text style="stroke:none;fill:black;font-family:sans-serif;font-size:13;font-weight:bold;" transform="matrix(1 0 0 1 263 1953)">Design Variations</text>
  <text style="stroke:none;fill:black;font-family:sans-serif;font-size:13;" transform="matrix(1 0 0 1 263 1971)">Symbols are supported in up to nine weights and three scales.</text>
  <text style="stroke:none;fill:black;font-family:sans-serif;font-size:13;" transform="matrix(1 0 0 1 263 1989)">For optimal layout with text and other symbols, vertically align</text>
  <text style="stroke:none;fill:black;font-family:sans-serif;font-size:13;" transform="matrix(1 0 0 1 263 2007)">symbols with the adjacent text.</text>
  <line style="fill:none;stroke:#00AEEF;stroke-width:0.5;opacity:1.0;" x1="776" x2="776" y1="1919" y2="1933"/>
  <g transform="matrix(1 0 0 1 776 1933)">
   <path d="M3.31055 0.15625Q3.70117 0.15625 3.91602-0.00976562Q4.13086-0.175781 4.26758-0.585938L5.52734-4.0332L11.2891-4.0332L12.5488-0.585938Q12.6855-0.175781 12.9004-0.00976562Q13.1152 0.15625 13.4961 0.15625Q13.8867 0.15625 14.1162-0.0585938Q14.3457-0.273438 14.3457-0.644531Q14.3457-0.869141 14.2383-1.17188L9.6582-13.3691Q9.48242-13.8184 9.17969-14.043Q8.87695-14.2676 8.4082-14.2676Q7.5-14.2676 7.17773-13.3789L2.59766-1.16211Q2.49023-0.859375 2.49023-0.634766Q2.49023-0.263672 2.70996-0.0537109Q2.92969 0.15625 3.31055 0.15625ZM6.00586-5.51758L8.37891-12.0898L8.42773-12.0898L10.8008-5.51758Z"/>
  </g>
  <line style="fill:none;stroke:#00AEEF;stroke-width:0.5;opacity:1.0;" x1="793.197" x2="793.197" y1="1919" y2="1933"/>
  <text style="stroke:none;fill:black;font-family:sans-serif;font-size:13;font-weight:bold;" transform="matrix(1 0 0 1 776 1953)">Margins</text>
  <text style="stroke:none;fill:black;font-family:sans-serif;font-size:13;" transform="matrix(1 0 0 1 776 1971)">Leading and trailing margins on the left and right side of each symbol</text>
  <text style="stroke:none;fill:black;font-family:sans-serif;font-size:13;" transform="matrix(1 0 0 1 776 1989)">can be adjusted by modifying the x-location of the margin guidelines.</text>
  <text style="stroke:none;fill:black;font-family:sans-serif;font-size:13;" transform="matrix(1 0 0 1 776 2007)">Modifications are automatically applied proportionally to all</text>
  <text style="stroke:none;fill:black;font-family:sans-serif;font-size:13;" transform="matrix(1 0 0 1 776 2025)">scales and weights.</text>
  <g transform="matrix(1 0 0 1 1289 1933)">
   <path d="M2.8418 1.86523L4.54102 3.57422Q5.18555 4.22852 5.90332 4.17969Q6.62109 4.13086 7.31445 3.35938L18.0078-8.42773L17.041-9.4043L6.42578 2.27539Q6.16211 2.57812 5.89355 2.61719Q5.625 2.65625 5.27344 2.30469L4.10156 1.14258Q3.75 0.791016 3.79395 0.522461Q3.83789 0.253906 4.14062-0.0195312L15.6152-10.8203L14.6387-11.7871L3.04688-0.898438Q2.30469-0.214844 2.25098 0.498047Q2.19727 1.21094 2.8418 1.86523ZM9.25781-16.3281Q8.94531-16.0254 8.90625-15.6348Q8.86719-15.2441 9.04297-14.9512Q9.21875-14.6777 9.55566-14.541Q9.89258-14.4043 10.3809-14.5215Q11.4746-14.7754 12.5977-14.7314Q13.7207-14.6875 14.7949-13.9844L14.209-12.5293Q13.9551-11.9043 14.0674-11.4404Q14.1797-10.9766 14.5801-10.5664L16.875-8.25195Q17.2363-7.88086 17.5781-7.82227Q17.9199-7.76367 18.3398-7.8418L19.4043-8.03711L20.0684-7.36328L20.0293-6.80664Q20-6.43555 20.1221-6.12305Q20.2441-5.81055 20.6055-5.44922L21.3672-4.70703Q21.7285-4.3457 22.1533-4.33105Q22.5781-4.31641 22.9297-4.66797L25.8398-7.58789Q26.1914-7.93945 26.1816-8.35449Q26.1719-8.76953 25.8105-9.13086L25.0391-9.89258Q24.6875-10.2539 24.3799-10.3857Q24.0723-10.5176 23.7109-10.4883L23.1348-10.4395L22.4902-11.0742L22.7344-12.1973Q22.832-12.6172 22.6953-12.9834Q22.5586-13.3496 22.1191-13.7891L19.9219-15.9766Q18.6719-17.2168 17.2607-17.8369Q15.8496-18.457 14.4189-18.4814Q12.9883-18.5059 11.665-17.959Q10.3418-17.4121 9.25781-16.3281ZM10.752-15.957Q11.6602-16.6211 12.7002-16.9043Q13.7402-17.1875 14.8047-17.085Q15.8691-16.9824 16.8701-16.5137Q17.8711-16.0449 18.7012-15.2051L21.1328-12.793Q21.3086-12.6172 21.3525-12.4512Q21.3965-12.2852 21.3379-12.0312L21.0156-10.5469L22.5195-9.0625L23.5059-9.12109Q23.6914-9.13086 23.7891-9.09668Q23.8867-9.0625 24.0332-8.91602L24.6094-8.33984L22.168-5.89844L21.5918-6.47461Q21.4453-6.62109 21.4062-6.71875Q21.3672-6.81641 21.377-7.01172L21.4453-7.98828L19.9512-9.47266L18.4277-9.21875Q18.1836-9.16992 18.042-9.2041Q17.9004-9.23828 17.7148-9.41406L15.7129-11.416Q15.5176-11.5918 15.4932-11.7529Q15.4688-11.9141 15.5859-12.1875L16.4648-14.2773Q15.293-15.3711 13.8281-15.791Q12.3633-16.2109 10.8398-15.7617Q10.7227-15.7324 10.6885-15.8057Q10.6543-15.8789 10.752-15.957Z"/>
  </g>
  <text style="stroke:none;fill:black;font-family:sans-serif;font-size:13;font-weight:bold;" transform="matrix(1 0 0 1 1289 1953)">Exporting</text>
  <text style="stroke:none;fill:black;font-family:sans-serif;font-size:13;" transform="matrix(1 0 0 1 1289 1971)">Symbols should be outlined when exporting to ensure the</text>
  <text style="stroke:none;fill:black;font-family:sans-serif;font-size:13;" transform="matrix(1 0 0 1 1289 1989)">design is preserved when submitting to Xcode.</text>
  <text id="template-version" style="stroke:none;fill:black;font-family:sans-serif;font-size:13;text-anchor:end;" transform="matrix(1 0 0 1 3036 1933)">Template v.3.0</text>
  <text style="stroke:none;fill:black;font-family:sans-serif;font-size:13;text-anchor:end;" transform="matrix(1 0 0 1 3036 1951)">Requires Xcode 13 or greater</text>
  <text id="descriptive-name" style="stroke:none;fill:black;font-family:sans-serif;font-size:13;text-anchor:end;" transform="matrix(1 0 0 1 3036 1969)">Generated from play.circle.circle.fill</text>
  <text style="stroke:none;fill:black;font-family:sans-serif;font-size:13;text-anchor:end;" transform="matrix(1 0 0 1 3036 1987)">Typeset at 100 points</text>
  <text style="stroke:none;fill:black;font-family:sans-serif;font-size:13;" transform="matrix(1 0 0 1 263 726)">Small</text>
  <text style="stroke:none;fill:black;font-family:sans-serif;font-size:13;" transform="matrix(1 0 0 1 263 1156)">Medium</text>
  <text style="stroke:none;fill:black;font-family:sans-serif;font-size:13;" transform="matrix(1 0 0 1 263 1586)">Large</text>
 </g>
 <g id="Guides">
  <g id="H-reference" style="fill:#27AAE1;stroke:none;" transform="matrix(1 0 0 1 339 696)">
   <path d="M0.993347 0L3.6377 0L29.3282-67.1326L30.0301-67.1326L30.0301-70.459L28.1227-70.459ZM11.6882-24.4797L46.9818-24.4797L46.2311-26.7288L12.4382-26.7288ZM55.1193 0L57.7637 0L30.6381-70.459L29.4327-70.459L29.4327-67.1326Z"/>
  </g>
  <line id="Baseline-S" style="fill:none;stroke:#27AAE1;opacity:1;stroke-width:0.5;" x1="263" x2="3036" y1="696" y2="696"/>
  <line id="Capline-S" style="fill:none;stroke:#27AAE1;opacity:1;stroke-width:0.5;" x1="263" x2="3036" y1="625.541" y2="625.541"/>
  <g id="H-reference" style="fill:#27AAE1;stroke:none;" transform="matrix(1 0 0 1 339 1126)">
   <path d="M0.993347 0L3.6377 0L29.3282-67.1326L30.0301-67.1326L30.0301-70.459L28.1227-70.459ZM11.6882-24.4797L46.9818-24.4797L46.2311-26.7288L12.4382-26.7288ZM55.1193 0L57.7637 0L30.6381-70.459L29.4327-70.459L29.4327-67.1326Z"/>
  </g>
  <line id="Baseline-M" style="fill:none;stroke:#27AAE1;opacity:1;stroke-width:0.5;" x1="263" x2="3036" y1="1126" y2="1126"/>
  <line id="Capline-M" style="fill:none;stroke:#27AAE1;opacity:1;stroke-width:0.5;" x1="263" x2="3036" y1="1055.54" y2="1055.54"/>
  <g id="H-reference" style="fill:#27AAE1;stroke:none;" transform="matrix(1 0 0 1 339 1556)">
   <path d="M0.993347 0L3.6377 0L29.3282-67.1326L30.0301-67.1326L30.0301-70.459L28.1227-70.459ZM11.6882-24.4797L46.9818-24.4797L46.2311-26.7288L12.4382-26.7288ZM55.1193 0L57.7637 0L30.6381-70.459L29.4327-70.459L29.4327-67.1326Z"/>
  </g>
  <line id="Baseline-L" style="fill:none;stroke:#27AAE1;opacity:1;stroke-width:0.5;" x1="263" x2="3036" y1="1556" y2="1556"/>
  <line id="Capline-L" style="fill:none;stroke:#27AAE1;opacity:1;stroke-width:0.5;" x1="263" x2="3036" y1="1485.54" y2="1485.54"/>
  <line id="left-margin-Regular-M" style="fill:none;stroke:#00AEEF;stroke-width:0.5;opacity:1.0;" x1="1391.32" x2="1391.32" y1="1030.78" y2="1150.12"/>
  <line id="right-margin-Regular-M" style="fill:none;stroke:#00AEEF;stroke-width:0.5;opacity:1.0;" x1="1508.37" x2="1508.37" y1="1030.78" y2="1150.12"/>
 </g>
 <g id="Symbols">
  <g id="Black-L" transform="matrix(1 0 0 1 2856.73 1556)">
   <path d="M76.6389-103.148C114.003-103.148 144.618-72.5752 144.618-35.2113C144.618 2.15259 114.024 32.7257 76.6597 32.7257C39.3154 32.7257 8.7227 2.15259 8.7227-35.2113C8.7227-72.5752 39.2946-103.148 76.6389-103.148ZM76.657-76.549C53.9022-76.549 35.3231-57.9735 35.3231-35.2085C35.3231-12.4434 53.9089 6.13205 76.6636 6.13205C99.4289 6.13205 118.011-12.4434 118.011-35.2085C118.011-57.9735 99.4219-76.549 76.657-76.549ZM76.657-62.6154C91.818-62.6154 104.071-50.3694 104.071-35.2085C104.071-20.0475 91.8247-7.80153 76.6636-7.80153C61.5093-7.80153 49.2736-20.0475 49.2736-35.2085C49.2736-50.3694 61.5027-62.6154 76.657-62.6154ZM72.0223-20.3276L90.4599-31.1659C93.706-33.0808 93.6543-37.5656 90.4599-39.4355L72.0223-50.263C68.5924-52.2849 64.7341-50.469 64.7341-46.424L64.7341-24.2115C64.7341-20.1214 68.656-18.3308 72.0223-20.3276Z"/>
  </g>
  <g id="Heavy-L" transform="matrix(1 0 0 1 2560.95 1556)">
   <path d="M75.687-102.22C112.49-102.22 142.742-72.0281 142.742-35.2251C142.742 1.57794 112.52 31.7694 75.7171 31.7694C38.9387 31.7694 8.7227 1.57794 8.7227-35.2251C8.7227-72.0281 38.9085-102.22 75.687-102.22ZM75.7118-76.0547C53.2578-76.0547 34.8845-57.6826 34.8845-35.2158C34.8845-12.7489 53.2693 5.62311 75.7233 5.62311C98.1899 5.62311 116.574-12.7489 116.574-35.2158C116.574-57.6826 98.1789-76.0547 75.7118-76.0547ZM75.7118-63.401C91.3118-63.401 103.909-50.8157 103.909-35.2158C103.909-19.6158 91.3233-7.03054 75.7233-7.03054C60.1349-7.03054 47.5624-19.6158 47.5624-35.2158C47.5624-50.8157 60.1234-63.401 75.7118-63.401ZM70.6905-20.3617L89.6147-31.5038C92.591-33.2509 92.5417-37.3616 89.6147-39.0709L70.6905-50.2093C67.5619-52.0563 63.9876-50.4155 63.9876-46.7398L63.9876-23.8689C63.9876-20.1554 67.5913-18.5179 70.6905-20.3617Z"/>
  </g>
  <g id="Bold-L" transform="matrix(1 0 0 1 2265.42 1556)">
   <path d="M74.4963-101.052C110.608-101.052 140.384-71.3519 140.384-35.2405C140.384 0.870872 110.646 30.5711 74.5343 30.5711C38.4477 30.5711 8.7227 0.870872 8.7227-35.2405C8.7227-71.3519 38.4097-101.052 74.4963-101.052ZM74.5254-75.4074C52.4581-75.4074 34.3592-57.3058 34.3592-35.2246C34.3592-13.1434 52.4746 4.95809 74.5419 4.95809C96.6231 4.95809 114.741-13.1434 114.741-35.2246C114.741-57.3058 96.6066-75.4074 74.5254-75.4074ZM74.5254-64.4194C90.6916-64.4194 103.737-51.3908 103.737-35.2246C103.737-19.0584 90.7082-6.0298 74.5419-6.0298C58.3922-6.0298 45.3774-19.0584 45.3774-35.2246C45.3774-51.3908 58.3757-64.4194 74.5254-64.4194ZM69.0263-20.4021L88.5455-31.9235C91.1857-33.4641 91.1403-37.1051 88.5455-38.6168L69.0263-50.1463C66.2732-51.775 63.0611-50.3496 63.0611-47.1358L63.0611-23.4414C63.0611-20.1986 66.265-18.7527 69.0263-20.4021Z"/>
  </g>
  <g id="Semibold-L" transform="matrix(1 0 0 1 1969.52 1556)">
   <path d="M73.6755-100.247C109.31-100.247 138.758-70.8857 138.758-35.2511C138.758 0.383422 109.353 29.745 73.7188 29.745C38.1092 29.745 8.7227 0.383422 8.7227-35.2511C8.7227-70.8857 38.0658-100.247 73.6755-100.247ZM73.7075-74.9611C51.9068-74.9611 33.9971-57.046 33.9971-35.2307C33.9971-13.4154 51.9268 4.49963 73.7274 4.49963C95.5427 4.49963 113.478-13.4154 113.478-35.2307C113.478-57.046 95.5228-74.9611 73.7075-74.9611ZM73.7075-65.1216C90.2641-65.1216 103.618-51.7873 103.618-35.2307C103.618-18.6741 90.2841-5.33989 73.7274-5.33989C57.1908-5.33989 43.8711-18.6741 43.8711-35.2307C43.8711-51.7873 57.1708-65.1216 73.7075-65.1216ZM67.879-20.4299L87.8085-32.2129C90.217-33.6111 90.1742-36.9284 87.8085-38.3038L67.879-50.1028C65.3847-51.5811 62.4224-50.3042 62.4224-47.4088L62.4224-23.1467C62.4224-20.2284 65.3506-18.9146 67.879-20.4299Z"/>
  </g>
  <g id="Medium-L" transform="matrix(1 0 0 1 1673.43 1556)">
   <path d="M73.0531-99.637C108.326-99.637 137.526-70.5322 137.526-35.2592C137.526 0.0138167 108.374 29.1187 73.1005 29.1187C37.8525 29.1187 8.7227 0.0138167 8.7227-35.2592C8.7227-70.5322 37.8051-99.637 73.0531-99.637ZM73.0873-74.6227C51.4888-74.6227 33.7225-56.8491 33.7225-35.2354C33.7225-13.6216 51.5113 4.15201 73.1098 4.15201C94.7236 4.15201 112.52-13.6216 112.52-35.2354C112.52-56.8491 94.7011-74.6227 73.0873-74.6227ZM73.0873-65.6539C89.9399-65.6539 103.529-52.0879 103.529-35.2354C103.529-18.3828 89.9625-4.81677 73.1098-4.81677C56.2798-4.81677 42.729-18.3828 42.729-35.2354C42.729-52.0879 56.2573-65.6539 73.0873-65.6539ZM67.0091-20.451L87.2496-32.4323C89.4824-33.7225 89.4417-36.7943 87.2496-38.0665L67.0091-50.0698C64.711-51.4341 61.9381-50.2698 61.9381-47.6158L61.9381-22.9232C61.9381-20.251 64.6573-19.0373 67.0091-20.451Z"/>
  </g>
  <g id="Regular-L" transform="matrix(1 0 0 1 1377.52 1556)">
   <path d="M72.2413-98.8411C107.043-98.8411 135.918-70.0711 135.918-35.2697C135.918-0.468277 107.096 28.3017 72.294 28.3017C37.5177 28.3017 8.7227-0.468277 8.7227-35.2697C8.7227-70.0711 37.465-98.8411 72.2413-98.8411ZM72.2784-74.1814C50.9435-74.1814 33.3644-56.5922 33.3644-35.2414C33.3644-13.8906 50.9695 3.69859 72.3043 3.69859C93.6551 3.69859 111.27-13.8906 111.27-35.2414C111.27-56.5922 93.6292-74.1814 72.2784-74.1814ZM72.2784-66.3483C89.5171-66.3483 103.411-52.4801 103.411-35.2414C103.411-18.0027 89.5431-4.13444 72.3043-4.13444C55.0915-4.13444 41.2392-18.0027 41.2392-35.2414C41.2392-52.4801 55.0657-66.3483 72.2784-66.3483ZM65.8744-20.4786L86.5207-32.7184C88.5243-33.8679 88.4862-36.6195 86.5207-37.7569L65.8744-50.0268C63.8323-51.2424 61.3064-50.2249 61.3064-47.8858L61.3064-22.6317C61.3064-20.2805 63.7529-19.1974 65.8744-20.4786Z"/>
  </g>
  <g id="Light-L" transform="matrix(1 0 0 1 1081.74 1556)">
   <path d="M71.3443-97.925C105.688-97.925 134.067-69.6131 134.067-35.2697C134.067-0.926323 105.721 27.3856 71.378 27.3856C37.0215 27.3856 8.7227-0.926323 8.7227-35.2697C8.7227-69.6131 36.9878-97.925 71.3443-97.925ZM71.3585-73.5089C50.3817-73.5089 33.118-56.2265 33.118-35.2463C33.118-14.2661 50.4039 3.01625 71.3806 3.01625C92.3607 3.01625 109.665-14.2661 109.665-35.2463C109.665-56.2265 92.3386-73.5089 71.3585-73.5089ZM71.3585-67.3442C89.1332-67.3442 103.479-53.0211 103.479-35.2463C103.479-17.4715 89.1554-3.14839 71.3806-3.14839C53.6279-3.14839 39.3082-17.4715 39.3082-35.2463C39.3082-53.0211 53.6059-67.3442 71.3585-67.3442ZM64.6308-20.4944L85.6396-33.0164C87.3981-34.0318 87.3687-36.4186 85.6396-37.4268L64.6308-50.005C62.8622-51.0604 60.6547-50.1818 60.6547-48.1901L60.6547-22.3164C60.6547-20.3175 62.7881-19.3798 64.6308-20.4944Z"/>
  </g>
  <g id="Thin-L" transform="matrix(1 0 0 1 786.248 1556)">
   <path d="M70.1579-96.7134C103.896-96.7134 131.619-69.0073 131.619-35.2697C131.619-1.53213 103.904 26.174 70.1663 26.174C36.3652 26.174 8.7227-1.53213 8.7227-35.2697C8.7227-69.0073 36.3568-96.7134 70.1579-96.7134ZM70.1417-72.6194C49.6387-72.6194 32.7923-55.7428 32.7923-35.2528C32.7923-14.7628 49.6558 2.11381 70.1589 2.11381C90.6489 2.11381 107.543-14.7628 107.543-35.2528C107.543-55.7428 90.6318-72.6194 70.1417-72.6194ZM70.1417-68.6613C88.6255-68.6613 103.568-53.7366 103.568-35.2528C103.568-16.769 88.6426-1.84426 70.1589-1.84426C51.6922-1.84426 36.7543-16.769 36.7543-35.2528C36.7543-53.7366 51.6751-68.6613 70.1417-68.6613ZM62.9861-20.5153L84.4742-33.4104C85.9086-34.2486 85.8907-36.1528 84.4742-36.9903L62.9861-49.9761C61.5791-50.8197 59.7927-50.1249 59.7927-48.5927L59.7927-21.8994C59.7927-20.3665 61.5121-19.6211 62.9861-20.5153Z"/>
  </g>
  <g id="Ultralight-L" transform="matrix(1 0 0 1 490.165 1556)">
   <path d="M69.5503-96.0928C102.978-96.0928 130.364-68.697 130.364-35.2697C130.364-1.84242 102.973 25.5534 69.5458 25.5534C36.0291 25.5534 8.7227-1.84242 8.7227-35.2697C8.7227-68.697 36.0336-96.0928 69.5503-96.0928ZM69.5185-72.1638C49.2581-72.1638 32.6254-55.4951 32.6254-35.2561C32.6254-15.0172 49.2726 1.65158 69.5331 1.65158C89.772 1.65158 106.455-15.0172 106.455-35.2561C106.455-55.4951 89.7575-72.1638 69.5185-72.1638ZM69.5185-69.336C88.3655-69.336 103.613-54.103 103.613-35.2561C103.613-16.4092 88.38-1.17629 69.5331-1.17629C50.7008-1.17629 35.4463-16.4092 35.4463-35.2561C35.4463-54.103 50.6862-69.336 69.5185-69.336ZM62.1437-20.5261L83.8773-33.6123C85.1456-34.3597 85.1337-36.0167 83.8773-36.7667L62.1437-49.9612C60.9219-50.6964 59.3512-50.0957 59.3512-48.7989L59.3512-21.6858C59.3512-20.3916 60.8585-19.7446 62.1437-20.5261Z"/>
  </g>
  <g id="Black-M" transform="matrix(1 0 0 1 2871.35 1126)">
   <path d="M62.0367-88.5231C91.4041-88.5231 115.367-64.5709 115.367-35.2035C115.367-5.83621 91.4096 18.116 62.0422 18.116C32.6807 18.116 8.7227-5.83621 8.7227-35.2035C8.7227-64.5709 32.6752-88.5231 62.0367-88.5231ZM62.0419-67.5752C44.2029-67.5752 29.6748-53.0508 29.6748-35.2076C29.6748-17.3644 44.2033-2.84002 62.0423-2.84002C79.8856-2.84002 94.4103-17.3644 94.4103-35.2076C94.4103-53.0508 79.8852-67.5752 62.0419-67.5752ZM62.0419-55.9063C73.4832-55.9063 82.7411-46.6488 82.7411-35.2076C82.7411-23.7664 73.4836-14.5089 62.0423-14.5089C50.6016-14.5089 41.3482-23.7664 41.3482-35.2076C41.3482-46.6488 50.6012-55.9063 62.0419-55.9063ZM58.7397-23.6572L72.655-31.8313C75.3685-33.4409 75.3276-37.1875 72.655-38.7566L58.7397-46.9197C55.8604-48.6148 52.6704-47.0763 52.6704-43.6722L52.6704-26.9452C52.6704-23.5004 55.9399-22.0013 58.7397-23.6572Z"/>
  </g>
  <g id="Heavy-M" transform="matrix(1 0 0 1 2575.47 1126)">
   <path d="M61.1889-87.6997C90.0502-87.6997 113.704-64.0783 113.704-35.217C113.704-6.35571 90.0667 17.2657 61.2053 17.2657C32.3582 17.2657 8.7227-6.35571 8.7227-35.217C8.7227-64.0783 32.3418-87.6997 61.1889-87.6997ZM61.2028-67.154C43.6247-67.154 29.2687-52.8001 29.2687-35.2143C29.2687-17.6285 43.6303-3.2746 61.2083-3.2746C78.7942-3.2746 93.1536-17.6285 93.1536-35.2143C93.1536-52.8001 78.7886-67.154 61.2028-67.154ZM61.2028-56.5824C73.0237-56.5824 82.5765-47.0351 82.5765-35.2143C82.5765-23.3934 73.0293-13.8462 61.2083-13.8462C49.393-13.8462 39.8535-23.3934 39.8535-35.2143C39.8535-47.0351 49.3875-56.5824 61.2028-56.5824ZM57.5524-23.6891L71.91-32.1341C74.3824-33.592 74.343-37.0066 71.91-38.4307L57.5524-46.8693C54.9425-48.4081 52.0007-47.028 52.0007-43.9528L52.0007-26.6393C52.0007-23.5302 54.988-22.1674 57.5524-23.6891Z"/>
  </g>
  <g id="Bold-M" transform="matrix(1 0 0 1 2279.69 1126)">
   <path d="M60.2405-86.7786C88.5358-86.7786 111.844-63.5273 111.844-35.2321C111.844-6.93686 88.5644 16.3144 60.2692 16.3144C31.9974 16.3144 8.7227-6.93686 8.7227-35.2321C8.7227-63.5273 31.9688-86.7786 60.2405-86.7786ZM60.2641-66.6828C42.978-66.6828 28.8144-52.5196 28.8144-35.2218C28.8144-17.9239 42.9893-3.76073 60.2754-3.76073C77.5733-3.76073 91.7477-17.9239 91.7477-35.2218C91.7477-52.5196 77.562-66.6828 60.2641-66.6828ZM60.2641-57.3387C72.5097-57.3387 82.3924-47.4674 82.3924-35.2218C82.3924-22.9761 72.521-13.1048 60.2754-13.1048C48.0411-13.1048 38.1815-22.9761 38.1815-35.2218C38.1815-47.4674 48.0298-57.3387 60.2641-57.3387ZM56.2244-23.7247L71.0766-32.4728C73.2793-33.7611 73.2416-36.8042 71.0766-38.0661L56.2244-46.8129C53.9158-48.1769 51.2516-46.974 51.2516-44.2668L51.2516-26.2972C51.2516-23.5636 53.9233-22.3531 56.2244-23.7247Z"/>
  </g>
  <g id="Semibold-M" transform="matrix(1 0 0 1 1983.62 1126)">
   <path d="M59.5867-86.1436C87.4917-86.1436 110.562-63.1475 110.562-35.2425C110.562-7.33749 87.5288 15.6586 59.6238 15.6586C31.7487 15.6586 8.7227-7.33749 8.7227-35.2425C8.7227-63.1475 31.7117-86.1436 59.5867-86.1436ZM59.6169-66.358C42.5321-66.358 28.5012-52.3263 28.5012-35.2269C28.5012-18.1275 42.5474-4.09587 59.6322-4.09587C76.7316-4.09587 90.7786-18.1275 90.7786-35.2269C90.7786-52.3263 76.7163-66.358 59.6169-66.358ZM59.6169-57.8601C72.1554-57.8601 82.2654-47.7653 82.2654-35.2269C82.2654-22.6885 72.1707-12.5937 59.6322-12.5937C47.1091-12.5937 37.0289-22.6885 37.0289-35.2269C37.0289-47.7653 47.0938-57.8601 59.6169-57.8601ZM55.3088-23.7493L70.502-32.7063C72.5188-33.8776 72.4823-36.6647 70.502-37.8148L55.3088-46.774C53.208-48.0175 50.7352-46.9367 50.7352-44.4832L50.7352-26.0613C50.7352-23.5866 53.1892-22.4811 55.3088-23.7493Z"/>
  </g>
  <g id="Medium-M" transform="matrix(1 0 0 1 1687.4 1126)">
   <path d="M59.091-85.6621C86.7001-85.6621 109.59-62.8595 109.59-35.2504C109.59-7.64127 86.7435 15.1614 59.1344 15.1614C31.5601 15.1614 8.7227-7.64127 8.7227-35.2504C8.7227-62.8595 31.5167-85.6621 59.091-85.6621ZM59.1262-66.1117C42.194-66.1117 28.2637-52.1797 28.2637-35.2308C28.2637-18.282 42.2124-4.34999 59.1445-4.34999C76.0934-4.34999 90.0437-18.282 90.0437-35.2308C90.0437-52.1797 76.0751-66.1117 59.1262-66.1117ZM59.1262-58.2554C71.8867-58.2554 82.1692-47.9913 82.1692-35.2308C82.1692-22.4704 71.905-12.2062 59.1445-12.2062C46.4024-12.2062 36.1549-22.4704 36.1549-35.2308C36.1549-47.9913 46.3841-58.2554 59.1262-58.2554ZM54.6146-23.768L70.0664-32.8834C71.9422-33.966 71.9066-36.5589 70.0664-37.6242L54.6146-46.7445C52.6713-47.8967 50.3436-46.9084 50.3436-44.6473L50.3436-25.8825C50.3436-23.604 52.6327-22.5782 54.6146-23.768Z"/>
  </g>
  <g id="Regular-M" transform="matrix(1 0 0 1 1391.32 1126)">
   <path d="M58.4443-85.0341C85.6675-85.0341 108.321-62.4838 108.321-35.2606C108.321-8.0375 85.7192 14.5128 58.4961 14.5128C31.3141 14.5128 8.7227-8.0375 8.7227-35.2606C8.7227-62.4838 31.2624-85.0341 58.4443-85.0341ZM58.4862-65.7904C41.7531-65.7904 27.954-51.9884 27.954-35.2359C27.954-18.4834 41.7753-4.68145 58.5084-4.68145C75.2609-4.68145 89.0851-18.4834 89.0851-35.2359C89.0851-51.9884 75.2387-65.7904 58.4862-65.7904ZM58.4862-58.7711C71.5362-58.7711 82.0436-48.286 82.0436-35.2359C82.0436-22.1859 71.5585-11.7008 58.5084-11.7008C45.4806-11.7008 35.0149-22.1859 35.0149-35.2359C35.0149-48.286 45.4584-58.7711 58.4862-58.7711ZM53.7091-23.7923L69.4981-33.1143C71.1901-34.0812 71.1556-36.4209 69.4981-37.3756L53.7091-46.7061C51.9712-47.739 49.8328-46.8716 49.8328-44.8614L49.8328-25.6492C49.8328-23.6268 51.9067-22.7048 53.7091-23.7923Z"/>
  </g>
  <g id="Light-M" transform="matrix(1 0 0 1 1095.44 1126)">
   <path d="M57.6401-84.2128C84.4526-84.2128 106.662-62.0731 106.662-35.2606C106.662-8.44816 84.4872 13.6915 57.6748 13.6915C30.8693 13.6915 8.7227-8.44816 8.7227-35.2606C8.7227-62.0731 30.8346-84.2128 57.6401-84.2128ZM57.6614-65.1874C41.2494-65.1874 27.7331-51.6606 27.7331-35.2403C27.7331-18.8201 41.2682-5.2932 57.6802-5.2932C74.1005-5.2932 87.6462-18.8201 87.6462-35.2403C87.6462-51.6606 74.0817-65.1874 57.6614-65.1874ZM57.6614-59.6639C71.1921-59.6639 82.1039-48.771 82.1039-35.2403C82.1039-21.7096 71.2109-10.8167 57.6802-10.8167C44.1684-10.8167 33.2837-21.7096 33.2837-35.2403C33.2837-48.771 44.1496-59.6639 57.6614-59.6639ZM52.5942-23.8065L68.7082-33.3814C70.1804-34.2282 70.1537-36.2407 68.7082-37.0797L52.5942-46.6865C51.1014-47.5759 49.2485-46.833 49.2485-45.1343L49.2485-25.3665C49.2485-23.66 51.0417-22.8684 52.5942-23.8065Z"/>
  </g>
  <g id="Thin-M" transform="matrix(1 0 0 1 799.825 1126)">
   <path d="M56.5765-83.1265C82.8458-83.1265 104.466-61.53 104.466-35.2606C104.466-8.9913 82.8578 12.6052 56.5885 12.6052C30.2809 12.6052 8.7227-8.9913 8.7227-35.2606C8.7227-61.53 30.2689-83.1265 56.5765-83.1265ZM56.5705-64.39C40.5832-64.39 27.4411-51.2269 27.4411-35.2461C27.4411-19.2653 40.5975-6.10229 56.5849-6.10229C72.5657-6.10229 85.7431-19.2653 85.7431-35.2461C85.7431-51.2269 72.5514-64.39 56.5705-64.39ZM56.5705-60.8448C70.7369-60.8448 82.1836-49.4125 82.1836-35.2461C82.1836-21.0798 70.7512-9.64749 56.5849-9.64749C42.4329-9.64749 30.994-21.0798 30.994-35.2461C30.994-49.4125 42.4186-60.8448 56.5705-60.8448ZM51.1196-23.8253L67.6633-33.7347C68.8449-34.4225 68.8286-36.0025 67.6633-36.6884L51.1196-46.6605C49.9511-47.3601 48.4758-46.7819 48.4758-45.4952L48.4758-24.9926C48.4758-23.7039 49.8977-23.0846 51.1196-23.8253Z"/>
  </g>
  <g id="Ultralight-M" transform="matrix(1 0 0 1 503.676 1126)">
   <path d="M56.0317-82.5701C82.0228-82.5701 103.342-61.2518 103.342-35.2606C103.342-9.26949 82.0233 12.0488 56.0321 12.0488C29.9795 12.0488 8.7227-9.26949 8.7227-35.2606C8.7227-61.2518 29.9791-82.5701 56.0317-82.5701ZM56.0118-63.9815C40.242-63.9815 27.2915-51.0048 27.2915-35.2491C27.2915-19.4934 40.254-6.5167 56.0239-6.5167C71.7796-6.5167 84.7684-19.4934 84.7684-35.2491C84.7684-51.0048 71.7676-63.9815 56.0118-63.9815ZM56.0118-61.4496C70.5037-61.4496 82.2244-49.741 82.2244-35.2491C82.2244-20.7572 70.5158-9.04862 56.0239-9.04862C41.544-9.04862 29.8213-20.7572 29.8213-35.2491C29.8213-49.741 41.532-61.4496 56.0118-61.4496ZM50.3644-23.8349L67.1282-33.9156C68.1609-34.5221 68.1499-35.8805 67.1282-36.4879L50.3644-46.6473C49.3619-47.2496 48.0799-46.7558 48.0799-45.6801L48.0799-24.8011C48.0799-23.7264 49.3117-23.1954 50.3644-23.8349Z"/>
  </g>
  <g id="Black-S" transform="matrix(1 0 0 1 2882.68 696)">
   <path d="M50.7148-77.1973C73.8594-77.1973 92.707-58.3496 92.707-35.2051C92.707-12.0605 73.8594 6.78711 50.7148 6.78711C27.5703 6.78711 8.7227-12.0605 8.7227-35.2051C8.7227-58.3496 27.5703-77.1973 50.7148-77.1973ZM50.7151-60.6713C36.6742-60.6713 25.253-49.2529 25.253-35.2106C25.253-21.1682 36.6728-9.74987 50.7136-9.74987C64.756-9.74987 76.1729-21.1682 76.1729-35.2106C76.1729-49.2529 64.7575-60.6713 50.7151-60.6713ZM50.7151-51.2811C59.5945-51.2811 66.7842-44.09 66.7842-35.2106C66.7842-26.3311 59.5931-19.1401 50.7136-19.1401C41.8328-19.1401 34.6432-26.3311 34.6432-35.2106C34.6432-44.09 41.8342-51.2811 50.7151-51.2811ZM48.2156-26.1514L59.006-32.4902C61.1928-33.7905 61.1608-36.8083 59.006-38.0752L48.2156-44.4052C45.8918-45.7727 43.3332-44.5263 43.3332-41.7769L43.3332-28.8133C43.3332-26.0303 45.9647-24.8218 48.2156-26.1514Z"/>
  </g>
  <g id="Heavy-S" transform="matrix(1 0 0 1 2586.58 696)">
   <path d="M50.0925-76.598C72.8567-76.598 91.4969-57.9808 91.4969-35.2166C91.4969-12.4524 72.8683 6.16479 50.104 6.16479C27.3513 6.16479 8.7227-12.4524 8.7227-35.2166C8.7227-57.9808 27.3398-76.598 50.0925-76.598ZM50.1028-60.3881C36.2441-60.3881 24.9339-49.0804 24.9339-35.2157C24.9339-21.3511 36.2475-10.0434 50.1062-10.0434C63.9709-10.0434 75.2819-21.3511 75.2819-35.2157C75.2819-49.0804 63.9675-60.3881 50.1028-60.3881ZM50.1028-51.7452C59.2456-51.7452 66.6357-44.3584 66.6357-35.2157C66.6357-26.073 59.249-18.6862 50.1062-18.6862C40.9669-18.6862 33.5861-26.073 33.5861-35.2157C33.5861-44.3584 40.9635-51.7452 50.1028-51.7452ZM47.3427-26.1769L58.4698-32.715C60.4785-33.901 60.4467-36.6766 58.4698-37.8343L47.3427-44.3646C45.218-45.6167 42.8352-44.4899 42.8352-41.982L42.8352-28.5878C42.8352-26.0516 45.2612-24.9429 47.3427-26.1769Z"/>
  </g>
  <g id="Bold-S" transform="matrix(1 0 0 1 2290.54 696)">
   <path d="M49.3965-75.9277C71.7353-75.9277 90.1435-57.5684 90.1435-35.2295C90.1435-12.8906 71.7597 5.46875 49.4209 5.46875C27.1064 5.46875 8.7227-12.8906 8.7227-35.2295C8.7227-57.5684 27.082-75.9277 49.3965-75.9277ZM49.418-60.0714C35.7631-60.0714 24.5769-48.8874 24.5769-35.2215C24.5769-21.5556 35.7719-10.3716 49.4268-10.3716C63.0927-10.3716 74.2855-21.5556 74.2855-35.2215C74.2855-48.8874 63.0839-60.0714 49.418-60.0714ZM49.418-52.2643C58.8552-52.2643 66.4696-44.6587 66.4696-35.2215C66.4696-25.7842 58.8641-18.1787 49.4268-18.1787C39.9984-18.1787 32.4038-25.7842 32.4038-35.2215C32.4038-44.6587 39.9896-52.2643 49.418-52.2643ZM46.3664-26.2054L57.8701-32.9664C59.6795-34.0246 59.6481-36.5293 57.8701-37.5648L46.3664-44.3192C44.4643-45.4424 42.2781-44.4491 42.2781-42.2115L42.2781-28.3356C42.2781-26.0754 44.4743-25.0784 46.3664-26.2054Z"/>
  </g>
  <g id="Semibold-S" transform="matrix(1 0 0 1 1994.3 696)">
   <path d="M48.9166-75.4656C70.9622-75.4656 89.2104-57.284 89.2104-35.2384C89.2104-13.1928 70.9955 4.98887 48.9499 4.98887C26.9376 4.98887 8.7227-13.1928 8.7227-35.2384C8.7227-57.284 26.9043-75.4656 48.9166-75.4656ZM48.9458-59.853C35.4314-59.853 24.3309-48.7544 24.3309-35.2255C24.3309-21.6965 35.444-10.598 48.9583-10.598C62.4873-10.598 73.5984-21.6965 73.5984-35.2255C73.5984-48.7544 62.4747-59.853 48.9458-59.853ZM48.9458-52.6222C58.5861-52.6222 66.3551-44.8657 66.3551-35.2255C66.3551-25.5852 58.5987-17.8287 48.9583-17.8287C39.3306-17.8287 31.5887-25.5852 31.5887-35.2255C31.5887-44.8657 39.3181-52.6222 48.9458-52.6222ZM45.6933-26.225L57.4566-33.1398C59.1287-34.1097 59.0975-36.4277 57.4566-37.379L45.6933-44.2879C43.9447-45.3221 41.8941-44.4211 41.8941-42.3697L41.8941-28.1618C41.8941-26.0918 43.9318-25.1717 45.6933-26.225Z"/>
  </g>
  <g id="Medium-S" transform="matrix(1 0 0 1 1697.94 696)">
   <path d="M48.5527-75.1152C70.376-75.1152 88.5029-57.0684 88.5029-35.2451C88.5029-13.4219 70.416 4.625 48.5928 4.625C26.8096 4.625 8.7227-13.4219 8.7227-35.2451C8.7227-57.0684 26.7695-75.1152 48.5527-75.1152ZM48.5878-59.6874C35.18-59.6874 24.1443-48.6535 24.1443-35.2285C24.1443-21.8034 35.1954-10.7696 48.6032-10.7696C62.0282-10.7696 73.0775-21.8034 73.0775-35.2285C73.0775-48.6535 62.0128-59.6874 48.5878-59.6874ZM48.5878-52.8936C58.3821-52.8936 66.2683-45.0227 66.2683-35.2285C66.2683-25.4342 58.3975-17.5634 48.6032-17.5634C38.8243-17.5634 30.9706-25.4342 30.9706-35.2285C30.9706-45.0227 38.8089-52.8936 48.5878-52.8936ZM45.1829-26.2399L57.143-33.2713C58.711-34.1743 58.68-36.3507 57.143-37.2381L45.1829-44.2641C43.5507-45.231 41.6028-44.3998 41.6028-42.4896L41.6028-28.03C41.6028-26.1042 43.5205-25.2425 45.1829-26.2399Z"/>
  </g>
  <g id="Regular-S" transform="matrix(1 0 0 1 1401.69 696)">
   <path d="M48.0781-74.6582C69.6113-74.6582 87.5801-56.7871 87.5801-35.2539C87.5801-13.7207 69.6601 4.15039 48.1269 4.15039C26.6426 4.15039 8.7227-13.7207 8.7227-35.2539C8.7227-56.7871 26.5937-74.6582 48.0781-74.6582ZM48.1208-59.4714C34.852-59.4714 23.9009-48.5219 23.9009-35.2324C23.9009-21.9429 34.8711-10.9934 48.1399-10.9934C61.4294-10.9934 72.398-21.9429 72.398-35.2324C72.398-48.5219 61.4104-59.4714 48.1208-59.4714ZM48.1208-53.2475C58.1159-53.2475 66.1551-45.2274 66.1551-35.2324C66.1551-25.2373 58.135-17.2173 48.1399-17.2173C38.1639-17.2173 30.1645-25.2373 30.1645-35.2324C30.1645-45.2274 38.1449-53.2475 48.1208-53.2475ZM44.5172-26.2593L56.7341-33.4427C58.1662-34.2586 58.1355-36.2502 56.7341-37.0544L44.5172-44.2331C43.0368-45.1121 41.223-44.372 41.223-42.6461L41.223-27.858C41.223-26.1204 42.9839-25.3349 44.5172-26.2593Z"/>
  </g>
  <g id="Light-S" transform="matrix(1 0 0 1 1105.71 696)">
   <path d="M47.3667-73.9316C68.5366-73.9316 86.1118-56.4238 86.1118-35.2539C86.1118-14.084 68.5703 3.42383 47.4004 3.42383C26.249 3.42383 8.7227-14.084 8.7227-35.2539C8.7227-56.4238 26.2153-73.9316 47.3667-73.9316ZM47.3912-58.938C34.4064-58.938 23.7056-48.2319 23.7056-35.2363C23.7056-22.2407 34.4225-11.5346 47.4073-11.5346C60.4029-11.5346 71.1251-22.2407 71.1251-35.2363C71.1251-48.2319 60.3868-58.938 47.3912-58.938ZM47.3912-54.0374C57.8114-54.0374 66.2084-45.6565 66.2084-35.2363C66.2084-24.8161 57.8275-16.4352 47.4073-16.4352C37.0031-16.4352 28.633-24.8161 28.633-35.2363C28.633-45.6565 36.9871-54.0374 47.3912-54.0374ZM43.531-26.2719L56.0353-33.679C57.273-34.3886 57.2492-36.0909 56.0353-36.7926L43.531-44.2158C42.2674-44.9677 40.7061-44.3379 40.7061-42.8875L40.7061-27.6079C40.7061-26.1498 42.2187-25.4795 43.531-26.2719Z"/>
  </g>
  <g id="Thin-S" transform="matrix(1 0 0 1 809.973 696)">
   <path d="M46.4258-72.9707C67.1152-72.9707 84.1699-55.9434 84.1699-35.2539C84.1699-14.5644 67.1289 2.4629 46.4394 2.4629C25.7285 2.4629 8.7227-14.5644 8.7227-35.2539C8.7227-55.9434 25.7148-72.9707 46.4258-72.9707ZM46.4262-58.2326C33.8171-58.2326 23.4472-47.8483 23.4472-35.2414C23.4472-22.6346 33.8292-12.2503 46.4383-12.2503C59.0452-12.2503 69.4416-22.6346 69.4416-35.2414C69.4416-47.8483 59.0331-58.2326 46.4262-58.2326ZM46.4262-55.082C57.4088-55.082 66.2789-46.224 66.2789-35.2414C66.2789-24.2589 57.4209-15.4009 46.4383-15.4009C35.4679-15.4009 26.6075-24.2589 26.6075-35.2414C26.6075-46.224 35.4558-55.082 46.4262-55.082ZM42.2266-26.2885L55.111-33.9915C56.0917-34.5605 56.077-35.8801 55.111-36.4465L42.2266-44.1929C41.2498-44.7768 40.0225-44.2927 40.0225-43.2068L40.0225-27.2772C40.0225-26.1886 41.2067-25.6709 42.2266-26.2885Z"/>
  </g>
  <g id="Ultralight-S" transform="matrix(1 0 0 1 513.759 696)">
   <path d="M45.9438-72.4785C66.3872-72.4785 83.1753-55.6973 83.1753-35.2539C83.1753-14.8105 66.3906 1.97072 45.9473 1.97072C25.4619 1.97072 8.7227-14.8105 8.7227-35.2539C8.7227-55.6973 25.4585-72.4785 45.9438-72.4785ZM45.932-57.8713C33.5152-57.8713 23.3149-47.6518 23.3149-35.2441C23.3149-22.8363 33.5253-12.6169 45.9421-12.6169C58.3497-12.6169 68.5793-22.8363 68.5793-35.2441C68.5793-47.6518 58.3397-57.8713 45.932-57.8713ZM45.932-55.617C57.2025-55.617 66.315-46.5146 66.315-35.2441C66.315-23.9735 57.2126-14.8711 45.9421-14.8711C34.6816-14.8711 25.5701-23.9735 25.5701-35.2441C25.5701-46.5146 34.6715-55.617 45.932-55.617ZM41.5585-26.297L54.6376-34.1516C55.4866-34.6486 55.4766-35.7722 54.6376-36.2691L41.5585-44.1811C40.7286-44.6791 39.6724-44.2696 39.6724-43.3703L39.6724-27.1078C39.6724-26.2085 40.6884-25.7689 41.5585-26.297Z"/>
  </g>
 </g>
</svg>
