<?xml version="1.0" encoding="UTF-8"?>
<svg width="3300px" height="2200px" viewBox="0 0 3300 2200" version="1.1" xmlns="http://www.w3.org/2000/svg" xmlns:xlink="http://www.w3.org/1999/xlink">
    <title>tv.arrowshape.turn.up.forward.fill</title>
    <g id="App-Symbols" stroke="none" stroke-width="1" fill="none" fill-rule="evenodd">
        <g id="tv.arrowshape.turn.up.forward.fill">
            <g id="Notes">
                <rect id="artboard" fill="#FFFFFF" fill-rule="nonzero" x="0" y="0" width="3300" height="2200"></rect>
                <line x1="263" y1="292" x2="3036" y2="292" id="Path" stroke="#000000" stroke-width="0.5"></line>
                <text id="Weight/Scale-Variations" fill="#000000" fill-rule="nonzero" font-family="Helvetica-Bold, Helvetica" font-size="13" font-weight="bold">
                    <tspan x="263" y="322">Weight/Scale Variations</tspan>
                </text>
                <text id="Ultralight" fill="#000000" fill-rule="nonzero" font-family="Helvetica" font-size="13" font-weight="normal">
                    <tspan x="533.711" y="322">Ultralight</tspan>
                </text>
                <text id="Thin" fill="#000000" fill-rule="nonzero" font-family="Helvetica" font-size="13" font-weight="normal">
                    <tspan x="843.422" y="322">Thin</tspan>
                </text>
                <text id="Light" fill="#000000" fill-rule="nonzero" font-family="Helvetica" font-size="13" font-weight="normal">
                    <tspan x="1138.63" y="322">Light</tspan>
                </text>
                <text id="Regular" fill="#000000" fill-rule="nonzero" font-family="Helvetica" font-size="13" font-weight="normal">
                    <tspan x="1426.84" y="322">Regular</tspan>
                </text>
                <text id="Medium" fill="#000000" fill-rule="nonzero" font-family="Helvetica" font-size="13" font-weight="normal">
                    <tspan x="1723.06" y="322">Medium</tspan>
                </text>
                <text id="Semibold" fill="#000000" fill-rule="nonzero" font-family="Helvetica" font-size="13" font-weight="normal">
                    <tspan x="2015.77" y="322">Semibold</tspan>
                </text>
                <text id="Bold" fill="#000000" fill-rule="nonzero" font-family="Helvetica" font-size="13" font-weight="normal">
                    <tspan x="2326.48" y="322">Bold</tspan>
                </text>
                <text id="Heavy" fill="#000000" fill-rule="nonzero" font-family="Helvetica" font-size="13" font-weight="normal">
                    <tspan x="2618.19" y="322">Heavy</tspan>
                </text>
                <text id="Black" fill="#000000" fill-rule="nonzero" font-family="Helvetica" font-size="13" font-weight="normal">
                    <tspan x="2917.4" y="322">Black</tspan>
                </text>
                <line x1="263" y1="1903" x2="3036" y2="1903" id="Path" stroke="#000000" stroke-width="0.5"></line>
                <g id="Group" transform="translate(264.000000, 1918.000000)" fill="#000000" fill-rule="nonzero">
                    <path d="M8.24805,15.830078 C12.5547,15.830078 16.1387,12.25586 16.1387,7.94922 C16.1387,3.6426 12.5449,0.0684 8.23828,0.0684 C3.94141,0.0684 0.36719,3.6426 0.36719,7.94922 C0.36719,12.25586 3.95117,15.830078 8.24805,15.830078 Z M8.24805,14.345703 C4.70312,14.345703 1.87109,11.50391 1.87109,7.94922 C1.87109,4.3945 4.69336,1.5527 8.23828,1.5527 C11.793,1.5527 14.6348,4.3945 14.6445252,7.94922 C14.6543,11.50391 11.8027,14.345703 8.24805,14.345703 Z M5.39648,8.68164 L7.50586,8.68164 L7.50586,10.80078 C7.50586,11.24023 7.79883,11.54297 8.22852,11.54297 C8.67773,11.54297 8.9707,11.24023 8.9707,10.80078 L8.9707,8.68164 L11.0996,8.68164 C11.5391,8.68164 11.8418,8.38867 11.8418,7.95898 C11.8418,7.51953 11.5391,7.2168 11.0996,7.2168 L8.9707,7.2168 L8.9707,5.10742 C8.9707,4.6582 8.67773,4.3555 8.22852,4.3555 C7.79883,4.3555 7.50586,4.6582 7.50586,5.10742 L7.50586,7.2168 L5.39648,7.2168 C4.94727,7.2168 4.64453,7.51953 4.64453,7.95898 C4.64453,8.38867 4.94727,8.68164 5.39648,8.68164 Z" id="Shape"></path>
                </g>
                <g id="Group" transform="translate(282.506000, 1915.000000)" fill="#000000" fill-rule="nonzero">
                    <path d="M10.709,20.91016 C16.1582,20.91016 20.6699,16.38867 20.6699,10.94922 C20.6699,5.5 16.1484,0.9883 10.6992,0.9883 C5.25977,0.9883 0.74805,5.5 0.74805,10.94922 C0.74805,16.38867 5.26953,20.91016 10.709,20.91016 Z M10.709,19.25 C6.09961,19.25 2.41797,15.55859 2.41797,10.94922 C2.41797,6.3398 6.08984,2.6484 10.6992,2.6484 C15.3086,2.6484 19,6.3398 19.009819,10.94922 C19.0195,15.55859 15.3184,19.25 10.709,19.25 Z M6.98828,11.76953 L9.8789,11.76953 L9.8789,14.67969 C9.8789,15.16797 10.2109,15.5 10.6895,15.5 C11.1777,15.5 11.5195,15.16797 11.5195,14.67969 L11.5195,11.76953 L14.4297,11.76953 C14.918,11.76953 15.25,11.4375 15.25,10.95898 C15.25,10.4707 14.918,10.12891 14.4297,10.12891 L11.5195,10.12891 L11.5195,7.2383 C11.5195,6.7305 11.1777,6.3984 10.6895,6.3984 C10.2109,6.3984 9.8789,6.7402 9.8789,7.2383 L9.8789,10.12891 L6.98828,10.12891 C6.48047,10.12891 6.14844,10.4707 6.14844,10.95898 C6.14844,11.4375 6.49023,11.76953 6.98828,11.76953 Z" id="Shape"></path>
                </g>
                <g id="Group" transform="translate(306.924000, 1913.000000)" fill="#000000" fill-rule="nonzero">
                    <path d="M12.9707,25.66406 C19.9336,25.66406 25.6953,19.9023438 25.6953,12.94922 C25.6953,5.9863 19.9238,0.2246 12.9609,0.2246 C6.00781,0.2246 0.25586,5.9863 0.25586,12.94922 C0.25586,19.9023438 6.01758,25.66406 12.9707,25.66406 Z M12.9707,23.84766 C6.93555,23.84766 2.08203,18.98438 2.08203,12.94922 C2.08203,6.9043 6.92578,2.0508 12.9609,2.0508 C19.0059,2.0508 23.8594,6.9043 23.8691148,12.94922 C23.8789,18.98438 19.0156,23.84766 12.9707,23.84766 Z M8.0586,13.85742 L12.0625,13.85742 L12.0625,17.87109 C12.0625,18.4082 12.4336,18.7793 12.9512,18.7793 C13.4883,18.7793 13.8594,18.4082 13.8594,17.87109 L13.8594,13.85742 L17.8828,13.85742 C18.4102,13.85742 18.791,13.48633 18.791,12.96875 C18.791,12.43164 18.4199,12.05078 17.8828,12.05078 L13.8594,12.05078 L13.8594,8.0469 C13.8594,7.4902 13.4883,7.1191 12.9512,7.1191 C12.4336,7.1191 12.0625,7.5 12.0625,8.0469 L12.0625,12.05078 L8.0586,12.05078 C7.50195,12.05078 7.13086,12.43164 7.13086,12.96875 C7.13086,13.48633 7.51172,13.85742 8.0586,13.85742 Z" id="Shape"></path>
                </g>
                <text id="Design-Variations" fill="#000000" fill-rule="nonzero" font-family="Helvetica-Bold, Helvetica" font-size="13" font-weight="bold">
                    <tspan x="263" y="1953">Design Variations</tspan>
                </text>
                <text id="Symbols-are-supported-in-up-to-nine-weights-and-three-scales." fill="#000000" fill-rule="nonzero" font-family="Helvetica" font-size="13" font-weight="normal">
                    <tspan x="263" y="1971">Symbols are supported in up to nine weights and three scales.</tspan>
                </text>
                <text id="For-optimal-layout-with-text-and-other-symbols,-vertically-align" fill="#000000" fill-rule="nonzero" font-family="Helvetica" font-size="13" font-weight="normal">
                    <tspan x="263" y="1989">For optimal layout with text and other symbols, vertically align</tspan>
                </text>
                <text id="symbols-with-the-adjacent-text." fill="#000000" fill-rule="nonzero" font-family="Helvetica" font-size="13" font-weight="normal">
                    <tspan x="263" y="2007">symbols with the adjacent text.</tspan>
                </text>
                <line x1="776" y1="1919" x2="776" y2="1933" id="Path" stroke="#00AEEF" stroke-width="0.5"></line>
                <g id="Group" transform="translate(778.000000, 1918.000000)" fill="#000000" fill-rule="nonzero">
                    <path d="M1.31055,15.126953 C1.82812,15.126953 2.08203,14.9316406 2.26758,14.394531 L3.52734,10.9375 L9.2891,10.9375 L10.5488,14.394531 C10.7344,14.9316406 10.9883,15.126953 11.4961,15.126953 C12.0137,15.126953 12.3457,14.814453 12.3457,14.326172 C12.3457,14.160156 12.3164,14.013672 12.2383,13.79883 L7.6582,1.6113 C7.43359,1.0059 7.0332,0.7129 6.4082,0.7129 C5.80273,0.7129 5.39258,1.0059 5.17773,1.6016 L0.59766,13.80859 C0.51953,14.023438 0.49023,14.169922 0.49023,14.335938 C0.49023,14.824219 0.80273,15.126953 1.31055,15.126953 Z M4.00586,9.46289 L6.37891,2.8906 L6.42773,2.8906 L8.8008,9.46289 L4.00586,9.46289 Z" id="Shape"></path>
                </g>
                <line x1="792.836" y1="1919" x2="792.836" y2="1933" id="Path" stroke="#00AEEF" stroke-width="0.5"></line>
                <text id="Margins" fill="#000000" fill-rule="nonzero" font-family="Helvetica-Bold, Helvetica" font-size="13" font-weight="bold">
                    <tspan x="776" y="1953">Margins</tspan>
                </text>
                <text id="Leading-and-trailing-margins-on-the-left-and-right-side-of-each-symbol" fill="#000000" fill-rule="nonzero" font-family="Helvetica" font-size="13" font-weight="normal">
                    <tspan x="776" y="1971">Leading and trailing margins on the left and right side of each symbol</tspan>
                </text>
                <text id="can-be-adjusted-by-modifying-the-x-location-of-the-margin-guidelines." fill="#000000" fill-rule="nonzero" font-family="Helvetica" font-size="13" font-weight="normal">
                    <tspan x="776" y="1989">can be adjusted by modifying the x-location of the margin guidelines.</tspan>
                </text>
                <text id="Modifications-are-automatically-applied-proportionally-to-all" fill="#000000" fill-rule="nonzero" font-family="Helvetica" font-size="13" font-weight="normal">
                    <tspan x="776" y="2007">Modifications are automatically applied proportionally to all</tspan>
                </text>
                <text id="scales-and-weights." fill="#000000" fill-rule="nonzero" font-family="Helvetica" font-size="13" font-weight="normal">
                    <tspan x="776" y="2025">scales and weights.</tspan>
                </text>
                <g id="Group" transform="translate(1291.000000, 1914.000000)" fill="#000000" fill-rule="nonzero">
                    <path d="M0.8418,20.86523 L2.54102,22.57422 C3.40039,23.44336 4.38672,23.38477 5.31445,22.35938 L15.4902,11.14844 C15.7539,11.23633 16.0273,11.2168 16.3398,11.1582 L17.4043,10.96289 L18.0684,11.63672 L18.0293,12.19336 C17.9902,12.69141 18.1172,13.07227 18.6055,13.55078 L19.3672,14.29297 C19.8457,14.77148 20.4609,14.80078 20.9297,14.33203 L23.8398,11.41211 C24.3086,10.94336 24.2891,10.34766 23.8105,9.86914 L23.0391,9.10742 C22.5605,8.6289 22.1895,8.4727 21.7109,8.5117 L21.1348,8.5605 L20.4902,7.9258 L20.7344,6.8027 C20.8613,6.2363 20.7051,5.7969 20.1191,5.2109 L17.9219,3.0234 C14.582,-0.2969 10.1484,-0.2188 7.25781,2.6719 C6.83789,3.082 6.80859,3.6582 7.04297,4.0488 C7.27734,4.4102 7.73633,4.6445 8.3809,4.4785 C9.8457,4.1367 11.3691,4.0781 12.7949,5.0156 L12.209,6.4707 C12.0137,6.9492 11.9844,7.3496 12.1113,7.7109 L1.04688,18.101562 C0.06055,19.0195312 -0.01758,19.996094 0.8418,20.86523 Z M8.752,3.043 C11.1836,1.2656 14.4746,1.5684 16.7012,3.7949 L19.1328,6.207 C19.3672,6.4414 19.4062,6.627 19.3379,6.9688 L19.0156,8.4531 L20.5195,9.9375 L21.5059,9.87891 C21.7598,9.86914 21.8379,9.88867 22.0332,10.08398 L22.6094,10.66016 L20.168,13.10156 L19.5918,12.52539 C19.3965,12.33008 19.3672,12.25195 19.377,11.98828 L19.4453,11.01172 L17.9512,9.52734 L16.4277,9.78125 C16.1055,9.84961 15.959,9.82031 15.7148,9.58594 L13.7129,7.584 C13.459,7.3496 13.4297,7.1836 13.5859,6.8125 L14.4648,4.7227 C12.9023,3.2676 10.8711,2.6426 8.8398,3.2383 C8.6836,3.2773 8.625,3.1504 8.752,3.043 Z M3.27344,21.3047 L2.10156,20.14258 C1.63281,19.683594 1.74023,19.341797 2.14062,18.9804688 L12.9512,8.8047 L14.416,10.28906 L4.42578,21.27539 C4.07422,21.67578 3.74219,21.77344 3.27344,21.3047 Z" id="Shape"></path>
                </g>
                <text id="Exporting" fill="#000000" fill-rule="nonzero" font-family="Helvetica-Bold, Helvetica" font-size="13" font-weight="bold">
                    <tspan x="1289" y="1953">Exporting</tspan>
                </text>
                <text id="Symbols-should-be-outlined-when-exporting-to-ensure-the" fill="#000000" fill-rule="nonzero" font-family="Helvetica" font-size="13" font-weight="normal">
                    <tspan x="1289" y="1971">Symbols should be outlined when exporting to ensure the</tspan>
                </text>
                <text id="design-is-preserved-when-submitting-to-Xcode." fill="#000000" fill-rule="nonzero" font-family="Helvetica" font-size="13" font-weight="normal">
                    <tspan x="1289" y="1989">design is preserved when submitting to Xcode.</tspan>
                </text>
                <text id="template-version" fill="#000000" fill-rule="nonzero" font-family="Helvetica" font-size="13" font-weight="normal">
                    <tspan x="2952" y="1933">Template v.2.0</tspan>
                </text>
                <text id="Requires-Xcode-12-or-greater" fill="#000000" fill-rule="nonzero" font-family="Helvetica" font-size="13" font-weight="normal">
                    <tspan x="2865" y="1951">Requires Xcode 12 or greater</tspan>
                </text>
                <text id="Generated-from-tv.ar" fill="#000000" fill-rule="nonzero" font-family="Helvetica" font-size="13" font-weight="normal">
                    <tspan x="2753" y="1969">Generated from tv.arrowshape.turn.up.forward.fill</tspan>
                </text>
                <text id="Typeset-at-100-points" fill="#000000" fill-rule="nonzero" font-family="Helvetica" font-size="13" font-weight="normal">
                    <tspan x="2912" y="1987">Typeset at 100 points</tspan>
                </text>
                <text id="Small" fill="#000000" fill-rule="nonzero" font-family="Helvetica" font-size="13" font-weight="normal">
                    <tspan x="263" y="726">Small</tspan>
                </text>
                <text id="Medium" fill="#000000" fill-rule="nonzero" font-family="Helvetica" font-size="13" font-weight="normal">
                    <tspan x="263" y="1156">Medium</tspan>
                </text>
                <text id="Large" fill="#000000" fill-rule="nonzero" font-family="Helvetica" font-size="13" font-weight="normal">
                    <tspan x="263" y="1586">Large</tspan>
                </text>
            </g>
            <g id="Guides" transform="translate(263.000000, 625.000000)">
                <g id="H-reference" transform="translate(76.000000, 0.000000)" fill="#27AAE1" fill-rule="nonzero">
                    <path d="M0.976562,71 L3.66211,71 L12.9883,46.5371 L45.752,46.5371 L55.127,71 L57.7637,71 L30.6152,0.541 L28.125,0.541 L0.976562,71 Z M29.3457,3.8613 L29.4434,3.8613 L44.873,44.291 L13.8672,44.291 L29.3457,3.8613 Z" id="Shape"></path>
                </g>
                <line x1="0" y1="71" x2="2773" y2="71" id="Baseline-S" stroke="#27AAE1" stroke-width="0.5"></line>
                <line x1="0" y1="0.541" x2="2773" y2="0.541" id="Capline-S" stroke="#27AAE1" stroke-width="0.5"></line>
                <g id="H-reference" transform="translate(76.000000, 430.000000)" fill="#27AAE1" fill-rule="nonzero">
                    <path d="M0.976562,71 L3.66211,71 L12.9883,46.5371 L45.752,46.5371 L55.127,71 L57.7637,71 L30.6152,0.541 L28.125,0.541 L0.976562,71 Z M29.3457,3.8613 L29.4434,3.8613 L44.873,44.291 L13.8672,44.291 L29.3457,3.8613 Z" id="Shape"></path>
                </g>
                <line x1="0" y1="501" x2="2773" y2="501" id="Baseline-M" stroke="#27AAE1" stroke-width="0.5"></line>
                <line x1="0" y1="430.54" x2="2773" y2="430.54" id="Capline-M" stroke="#27AAE1" stroke-width="0.5"></line>
                <g id="H-reference" transform="translate(76.000000, 860.000000)" fill="#27AAE1" fill-rule="nonzero">
                    <path d="M0.976562,71 L3.66211,71 L12.9883,46.5371 L45.752,46.5371 L55.127,71 L57.7637,71 L30.6152,0.541 L28.125,0.541 L0.976562,71 Z M29.3457,3.8613 L29.4434,3.8613 L44.873,44.291 L13.8672,44.291 L29.3457,3.8613 Z" id="Shape"></path>
                </g>
                <line x1="0" y1="931" x2="2773" y2="931" id="Baseline-L" stroke="#27AAE1" stroke-width="0.5"></line>
                <line x1="0" y1="860.54" x2="2773" y2="860.54" id="Capline-L" stroke="#27AAE1" stroke-width="0.5"></line>
                <line x1="1113.43" y1="405.79" x2="1113.43" y2="525.12" id="left-margin" stroke="#00AEEF" stroke-width="0.5"></line>
                <line x1="1260.26" y1="405.79" x2="1260.26" y2="525.12" id="right-margin" stroke="#00AEEF" stroke-width="0.5"></line>
            </g>
            <g id="Symbols" transform="translate(487.000000, 616.000000)" fill="#000000" fill-rule="nonzero">
                <g id="Black-L" transform="translate(2361.250000, 834.000000)">
                    <path d="M148.6,0.189 C162.27982,0.189 170.073159,7.75076553 170.227658,21.4046817 L170.23,21.8203 L170.23,95.7461 C170.23,109.474608 162.573459,117.221115 149.012736,117.374673 L148.6,117.377 L21.6953,117.377 C8.015183,117.377 0.22135058,109.767778 0.0668419433,96.1602827 L0.0645,95.7461 L0.0645,21.8203 C0.0645,8.04346 7.72153125,0.34392607 21.2825545,0.191313075 L21.6953,0.189 L148.6,0.189 Z M87.0593491,27.189 C83.521793,27.189 80.8063299,29.9607394 80.8063299,33.5064691 L80.8063299,42.8203829 L80.4824519,42.8203829 C60.7768113,42.8203829 50.0645,55.7549962 50.0645,77.6788923 C50.0645,85.6693772 52.2567991,89.5897008 56.1680292,89.5897008 C58.8336453,89.5897008 60.8515563,88.4660213 62.5455894,85.1949597 C65.9271432,79.2020772 70.8271028,74.9486081 80.0192546,74.8107606 L80.8063299,74.8073089 L80.8063299,83.9714056 C80.8063299,87.4922305 83.521793,90.189 87.0344001,90.189 C89.3263421,90.189 91.0951202,89.3150327 93.2874193,87.2674742 L119.02164,63.4208501 C120.34205,62.17234 121.0645,60.2496632 121.0645,58.7014779 C121.0645,57.0284622 120.36705,55.2555717 119.07164,54.0070617 L93.2874193,30.1854446 C90.8958342,28.0130555 89.2515971,27.189 87.0593491,27.189 Z M50.9922,142.084 L119.352,142.084 C123.795,142.084 127.359,138.3242 127.359,134.125 C127.359,129.9258 123.795,126.166 119.352,126.166 L50.9922,126.166 C46.5,126.166 42.9844,129.9258 42.9844,134.125 C42.9844,138.3242 46.5,142.084 50.9922,142.084 Z" id="Shape"></path>
                </g>
                <g id="Heavy-L" transform="translate(2066.370000, 836.000000)">
                    <path d="M146.451,0.289 C159.256208,0.289 166.417854,7.22236616 166.565665,20.0481188 L166.568,20.4551 L166.568,94.03906 C166.568,106.940367 159.539742,114.008053 146.853497,114.153897 L146.451,114.1562 L20.1816,114.1562 C7.37698542,114.1562 0.214660601,107.222902 0.0668348904,94.4445293 L0.0645,94.03906 L0.0645,20.4551 C0.0645,7.5054125 7.09344341,0.437153765 19.7791209,0.291303506 L20.1816,0.289 L146.451,0.289 Z M85.5535219,25.289 C82.2470821,25.289 79.7672523,27.8707308 79.7672523,31.1494321 L79.7672523,41.5794573 L79.2506542,41.5794573 C58.1720743,41.5794573 47.0645,55.210725 47.0645,78.4717231 C47.0645,85.3648263 49.156868,88.8243001 52.6441303,88.8243001 C55.0722738,88.8243001 56.9838192,87.8432435 58.5595362,84.7968657 C62.5634495,77.439052 68.5305417,73.2050907 79.2506542,73.2050907 L79.7672523,73.2050907 L79.7672523,83.5318287 C79.7672523,86.8105829 82.2470821,89.289 85.5277052,89.289 C87.6975761,89.289 89.3766127,88.4370061 91.4431111,86.5266025 L118.02403,61.8456921 C119.392631,60.5806552 120.0645,58.7734595 120.0645,57.301901 C120.0645,55.7270817 119.418554,54.0231997 118.049423,52.7323079 L91.4431111,28.1547111 C89.1957901,26.0893371 87.6458899,25.289 85.5535219,25.289 Z M49.8691,137.7402 L116.764,137.7402 C120.768,137.7402 123.941,134.4199 123.941,130.6602 C123.941,126.8516 120.768,123.5312 116.764,123.5312 L49.8691,123.5312 C45.9141,123.5312 42.7402,126.8516 42.7402,130.6602 C42.7402,134.4199 45.9141,137.7402 49.8691,137.7402 Z" id="Shape"></path>
                </g>
                <g id="Bold-L" transform="translate(1771.710000, 838.000000)">
                    <path d="M144.01,0.682 C155.889011,0.682 162.324658,6.89056539 162.464666,18.7415773 L162.467,19.1387 L162.467,92.33203 C162.467,104.30834 156.161892,110.648855 144.40395,110.786761 L144.01,110.78906 L18.5215,110.78906 C6.69006044,110.78906 0.207887876,104.580152 0.0668512901,92.7291522 L0.0645,92.33203 L0.0645,19.1387 C0.0645,7.16237033 6.41665674,0.822196921 18.1291013,0.684298692 L18.5215,0.682 L144.01,0.682 Z M84.1646714,23.682 C81.1357037,23.682 78.9377038,26.0100932 78.9377038,28.9804398 L78.9377038,40.7281032 L78.1871592,40.7281032 C55.5906183,40.7281032 44.0645,55.1249591 44.0645,79.9047051 C44.0645,85.4975324 45.9944953,88.3608459 48.9430397,88.3608459 C51.0159269,88.3608459 52.7381942,87.6106967 54.1581898,85.0709489 L54.3040097,84.8017899 C58.9278462,76.0443862 65.8696446,71.915146 77.6709875,71.798955 L78.9377038,71.79643 L78.9377038,83.4905385 C78.9377038,86.4608851 81.1357037,88.682 84.1110925,88.682 C86.1214562,88.682 87.7029138,87.8791696 89.6060647,86.1130412 L117.08109,60.5304868 C118.474912,59.1924908 119.0645,57.5601402 119.0645,56.1686003 C119.0645,54.7235713 118.501811,53.1714544 117.08109,51.8334584 L89.6060647,26.3579919 C87.5152776,24.4580311 86.0946118,23.682 84.1646714,23.682 Z M48.6484,133.1523 L113.932,133.1523 C117.35,133.1523 120.084,130.2715 120.084,127 C120.084,123.6797 117.35,120.7988 113.932,120.7988 L48.6484,120.7988 C45.1816,120.7988 42.4473,123.6797 42.4473,127 C42.4473,130.2715 45.1816,133.1523 48.6484,133.1523 Z" id="Shape"></path>
                </g>
                <g id="Semibold-L" transform="translate(1476.420000, 840.000000)">
                    <path d="M142.35,0.3418 C153.549273,0.3418 159.49892,6.0209935 159.632693,17.2380116 L159.635,17.627 L159.635,90.52734 C159.635,101.871557 153.812617,107.727437 142.7341,107.85906 L142.35,107.86133 L17.3496,107.86133 C6.15022841,107.86133 0.200579946,102.134361 0.0668068624,90.9163442 L0.0645,90.52734 L0.0645,17.627 C0.0645,6.28269432 5.88688288,0.474588249 16.9654964,0.344050754 L17.3496,0.3418 L142.35,0.3418 Z M82.5320738,21.3418 C79.8072764,21.3418 77.8378262,23.4858372 77.8378262,26.1726926 L77.8378262,38.7384936 L76.9475541,38.7384936 C53.6921847,38.7384936 42.0645,53.5297046 42.0645,79.1497096 C42.0645,83.7363729 43.8720072,86.124695 46.3809911,86.124695 C48.2694974,86.124695 49.8882092,85.4733243 51.2101636,82.9493255 C56.2685925,73.2003846 63.8492955,69.1868468 76.4411994,69.0829152 L77.8378262,69.0808387 L77.8378262,81.6465842 C77.8378262,84.3063153 79.8072764,86.3418 82.4781481,86.3418 C84.3396363,86.3418 85.8234784,85.5547526 87.550097,83.9263537 L115.121847,57.9806355 C116.551763,56.65077 117.0645,55.1309236 117.0645,53.8282379 C117.0645,52.4983723 116.578837,51.03283 115.14892,49.6758402 L87.550097,23.8657988 C85.6346278,22.0745989 84.3396363,21.3418 82.5320738,21.3418 Z M47.7695,129.3457 L111.93,129.3457 C115.006,129.3457 117.447,126.8066 117.447,123.8281 C117.447,120.8496 115.006,118.3105 111.93,118.3105 L47.7695,118.3105 C44.7422,118.3105 42.252,120.8496 42.252,123.8281 C42.252,126.8066 44.7422,129.3457 47.7695,129.3457 Z" id="Shape"></path>
                </g>
                <g id="Medium-L" transform="translate(1180.780000, 841.000000)">
                    <path d="M141.08,0.5625 C151.792471,0.5625 157.354305,5.8556231 157.483689,16.5833558 L157.486,16.9688 L157.486,89.72266 C157.486,100.579729 152.050194,106.000612 141.460398,106.126659 L141.08,106.12891 L16.4707,106.12891 C5.80665294,106.12891 0.197338727,100.835758 0.0668308554,90.1081014 L0.0645,89.72266 L0.0645,16.9688 C0.0645,6.11165176 5.54835484,0.690797509 16.091991,0.564750716 L16.4707,0.5625 L141.08,0.5625 Z M82.3490587,20.5625 C79.7928351,20.5625 78.0061807,22.5654255 78.0061807,25.0348611 L78.0061807,38.2598221 L76.9892079,38.2598221 C52.911113,38.2598221 41.0645,53.3780209 41.0645,79.6085113 C41.0645,83.4223524 42.7686866,85.452756 44.967568,85.452756 C46.6717546,85.452756 48.2384759,84.9039801 49.447855,82.5717666 C54.8780751,72.0557673 63.0976224,68.1258091 76.4907943,68.0315204 L78.0061807,68.0297769 L78.0061807,81.254783 C78.0061807,83.7241624 79.7928351,85.5625 82.3215319,85.5625 C84.053189,85.5625 85.4549745,84.8491362 87.1316905,83.3126085 L115.140437,57.0821181 C116.597276,55.7102344 117.0645,54.2834506 117.0645,53.076211 C117.0645,51.8140712 116.624296,50.4421875 115.140437,49.0428819 L87.1316905,22.9769793 C85.3175655,21.3032857 84.0806595,20.5625 82.3490587,20.5625 Z M47.1348,126.9297 L110.416,126.9297 C113.199,126.9297 115.445,124.6836 115.445,121.998 C115.445,119.2148 113.199,116.9688 110.416,116.9688 L47.1348,116.9688 C44.3516,116.9688 42.1055,119.2148 42.1055,121.998 C42.1055,124.6836 44.3516,126.9297 47.1348,126.9297 Z" id="Shape"></path>
                </g>
                <g id="Regular-L" transform="translate(885.460000, 843.000000)">
                    <path d="M139.42,0.2227 C149.450617,0.2227 154.575641,4.98568125 154.700656,15.0761106 L154.703,15.457 L154.703,87.91797 C154.703,98.141733 149.701811,103.078575 139.793848,103.198914 L139.42,103.20117 L15.3477,103.20117 C5.31678642,103.20117 0.191856683,98.3905472 0.0668440781,88.2988838 L0.0645,87.91797 L0.0645,15.457 C0.0645,5.2332963 5.0655913,0.344096479 14.9738406,0.22493375 L15.3477,0.2227 L139.42,0.2227 Z M80.8396461,18.2227 C78.5121373,18.2227 76.9226021,20.0600003 76.9226021,22.2929635 L76.9226021,36.5670481 L75.7305088,36.5670481 C50.3265458,36.5670481 38.0645,52.3392106 38.0645,79.8698284 C38.0645,82.6681237 39.6824032,84.2227 41.4989982,84.2227 C42.9466356,84.2227 44.4225827,83.8269791 45.5295722,81.6788215 C51.3277552,70.3738906 60.0224647,66.3831946 73.7369233,66.0437613 L74.7250931,66.0256763 L74.7250931,66.0256763 L75.7305088,66.0197139 L75.7305088,66.0197139 L76.9226021,66.0197139 L76.9226021,80.3503548 C76.9226021,82.5833181 78.5121373,84.2227 80.7829103,84.2227 C82.4008134,84.2227 83.7348627,83.5443131 85.2676039,82.1027916 L114.134549,55.0809495 C115.638981,53.6676772 116.0645,52.3674598 116.0645,51.2368536 C116.0645,50.049691 115.638981,48.7777228 114.134549,47.3362013 L85.2676039,20.5122196 C83.5929648,18.9576433 82.4575493,18.2227 80.8396461,18.2227 Z M46.3047,123.1719 L108.463,123.1719 C110.904,123.1719 112.857,121.2188 112.857,118.8262 C112.857,116.3848 110.904,114.4805 108.463,114.4805 L46.3047,114.4805 C43.8633,114.4805 41.9102,116.3848 41.9102,118.8262 C41.9102,121.2188 43.8633,123.1719 46.3047,123.1719 Z" id="Shape"></path>
                </g>
                <g id="Light-L" transform="translate(590.610000, 845.000000)">
                    <path d="M136.979,0.2246 C146.180653,0.2246 150.866189,4.69291865 150.9895,13.8639255 L150.992,14.2383 L150.992,87.04102 C150.992,96.3391891 146.429153,100.883898 137.349566,101.003437 L136.979,101.00586 L14.0781,101.00586 C4.876348,101.00586 0.19032464,96.5851266 0.0669998841,87.4153695 L0.0645,87.04102 L0.0645,14.2383 C0.0645,4.94015067 4.62783333,0.347856693 13.70753,0.227048525 L14.0781,0.2246 L136.979,0.2246 Z M78.736985,19.2246 C76.7910641,19.2246 75.5577158,20.7363546 75.5577158,22.6054585 L75.5577158,37.1460549 L74.2147453,37.1460549 C50.9185342,37.1460549 38.0645,51.1643627 38.0645,78.6513312 C38.0645,80.9052557 39.380079,82.2246 40.8874548,82.2246 C42.1756423,82.2246 43.2993122,81.7573099 44.2037377,79.9432045 C49.075403,69.7027585 57.0614386,65.3990872 69.7085456,64.6259029 L70.6780726,64.5739293 C70.8411625,64.5663854 71.0050056,64.5593974 71.1696048,64.5529605 L72.1663007,64.5209126 C72.5015744,64.5124081 72.8398983,64.5060688 73.1812973,64.5018556 L74.2147453,64.4955554 L74.2147453,64.4955554 L75.5577158,64.4955554 L75.5577158,78.9536822 C75.5577158,80.795315 76.7910641,82.2246 78.6821458,82.2246 C80.0525079,82.2246 81.1488424,81.5924271 82.3273515,80.4929641 L110.145971,54.4078657 C111.708073,52.8960549 112.0645,51.7691208 112.0645,50.7246 C112.0645,49.6526081 111.735577,48.5256177 110.145971,47.0138632 L82.3273515,21.0387055 C81.0666117,19.8567729 80.0799555,19.2246 78.736985,19.2246 Z M45.1328,119.1699 L105.973,119.1699 C107.828,119.1699 109.293,117.7051 109.293,115.8496 C109.293,113.9453 107.828,112.4805 105.973,112.4805 L45.1328,112.4805 C43.2773,112.4805 41.7637,113.9453 41.7637,115.8496 C41.7637,117.7051 43.2773,119.1699 45.1328,119.1699 Z" id="Shape"></path>
                </g>
                <g id="Thin-L" transform="translate(296.335000, 847.000000)">
                    <path d="M133.756,0.9102 C141.959,0.9102 146.109,5.0117 146.109,13.2148 L146.109,13.2148 L146.109,86.45703 C146.109,94.66016 141.959,98.81055 133.756,98.81055 L133.756,98.81055 L12.418,98.81055 C4.2148,98.81055 0.0645,94.66016 0.0645,86.45703 L0.0645,86.45703 L0.0645,13.2148 C0.0645,5.0117 4.2148,0.9102 12.418,0.9102 L12.418,0.9102 Z M77.197936,19.9102 C75.6637659,19.9102 74.8563602,21.0646118 74.8563602,22.4874352 L74.8563602,37.5746745 L73.3222452,37.5746745 C52.0060839,37.5746745 38.0645,49.5209702 38.0645,77.3061896 C38.0645,78.9169341 39.0334089,79.9102 40.2445175,79.9102 C41.3480308,79.9102 42.07474,79.400152 42.7206425,77.9504984 C47.4844906,66.9437643 57.0928832,62.5947925 73.3222452,62.5947925 L74.8563602,62.5947925 L74.8563602,77.3598499 C74.8563602,78.7826733 75.6637659,79.9102 77.170982,79.9102 C78.2206425,79.9102 79.081901,79.3732668 79.8624079,78.6484675 L107.045986,53.4404284 C108.795512,51.8028537 109.0645,50.8632481 109.0645,49.9236426 C109.0645,48.9572069 108.822521,48.0444315 107.045986,46.4068568 L79.8624079,21.1988176 C79.081901,20.4739633 78.2475965,19.9102 77.197936,19.9102 Z M43.5703,114.4844 L102.604,114.4844 C103.775,114.4844 104.654,113.6543 104.654,112.5312 C104.654,111.3594 103.775,110.5293 102.604,110.5293 L43.5703,110.5293 C42.4473,110.5293 41.5195,111.3594 41.5195,112.5312 C41.5195,113.6543 42.4473,114.4844 43.5703,114.4844 Z" id="Shape"></path>
                </g>
                <g id="Ultralight-L" transform="translate(0.869000, 849.000000)">
                    <path d="M132.145,0.2773 C139.59475,0.2773 143.496043,4.06248181 143.61614,11.3999144 L143.619,11.752 L143.619,85.18945 C143.619,92.6413737 139.83226,96.59034 132.491691,96.7100829 L132.145,96.71289 L11.5391,96.71289 C4.08713692,96.71289 0.185557562,92.8785687 0.0672727447,85.536192 L0.0645,85.18945 L0.0645,11.752 C0.0645,4.30185625 3.84958491,0.400265942 11.1870145,0.280160128 L11.5391,0.2773 L132.145,0.2773 Z M75.6908672,19.2773 C74.3746588,19.2773 73.756823,20.2401222 73.756823,21.4704072 L73.756823,36.9291315 L72.1183014,36.9291315 C51.6769666,36.9291315 37.0645,47.9481818 37.0645,76.1109227 C37.0645,77.421452 37.8434648,78.2773 38.9447978,78.2773 C39.9655388,78.2773 40.4758818,77.7156446 41.0131254,76.4318999 C44.9820483,66.7427601 53.2286682,62.0756737 66.8327516,61.1669448 L67.8502765,61.1064866 C69.2200846,61.0349901 70.6424129,60.9998507 72.1183014,60.9998507 L73.756823,60.9998507 L73.756823,76.057463 C73.756823,77.287748 74.3746588,78.2773 75.6908672,78.2773 C76.5338656,78.2773 77.2395705,77.8443278 77.7868239,77.3569833 L104.996612,52.227422 C106.752753,50.5815604 107.043578,49.7516916 107.063652,48.881919 L107.063652,48.6765399 L107.063652,48.6765399 L107.055488,48.4757956 C107.001916,47.6724738 106.667988,46.8457096 104.996612,45.3003934 L77.9203239,20.2935819 C77.3562346,19.7854409 76.6041155,19.2773 75.6908672,19.2773 Z M42.7891,111.1172 L100.895,111.1172 C101.676,111.1172 102.262,110.6289 102.262,109.8477 C102.262,109.0664 101.676,108.5781 100.895,108.5781 L42.7891,108.5781 C42.0078,108.5781 41.4219,109.0664 41.4219,109.8477 C41.4219,110.6289 42.0078,111.1172 42.7891,111.1172 Z" id="Shape"></path>
                </g>
                <g id="Black-M" transform="translate(2378.520000, 418.000000)">
                    <path d="M117.199,0.252 C128.449589,0.252 135.163694,6.8412941 135.311507,17.9896876 L135.314,18.3672 L135.314,76.3262 C135.314,87.5767098 128.724901,94.2910976 117.576512,94.4389172 L117.199,94.44141 L18.5664,94.44141 C7.31591,94.44141 0.601512667,87.8520279 0.453692786,76.7037098 L0.4512,76.3262 L0.4512,18.3672 C0.4512,7.11661111 7.04059189,0.402310469 18.1888909,0.25449275 L18.5664,0.252 L117.199,0.252 Z M67.9909864,24.252 C65.1047247,24.252 62.8520103,26.5170608 62.8520103,29.4191896 L62.8520103,35.5773041 L62.7581532,35.5773041 C49.7111526,35.5773041 41.4512,44.11848 41.4512,59.8087436 C41.4512,60.9979003 41.4970694,62.087867 41.5889108,63.0792639 L41.6569501,63.7255991 C42.2058668,68.358402 43.8541145,70.6385611 46.6136764,70.6385611 C48.9367956,70.6385611 50.4855577,69.5532213 51.8465576,66.8634598 L52.0607062,66.4904392 L52.0607062,66.4904392 L52.2869564,66.1142294 C52.3257197,66.0513491 52.3650223,65.9884012 52.4048814,65.9254184 L52.6508551,65.5473636 C52.6930105,65.4843717 52.7357574,65.4214102 52.7791133,65.3585118 L53.0466962,64.9821388 L53.0466962,64.9821388 L53.3297326,64.6088462 C55.1244949,62.3195956 57.8485563,60.2954676 62.3862411,60.1905199 L62.8520103,60.1862489 L62.8520103,66.084849 C62.8520103,69.010549 65.1047247,71.252 67.9909864,71.252 C69.7521284,71.252 71.0896536,70.6132011 72.6877073,69.1737302 L91.8321291,51.5743113 C92.8413452,50.6069189 93.4512,49.0260877 93.4512,47.752 C93.4512,46.3835409 92.8648935,44.9206619 91.8556775,43.9533178 L72.9422963,26.5642707 C71.0885107,24.8654389 69.7274627,24.252 67.9909864,24.252 Z M40.7832,114.1191 L94.982,114.1191 C98.791,114.1191 101.818,110.8477 101.818,107.332 C101.818,103.8164 98.791,100.54492 94.982,100.54492 L40.7832,100.54492 C36.9746,100.54492 33.9473,103.8164 33.9473,107.332 C33.9473,110.8477 36.9746,114.1191 40.7832,114.1191 Z" id="Shape"></path>
                </g>
                <g id="Heavy-M" transform="translate(2083.320000, 420.000000)">
                    <path d="M115.441,0.0586 C126.010651,0.0586 132.143316,6.02098338 132.284507,16.4843386 L132.287,16.8555 L132.287,74.3262 C132.287,84.9434512 126.277238,91.0293105 115.812202,91.1694066 L115.441,91.17188 L17.248,91.17188 C6.6790407,91.17188 0.593762439,85.2094771 0.45367335,74.6990427 L0.4512,74.3262 L0.4512,16.8555 C0.4512,6.28644186 6.41358338,0.201162453 16.876842,0.0610733505 L17.248,0.0586 L115.441,0.0586 Z M67.5057427,22.0586 C64.7836293,22.0586 62.6991534,24.1466283 62.6991534,26.8733808 L62.6991534,33.9480961 L62.4539623,33.9480961 C47.8871902,33.9480961 39.4512,43.4056006 39.4512,60.1834747 C39.4512,66.4721105 41.1187707,69.5672815 44.1841617,69.5672815 C46.2686376,69.5672815 47.7890534,68.6583975 49.0642782,66.1282026 C49.1977946,65.8866469 49.335398,65.6479722 49.4774668,65.4126041 L49.7676707,64.9464024 C52.1881245,61.1771519 55.8671807,58.3656615 62.4539623,58.3656615 L62.6991534,58.3656615 L62.6991534,65.2684304 C62.6991534,67.9951426 64.7836293,70.0586 67.4811834,70.0586 C69.1586055,70.0586 70.4376058,69.4599943 71.9700322,68.0732834 L91.8571063,49.7187873 C92.9117997,48.7362005 93.4512,47.2622952 93.4512,46.0586 C93.4512,44.7812523 92.9364092,43.4056006 91.8817158,42.4230139 L72.2141953,24.2940339 C70.4239789,22.6481722 69.1487541,22.0586 67.5057427,22.0586 Z M39.8555,110.0684 L92.834,110.0684 C96.301,110.0684 98.986,107.1875 98.986,103.9648 C98.986,100.791 96.301,97.86133 92.834,97.86133 L39.8555,97.86133 C36.4375,97.86133 33.7031,100.791 33.7031,103.9648 C33.7031,107.1875 36.4375,110.0684 39.8555,110.0684 Z" id="Shape"></path>
                </g>
                <g id="Bold-M" transform="translate(1788.320000, 422.000000)">
                    <path d="M113.537,0.0605 C123.276712,0.0605 128.731588,5.29816173 128.866439,15.0212155 L128.869,15.3926 L128.869,72.375 C128.869,82.2114282 123.53587,87.5720366 113.904801,87.7045148 L113.537,87.707031 L15.7832,87.707031 C6.04319125,87.707031 0.588604156,82.469378 0.453761355,72.7463822 L0.4512,72.375 L0.4512,15.3926 C0.4512,5.5561125 5.78403698,0.195494672 15.4153883,0.0630161773 L15.7832,0.0605 L113.537,0.0605 Z M66.5939427,19.0605 C64.0646252,19.0605 62.1872355,21.0207669 62.1872355,23.5299149 L62.1872355,31.8676197 L61.7439481,31.8676197 C45.1341542,31.8676197 36.4512,42.6098779 36.4512,60.9580475 C36.4512,66.133166 38.0417693,68.7207011 40.6492669,68.7207011 C42.5005966,68.7207011 43.9607589,67.9888917 45.1602142,65.6626987 C48.4196396,59.6773356 53.2174074,56.4102188 61.7439481,56.4102188 L62.1872355,56.4102188 L62.1872355,64.6694936 C62.1872355,67.1786417 64.0646252,69.0605 66.5678293,69.0605 C68.236632,69.0605 69.5143208,68.4070777 71.1048901,66.9434107 L91.8865306,47.5759301 C92.9556323,46.582709 93.4512,45.1974452 93.4512,44.073561 C93.4512,42.8712575 92.9817992,41.5644129 91.9126974,40.5450699 L71.1048901,21.2560246 C69.3839673,19.6616785 68.184512,19.0605 66.5939427,19.0605 Z M38.8789,105.8223 L90.441,105.8223 C93.469,105.8223 95.861,103.2832 95.861,100.4512 C95.861,97.57031 93.469,95.08008 90.441,95.08008 L38.8789,95.08008 C35.8516,95.08008 33.459,97.57031 33.459,100.4512 C33.459,103.2832 35.8516,105.8223 38.8789,105.8223 Z" id="Shape"></path>
                </g>
                <g id="Semibold-M" transform="translate(1492.780000, 423.000000)">
                    <path d="M112.17,0.4766 C121.371653,0.4766 126.390129,5.23006005 126.52232,14.4086707 L126.525,14.7832 L126.525,71.375 C126.525,80.7230197 121.627471,85.6011804 112.535898,85.7279346 L112.17,85.73047 L14.7578,85.73047 C5.55594933,85.73047 0.584783253,80.9770002 0.453854709,71.7514578 L0.4512,71.375 L0.4512,14.7832 C0.4512,5.48505067 5.29967474,0.607615289 14.3870713,0.47920335 L14.7578,0.4766 L112.17,0.4766 Z M66.0535393,17.4766 C63.6935082,17.4766 61.9574151,19.3163812 61.9574151,21.6161215 L61.9574151,30.842123 L61.3877543,30.842123 C43.2944417,30.842123 34.4512,42.4490405 34.4512,61.8209063 C34.4512,66.0686493 35.9974062,68.2331281 38.2489384,68.2331281 C39.8161979,68.2331281 41.2074272,67.7062453 42.3256923,65.7344582 L42.453506,65.5004798 C46.2423192,58.4482561 51.7370003,55.3223976 60.9252544,55.2218056 L61.9574151,55.2192929 L61.9574151,64.4182543 C61.9574151,66.7179891 63.6935082,68.4766 66.0264285,68.4766 C67.5997455,68.4766 68.847566,67.8272713 70.3666613,66.4203759 L91.9051049,46.3450347 C92.9900937,45.3169005 93.4512,44.0452944 93.4512,42.9630799 C93.4512,41.85377 93.0173156,40.6362995 91.9323268,39.6081653 L70.3666613,19.6410289 C68.7119007,18.0988553 67.5997455,17.4766 66.0535393,17.4766 Z M38.1465,103.2598 L88.781,103.2598 C91.516,103.2598 93.664,101.0137 93.664,98.4258 C93.664,95.78906 91.516,93.54297 88.781,93.54297 L38.1465,93.54297 C35.4609,93.54297 33.3125,95.78906 33.3125,98.4258 C33.3125,101.0137 35.4609,103.2598 38.1465,103.2598 Z" id="Shape"></path>
                </g>
                <g id="Medium-M" transform="translate(1196.970000, 424.000000)">
                    <path d="M111.193,0.5508 C119.956569,0.5508 124.589319,4.91908322 124.716316,13.7024444 L124.719,14.0762 L124.719,70.4238 C124.719,79.3315685 120.207966,83.823561 111.560832,83.9466202 L111.193,83.94922 L13.9766,83.94922 C5.21322778,83.94922 0.580869483,79.5809465 0.453883329,70.7975568 L0.4512,70.4238 L0.4512,14.0762 C0.4512,5.16846111 4.96184479,0.676459298 13.6087762,0.553399784 L13.9766,0.5508 L111.193,0.5508 Z M65.3606668,16.5508 C63.1825197,16.5508 61.6306116,18.249005 61.6306116,20.3853641 L61.6306116,30.1362154 L60.9499511,30.1362154 C42.1636767,30.1362154 33.4512,42.2699051 33.4512,62.1549789 C33.4512,65.6334955 34.92142,67.4412474 36.8272917,67.4412474 C38.2703009,67.4412474 39.6043553,66.9756014 40.6661901,64.9761352 C44.8740053,57.103254 50.8229685,54.1403853 60.4869458,54.0497177 L61.6306116,54.047563 L61.6306116,63.8531513 C61.6306116,65.9895666 63.1825197,67.5508 65.3061894,67.5508 C66.8036202,67.5508 67.9744098,66.9756014 69.4173632,65.6061046 L90.9808127,45.2554228 C92.0424803,44.2419635 92.4512,43.0642033 92.4512,42.0508 C92.4512,41.0099665 92.0424803,39.8595804 90.9808127,38.8461772 L69.4173632,18.6324109 C67.8382442,17.1533671 66.8036202,16.5508 65.3606668,16.5508 Z M37.6094,101.0391 L87.5605,101.0391 C90.002,101.0391 92.004,99.0371 92.004,96.5957 C92.004,94.1543 90.002,92.10352 87.5605,92.10352 L37.6094,92.10352 C35.168,92.10352 33.166,94.1543 33.166,96.5957 C33.166,99.0371 35.168,101.0391 37.6094,101.0391 Z" id="Shape"></path>
                </g>
                <g id="Regular-M" transform="translate(901.430000, 425.000000)">
                    <path d="M109.9938,0.918 C118.222786,0.918 122.372628,4.80668591 122.491185,13.0981423 L122.4938,13.4668 L122.4938,69.4238 C122.4938,77.8449101 118.463218,81.8556508 110.354197,81.9701354 L109.9938,81.97266 L13.1188,81.97266 C4.8902087,81.97266 0.692587692,78.0839644 0.57264585,69.7924598 L0.57,69.4238 L0.57,13.4668 C0.57,5.04573913 4.64836606,1.03500886 12.7583893,0.920524571 L13.1188,0.918 L109.9938,0.918 Z M63.9841006,15.918 C62.0035679,15.918 60.5889183,17.4774057 60.5889183,19.3770877 L60.5889183,30.094685 L59.7684285,30.094685 C39.4257275,30.094685 30.57,43.1655304 30.57,64.1186593 C30.57,66.5570403 31.9563149,67.918 33.4841875,67.918 C34.6724491,67.918 35.9739337,67.6344675 36.9642001,65.8198546 C41.8168685,56.6807656 48.6213617,53.8503787 59.3016213,53.7713756 L60.5889183,53.7696636 L60.5889183,64.6006612 C60.5889183,66.5003373 62.0035679,67.918 63.9274891,67.918 C65.313862,67.918 66.4455701,67.3509349 67.8036661,66.0750385 L90.1266101,44.9518063 C91.2020543,43.9310938 91.57,42.8536492 91.57,41.918 C91.57,40.9539673 91.230447,39.9049178 90.1266101,38.8558683 L67.8036661,17.931088 C66.3041283,16.5134253 65.3704734,15.918 63.9841006,15.918 Z M36.9258,98.4766 L85.9004,98.4766 C88.098,98.4766 89.855,96.7188 89.855,94.57031 C89.855,92.37305 88.098,90.56641 85.9004,90.56641 L36.9258,90.56641 C34.7773,90.56641 32.9707,92.37305 32.9707,94.57031 C32.9707,96.7188 34.7773,98.4766 36.9258,98.4766 Z" id="Shape"></path>
                </g>
                <g id="Light-M" transform="translate(606.360000, 427.000000)">
                    <path d="M107.678,0.7246 C115.129569,0.7246 118.984414,4.32219678 119.101261,11.7971697 L119.104,12.1504 L119.104,68.4004 C119.104,75.9965403 115.363795,79.7110396 108.024657,79.8235339 L107.678,79.82617 L11.877,79.82617 C4.37698769,79.82617 0.569289136,76.2285344 0.453904331,68.7536271 L0.4512,68.4004 L0.4512,12.1504 C0.4512,4.55419077 4.14351375,0.839729231 11.5281413,0.727236026 L11.877,0.7246 L107.678,0.7246 Z M62.8258799,15.7246 C61.1513196,15.7246 60.0628583,17.0331072 60.0628583,18.6477881 L60.0628583,29.7557887 L59.0860267,29.7557887 C40.1356651,29.7557887 30.4512,41.3648991 30.4512,62.6065612 C30.4512,64.5831769 31.6233408,65.7246 32.9071684,65.7246 C33.9677366,65.7246 35.0004117,65.390523 35.7818198,63.8315065 C40.2119575,54.9659811 47.2463833,51.8914531 58.5969273,51.8066053 L60.0628583,51.8047913 L60.0628583,62.9127975 C60.0628583,64.5274955 61.1513196,65.7246 62.7979868,65.7246 C63.9701276,65.7246 64.919066,65.1956495 66.0075274,64.1934185 L87.9719489,43.6477453 C89.1442611,42.5341743 89.4512,41.5876589 89.4512,40.7246143 C89.4512,39.833746 89.1722686,38.9150542 87.9719489,37.7736026 L66.0075274,17.3393378 C64.8353294,16.2535904 63.9980779,15.7246 62.8258799,15.7246 Z M35.9004,94.6699 L83.6543,94.6699 C85.3145,94.6699 86.6816,93.3516 86.6816,91.69141 C86.6816,89.98242 85.3145,88.61523 83.6543,88.61523 L35.9004,88.61523 C34.1914,88.61523 32.8242,89.98242 32.8242,91.69141 C32.8242,93.3516 34.1914,94.6699 35.9004,94.6699 Z" id="Shape"></path>
                </g>
                <g id="Thin-M" transform="translate(311.842000, 430.000000)">
                    <path d="M104.748,0.1172 C111.228271,0.1172 114.593871,3.32590129 114.706097,9.69694341 L114.709,10.0293 L114.709,66.6699 C114.709,73.1979966 111.453236,76.5173533 105.080408,76.6279985 L104.748,76.63086 L10.3633,76.63086 C3.88322542,76.63086 0.564692359,73.422149 0.454061268,67.0046986 L0.4512,66.6699 L0.4512,10.0293 C0.4512,3.54922542 3.65990129,0.230692359 10.0309434,0.120061268 L10.3633,0.1172 L104.748,0.1172 Z M60.7574107,15.1172 C59.5013453,15.1172 58.7797467,16.0604429 58.7797467,17.2731365 L58.7797467,28.8075787 L57.6572843,28.8075787 C40.9274061,28.8075787 30.4512,38.4824691 30.4512,59.9073348 C30.4512,61.281765 31.279692,62.1172 32.2684966,62.1172 C33.1504626,62.1172 33.7918228,61.7399028 34.353054,60.5271762 C38.0689681,52.0496774 45.2152708,48.7348007 57.1501405,48.6443562 L58.7797467,48.6424481 L58.7797467,59.9881865 C58.7797467,61.2009132 59.5013453,62.1172 60.730701,62.1172 C61.544773,62.1172 62.199442,61.7497931 62.8208414,61.1845496 L83.9279833,41.3660659 C85.2377417,40.1263831 85.4512,39.3717888 85.4512,38.6172 L85.4452892,38.4011812 C85.4073283,37.7506108 85.1648419,37.0661021 84.1112042,36.0421731 L62.9755711,16.2221023 C62.2807369,15.5483652 61.6126123,15.1172 60.7574107,15.1172 Z M34.4844,89.32617 L80.627,89.32617 C81.7012,89.32617 82.5312,88.54492 82.5312,87.4707 C82.5312,86.44531 81.7012,85.66406 80.627,85.66406 L34.4844,85.66406 C33.459,85.66406 32.6289,86.44531 32.6289,87.4707 C32.6289,88.54492 33.459,89.32617 34.4844,89.32617 Z" id="Shape"></path>
                </g>
                <g id="Ultralight-M" transform="translate(16.254000, 431.000000)">
                    <path d="M103.283,0.3379 C109.231772,0.3379 112.352449,3.30710997 112.460116,9.19915871 L112.463,9.5176 L112.463,66.3535 C112.463,72.3019772 109.446687,75.4226492 103.598978,75.5303156 L103.283,75.5332 L9.6309,75.5332 C3.6343807,75.5332 0.560065159,72.5168873 0.454040088,66.6694622 L0.4512,66.3535 L0.4512,9.5176 C0.4512,3.52117895 3.42031345,0.446768606 9.31245363,0.340740179 L9.6309,0.3379 L103.283,0.3379 Z M59.232378,15.3379 C58.1677737,15.3379 57.635526,16.1411902 57.635526,17.1586142 L57.635526,28.993339 L56.4112746,28.993339 C40.4694079,28.993339 29.4512,37.8292017 29.4512,59.5171803 C29.4512,60.6417426 30.1165505,61.3379 30.9948,61.3379 C31.7932532,61.3379 32.2457046,60.9362714 32.6981015,59.8920326 C36.1374411,51.5189511 43.4876555,48.0445224 55.8983925,47.9521479 L57.635526,47.9502518 L57.635526,59.5171803 C57.635526,60.5346428 58.1677737,61.3379 59.232378,61.3379 C59.9775792,61.3379 60.5896777,60.9362714 61.0687278,60.4810901 L81.8808923,41.0421978 C83.1389817,39.8495183 83.4074108,39.1878855 83.4458186,38.5342782 L83.4512,38.3379137 L83.4512,38.3379137 L83.4502046,38.2438618 L83.4502046,38.2438618 L83.4406274,38.0562076 C83.3882568,37.4294048 83.1075063,36.7744534 81.8808923,35.6336297 L61.0687278,16.1947099 C60.5896777,15.7395725 59.9775792,15.3379 59.232378,15.3379 Z M33.8008,87.05664 L79.1133,87.05664 C79.8457,87.05664 80.3828,86.61719 80.3828,85.88477 C80.3828,85.15234 79.8457,84.66406 79.1133,84.66406 L33.8008,84.66406 C33.0684,84.66406 32.5312,85.15234 32.5312,85.88477 C32.5312,86.61719 33.0684,87.05664 33.8008,87.05664 Z" id="Shape"></path>
                </g>
                <g id="Black-S" transform="translate(2392.900000, 0.000000)">
                    <path d="M91.74058,0.6055 C100.507485,0.6055 105.709722,5.68984869 105.848722,14.3585385 L105.85158,14.7168 L105.85158,60.0781 C105.85158,68.8447095 100.767815,74.0475745 92.0988532,74.1865916 L91.74058,74.18945 L14.49458,74.18945 C5.72787189,74.18945 0.525073641,69.1050527 0.386058405,60.4363615 L0.3832,60.0781 L0.3832,14.7168 C0.3832,5.95019054 5.46752922,0.74737416 14.1363145,0.608358416 L14.49458,0.6055 L91.74058,0.6055 Z M53.3555343,18.6055 C51.0882541,18.6055 49.3405499,20.3628901 49.3405499,22.6427357 L49.3405499,27.5349075 L49.246086,27.5349075 C38.8780254,27.5349075 32.3832,34.3269263 32.3832,46.723596 C32.3832,47.3248859 32.3984351,47.8933859 32.4289055,48.4292677 L32.4727829,49.0566799 C32.8140516,53.1351963 34.1303785,55.1305334 36.4218173,55.1305334 C38.2167293,55.1305334 39.4448575,54.2993389 40.5076134,52.1857316 L40.6079939,52.0096804 L40.6079939,52.0096804 L40.8182421,51.6557359 C42.227658,49.3501419 44.4937092,46.98731 48.9026856,46.8706094 L49.3405499,46.8661015 L49.3405499,51.568274 C49.3405499,53.8481196 51.0882541,55.6055 53.3555343,55.6055 C54.7114497,55.6055 55.753564,55.121656 56.9938063,54.015378 L72.1078156,40.0978174 C72.9108318,39.3378689 73.3832,38.1029343 73.3832,37.1055 C73.3832,36.036847 72.9344357,34.8968999 72.1314679,34.1369513 L57.2287986,20.4104082 C55.7645346,19.0804861 54.7017304,18.6055 53.3555343,18.6055 Z M32.3086,89.57031 L74.6914,89.57031 C77.6699,89.57031 80.0137,87.03125 80.0137,84.29688 C80.0137,81.5625 77.6699,79.023438 74.6914,79.023438 L32.3086,79.023438 C29.3301,79.023438 26.9863,81.5625 26.9863,84.29688 C26.9863,87.03125 29.3301,89.57031 32.3086,89.57031 Z" id="Shape"></path>
                </g>
                <g id="Heavy-S" transform="translate(2097.170000, 1.000000)">
                    <path d="M91.049,0.7773 C99.3287183,0.7773 104.144124,5.42865489 104.278127,13.6550544 L104.281,14.0098 L104.281,58.9805 C104.281,67.3087254 99.5822101,72.0773695 91.4017205,72.2100454 L91.049,72.21289 L13.998,72.21289 C5.66977465,72.21289 0.90114025,67.5615448 0.768464618,59.3352415 L0.76562,58.9805 L0.76562,14.0098 C0.76562,5.68147606 5.41695545,0.912820829 13.6432585,0.78014463 L13.998,0.7773 L91.049,0.7773 Z M53.1236096,17.7773 C50.9351003,17.7773 49.2936674,19.4617799 49.2936674,21.59215 L49.2936674,27.1658033 L49.0947213,27.1658033 C37.3312802,27.1658033 30.76562,34.8203116 30.76562,48.0237157 C30.76562,52.9533116 32.0837069,55.3809503 34.5209752,55.3809503 C36.1872636,55.3809503 37.4058978,54.6873402 38.4255349,52.6808208 C40.3709353,49.2413931 43.2673473,46.6308723 48.7190367,46.5165476 L49.2936674,46.5126404 L49.2936674,51.9624348 C49.2936674,54.1175879 50.9351003,55.7773 53.098754,55.7773 C54.5163343,55.7773 55.5857334,55.2323236 56.9286962,53.9937289 L72.5221303,39.6508315 C73.3428213,38.9076473 73.76562,37.7186236 73.76562,36.7772772 C73.76562,35.761658 73.3428213,34.6716646 72.5469858,33.9037736 L56.9286962,19.560861 C55.4614048,18.2479478 54.4417168,17.7773 53.1236096,17.7773 Z M31.7227,87.20312 L73.3242,87.20312 C76.0586,87.20312 78.207,84.9082 78.207,82.36914 C78.207,79.78125 76.0586,77.48633 73.3242,77.48633 L31.7227,77.48633 C28.9883,77.48633 26.8398,79.78125 26.8398,82.36914 C26.8398,84.9082 28.9883,87.20312 31.7227,87.20312 Z" id="Shape"></path>
                </g>
                <g id="Bold-S" transform="translate(1801.550000, 3.000000)">
                    <path d="M89.8281,0.0957 C97.618153,0.0957 101.951485,4.21604493 102.08101,11.9902001 L102.084,12.3516 L102.084,56.8828 C102.084,64.7692697 97.8686993,69.0090775 90.1851837,69.135746 L89.8281,69.13867 L13.0215,69.13867 C5.23115152,69.13867 0.898125574,65.0183542 0.768610175,57.2441999 L0.76562,56.8828 L0.76562,12.3516 C0.76562,4.4651303 4.98061036,0.225293411 12.6644031,0.0986239899 L13.0215,0.0957 L89.8281,0.0957 Z M53.1138603,15.0957 C51.031443,15.0957 49.4562615,16.714802 49.4562615,18.7586159 L49.4562615,25.2616056 L49.1359107,25.2616056 C35.5200968,25.2616056 28.76562,34.1269024 28.76562,48.5927102 C28.76562,52.7599314 30.1004863,54.8302727 32.2363228,54.8302727 C33.7313482,54.8302727 34.9594418,54.2728734 35.947286,52.3617905 C38.6148847,47.6295993 42.332836,45.1133147 48.7324296,45.0125801 L49.4562615,45.0094312 L49.4562615,51.512421 C49.4562615,53.5562186 51.031443,55.0957 53.0871234,55.0957 C54.4487375,55.0957 55.5166284,54.5648444 56.8515057,53.3438735 L73.5375263,37.8959827 C74.3651678,37.1262501 74.76562,36.0114426 74.76562,35.0824362 C74.76562,34.1269024 74.3651678,33.0652042 73.5642086,32.2954173 L56.8515057,16.9271851 C55.4098448,15.5999944 54.4220006,15.0957 53.1138603,15.0957 Z M31.0879,83.68945 L71.7617,83.68945 C74.2031,83.68945 76.1562,81.63867 76.1562,79.29492 C76.1562,76.9511719 74.2031,74.90039 71.7617,74.90039 L31.0879,74.90039 C28.6465,74.90039 26.6445,76.9511719 26.6445,79.29492 C26.6445,81.63867 28.6465,83.68945 31.0879,83.68945 Z" id="Shape"></path>
                </g>
                <g id="Semibold-S" transform="translate(1505.600000, 4.000000)">
                    <path d="M88.63238,0.0234 C96.0366877,0.0234 100.078882,3.81043072 100.201505,11.2445548 L100.20438,11.5957 L100.20438,55.834 C100.20438,63.3820615 96.2760979,67.2378287 88.9769923,67.3546812 L88.63238,67.35742 L11.97228,67.35742 C4.52031692,67.35742 0.524039981,63.6177768 0.402841392,56.1851109 L0.4,55.834 L0.4,11.5957 C0.4,4.04763846 4.28163136,0.144483716 11.6255019,0.0261731703 L11.97228,0.0234 L88.63238,0.0234 Z M52.0333086,14.0234 C50.1322583,14.0234 48.7131606,15.5277247 48.7131606,17.4081993 L48.7131606,24.3927485 L48.3115426,24.3927485 C33.9331907,24.3927485 27.4,33.8487629 27.4,48.7043912 C27.4,52.0892125 28.6852324,53.8353525 30.4523735,53.8353525 C31.7073332,53.8353525 32.8397748,53.4420967 33.7560221,51.8797589 L33.8796161,51.6593936 C37.0123351,46.0180414 41.2428685,43.7077204 48.3115426,43.7077204 L48.7131606,43.7077204 L48.7131606,50.7460321 C48.7131606,52.5996254 50.1322583,54.0234 52.0065487,54.0234 C53.2917373,54.0234 54.3092171,53.5129881 55.5676457,52.3309894 L72.2486658,36.6425716 C73.0519567,35.8904367 73.4,34.8695998 73.4,34.0099621 C73.4,33.1234763 73.0519567,32.1563908 72.2486658,31.3772977 L55.5676457,15.823275 C54.1753078,14.533791 53.2917373,14.0234 52.0333086,14.0234 Z M30.6484,81.66406 L70.6875,81.66406 C72.9336,81.66406 74.7891,79.75977 74.7891,77.5625 C74.7891,75.365234 72.9336,73.46094 70.6875,73.46094 L30.6484,73.46094 C28.3535,73.46094 26.5469,75.365234 26.5469,77.5625 C26.5469,79.75977 28.3535,81.66406 30.6484,81.66406 Z" id="Shape"></path>
                </g>
                <g id="Medium-S" transform="translate(1209.470000, 4.000000)">
                    <path d="M88.3633,0.707 C95.5235127,0.707 99.2777806,4.20650244 99.3951597,11.3916542 L99.398,11.7422 L99.398,55.7852 C99.398,63.0411683 95.7573862,66.7031176 88.7071028,66.8175418 L88.3633,66.82031 L11.8008,66.82031 C4.64088254,66.82031 0.885863865,63.2735348 0.768460883,56.1334905 L0.76562,55.7852 L0.76562,11.7422 C0.76562,4.43810794 4.40698919,0.822667523 11.4570107,0.709731922 L11.8008,0.707 L88.3633,0.707 Z M51.7259595,13.707 C49.8496373,13.707 48.5054415,15.1533694 48.5054415,16.9614167 L48.5054415,24.4993996 L48.0013035,24.4993996 C32.4307251,24.4993996 25.76562,34.652013 25.76562,50.2008944 C25.76562,53.0937017 27.0258387,54.6235538 28.650092,54.6235538 C29.8019313,54.6235538 30.928163,54.3181616 31.8326822,52.8066908 L31.954633,52.5930209 C35.502766,46.282393 40.1583652,44.0232004 47.5930113,43.9445273 L48.5054415,43.9423873 L48.5054415,51.5916649 C48.5054415,53.3996723 49.8496373,54.707 51.6699251,54.707 C52.9301552,54.707 53.9663049,54.2063215 55.2265351,53.0658851 L72.6174587,36.7660251 C73.4295854,36.014984 73.76562,35.0414333 73.76562,34.207 C73.76562,33.3446978 73.4295854,32.3990035 72.6174587,31.6201629 L55.2265351,15.5149903 C53.8263049,14.2076751 52.9581438,13.707 51.7259595,13.707 Z M30.3066,80.83398 L69.8574,80.83398 C72.0059,80.83398 73.7148,79.07617 73.7148,77.02539 C73.7148,74.92578 72.0059,73.16797 69.8574,73.16797 L30.3066,73.16797 C28.1582,73.16797 26.4492,74.92578 26.4492,77.02539 C26.4492,79.07617 28.1582,80.83398 30.3066,80.83398 Z" id="Shape"></path>
                </g>
                <g id="Regular-S" transform="translate(913.520000, 5.000000)">
                    <path d="M87.5332,0.6348 C94.3551645,0.6348 97.7738273,3.80152201 97.8823321,10.6466847 L97.885,10.9863 L97.885,54.6875 C97.885,61.6534048 94.5763689,64.9798058 87.865963,65.0852969 L87.5332,65.08789 L11.1172,65.08789 C4.34526557,65.08789 0.880203494,61.8755697 0.768414824,55.0326723 L0.76562,54.6875 L0.76562,10.9863 C0.76562,4.02226721 4.11966676,0.743082585 10.7813592,0.637439884 L11.1172,0.6348 L87.5332,0.6348 Z M51.5736804,11.6348 C49.8533691,11.6348 48.62049,13.0194446 48.62049,14.663673 L48.62049,22.913645 L48.0470921,22.913645 C31.33147,22.913645 24.76562,33.932906 24.76562,50.2886491 C24.76562,52.4521104 25.9984873,53.6348 27.2887354,53.6348 C28.2922553,53.6348 29.4677651,53.4328768 30.3279501,51.8751831 C34.3607812,44.554886 39.5864004,42.4255106 47.6419488,42.3576623 L48.62049,42.3559733 L48.62049,50.7790288 C48.62049,52.4232632 49.8533691,53.6348 51.5163699,53.6348 C52.720535,53.6348 53.6953996,53.1444156 54.8996234,52.0194135 L72.6760758,35.0867371 C73.4788917,34.3367558 73.76562,33.4136791 73.76562,32.6348 C73.76562,31.8271097 73.4788917,30.9328625 72.6760758,30.1540517 L54.8996234,13.4232943 C53.5520648,12.1540269 52.7779042,11.6348 51.5736804,11.6348 Z M29.8672,78.80859 L68.832,78.80859 C70.7363,78.80859 72.3477,77.24609 72.3477,75.292969 C72.3477,73.33984 70.7363,71.72852 68.832,71.72852 L29.8672,71.72852 C27.9141,71.72852 26.3516,73.33984 26.3516,75.292969 C26.3516,77.24609 27.9141,78.80859 29.8672,78.80859 Z" id="Shape"></path>
                </g>
                <g id="Light-S" transform="translate(618.270000, 7.000000)">
                    <path d="M85.5801,0.1973 C91.7222431,0.1973 94.8463125,3.12111026 94.9522131,9.24693031 L94.955,9.5723 L94.955,53.5664 C94.955,59.8046569 91.9368297,62.8360233 85.9005839,62.9386988 L85.5801,62.9414 L10.1406,62.9414 C3.99835862,62.9414 0.874306891,60.0175897 0.768406843,53.8917697 L0.76562,53.5664 L0.76562,9.5723 C0.76562,3.3340431 3.78377102,0.302676694 9.82011102,0.200001235 L10.1406,0.1973 L85.5801,0.1973 Z M50.5425026,11.1973 C49.1089104,11.1973 48.12505,12.3224615 48.12505,13.7008145 L48.12505,22.280293 L47.4223008,22.280293 C32.0461004,22.280293 24.76562,31.9286489 24.76562,48.4968774 C24.76562,50.2127731 25.7494516,51.1973 26.8457449,51.1973 C27.7452662,51.1973 28.6447874,50.9441355 29.3475366,49.6501808 C32.9695931,42.5670839 38.3866069,40.273821 46.9894951,40.2005356 L48.12505,40.1987094 L48.12505,48.8063011 C48.12505,50.1846426 49.1089104,51.1973 50.4863149,51.1973 C51.4982691,51.1973 52.3134513,50.7753596 53.2692178,49.8752189 L70.6130814,33.5320227 C71.5126027,32.688166 71.76562,31.9005357 71.76562,31.1973 C71.76562,30.4659563 71.5126027,29.7064392 70.6130814,28.8344117 L53.2692178,12.6318794 C52.2291121,11.6473415 51.526363,11.1973 50.5425026,11.1973 Z M28.9395,75.24609 L66.8301,75.24609 C68.2949,75.24609 69.5645,74.02539 69.5645,72.511719 C69.5645,70.99805 68.2949,69.77734 66.8301,69.77734 L28.9395,69.77734 C27.4258,69.77734 26.2051,70.99805 26.2051,72.511719 C26.2051,74.02539 27.4258,75.24609 28.9395,75.24609 Z" id="Shape"></path>
                </g>
                <g id="Thin-S" transform="translate(323.491000, 9.000000)">
                    <path d="M83.041,0.3457 C88.3126352,0.3457 90.9976014,2.88564866 91.0952367,8.10405689 L91.098,8.4023 L91.098,52.6895 C91.098,58.0090315 88.5106567,60.64749 83.3366319,60.7433864 L83.041,60.7461 L8.8223,60.7461 C3.59856111,60.7461 0.867780823,58.2061513 0.768432218,52.9877431 L0.76562,52.6895 L0.76562,8.4023 C0.76562,3.08276852 3.39966438,0.444310014 8.52928007,0.348413585 L8.8223,0.3457 L83.041,0.3457 Z M48.5252937,11.3457 C47.4439615,11.3457 46.8062804,12.1742197 46.8062804,13.1959984 L46.8062804,22.3093757 L45.9190349,22.3093757 C32.0280927,22.3093757 23.76562,30.4009742 23.76562,47.4125666 C23.76562,48.6276779 24.4865062,49.3457 25.3460129,49.3457 C26.0946493,49.3457 26.6769095,49.0695381 27.1759815,48.0477367 C30.2858091,41.227878 35.999027,38.6317023 45.4511567,38.5497289 L46.8062804,38.5477169 L46.8062804,47.5230302 C46.8062804,48.5724489 47.4439615,49.3457 48.5252937,49.3457 C49.2115437,49.3457 49.781276,49.0440334 50.3412984,48.5470532 L67.545622,32.5826466 C68.5715333,31.6160686 68.76562,30.9808645 68.76562,30.345717 C68.76562,29.7105129 68.5992437,29.0753654 67.545622,28.1087873 L50.4938713,12.312278 C49.8561903,11.7047309 49.2739301,11.3457 48.5252937,11.3457 Z M27.7188,71.0976562 L64.1445,71.0976562 C65.1211,71.0976562 65.8535,70.414062 65.8535,69.48633 C65.8535,68.50977 65.1211,67.77734 64.1445,67.77734 L27.7188,67.77734 C26.791,67.77734 26.0098,68.50977 26.0098,69.48633 C26.0098,70.414062 26.791,71.0976562 27.7188,71.0976562 Z" id="Shape"></path>
                </g>
                <g id="Ultralight-S" transform="translate(27.780000, 10.000000)">
                    <path d="M81.7227,0.4199 C86.507844,0.4199 88.995135,2.81158412 89.0927125,7.50290378 L89.0957,7.793 L89.0957,52.2754 C89.0957,57.108368 86.7041119,59.5497479 82.0127961,59.6454699 L81.7227,59.6484 L8.1387,59.6484 C3.353556,59.6484 0.866188208,57.3036794 0.768607554,52.5683082 L0.76562,52.2754 L0.76562,7.793 C0.76562,3.007856 3.15728491,0.520469 7.84860381,0.422887578 L8.1387,0.4199 L81.7227,0.4199 Z M47.4721206,12.4199 C46.5572034,12.4199 46.0998,13.1111686 46.0998,13.9354091 L46.0998,23.0550361 L45.1579897,23.0550361 C32.3225866,23.0550361 23.76562,30.1274299 23.76562,46.9043909 C23.76562,47.8349708 24.3307007,48.4199 25.0572558,48.4199 C25.7299696,48.4199 26.1335868,48.1008492 26.5103109,47.2500361 C29.3166297,40.7364291 35.0402531,38.0833848 44.6807067,37.9994972 L46.0998,37.9974372 L46.0998,46.9043909 C46.0998,47.755204 46.5572034,48.4199 47.4721206,48.4199 C48.0909931,48.4199 48.5753448,48.0742603 49.0328034,47.6754427 L65.52782,32.5203247 C66.5772579,31.5365942 66.76562,30.978243 66.76562,30.4199 C66.76562,29.8615407 66.6041511,29.3031895 65.52782,28.319459 L49.0328034,13.1643138 C48.5753448,12.7655071 48.0909931,12.4199 47.4721206,12.4199 Z M27.084,69.023438 L62.7773,69.023438 C63.4609,69.023438 63.9492,68.58398 63.9492,67.94922 C63.9492,67.26562 63.4609,66.82617 62.7773,66.82617 L27.084,66.82617 C26.4492,66.82617 25.9121,67.26562 25.9121,67.94922 C25.9121,68.58398 26.4492,69.023438 27.084,69.023438 Z" id="Shape"></path>
                </g>
            </g>
        </g>
    </g>
</svg>