<?xml version="1.0" encoding="UTF-8"?>
<svg width="100px" height="100px" viewBox="0 0 100 100" version="1.1" xmlns="http://www.w3.org/2000/svg" xmlns:xlink="http://www.w3.org/1999/xlink">
    <title>Notifications</title>
    <g id="Placeholders" stroke="none" stroke-width="1" fill="none" fill-rule="evenodd">
        <g id="Empty-placeholders" transform="translate(-1399, 0)" fill="#000000" fill-rule="nonzero">
            <g id="Notifications" transform="translate(1399, 0)">
                <path d="M26.6466227,100 L64.2214042,100 C72.7044367,100 79.8899969,99.2015968 84.9798369,94.111775 C90.0696768,89.0219533 90.8177468,81.9361286 90.8177468,73.4032242 L90.8177468,39.9700322 C88.2731846,40.918203 85.5287281,41.417122 82.7342982,41.417122 C69.4608582,41.417122 58.582673,30.5389102 58.582673,17.3154112 C58.582673,14.471103 59.0816929,11.7265376 60.0297593,9.23153397 L26.4969065,9.23153397 C18.1137189,9.23153397 10.9280565,10.0299883 5.83831876,15.1197385 C0.748478822,20.2095909 3.12638804e-13,27.3452973 3.12638804e-13,35.678634 L3.12638804e-13,73.4032242 C3.12638804e-13,81.9361286 0.748478822,89.0219533 5.83831876,94.111775 C10.9280565,99.2015968 18.1137189,100 26.6466227,100 Z" id="Path"></path>
                <path d="M82.7342982,34.6307202 C92.1657036,34.6307202 100,26.7964047 100,17.3154112 C100,7.83431557 92.2157794,1.77635684e-14 82.7342982,1.77635684e-14 C73.2033545,1.77635684e-14 65.4189294,7.83431557 65.4189294,17.3154112 C65.4189294,26.7964047 73.2033545,34.6307202 82.7342982,34.6307202 Z" id="Path"></path>
            </g>
        </g>
    </g>
</svg>