<?xml version="1.0" encoding="UTF-8"?>
<svg viewBox="0 0 100 24" xmlns="http://www.w3.org/2000/svg">
    <path d="M1.52530287,2.87677642 C2.2415907,4.15182681 3.0196435,5.36355015 3.85938962,6.51202857 C4.07675381,6.80930662 3.94326008,7.18741285 3.56122303,7.35655247 C3.17918597,7.52569209 2.69327526,7.42181538 2.47591106,7.12453733 C1.60820367,5.93781767 0.805201066,4.68723803 0.0668315923,3.37288052 C-0.10922347,3.05948825 0.0745456204,2.69437692 0.477291344,2.55738156 C0.880037067,2.42038619 1.34924781,2.56338415 1.52530287,2.87677642 Z M7.49215719,10.7149855 C8.58482748,11.7863163 9.75097711,12.7827954 10.9907022,13.7046091 C11.3084874,13.9409023 11.3199345,14.3329168 11.01627,14.5801979 C10.7126056,14.827479 10.2088211,14.8363864 9.89103597,14.6000932 C8.59831393,13.638873 7.38305787,12.6004323 6.24536391,11.4849571 C5.97212005,11.2170496 6.02971632,10.8275037 6.37400878,10.6148819 C6.71830124,10.4022601 7.21891333,10.447078 7.49215719,10.7149855 Z M16.0645982,16.8529356 C17.4981871,17.5892277 19.0067604,18.2506689 20.5905801,18.8373041 C20.9874573,18.9843045 21.1560458,19.3538246 20.9671331,19.6626503 C20.7782204,19.971476 20.3033439,20.1026614 19.9064667,19.955661 C18.2563,19.3444513 16.6833141,18.6547681 15.1877709,17.8866563 C14.820929,17.6982461 14.7198294,17.3141032 14.9619585,17.0286491 C15.2040877,16.743195 15.6977563,16.6645254 16.0645982,16.8529356 Z M26.6596394,20.6357069 C27.3128147,20.7858577 27.97635,20.9257835 28.6502531,21.05548 C29.489375,21.2169468 30.4647053,21.2454356 31.5582427,21.1426533 C31.9946156,21.1016383 32.3910948,21.343656 32.4438038,21.6832148 C32.4965128,22.0227737 32.1854918,22.3312897 31.749119,22.3723047 C30.4748087,22.4920779 29.3083221,22.4580056 28.2681184,22.2578459 C27.5712224,22.1237243 26.8847492,21.9789614 26.2086762,21.823547 C25.7871412,21.7266452 25.5463711,21.3821838 25.6709011,21.0541709 C25.7954312,20.7261579 26.2381044,20.5388052 26.6596394,20.6357069 Z M37.615936,19.645082 C39.1087992,19.0933129 40.6361472,18.4140606 42.1251848,17.6435483 C42.4911907,17.4541562 42.9852045,17.5315024 43.2285955,17.816306 C43.4719866,18.1011095 43.3725876,18.4855211 43.0065817,18.6749132 C41.4558573,19.4773457 39.8625495,20.1859322 38.298862,20.7638783 C37.9018289,20.9106235 37.4270918,20.779133 37.238507,20.4701859 C37.0499222,20.1612389 37.2189029,19.7918273 37.615936,19.645082 Z M47.2147925,14.5127792 C48.6339562,13.4683931 49.7770185,12.4358931 50.54295,11.5034216 C50.7796683,11.2152326 51.2717996,11.1309327 51.6421562,11.3151324 C52.0125127,11.4993322 52.120848,11.882279 51.8841297,12.1704679 C51.0416241,13.1961634 49.8157762,14.3034417 48.308504,15.4126682 C47.9891557,15.6476819 47.485437,15.6367512 47.1834169,15.3882537 C46.8813968,15.1397562 46.8954441,14.7477929 47.2147925,14.5127792 Z M51.2149247,7.05091564 C50.7791579,5.78119569 49.9964535,4.60746652 48.9449006,3.65570438 C48.6583527,3.39634946 48.6962539,3.00534449 49.0295553,2.78237032 C49.3628567,2.55939616 49.8653438,2.58888858 50.1518917,2.84824349 C51.3619711,3.9434882 52.2561854,5.28443553 52.7527623,6.73134167 C52.8661712,7.06178796 52.6138506,7.40120669 52.1891885,7.4894546 C51.7645264,7.57770252 51.3283336,7.38136194 51.2149247,7.05091564 Z M43.791456,1.33207899 C43.3209068,1.27027147 42.838211,1.23881584 42.3446265,1.23858913 C41.2472584,1.238588 40.0735035,1.37360301 38.8821432,1.63494719 C38.4590881,1.72775117 38.0194516,1.53611775 37.9001876,1.20692196 C37.7809237,0.877726164 38.027195,0.535627751 38.4502501,0.442823766 C39.7776746,0.151631712 41.0958992,0 42.3450974,0 C42.927426,0.000267367685 43.4984288,0.037477669 44.0563962,0.110767738 C44.4898093,0.167697368 44.7818512,0.487247788 44.70869,0.824503577 C44.6355287,1.16175937 44.2248691,1.38900862 43.791456,1.33207899 Z M33.2781723,3.8551956 C31.8721435,4.72057026 30.7717042,5.72106205 30.0826558,6.78002984 C29.8841055,7.08517288 29.4052528,7.20729338 29.0131083,7.05279363 C28.6209638,6.89829387 28.4640247,6.52567976 28.662575,6.22053672 C29.4618916,4.99210266 30.7124144,3.85515873 32.2907247,2.88374924 C32.635467,2.67156922 33.1359835,2.71702901 33.4086596,2.98528651 C33.6813357,3.25354402 33.6229146,3.64301558 33.2781723,3.8551956 Z M29.5100626,11.414646 C29.871312,12.7253521 30.631853,13.756208 31.8834336,14.5906334 C32.2172199,14.8131679 32.2559724,15.2041224 31.9699896,15.4638546 C31.6840068,15.7235869 31.1815846,15.7537417 30.8477982,15.5312073 C29.3245823,14.5156833 28.3863123,13.2439291 27.9537208,11.6743756 C27.8615492,11.3399532 28.1352283,11.0107078 28.5650003,10.9389855 C28.9947722,10.8672631 29.417891,11.0802236 29.5100626,11.414646 Z M37.5129056,16.6145457 C38.7725039,16.8640588 40.2005518,17.0694514 41.8114511,17.2319744 L42.6341148,17.3094912 C43.0710499,17.346706 43.3864855,17.6524961 43.3386601,17.9924924 C43.2908346,18.3324888 42.8978586,18.5779416 42.4609236,18.5407268 L42.2380888,18.5210128 C40.308001,18.3441482 38.6096468,18.1098911 37.1202256,17.8148526 C36.6942664,17.7304746 36.4368627,17.3933748 36.5452983,17.0619193 C36.6537339,16.7304637 37.0869465,16.5301677 37.5129056,16.6145457 Z M49.0377265,17.1765281 L49.7951627,17.0750698 L50.3045397,16.9983947 L51.0963478,16.8665495 L51.799763,16.7384317 L52.2482163,16.6524514 L53.2211593,16.4574126 L54.126324,16.2687455 L54.126324,16.2687455 C54.5505249,16.1791644 54.9877326,16.3741334 55.1028547,16.7042208 C55.2179768,17.0343082 54.967419,17.3745166 54.5432181,17.4640977 L53.442218,17.6928549 L52.6178925,17.8572907 L51.8601554,18.0006893 L51.2904966,18.1020104 L50.4765128,18.2347861 L49.9481791,18.3124427 L49.2885892,18.399638 L49.2885892,18.399638 C48.8545377,18.4535427 48.446512,18.2234386 48.3772382,17.8856861 C48.3079644,17.5479336 48.6036751,17.2304328 49.0377265,17.1765281 Z M60.6082165,15.0055244 C62.3778238,14.7279241 64.1217685,14.5301161 65.9499263,14.412118 C66.3879666,14.3838448 66.7725233,14.6372435 66.8088577,14.9780999 C66.8451921,15.3189563 66.5195451,15.6181949 66.0815048,15.6464682 C64.3169883,15.7603586 62.6338309,15.9512717 60.9227776,16.2196866 C60.4919015,16.2872786 60.0721905,16.0702733 59.9853269,15.7349917 C59.8984632,15.3997101 60.1773404,15.0731165 60.6082165,15.0055244 Z M72.6874367,14.3422018 C73.1323761,14.3598356 73.5826011,14.3817031 74.0383982,14.4078762 C75.3909479,14.4855718 76.7305812,14.6142544 78.0588334,14.7940639 C78.4918738,14.8526859 78.7818504,15.1733731 78.7065143,15.5103389 C78.6311782,15.8473046 78.2190576,16.0729468 77.7860172,16.0143248 C76.5093692,15.8415011 75.2216761,15.7178078 73.9212336,15.6431055 C73.4774753,15.6176236 73.0393102,15.5963419 72.6064721,15.5791877 C72.1674964,15.5617902 71.8297609,15.2707781 71.8521186,14.9291939 C71.8744764,14.5876096 72.248461,14.3248043 72.6874367,14.3422018 Z M84.6017578,16.118566 C86.2826207,16.5749657 87.9431324,17.1180938 89.5831731,17.7478409 C89.9773391,17.8991938 90.1391954,18.2705321 89.9446892,18.5772482 C89.7501831,18.8839642 89.2729699,19.009911 88.8788039,18.8585581 C87.2967487,18.2510763 85.6963015,17.7275945 84.0773425,17.2880033 C83.6623381,17.1753184 83.443305,16.8221818 83.5881183,16.4992506 C83.7329316,16.1763194 84.1867534,16.0058811 84.6017578,16.118566 Z M95.4042432,20.3918486 C96.8567554,21.1567422 98.2920446,21.9937117 99.710128,22.9026861 C100.04939,23.120149 100.097865,23.5104461 99.8183998,23.7744392 C99.5389346,24.0384323 99.0373571,24.0761526 98.6980951,23.8586897 C97.3181109,22.9741365 95.9227848,22.1604709 94.5121344,21.4176217 C94.1481129,21.2259279 94.0527205,20.8409021 94.2990696,20.5576427 C94.5454186,20.2743833 95.0402217,20.2001547 95.4042432,20.3918486 Z" />
</svg>
