<?xml version="1.0" encoding="UTF-8"?>
<!--Generator: Apple Native CoreSVG 149-->
<!DOCTYPE svg
PUBLIC "-//W3C//DTD SVG 1.1//EN"
       "http://www.w3.org/Graphics/SVG/1.1/DTD/svg11.dtd">
<svg version="1.1" xmlns="http://www.w3.org/2000/svg" xmlns:xlink="http://www.w3.org/1999/xlink" width="3300" height="2200">
 <!--glyph: "", point size: 100.0, font version: "17.0d8e1", template writer version: "58"-->
 <g id="Notes">
  <rect height="2200" id="artboard" style="fill:white;opacity:1" width="3300" x="0" y="0"/>
  <line style="fill:none;stroke:black;opacity:1;stroke-width:0.5;" x1="263" x2="3036" y1="292" y2="292"/>
  <text style="stroke:none;fill:black;font-family:SF Pro,SF Pro Display,SF Pro Text,sans-serif;font-size:13;font-weight:bold;" transform="matrix(1 0 0 1 263 322)">Weight/Scale Variations</text>
  <text style="stroke:none;fill:black;font-family:SF Pro,SF Pro Display,SF Pro Text,sans-serif;font-size:13;text-anchor:middle;" transform="matrix(1 0 0 1 559.711 322)">Ultralight</text>
  <text style="stroke:none;fill:black;font-family:SF Pro,SF Pro Display,SF Pro Text,sans-serif;font-size:13;text-anchor:middle;" transform="matrix(1 0 0 1 856.422 322)">Thin</text>
  <text style="stroke:none;fill:black;font-family:SF Pro,SF Pro Display,SF Pro Text,sans-serif;font-size:13;text-anchor:middle;" transform="matrix(1 0 0 1 1153.13 322)">Light</text>
  <text style="stroke:none;fill:black;font-family:SF Pro,SF Pro Display,SF Pro Text,sans-serif;font-size:13;text-anchor:middle;" transform="matrix(1 0 0 1 1449.84 322)">Regular</text>
  <text style="stroke:none;fill:black;font-family:SF Pro,SF Pro Display,SF Pro Text,sans-serif;font-size:13;text-anchor:middle;" transform="matrix(1 0 0 1 1746.56 322)">Medium</text>
  <text style="stroke:none;fill:black;font-family:SF Pro,SF Pro Display,SF Pro Text,sans-serif;font-size:13;text-anchor:middle;" transform="matrix(1 0 0 1 2043.27 322)">Semibold</text>
  <text style="stroke:none;fill:black;font-family:SF Pro,SF Pro Display,SF Pro Text,sans-serif;font-size:13;text-anchor:middle;" transform="matrix(1 0 0 1 2339.98 322)">Bold</text>
  <text style="stroke:none;fill:black;font-family:SF Pro,SF Pro Display,SF Pro Text,sans-serif;font-size:13;text-anchor:middle;" transform="matrix(1 0 0 1 2636.69 322)">Heavy</text>
  <text style="stroke:none;fill:black;font-family:SF Pro,SF Pro Display,SF Pro Text,sans-serif;font-size:13;text-anchor:middle;" transform="matrix(1 0 0 1 2933.4 322)">Black</text>
  <line style="fill:none;stroke:black;opacity:1;stroke-width:0.5;" x1="263" x2="3036" y1="1903" y2="1903"/>
  <g transform="matrix(1 0 0 1 263 1933)">
   <path d="M9.24805 0.830078Q10.8691 0.830078 12.2949 0.214844Q13.7207-0.400391 14.8096-1.49414Q15.8984-2.58789 16.5186-4.01367Q17.1387-5.43945 17.1387-7.05078Q17.1387-8.66211 16.5186-10.0879Q15.8984-11.5137 14.8047-12.6074Q13.7109-13.7012 12.2852-14.3164Q10.8594-14.9316 9.23828-14.9316Q7.62695-14.9316 6.20117-14.3164Q4.77539-13.7012 3.69141-12.6074Q2.60742-11.5137 1.9873-10.0879Q1.36719-8.66211 1.36719-7.05078Q1.36719-5.43945 1.9873-4.01367Q2.60742-2.58789 3.69629-1.49414Q4.78516-0.400391 6.21094 0.214844Q7.63672 0.830078 9.24805 0.830078ZM9.24805-0.654297Q7.91992-0.654297 6.7627-1.14746Q5.60547-1.64062 4.73145-2.51953Q3.85742-3.39844 3.36426-4.56055Q2.87109-5.72266 2.87109-7.05078Q2.87109-8.37891 3.35938-9.54102Q3.84766-10.7031 4.72168-11.582Q5.5957-12.4609 6.75293-12.9541Q7.91016-13.4473 9.23828-13.4473Q10.5762-13.4473 11.7334-12.9541Q12.8906-12.4609 13.7695-11.582Q14.6484-10.7031 15.1465-9.54102Q15.6445-8.37891 15.6445-7.05078Q15.6445-5.72266 15.1514-4.56055Q14.6582-3.39844 13.7842-2.51953Q12.9102-1.64062 11.748-1.14746Q10.5859-0.654297 9.24805-0.654297ZM5.83984-7.04102Q5.83984-6.71875 6.04492-6.51855Q6.25-6.31836 6.5918-6.31836L8.50586-6.31836L8.50586-4.39453Q8.50586-4.0625 8.70605-3.85742Q8.90625-3.65234 9.22852-3.65234Q9.56055-3.65234 9.76562-3.85742Q9.9707-4.0625 9.9707-4.39453L9.9707-6.31836L11.8945-6.31836Q12.2266-6.31836 12.4316-6.51855Q12.6367-6.71875 12.6367-7.04102Q12.6367-7.37305 12.4316-7.57812Q12.2266-7.7832 11.8945-7.7832L9.9707-7.7832L9.9707-9.69727Q9.9707-10.0391 9.76562-10.2441Q9.56055-10.4492 9.22852-10.4492Q8.90625-10.4492 8.70605-10.2441Q8.50586-10.0391 8.50586-9.69727L8.50586-7.7832L6.5918-7.7832Q6.25-7.7832 6.04492-7.57812Q5.83984-7.37305 5.83984-7.04102Z"/>
  </g>
  <g transform="matrix(1 0 0 1 281.867 1933)">
   <path d="M11.709 2.91016Q13.75 2.91016 15.5518 2.12891Q17.3535 1.34766 18.7305-0.0292969Q20.1074-1.40625 20.8887-3.20801Q21.6699-5.00977 21.6699-7.05078Q21.6699-9.0918 20.8887-10.8936Q20.1074-12.6953 18.7305-14.0723Q17.3535-15.4492 15.5469-16.2305Q13.7402-17.0117 11.6992-17.0117Q9.6582-17.0117 7.85645-16.2305Q6.05469-15.4492 4.68262-14.0723Q3.31055-12.6953 2.5293-10.8936Q1.74805-9.0918 1.74805-7.05078Q1.74805-5.00977 2.5293-3.20801Q3.31055-1.40625 4.6875-0.0292969Q6.06445 1.34766 7.86621 2.12891Q9.66797 2.91016 11.709 2.91016ZM11.709 1.25Q9.98047 1.25 8.47656 0.605469Q6.97266-0.0390625 5.83496-1.17676Q4.69727-2.31445 4.05762-3.81836Q3.41797-5.32227 3.41797-7.05078Q3.41797-8.7793 4.05762-10.2832Q4.69727-11.7871 5.83008-12.9297Q6.96289-14.0723 8.4668-14.7119Q9.9707-15.3516 11.6992-15.3516Q13.4277-15.3516 14.9316-14.7119Q16.4355-14.0723 17.5781-12.9297Q18.7207-11.7871 19.3652-10.2832Q20.0098-8.7793 20.0098-7.05078Q20.0098-5.32227 19.3701-3.81836Q18.7305-2.31445 17.5928-1.17676Q16.4551-0.0390625 14.9463 0.605469Q13.4375 1.25 11.709 1.25ZM7.39258-7.04102Q7.39258-6.68945 7.62695-6.46484Q7.86133-6.24023 8.23242-6.24023L10.8789-6.24023L10.8789-3.57422Q10.8789-3.21289 11.1035-2.9834Q11.3281-2.75391 11.6797-2.75391Q12.0508-2.75391 12.2852-2.9834Q12.5195-3.21289 12.5195-3.57422L12.5195-6.24023L15.1758-6.24023Q15.5371-6.24023 15.7715-6.46484Q16.0059-6.68945 16.0059-7.04102Q16.0059-7.41211 15.7715-7.6416Q15.5371-7.87109 15.1758-7.87109L12.5195-7.87109L12.5195-10.5176Q12.5195-10.8984 12.2852-11.1279Q12.0508-11.3574 11.6797-11.3574Q11.3281-11.3574 11.1035-11.1279Q10.8789-10.8984 10.8789-10.5176L10.8789-7.87109L8.23242-7.87109Q7.85156-7.87109 7.62207-7.6416Q7.39258-7.41211 7.39258-7.04102Z"/>
  </g>
  <g transform="matrix(1 0 0 1 305.646 1933)">
   <path d="M14.9707 5.66406Q17.0605 5.66406 18.96 5.01465Q20.8594 4.36523 22.4512 3.19336Q24.043 2.02148 25.2197 0.429688Q26.3965-1.16211 27.0459-3.06641Q27.6953-4.9707 27.6953-7.05078Q27.6953-9.14062 27.0459-11.04Q26.3965-12.9395 25.2197-14.5312Q24.043-16.123 22.4512-17.2998Q20.8594-18.4766 18.9551-19.126Q17.0508-19.7754 14.9609-19.7754Q12.8711-19.7754 10.9717-19.126Q9.07227-18.4766 7.48535-17.2998Q5.89844-16.123 4.72168-14.5312Q3.54492-12.9395 2.90039-11.04Q2.25586-9.14062 2.25586-7.05078Q2.25586-4.9707 2.90527-3.06641Q3.55469-1.16211 4.72656 0.429688Q5.89844 2.02148 7.49023 3.19336Q9.08203 4.36523 10.9814 5.01465Q12.8809 5.66406 14.9707 5.66406ZM14.9707 3.84766Q13.1641 3.84766 11.5283 3.2959Q9.89258 2.74414 8.53516 1.74805Q7.17773 0.751953 6.17676-0.610352Q5.17578-1.97266 4.62891-3.6084Q4.08203-5.24414 4.08203-7.05078Q4.08203-8.86719 4.62891-10.5029Q5.17578-12.1387 6.17188-13.501Q7.16797-14.8633 8.52539-15.8594Q9.88281-16.8555 11.5186-17.4023Q13.1543-17.9492 14.9609-17.9492Q16.7773-17.9492 18.4131-17.4023Q20.0488-16.8555 21.4111-15.8594Q22.7734-14.8633 23.7695-13.501Q24.7656-12.1387 25.3174-10.5029Q25.8691-8.86719 25.8691-7.05078Q25.8789-5.24414 25.332-3.6084Q24.7852-1.97266 23.7842-0.610352Q22.7832 0.751953 21.4209 1.74805Q20.0586 2.74414 18.4229 3.2959Q16.7871 3.84766 14.9707 3.84766ZM9.45312-7.04102Q9.45312-6.66016 9.71191-6.41113Q9.9707-6.16211 10.3711-6.16211L14.0625-6.16211L14.0625-2.46094Q14.0625-2.06055 14.3115-1.80664Q14.5605-1.55273 14.9414-1.55273Q15.3516-1.55273 15.6055-1.80664Q15.8594-2.06055 15.8594-2.46094L15.8594-6.16211L19.5605-6.16211Q19.9609-6.16211 20.2148-6.41113Q20.4688-6.66016 20.4688-7.04102Q20.4688-7.45117 20.2148-7.70508Q19.9609-7.95898 19.5605-7.95898L15.8594-7.95898L15.8594-11.6504Q15.8594-12.0605 15.6055-12.3145Q15.3516-12.5684 14.9414-12.5684Q14.5605-12.5684 14.3115-12.3096Q14.0625-12.0508 14.0625-11.6504L14.0625-7.95898L10.3711-7.95898Q9.96094-7.95898 9.70703-7.70508Q9.45312-7.45117 9.45312-7.04102Z"/>
  </g>
  <text style="stroke:none;fill:black;font-family:SF Pro,SF Pro Display,SF Pro Text,sans-serif;font-size:13;font-weight:bold;" transform="matrix(1 0 0 1 263 1953)">Design Variations</text>
  <text style="stroke:none;fill:black;font-family:SF Pro,SF Pro Display,SF Pro Text,sans-serif;font-size:13;" transform="matrix(1 0 0 1 263 1971)">Symbols are supported in up to nine weights and three scales.</text>
  <text style="stroke:none;fill:black;font-family:SF Pro,SF Pro Display,SF Pro Text,sans-serif;font-size:13;" transform="matrix(1 0 0 1 263 1989)">For optimal layout with text and other symbols, vertically align</text>
  <text style="stroke:none;fill:black;font-family:SF Pro,SF Pro Display,SF Pro Text,sans-serif;font-size:13;" transform="matrix(1 0 0 1 263 2007)">symbols with the adjacent text.</text>
  <line style="fill:none;stroke:#00AEEF;stroke-width:0.5;opacity:1.0;" x1="776" x2="776" y1="1919" y2="1933"/>
  <g transform="matrix(1 0 0 1 776 1933)">
   <path d="M3.31055 0.15625Q3.70117 0.15625 3.91602-0.00976562Q4.13086-0.175781 4.26758-0.585938L5.52734-4.0332L11.2891-4.0332L12.5488-0.585938Q12.6855-0.175781 12.9004-0.00976562Q13.1152 0.15625 13.4961 0.15625Q13.8867 0.15625 14.1162-0.0585938Q14.3457-0.273438 14.3457-0.644531Q14.3457-0.869141 14.2383-1.17188L9.6582-13.3691Q9.48242-13.8184 9.17969-14.043Q8.87695-14.2676 8.4082-14.2676Q7.5-14.2676 7.17773-13.3789L2.59766-1.16211Q2.49023-0.859375 2.49023-0.634766Q2.49023-0.263672 2.70996-0.0537109Q2.92969 0.15625 3.31055 0.15625ZM6.00586-5.51758L8.37891-12.0898L8.42773-12.0898L10.8008-5.51758Z"/>
  </g>
  <line style="fill:none;stroke:#00AEEF;stroke-width:0.5;opacity:1.0;" x1="793.197" x2="793.197" y1="1919" y2="1933"/>
  <text style="stroke:none;fill:black;font-family:SF Pro,SF Pro Display,SF Pro Text,sans-serif;font-size:13;font-weight:bold;" transform="matrix(1 0 0 1 776 1953)">Margins</text>
  <text style="stroke:none;fill:black;font-family:SF Pro,SF Pro Display,SF Pro Text,sans-serif;font-size:13;" transform="matrix(1 0 0 1 776 1971)">Leading and trailing margins on the left and right side of each symbol</text>
  <text style="stroke:none;fill:black;font-family:SF Pro,SF Pro Display,SF Pro Text,sans-serif;font-size:13;" transform="matrix(1 0 0 1 776 1989)">can be adjusted by modifying the x-location of the margin guidelines.</text>
  <text style="stroke:none;fill:black;font-family:SF Pro,SF Pro Display,SF Pro Text,sans-serif;font-size:13;" transform="matrix(1 0 0 1 776 2007)">Modifications are automatically applied proportionally to all</text>
  <text style="stroke:none;fill:black;font-family:SF Pro,SF Pro Display,SF Pro Text,sans-serif;font-size:13;" transform="matrix(1 0 0 1 776 2025)">scales and weights.</text>
  <g transform="matrix(1 0 0 1 1289 1933)">
   <path d="M2.8418 1.86523L4.54102 3.57422Q5.18555 4.22852 5.90332 4.17969Q6.62109 4.13086 7.31445 3.35938L18.0078-8.42773L17.041-9.4043L6.42578 2.27539Q6.16211 2.57812 5.89355 2.61719Q5.625 2.65625 5.27344 2.30469L4.10156 1.14258Q3.75 0.791016 3.79395 0.522461Q3.83789 0.253906 4.14062-0.0195312L15.6152-10.8203L14.6387-11.7871L3.04688-0.898438Q2.30469-0.214844 2.25098 0.498047Q2.19727 1.21094 2.8418 1.86523ZM9.25781-16.3281Q8.94531-16.0254 8.90625-15.6348Q8.86719-15.2441 9.04297-14.9512Q9.21875-14.6777 9.55566-14.541Q9.89258-14.4043 10.3809-14.5215Q11.4746-14.7754 12.5977-14.7314Q13.7207-14.6875 14.7949-13.9844L14.209-12.5293Q13.9551-11.9043 14.0674-11.4404Q14.1797-10.9766 14.5801-10.5664L16.875-8.25195Q17.2363-7.88086 17.5781-7.82227Q17.9199-7.76367 18.3398-7.8418L19.4043-8.03711L20.0684-7.36328L20.0293-6.80664Q20-6.43555 20.1221-6.12305Q20.2441-5.81055 20.6055-5.44922L21.3672-4.70703Q21.7285-4.3457 22.1533-4.33105Q22.5781-4.31641 22.9297-4.66797L25.8398-7.58789Q26.1914-7.93945 26.1816-8.35449Q26.1719-8.76953 25.8105-9.13086L25.0391-9.89258Q24.6875-10.2539 24.3799-10.3857Q24.0723-10.5176 23.7109-10.4883L23.1348-10.4395L22.4902-11.0742L22.7344-12.1973Q22.832-12.6172 22.6953-12.9834Q22.5586-13.3496 22.1191-13.7891L19.9219-15.9766Q18.6719-17.2168 17.2607-17.8369Q15.8496-18.457 14.4189-18.4814Q12.9883-18.5059 11.665-17.959Q10.3418-17.4121 9.25781-16.3281ZM10.752-15.957Q11.6602-16.6211 12.7002-16.9043Q13.7402-17.1875 14.8047-17.085Q15.8691-16.9824 16.8701-16.5137Q17.8711-16.0449 18.7012-15.2051L21.1328-12.793Q21.3086-12.6172 21.3525-12.4512Q21.3965-12.2852 21.3379-12.0312L21.0156-10.5469L22.5195-9.0625L23.5059-9.12109Q23.6914-9.13086 23.7891-9.09668Q23.8867-9.0625 24.0332-8.91602L24.6094-8.33984L22.168-5.89844L21.5918-6.47461Q21.4453-6.62109 21.4062-6.71875Q21.3672-6.81641 21.377-7.01172L21.4453-7.98828L19.9512-9.47266L18.4277-9.21875Q18.1836-9.16992 18.042-9.2041Q17.9004-9.23828 17.7148-9.41406L15.7129-11.416Q15.5176-11.5918 15.4932-11.7529Q15.4688-11.9141 15.5859-12.1875L16.4648-14.2773Q15.293-15.3711 13.8281-15.791Q12.3633-16.2109 10.8398-15.7617Q10.7227-15.7324 10.6885-15.8057Q10.6543-15.8789 10.752-15.957Z"/>
  </g>
  <text style="stroke:none;fill:black;font-family:SF Pro,SF Pro Display,SF Pro Text,sans-serif;font-size:13;font-weight:bold;" transform="matrix(1 0 0 1 1289 1953)">Exporting</text>
  <text style="stroke:none;fill:black;font-family:SF Pro,SF Pro Display,SF Pro Text,sans-serif;font-size:13;" transform="matrix(1 0 0 1 1289 1971)">Symbols should be outlined when exporting to ensure the</text>
  <text style="stroke:none;fill:black;font-family:SF Pro,SF Pro Display,SF Pro Text,sans-serif;font-size:13;" transform="matrix(1 0 0 1 1289 1989)">design is preserved when submitting to Xcode.</text>
  <text id="template-version" style="stroke:none;fill:black;font-family:SF Pro,SF Pro Display,SF Pro Text,sans-serif;font-size:13;text-anchor:end;" transform="matrix(1 0 0 1 3036 1933)">Template v.3.0</text>
  <text style="stroke:none;fill:black;font-family:SF Pro,SF Pro Display,SF Pro Text,sans-serif;font-size:13;text-anchor:end;" transform="matrix(1 0 0 1 3036 1951)">Requires Xcode 13 or greater</text>
  <text id="descriptive-name" style="stroke:none;fill:black;font-family:SF Pro,SF Pro Display,SF Pro Text,sans-serif;font-size:13;text-anchor:end;" transform="matrix(1 0 0 1 3036 1969)">Generated from magnifyingglass.fill</text>
  <text style="stroke:none;fill:black;font-family:SF Pro,SF Pro Display,SF Pro Text,sans-serif;font-size:13;text-anchor:end;" transform="matrix(1 0 0 1 3036 1987)">Typeset at 100 points</text>
  <text style="stroke:none;fill:black;font-family:SF Pro,SF Pro Display,SF Pro Text,sans-serif;font-size:13;" transform="matrix(1 0 0 1 263 726)">Small</text>
  <text style="stroke:none;fill:black;font-family:SF Pro,SF Pro Display,SF Pro Text,sans-serif;font-size:13;" transform="matrix(1 0 0 1 263 1156)">Medium</text>
  <text style="stroke:none;fill:black;font-family:SF Pro,SF Pro Display,SF Pro Text,sans-serif;font-size:13;" transform="matrix(1 0 0 1 263 1586)">Large</text>
 </g>
 <g id="Guides">
  <g id="H-reference" style="fill:#27AAE1;stroke:none;" transform="matrix(1 0 0 1 339 696)">
   <path d="M0.993347 0L3.6377 0L29.3282-67.1326L30.0301-67.1326L30.0301-70.459L28.1227-70.459ZM11.6882-24.4797L46.9818-24.4797L46.2311-26.7288L12.4382-26.7288ZM55.1193 0L57.7637 0L30.6381-70.459L29.4327-70.459L29.4327-67.1326Z"/>
  </g>
  <line id="Baseline-S" style="fill:none;stroke:#27AAE1;opacity:1;stroke-width:0.5;" x1="263" x2="3036" y1="696" y2="696"/>
  <line id="Capline-S" style="fill:none;stroke:#27AAE1;opacity:1;stroke-width:0.5;" x1="263" x2="3036" y1="625.541" y2="625.541"/>
  <g id="H-reference" style="fill:#27AAE1;stroke:none;" transform="matrix(1 0 0 1 339 1126)">
   <path d="M0.993347 0L3.6377 0L29.3282-67.1326L30.0301-67.1326L30.0301-70.459L28.1227-70.459ZM11.6882-24.4797L46.9818-24.4797L46.2311-26.7288L12.4382-26.7288ZM55.1193 0L57.7637 0L30.6381-70.459L29.4327-70.459L29.4327-67.1326Z"/>
  </g>
  <line id="Baseline-M" style="fill:none;stroke:#27AAE1;opacity:1;stroke-width:0.5;" x1="263" x2="3036" y1="1126" y2="1126"/>
  <line id="Capline-M" style="fill:none;stroke:#27AAE1;opacity:1;stroke-width:0.5;" x1="263" x2="3036" y1="1055.54" y2="1055.54"/>
  <g id="H-reference" style="fill:#27AAE1;stroke:none;" transform="matrix(1 0 0 1 339 1556)">
   <path d="M0.993347 0L3.6377 0L29.3282-67.1326L30.0301-67.1326L30.0301-70.459L28.1227-70.459ZM11.6882-24.4797L46.9818-24.4797L46.2311-26.7288L12.4382-26.7288ZM55.1193 0L57.7637 0L30.6381-70.459L29.4327-70.459L29.4327-67.1326Z"/>
  </g>
  <line id="Baseline-L" style="fill:none;stroke:#27AAE1;opacity:1;stroke-width:0.5;" x1="263" x2="3036" y1="1556" y2="1556"/>
  <line id="Capline-L" style="fill:none;stroke:#27AAE1;opacity:1;stroke-width:0.5;" x1="263" x2="3036" y1="1485.54" y2="1485.54"/>
  <line id="left-margin-Regular-M" style="fill:none;stroke:#00AEEF;stroke-width:0.5;opacity:1.0;" x1="1390.66" x2="1390.66" y1="1030.78" y2="1150.12"/>
  <line id="right-margin-Regular-M" style="fill:none;stroke:#00AEEF;stroke-width:0.5;opacity:1.0;" x1="1509.03" x2="1509.03" y1="1030.78" y2="1150.12"/>
 </g>
 <g id="Symbols">
  <g id="Black-L" transform="matrix(1 0 0 1 2857.39 1556)">
   <path d="M11.4805-45.1113C11.4805-37.4941 12.9047-30.3652 15.753-23.7246C18.6013-17.084 22.5401-11.249 27.5694-6.21973C32.5987-1.19043 38.4336 2.74837 45.0743 5.59668C51.7149 8.44499 58.8275 9.86914 66.4122 9.86914C70.9043 9.86914 75.2337 9.34017 79.4004 8.28223C83.5671 7.22428 87.5059 5.73502 91.2169 3.81445L112.896 25.4453C114.426 27.0078 116.2 28.1634 118.218 28.9121C120.237 29.6608 122.32 30.0352 124.468 30.0352C127.528 30.0352 130.271 29.3272 132.696 27.9111C135.122 26.4951 137.034 24.5664 138.433 22.125C139.833 19.6836 140.533 16.9492 140.533 13.9219C140.533 11.8386 140.159 9.81219 139.41 7.84277C138.662 5.87337 137.49 4.09114 135.894 2.49609L114.556-18.8906C116.738-22.7643 118.422-26.9066 119.61-31.3174C120.798-35.7282 121.392-40.3262 121.392-45.1113C121.392-52.696 119.968-59.8086 117.12-66.4492C114.272-73.0899 110.333-78.9248 105.303-83.9541C100.274-88.9834 94.4392-92.9222 87.7989-95.7705C81.1582-98.6188 74.0293-100.043 66.4122-100.043C58.8275-100.043 51.7149-98.6188 45.0743-95.7705C38.4336-92.9222 32.5987-88.9834 27.5694-83.9541C22.5401-78.9248 18.6013-73.0899 15.753-66.4492C12.9047-59.8086 11.4805-52.696 11.4805-45.1113Z"/>
  </g>
  <g id="Heavy-L" transform="matrix(1 0 0 1 2561.51 1556)">
   <path d="M11.4805-45.595C11.4805-38.1701 12.8701-31.2179 15.6492-24.7386C18.4283-18.2592 22.275-12.5626 27.1891-7.64871C32.1032-2.73487 37.8018 1.11161 44.285 3.89075C50.7682 6.66988 57.7098 8.05945 65.1098 8.05945C69.8401 8.05945 74.3827 7.45368 78.7378 6.24213C83.0929 5.03058 87.172 3.33024 90.975 1.14111L115.132 25.2721C116.448 26.6118 117.972 27.6062 119.705 28.2552C121.439 28.9042 123.231 29.2287 125.08 29.2287C127.717 29.2287 130.077 28.6186 132.16 27.3984C134.244 26.1782 135.883 24.5164 137.079 22.413C138.275 20.3096 138.873 17.9594 138.873 15.3623C138.873 13.5633 138.551 11.8193 137.906 10.1304C137.262 8.44156 136.261 6.91479 134.903 5.55014L111.041-18.3833C113.492-22.3262 115.394-26.5952 116.746-31.1904C118.1-35.7855 118.776-40.5871 118.776-45.595C118.776-53.0031 117.385-59.9469 114.602-66.4263C111.819-72.9057 107.972-78.6023 103.062-83.5162C98.152-88.43 92.4552-92.2766 85.972-95.056C79.4888-97.8354 72.5347-99.2251 65.1098-99.2251C57.7098-99.2251 50.7682-97.8354 44.285-95.056C37.8018-92.2766 32.1032-88.43 27.1891-83.5162C22.275-78.6023 18.4283-72.9057 15.6492-66.4263C12.8701-59.9469 11.4805-53.0031 11.4805-45.595Z"/>
  </g>
  <g id="Bold-L" transform="matrix(1 0 0 1 2265.73 1556)">
   <path d="M11.4805-46.1367C11.4805-38.9264 12.8314-32.1719 15.5333-25.873C18.2351-19.5742 21.9786-14.0322 26.7637-9.24707C31.5489-4.46192 37.095-0.718427 43.4019 1.9834C49.7089 4.68522 56.4594 6.03613 63.6534 6.03613C68.6501 6.03613 73.4312 5.3444 77.9966 3.96094C82.5621 2.57747 86.7979 0.640623 90.7042-1.84961L117.632 25.0791C118.707 26.1696 119.952 26.9834 121.368 27.5205C122.784 28.0576 124.249 28.3262 125.762 28.3262C127.927 28.3262 129.86 27.8257 131.561 26.8247C133.262 25.8237 134.597 24.4606 135.565 22.7354C136.533 21.0101 137.017 19.0895 137.017 16.9736C137.017 15.4925 136.753 14.0643 136.224 12.689C135.695 11.3137 134.885 10.0726 133.795 8.96582L107.11-17.8164C109.861-21.8366 112.005-26.2474 113.543-31.0488C115.081-35.8503 115.85-40.8796 115.85-46.1367C115.85-53.347 114.495-60.1015 111.785-66.4004C109.075-72.6992 105.332-78.2412 100.555-83.0264C95.7783-87.8115 90.2362-91.555 83.9293-94.2568C77.6223-96.9587 70.8637-98.3096 63.6534-98.3096C56.4594-98.3096 49.7089-96.9587 43.4019-94.2568C37.095-91.555 31.5489-87.8115 26.7637-83.0264C21.9786-78.2412 18.2351-72.6992 15.5333-66.4004C12.8314-60.1015 11.4805-53.347 11.4805-46.1367Z"/>
  </g>
  <g id="Semibold-L" transform="matrix(1 0 0 1 1969.66 1556)">
   <path d="M11.4805-46.5098C11.4805-39.4475 12.8047-32.8293 15.4532-26.6551C18.1016-20.4808 21.774-15.0455 26.4704-10.3491C31.1668-5.65272 36.6077-1.98032 42.7931 0.668091C48.9785 3.31651 55.5972 4.64072 62.6493 4.64072C67.8297 4.64072 72.7752 3.88973 77.4859 2.38776C82.1965 0.885784 86.5403-1.21383 90.5172-3.91107L119.357 24.9456C120.265 25.8642 121.318 26.5536 122.515 27.0139C123.712 27.4742 124.951 27.7044 126.233 27.7044C128.073 27.7044 129.711 27.2794 131.148 26.4295C132.585 25.5796 133.709 24.4223 134.521 22.9577C135.333 21.4932 135.738 19.8688 135.738 18.0845C135.738 16.8226 135.514 15.612 135.064 14.4529C134.615 13.2937 133.937 12.2497 133.03 11.321L104.399-17.425C107.358-21.4986 109.67-26.0072 111.335-30.9508C113.001-35.8944 113.833-41.0807 113.833-46.5098C113.833-53.5838 112.504-60.208 109.844-66.3825C107.184-72.557 103.512-77.9924 98.8264-82.6888C94.1415-87.3852 88.7063-91.0576 82.5209-93.706C76.3355-96.3544 69.7116-97.6786 62.6493-97.6786C55.5972-97.6786 48.9785-96.3544 42.7931-93.706C36.6077-91.0576 31.1668-87.3852 26.4704-82.6888C21.774-77.9924 18.1016-72.557 15.4532-66.3825C12.8047-60.208 11.4805-53.5838 11.4805-46.5098Z"/>
  </g>
  <g id="Medium-L" transform="matrix(1 0 0 1 1673.43 1556)">
   <path d="M11.4805-46.7928C11.4805-39.8429 12.7845-33.328 15.3925-27.2479C18.0005-21.1678 21.619-15.8133 26.248-11.1846C30.877-6.55581 36.2382-2.9373 42.3315-0.329071C48.4248 2.27916 54.9436 3.58328 61.8879 3.58328C67.2076 3.58328 72.2778 2.78728 77.0983 1.19528C81.9188-0.396719 86.3447-2.61992 90.3761-5.47433L120.664 24.8449C121.447 25.6332 122.354 26.2282 123.384 26.6298C124.414 27.0313 125.483 27.2321 126.59 27.2321C128.182 27.2321 129.597 26.8645 130.834 26.1293C132.072 25.3941 133.037 24.393 133.729 23.126C134.421 21.859 134.767 20.4593 134.767 18.9268C134.767 17.8312 134.573 16.7858 134.185 15.7907C133.797 14.7956 133.219 13.9008 132.451 13.1063L102.344-17.129C105.46-21.2428 107.898-25.8254 109.66-30.8768C111.422-35.9282 112.303-41.2335 112.303-46.7928C112.303-53.7635 110.993-60.289 108.371-66.3691C105.75-72.4492 102.132-77.8038 97.5164-82.4328C92.9007-87.0618 87.5461-90.6803 81.4528-93.2883C75.3594-95.8963 68.8378-97.2003 61.8879-97.2003C54.9436-97.2003 48.4248-95.8963 42.3315-93.2883C36.2382-90.6803 30.877-87.0618 26.248-82.4328C21.619-77.8038 18.0005-72.4492 15.3925-66.3691C12.7845-60.289 11.4805-53.7635 11.4805-46.7928Z"/>
  </g>
  <g id="Regular-L" transform="matrix(1 0 0 1 1377.35 1556)">
   <path d="M11.4805-47.1621C11.4805-40.3587 12.7582-33.9785 15.3135-28.0215C17.8688-22.0644 21.417-16.8154 25.9581-12.2744C30.4991-7.73339 35.7562-4.18522 41.7295-1.62988C47.7028 0.925453 54.0912 2.20312 60.8946 2.20312C66.3959 2.20312 71.6286 1.34863 76.5928-0.360352C81.557-2.06934 86.0899-4.45378 90.1915-7.51367L122.369 24.7129C122.988 25.3314 123.704 25.8034 124.517 26.1289C125.331 26.4544 126.178 26.6172 127.056 26.6172C128.326 26.6172 129.449 26.3242 130.425 25.7383C131.402 25.1524 132.159 24.3548 132.696 23.3457C133.234 22.3366 133.502 21.2298 133.502 20.0254C133.502 19.1465 133.348 18.3164 133.038 17.5352C132.729 16.7539 132.281 16.054 131.695 15.4355L99.6644-16.7422C102.984-20.9089 105.588-25.5882 107.476-30.7803C109.364-35.9724 110.308-41.433 110.308-47.1621C110.308-53.998 109.023-60.3945 106.451-66.3516C103.879-72.3086 100.331-77.5576 95.8067-82.0986C91.282-86.6397 86.0329-90.1879 80.0596-92.7432C74.0863-95.2985 67.698-96.5762 60.8946-96.5762C54.0912-96.5762 47.7028-95.2985 41.7295-92.7432C35.7562-90.1879 30.4991-86.6397 25.9581-82.0986C21.417-77.5576 17.8688-72.3086 15.3135-66.3516C12.7582-60.3945 11.4805-53.998 11.4805-47.1621Z"/>
  </g>
  <g id="Light-L" transform="matrix(1 0 0 1 1081.37 1556)">
   <path d="M11.4805-47.6161C11.4805-40.9744 12.7305-34.7457 15.2304-28.9298C17.7303-23.1139 21.1951-17.991 25.625-13.5611C30.0549-9.13123 35.1834-5.66634 41.0105-3.16644C46.8376-0.666543 53.0719 0.583405 59.7136 0.583405C65.2555 0.583405 70.5237-0.306437 75.5182-2.08612C80.5127-3.86581 85.0454-6.34612 89.1165-9.52707L122.823 24.2742C123.321 24.7615 123.903 25.1476 124.57 25.4327C125.238 25.7178 125.936 25.8604 126.663 25.8604C127.751 25.8604 128.7 25.6103 129.51 25.11C130.32 24.6097 130.946 23.9409 131.386 23.1035C131.828 22.266 132.048 21.356 132.048 20.3733C132.048 19.6561 131.922 18.9775 131.668 18.3374C131.415 17.6973 131.035 17.1186 130.529 16.6013L96.9091-17.1359C100.341-21.2618 103.036-25.931 104.994-31.1434C106.953-36.3558 107.932-41.8467 107.932-47.6161C107.932-54.2704 106.677-60.5055 104.165-66.3214C101.654-72.1373 98.1892-77.2628 93.7708-81.6977C89.3521-86.1327 84.2292-89.5976 78.4021-92.0924C72.575-94.5872 66.3455-95.8346 59.7136-95.8346C53.0719-95.8346 46.8376-94.5872 41.0105-92.0924C35.1834-89.5976 30.0549-86.1327 25.625-81.6977C21.1951-77.2628 17.7303-72.1373 15.2304-66.3214C12.7305-60.5055 11.4805-54.2704 11.4805-47.6161Z"/>
  </g>
  <g id="Thin-L" transform="matrix(1 0 0 1 785.619 1556)">
   <path d="M11.4805-48.2165C11.4805-41.7885 12.6937-35.76 15.1201-30.131C17.5465-24.5021 20.9013-19.546 25.1844-15.2628C29.4676-10.9797 34.426-7.6248 40.0595-5.19815C45.693-2.7715 51.7241-1.55817 58.1526-1.55817C63.7475-1.55817 69.0622-2.49468 74.0969-4.36769C79.1315-6.24071 83.6642-8.84781 87.6951-12.189L123.423 23.6936C123.761 24.0074 124.166 24.2802 124.64 24.5119C125.114 24.7436 125.615 24.8594 126.142 24.8594C126.99 24.8594 127.709 24.666 128.299 24.2792C128.889 23.8923 129.341 23.3936 129.655 22.783C129.97 22.1724 130.127 21.5228 130.127 20.8341C130.127 20.33 130.037 19.8514 129.856 19.3983C129.676 18.9451 129.386 18.5265 128.988 18.1425L93.2661-17.6562C96.8443-21.7293 99.6594-26.3852 101.711-31.6241C103.763-36.863 104.789-42.3938 104.789-48.2165C104.789-54.6308 103.574-60.6524 101.143-66.2814C98.7121-71.9103 95.3571-76.8722 91.0784-81.1671C86.7996-85.4619 81.8435-88.8167 76.2102-91.2314C70.5769-93.6461 64.5577-94.8535 58.1526-94.8535C51.7241-94.8535 45.693-93.6461 40.0595-91.2314C34.426-88.8167 29.4676-85.4619 25.1844-81.1671C20.9013-76.8722 17.5465-71.9103 15.1201-66.2814C12.6937-60.6524 11.4805-54.6308 11.4805-48.2165Z"/>
  </g>
  <g id="Ultralight-L" transform="matrix(1 0 0 1 489.4 1556)">
   <path d="M11.4805-48.5247C11.4805-42.2056 12.6749-36.2793 15.0637-30.7459C17.4524-25.2126 20.7509-20.342 24.959-16.1341C29.1671-11.9262 34.0384-8.62793 39.5727-6.23918C45.1071-3.85042 51.0336-2.65604 57.3523-2.65604C62.9752-2.65604 68.3141-3.61645 73.369-5.53728C78.424-7.45811 82.9568-10.13 86.9673-13.5531L123.731 23.3961C123.987 23.6209 124.302 23.8355 124.676 24.04C125.051 24.2445 125.451 24.3467 125.876 24.3467C126.6 24.3467 127.201 24.1824 127.678 23.8538C128.156 23.5253 128.519 23.1138 128.768 22.6194C129.018 22.125 129.142 21.6085 129.142 21.0699C129.142 20.6752 129.071 20.2991 128.928 19.9418C128.786 19.5845 128.542 19.248 128.198 18.9321L91.3992-17.9232C95.0527-21.9683 97.9294-26.6173 100.029-31.8701C102.129-37.123 103.179-42.6745 103.179-48.5247C103.179-54.8154 101.984-60.7275 99.5944-66.2608C97.2045-71.7941 93.9062-76.6724 89.6994-80.8955C85.4925-85.1186 80.6219-88.4171 75.0876-90.7908C69.5532-93.1645 63.6414-94.3514 57.3523-94.3514C51.0336-94.3514 45.1071-93.1645 39.5727-90.7908C34.0384-88.4171 29.1671-85.1186 24.959-80.8955C20.7509-76.6724 17.4524-71.7941 15.0637-66.2608C12.6749-60.7275 11.4805-54.8154 11.4805-48.5247Z"/>
  </g>
  <g id="Black-M" transform="matrix(1 0 0 1 2871.46 1126)">
   <path d="M11.4805-42.5723C11.4805-36.5827 12.6035-30.9675 14.8496-25.7266C17.0957-20.4857 20.1963-15.8795 24.1514-11.9082C28.1065-7.93685 32.7044-4.83626 37.9453-2.60645C43.1862-0.376629 48.8014 0.738281 54.791 0.738281C58.0788 0.738281 61.2608 0.388346 64.3369-0.311523C67.4131-1.01139 70.3347-2.01237 73.1016-3.31445L88.2871 11.8711C89.6218 13.2057 91.1761 14.1985 92.9502 14.8496C94.7243 15.5007 96.539 15.8262 98.3945 15.8262C101.063 15.8262 103.456 15.2077 105.572 13.9707C107.688 12.7337 109.356 11.0573 110.577 8.94141C111.798 6.82552 112.408 4.44922 112.408 1.8125C112.408-0.01042 112.083-1.77637 111.432-3.48535C110.781-5.19434 109.755-6.7487 108.355-8.14844L93.4629-23.0898C94.9278-25.9869 96.0671-29.0794 96.8809-32.3672C97.6947-35.6549 98.1016-39.0566 98.1016-42.5723C98.1016-48.5293 96.9785-54.1282 94.7324-59.3691C92.4863-64.61 89.3776-69.2162 85.4062-73.1875C81.4349-77.1588 76.8369-80.2594 71.6123-82.4893C66.3877-84.7191 60.7806-85.834 54.791-85.834C48.8014-85.834 43.1862-84.7191 37.9453-82.4893C32.7044-80.2594 28.1065-77.1588 24.1514-73.1875C20.1963-69.2162 17.0957-64.61 14.8496-59.3691C12.6035-54.1282 11.4805-48.5293 11.4805-42.5723Z"/>
  </g>
  <g id="Heavy-M" transform="matrix(1 0 0 1 2575.4 1126)">
   <path d="M11.4805-42.9522C11.4805-37.1086 12.5767-31.6298 14.7691-26.5158C16.9616-21.4018 19.9911-16.9052 23.8576-13.0259C27.7242-9.14661 32.2146-6.11711 37.3289-3.93739C42.4431-1.75767 47.922-0.667816 53.7656-0.667816C57.2761-0.667816 60.6598-1.08883 63.9165-1.93086C67.1732-2.77289 70.2349-3.96016 73.1016-5.49265L90.373 11.7902C91.5311 12.9407 92.8705 13.7973 94.391 14.3598C95.9115 14.9223 97.4726 15.2036 99.0743 15.2036C101.375 15.2036 103.433 14.6716 105.25 13.6075C107.066 12.5435 108.496 11.0995 109.54 9.27557C110.584 7.45164 111.106 5.40569 111.106 3.13773C111.106 1.56099 110.825 0.039046 110.262-1.42809C109.699-2.89522 108.822-4.22489 107.629-5.41711L90.6164-22.5024C92.3269-25.4839 93.6601-28.703 94.6161-32.1597C95.572-35.6163 96.05-39.2138 96.05-42.9522C96.05-48.7714 94.9539-54.238 92.7617-59.352C90.5696-64.4659 87.5338-68.9626 83.6545-72.8419C79.7752-76.7212 75.2848-79.7507 70.1833-81.9304C65.0818-84.1101 59.6092-85.2 53.7656-85.2C47.922-85.2 42.4431-84.1101 37.3289-81.9304C32.2146-79.7507 27.7242-76.7212 23.8576-72.8419C19.9911-68.9626 16.9616-64.4659 14.7691-59.352C12.5767-54.238 11.4805-48.7714 11.4805-42.9522Z"/>
  </g>
  <g id="Bold-M" transform="matrix(1 0 0 1 2279.41 1126)">
   <path d="M11.4805-43.3779C11.4805-37.6976 12.5466-32.3712 14.6787-27.3989C16.8109-22.4266 19.7609-18.0524 23.5288-14.2764C27.2967-10.5003 31.6669-7.55029 36.6392-5.42627C41.6115-3.30224 46.9379-2.24023 52.6182-2.24023C56.3779-2.24023 59.9871-2.74072 63.4458-3.7417C66.9045-4.74267 70.1231-6.13834 73.1016-7.92871L92.7061 11.7002C93.6664 12.6442 94.765 13.3481 96.002 13.812C97.2389 14.2759 98.5166 14.5078 99.835 14.5078C101.723 14.5078 103.408 14.0724 104.889 13.2017C106.37 12.3309 107.533 11.1468 108.38 9.64941C109.226 8.15202 109.649 6.47559 109.649 4.62012C109.649 3.31803 109.417 2.06885 108.954 0.872559C108.49-0.323734 107.778-1.40202 106.817-2.3623L87.4326-21.8447C89.4183-24.9209 90.9686-28.2819 92.0835-31.9277C93.1984-35.5736 93.7559-39.3903 93.7559-43.3779C93.7559-49.042 92.6898-54.3602 90.5576-59.3325C88.4255-64.3048 85.4714-68.679 81.6953-72.4551C77.9192-76.2311 73.5491-79.1811 68.585-81.3052C63.6208-83.4292 58.2985-84.4912 52.6182-84.4912C46.9379-84.4912 41.6115-83.4292 36.6392-81.3052C31.6669-79.1811 27.2967-76.2311 23.5288-72.4551C19.7609-68.679 16.8109-64.3048 14.6787-59.3325C12.5466-54.3602 11.4805-49.042 11.4805-43.3779Z"/>
  </g>
  <g id="Semibold-M" transform="matrix(1 0 0 1 1983.2 1126)">
   <path d="M11.4805-43.6709C11.4805-38.1035 12.5258-32.8825 14.6165-28.0078C16.7072-23.1331 19.6025-18.8433 23.3022-15.1385C27.0019-11.4337 31.2891-8.53843 36.1638-6.4528C41.0385-4.36718 46.2596-3.32437 51.827-3.32437C55.7587-3.32437 59.5235-3.87966 63.1216-4.99025C66.7196-6.10084 70.0463-7.64032 73.1016-9.6087L94.3143 11.6376C95.1383 12.4397 96.0711 13.0387 97.1128 13.4344C98.1545 13.8301 99.2365 14.0279 100.359 14.0279C101.963 14.0279 103.39 13.6592 104.64 12.9217C105.89 12.1842 106.87 11.1792 107.58 9.90691C108.29 8.63458 108.645 7.21309 108.645 5.64246C108.645 4.52958 108.447 3.46833 108.052 2.45871C107.656 1.44909 107.058 0.54424 106.257-0.255829L85.2376-21.3915C87.413-24.5328 89.113-27.9916 90.3375-31.7679C91.562-35.5442 92.1743-39.5118 92.1743-43.6709C92.1743-49.2286 91.1289-54.4447 89.0382-59.3192C86.9475-64.1936 84.0496-68.4833 80.3445-72.1884C76.6394-75.8935 72.3522-78.7888 67.4829-80.8741C62.6136-82.9595 57.3949-84.0022 51.827-84.0022C46.2596-84.0022 41.0385-82.9595 36.1638-80.8741C31.2891-78.7888 27.0019-75.8935 23.3022-72.1884C19.6025-68.4833 16.7072-64.1936 14.6165-59.3192C12.5258-54.4447 11.4805-49.2286 11.4805-43.6709Z"/>
  </g>
  <g id="Medium-M" transform="matrix(1 0 0 1 1686.87 1126)">
   <path d="M11.4805-43.8937C11.4805-38.4112 12.5101-33.2698 14.5692-28.4693C16.6284-23.6689 19.4821-19.4431 23.1302-15.7919C26.7783-12.1408 31.0026-9.28713 35.803-7.231C40.6034-5.17488 45.7448-4.14682 51.2273-4.14682C55.2892-4.14682 59.172-4.74357 62.8755-5.93706C66.579-7.13055 69.9877-8.77886 73.1016-10.882L95.5343 11.5911C96.255 12.2848 97.062 12.8038 97.9551 13.1479C98.8482 13.492 99.7822 13.664 100.757 13.664C102.145 13.664 103.376 13.3459 104.451 12.7096C105.526 12.0733 106.367 11.2043 106.974 10.1026C107.581 9.00091 107.884 7.77233 107.884 6.41684C107.884 5.44841 107.712 4.53009 107.368 3.66187C107.024 2.79364 106.512 2.02002 105.833 1.341L83.5729-21.0475C85.8922-24.2386 87.7056-27.7716 89.013-31.6466C90.3205-35.5215 90.9742-39.6039 90.9742-43.8937C90.9742-49.37 89.9446-54.5084 87.8854-59.3089C85.8263-64.1093 82.9712-68.3351 79.3203-71.9863C75.6694-75.6374 71.4451-78.4912 66.6475-80.5476C61.8498-82.6039 56.7098-83.6321 51.2273-83.6321C45.7448-83.6321 40.6034-82.6039 35.803-80.5476C31.0026-78.4912 26.7783-75.6374 23.1302-71.9863C19.4821-68.3351 16.6284-64.1093 14.5692-59.3089C12.5101-54.5084 11.4805-49.37 11.4805-43.8937Z"/>
  </g>
  <g id="Regular-M" transform="matrix(1 0 0 1 1390.66 1126)">
   <path d="M11.4805-44.1836C11.4805-38.8125 12.4896-33.7751 14.5078-29.0713C16.5261-24.3675 19.3255-20.2252 22.9062-16.6445C26.4869-13.0638 30.6292-10.2643 35.333-8.24609C40.0368-6.22786 45.0742-5.21875 50.4453-5.21875C54.6771-5.21875 58.7136-5.86979 62.5547-7.17188C66.3958-8.47396 69.9115-10.2643 73.1016-12.543L97.125 11.5293C97.7109 12.0827 98.3538 12.4977 99.0537 12.7744C99.7536 13.0511 100.494 13.1895 101.275 13.1895C102.382 13.1895 103.359 12.9372 104.205 12.4326C105.052 11.9281 105.711 11.2363 106.183 10.3574C106.655 9.47851 106.891 8.50195 106.891 7.42773C106.891 6.64648 106.753 5.91406 106.476 5.23047C106.199 4.54688 105.8 3.94466 105.279 3.42383L81.4023-20.5996C83.9088-23.8548 85.8701-27.4844 87.2861-31.4883C88.7022-35.4922 89.4102-39.7239 89.4102-44.1836C89.4102-49.5547 88.4011-54.5921 86.3828-59.2959C84.3646-63.9997 81.5651-68.142 77.9844-71.7227C74.4037-75.3034 70.2614-78.1029 65.5576-80.1211C60.8539-82.1393 55.8164-83.1484 50.4453-83.1484C45.0742-83.1484 40.0368-82.1393 35.333-80.1211C30.6292-78.1029 26.4869-75.3034 22.9062-71.7227C19.3255-68.142 16.5261-63.9997 14.5078-59.2959C12.4896-54.5921 11.4805-49.5547 11.4805-44.1836Z"/>
  </g>
  <g id="Light-M" transform="matrix(1 0 0 1 1094.6 1126)">
   <path d="M11.4805-44.5773C11.4805-39.3572 12.4644-34.4609 14.4323-29.8884C16.4002-25.3159 19.124-21.2872 22.6037-17.8023C26.0835-14.3174 30.1122-11.5912 34.6898-9.62358C39.2675-7.65596 44.1661-6.67215 49.3856-6.67215C53.6581-6.67215 57.7275-7.35345 61.5938-8.71606C65.4601-10.0787 68.973-11.9598 72.1326-14.3595L97.5492 11.1356C98.0039 11.5679 98.5182 11.9048 99.0919 12.1461C99.6656 12.3874 100.277 12.5081 100.927 12.5081C101.862 12.5081 102.68 12.2963 103.38 11.8726C104.08 11.4489 104.623 10.8733 105.01 10.1457C105.396 9.41812 105.589 8.61817 105.589 7.74588C105.589 7.11569 105.473 6.52187 105.242 5.96442C105.011 5.40696 104.675 4.90825 104.235 4.46829L78.935-20.9628C81.5427-24.1778 83.5873-27.7973 85.0686-31.8213C86.55-35.8453 87.2907-40.0973 87.2907-44.5773C87.2907-49.7968 86.3069-54.6954 84.3393-59.273C82.3716-63.8507 79.6454-67.8794 76.1606-71.3591C72.6757-74.8389 68.647-77.5627 64.0745-79.5306C59.5019-81.4985 54.6056-82.4824 49.3856-82.4824C44.1661-82.4824 39.2675-81.4985 34.6898-79.5306C30.1122-77.5627 26.0835-74.8389 22.6037-71.3591C19.124-67.8794 16.4002-63.8507 14.4323-59.273C12.4644-54.6954 11.4805-49.7968 11.4805-44.5773Z"/>
  </g>
  <g id="Thin-M" transform="matrix(1 0 0 1 798.749 1126)">
   <path d="M11.4805-45.0976C11.4805-40.0779 12.431-35.3686 14.332-30.9695C16.2329-26.5704 18.8567-22.6918 22.2032-19.3339C25.5497-15.976 29.4284-13.3465 33.8392-11.4455C38.25-9.54449 42.9652-8.59399 47.9848-8.59399C52.3102-8.59399 56.4227-9.31523 60.3223-10.7577C64.222-12.2002 67.7318-14.2014 70.8517-16.7613L98.1092 10.6153C98.3905 10.8874 98.7345 11.1208 99.1414 11.3153C99.5483 11.5098 99.9902 11.6071 100.467 11.6071C101.175 11.6071 101.782 11.4487 102.289 11.1318C102.796 10.8149 103.185 10.3928 103.458 9.86533C103.731 9.33788 103.867 8.77153 103.867 8.16626C103.867 7.73647 103.781 7.32627 103.61 6.93564C103.439 6.54501 103.187 6.18287 102.854 5.84921L75.6719-21.4434C78.4129-24.6051 80.5676-28.2112 82.1359-32.2619C83.7042-36.3126 84.4884-40.5912 84.4884-45.0976C84.4884-50.1172 83.5379-54.8324 81.6369-59.2433C79.736-63.6541 77.1064-67.5326 73.7482-70.8788C70.3899-74.2251 66.5113-76.8488 62.1122-78.7501C57.7131-80.6514 53.0039-81.602 47.9848-81.602C42.9652-81.602 38.25-80.6514 33.8392-78.7501C29.4284-76.8488 25.5497-74.2251 22.2032-70.8788C18.8567-67.5326 16.2329-63.6541 14.332-59.2433C12.431-54.8324 11.4805-50.1172 11.4805-45.0976Z"/>
  </g>
  <g id="Ultralight-M" transform="matrix(1 0 0 1 502.479 1126)">
   <path d="M11.4805-45.3646C11.4805-40.4472 12.4139-35.8335 14.2808-31.5234C16.1477-27.2133 18.7201-23.4117 21.998-20.1186C25.2758-16.8255 29.0774-14.2455 33.4028-12.3786C37.7281-10.5117 42.3495-9.57819 47.2669-9.57819C51.6197-9.57819 55.7545-10.32 59.6712-11.8037C63.5879-13.2874 67.096-15.3501 70.1955-17.9919L98.3968 10.3483C98.5891 10.5385 98.8459 10.7191 99.1674 10.89C99.4889 11.0609 99.8434 11.1463 100.231 11.1463C100.823 11.1463 101.323 11.0151 101.73 10.7526C102.137 10.4901 102.448 10.1466 102.663 9.72189C102.878 9.29719 102.985 8.85036 102.985 8.38141C102.985 8.05436 102.915 7.73825 102.775 7.43307C102.634 7.1279 102.425 6.83595 102.146 6.55722L74.0003-21.6891C76.81-24.8232 79.0211-28.4225 80.6337-32.487C82.2463-36.5514 83.0526-40.8439 83.0526-45.3646C83.0526-50.2815 82.1191-54.9027 80.2522-59.228C78.3853-63.5533 75.8053-67.3549 72.5122-70.6328C69.2191-73.9107 65.4175-76.483 61.1074-78.3499C56.7973-80.2168 52.1838-81.1503 47.2669-81.1503C42.3495-81.1503 37.7281-80.2168 33.4028-78.3499C29.0774-76.483 25.2758-73.9107 21.998-70.6328C18.7201-67.3549 16.1477-63.5533 14.2808-59.228C12.4139-54.9027 11.4805-50.2815 11.4805-45.3646Z"/>
  </g>
  <g id="Black-S" transform="matrix(1 0 0 1 2882.22 696)">
   <path d="M11.4805-40.8145C11.4805-36.0944 12.3675-31.6673 14.1416-27.5332C15.9157-23.3991 18.3652-19.7695 21.4902-16.6445C24.6152-13.5195 28.2448-11.07 32.3789-9.2959C36.5131-7.52181 40.9402-6.63477 45.6602-6.63477C48.1667-6.63477 50.6-6.89519 52.96-7.41602C55.32-7.93685 57.5742-8.66927 59.7226-9.61328L71.0508 1.71484C72.1576 2.82161 73.4352 3.64355 74.8838 4.18066C76.3324 4.71777 77.8216 4.98633 79.3516 4.98633C82.6394 4.98633 85.3819 3.87956 87.5791 1.66602C89.7764-0.547527 90.875-3.2819 90.875-6.53711C90.875-8.0345 90.6065-9.4912 90.0693-10.9072C89.5323-12.3232 88.6941-13.6009 87.5547-14.7402L76.4219-25.873C77.5287-28.1191 78.375-30.5036 78.9609-33.0264C79.5469-35.5491 79.8398-38.1452 79.8398-40.8145C79.8398-45.5345 78.9528-49.9616 77.1787-54.0957C75.4047-58.2298 72.9551-61.8594 69.8301-64.9844C66.7051-68.1094 63.0756-70.5589 58.9414-72.333C54.8073-74.1071 50.3802-74.9941 45.6602-74.9941C40.9402-74.9941 36.5131-74.1071 32.3789-72.333C28.2448-70.5589 24.6152-68.1094 21.4902-64.9844C18.3652-61.8594 15.9157-58.2298 14.1416-54.0957C12.3675-49.9616 11.4805-45.5345 11.4805-40.8145Z"/>
  </g>
  <g id="Heavy-S" transform="matrix(1 0 0 1 2585.98 696)">
   <path d="M11.4805-41.0914C11.4805-36.4787 12.3483-32.1494 14.084-28.1035C15.8197-24.0576 18.2174-20.5049 21.277-17.4452C24.3366-14.3856 27.8875-11.9899 31.9295-10.258C35.9716-8.52611 40.3026-7.66016 44.9224-7.66016C47.6136-7.66016 50.214-7.97436 52.7238-8.60277C55.2336-9.23118 57.605-10.1135 59.8379-11.2498L72.7796 1.7034C73.748 2.66419 74.8586 3.37665 76.1114 3.84077C77.3642 4.3049 78.6517 4.53696 79.9741 4.53696C82.824 4.53696 85.1957 3.57998 87.0893 1.66602C88.9829-0.247947 89.9297-2.61738 89.9297-5.44229C89.9297-6.74742 89.6958-8.012 89.2278-9.23601C88.7599-10.46 88.041-11.5611 87.071-12.5392L74.3017-25.3199C75.6002-27.6428 76.6-30.1387 77.3012-32.8074C78.0024-35.4761 78.3529-38.2375 78.3529-41.0914C78.3529-45.7113 77.4851-50.0422 75.7493-54.0843C74.0137-58.1263 71.6179-61.6771 68.5621-64.7368C65.5063-67.7965 61.9555-70.1941 57.9099-71.9298C53.8643-73.6655 49.5352-74.5333 44.9224-74.5333C40.3026-74.5333 35.9716-73.6655 31.9295-71.9298C27.8875-70.1941 24.3366-67.7965 21.277-64.7368C18.2174-61.6771 15.8197-58.1263 14.084-54.0843C12.3483-50.0422 11.4805-45.7113 11.4805-41.0914Z"/>
  </g>
  <g id="Bold-S" transform="matrix(1 0 0 1 2289.8 696)">
   <path d="M11.4805-41.4004C11.4805-36.9082 12.3268-32.6886 14.0195-28.7417C15.7123-24.7948 18.052-21.328 21.0386-18.3413C24.0252-15.3546 27.488-13.019 31.4268-11.3345C35.3656-9.64991 39.5892-8.80762 44.0976-8.80762C46.9948-8.80762 49.7821-9.18198 52.4595-9.9307C55.1369-10.6794 57.6394-11.7292 59.9668-13.0801L74.7129 1.69043C75.5267 2.48796 76.4504 3.07796 77.4839 3.46045C78.5175 3.84294 79.5795 4.03418 80.6699 4.03418C83.03 4.03418 84.9872 3.24479 86.5415 1.66602C88.0959 0.0872413 88.873-1.87402 88.873-4.21777C88.873-5.30827 88.6777-6.35808 88.2871-7.36719C87.8965-8.3763 87.3106-9.27961 86.5293-10.0771L71.9297-24.7012C73.4434-27.1101 74.6153-29.7305 75.4453-32.5625C76.2754-35.3945 76.6904-38.3405 76.6904-41.4004C76.6904-45.9089 75.8441-50.1325 74.1514-54.0713C72.4587-58.0101 70.1231-61.4728 67.1445-64.4595C64.1661-67.4462 60.7033-69.7858 56.7563-71.4785C52.8094-73.1712 48.5898-74.0176 44.0976-74.0176C39.5892-74.0176 35.3656-73.1712 31.4268-71.4785C27.488-69.7858 24.0252-67.4462 21.0386-64.4595C18.052-61.4728 15.7123-58.0101 14.0195-54.0713C12.3268-50.1325 11.4805-45.9089 11.4805-41.4004Z"/>
  </g>
  <g id="Semibold-S" transform="matrix(1 0 0 1 1993.45 696)">
   <path d="M11.4805-41.614C11.4805-37.2047 12.3121-33.0607 13.9753-29.1819C15.6385-25.3031 17.9382-21.8956 20.8742-18.9593C23.8102-16.023 27.2122-13.7288 31.08-12.0768C34.9479-10.4248 39.0977-9.59879 43.5293-9.59879C46.5683-9.59879 49.4843-10.0146 52.2771-10.8462C55.07-11.6778 57.6627-12.8431 60.0553-14.342L76.0457 1.68127C76.7533 2.36639 77.5483 2.87209 78.4307 3.19838C79.3132 3.52467 80.2196 3.68781 81.1498 3.68781C83.1722 3.68781 84.8435 3.01388 86.1638 1.66602C87.4842 0.318157 88.1444-1.36158 88.1444-3.3732C88.1444-4.31569 87.9758-5.21748 87.6386-6.07858C87.3014-6.93969 86.8073-7.7067 86.1562-8.37961L70.2947-24.2747C71.9564-26.7426 73.2467-29.4488 74.1655-32.3935C75.0843-35.3382 75.5437-38.4117 75.5437-41.614C75.5437-46.0451 74.7123-50.1946 73.0493-54.0625C71.3864-57.9304 69.0924-61.3324 66.1672-64.2687C63.2421-67.205 59.84-69.5047 55.961-71.1676C52.082-72.8305 47.9381-73.662 43.5293-73.662C39.0977-73.662 34.9479-72.8305 31.08-71.1676C27.2122-69.5047 23.8102-67.205 20.8742-64.2687C17.9382-61.3324 15.6385-57.9304 13.9753-54.0625C12.3121-50.1946 11.4805-46.0451 11.4805-41.614Z"/>
  </g>
  <g id="Medium-S" transform="matrix(1 0 0 1 1697.02 696)">
   <path d="M11.4805-41.7758C11.4805-37.4291 12.3008-33.3421 13.9413-29.5149C15.5819-25.6878 17.8513-22.3251 20.7494-19.427C23.6476-16.5288 27.0035-14.2662 30.8172-12.6391C34.6309-11.012 38.7243-10.1985 43.0974-10.1985C46.2448-10.1985 49.2588-10.6457 52.1394-11.5401C55.02-12.4345 57.6813-13.6874 60.1232-15.2987L77.0566 1.67517C77.6828 2.27433 78.3799 2.71569 79.1479 2.99925C79.9159 3.28281 80.7045 3.42459 81.5137 3.42459C83.2802 3.42459 84.7349 2.8384 85.8777 1.66602C87.0207 0.493633 87.5921-0.972737 87.5921-2.73309C87.5921-3.56317 87.4436-4.35256 87.1465-5.10126C86.8495-5.84995 86.4251-6.51371 85.8732-7.09253L69.0549-23.9512C70.8291-26.4643 72.2092-29.2358 73.1954-32.2657C74.1816-35.2956 74.6747-38.4656 74.6747-41.7758C74.6747-46.1484 73.8545-50.2417 72.2139-54.0556C70.5733-57.8696 68.3106-61.2257 65.4256-64.1238C62.5407-67.0219 59.1848-69.2913 55.3579-70.9319C51.531-72.5724 47.4442-73.3927 43.0974-73.3927C38.7243-73.3927 34.6309-72.5724 30.8172-70.9319C27.0035-69.2913 23.6476-67.0219 20.7494-64.1238C17.8513-61.2257 15.5819-57.8696 13.9413-54.0556C12.3008-50.2417 11.4805-46.1484 11.4805-41.7758Z"/>
  </g>
  <g id="Regular-S" transform="matrix(1 0 0 1 1400.67 696)">
   <path d="M11.4805-41.9863C11.4805-37.722 12.2862-33.7099 13.8975-29.9502C15.5088-26.1904 17.7386-22.8864 20.5869-20.0381C23.4353-17.1898 26.7312-14.9681 30.4746-13.373C34.2181-11.778 38.2383-10.9805 42.5352-10.9805C45.823-10.9805 48.9642-11.4688 51.959-12.4453C54.9538-13.4219 57.7045-14.7891 60.2109-16.5469L78.375 1.66602C78.8958 2.1543 79.4655 2.51237 80.084 2.74023C80.7025 2.9681 81.3373 3.08203 81.9883 3.08203C83.4206 3.08203 84.5925 2.61003 85.5039 1.66602C86.4154 0.722007 86.8711-0.466147 86.8711-1.89844C86.8711-2.58203 86.7491-3.22494 86.5049-3.82715C86.2608-4.42936 85.9271-4.95833 85.5039-5.41406L67.4375-23.5293C69.3581-26.1009 70.8555-28.9573 71.9297-32.0986C73.0039-35.2399 73.541-38.5358 73.541-41.9863C73.541-46.2832 72.7354-50.3034 71.124-54.0469C69.5127-57.7904 67.291-61.0863 64.459-63.9346C61.627-66.7829 58.3311-69.0127 54.5713-70.624C50.8115-72.2353 46.7995-73.041 42.5352-73.041C38.2383-73.041 34.2181-72.2353 30.4746-70.624C26.7312-69.0127 23.4353-66.7829 20.5869-63.9346C17.7386-61.0863 15.5088-57.7904 13.8975-54.0469C12.2862-50.3034 11.4805-46.2832 11.4805-41.9863Z"/>
  </g>
  <g id="Light-S" transform="matrix(1 0 0 1 1104.54 696)">
   <path d="M11.4805-42.3495C11.4805-38.2062 12.2634-34.3152 13.8292-30.6765C15.395-27.0378 17.5592-23.8347 20.3218-21.0673C23.0844-18.2998 26.2795-16.1412 29.907-14.5915C33.5346-13.0417 37.4311-12.2668 41.5967-12.2668C44.9247-12.2668 48.0962-12.7829 51.1114-13.8152C54.1266-14.8475 56.8772-16.2878 59.3633-18.1361L78.7534 1.30286C79.1634 1.70009 79.6195 1.99497 80.1217 2.18748C80.624 2.38 81.1452 2.47626 81.6854 2.47626C82.8858 2.47626 83.8558 2.08246 84.5956 1.29485C85.3354 0.507239 85.7053-0.466401 85.7053-1.62607C85.7053-2.17844 85.606-2.69774 85.4074-3.18399C85.2088-3.67024 84.9333-4.10588 84.5807-4.49091L65.2578-23.8474C67.2694-26.3885 68.8401-29.2374 69.9697-32.3939C71.0994-35.5504 71.6642-38.869 71.6642-42.3495C71.6642-46.505 70.8837-50.3965 69.3227-54.024C67.7618-57.6515 65.6057-60.8491 62.8545-63.6168C60.1034-66.3845 56.9059-68.5487 53.2621-70.1094C49.6183-71.6701 45.7299-72.4505 41.5967-72.4505C37.4311-72.4505 33.5346-71.6701 29.907-70.1094C26.2795-68.5487 23.0844-66.3845 20.3218-63.6168C17.5592-60.8491 15.395-57.6515 13.8292-54.024C12.2634-50.3965 11.4805-46.505 11.4805-42.3495Z"/>
  </g>
  <g id="Thin-S" transform="matrix(1 0 0 1 808.601 696)">
   <path d="M11.4805-42.8301C11.4805-38.8471 12.2334-35.1163 13.7391-31.6378C15.2449-28.1593 17.3224-25.0897 19.9716-22.4288C22.6208-19.7679 25.6824-17.6927 29.1562-16.2032C32.6302-14.7137 36.3632-13.9689 40.3554-13.9689C43.7368-13.9689 46.9484-14.5217 49.9902-15.6272C53.0321-16.7327 55.7829-18.2696 58.2425-20.238L79.2539 0.822205C79.5169 1.09941 79.8228 1.31099 80.1717 1.45697C80.5207 1.60294 80.8917 1.67593 81.2848 1.67593C82.1785 1.67593 82.8818 1.38551 83.3948 0.804657C83.9078 0.223806 84.1642-0.4664 84.1642-1.26596C84.1642-1.64489 84.0949-2.00067 83.9563-2.33331C83.8177-2.66596 83.6187-2.978 83.3593-3.26944L62.3754-24.2678C64.5066-26.7687 66.1737-29.6075 67.3768-32.7841C68.58-35.9608 69.1816-39.3094 69.1816-42.8301C69.1816-46.799 68.4346-50.5203 66.9404-53.9942C65.4464-57.4681 63.377-60.5355 60.7324-63.1964C58.0878-65.8573 55.0204-67.9348 51.5302-69.4289C48.04-70.923 44.3151-71.67 40.3554-71.67C36.3632-71.67 32.6302-70.923 29.1562-69.4289C25.6824-67.9348 22.6208-65.8573 19.9716-63.1964C17.3224-60.5355 15.2449-57.4681 13.7391-53.9942C12.2334-50.5203 11.4805-46.799 11.4805-42.8301Z"/>
  </g>
  <g id="Ultralight-S" transform="matrix(1 0 0 1 512.284 696)">
   <path d="M11.4805-43.0758C11.4805-39.1751 12.218-35.5265 13.693-32.1299C15.168-28.7333 17.201-25.7319 19.7919-23.1257C22.3829-20.5195 25.3761-18.487 28.7717-17.0283C32.1673-15.5696 35.8167-14.8402 39.7199-14.8402C43.1287-14.8402 46.3608-15.4118 49.4161-16.5549C52.4715-17.698 55.2221-19.2848 57.6681-21.3152L79.5102 0.576538C79.698 0.792195 79.927 0.960932 80.1973 1.08275C80.4677 1.20456 80.762 1.26547 81.0804 1.26547C81.8164 1.26547 82.3828 1.02807 82.7794 0.553268C83.1762 0.0784653 83.3745-0.466401 83.3745-1.08133C83.3745-1.37124 83.3206-1.64323 83.2128-1.89729C83.105-2.15135 82.9453-2.4002 82.7337-2.64383L60.8983-24.483C63.0915-26.9635 64.8085-29.7972 66.0493-32.984C67.2901-36.1708 67.9105-39.5347 67.9105-43.0758C67.9105-46.949 67.1805-50.5833 65.7205-53.9786C64.2605-57.3739 62.2356-60.3747 59.6456-62.9809C57.0557-65.5871 54.0549-67.6202 50.6433-69.0802C47.2317-70.5402 43.5906-71.2702 39.7199-71.2702C35.8167-71.2702 32.1673-70.5402 28.7717-69.0802C25.3761-67.6202 22.3829-65.5871 19.7919-62.9809C17.201-60.3747 15.168-57.3739 13.693-53.9786C12.218-50.5833 11.4805-46.949 11.4805-43.0758Z"/>
  </g>
 </g>
</svg>
