<?xml version="1.0" encoding="UTF-8"?>
<svg width="100px" height="100px" viewBox="0 0 100 100" version="1.1" xmlns="http://www.w3.org/2000/svg" xmlns:xlink="http://www.w3.org/1999/xlink">
    <title>Reminders</title>
    <g id="Placeholders" stroke="none" stroke-width="1" fill="none" fill-rule="evenodd">
        <g id="Empty-placeholders" transform="translate(-725, 0)" fill="#000000" fill-rule="nonzero">
            <g id="Reminders" transform="translate(725, 0)">
                <path d="M50,100 C77.5073028,100 100,77.5073028 100,50 C100,22.4926972 77.5073028,0 50,0 C22.4926972,0 0,22.4926972 0,50 C0,77.5073028 22.4926972,100 50,100 Z M30.3797468,65.4333009 C27.1178189,65.4333009 24.9756573,63.3398247 24.9756573,60.3700097 C24.9756573,57.2541383 26.9230769,55.0632911 29.3573515,53.164557 C31.4021422,51.6066212 31.7429406,48.0525803 32.473223,43.3787731 C33.3495618,35.9298929 36.5628043,30.1363194 42.2590068,28.1402142 C43.5735151,24.7809153 46.3972736,22.6874391 50,22.6874391 C53.6027264,22.6874391 56.4751704,24.7809153 57.7896787,28.1402142 C63.4858812,30.1363194 66.6017527,35.9298929 67.5754625,43.3787731 C68.3057449,48.0525803 68.6465433,51.6066212 70.691334,53.164557 C73.1256086,55.0632911 75.0243427,57.2541383 75.0243427,60.3700097 C75.0243427,63.3398247 72.9308666,65.4333009 69.6202532,65.4333009 L30.3797468,65.4333009 Z M50,77.1665044 C45.0827653,77.1665044 41.4313535,73.9045764 41.2366115,69.8149951 L58.812074,69.8149951 C58.5686465,73.9045764 54.9172347,77.1665044 50,77.1665044 Z" id="Shape"></path>
            </g>
        </g>
    </g>
</svg>