<?xml version="1.0" encoding="UTF-8"?>
<!--Generator: Apple Native CoreSVG 329-->
<!DOCTYPE svg
PUBLIC "-//W3C//DTD SVG 1.1//EN"
       "http://www.w3.org/Graphics/SVG/1.1/DTD/svg11.dtd">
<svg version="1.1" xmlns="http://www.w3.org/2000/svg" xmlns:xlink="http://www.w3.org/1999/xlink" viewBox="0 0 3300 2200">
 <g id="Notes">
  <rect height="2200" id="artboard" style="fill:white;opacity:1" width="3300" x="0" y="0"/>
  <line style="fill:none;stroke:black;opacity:1;stroke-width:0.5;" x1="263" x2="3036" y1="292" y2="292"/>
  <text style="stroke:none;fill:black;font-family:sans-serif;font-size:13;font-weight:bold;" transform="matrix(1 0 0 1 263 322)">Weight/Scale Variations</text>
  <text style="stroke:none;fill:black;font-family:sans-serif;font-size:13;text-anchor:middle;" transform="matrix(1 0 0 1 559.711 322)">Ultralight</text>
  <text style="stroke:none;fill:black;font-family:sans-serif;font-size:13;text-anchor:middle;" transform="matrix(1 0 0 1 856.422 322)">Thin</text>
  <text style="stroke:none;fill:black;font-family:sans-serif;font-size:13;text-anchor:middle;" transform="matrix(1 0 0 1 1153.13 322)">Light</text>
  <text style="stroke:none;fill:black;font-family:sans-serif;font-size:13;text-anchor:middle;" transform="matrix(1 0 0 1 1449.84 322)">Regular</text>
  <text style="stroke:none;fill:black;font-family:sans-serif;font-size:13;text-anchor:middle;" transform="matrix(1 0 0 1 1746.56 322)">Medium</text>
  <text style="stroke:none;fill:black;font-family:sans-serif;font-size:13;text-anchor:middle;" transform="matrix(1 0 0 1 2043.27 322)">Semibold</text>
  <text style="stroke:none;fill:black;font-family:sans-serif;font-size:13;text-anchor:middle;" transform="matrix(1 0 0 1 2339.98 322)">Bold</text>
  <text style="stroke:none;fill:black;font-family:sans-serif;font-size:13;text-anchor:middle;" transform="matrix(1 0 0 1 2636.69 322)">Heavy</text>
  <text style="stroke:none;fill:black;font-family:sans-serif;font-size:13;text-anchor:middle;" transform="matrix(1 0 0 1 2933.4 322)">Black</text>
  <line style="fill:none;stroke:black;opacity:1;stroke-width:0.5;" x1="263" x2="3036" y1="1903" y2="1903"/>
  <g transform="matrix(0.2 0 0 0.2 263 1933)">
   <path d="m46.2402 4.15039c21.7773 0 39.4531-17.627 39.4531-39.4043s-17.6758-39.4043-39.4531-39.4043c-21.7285 0-39.4043 17.627-39.4043 39.4043s17.6758 39.4043 39.4043 39.4043Zm0-7.42188c-17.6758 0-31.9336-14.3066-31.9336-31.9824s14.2578-31.9824 31.9336-31.9824 31.9824 14.3066 31.9824 31.9824-14.3066 31.9824-31.9824 31.9824Zm-17.9688-31.9824c0 2.14844 1.51367 3.61328 3.75977 3.61328h10.498v10.5957c0 2.19727 1.46484 3.71094 3.61328 3.71094 2.24609 0 3.71094-1.51367 3.71094-3.71094v-10.5957h10.5957c2.19727 0 3.71094-1.46484 3.71094-3.61328 0-2.19727-1.51367-3.71094-3.71094-3.71094h-10.5957v-10.5469c0-2.24609-1.46484-3.75977-3.71094-3.75977-2.14844 0-3.61328 1.51367-3.61328 3.75977v10.5469h-10.498c-2.24609 0-3.75977 1.51367-3.75977 3.71094Z"/>
  </g>
  <g transform="matrix(0.2 0 0 0.2 281.506 1933)">
   <path d="m58.5449 14.5508c27.4902 0 49.8047-22.3145 49.8047-49.8047s-22.3145-49.8047-49.8047-49.8047-49.8047 22.3145-49.8047 49.8047 22.3145 49.8047 49.8047 49.8047Zm0-8.30078c-22.9492 0-41.5039-18.5547-41.5039-41.5039s18.5547-41.5039 41.5039-41.5039 41.5039 18.5547 41.5039 41.5039-18.5547 41.5039-41.5039 41.5039Zm-22.6562-41.5039c0 2.39258 1.66016 4.00391 4.15039 4.00391h14.3555v14.4043c0 2.44141 1.66016 4.15039 4.05273 4.15039 2.44141 0 4.15039-1.66016 4.15039-4.15039v-14.4043h14.4043c2.44141 0 4.15039-1.61133 4.15039-4.00391 0-2.44141-1.70898-4.15039-4.15039-4.15039h-14.4043v-14.3555c0-2.49023-1.70898-4.19922-4.15039-4.19922-2.39258 0-4.05273 1.70898-4.05273 4.19922v14.3555h-14.3555c-2.49023 0-4.15039 1.70898-4.15039 4.15039Z"/>
  </g>
  <g transform="matrix(0.2 0 0 0.2 304.924 1933)">
   <path d="m74.8535 28.3203c35.1074 0 63.623-28.4668 63.623-63.5742s-28.5156-63.623-63.623-63.623-63.5742 28.5156-63.5742 63.623 28.4668 63.5742 63.5742 63.5742Zm0-9.08203c-30.127 0-54.4922-24.3652-54.4922-54.4922s24.3652-54.4922 54.4922-54.4922 54.4922 24.3652 54.4922 54.4922-24.3652 54.4922-54.4922 54.4922Zm-28.8574-54.4922c0 2.58789 1.85547 4.39453 4.58984 4.39453h19.7266v19.7754c0 2.68555 1.85547 4.58984 4.44336 4.58984 2.68555 0 4.54102-1.85547 4.54102-4.58984v-19.7754h19.7754c2.68555 0 4.58984-1.80664 4.58984-4.39453 0-2.73438-1.85547-4.58984-4.58984-4.58984h-19.7754v-19.7266c0-2.73438-1.85547-4.63867-4.54102-4.63867-2.58789 0-4.44336 1.9043-4.44336 4.63867v19.7266h-19.7266c-2.73438 0-4.58984 1.85547-4.58984 4.58984Z"/>
  </g>
  <text style="stroke:none;fill:black;font-family:sans-serif;font-size:13;font-weight:bold;" transform="matrix(1 0 0 1 263 1953)">Design Variations</text>
  <text style="stroke:none;fill:black;font-family:sans-serif;font-size:13;" transform="matrix(1 0 0 1 263 1971)">Symbols are supported in up to nine weights and three scales.</text>
  <text style="stroke:none;fill:black;font-family:sans-serif;font-size:13;" transform="matrix(1 0 0 1 263 1989)">For optimal layout with text and other symbols, vertically align</text>
  <text style="stroke:none;fill:black;font-family:sans-serif;font-size:13;" transform="matrix(1 0 0 1 263 2007)">symbols with the adjacent text.</text>
  <line style="fill:none;stroke:#00AEEF;stroke-width:0.5;opacity:1.0;" x1="776" x2="776" y1="1919" y2="1933"/>
  <g transform="matrix(0.2 0 0 0.2 776 1933)">
   <path d="m16.5527 0.78125c2.58789 0 3.85742-0.976562 4.78516-3.71094l6.29883-17.2363h28.8086l6.29883 17.2363c0.927734 2.73438 2.19727 3.71094 4.73633 3.71094 2.58789 0 4.24805-1.5625 4.24805-4.00391 0-0.830078-0.146484-1.61133-0.537109-2.63672l-22.9004-60.9863c-1.12305-2.97852-3.125-4.49219-6.25-4.49219-3.02734 0-5.07812 1.46484-6.15234 4.44336l-22.9004 61.084c-0.390625 1.02539-0.537109 1.80664-0.537109 2.63672 0 2.44141 1.5625 3.95508 4.10156 3.95508Zm13.4766-28.3691 11.8652-32.8613h0.244141l11.8652 32.8613Z"/>
  </g>
  <line style="fill:none;stroke:#00AEEF;stroke-width:0.5;opacity:1.0;" x1="792.836" x2="792.836" y1="1919" y2="1933"/>
  <text style="stroke:none;fill:black;font-family:sans-serif;font-size:13;font-weight:bold;" transform="matrix(1 0 0 1 776 1953)">Margins</text>
  <text style="stroke:none;fill:black;font-family:sans-serif;font-size:13;" transform="matrix(1 0 0 1 776 1971)">Leading and trailing margins on the left and right side of each symbol</text>
  <text style="stroke:none;fill:black;font-family:sans-serif;font-size:13;" transform="matrix(1 0 0 1 776 1989)">can be adjusted by modifying the x-location of the margin guidelines.</text>
  <text style="stroke:none;fill:black;font-family:sans-serif;font-size:13;" transform="matrix(1 0 0 1 776 2007)">Modifications are automatically applied proportionally to all</text>
  <text style="stroke:none;fill:black;font-family:sans-serif;font-size:13;" transform="matrix(1 0 0 1 776 2025)">scales and weights.</text>
  <g transform="matrix(0.2 0 0 0.2 1289 1933)">
   <path d="m14.209 9.32617 8.49609 8.54492c4.29688 4.3457 9.22852 4.05273 13.8672-1.07422l53.4668-58.9355-4.83398-4.88281-53.0762 58.3984c-1.75781 2.00195-3.41797 2.49023-5.76172 0.146484l-5.85938-5.81055c-2.34375-2.29492-1.80664-4.00391 0.195312-5.81055l57.373-54.0039-4.88281-4.83398-57.959 54.4434c-4.93164 4.58984-5.32227 9.47266-1.02539 13.8184Zm32.0801-90.9668c-2.09961 2.05078-2.24609 4.93164-1.07422 6.88477 1.17188 1.80664 3.4668 2.97852 6.68945 2.14844 7.32422-1.70898 14.9414-2.00195 22.0703 2.68555l-2.92969 7.27539c-1.70898 4.15039-0.830078 7.08008 1.85547 9.81445l11.4746 11.5723c2.44141 2.44141 4.49219 2.53906 7.32422 2.05078l5.32227-0.976562 3.32031 3.36914-0.195312 2.7832c-0.195312 2.49023 0.439453 4.39453 2.88086 6.78711l3.80859 3.71094c2.39258 2.39258 5.46875 2.53906 7.8125 0.195312l14.5508-14.5996c2.34375-2.34375 2.24609-5.32227-0.146484-7.71484l-3.85742-3.80859c-2.39258-2.39258-4.24805-3.17383-6.64062-2.97852l-2.88086 0.244141-3.22266-3.17383 1.2207-5.61523c0.634766-2.83203-0.146484-5.0293-3.07617-7.95898l-10.9863-10.9375c-16.6992-16.6016-38.8672-16.2109-53.3203-1.75781Zm7.4707 1.85547c12.1582-8.88672 28.6133-7.37305 39.7461 3.75977l12.1582 12.0605c1.17188 1.17188 1.36719 2.09961 1.02539 3.80859l-1.61133 7.42188 7.51953 7.42188 4.93164-0.292969c1.26953-0.0488281 1.66016 0.0488281 2.63672 1.02539l2.88086 2.88086-12.207 12.207-2.88086-2.88086c-0.976562-0.976562-1.12305-1.36719-1.07422-2.68555l0.341797-4.88281-7.4707-7.42188-7.61719 1.26953c-1.61133 0.341797-2.34375 0.195312-3.56445-0.976562l-10.0098-10.0098c-1.26953-1.17188-1.41602-2.00195-0.634766-3.85742l4.39453-10.4492c-7.8125-7.27539-17.9688-10.4004-28.125-7.42188-0.78125 0.195312-1.07422-0.439453-0.439453-0.976562Z"/>
  </g>
  <text style="stroke:none;fill:black;font-family:sans-serif;font-size:13;font-weight:bold;" transform="matrix(1 0 0 1 1289 1953)">Exporting</text>
  <text style="stroke:none;fill:black;font-family:sans-serif;font-size:13;" transform="matrix(1 0 0 1 1289 1971)">Symbols should be outlined when exporting to ensure the</text>
  <text style="stroke:none;fill:black;font-family:sans-serif;font-size:13;" transform="matrix(1 0 0 1 1289 1989)">design is preserved when submitting to Xcode.</text>
  <text id="template-version" style="stroke:none;fill:black;font-family:sans-serif;font-size:13;text-anchor:end;" transform="matrix(1 0 0 1 3036 1933)">Template v.2.0</text>
  <text style="stroke:none;fill:black;font-family:sans-serif;font-size:13;text-anchor:end;" transform="matrix(1 0 0 1 3036 1951)">Requires Xcode 12 or greater</text>
  <text id="descriptive-name" style="stroke:none;fill:black;font-family:sans-serif;font-size:13;text-anchor:end;" transform="matrix(1 0 0 1 3036 1969)">Generated from kurozora</text>
  <text style="stroke:none;fill:black;font-family:sans-serif;font-size:13;text-anchor:end;" transform="matrix(1 0 0 1 3036 1987)">Typeset at 100.0 points</text>
  <text style="stroke:none;fill:black;font-family:sans-serif;font-size:13;" transform="matrix(1 0 0 1 263 726)">Small</text>
  <text style="stroke:none;fill:black;font-family:sans-serif;font-size:13;" transform="matrix(1 0 0 1 263 1156)">Medium</text>
  <text style="stroke:none;fill:black;font-family:sans-serif;font-size:13;" transform="matrix(1 0 0 1 263 1586)">Large</text>
 </g>
 <g id="Guides">
  <g id="H-reference" style="fill:#27AAE1;stroke:none;" transform="matrix(1 0 0 1 339 696)">
   <path d="M0.993654 0L3.63775 0L29.3281-67.1323L30.0303-67.1323L30.0303-70.459L28.1226-70.459ZM11.6885-24.4799L46.9815-24.4799L46.2315-26.7285L12.4385-26.7285ZM55.1196 0L57.7637 0L30.6382-70.459L29.4326-70.459L29.4326-67.1323Z"/>
  </g>
  <line id="Baseline-S" style="fill:none;stroke:#27AAE1;opacity:1;stroke-width:0.5;" x1="263" x2="3036" y1="696" y2="696"/>
  <line id="Capline-S" style="fill:none;stroke:#27AAE1;opacity:1;stroke-width:0.5;" x1="263" x2="3036" y1="625.541" y2="625.541"/>
  <g id="H-reference" style="fill:#27AAE1;stroke:none;" transform="matrix(1 0 0 1 339 1126)">
   <path d="M0.993654 0L3.63775 0L29.3281-67.1323L30.0303-67.1323L30.0303-70.459L28.1226-70.459ZM11.6885-24.4799L46.9815-24.4799L46.2315-26.7285L12.4385-26.7285ZM55.1196 0L57.7637 0L30.6382-70.459L29.4326-70.459L29.4326-67.1323Z"/>
  </g>
  <line id="Baseline-M" style="fill:none;stroke:#27AAE1;opacity:1;stroke-width:0.5;" x1="263" x2="3036" y1="1126" y2="1126"/>
  <line id="Capline-M" style="fill:none;stroke:#27AAE1;opacity:1;stroke-width:0.5;" x1="263" x2="3036" y1="1055.54" y2="1055.54"/>
  <g id="H-reference" style="fill:#27AAE1;stroke:none;" transform="matrix(1 0 0 1 339 1556)">
   <path d="M0.993654 0L3.63775 0L29.3281-67.1323L30.0303-67.1323L30.0303-70.459L28.1226-70.459ZM11.6885-24.4799L46.9815-24.4799L46.2315-26.7285L12.4385-26.7285ZM55.1196 0L57.7637 0L30.6382-70.459L29.4326-70.459L29.4326-67.1323Z"/>
  </g>
  <line id="Baseline-L" style="fill:none;stroke:#27AAE1;opacity:1;stroke-width:0.5;" x1="263" x2="3036" y1="1556" y2="1556"/>
  <line id="Capline-L" style="fill:none;stroke:#27AAE1;opacity:1;stroke-width:0.5;" x1="263" x2="3036" y1="1485.54" y2="1485.54"/>
  <line id="right-margin" style="fill:none;stroke:#00AEEF;stroke-width:0.5;opacity:1.0;" x1="1510.98" x2="1510.98" y1="1030.79" y2="1150.12"/>
  <line id="left-margin" style="fill:none;stroke:#00AEEF;stroke-width:0.5;opacity:1.0;" x1="1388.71" x2="1388.71" y1="1030.79" y2="1150.12"/>
 </g>
 <g id="Symbols">
  <g id="Black-L" transform="matrix(1 0 0 1 2854.11 1556)">
   <path d="M79.3444-97.1997C116.836-97.1997 147.23-66.9066 147.23-29.5347C147.23 7.83721 116.832 38.1322 79.3444 38.1322C78.3561 38.1322 77.3753 38.1058 76.3983 38.0642C108.197 36.311 133.443 10.0546 133.443-22.0803C133.443-55.3438 106.383-82.3211 73.0055-82.3211C39.6278-82.3211 12.5682-55.3495 12.5682-22.0803C12.5689-19.8641 12.6916-17.6497 12.9356-15.4469C11.9515-20.0786 11.4569-24.8002 11.4569-29.5347C11.4569-66.9047 41.8563-97.1997 79.3444-97.1997ZM72.4962-70.9112C100.296-70.9112 122.827-48.4556 122.827-20.7536C122.827 6.94834 100.296 29.404 72.4962 29.404C62.7794 29.4193 53.2682 26.6161 45.1223 21.3362C58.4957 28.9355 75.489 24.916 84.0109 12.1377C92.5328-0.64068 89.6732-17.8142 77.4668-27.1634C65.2604-36.5126 47.8756-34.845 37.682-23.347C27.4885-11.849 27.9673 5.55288 38.7777 16.4767C28.1946 6.97668 22.159-6.55764 22.175-20.7536C22.175-48.4537 44.7058-70.9112 72.4962-70.9112ZM56.4761-103.15C36.3595-96.9454 17.9084-82.5998 11.33-62.4947C11.33-88.0253 32.8256-103.15 56.4761-103.15Z"/>
  </g>
  <g id="Heavy-L" transform="matrix(1 0 0 1 2558.34 1556)">
   <path d="M78.4035-96.352C115.377-96.352 145.35-66.478 145.35-29.6231C145.35 7.23184 115.373 37.1077 78.4035 37.1077C77.4288 37.1077 76.4617 37.0817 75.4982 37.0407C106.857 35.3118 131.753 9.41861 131.753-22.2718C131.753-55.0752 105.068-81.6793 72.1523-81.6793C39.2364-81.6793 12.5511-55.0808 12.5511-22.2718C12.5518-20.0863 12.6727-17.9025 12.9133-15.7301C11.9429-20.2978 11.4551-24.9541 11.4551-29.6231C11.4551-66.4761 41.434-96.352 78.4035-96.352ZM71.65-70.4272C99.0653-70.4272 121.284-48.2822 121.284-20.9635C121.284 6.35527 99.0653 28.5003 71.65 28.5003C62.0677 28.5154 52.688 25.751 44.6548 20.5441C57.8433 28.0383 74.6014 24.0744 83.0054 11.4728C91.4094-1.12876 88.5894-18.0647 76.5519-27.2846C64.5143-36.5045 47.37-34.8599 37.3175-23.5209C27.265-12.182 27.7371 4.97911 38.398 15.7519C27.9613 6.38323 22.0092-6.96387 22.025-20.9635C22.025-48.2804 44.244-70.4272 71.65-70.4272ZM55.8516-102.22C36.0132-96.1013 17.8174-81.9541 11.33-62.1271C11.33-87.3045 32.5282-102.22 55.8516-102.22Z"/>
  </g>
  <g id="Bold-L" transform="matrix(1 0 0 1 2262.81 1556)">
   <path d="M77.2224-95.2854C113.545-95.2854 142.99-65.9374 142.99-29.7315C142.99 6.47447 113.541 35.8243 77.2224 35.8243C76.2649 35.8243 75.3147 35.7987 74.3682 35.7584C105.175 34.0599 129.633 8.62273 129.633-22.5097C129.633-54.7354 103.418-80.871 71.0812-80.871C38.745-80.871 12.5296-54.7409 12.5296-22.5097C12.5303-20.3626 12.6491-18.2172 12.8855-16.0832C11.9321-20.5704 11.4529-25.1447 11.4529-29.7315C11.4529-65.9356 40.9039-95.2854 77.2224-95.2854ZM70.5878-69.8171C97.5204-69.8171 119.348-48.0621 119.348-21.2244C119.348 5.61334 97.5204 27.3684 70.5878 27.3684C61.1743 27.3832 51.9597 24.6675 44.068 19.5523C57.0242 26.9145 73.4872 23.0204 81.7433 10.6408C89.9993-1.73891 87.2289-18.3766 75.4034-27.4341C63.5778-36.4917 46.7354-34.8761 36.8599-23.7368C26.9844-12.5975 27.4482 4.26141 37.9214 14.8445C27.6684 5.6408 21.8212-7.47127 21.8366-21.2244C21.8366-48.0602 43.6645-69.8171 70.5878-69.8171ZM55.0676-101.05C35.5786-95.039 17.7031-81.1409 11.33-61.6631C11.33-86.3972 32.1549-101.05 55.0676-101.05Z"/>
  </g>
  <g id="Semibold-L" transform="matrix(1 0 0 1 1966.91 1556)">
   <path d="M76.4116-94.5563C112.287-94.5563 141.37-65.5694 141.37-29.809C141.37 5.95144 112.283 34.9401 76.4116 34.9401C75.4659 34.9401 74.5274 34.9148 73.5926 34.8751C104.02 33.1975 128.177 8.07327 128.177-22.676C128.177-54.5052 102.284-80.3193 70.346-80.3193C38.4076-80.3193 12.5148-54.5107 12.5148-22.676C12.5155-20.5554 12.6329-18.4364 12.8663-16.3286C11.9247-20.7607 11.4514-25.2787 11.4514-29.809C11.4514-65.5676 40.54-94.5563 76.4116-94.5563ZM69.8587-69.4014C96.4598-69.4014 118.019-47.914 118.019-21.4066C118.019 5.10091 96.4598 26.5883 69.8587 26.5883C60.5609 26.6029 51.4598 23.9206 43.6652 18.8684C56.462 26.14 72.7224 22.2938 80.8769 10.0665C89.0313-2.16088 86.295-18.5938 74.615-27.5399C62.9349-36.486 46.2997-34.8903 36.5457-23.8881C26.7917-12.8859 27.2499 3.76562 37.5942 14.2184C27.4674 5.12803 21.6921-7.8227 21.7074-21.4066C21.7074-47.9122 43.2666-69.4014 69.8587-69.4014ZM54.5294-100.25C35.2802-94.313 17.6247-80.5859 11.33-61.3478C11.33-85.7775 31.8987-100.25 54.5294-100.25Z"/>
  </g>
  <g id="Medium-L" transform="matrix(1 0 0 1 1670.82 1556)">
   <path d="M75.791-94.0006C111.324-94.0006 140.13-65.2901 140.13-29.8707C140.13 5.54876 111.321 34.261 75.791 34.261C74.8543 34.261 73.9248 34.2359 72.9989 34.1966C103.136 32.535 127.063 7.65035 127.063-22.8058C127.063-54.3314 101.417-79.8993 69.7833-79.8993C38.1494-79.8993 12.5036-54.3368 12.5036-22.8058C12.5042-20.7054 12.6204-18.6066 12.8517-16.5189C11.9191-20.9086 11.4502-25.3836 11.4502-29.8707C11.4502-65.2883 40.2615-94.0006 75.791-94.0006ZM69.3006-69.0855C95.6481-69.0855 117.002-47.8031 117.002-21.5484C117.002 4.70633 95.6481 25.9888 69.3006 25.9888C60.0915 26.0033 51.0772 23.3466 43.3568 18.3425C56.0316 25.5448 72.137 21.7353 80.2137 9.62454C88.2904-2.48621 85.5802-18.7625 74.0115-27.6233C62.4428-36.4841 45.9663-34.9035 36.3053-24.0062C26.6443-13.1089 27.0981 3.38377 37.3437 13.7369C27.3135 4.73319 21.5933-8.09404 21.6084-21.5484C21.6084-47.8013 42.9621-69.0855 69.3006-69.0855ZM54.1175-99.64C35.0518-93.7596 17.5647-80.1634 11.33-61.1087C11.33-85.3055 31.7026-99.64 54.1175-99.64Z"/>
  </g>
  <g id="Regular-L" transform="matrix(1 0 0 1 1374.91 1556)">
   <path d="M74.9903-93.2706C110.082-93.2706 138.53-64.9168 138.53-29.9374C138.53 5.04206 110.078 33.3976 74.9903 33.3976C74.0652 33.3976 73.1472 33.3729 72.2328 33.334C101.996 31.6931 125.625 7.11755 125.625-22.9602C125.625-54.0943 100.298-79.3446 69.0572-79.3446C37.8163-79.3446 12.489-54.0996 12.489-22.9602C12.4896-20.8859 12.6044-18.8132 12.8328-16.7514C11.9117-21.0867 11.4487-25.506 11.4487-29.9374C11.4487-64.9151 39.9021-93.2706 74.9903-93.2706ZM68.5805-68.6651C94.6007-68.6651 115.689-47.647 115.689-21.7185C115.689 4.2101 94.6007 25.2282 68.5805 25.2282C59.4858 25.2425 50.5834 22.6188 42.959 17.6769C55.4763 24.7897 71.3817 21.0275 79.358 9.06722C87.3344-2.89309 84.6578-18.9672 73.2329-27.7179C61.8079-36.4686 45.536-34.9077 35.995-24.1458C26.4541-13.3839 26.9022 2.90397 37.0206 13.1285C27.115 4.23663 21.4658-8.43126 21.4807-21.7185C21.4807-47.6453 42.5691-68.6651 68.5805-68.6651ZM53.586-98.84C34.7572-93.0326 17.4872-79.6054 11.33-60.7874C11.33-84.6836 31.4495-98.84 53.586-98.84Z"/>
  </g>
  <g id="Light-L" transform="matrix(1 0 0 1 1079.13 1556)">
   <path d="M74.0594-92.4321C108.638-92.4321 136.67-64.4929 136.67-30.0249C136.67 4.44304 108.634 32.384 74.0594 32.384C73.1478 32.384 72.2433 32.3596 71.3423 32.3213C100.67 30.7043 123.954 6.48817 123.954-23.1498C123.954-53.8286 98.9971-78.7096 68.213-78.7096C37.429-78.7096 12.472-53.8338 12.472-23.1498C12.4727-21.1058 12.5858-19.0634 12.8108-17.0318C11.9032-21.3036 11.447-25.6583 11.447-30.0249C11.447-64.4911 39.4843-92.4321 74.0594-92.4321ZM67.7433-68.1863C93.383-68.1863 114.163-47.4756 114.163-21.9262C114.163 3.62324 93.383 24.334 67.7433 24.334C58.7816 24.3481 50.0094 21.7628 42.4965 16.8931C54.8308 23.9019 70.5035 20.1947 78.3633 8.40933C86.223-3.37608 83.5856-19.2151 72.3277-27.8379C61.0698-36.4607 45.0358-34.9226 35.6344-24.318C26.2329-13.7135 26.6745 2.33621 36.6449 12.4112C26.8842 3.64938 21.3176-8.83328 21.3323-21.9262C21.3323-47.4739 42.1123-68.1863 67.7433-68.1863ZM52.9681-97.92C34.4146-92.1975 17.3972-78.9666 11.33-60.4238C11.33-83.9706 31.1553-97.92 52.9681-97.92Z"/>
  </g>
  <g id="Thin-L" transform="matrix(1 0 0 1 784.267 1556)">
   <path d="M72.2076-90.7641C105.765-90.7641 132.97-63.6496 132.97-30.1992C132.97 3.25131 105.762 30.3674 72.2076 30.3674C71.323 30.3674 70.4452 30.3438 69.5707 30.3066C98.0327 28.7374 120.629 5.23607 120.629-23.527C120.629-53.3001 96.4092-77.4467 66.5339-77.4467C36.6585-77.4467 12.4383-53.3052 12.4383-23.527C12.4389-21.5433 12.5487-19.5612 12.7671-17.5896C11.8863-21.7353 11.4435-25.9615 11.4435-30.1992C11.4435-63.648 38.6532-90.7641 72.2076-90.7641ZM66.078-67.234C90.9608-67.234 111.127-47.1347 111.127-22.3395C111.127 2.45571 90.9608 22.5551 66.078 22.5551C57.3809 22.5688 48.8676 20.0598 41.5765 15.3339C53.5466 22.1358 68.7568 18.538 76.3845 7.10052C84.0122-4.33699 81.4526-19.7085 70.5271-28.0767C59.6015-36.4449 44.0408-34.9522 34.9169-24.6607C25.793-14.3692 26.2215 1.20667 35.8976 10.9843C26.425 2.48108 21.0227-9.63309 21.037-22.3395C21.037-47.133 41.2036-67.234 66.078-67.234ZM51.7389-96.09C33.7331-90.5365 17.2181-77.6961 11.33-59.7007C11.33-82.5523 30.5701-96.09 51.7389-96.09Z"/>
  </g>
  <g id="Ultralight-L" transform="matrix(1 0 0 1 486.926 1556)">
   <path d="M72.8382-91.3289C106.744-91.3289 134.23-63.9336 134.23-30.1366C134.23 3.66033 106.74 31.0573 72.8382 31.0573C71.9444 31.0573 71.0575 31.0334 70.174 30.9959C98.9308 29.4104 121.762 5.66565 121.762-23.3953C121.762-53.4769 97.2905-77.8736 67.1057-77.8736C36.9209-77.8736 12.4498-53.482 12.4498-23.3953C12.4504-21.3912 12.5613-19.3885 12.782-17.3964C11.8921-21.5851 11.4447-25.8551 11.4447-30.1366C11.4447-63.9319 38.9362-91.3289 72.8382-91.3289ZM66.6451-67.5551C91.7857-67.5551 112.161-47.2476 112.161-22.1956C112.161 2.85649 91.7857 23.1641 66.6451 23.1641C57.8579 23.1779 49.2564 20.6429 41.8898 15.8681C53.9839 22.7404 69.3516 19.1054 77.0583 7.54941C84.765-4.00658 82.179-19.5373 71.1402-27.9922C60.1015-36.4471 44.3797-34.9389 35.1612-24.5408C25.9428-14.1427 26.3758 1.59452 36.1521 11.4734C26.5814 2.88212 21.1232-9.35753 21.1376-22.1956C21.1376-47.2459 41.5131-67.5551 66.6451-67.5551ZM52.1575-96.71C33.9652-91.0989 17.2791-78.1256 11.33-59.9438C11.33-83.0321 30.7693-96.71 52.1575-96.71Z"/>
  </g>
  <g id="Black-M" transform="matrix(1 0 0 1 2868.74 1126)">
   <path d="M64.7005-83.8508C94.1202-83.8508 117.97-60.08 117.97-30.7545C117.97-1.42894 94.1172 22.3434 64.7005 22.3434C63.925 22.3434 63.1554 22.3226 62.3888 22.2901C87.341 20.9143 107.151 0.311079 107.151-24.9051C107.151-51.0068 85.9177-72.1757 59.7264-72.1757C33.5352-72.1757 12.3016-51.0112 12.3016-24.9051C12.3022-23.166 12.3984-21.4284 12.5899-19.6998C11.8177-23.3343 11.4295-27.0394 11.4295-30.7545C11.4295-60.0785 35.2838-83.8508 64.7005-83.8508ZM59.3268-63.2224C81.1412-63.2224 98.8209-45.6016 98.8209-23.864C98.8209-2.12642 81.1412 15.4944 59.3268 15.4944C51.7021 15.5064 44.2387 13.3068 37.8466 9.16368C48.3407 15.1268 61.6752 11.9727 68.3623 1.94561C75.0494-8.08149 72.8055-21.5574 63.2272-28.8937C53.6489-36.23 40.0071-34.9214 32.0083-25.899C24.0095-16.8766 24.3852-3.22144 32.8681 5.35046C24.5636-2.10418 19.8275-12.7245 19.84-23.864C19.84-45.6001 37.5198-63.2224 59.3268-63.2224ZM46.7559-88.52C30.9705-83.6513 16.492-72.3944 11.33-56.618C11.33-76.6517 28.1975-88.52 46.7559-88.52Z"/>
  </g>
  <g id="Heavy-M" transform="matrix(1 0 0 1 2572.86 1126)">
   <path d="M63.8697-83.1035C92.8314-83.1035 116.31-59.7027 116.31-30.8337C116.31-1.96463 92.8285 21.4376 63.8697 21.4376C63.1063 21.4376 62.3487 21.4172 61.594 21.3851C86.1578 20.0308 105.66-0.2517 105.66-25.0753C105.66-50.7707 84.7566-71.6101 58.9731-71.6101C33.1895-71.6101 12.2865-50.7751 12.2865-25.0753C12.2871-23.3634 12.3818-21.6527 12.5703-19.9511C11.8101-23.5291 11.428-27.1764 11.428-30.8337C11.428-59.7013 34.9109-83.1035 63.8697-83.1035ZM58.5796-62.7962C80.0545-62.7962 97.459-45.4497 97.459-24.0505C97.459-2.65126 80.0545 14.6953 58.5796 14.6953C51.0737 14.7071 43.7264 12.5417 37.4339 8.4631C47.7646 14.3334 60.8915 11.2284 67.4745 1.35739C74.0575-8.51362 71.8485-21.7798 62.4193-29.0019C52.9901-36.224 39.5607-34.9358 31.6864-26.0538C23.8121-17.1718 24.182-3.72923 32.5328 4.70923C24.3576-2.62936 19.6952-13.0844 19.7075-24.0505C19.7075-45.4482 37.1121-62.7962 58.5796-62.7962ZM46.2045-87.7C30.6648-82.9071 16.4117-71.8254 11.33-56.2946C11.33-76.0165 27.9349-87.7 46.2045-87.7Z"/>
  </g>
  <g id="Bold-M" transform="matrix(1 0 0 1 2277.08 1126)">
   <path d="M62.9388-82.265C91.3874-82.265 114.45-59.2788 114.45-30.9212C114.45-2.56366 91.3846 20.424 62.9388 20.424C62.1889 20.424 61.4447 20.4039 60.7034 20.3724C84.832 19.0421 103.988-0.88108 103.988-25.2649C103.988-50.505 83.4557-70.9752 58.1289-70.9752C32.8022-70.9752 12.2696-50.5093 12.2696-25.2649C12.2701-23.5833 12.3631-21.9029 12.5483-20.2315C11.8016-23.746 11.4263-27.3287 11.4263-30.9212C11.4263-59.2773 34.4931-82.265 62.9388-82.265ZM57.7425-62.3174C78.8368-62.3174 95.933-45.2783 95.933-24.2582C95.933-3.23812 78.8368 13.8011 57.7425 13.8011C50.3695 13.8127 43.1524 11.6857 36.9714 7.67931C47.119 13.4456 60.0134 10.3956 66.4798 0.699501C72.9461-8.99662 70.7763-22.0277 61.5142-29.1219C52.252-36.216 39.0605-34.9506 31.3257-26.226C23.591-17.5014 23.9543-4.29699 32.1571 3.99196C24.1267-3.21662 19.547-13.4864 19.5591-24.2582C19.5591-45.2768 36.6553-62.3174 57.7425-62.3174ZM45.5866-86.78C30.3222-82.072 16.3216-71.1866 11.33-55.9311C11.33-75.3035 27.6407-86.78 45.5866-86.78Z"/>
  </g>
  <g id="Semibold-M" transform="matrix(1 0 0 1 1981.01 1126)">
   <path d="M62.2982-81.681C90.3937-81.681 113.17-58.9801 113.17-30.9746C113.17-2.96901 90.3909 19.7333 62.2982 19.7333C61.5576 19.7333 60.8227 19.7135 60.0906 19.6824C83.9196 18.3686 102.838-1.30732 102.838-25.3885C102.838-50.3153 82.5604-70.5314 57.548-70.5314C32.5357-70.5314 12.2579-50.3195 12.2579-25.3885C12.2584-23.7277 12.3503-22.0682 12.5332-20.4175C11.7958-23.8884 11.4251-27.4267 11.4251-30.9746C11.4251-58.9787 34.2056-81.681 62.2982-81.681ZM57.1664-61.9811C77.9989-61.9811 94.8828-45.1534 94.8828-24.3943C94.8828-3.63511 77.9989 13.1926 57.1664 13.1926C49.8849 13.2041 42.7574 11.1034 36.6531 7.14682C46.6748 12.8415 59.4091 9.82941 65.7952 0.253643C72.1813-9.32213 70.0384-22.1915 60.8912-29.1976C51.7441-36.2037 38.7163-34.954 31.0775-26.3376C23.4388-17.7213 23.7976-4.68083 31.8986 3.50523C23.9679-3.61387 19.445-13.7561 19.457-24.3943C19.457-45.152 36.3409-61.9811 57.1664-61.9811ZM45.1614-86.14C30.0865-81.4904 16.2597-70.7402 11.33-55.674C11.33-74.8059 27.4382-86.14 45.1614-86.14Z"/>
  </g>
  <g id="Medium-M" transform="matrix(1 0 0 1 1684.79 1126)">
   <path d="M61.8128-81.2435C89.6406-81.2435 112.2-58.7588 112.2-31.02C112.2-3.2812 89.6378 19.2049 61.8128 19.2049C61.0792 19.2049 60.3513 19.1852 59.6261 19.1544C83.2282 17.8531 101.967-1.63533 101.967-25.4871C101.967-50.1765 81.8819-70.2001 57.1078-70.2001C32.3337-70.2001 12.2491-50.1807 12.2491-25.4871C12.2496-23.8422 12.3406-22.1985 12.5217-20.5635C11.7913-24.0014 11.4242-27.5059 11.4242-31.02C11.4242-58.7574 33.9877-81.2435 61.8128-81.2435ZM56.7298-61.7312C77.3639-61.7312 94.087-45.0638 94.087-24.5024C94.087-3.94094 77.3639 12.7265 56.7298 12.7265C49.5177 12.7378 42.4581 10.6572 36.4119 6.73828C46.3382 12.3788 58.9512 9.39533 65.2764-0.0892348C71.6017-9.5738 69.4792-22.3206 60.4192-29.2599C51.3591-36.1993 38.4555-34.9615 30.8895-26.4272C23.3234-17.893 23.6788-4.97671 31.7027 3.13138C23.8475-3.91991 19.3677-13.9656 19.3796-24.5024C19.3796-45.0624 36.1027-61.7312 56.7298-61.7312ZM44.8391-85.66C29.9078-81.0547 16.2127-70.4069 11.33-55.4842C11.33-74.4339 27.2848-85.66 44.8391-85.66Z"/>
  </g>
  <g id="Regular-M" transform="matrix(1 0 0 1 1388.71 1126)">
   <path d="M61.1772-80.6674C88.6547-80.6674 110.93-58.4574 110.93-31.0574C110.93-3.6574 88.6519 18.554 61.1772 18.554C60.4528 18.554 59.7341 18.5346 59.0181 18.5042C82.323 17.2188 100.825-2.03163 100.825-25.5921C100.825-49.9799 80.9937-69.7589 56.5315-69.7589C32.0692-69.7589 12.2375-49.9841 12.2375-25.5921C12.238-23.9672 12.3279-22.3436 12.5067-20.7286C11.7855-24.1245 11.423-27.5862 11.423-31.0574C11.423-58.456 33.7025-80.6674 61.1772-80.6674ZM56.1582-61.3935C76.5325-61.3935 93.0451-44.9297 93.0451-24.6194C93.0451-4.30909 76.5325 12.1548 56.1582 12.1548C49.0369 12.166 42.0662 10.1108 36.0961 6.2397C45.8974 11.8113 58.3516 8.86429 64.5972-0.504422C70.8428-9.87314 68.7471-22.4642 59.8011-29.3188C50.8551-36.1734 38.1139-34.9507 30.6432-26.5207C23.1724-18.0907 23.5233-5.3322 31.4462 2.67686C23.6899-4.2883 19.2665-14.2113 19.2782-24.6194C19.2782-44.9283 35.7908-61.3935 56.1582-61.3935ZM44.4172-85.03C29.6739-80.481 16.1512-69.9632 11.33-55.2227C11.33-73.941 27.0839-85.03 44.4172-85.03Z"/>
  </g>
  <g id="Light-M" transform="matrix(1 0 0 1 1092.83 1126)">
   <path d="M60.3464-79.9201C87.3659-79.9201 109.27-58.0803 109.27-31.1369C109.27-4.19361 87.3632 17.6476 60.3464 17.6476C59.6341 17.6476 58.9273 17.6286 58.2233 17.5986C81.1398 16.3347 99.3338-2.59494 99.3338-25.7627C99.3338-49.7441 79.8326-69.1934 55.7781-69.1934C31.7236-69.1934 12.2224-49.7482 12.2224-25.7627C12.2229-24.1649 12.3113-22.5684 12.4871-20.9803C11.7779-24.3196 11.4214-27.7236 11.4214-31.1369C11.4214-58.0789 33.3296-79.9201 60.3464-79.9201ZM55.4111-60.9674C75.4458-60.9674 91.6832-44.778 91.6832-24.8062C91.6832-4.83443 75.4458 11.355 55.4111 11.355C48.4084 11.3661 41.5539 9.34509 35.6833 5.53854C45.3213 11.0173 57.5679 8.11939 63.7094-1.09318C69.851-10.3058 67.7901-22.687 58.9933-29.4273C50.1964-36.1677 37.6675-34.9654 30.3213-26.6759C22.9751-18.3864 23.3201-5.8405 31.1109 2.03508C23.4839-4.814 19.1342-14.5716 19.1457-24.8062C19.1457-44.7766 35.3831-60.9674 55.4111-60.9674ZM43.8658-84.21C29.3682-79.7368 16.0709-69.3943 11.33-54.8995C11.33-73.3058 26.8214-84.21 43.8658-84.21Z"/>
  </g>
  <g id="Thin-M" transform="matrix(1 0 0 1 797.217 1126)">
   <path d="M59.2454-78.9365C85.6579-78.9365 107.07-57.5872 107.07-31.2491C107.07-4.91099 85.6553 16.4396 59.2454 16.4396C58.5491 16.4396 57.8582 16.421 57.1699 16.3917C79.5717 15.1561 97.357-3.34824 97.357-25.9956C97.357-49.4383 78.2938-68.4507 54.7797-68.4507C31.2655-68.4507 12.2023-49.4423 12.2023-25.9956C12.2028-24.4337 12.2892-22.873 12.4611-21.3206C11.7679-24.5849 11.4194-27.9125 11.4194-31.2491C11.4194-57.5859 32.8354-78.9365 59.2454-78.9365ZM54.4209-60.4095C74.0056-60.4095 89.8782-44.5838 89.8782-25.0606C89.8782-5.53743 74.0056 10.2884 54.4209 10.2884C47.5755 10.2992 40.875 8.32359 35.1363 4.60254C44.5577 9.9582 56.5293 7.12542 62.5328-1.88021C68.5364-10.8858 66.5219-22.989 57.9226-29.5779C49.3233-36.1669 37.0759-34.9916 29.8947-26.8883C22.7135-18.785 23.0508-6.52089 30.6666 1.17778C23.2109-5.51745 18.9589-15.0559 18.9702-25.0606C18.9702-44.5824 34.8428-60.4095 54.4209-60.4095ZM43.1349-83.13C28.963-78.7573 15.9644-68.6471 11.33-54.4779C11.33-72.4708 26.4734-83.13 43.1349-83.13Z"/>
  </g>
  <g id="Ultralight-M" transform="matrix(1 0 0 1 501.066 1126)">
   <path d="M58.6848-78.4255C84.7884-78.4255 105.95-57.326 105.95-31.296C105.95-5.26603 84.7858 15.8348 58.6848 15.8348C57.9967 15.8348 57.3139 15.8164 56.6337 15.7875C78.7733 14.5664 96.3506-3.72155 96.3506-26.104C96.3506-49.2724 77.5105-68.0624 54.2714-68.0624C31.0323-68.0624 12.1921-49.2764 12.1921-26.104C12.1926-24.5604 12.278-23.018 12.4479-21.4837C11.7627-24.7098 11.4183-27.9984 11.4183-31.296C11.4183-57.3247 32.5838-78.4255 58.6848-78.4255ZM53.9168-60.1153C73.2724-60.1153 88.9593-44.4747 88.9593-25.1799C88.9593-5.88513 73.2724 9.75552 53.9168 9.75552C47.1515 9.76619 40.5293 7.81373 34.8578 4.13622C44.169 9.42922 56.0005 6.62958 61.9339-2.2707C67.8672-11.171 65.8762-23.1325 57.3776-29.6444C48.8789-36.1563 36.7747-34.9947 29.6775-26.9862C22.5803-18.9777 22.9137-6.85709 30.4404 0.751515C23.0719-5.86539 18.8697-15.2922 18.8808-25.1799C18.8808-44.4734 34.5678-60.1153 53.9168-60.1153ZM42.7629-82.57C28.7567-78.2484 15.9102-68.2565 11.33-54.2531C11.33-72.0355 26.2962-82.57 42.7629-82.57Z"/>
  </g>
  <g id="Black-S" transform="matrix(1 0 0 1 2880.07 696)">
   <path d="M53.3598-73.5216C76.528-73.5216 95.31-54.7947 95.31-31.6918C95.31-8.58884 76.5257 10.1392 53.3598 10.1392C52.749 10.1392 52.143 10.1229 51.5393 10.0972C71.1894 9.01339 86.7901-7.21804 86.7901-27.0836C86.7901-47.6467 70.0685-64.3238 49.4426-64.3238C28.8168-64.3238 12.0952-47.6502 12.0952-27.0836C12.0956-25.7135 12.1714-24.3446 12.3222-22.9828C11.7141-25.8461 11.4084-28.765 11.4084-31.6918C11.4084-54.7935 30.1939-73.5216 53.3598-73.5216ZM49.1279-57.2703C66.307-57.2703 80.2299-43.3885 80.2299-26.2634C80.2299-9.13833 66.307 4.74354 49.1279 4.74354C43.1234 4.753 37.2459 3.0201 32.2121-0.24388C40.4763 4.45393 50.9773 1.9691 56.2435-5.93034C61.5096-13.8298 59.7425-24.4463 52.1995-30.2259C44.6565-36.0055 33.9135-34.9745 27.6144-27.8666C21.3152-20.7586 21.6111-10.001 28.2914-3.24797C21.7516-9.12081 18.0219-17.4876 18.0317-26.2634C18.0317-43.3873 31.9547-57.2703 49.1279-57.2703ZM39.2282-77.2C26.7971-73.3644 15.3951-64.4961 11.33-52.0673C11.33-67.8501 24.6133-77.2 39.2282-77.2Z"/>
  </g>
  <g id="Heavy-S" transform="matrix(1 0 0 1 2583.97 696)">
   <path d="M52.7542-72.9746C75.5887-72.9746 94.1-54.5175 94.1-31.7475C94.1-8.97741 75.5864 9.4808 52.7542 9.4808C52.1523 9.4808 51.5549 9.4647 50.9599 9.43941C70.3269 8.37122 85.7028-7.62636 85.7028-27.2056C85.7028-47.4725 69.2222-63.9093 48.8935-63.9093C28.5648-63.9093 12.0842-47.476 12.0842-27.2056C12.0846-25.8554 12.1593-24.5061 12.3079-23.164C11.7085-25.986 11.4073-28.8628 11.4073-31.7475C11.4073-54.5164 29.9221-72.9746 52.7542-72.9746ZM48.5833-56.9575C65.5148-56.9575 79.2372-43.2757 79.2372-26.3973C79.2372-9.51897 65.5148 4.16288 48.5833 4.16288C42.6653 4.17221 36.8725 2.46427 31.9112-0.752678C40.0563 3.87744 50.4061 1.42842 55.5963-6.35721C60.7866-14.1428 59.045-24.6063 51.6107-30.3027C44.1763-35.999 33.5881-34.9829 27.3797-27.9774C21.1713-20.9719 21.463-10.3692 28.0471-3.71349C21.6014-9.50171 17.9254-17.7479 17.9352-26.3973C17.9352-43.2745 31.6575-56.9575 48.5833-56.9575ZM38.8263-76.6C26.5742-72.8197 15.3366-64.0791 11.33-51.8294C11.33-67.3848 24.4219-76.6 38.8263-76.6Z"/>
  </g>
  <g id="Bold-S" transform="matrix(1 0 0 1 2287.93 696)">
   <path d="M52.0786-72.3637C74.5406-72.3637 92.75-54.2077 92.75-31.809C92.75-9.41035 74.5383 8.7468 52.0786 8.7468C51.4864 8.7468 50.8989 8.73096 50.3135 8.70608C69.3646 7.65531 84.4898-8.08133 84.4898-27.3413C84.4898-47.2776 68.2779-63.4463 48.2808-63.4463C28.2837-63.4463 12.0719-47.281 12.0719-27.3413C12.0723-26.013 12.1457-24.6858 12.2919-23.3656C11.7024-26.1416 11.406-28.9714 11.406-31.809C11.406-54.2066 29.6188-72.3637 52.0786-72.3637ZM47.9757-56.6078C64.6311-56.6078 78.1296-43.1492 78.1296-26.5461C78.1296-9.94308 64.6311 3.51562 47.9757 3.51562C42.1542 3.52479 36.4559 1.84471 31.5755-1.31977C39.5878 3.23483 49.7687 0.825755 54.8743-6.83289C59.98-14.4915 58.2667-24.7844 50.9537-30.3878C43.6406-35.9912 33.2251-34.9917 27.1179-28.1004C21.0108-21.2092 21.2977-10.7794 27.7744-4.23229C21.4339-9.9261 17.8179-18.0378 17.8274-26.5461C17.8274-43.1481 31.326-56.6078 47.9757-56.6078ZM38.3778-75.93C26.3256-72.2113 15.2712-63.6133 11.33-51.5635C11.33-66.8651 24.2084-75.93 38.3778-75.93Z"/>
  </g>
  <g id="Semibold-S" transform="matrix(1 0 0 1 1991.69 696)">
   <path d="M51.6131-71.9445C73.8186-71.9445 91.82-53.9958 91.82-31.853C91.82-9.71015 73.8163 8.2396 51.6131 8.2396C51.0278 8.2396 50.4469 8.22395 49.8683 8.19935C68.7017 7.16058 83.6542-8.39632 83.6542-27.4363C83.6542-47.1449 67.6275-63.1289 47.8588-63.1289C28.0901-63.1289 12.0634-47.1482 12.0634-27.4363C12.0638-26.1232 12.1364-24.8111 12.2809-23.506C11.6981-26.2503 11.4051-29.0478 11.4051-31.853C11.4051-53.9947 29.4099-71.9445 51.6131-71.9445ZM47.5571-56.3685C64.0223-56.3685 77.3666-43.0636 77.3666-26.6502C77.3666-10.2368 64.0223 3.06817 47.5571 3.06817C41.8022 3.07724 36.1689 1.41635 31.3443-1.71198C39.265 2.79059 49.3297 0.409031 54.377-7.16213C59.4243-14.7333 57.7306-24.9086 50.5011-30.448C43.2716-35.9874 32.975-34.9993 26.9376-28.1868C20.9003-21.3742 21.1838-11.0636 27.5866-4.59124C21.3185-10.22 17.7438-18.2391 17.7532-26.6502C17.7532-43.0625 31.0976-56.3685 47.5571-56.3685ZM38.0689-75.47C26.1543-71.7938 15.2262-63.294 11.33-51.3818C11.33-66.5086 24.0613-75.47 38.0689-75.47Z"/>
  </g>
  <g id="Medium-S" transform="matrix(1 0 0 1 1695.33 696)">
   <path d="M51.2578-71.6256C73.2674-71.6256 91.11-53.8352 91.11-31.8877C91.11-9.94022 73.2651 7.8512 51.2578 7.8512C50.6776 7.8512 50.1018 7.83568 49.5283 7.8113C68.1957 6.7817 83.0162-8.63797 83.0162-27.51C83.0162-47.0447 67.1309-62.8878 47.5365-62.8878C27.9422-62.8878 12.0569-47.0481 12.0569-27.51C12.0573-26.2085 12.1293-24.908 12.2725-23.6143C11.6949-26.3344 11.4045-29.1073 11.4045-31.8877C11.4045-53.8341 29.2504-71.6256 51.2578-71.6256ZM47.2376-56.187C63.5575-56.187 76.7841-42.9995 76.7841-26.7308C76.7841-10.4622 63.5575 2.72538 47.2376 2.72538C41.5334 2.73437 35.9498 1.08814 31.1677-2.0126C39.0186 2.45026 48.9945 0.0897046 53.9973-7.41467C59-14.9191 57.3213-25.0046 50.1556-30.4951C42.9898-35.9857 32.784-35.0063 26.7999-28.2538C20.8158-21.5014 21.0969-11.2817 27.4432-4.86645C21.2304-10.4456 17.6872-18.3939 17.6966-26.7308C17.6966-42.9984 30.9232-56.187 47.2376-56.187ZM37.833-75.12C26.0235-71.4762 15.1918-63.0514 11.33-51.2443C11.33-66.2377 23.949-75.12 37.833-75.12Z"/>
  </g>
  <g id="Regular-S" transform="matrix(1 0 0 1 1399.08 696)">
   <path d="M50.7974-71.2059C72.5531-71.2059 90.19-53.6207 90.19-31.9263C90.19-10.2319 72.5509 7.3544 50.7974 7.3544C50.2239 7.3544 49.6547 7.33906 49.0878 7.31496C67.5399 6.29723 82.1895-8.94463 82.1895-27.599C82.1895-46.9085 66.4874-62.5688 47.119-62.5688C27.7507-62.5688 12.0485-46.9118 12.0485-27.599C12.0489-26.3125 12.1201-25.027 12.2617-23.7483C11.6907-26.437 11.4036-29.1779 11.4036-31.9263C11.4036-53.6196 29.0438-71.2059 50.7974-71.2059ZM46.8235-55.9454C62.9552-55.9454 76.0293-42.9099 76.0293-26.8289C76.0293-10.7478 62.9552 2.28769 46.8235 2.28769C41.1851 2.29658 35.6659 0.669328 30.939-2.39566C38.6993 2.01574 48.5601-0.317592 53.5052-7.73543C58.4503-15.1533 56.791-25.1225 49.7078-30.5497C42.6247-35.977 32.5366-35.0089 26.6215-28.3343C20.7064-21.6597 20.9843-11.5579 27.2574-5.2166C21.1162-10.7314 17.6139-18.5881 17.6231-26.8289C17.6231-42.9088 30.6973-55.9454 46.8235-55.9454ZM37.5274-74.66C25.8541-71.0582 15.1473-62.7306 11.33-51.0596C11.33-65.8801 23.8035-74.66 37.5274-74.66Z"/>
  </g>
  <g id="Light-S" transform="matrix(1 0 0 1 1103.1 696)">
   <path d="M50.0617-70.5402C71.4119-70.5402 88.72-53.2829 88.72-31.9929C88.72-10.7028 71.4097 6.5556 50.0617 6.5556C49.4988 6.5556 48.9403 6.54055 48.384 6.5169C66.4921 5.51814 80.8687-9.4396 80.8687-27.7462C80.8687-46.6958 65.4592-62.0642 46.4519-62.0642C27.4446-62.0642 12.0351-46.699 12.0351-27.7462C12.0355-26.4837 12.1054-25.2222 12.2443-23.9673C11.6839-26.6059 11.4022-29.2957 11.4022-31.9929C11.4022-53.2818 28.7136-70.5402 50.0617-70.5402ZM46.1619-55.5642C61.9929-55.5642 74.8233-42.7717 74.8233-26.9905C74.8233-11.2092 61.9929 1.58334 46.1619 1.58334C40.6285 1.59206 35.2122-0.0048583 30.5735-3.01271C38.1891 1.31646 47.8661-0.973381 52.7191-8.25295C57.572-15.5325 55.9435-25.3159 48.9924-30.642C42.0414-35.968 32.1413-35.018 26.3365-28.4678C20.5317-21.9177 20.8043-12.0042 26.9605-5.78107C20.9338-11.1931 17.4967-18.9033 17.5058-26.9905C17.5058-42.7706 30.3363-55.5642 46.1619-55.5642ZM37.039-73.93C25.5834-70.3954 15.0761-62.223 11.33-50.7695C11.33-65.3138 23.5709-73.93 37.039-73.93Z"/>
  </g>
  <g id="Thin-S" transform="matrix(1 0 0 1 807.362 696)">
   <path d="M49.0907-69.6652C69.9058-69.6652 86.78-52.8405 86.78-32.0841C86.78-11.3278 69.9037 5.498 49.0907 5.498C48.542 5.498 47.9975 5.48333 47.4551 5.46027C65.1093 4.48654 79.1255-10.0962 79.1255-27.944C79.1255-46.4185 64.1023-61.4017 45.5715-61.4017C27.0406-61.4017 12.0175-46.4216 12.0175-27.944C12.0178-26.7131 12.0859-25.4832 12.2214-24.2598C11.6751-26.8322 11.4004-29.4546 11.4004-32.0841C11.4004-52.8394 28.2778-69.6652 49.0907-69.6652ZM45.2887-55.0646C60.7229-55.0646 73.2316-42.5928 73.2316-27.2071C73.2316-11.8215 60.7229 0.650384 45.2887 0.650384C39.8941 0.658886 34.6136-0.898002 30.0911-3.83045C37.5158 0.390191 46.9503-1.84225 51.6815-8.93933C56.4128-16.0364 54.8252-25.5745 48.0483-30.7671C41.2715-35.9597 31.6196-35.0334 25.9603-28.6475C20.301-22.2615 20.5668-12.5965 26.5686-6.52941C20.693-11.8057 17.3422-19.3227 17.351-27.2071C17.351-42.5917 29.8598-55.0646 45.2887-55.0646ZM36.3946-72.97C25.2261-69.524 14.9822-61.5564 11.33-50.3901C11.33-64.5698 23.2641-72.97 36.3946-72.97Z"/>
  </g>
  <g id="Ultralight-S" transform="matrix(1 0 0 1 511.151 696)">
   <path d="M48.5903-69.219C69.1294-69.219 85.78-52.6173 85.78-32.136C85.78-11.6548 69.1273 4.948 48.5903 4.948C48.0488 4.948 47.5116 4.93352 46.9763 4.91077C64.3966 3.94995 78.2269-10.4396 78.2269-28.0507C78.2269-46.2804 63.4029-61.065 45.1176-61.065C26.8324-61.065 12.0083-46.2835 12.0083-28.0507C12.0087-26.8362 12.0759-25.6226 12.2096-24.4154C11.6705-26.9537 11.3995-29.5414 11.3995-32.136C11.3995-52.6162 28.0532-69.219 48.5903-69.219ZM44.8386-54.8119C60.0682-54.8119 72.4112-42.5054 72.4112-27.3237C72.4112-12.1419 60.0682 0.164634 44.8386 0.164634C39.5155 0.173023 34.305-1.36323 29.8424-4.25681C37.1688-0.0921108 46.4782-2.29496 51.1467-9.29798C55.8153-16.301 54.2487-25.7127 47.5617-30.8365C40.8747-35.9602 31.3507-35.0463 25.7664-28.7449C20.1821-22.4436 20.4444-12.9067 26.3667-6.92C20.5689-12.1264 17.2625-19.5437 17.2712-27.3237C17.2712-42.5044 29.6142-54.8119 44.8386-54.8119ZM36.0624-72.48C25.0419-69.0797 14.9338-61.2177 11.33-50.1994C11.33-64.1911 23.1059-72.48 36.0624-72.48Z"/>
  </g>
 </g>
</svg>
