<?xml version="1.0" encoding="UTF-8"?>
<!--Generator: Apple Native CoreSVG 149-->
<!DOCTYPE svg
PUBLIC "-//W3C//DTD SVG 1.1//EN"
       "http://www.w3.org/Graphics/SVG/1.1/DTD/svg11.dtd">
<svg version="1.1" xmlns="http://www.w3.org/2000/svg" xmlns:xlink="http://www.w3.org/1999/xlink" width="3300" height="2200">
 <!--glyph: "", point size: 100.0, font version: "17.0d8e1", template writer version: "58"-->
 <g id="Notes">
  <rect height="2200" id="artboard" style="fill:white;opacity:1" width="3300" x="0" y="0"/>
  <line style="fill:none;stroke:black;opacity:1;stroke-width:0.5;" x1="263" x2="3036" y1="292" y2="292"/>
  <text style="stroke:none;fill:black;font-family:SF Pro,SF Pro Display,SF Pro Text,sans-serif;font-size:13;font-weight:bold;" transform="matrix(1 0 0 1 263 322)">Weight/Scale Variations</text>
  <text style="stroke:none;fill:black;font-family:SF Pro,SF Pro Display,SF Pro Text,sans-serif;font-size:13;text-anchor:middle;" transform="matrix(1 0 0 1 559.711 322)">Ultralight</text>
  <text style="stroke:none;fill:black;font-family:SF Pro,SF Pro Display,SF Pro Text,sans-serif;font-size:13;text-anchor:middle;" transform="matrix(1 0 0 1 856.422 322)">Thin</text>
  <text style="stroke:none;fill:black;font-family:SF Pro,SF Pro Display,SF Pro Text,sans-serif;font-size:13;text-anchor:middle;" transform="matrix(1 0 0 1 1153.13 322)">Light</text>
  <text style="stroke:none;fill:black;font-family:SF Pro,SF Pro Display,SF Pro Text,sans-serif;font-size:13;text-anchor:middle;" transform="matrix(1 0 0 1 1449.84 322)">Regular</text>
  <text style="stroke:none;fill:black;font-family:SF Pro,SF Pro Display,SF Pro Text,sans-serif;font-size:13;text-anchor:middle;" transform="matrix(1 0 0 1 1746.56 322)">Medium</text>
  <text style="stroke:none;fill:black;font-family:SF Pro,SF Pro Display,SF Pro Text,sans-serif;font-size:13;text-anchor:middle;" transform="matrix(1 0 0 1 2043.27 322)">Semibold</text>
  <text style="stroke:none;fill:black;font-family:SF Pro,SF Pro Display,SF Pro Text,sans-serif;font-size:13;text-anchor:middle;" transform="matrix(1 0 0 1 2339.98 322)">Bold</text>
  <text style="stroke:none;fill:black;font-family:SF Pro,SF Pro Display,SF Pro Text,sans-serif;font-size:13;text-anchor:middle;" transform="matrix(1 0 0 1 2636.69 322)">Heavy</text>
  <text style="stroke:none;fill:black;font-family:SF Pro,SF Pro Display,SF Pro Text,sans-serif;font-size:13;text-anchor:middle;" transform="matrix(1 0 0 1 2933.4 322)">Black</text>
  <line style="fill:none;stroke:black;opacity:1;stroke-width:0.5;" x1="263" x2="3036" y1="1903" y2="1903"/>
  <g transform="matrix(1 0 0 1 263 1933)">
   <path d="M9.24805 0.830078Q10.8691 0.830078 12.2949 0.214844Q13.7207-0.400391 14.8096-1.49414Q15.8984-2.58789 16.5186-4.01367Q17.1387-5.43945 17.1387-7.05078Q17.1387-8.66211 16.5186-10.0879Q15.8984-11.5137 14.8047-12.6074Q13.7109-13.7012 12.2852-14.3164Q10.8594-14.9316 9.23828-14.9316Q7.62695-14.9316 6.20117-14.3164Q4.77539-13.7012 3.69141-12.6074Q2.60742-11.5137 1.9873-10.0879Q1.36719-8.66211 1.36719-7.05078Q1.36719-5.43945 1.9873-4.01367Q2.60742-2.58789 3.69629-1.49414Q4.78516-0.400391 6.21094 0.214844Q7.63672 0.830078 9.24805 0.830078ZM9.24805-0.654297Q7.91992-0.654297 6.7627-1.14746Q5.60547-1.64062 4.73145-2.51953Q3.85742-3.39844 3.36426-4.56055Q2.87109-5.72266 2.87109-7.05078Q2.87109-8.37891 3.35938-9.54102Q3.84766-10.7031 4.72168-11.582Q5.5957-12.4609 6.75293-12.9541Q7.91016-13.4473 9.23828-13.4473Q10.5762-13.4473 11.7334-12.9541Q12.8906-12.4609 13.7695-11.582Q14.6484-10.7031 15.1465-9.54102Q15.6445-8.37891 15.6445-7.05078Q15.6445-5.72266 15.1514-4.56055Q14.6582-3.39844 13.7842-2.51953Q12.9102-1.64062 11.748-1.14746Q10.5859-0.654297 9.24805-0.654297ZM5.83984-7.04102Q5.83984-6.71875 6.04492-6.51855Q6.25-6.31836 6.5918-6.31836L8.50586-6.31836L8.50586-4.39453Q8.50586-4.0625 8.70605-3.85742Q8.90625-3.65234 9.22852-3.65234Q9.56055-3.65234 9.76562-3.85742Q9.9707-4.0625 9.9707-4.39453L9.9707-6.31836L11.8945-6.31836Q12.2266-6.31836 12.4316-6.51855Q12.6367-6.71875 12.6367-7.04102Q12.6367-7.37305 12.4316-7.57812Q12.2266-7.7832 11.8945-7.7832L9.9707-7.7832L9.9707-9.69727Q9.9707-10.0391 9.76562-10.2441Q9.56055-10.4492 9.22852-10.4492Q8.90625-10.4492 8.70605-10.2441Q8.50586-10.0391 8.50586-9.69727L8.50586-7.7832L6.5918-7.7832Q6.25-7.7832 6.04492-7.57812Q5.83984-7.37305 5.83984-7.04102Z"/>
  </g>
  <g transform="matrix(1 0 0 1 281.867 1933)">
   <path d="M11.709 2.91016Q13.75 2.91016 15.5518 2.12891Q17.3535 1.34766 18.7305-0.0292969Q20.1074-1.40625 20.8887-3.20801Q21.6699-5.00977 21.6699-7.05078Q21.6699-9.0918 20.8887-10.8936Q20.1074-12.6953 18.7305-14.0723Q17.3535-15.4492 15.5469-16.2305Q13.7402-17.0117 11.6992-17.0117Q9.6582-17.0117 7.85645-16.2305Q6.05469-15.4492 4.68262-14.0723Q3.31055-12.6953 2.5293-10.8936Q1.74805-9.0918 1.74805-7.05078Q1.74805-5.00977 2.5293-3.20801Q3.31055-1.40625 4.6875-0.0292969Q6.06445 1.34766 7.86621 2.12891Q9.66797 2.91016 11.709 2.91016ZM11.709 1.25Q9.98047 1.25 8.47656 0.605469Q6.97266-0.0390625 5.83496-1.17676Q4.69727-2.31445 4.05762-3.81836Q3.41797-5.32227 3.41797-7.05078Q3.41797-8.7793 4.05762-10.2832Q4.69727-11.7871 5.83008-12.9297Q6.96289-14.0723 8.4668-14.7119Q9.9707-15.3516 11.6992-15.3516Q13.4277-15.3516 14.9316-14.7119Q16.4355-14.0723 17.5781-12.9297Q18.7207-11.7871 19.3652-10.2832Q20.0098-8.7793 20.0098-7.05078Q20.0098-5.32227 19.3701-3.81836Q18.7305-2.31445 17.5928-1.17676Q16.4551-0.0390625 14.9463 0.605469Q13.4375 1.25 11.709 1.25ZM7.39258-7.04102Q7.39258-6.68945 7.62695-6.46484Q7.86133-6.24023 8.23242-6.24023L10.8789-6.24023L10.8789-3.57422Q10.8789-3.21289 11.1035-2.9834Q11.3281-2.75391 11.6797-2.75391Q12.0508-2.75391 12.2852-2.9834Q12.5195-3.21289 12.5195-3.57422L12.5195-6.24023L15.1758-6.24023Q15.5371-6.24023 15.7715-6.46484Q16.0059-6.68945 16.0059-7.04102Q16.0059-7.41211 15.7715-7.6416Q15.5371-7.87109 15.1758-7.87109L12.5195-7.87109L12.5195-10.5176Q12.5195-10.8984 12.2852-11.1279Q12.0508-11.3574 11.6797-11.3574Q11.3281-11.3574 11.1035-11.1279Q10.8789-10.8984 10.8789-10.5176L10.8789-7.87109L8.23242-7.87109Q7.85156-7.87109 7.62207-7.6416Q7.39258-7.41211 7.39258-7.04102Z"/>
  </g>
  <g transform="matrix(1 0 0 1 305.646 1933)">
   <path d="M14.9707 5.66406Q17.0605 5.66406 18.96 5.01465Q20.8594 4.36523 22.4512 3.19336Q24.043 2.02148 25.2197 0.429688Q26.3965-1.16211 27.0459-3.06641Q27.6953-4.9707 27.6953-7.05078Q27.6953-9.14062 27.0459-11.04Q26.3965-12.9395 25.2197-14.5312Q24.043-16.123 22.4512-17.2998Q20.8594-18.4766 18.9551-19.126Q17.0508-19.7754 14.9609-19.7754Q12.8711-19.7754 10.9717-19.126Q9.07227-18.4766 7.48535-17.2998Q5.89844-16.123 4.72168-14.5312Q3.54492-12.9395 2.90039-11.04Q2.25586-9.14062 2.25586-7.05078Q2.25586-4.9707 2.90527-3.06641Q3.55469-1.16211 4.72656 0.429688Q5.89844 2.02148 7.49023 3.19336Q9.08203 4.36523 10.9814 5.01465Q12.8809 5.66406 14.9707 5.66406ZM14.9707 3.84766Q13.1641 3.84766 11.5283 3.2959Q9.89258 2.74414 8.53516 1.74805Q7.17773 0.751953 6.17676-0.610352Q5.17578-1.97266 4.62891-3.6084Q4.08203-5.24414 4.08203-7.05078Q4.08203-8.86719 4.62891-10.5029Q5.17578-12.1387 6.17188-13.501Q7.16797-14.8633 8.52539-15.8594Q9.88281-16.8555 11.5186-17.4023Q13.1543-17.9492 14.9609-17.9492Q16.7773-17.9492 18.4131-17.4023Q20.0488-16.8555 21.4111-15.8594Q22.7734-14.8633 23.7695-13.501Q24.7656-12.1387 25.3174-10.5029Q25.8691-8.86719 25.8691-7.05078Q25.8789-5.24414 25.332-3.6084Q24.7852-1.97266 23.7842-0.610352Q22.7832 0.751953 21.4209 1.74805Q20.0586 2.74414 18.4229 3.2959Q16.7871 3.84766 14.9707 3.84766ZM9.45312-7.04102Q9.45312-6.66016 9.71191-6.41113Q9.9707-6.16211 10.3711-6.16211L14.0625-6.16211L14.0625-2.46094Q14.0625-2.06055 14.3115-1.80664Q14.5605-1.55273 14.9414-1.55273Q15.3516-1.55273 15.6055-1.80664Q15.8594-2.06055 15.8594-2.46094L15.8594-6.16211L19.5605-6.16211Q19.9609-6.16211 20.2148-6.41113Q20.4688-6.66016 20.4688-7.04102Q20.4688-7.45117 20.2148-7.70508Q19.9609-7.95898 19.5605-7.95898L15.8594-7.95898L15.8594-11.6504Q15.8594-12.0605 15.6055-12.3145Q15.3516-12.5684 14.9414-12.5684Q14.5605-12.5684 14.3115-12.3096Q14.0625-12.0508 14.0625-11.6504L14.0625-7.95898L10.3711-7.95898Q9.96094-7.95898 9.70703-7.70508Q9.45312-7.45117 9.45312-7.04102Z"/>
  </g>
  <text style="stroke:none;fill:black;font-family:SF Pro,SF Pro Display,SF Pro Text,sans-serif;font-size:13;font-weight:bold;" transform="matrix(1 0 0 1 263 1953)">Design Variations</text>
  <text style="stroke:none;fill:black;font-family:SF Pro,SF Pro Display,SF Pro Text,sans-serif;font-size:13;" transform="matrix(1 0 0 1 263 1971)">Symbols are supported in up to nine weights and three scales.</text>
  <text style="stroke:none;fill:black;font-family:SF Pro,SF Pro Display,SF Pro Text,sans-serif;font-size:13;" transform="matrix(1 0 0 1 263 1989)">For optimal layout with text and other symbols, vertically align</text>
  <text style="stroke:none;fill:black;font-family:SF Pro,SF Pro Display,SF Pro Text,sans-serif;font-size:13;" transform="matrix(1 0 0 1 263 2007)">symbols with the adjacent text.</text>
  <line style="fill:none;stroke:#00AEEF;stroke-width:0.5;opacity:1.0;" x1="776" x2="776" y1="1919" y2="1933"/>
  <g transform="matrix(1 0 0 1 776 1933)">
   <path d="M3.31055 0.15625Q3.70117 0.15625 3.91602-0.00976562Q4.13086-0.175781 4.26758-0.585938L5.52734-4.0332L11.2891-4.0332L12.5488-0.585938Q12.6855-0.175781 12.9004-0.00976562Q13.1152 0.15625 13.4961 0.15625Q13.8867 0.15625 14.1162-0.0585938Q14.3457-0.273438 14.3457-0.644531Q14.3457-0.869141 14.2383-1.17188L9.6582-13.3691Q9.48242-13.8184 9.17969-14.043Q8.87695-14.2676 8.4082-14.2676Q7.5-14.2676 7.17773-13.3789L2.59766-1.16211Q2.49023-0.859375 2.49023-0.634766Q2.49023-0.263672 2.70996-0.0537109Q2.92969 0.15625 3.31055 0.15625ZM6.00586-5.51758L8.37891-12.0898L8.42773-12.0898L10.8008-5.51758Z"/>
  </g>
  <line style="fill:none;stroke:#00AEEF;stroke-width:0.5;opacity:1.0;" x1="793.197" x2="793.197" y1="1919" y2="1933"/>
  <text style="stroke:none;fill:black;font-family:SF Pro,SF Pro Display,SF Pro Text,sans-serif;font-size:13;font-weight:bold;" transform="matrix(1 0 0 1 776 1953)">Margins</text>
  <text style="stroke:none;fill:black;font-family:SF Pro,SF Pro Display,SF Pro Text,sans-serif;font-size:13;" transform="matrix(1 0 0 1 776 1971)">Leading and trailing margins on the left and right side of each symbol</text>
  <text style="stroke:none;fill:black;font-family:SF Pro,SF Pro Display,SF Pro Text,sans-serif;font-size:13;" transform="matrix(1 0 0 1 776 1989)">can be adjusted by modifying the x-location of the margin guidelines.</text>
  <text style="stroke:none;fill:black;font-family:SF Pro,SF Pro Display,SF Pro Text,sans-serif;font-size:13;" transform="matrix(1 0 0 1 776 2007)">Modifications are automatically applied proportionally to all</text>
  <text style="stroke:none;fill:black;font-family:SF Pro,SF Pro Display,SF Pro Text,sans-serif;font-size:13;" transform="matrix(1 0 0 1 776 2025)">scales and weights.</text>
  <g transform="matrix(1 0 0 1 1289 1933)">
   <path d="M2.8418 1.86523L4.54102 3.57422Q5.18555 4.22852 5.90332 4.17969Q6.62109 4.13086 7.31445 3.35938L18.0078-8.42773L17.041-9.4043L6.42578 2.27539Q6.16211 2.57812 5.89355 2.61719Q5.625 2.65625 5.27344 2.30469L4.10156 1.14258Q3.75 0.791016 3.79395 0.522461Q3.83789 0.253906 4.14062-0.0195312L15.6152-10.8203L14.6387-11.7871L3.04688-0.898438Q2.30469-0.214844 2.25098 0.498047Q2.19727 1.21094 2.8418 1.86523ZM9.25781-16.3281Q8.94531-16.0254 8.90625-15.6348Q8.86719-15.2441 9.04297-14.9512Q9.21875-14.6777 9.55566-14.541Q9.89258-14.4043 10.3809-14.5215Q11.4746-14.7754 12.5977-14.7314Q13.7207-14.6875 14.7949-13.9844L14.209-12.5293Q13.9551-11.9043 14.0674-11.4404Q14.1797-10.9766 14.5801-10.5664L16.875-8.25195Q17.2363-7.88086 17.5781-7.82227Q17.9199-7.76367 18.3398-7.8418L19.4043-8.03711L20.0684-7.36328L20.0293-6.80664Q20-6.43555 20.1221-6.12305Q20.2441-5.81055 20.6055-5.44922L21.3672-4.70703Q21.7285-4.3457 22.1533-4.33105Q22.5781-4.31641 22.9297-4.66797L25.8398-7.58789Q26.1914-7.93945 26.1816-8.35449Q26.1719-8.76953 25.8105-9.13086L25.0391-9.89258Q24.6875-10.2539 24.3799-10.3857Q24.0723-10.5176 23.7109-10.4883L23.1348-10.4395L22.4902-11.0742L22.7344-12.1973Q22.832-12.6172 22.6953-12.9834Q22.5586-13.3496 22.1191-13.7891L19.9219-15.9766Q18.6719-17.2168 17.2607-17.8369Q15.8496-18.457 14.4189-18.4814Q12.9883-18.5059 11.665-17.959Q10.3418-17.4121 9.25781-16.3281ZM10.752-15.957Q11.6602-16.6211 12.7002-16.9043Q13.7402-17.1875 14.8047-17.085Q15.8691-16.9824 16.8701-16.5137Q17.8711-16.0449 18.7012-15.2051L21.1328-12.793Q21.3086-12.6172 21.3525-12.4512Q21.3965-12.2852 21.3379-12.0312L21.0156-10.5469L22.5195-9.0625L23.5059-9.12109Q23.6914-9.13086 23.7891-9.09668Q23.8867-9.0625 24.0332-8.91602L24.6094-8.33984L22.168-5.89844L21.5918-6.47461Q21.4453-6.62109 21.4062-6.71875Q21.3672-6.81641 21.377-7.01172L21.4453-7.98828L19.9512-9.47266L18.4277-9.21875Q18.1836-9.16992 18.042-9.2041Q17.9004-9.23828 17.7148-9.41406L15.7129-11.416Q15.5176-11.5918 15.4932-11.7529Q15.4688-11.9141 15.5859-12.1875L16.4648-14.2773Q15.293-15.3711 13.8281-15.791Q12.3633-16.2109 10.8398-15.7617Q10.7227-15.7324 10.6885-15.8057Q10.6543-15.8789 10.752-15.957Z"/>
  </g>
  <text style="stroke:none;fill:black;font-family:SF Pro,SF Pro Display,SF Pro Text,sans-serif;font-size:13;font-weight:bold;" transform="matrix(1 0 0 1 1289 1953)">Exporting</text>
  <text style="stroke:none;fill:black;font-family:SF Pro,SF Pro Display,SF Pro Text,sans-serif;font-size:13;" transform="matrix(1 0 0 1 1289 1971)">Symbols should be outlined when exporting to ensure the</text>
  <text style="stroke:none;fill:black;font-family:SF Pro,SF Pro Display,SF Pro Text,sans-serif;font-size:13;" transform="matrix(1 0 0 1 1289 1989)">design is preserved when submitting to Xcode.</text>
  <text id="template-version" style="stroke:none;fill:black;font-family:SF Pro,SF Pro Display,SF Pro Text,sans-serif;font-size:13;text-anchor:end;" transform="matrix(1 0 0 1 3036 1933)">Template v.3.0</text>
  <text style="stroke:none;fill:black;font-family:SF Pro,SF Pro Display,SF Pro Text,sans-serif;font-size:13;text-anchor:end;" transform="matrix(1 0 0 1 3036 1951)">Requires Xcode 13 or greater</text>
  <text id="descriptive-name" style="stroke:none;fill:black;font-family:SF Pro,SF Pro Display,SF Pro Text,sans-serif;font-size:13;text-anchor:end;" transform="matrix(1 0 0 1 3036 1969)">Generated from bubble.left.and.bubble.right.fill</text>
  <text style="stroke:none;fill:black;font-family:SF Pro,SF Pro Display,SF Pro Text,sans-serif;font-size:13;text-anchor:end;" transform="matrix(1 0 0 1 3036 1987)">Typeset at 100 points</text>
  <text style="stroke:none;fill:black;font-family:SF Pro,SF Pro Display,SF Pro Text,sans-serif;font-size:13;" transform="matrix(1 0 0 1 263 726)">Small</text>
  <text style="stroke:none;fill:black;font-family:SF Pro,SF Pro Display,SF Pro Text,sans-serif;font-size:13;" transform="matrix(1 0 0 1 263 1156)">Medium</text>
  <text style="stroke:none;fill:black;font-family:SF Pro,SF Pro Display,SF Pro Text,sans-serif;font-size:13;" transform="matrix(1 0 0 1 263 1586)">Large</text>
 </g>
 <g id="Guides">
  <g id="H-reference" style="fill:#27AAE1;stroke:none;" transform="matrix(1 0 0 1 339 696)">
   <path d="M0.993347 0L3.6377 0L29.3282-67.1326L30.0301-67.1326L30.0301-70.459L28.1227-70.459ZM11.6882-24.4797L46.9818-24.4797L46.2311-26.7288L12.4382-26.7288ZM55.1193 0L57.7637 0L30.6381-70.459L29.4327-70.459L29.4327-67.1326Z"/>
  </g>
  <line id="Baseline-S" style="fill:none;stroke:#27AAE1;opacity:1;stroke-width:0.5;" x1="263" x2="3036" y1="696" y2="696"/>
  <line id="Capline-S" style="fill:none;stroke:#27AAE1;opacity:1;stroke-width:0.5;" x1="263" x2="3036" y1="625.541" y2="625.541"/>
  <g id="H-reference" style="fill:#27AAE1;stroke:none;" transform="matrix(1 0 0 1 339 1126)">
   <path d="M0.993347 0L3.6377 0L29.3282-67.1326L30.0301-67.1326L30.0301-70.459L28.1227-70.459ZM11.6882-24.4797L46.9818-24.4797L46.2311-26.7288L12.4382-26.7288ZM55.1193 0L57.7637 0L30.6381-70.459L29.4327-70.459L29.4327-67.1326Z"/>
  </g>
  <line id="Baseline-M" style="fill:none;stroke:#27AAE1;opacity:1;stroke-width:0.5;" x1="263" x2="3036" y1="1126" y2="1126"/>
  <line id="Capline-M" style="fill:none;stroke:#27AAE1;opacity:1;stroke-width:0.5;" x1="263" x2="3036" y1="1055.54" y2="1055.54"/>
  <g id="H-reference" style="fill:#27AAE1;stroke:none;" transform="matrix(1 0 0 1 339 1556)">
   <path d="M0.993347 0L3.6377 0L29.3282-67.1326L30.0301-67.1326L30.0301-70.459L28.1227-70.459ZM11.6882-24.4797L46.9818-24.4797L46.2311-26.7288L12.4382-26.7288ZM55.1193 0L57.7637 0L30.6381-70.459L29.4327-70.459L29.4327-67.1326Z"/>
  </g>
  <line id="Baseline-L" style="fill:none;stroke:#27AAE1;opacity:1;stroke-width:0.5;" x1="263" x2="3036" y1="1556" y2="1556"/>
  <line id="Capline-L" style="fill:none;stroke:#27AAE1;opacity:1;stroke-width:0.5;" x1="263" x2="3036" y1="1485.54" y2="1485.54"/>
  <line id="left-margin-Regular-M" style="fill:none;stroke:#00AEEF;stroke-width:0.5;opacity:1.0;" x1="1368.15" x2="1368.15" y1="1030.78" y2="1150.12"/>
  <line id="right-margin-Regular-M" style="fill:none;stroke:#00AEEF;stroke-width:0.5;opacity:1.0;" x1="1531.54" x2="1531.54" y1="1030.78" y2="1150.12"/>
 </g>
 <g id="Symbols">
  <g id="Black-L" transform="matrix(1 0 0 1 2820.09 1556)">
   <path d="M146.042-75.1367C184.363-75.1367 214.676-50.0344 214.676-19.2125C214.676 0.55156 202.538 18.4727 183.981 27.6875C182.647 28.3865 182.456 29.2762 183.092 30.4837C184.532 33.1952 186.537 36.1044 188.43 38.5899L189.133 39.5009C189.249 39.649 189.364 39.7952 189.478 39.9392L190.15 40.777C190.479 41.182 190.797 41.5653 191.099 41.9227C193.704 44.9096 193.005 47.96 188.938 47.96C186.603 47.96 183.445 47.2987 179.787 46.1403L178.862 45.8404L178.862 45.8404L177.918 45.5204L177.918 45.5204L176.955 45.1808L176.955 45.1808L175.974 44.8222L175.974 44.8222L174.977 44.4452L174.977 44.4452L173.965 44.0503L173.965 44.0503L172.938 43.6381L172.938 43.6381L171.899 43.2093L171.899 43.2093L170.847 42.7642L170.847 42.7642L169.785 42.3036C169.607 42.2255 169.429 42.1469 169.25 42.0676L168.174 41.5847L168.174 41.5847L167.09 41.0876L167.09 41.0876L165.999 40.5769L165.999 40.5769L164.902 40.0532L164.902 40.0532L163.8 39.5171L163.8 39.5171L162.695 38.9691L162.695 38.9691L161.588 38.4098C161.403 38.3157 161.218 38.2211 161.033 38.1261L159.924 37.5509C159.554 37.3575 159.185 37.1624 158.815 36.9658C157.608 36.2668 156.909 36.2032 156.019 36.3303C152.715 36.6481 149.41 36.9023 145.978 36.9023C107.721 36.9023 77.4076 11.6728 77.4076-19.2125C77.4076-50.0344 107.721-75.1367 146.042-75.1367ZM92.707-106C115.331-106 135.561-98.4939 150.019-86.4173C148.701-86.4679 147.376-86.4938 146.042-86.4938C100.813-86.4938 65.0358-56.7595 65.0358-20.2503C65.0358-3.12582 72.8747 12.5308 85.8448 24.3417C84.2492 24.2298 82.6628 24.0898 81.0763 23.9373C80.0392 23.7891 79.2243 23.8632 77.8168 24.6781L76.2849 25.4852L75.5188 25.8826L75.5188 25.8826L73.9873 26.6648L73.2226 27.0492L73.2226 27.0492L71.6964 27.8039L70.9355 28.1739L70.9355 28.1739L69.4195 28.8987L67.913 29.6022L66.4182 30.2832L64.9371 30.9407L64.2024 31.2603L64.2024 31.2603L62.7462 31.8804L61.3092 32.4742L59.8936 33.0406L58.5016 33.5784L57.8151 33.8363L57.8151 33.8363L56.4625 34.3293L55.7969 34.5641L55.7969 34.5641L54.4886 35.0098C54.0578 35.1529 53.6323 35.2905 53.2126 35.4225L51.9709 35.8011L50.7659 36.1446C47.6031 37.0128 44.8537 37.494 42.7026 37.494C38.0432 37.494 37.1758 34.0597 40.0302 30.6365L40.5138 30.0633L40.5138 30.0633L41.2016 29.2293L41.2016 29.2293L41.9205 28.3368C44.4827 25.119 47.4837 20.9513 49.518 17.1219C50.2588 15.7143 50.0366 14.6772 48.4809 13.8623C26.8494 3.12065 12.7-17.7701 12.7-40.8091C12.7-76.7382 48.0364-106 92.707-106Z"/>
  </g>
  <g id="Heavy-L" transform="matrix(1 0 0 1 2526.38 1556)">
   <path d="M141.819-73.6332C179.155-73.6332 208.689-49.176 208.689-19.1462C208.689 0.109948 196.863 17.5705 178.783 26.5485C177.483 27.2296 177.297 28.0964 177.916 29.2728C179.564 32.3741 181.97 35.7408 184.066 38.3935L184.752 39.25L184.752 39.25L185.406 40.0455L185.406 40.0455L185.718 40.4179C188.257 43.328 187.575 46.3 183.613 46.3C181.59 46.3 178.935 45.7909 175.866 44.8851L174.979 44.6156L174.979 44.6156L174.07 44.3251C173.457 44.1245 172.83 43.9104 172.192 43.6833L171.226 43.3333C171.063 43.2734 170.9 43.2127 170.736 43.1512L169.746 42.7734L169.746 42.7734L168.74 42.3777C168.571 42.3104 168.401 42.2422 168.231 42.1734L167.205 41.7522L167.205 41.7522L166.167 41.3146L166.167 41.3146L165.117 40.8612L165.117 40.8612L164.057 40.3926L164.057 40.3926L162.989 39.9095L162.989 39.9095L161.913 39.4123L161.913 39.4123L160.831 38.9016L160.831 38.9016L159.743 38.3782L159.743 38.3782L158.651 37.8424C158.469 37.7521 158.286 37.6614 158.104 37.5701L157.008 37.0171L157.008 37.0171L155.91 36.4532L155.91 36.4532L154.813 35.8791C154.63 35.7826 154.447 35.6857 154.264 35.5884C153.088 34.9073 152.407 34.8454 151.54 34.9692C148.32 35.2788 145.1 35.5264 141.757 35.5264C104.483 35.5264 74.9485 10.9454 74.9485-19.1462C74.9485-49.176 104.483-73.6332 141.819-73.6332ZM91.3762-104.58C114.212-104.58 134.567-96.8039 148.849-84.3729C146.536-84.5398 144.191-84.6234 141.819-84.6234C97.6992-84.6234 62.7987-55.6839 62.7987-20.1505C62.7987-3.36212 70.5574 11.9767 83.3752 23.5007C82.2278 23.4095 81.0834 23.3061 79.9391 23.1961C78.9192 23.0504 78.1178 23.1232 76.7337 23.9245L75.9665 24.3308L74.4313 25.1311L72.897 25.914L71.3658 26.6786L69.84 27.4235L68.3219 28.1478L66.8137 28.8501L65.3177 29.5294L63.8361 30.1845L63.1014 30.5026L63.1014 30.5026L61.6456 31.1192L60.21 31.7088L58.7966 32.2702L58.099 32.5399L58.099 32.5399L56.7233 33.0568L55.3755 33.5425C54.4869 33.8558 53.6183 34.1475 52.7729 34.4162L51.5226 34.8018C47.8259 35.9055 44.6282 36.5273 42.2036 36.5273C37.6473 36.5273 36.7784 33.1877 39.529 29.8402L40.0512 29.2202L40.0512 29.2202L40.7275 28.4L40.7275 28.4L41.4345 27.5224C41.5545 27.3717 41.6754 27.2189 41.7972 27.0642L42.5367 26.1128C44.7779 23.1939 47.1909 19.7218 48.9056 16.494C49.6341 15.1099 49.4156 14.09 47.8858 13.2887C26.614 2.72566 12.7-17.8176 12.7-40.4734C12.7-75.8049 47.4487-104.58 91.3762-104.58Z"/>
  </g>
  <g id="Bold-L" transform="matrix(1 0 0 1 2228.05 1556)">
   <path d="M146.963-72.041C183.224-72.041 211.909-48.2878 211.909-19.1224C211.909-0.420524 200.423 16.5375 182.863 25.257C181.601 25.9185 181.42 26.7604 182.022 27.9029C183.711 31.0822 186.22 34.5488 188.33 37.1839L188.982 37.9871L188.982 37.9871L189.599 38.7272L189.599 38.7272C192.064 41.5535 191.403 44.44 187.554 44.44C185.525 44.44 182.841 43.9126 179.736 42.978L178.838 42.7L178.838 42.7L177.918 42.4005L177.918 42.4005L176.978 42.0801C176.502 41.9147 176.02 41.7418 175.531 41.5616L174.545 41.1916C174.38 41.1283 174.213 41.0643 174.046 40.9995L173.036 40.6016L173.036 40.6016L172.012 40.186L172.012 40.186L170.975 39.7531C170.801 39.6796 170.627 39.6054 170.452 39.5305L169.397 39.073L169.397 39.073L168.333 38.6L168.333 38.6L167.259 38.112C167.08 38.0294 166.9 37.9463 166.72 37.8625L165.635 37.3532L165.635 37.3532L164.545 36.8304L164.545 36.8304L163.45 36.2948C163.267 36.2045 163.085 36.1137 162.902 36.0224L161.802 35.4687C161.619 35.3755 161.435 35.2818 161.252 35.1876L160.151 34.6173L160.151 34.6173L159.05 34.0367L159.05 34.0367C157.908 33.3752 157.246 33.3151 156.404 33.4353C153.277 33.736 150.15 33.9766 146.903 33.9766C110.702 33.9766 82.0175 10.1031 82.0175-19.1224C82.0175-48.2878 110.702-72.041 146.963-72.041ZM89.8726-102.97C112.497-102.97 132.639-95.1884 146.668-82.78C103.814-82.6513 69.9614-54.5679 69.9614-20.1038C69.9614-3.45521 77.8287 11.727 90.7709 23.0022L89.944 23.0071C86.0854 23.0071 82.3697 22.7213 78.654 22.364C77.6536 22.2211 76.8676 22.2925 75.5099 23.0785L74.0044 23.8716L72.4987 24.6482L70.995 25.4073L70.2446 25.7799L70.2446 25.7799L68.748 26.5107L67.2589 27.221L65.7795 27.9099L64.3121 28.5762L62.8588 29.2188L62.1381 29.5308L62.1381 29.5308L60.7102 30.1357L60.0035 30.4283L60.0035 30.4283L58.6059 30.9929L57.2313 31.5292L56.5533 31.7865L56.5533 31.7865L55.2173 32.2783L53.9099 32.7392C48.9556 34.4446 44.6786 35.4404 41.6397 35.4404C37.1729 35.4404 36.3191 32.1682 39.0118 28.8865L39.2102 28.6521L39.8559 27.8782L39.8559 27.8782L40.5353 27.0447L40.5353 27.0447L41.2411 26.1581L41.2411 26.1581L41.9665 25.2249C44.1648 22.3619 46.5317 18.9561 48.2137 15.79C48.9282 14.4323 48.7139 13.432 47.2133 12.6459C26.3481 2.28481 12.7-17.8658 12.7-40.0886C12.7-74.7448 46.7846-102.97 89.8726-102.97Z"/>
  </g>
  <g id="Semibold-L" transform="matrix(1 0 0 1 1938.58 1556)">
   <path d="M93.5857-101.9C118.646-101.9 140.801-92.7906 155.558-78.4749C148.678-80.1446 141.367-81.0433 133.769-81.0433C91.8287-81.0433 58.6524-53.6665 58.6524-20.052C58.6524 0.633926 71.1647 18.9935 90.5188 30.0824C87.5812 29.9768 84.7043 29.741 81.8273 29.4644C80.7788 29.3146 79.955 29.3895 78.532 30.2133L76.9833 31.0293L75.4343 31.8287L73.8873 32.6104L73.1152 32.9944L71.5751 33.7476L70.0425 34.4803L69.2796 34.8387L69.2796 34.8387L67.7622 35.5387L66.2576 36.2154L65.5108 36.5447L65.5108 36.5447L64.0297 37.1845L62.5669 37.7983L61.843 38.095L61.843 38.095L60.4119 38.6676C59.7021 38.9468 59.0012 39.2152 58.3105 39.4721L56.9431 39.9705L55.605 40.4373L54.9476 40.6585L54.9476 40.6585L53.6575 41.0757C49.4141 42.4098 45.7505 43.17 43.0321 43.17C38.3454 43.17 37.4536 39.7331 40.2868 36.2898L40.8193 35.6577L40.8193 35.6577L41.5146 34.8145C44.2451 31.4647 47.6698 26.8143 49.9224 22.5741C50.6713 21.1511 50.4467 20.1026 48.8739 19.2788C27.0048 8.41911 12.7-12.701 12.7-35.9931C12.7-72.3168 48.4245-101.9 93.5857-101.9ZM133.769-71.0065C169.312-71.0065 197.429-47.7232 197.429-19.1349C197.429-0.802983 186.171 15.8195 168.959 24.3665C167.721 25.0149 167.544 25.8402 168.133 26.9601C169.702 29.9125 171.992 33.1176 173.988 35.643L174.641 36.4584L174.641 36.4584L175.263 37.2157L175.263 37.2157L175.561 37.5702C177.977 40.3406 177.329 43.17 173.556 43.17C171.662 43.17 169.186 42.7011 166.325 41.8651L165.456 41.6034C165.162 41.5126 164.865 41.4181 164.564 41.3203L163.653 41.0163L163.653 41.0163L162.721 40.6922L162.721 40.6922L161.772 40.3485C161.612 40.2896 161.452 40.2299 161.29 40.1695L160.316 39.7976L160.316 39.7976L159.326 39.4076L159.326 39.4076L158.322 39.0001C158.154 38.9308 157.985 38.8608 157.815 38.7901L156.793 38.3576L156.793 38.3576L155.759 37.9092L155.759 37.9092L154.715 37.4455L154.715 37.4455L153.663 36.9672L153.663 36.9672L152.603 36.4747L152.603 36.4747L151.538 35.9688L151.538 35.9688L150.467 35.45L150.467 35.45L149.392 34.9189L149.392 34.9189L148.314 34.3762L148.314 34.3762L147.235 33.8225L147.235 33.8225L146.156 33.2583C145.976 33.1634 145.796 33.0682 145.616 32.9725C144.497 32.3241 143.848 32.2652 143.023 32.3831C139.958 32.6778 136.893 32.9136 133.71 32.9136C98.2247 32.9136 70.1079 9.51239 70.1079-19.1349C70.1079-47.7232 98.2247-71.0065 133.769-71.0065Z"/>
  </g>
  <g id="Medium-L" transform="matrix(1 0 0 1 1637.56 1556)">
   <path d="M143.412-70.1103C178.388-70.1103 206.055-47.1994 206.055-19.0684C206.055-1.02967 194.976 15.327 178.04 23.7373C176.822 24.3753 176.648 25.1873 177.228 26.2894C178.685 29.0331 180.777 31.9987 182.659 34.4132L183.313 35.2412C183.42 35.375 183.526 35.5065 183.631 35.6357L184.243 36.3809L184.243 36.3809L184.536 36.7298C186.914 39.4559 186.276 42.24 182.564 42.24C179.911 42.24 176.096 41.3053 171.685 39.7246L170.731 39.3761L170.731 39.3761L169.76 39.0085L169.76 39.0085L168.773 38.6224L168.773 38.6224L167.772 38.2184L167.772 38.2184L166.757 37.7971L166.757 37.7971L165.73 37.3592C165.386 37.2106 165.04 37.0592 164.693 36.9054L163.645 36.4362L163.645 36.4362L162.59 35.9522L162.59 35.9522L161.527 35.4542C161.349 35.3701 161.172 35.2854 160.993 35.2001L159.922 34.6821L159.922 34.6821L158.847 34.1517L158.847 34.1517L157.769 33.6093L157.769 33.6093L156.69 33.0557L156.69 33.0557L155.61 32.4915C155.43 32.3966 155.251 32.3013 155.071 32.2056C153.969 31.5676 153.331 31.5096 152.519 31.6256C149.503 31.9156 146.486 32.1476 143.354 32.1476C108.437 32.1476 80.7699 9.12072 80.7699-19.0684C80.7699-47.1994 108.437-70.1103 143.412-70.1103ZM88.0912-101.07C111.45-101.07 132.1-92.5789 145.855-79.2351C145.043-79.2538 144.229-79.2644 143.412-79.2644C102.489-79.2644 70.1161-52.62 70.1161-19.9048C70.1161-3.6239 78.1006 11.1763 91.1433 21.951C90.1558 21.9835 89.1609 21.9992 88.161 21.9992C84.3915 21.9992 80.7615 21.72 77.1316 21.3709C76.1543 21.2313 75.3864 21.3011 74.0601 22.069L72.5611 22.8585L71.0619 23.6313L69.5647 24.3863L68.072 25.1222L66.586 25.8381L65.1089 26.5326L63.643 27.2046L62.915 27.5318L62.915 27.5318L61.4704 28.1679L60.7542 28.4765L60.7542 28.4765L59.3359 29.074L57.9379 29.6443L56.5626 30.1863L55.8842 30.4463L55.8842 30.4463L54.5472 30.9437C54.1061 31.1043 53.6698 31.2597 53.2386 31.4097L51.9608 31.8434C51.5402 31.9824 51.1251 32.1158 50.7159 32.2435L49.5062 32.6088C46.1311 33.5934 43.2082 34.1455 40.9717 34.1455C36.608 34.1455 35.7739 30.9489 38.4045 27.7429L38.8672 27.1938L38.8672 27.1938L39.4251 26.5194L39.4251 26.5194L40.006 25.8027L40.006 25.8027L41.0135 24.5254C43.2374 21.6568 45.6798 18.1753 47.3939 14.9487C48.092 13.6224 47.8826 12.6451 46.4166 11.8772C26.0331 1.75525 12.7-17.9302 12.7-39.6401C12.7-73.4964 45.9978-101.07 88.0912-101.07Z"/>
  </g>
  <g id="Regular-L" transform="matrix(1 0 0 1 1349.68 1556)">
   <path d="M127.075-68.9931C161.31-68.9931 188.392-46.567 188.392-19.0311C188.392-1.37412 177.548 14.6364 160.97 22.8688C159.778 23.4933 159.607 24.2882 160.175 25.3669C161.842 28.505 164.356 31.9395 166.401 34.4636L167.029 35.229L167.029 35.229L167.329 35.5864C169.656 38.2548 169.032 40.98 165.398 40.98C162.852 40.98 159.212 40.1001 155 38.607L154.055 38.2653C153.896 38.2066 153.736 38.1472 153.576 38.087L152.605 37.7162L152.605 37.7162L151.618 37.3267C151.453 37.2603 151.287 37.1932 151.12 37.1253L150.112 36.7092L150.112 36.7092L149.092 36.2763C148.921 36.2027 148.75 36.1285 148.578 36.0536L147.541 35.5965C147.368 35.519 147.194 35.4408 147.02 35.3621L145.97 34.8822L145.97 34.8822L144.913 34.388L144.913 34.388L143.85 33.8801L143.85 33.8801L142.781 33.3591L142.781 33.3591L141.71 32.8258L141.71 32.8258L140.636 32.2807L140.636 32.2807L139.561 31.7245L139.561 31.7245L138.487 31.1579L138.487 31.1579C137.408 30.5334 136.784 30.4766 135.989 30.5902C133.037 30.8741 130.084 31.1012 127.018 31.1012C92.8398 31.1012 65.7582 8.56149 65.7582-19.0311C65.7582-46.567 92.8398-68.9931 127.075-68.9931ZM87.0166-99.99C111.877-99.99 133.626-90.2327 147.067-75.2321C140.739-76.7037 134.034-77.4923 127.075-77.4923C87.1982-77.4923 55.6537-51.5998 55.6537-19.8078C55.6537-4.08455 63.3376 10.2176 75.9068 20.6714C75.0804 20.5909 74.3521 20.7184 73.1855 21.3938L71.6788 22.1871L70.1721 22.9633L68.6675 23.7212L67.1676 24.4596L67.1676 24.4596L65.6747 25.1772L64.9316 25.5279L64.9316 25.5279L63.4538 26.2121L61.9889 26.8725L61.2621 27.1934L61.2621 27.1934L59.8212 27.8158L59.1077 28.117L59.1077 28.117L57.6962 28.6986L56.3072 29.2516L55.6219 29.517L55.6219 29.517L54.2712 30.0246L52.9491 30.5006C47.9387 32.2626 43.6099 33.2982 40.5687 33.2982C36.2672 33.2982 35.445 30.1471 38.0381 26.9868L38.548 26.3811L38.548 26.3811L39.2138 25.573L39.2138 25.573L39.9103 24.7067L39.9103 24.7067L40.6302 23.7891C40.8732 23.4755 41.1187 23.1544 41.3657 22.8272L42.1092 21.828C43.8475 19.4585 45.5892 16.8412 46.8994 14.375C47.5875 13.0676 47.3811 12.1042 45.936 11.3473C25.843 1.36961 12.7-18.0353 12.7-39.4357C12.7-72.8094 45.5232-99.99 87.0166-99.99Z"/>
  </g>
  <g id="Light-L" transform="matrix(1 0 0 1 1056.17 1556)">
   <path d="M122.935-66.4373C155.901-66.4373 181.979-44.8423 181.979-18.327C181.979-1.32439 171.537 14.0928 155.573 22.02C154.425 22.6214 154.261 23.3868 154.808 24.4255C156.498 27.6064 159.091 31.1035 161.11 33.5614L161.697 34.2663L161.697 34.2663C163.938 36.8358 163.337 39.46 159.838 39.46C157.898 39.46 155.299 38.9296 152.289 37.9961L151.418 37.7185C151.125 37.6224 150.827 37.5227 150.527 37.4196L149.615 37.1001L149.615 37.1001L148.685 36.7606C148.528 36.7024 148.371 36.6434 148.213 36.5836L147.258 36.2154C147.098 36.1525 146.936 36.0889 146.775 36.0244L145.797 35.629L145.797 35.629L144.806 35.2163L144.806 35.2163L143.803 34.7869C143.467 34.641 143.129 34.4925 142.79 34.3414L141.766 33.8807L141.766 33.8807L140.735 33.4052L140.735 33.4052L139.697 32.9157L139.697 32.9157L138.654 32.4128L138.654 32.4128L137.606 31.8972L137.606 31.8972L136.555 31.3695L136.555 31.3695L135.503 30.8305L135.503 30.8305L134.45 30.2807C134.275 30.1882 134.099 30.0953 133.924 30.002C132.885 29.4006 132.284 29.3459 131.518 29.4553C128.675 29.7286 125.833 29.9473 122.88 29.9473C89.9686 29.9473 63.8906 8.243 63.8906-18.327C63.8906-44.8423 89.9686-66.4373 122.935-66.4373ZM89.2813-97.89C117.47-97.89 141.775-85.7166 155.066-67.5666C145.56-71.8091 134.629-74.2205 122.935-74.2205C85.457-74.2205 55.8103-49.4512 55.8103-19.0382C55.8103 0.126149 67.5338 17.0836 85.5406 27.0313C83.0482 26.9235 80.5984 26.7193 78.1487 26.4837C77.1559 26.3419 76.3759 26.4128 75.0287 27.1928L73.506 27.9947L71.9831 28.7797L70.4624 29.5467L68.9461 30.2943L68.1903 30.6605L68.1903 30.6605L66.6851 31.3769L65.1901 32.0711L63.7077 32.7418L62.972 33.0681L62.972 33.0681L61.5128 33.7014L60.072 34.3084C59.5951 34.5061 59.1216 34.6993 58.652 34.8877L57.255 35.4383L55.8834 35.9589L54.5394 36.4483L53.8786 36.681L53.8786 36.681L52.5805 37.1215L51.316 37.5279L50.0872 37.899C46.6588 38.8992 43.6898 39.46 41.418 39.46C36.9854 39.46 36.1382 36.2129 38.8103 32.9563L39.0071 32.7237C39.2227 32.4684 39.4455 32.2013 39.6743 31.9237L40.3771 31.06L40.3771 31.06L41.1079 30.14C43.4579 27.1448 46.1093 23.4091 47.9416 19.9601C48.6507 18.6129 48.4379 17.6201 46.9489 16.8402C26.2435 6.5584 12.7-13.4378 12.7-35.4904C12.7-69.8811 46.5234-97.89 89.2813-97.89Z"/>
  </g>
  <g id="Thin-L" transform="matrix(1 0 0 1 764.007 1556)">
   <path d="M116.932-62.9561C148.176-62.9561 172.892-42.4891 172.892-17.3587C172.892-1.24415 162.995 13.3677 147.865 20.8809C146.777 21.4509 146.622 22.1763 147.14 23.1608C148.818 26.3191 151.436 29.8063 153.382 32.1455L153.669 32.4876C155.793 34.9229 155.223 37.41 151.907 37.41C150.303 37.41 148.224 37.0276 145.827 36.3428L145.016 36.1035L145.016 36.1035L144.183 35.8424L144.183 35.8424L143.329 35.5602L143.329 35.5602L142.455 35.2576L142.455 35.2576L141.562 34.9352L141.562 34.9352L140.653 34.5937C140.5 34.5353 140.346 34.476 140.192 34.416L139.259 34.0471C139.103 33.9842 138.945 33.9205 138.788 33.8561L137.834 33.4612L137.834 33.4612L136.869 33.0498C136.707 32.98 136.545 32.9094 136.382 32.8382L135.401 32.4034L135.401 32.4034L134.412 31.9537L134.412 31.9537L133.415 31.4899L133.415 31.4899L132.411 31.0125L132.411 31.0125L131.403 30.5223L131.403 30.5223L130.391 30.0199C130.222 29.9351 130.053 29.8499 129.884 29.7643L128.869 29.2448C128.7 29.1573 128.531 29.0694 128.362 28.981L127.347 28.446L127.347 28.446C126.362 27.876 125.792 27.8242 125.067 27.9278C122.372 28.1869 119.678 28.3942 116.88 28.3942C85.6871 28.3942 60.9712 7.82351 60.9712-17.3587C60.9712-42.4891 85.6871-62.9561 116.932-62.9561ZM80.3455-95.11C107.682-95.11 130.884-82.149 141.616-63.4706C134.089-66.1427 125.748-67.6267 116.932-67.6267C82.7019-67.6267 55.6246-45.2548 55.6246-17.7855C55.6246-5.39953 61.1071 5.96577 70.2516 14.7211C69.4912 14.6449 68.8262 14.758 67.7559 15.3776L66.2988 16.1443L64.8416 16.8934L63.3871 17.6235L61.9378 18.3333L60.4964 19.0215L59.7794 19.357L59.7794 19.357L58.3545 20.0102L56.9441 20.6385C56.4766 20.8436 56.0119 21.0443 55.5506 21.2404L54.1766 21.8147L52.8249 22.36L52.1581 22.6214L52.1581 22.6214L50.8445 23.1208L49.8142 23.4971C45.051 25.204 40.9315 26.2134 38.0671 26.2134C34.1639 26.2134 33.408 23.3631 35.7415 20.4956L35.9375 20.2631C36.1358 20.0282 36.3411 19.782 36.5521 19.5257L37.2006 18.7277C37.4216 18.4524 37.6469 18.1681 37.8752 17.8761L38.5681 16.9783C40.4332 14.5285 42.4097 11.6613 43.8294 8.98886C44.4558 7.7988 44.2679 6.92191 42.9526 6.23293C24.6632-2.8491 12.7-20.5121 12.7-39.9915C12.7-70.3693 42.5767-95.11 80.3455-95.11Z"/>
  </g>
  <g id="Ultralight-L" transform="matrix(1 0 0 1 469.195 1556)">
   <path d="M114.687-61.2C145.064-61.2 169.094-41.3011 169.094-16.8684C169.094-1.20115 159.472 13.0051 144.762 20.3098C143.704 20.8639 143.553 21.5692 144.057 22.5264C145.684 25.5893 148.22 28.9704 150.111 31.2445L150.404 31.5942C152.47 33.9619 151.916 36.38 148.691 36.38C147.016 36.38 144.808 35.9509 142.255 35.189L141.437 34.9375C141.023 34.8063 140.601 34.6671 140.171 34.5202L139.302 34.2163L139.302 34.2163L138.415 33.8926C138.265 33.8371 138.115 33.7807 137.964 33.7236L137.052 33.3716L137.052 33.3716L136.125 33.0015L136.125 33.0015L135.184 32.614L135.184 32.614L134.231 32.2098L134.231 32.2098L133.267 31.7896C133.105 31.7182 132.943 31.6462 132.781 31.5736L131.803 31.1306L131.803 31.1306L130.817 30.6731L130.817 30.6731L129.824 30.202L129.824 30.202L128.827 29.7179C128.66 29.6362 128.493 29.5539 128.327 29.4712L127.324 28.9688L127.324 28.9688L126.32 28.4551L126.32 28.4551L125.315 27.9308C125.147 27.8425 124.98 27.7539 124.813 27.6648C123.856 27.1107 123.301 27.0603 122.596 27.161C119.977 27.4129 117.357 27.6144 114.637 27.6144C84.3098 27.6144 60.28 7.61481 60.28-16.8684C60.28-41.3011 84.3098-61.2 114.687-61.2ZM78.42-93.7C105.258-93.7 127.995-80.8411 138.272-62.3856C131.052-64.8612 123.088-66.2316 114.686-66.2316C81.0592-66.2316 54.4589-44.2813 54.4589-17.3297C54.4589-5.85138 59.2639 4.73359 67.3667 13.1112C67.0242 13.2096 66.6443 13.3789 66.1888 13.6426L64.9533 14.2937L63.7177 14.9317L62.4834 15.556L61.2523 16.1657L60.026 16.7598L58.8062 17.3376L57.5946 17.8981L56.3929 18.4406L55.2027 18.9641L54.0257 19.4678L52.8637 19.9508C52.479 20.1082 52.0971 20.2621 51.7182 20.4123L50.5911 20.8513C50.0324 21.0651 49.4812 21.2702 48.9384 21.4661L47.8643 21.8454L47.3363 22.0256L47.3363 22.0256L46.2992 22.3665C45.9578 22.4758 45.621 22.5806 45.2888 22.6808L44.3068 22.9674C41.5664 23.7398 39.1882 24.17 37.345 24.17C33.537 24.17 32.8124 21.3775 35.1144 18.5798L35.5229 18.0951L35.5229 18.0951L36.0361 17.4741L36.0361 17.4741L36.8455 16.468C38.918 13.8505 41.31 10.5104 42.9434 7.43575C43.5519 6.27956 43.3693 5.42764 42.0914 4.75827C24.3227-4.06525 12.7-21.2255 12.7-40.1504C12.7-69.6635 41.7263-93.7 78.42-93.7Z"/>
  </g>
  <g id="Black-M" transform="matrix(1 0 0 1 2841.4 1126)">
   <path d="M117.911-66.4578C148.148-66.4578 172.066-46.6511 172.066-22.3316C172.066-6.73697 162.489 7.40347 147.847 14.6743C146.794 15.2258 146.644 15.9278 147.145 16.8806C148.594 19.6084 150.768 22.5898 152.558 24.8086L153.172 25.5583L153.172 25.5583L153.463 25.9064C155.519 28.2631 154.967 30.67 151.758 30.67C149.916 30.67 147.424 30.1482 144.538 29.2342L143.702 28.9624L143.702 28.9624L142.847 28.6701C142.703 28.6196 142.558 28.5684 142.412 28.5163L141.529 28.1942L141.529 28.1942L140.629 27.853L140.629 27.853L139.713 27.4936C139.56 27.4322 139.405 27.37 139.25 27.3072L138.314 26.9215L138.314 26.9215L137.365 26.5192L137.365 26.5192L136.405 26.1008L136.405 26.1008L135.436 25.6672L135.436 25.6672L134.458 25.219L134.458 25.219L133.473 24.7568L133.473 24.7568L132.483 24.2813L132.483 24.2813L131.488 23.7932L131.488 23.7932L130.49 23.2932L130.49 23.2932L129.49 22.7818C129.324 22.6957 129.157 22.6092 128.99 22.5222L127.99 21.9952L127.99 21.9952C127.038 21.4436 126.486 21.3935 125.784 21.4938C123.177 21.7445 120.569 21.945 117.861 21.945C87.675 21.945 63.7566 2.03812 63.7566-22.3316C63.7566-46.6511 87.675-66.4578 117.911-66.4578ZM75.8284-90.81C93.6799-90.81 109.642-84.8875 121.05-75.3585C120.01-75.3985 118.964-75.4189 117.911-75.4189C82.2247-75.4189 53.9948-51.9575 53.9948-23.1504C53.9948-9.63855 60.18 2.71509 70.4139 12.0343C69.1549 11.946 67.9032 11.8356 66.6514 11.7152C65.8331 11.5983 65.1901 11.6568 64.0795 12.2997L62.8708 12.9365L62.2663 13.2502L60.7561 14.0194L60.7561 14.0194L59.2503 14.7661L58.6499 15.0581L58.6499 15.0581L57.4538 15.63L56.2651 16.185L55.0856 16.7224L53.917 17.2412L53.3373 17.4933L53.3373 17.4933L52.1883 17.9826L51.0544 18.4511L49.9374 18.898L48.8391 19.3224L48.2974 19.5259L48.2974 19.5259L47.2302 19.9149L46.705 20.1002L46.705 20.1002L45.6727 20.4518C45.3328 20.5647 44.9971 20.6733 44.6659 20.7775L43.6862 21.0762L42.7353 21.3473C40.2398 22.0322 38.0704 22.412 36.3732 22.412C32.7056 22.412 32.0156 19.7152 34.2483 17.0207L34.3858 16.859C34.6755 16.5159 34.9811 16.147 35.298 15.7565L35.9454 14.9479C37.9241 12.4436 40.1954 9.2653 41.7508 6.3376C42.3353 5.22701 42.1599 4.40868 40.9324 3.76571C23.8644-4.70987 12.7-21.1934 12.7-39.372C12.7-67.7214 40.5817-90.81 75.8284-90.81Z"/>
  </g>
  <g id="Heavy-M" transform="matrix(1 0 0 1 2547.05 1126)">
   <path d="M114.571-65.3738C144.028-65.3738 167.33-46.0778 167.33-22.3852C167.33-7.19263 157.999 6.58327 143.735 13.6666C142.709 14.204 142.562 14.8879 143.051 15.8161C144.38 18.3172 146.334 21.0372 148.013 23.1507L148.628 23.9132C148.727 24.035 148.826 24.1541 148.922 24.2701L149.206 24.6092C151.209 26.9052 150.672 29.25 147.545 29.25C145.543 29.25 142.755 28.6178 139.524 27.5285L138.672 27.2341C138.528 27.1834 138.384 27.1318 138.238 27.0794L137.358 26.7551L137.358 26.7551L136.461 26.4119C136.159 26.2944 135.855 26.1738 135.549 26.0503L134.622 25.6711C134.467 25.6065 134.311 25.5412 134.154 25.4751L133.209 25.0708C132.893 24.9333 132.574 24.7932 132.254 24.6505L131.289 24.2151L131.289 24.2151L130.317 23.7651L130.317 23.7651L129.337 23.3013L129.337 23.3013L128.353 22.8243L128.353 22.8243L127.365 22.3349L127.365 22.3349L126.374 21.8337L126.374 21.8337L125.382 21.3215C125.051 21.1489 124.72 20.9747 124.39 20.7988C123.462 20.2615 122.925 20.2126 122.241 20.3103C119.7 20.5546 117.16 20.75 114.522 20.75C85.1141 20.75 61.8123 1.35625 61.8123-22.3852C61.8123-46.0778 85.1141-65.3738 114.571-65.3738ZM74.7733-89.79C92.7899-89.79 108.849-83.6548 120.118-73.8472C118.293-73.9788 116.442-74.0448 114.571-74.0448C79.762-74.0448 52.2264-51.2123 52.2264-23.1775C52.2264-9.93199 58.3478 2.16989 68.4607 11.262C67.5554 11.19 66.6525 11.1085 65.7497 11.0217C64.945 10.9067 64.3128 10.9642 63.2208 11.5964L62.6155 11.9169L61.4042 12.5483L60.1937 13.1661L58.9856 13.7693L57.7819 14.357L56.5841 14.9284L55.3942 15.4825L54.2139 16.0185L53.0449 16.5353L52.4653 16.7863L52.4653 16.7863L51.3167 17.2728L50.184 17.738L49.0689 18.1809L48.5185 18.3937L48.5185 18.3937L47.4331 18.8015L46.3698 19.1847C45.6686 19.4319 44.9834 19.662 44.3164 19.874L43.3299 20.1782C40.4133 21.0491 37.8904 21.5396 35.9775 21.5396C32.3827 21.5396 31.6972 18.9048 33.8673 16.2637L34.0233 16.0795C36.2074 13.4931 39.3111 9.41234 41.2652 5.73392C41.84 4.64189 41.6675 3.83724 40.4606 3.20501C23.6778-5.1289 12.7-21.3369 12.7-39.2117C12.7-67.0873 40.1157-89.79 74.7733-89.79Z"/>
  </g>
  <g id="Bold-M" transform="matrix(1 0 0 1 2249.03 1126)">
   <path d="M118.682-64.2558C147.306-64.2558 169.948-45.5059 169.948-22.4838C169.948-7.72124 160.881 5.66478 147.021 12.5477C146.024 13.0698 145.882 13.7344 146.356 14.6363C147.885 17.5143 150.266 20.6906 152.046 22.8332L152.337 23.1805C154.283 25.4115 153.761 27.69 150.723 27.69C148.947 27.69 146.534 27.1779 143.738 26.2832L142.929 26.0173L142.929 26.0173L142.101 25.7312L142.101 25.7312L141.254 25.4256L141.254 25.4256L140.391 25.1012C140.245 25.0456 140.099 24.9893 139.953 24.9322L139.066 24.5809C138.768 24.4609 138.468 24.338 138.166 24.2124L137.254 23.8275C137.101 23.762 136.947 23.6959 136.793 23.6291L135.865 23.2207L135.865 23.2207L134.927 22.7976L134.927 22.7976L133.982 22.3603L133.982 22.3603L133.031 21.9096L133.031 21.9096L132.074 21.4462L132.074 21.4462L131.114 20.9706L131.114 20.9706L130.151 20.4836C129.99 20.4015 129.83 20.319 129.669 20.236L128.705 19.7331C128.544 19.6485 128.384 19.5635 128.223 19.478C127.321 18.9559 126.799 18.9084 126.135 19.0033C123.666 19.2407 121.198 19.4305 118.635 19.4305C90.059 19.4305 67.4167 0.585688 67.4167-22.4838C67.4167-45.5059 90.059-64.2558 118.682-64.2558ZM73.6172-88.67C91.4759-88.67 107.375-82.5275 118.449-72.7328C84.6218-72.6312 57.9-50.4632 57.9-23.2585C57.9-10.1167 64.1102 1.8676 74.3263 10.7678L73.6736 10.7716C70.6277 10.7716 67.6947 10.546 64.7616 10.264C63.972 10.1512 63.3515 10.2076 62.2798 10.828L61.0914 11.454L59.9029 12.0671L58.7159 12.6663L58.1236 12.9604L56.9422 13.5372L55.7668 14.098L54.599 14.6418L53.4406 15.1677L52.2935 15.675L51.7246 15.9213L51.7246 15.9213L50.5975 16.3987L50.0396 16.6296L50.0396 16.6296L48.9364 17.0753L47.8513 17.4987L47.3162 17.7018L47.3162 17.7018L46.2616 18.09L45.2296 18.4538C44.9037 18.566 44.5815 18.6743 44.2633 18.7785L43.3208 19.0792C40.2206 20.0402 37.5429 20.5861 35.5439 20.5861C32.018 20.5861 31.3441 18.0031 33.4696 15.4126L33.6262 15.2276C33.9185 14.8815 34.2275 14.5081 34.5482 14.1122L35.2036 13.2916C37.0958 10.8895 39.2513 7.86423 40.7332 5.07476C41.2972 4.00307 41.128 3.2134 39.9435 2.59295C23.4733-5.58575 12.7-21.4919 12.7-39.0338C12.7-66.3901 39.6051-88.67 73.6172-88.67Z"/>
  </g>
  <g id="Semibold-M" transform="matrix(1 0 0 1 1958.01 1126)">
   <path d="M76.5689-87.93C96.357-87.93 113.851-80.737 125.503-69.4331C120.071-70.7515 114.298-71.4612 108.298-71.4612C75.1815-71.4612 48.9849-49.8439 48.9849-23.3013C48.9849-6.96728 58.8648 7.52977 74.1472 16.2858C71.8276 16.2024 69.5559 16.0162 67.2842 15.7978C66.4563 15.6795 65.8058 15.7386 64.6822 16.3892L63.4593 17.0334L62.2362 17.6647L61.0146 18.282C60.8113 18.3836 60.608 18.4847 60.405 18.5851L59.1889 19.1799L57.9787 19.7585L57.3763 20.0414L57.3763 20.0414L56.1781 20.5941L54.9901 21.1285L54.4004 21.3885L54.4004 21.3885L53.2309 21.8937L52.0758 22.3784L51.5043 22.6127L51.5043 22.6127L50.3742 23.0648C49.8137 23.2853 49.2603 23.4972 48.7149 23.7001L47.6352 24.0936L46.5786 24.4622L46.0595 24.6369L46.0595 24.6369L45.0408 24.9663C41.6901 26.0197 38.7973 26.62 36.6508 26.62C32.9501 26.62 32.2459 23.9061 34.4831 21.1873L34.6401 21.0019C36.8874 18.3407 40.0808 14.1419 42.0915 10.3571C42.6829 9.23347 42.5055 8.40554 41.2636 7.75503C23.9953-0.819959 12.7-17.4968 12.7-35.8887C12.7-64.5706 40.9088-87.93 76.5689-87.93ZM108.298-63.5359C136.364-63.5359 158.566-45.151 158.566-22.5771C158.566-8.10189 149.676 5.02354 136.085 11.7724C135.107 12.2844 134.968 12.936 135.433 13.8204C136.932 16.6424 139.267 19.7569 141.013 21.8578L141.298 22.1983C143.206 24.3859 142.694 26.62 139.715 26.62C138.279 26.62 136.419 26.2786 134.274 25.6671L133.505 25.4401C133.115 25.3212 132.716 25.1941 132.31 25.0592L131.488 24.7792L131.488 24.7792L130.647 24.4792L130.647 24.4792L129.789 24.1599C129.644 24.1051 129.499 24.0495 129.354 23.9932L128.471 23.6462C128.323 23.5869 128.174 23.5268 128.025 23.4661L127.122 23.093L127.122 23.093L126.207 22.7034C126.054 22.6371 125.9 22.5702 125.746 22.5026L124.815 22.0895L124.815 22.0895L123.876 21.6616L123.876 21.6616L122.929 21.2197L122.929 21.2197L121.977 20.7643L121.977 20.7643L121.02 20.2962L121.02 20.2962L120.059 19.8161L120.059 19.8161L119.097 19.3247L119.097 19.3247L118.134 18.8227C117.974 18.7381 117.814 18.6532 117.653 18.5679C116.769 18.0559 116.257 18.0093 115.605 18.1024C113.185 18.3352 110.765 18.5213 108.251 18.5213C80.2319 18.5213 58.0304 0.0433222 58.0304-22.5771C58.0304-45.151 80.2319-63.5359 108.298-63.5359Z"/>
  </g>
  <g id="Medium-M" transform="matrix(1 0 0 1 1657.88 1126)">
   <path d="M115.931-62.8994C143.553-62.8994 165.403-44.8054 165.403-22.5887C165.403-8.3425 156.654 4.57526 143.278 11.2174C142.316 11.7212 142.179 12.3626 142.637 13.2329C144.112 16.0103 146.41 19.0755 148.128 21.1431L148.408 21.4783C150.287 23.6312 149.783 25.83 146.851 25.83C145.355 25.83 143.39 25.4534 141.12 24.7832L140.352 24.5491C140.222 24.5083 140.092 24.4666 139.96 24.4241L139.161 24.1586C138.622 23.9749 138.07 23.7778 137.506 23.5682L136.653 23.2447C136.366 23.1339 136.077 23.02 135.785 22.9033L134.903 22.5445L134.903 22.5445L134.008 22.1691C133.858 22.1052 133.708 22.0406 133.557 21.9754L132.646 21.5764L132.646 21.5764L131.725 21.1624L131.725 21.1624L130.797 20.7343C130.642 20.6618 130.486 20.5887 130.331 20.5151L128.923 19.8381L128.923 19.8381L127.979 19.3714L127.979 19.3714L127.033 18.8933L127.033 18.8933L126.085 18.4043C125.77 18.2396 125.454 18.0732 125.138 17.9053C124.268 17.4014 123.764 17.3556 123.123 17.4472C120.741 17.6762 118.359 17.8595 115.885 17.8595C88.3089 17.8595 66.4586-0.326161 66.4586-22.5887C66.4586-44.8054 88.3089-62.8994 115.931-62.8994ZM72.2407-87.35C90.6884-87.35 106.997-80.6441 117.86-70.1057C117.218-70.1205 116.576-70.1289 115.931-70.1289C83.6111-70.1289 58.0447-49.0863 58.0447-23.2493C58.0447-10.3913 64.3505 1.29727 74.6511 9.80663C73.8712 9.8323 73.0855 9.84469 72.2958 9.84469C69.3188 9.84469 66.452 9.62417 63.5853 9.34851C62.8134 9.23825 62.207 9.29338 61.1595 9.89982L59.9757 10.5233L58.7917 11.1336L57.6093 11.7299L56.4304 12.3111L55.2568 12.8765L54.0902 13.425L52.9326 13.9557L52.3576 14.2141L52.3576 14.2141L51.2167 14.7164L50.6511 14.9601L50.6511 14.9601L49.531 15.432L48.4269 15.8825L47.3408 16.3105L46.805 16.5159L46.805 16.5159L45.7491 16.9087C45.4008 17.0355 45.0562 17.1583 44.7156 17.2767L43.7064 17.6192C43.3743 17.729 43.0465 17.8344 42.7233 17.9352L41.768 18.2237C39.1024 19.0013 36.7941 19.4374 35.0278 19.4374C31.5815 19.4374 30.9228 16.9128 33.0003 14.3808L33.4197 13.8825L33.4197 13.8825L33.9764 13.206C34.0716 13.0889 34.1679 12.9697 34.2651 12.8485L35.0608 11.8398C36.8171 9.57431 38.746 6.82477 40.0998 4.27653C40.6511 3.22905 40.4857 2.45723 39.3279 1.8508C23.2299-6.14309 12.7-21.6898 12.7-38.8354C12.7-65.5735 38.9971-87.35 72.2407-87.35Z"/>
  </g>
  <g id="Regular-M" transform="matrix(1 0 0 1 1368.15 1126)">
   <path d="M103.027-62.0904C130.064-62.0904 151.452-44.3796 151.452-22.6333C151.452-8.68885 142.888 3.95535 129.795 10.4568C128.853 10.95 128.719 11.5777 129.167 12.4297C130.607 15.1398 132.847 18.13 134.526 20.1536L134.817 20.5004C136.655 22.6078 136.162 24.76 133.292 24.76C131.634 24.76 129.389 24.2875 126.787 23.4606L125.996 23.202L125.996 23.202L125.185 22.9229C125.048 22.8747 124.911 22.8257 124.773 22.7758L123.934 22.4672L123.934 22.4672L123.079 22.1398C122.792 22.0276 122.502 21.9124 122.21 21.7942L121.326 21.4314L121.326 21.4314L120.43 21.0518C120.129 20.9226 119.827 20.7907 119.523 20.6563L118.606 20.2456L118.606 20.2456L117.682 19.8203L117.682 19.8203L116.75 19.3812L116.75 19.3812L115.813 18.929C115.657 18.8526 115.5 18.7756 115.343 18.6982L114.401 18.2276C114.243 18.1482 114.086 18.0684 113.929 17.988L112.984 17.5007L112.984 17.5007L112.039 17.0031L112.039 17.0031C111.187 16.5099 110.694 16.465 110.066 16.5547C107.735 16.7789 105.403 16.9583 102.982 16.9583C75.9898 16.9583 54.6023-0.842271 54.6023-22.6333C54.6023-44.3796 75.9898-62.0904 103.027-62.0904ZM71.391-86.57C91.0246-86.57 108.2-78.8642 118.815-67.0176C113.818-68.1798 108.523-68.8026 103.027-68.8026C71.5344-68.8026 46.6224-48.3542 46.6224-23.2467C46.6224-10.8294 52.6907 0.46561 62.6171 8.7214C61.9645 8.65784 61.3893 8.75855 60.4679 9.29195L59.2781 9.91847L58.0881 10.5315L56.8999 11.13L55.7154 11.7132L55.7154 11.7132L54.5364 12.2799L53.9496 12.5568L53.9496 12.5568L52.7824 13.0972L51.6255 13.6187C51.4337 13.704 51.2423 13.7885 51.0515 13.8721L49.9136 14.3637C49.7251 14.4438 49.5373 14.5231 49.3501 14.6015L48.2354 15.0609L47.1384 15.4976L46.5972 15.7072L46.5972 15.7072L45.5306 16.1081L44.4864 16.484C40.5295 17.8755 37.1109 18.6934 34.7091 18.6934C31.312 18.6934 30.6627 16.2048 32.7106 13.709L32.8614 13.5307C34.9265 11.0853 37.861 7.2269 39.7087 3.74891C40.2522 2.71639 40.0891 1.95558 38.9479 1.3578C23.0796-6.52201 12.7-21.8469 12.7-38.7477C12.7-65.1043 38.6219-86.57 71.391-86.57Z"/>
  </g>
  <g id="Light-M" transform="matrix(1 0 0 1 1074.22 1126)">
   <path d="M99.4273-59.9146C125.364-59.9146 145.88-42.9248 145.88-22.0639C145.88-8.68708 137.665 3.44235 125.106 9.67912C124.202 10.1522 124.073 10.7544 124.503 11.5717C125.885 14.1715 128.033 17.0399 129.644 18.9811L129.923 19.3138C131.686 21.3354 131.213 23.4 128.461 23.4C126.477 23.4 123.617 22.6951 120.311 21.505L119.476 21.1975C119.335 21.1447 119.193 21.0909 119.051 21.0364L118.191 20.7L118.191 20.7L117.315 20.3453L117.315 20.3453L116.426 19.9731L116.426 19.9731L115.526 19.584L115.526 19.584L114.615 19.179L114.615 19.179L113.695 18.7586L113.695 18.7586L112.768 18.3238C112.612 18.2502 112.457 18.176 112.302 18.1012L111.366 17.6461L111.366 17.6461L110.427 17.1783L110.427 17.1783L109.486 16.6988L109.486 16.6988L108.544 16.2081C108.387 16.1255 108.23 16.0424 108.073 15.9589C107.256 15.4858 106.782 15.4427 106.18 15.5288C103.944 15.7438 101.707 15.9159 99.3843 15.9159C73.491 15.9159 52.9742-1.15995 52.9742-22.0639C52.9742-42.9248 73.491-59.9146 99.4273-59.9146ZM72.9503-84.66C95.1277-84.66 114.25-75.0826 124.707-60.8031C117.228-64.1409 108.627-66.0381 99.4273-66.0381C69.9415-66.0381 46.617-46.5508 46.617-22.6234C46.617-7.54587 55.8405 5.79537 70.0073 13.6218C68.0464 13.5369 66.119 13.3762 64.1917 13.1909C63.4107 13.0793 62.797 13.1351 61.737 13.7488L60.5391 14.3797L59.341 14.9973L58.1445 15.6007L56.6541 16.3334L56.6541 16.3334L55.1727 17.0406L53.9965 17.5868L52.8303 18.1145L52.2514 18.3711L52.2514 18.3711L51.1034 18.8694L49.9699 19.347C49.5947 19.5026 49.2222 19.6545 48.8527 19.8028L47.7536 20.2359L46.6745 20.6455L45.6171 21.0306L45.0972 21.2136L45.0972 21.2136L44.076 21.5602L43.0811 21.8799L42.1144 22.1718C39.4171 22.9588 37.0812 23.4 35.2939 23.4C31.8065 23.4 31.14 20.8453 33.2422 18.2832L33.6915 17.7491L33.6915 17.7491L34.309 16.997C36.3179 14.5168 38.7882 11.142 40.4263 8.05849C40.9842 6.99853 40.8168 6.21751 39.6453 5.60385C23.3554-2.48531 12.7-18.2173 12.7-35.5672C12.7-62.624 39.3105-84.66 72.9503-84.66Z"/>
  </g>
  <g id="Thin-M" transform="matrix(1 0 0 1 781.42 1126)">
   <path d="M94.2716-57.0064C118.724-57.0064 138.066-40.9889 138.066-21.3219C138.066-8.71069 130.321 2.72455 118.48 8.60438C117.629 9.05044 117.507 9.61814 117.913 10.3886C119.21 12.8312 121.226 15.5252 122.744 17.355L123.022 17.6877C124.684 19.5936 124.238 21.54 121.643 21.54C120.021 21.54 117.778 21.0401 115.177 20.1754L114.387 19.9051C114.253 19.8583 114.119 19.8106 113.984 19.7621L113.164 19.4605C112.75 19.3047 112.329 19.1415 111.903 18.9712L111.042 18.6216C110.753 18.502 110.462 18.3795 110.168 18.2541L109.283 17.8695C109.134 17.8041 108.985 17.7379 108.836 17.6711L107.936 17.2626L107.936 17.2626L107.027 16.8391L107.027 16.8391L106.112 16.4013L106.112 16.4013L105.193 15.9502L105.193 15.9502L104.27 15.4866L104.27 15.4866L103.346 15.0111L103.346 15.0111L102.422 14.5248L102.422 14.5248C101.652 14.0787 101.206 14.0382 100.638 14.1193C98.5294 14.322 96.4208 14.4842 94.231 14.4842C69.8196 14.4842 50.477-1.61435 50.477-21.3219C50.477-40.9889 69.8196-57.0064 94.2716-57.0064ZM65.6393-82.17C87.0329-82.17 105.191-72.0267 113.59-57.409C107.699-59.5002 101.171-60.6616 94.2716-60.6616C67.4834-60.6616 46.2928-43.1534 46.2928-21.6559C46.2928-11.9627 50.5834-3.06821 57.7398 3.7837C57.1447 3.72408 56.6243 3.81254 55.7867 4.29747L54.6463 4.89751L53.506 5.48374L52.3677 6.05512L51.2335 6.61061L50.1054 7.14916L49.5443 7.41176L49.5443 7.41176L48.4292 7.92296L47.3254 8.41462C46.9595 8.57513 46.5959 8.73221 46.2348 8.88569L45.1596 9.33514L44.1017 9.76191L43.5799 9.96648L43.5799 9.96648L42.5519 10.3573C38.4834 11.8707 34.9541 12.7776 32.5522 12.7776C29.4976 12.7776 28.9061 10.5469 30.7323 8.3028L30.8856 8.12086C31.0719 7.90028 31.266 7.66695 31.4662 7.4225L32.0832 6.65738C33.7679 4.53667 35.7286 1.80736 37.0619-0.702353C37.552-1.63369 37.405-2.31994 36.3756-2.85914C22.0624-9.96672 12.7-23.7898 12.7-39.0343C12.7-62.808 36.0815-82.17 65.6393-82.17Z"/>
  </g>
  <g id="Ultralight-M" transform="matrix(1 0 0 1 486.369 1126)">
   <path d="M92.2879-55.5383C115.993-55.5383 134.745-40.0099 134.745-20.9433C134.745-8.71713 127.237 2.36899 115.757 8.06931C114.932 8.50175 114.814 9.05212 115.207 9.79906C116.465 12.1671 118.42 14.7788 119.891 16.5528L120.16 16.8753C121.772 18.723 121.34 20.61 118.824 20.61C117.54 20.61 115.854 20.2868 113.905 19.7116L113.163 19.4843C112.911 19.4047 112.656 19.3213 112.397 19.2342L111.611 18.9621C111.478 18.915 111.344 18.867 111.21 18.8181L110.394 18.5147C110.257 18.4625 110.118 18.4094 109.98 18.3555L109.139 18.0226C108.856 17.9085 108.571 17.7913 108.283 17.6712L107.414 17.3019C107.269 17.239 107.122 17.1753 106.976 17.1109L106.09 16.7166L106.09 16.7166L105.196 16.3066C105.046 16.237 104.896 16.1668 104.746 16.096L103.841 15.6641L103.841 15.6641L102.932 15.2186L102.932 15.2186L102.019 14.7603L102.019 14.7603L101.104 14.2902L101.104 14.2902L100.19 13.8089L100.19 13.8089C99.4428 13.3765 99.0103 13.3372 98.46 13.4158C96.4157 13.6124 94.3715 13.7696 92.2486 13.7696C68.5825 13.7696 49.8304-1.83744 49.8304-20.9433C49.8304-40.0099 68.5825-55.5383 92.2879-55.5383ZM63.9866-80.9C84.9309-80.9 102.674-70.8652 110.694-56.4628C105.059-58.3947 98.8448-59.4642 92.2879-59.4642C66.0462-59.4642 45.2879-42.3346 45.2879-21.3021C45.2879-12.3446 49.0376-4.08427 55.3609 2.45345C55.0936 2.53029 54.7971 2.66238 54.4416 2.86818L53.4775 3.37623L52.5132 3.87418L51.5501 4.36137L50.5893 4.83713L49.6324 5.30079L48.6804 5.75167L47.7349 6.1891L46.7971 6.61242L45.8683 7.02094L44.9498 7.41401L44.043 7.79094C43.7428 7.91382 43.4448 8.0339 43.1491 8.15107L42.2695 8.49372C41.8335 8.66057 41.4033 8.82061 40.9798 8.97347L40.1416 9.2695L39.7295 9.41012L39.7295 9.41012L38.9202 9.67616C38.6538 9.76141 38.3909 9.84318 38.1317 9.92137L37.3654 10.1451C35.2268 10.7478 33.3709 11.0835 31.9325 11.0835C28.9608 11.0835 28.3954 8.90432 30.1918 6.72106L30.7084 6.10463C30.7752 6.02384 30.8428 5.94167 30.911 5.85818L31.5427 5.07302C33.1601 3.03038 35.0267 0.423817 36.3014-1.97556C36.7762-2.87782 36.6338-3.54265 35.6365-4.06501C21.7701-10.9507 12.7-24.3422 12.7-39.1109C12.7-62.1424 35.3516-80.9 63.9866-80.9Z"/>
  </g>
  <g id="Black-S" transform="matrix(1 0 0 1 2858.75 696)">
   <path d="M95.0037-59.61C118.657-59.61 137.367-44.1159 137.367-25.0915C137.367-12.8923 129.875-1.83068 118.421 3.85703C117.598 4.28851 117.48 4.83767 117.872 5.58296C119.127 7.94572 121.078 10.5517 122.545 12.3217L122.815 12.6436C124.423 14.4872 123.991 16.37 121.481 16.37C120.28 16.37 118.726 16.0865 116.935 15.5783L116.206 15.3631C115.712 15.2118 115.202 15.0452 114.679 14.8642L113.884 14.5821C113.481 14.4358 113.072 14.2818 112.656 14.1205L111.817 13.7884C111.676 13.7314 111.534 13.6737 111.392 13.6153L110.532 13.2556C110.387 13.1942 110.242 13.1321 110.097 13.0692L109.219 12.6839C109.071 12.6184 108.924 12.5521 108.776 12.4852L107.883 12.0761L107.883 12.0761L106.984 11.6522C106.833 11.5804 106.683 11.508 106.532 11.435L105.624 10.9905L105.624 10.9905L104.713 10.5333C104.561 10.456 104.409 10.3783 104.257 10.3001L103.344 9.82538C103.192 9.74535 103.04 9.66487 102.888 9.58397C102.143 9.15249 101.711 9.11326 101.162 9.19171C99.1223 9.38784 97.0826 9.54474 94.9644 9.54474C71.3506 9.54474 52.64-6.02782 52.64-25.0915C52.64-44.1159 71.3506-59.61 95.0037-59.61ZM62.0834-78.66C76.048-78.66 88.5348-74.027 97.4585-66.5728C96.6453-66.604 95.827-66.62 95.0037-66.62C67.087-66.62 45.0037-48.2669 45.0037-25.732C45.0037-15.1621 49.8421-5.49825 57.8478 1.79191C56.8629 1.72282 55.8837 1.63642 54.9045 1.54226C54.2643 1.45081 53.7614 1.49654 52.8926 1.99951L51.4742 2.74301L51.4742 2.74301L50.5289 3.22578L50.0569 3.46304L48.6452 4.15729L48.6452 4.15729L47.7095 4.60466L46.7796 5.03886L45.8569 5.45922L44.7157 5.96415L44.7157 5.96415L43.5904 6.44505L42.7034 6.81156L41.8297 7.16115L40.9705 7.49313L40.5467 7.65231L40.5467 7.65231L39.7119 7.95661L39.3011 8.10156L39.3011 8.10156L38.4935 8.37663C38.2276 8.46497 37.965 8.54992 37.7059 8.63137L36.9395 8.86509L36.1957 9.07711C34.2435 9.61294 32.5465 9.91 31.2188 9.91C28.2923 9.91 27.7894 7.71518 29.6641 5.56609C31.4017 3.50845 33.8708 0.261951 35.4255-2.66447C35.8828-3.53325 35.7456-4.17341 34.7853-4.67639C21.4335-11.3066 12.7-24.2011 12.7-38.4217C12.7-60.5985 34.511-78.66 62.0834-78.66Z"/>
  </g>
  <g id="Heavy-S" transform="matrix(1 0 0 1 2563.61 696)">
   <path d="M92.7574-58.9321C115.907-58.9321 134.219-43.7679 134.219-25.1486C134.219-13.2092 126.886-2.38311 115.676 3.18349C114.87 3.60578 114.755 4.14325 115.139 4.87266C116.367 7.18511 118.276 9.73561 119.713 11.468L119.976 11.7829C121.55 13.5873 121.128 15.43 118.671 15.43C117.47 15.43 115.91 15.1406 114.109 14.6231L113.377 14.404C112.508 14.1346 111.59 13.8172 110.635 13.4582L109.809 13.1403C109.669 13.0857 109.529 13.0303 109.389 12.974L108.539 12.6272L108.539 12.6272L107.674 12.2621L107.674 12.2621L106.798 11.8796C106.651 11.8145 106.504 11.7486 106.356 11.6821L105.465 11.2752L105.465 11.2752L104.567 10.853L104.567 10.853L103.662 10.4166C103.511 10.3427 103.36 10.2682 103.208 10.1932L102.298 9.73684C101.994 9.58264 101.69 9.42641 101.386 9.2683L100.474 8.78847L100.474 8.78847C99.7445 8.36618 99.3222 8.32779 98.7847 8.40457C96.7884 8.59652 94.7921 8.75008 92.719 8.75008C69.6081 8.75008 51.2959-6.49087 51.2959-25.1486C51.2959-43.7679 69.6081-58.9321 92.7574-58.9321ZM61.4816-78.12C75.6403-78.12 88.261-73.2986 97.1165-65.591C95.682-65.6945 94.228-65.7463 92.7574-65.7463C65.402-65.7463 43.7627-47.803 43.7627-25.7712C43.7627-15.362 48.5733-5.85145 56.5207 1.29375C55.8092 1.23721 55.0997 1.17311 54.3902 1.10488C53.7578 1.01455 53.261 1.05971 52.4028 1.55656L51.9271 1.80845L50.9752 2.30464L50.0239 2.79011L49.0745 3.26415L48.1285 3.72605L47.1872 4.17508L46.2521 4.61055L45.3245 5.03172L44.4059 5.4379C44.2536 5.50431 44.1017 5.57006 43.9503 5.63514L43.0477 6.01748L42.1576 6.38303L41.2812 6.73109L40.8487 6.89834L40.8487 6.89834L39.9957 7.21881L39.1601 7.52C38.6091 7.71421 38.0706 7.89509 37.5464 8.06169L36.7711 8.30076C34.4791 8.98512 32.4964 9.37065 30.9931 9.37065C28.168 9.37065 27.6293 7.30001 29.3347 5.22446L29.4574 5.07968C31.1738 3.04711 33.6128-0.159825 35.1486-3.05059C35.6002-3.90878 35.4647-4.54113 34.5162-5.03798C21.3271-11.5874 12.7-24.3248 12.7-38.3721C12.7-60.2786 34.2452-78.12 61.4816-78.12Z"/>
  </g>
  <g id="Bold-S" transform="matrix(1 0 0 1 2265.57 696)">
   <path d="M96.3947-58.2C118.999-58.2 136.879-43.3931 136.879-25.2125C136.879-13.5544 129.72-2.98341 118.774 2.45203C117.986 2.86437 117.874 3.38917 118.249 4.1014C119.448 6.35937 121.312 8.84978 122.715 10.5413L122.972 10.8488C124.509 12.6107 124.097 14.41 121.698 14.41C119.822 14.41 117.047 13.6867 113.851 12.4846L113.044 12.1743L113.044 12.1743L112.221 11.8448C111.944 11.7319 111.665 11.616 111.384 11.4972L110.534 11.1321C110.391 11.0698 110.248 11.0069 110.105 10.9433L109.239 10.5537C109.094 10.4874 108.949 10.4206 108.803 10.3531L107.926 9.94087C107.779 9.87098 107.632 9.80051 107.485 9.72947L106.599 9.29659C106.452 9.22336 106.303 9.14959 106.155 9.07532L105.265 8.62366C105.117 8.5474 104.968 8.47067 104.82 8.39348L103.929 7.92496L103.929 7.92496C103.217 7.51261 102.805 7.47513 102.28 7.5501C100.331 7.73753 98.3814 7.88747 96.3572 7.88747C73.7907 7.88747 55.91-6.99439 55.91-25.2125C55.91-43.3931 73.7907-58.2 96.3947-58.2ZM60.8066-77.48C74.9097-77.48 87.4655-72.6292 96.2106-64.8943C69.497-64.8141 48.3947-47.3079 48.3947-25.8243C48.3947-15.4461 53.2988-5.98206 61.3666 1.04644L60.8511 1.0495C58.4458 1.0495 56.1295 0.871327 53.8133 0.648611C53.1897 0.559525 52.6997 0.604068 51.8534 1.09404L50.9149 1.58839L49.9763 2.07251L48.5712 2.778L48.5712 2.778L47.6382 3.23351L46.71 3.67633L45.7878 4.10577L44.8731 4.52111L43.7422 5.01942L43.7422 5.01942L42.6278 5.49323L42.1872 5.67559L41.316 6.02755L40.4592 6.3619C40.3176 6.41612 40.1767 6.46957 40.0365 6.52225L39.2038 6.82887L38.3887 7.11613C35.3004 8.17925 32.6343 8.8 30.74 8.8C27.9555 8.8 27.4233 6.76022 29.1018 4.71451L29.2255 4.5684C30.9181 2.56396 33.3235-0.598596 34.8379-3.44935C35.2834-4.29567 35.1497-4.91928 34.2143-5.40925C21.2077-11.868 12.7-24.4292 12.7-38.2821C12.7-59.8855 33.9471-77.48 60.8066-77.48Z"/>
  </g>
  <g id="Semibold-S" transform="matrix(1 0 0 1 1973.16 696)">
   <path d="M63.31-77.04C78.9902-77.04 92.8523-71.3403 102.086-62.383C97.7813-63.4277 93.2068-63.99 88.4523-63.99C62.2107-63.99 41.4523-46.8604 41.4523-25.8279C41.4523-12.8847 49.2812-1.39719 61.3911 5.54113C59.553 5.47501 57.7529 5.3275 55.9528 5.15441C55.2968 5.06069 54.7813 5.10755 53.8909 5.62303L52.9219 6.13356L51.9527 6.63375L50.7431 7.24338L50.7431 7.24338L49.5381 7.83439L48.3402 8.40542L48.3402 8.40542L47.1523 8.95508L45.9769 9.48203L45.9769 9.48203L44.8169 9.98489L43.6747 10.4623L43.6747 10.4623L42.5532 10.9129C42.1091 11.0876 41.6706 11.2555 41.2384 11.4162L40.3828 11.7281L39.5455 12.0202L39.1342 12.1585L39.1342 12.1585L38.327 12.4196C35.6719 13.2543 33.3796 13.73 31.6788 13.73C28.7463 13.73 28.1883 11.5795 29.961 9.42507L30.0855 9.27819C31.8662 7.16944 34.3967 3.8423 35.99 0.843191C36.4586-0.0471709 36.318-0.703227 35.3339-1.2187C21.6505-8.01356 12.7-21.2284 12.7-35.8022C12.7-58.5299 35.0528-77.04 63.31-77.04ZM88.4523-57.71C110.692-57.71 128.285-43.1417 128.285-25.254C128.285-13.7838 121.24-3.38314 110.471 1.96471C109.696 2.37041 109.586 2.88676 109.954 3.58751C111.135 5.8091 112.968 8.25937 114.348 9.92364L114.601 10.2262C116.114 11.9597 115.708 13.73 113.348 13.73C111.226 13.73 107.936 12.7897 104.192 11.2746L103.353 10.9286L103.353 10.9286L102.501 10.5646C102.358 10.5025 102.214 10.4396 102.07 10.3761L101.202 9.98666L101.202 9.98666L100.324 9.58144C100.03 9.44383 99.7353 9.30374 99.4395 9.16131L98.5496 8.72715C98.4009 8.65367 98.2521 8.57965 98.1032 8.50509L97.2086 8.05157C97.0594 7.97498 96.9101 7.89789 96.7609 7.82033L95.8656 7.34945L95.8656 7.34945C95.1648 6.94375 94.7591 6.90687 94.2428 6.98064C92.3249 7.16504 90.4071 7.31257 88.4154 7.31257C66.2126 7.31257 48.62-7.32949 48.62-25.254C48.62-43.1417 66.2126-57.71 88.4523-57.71Z"/>
  </g>
  <g id="Medium-S" transform="matrix(1 0 0 1 1673.56 696)">
   <path d="M94.7338-57.32C116.684-57.32 134.048-42.9413 134.048-25.2865C134.048-13.9656 127.095-3.70037 116.466 1.57787C115.701 1.97829 115.592 2.48791 115.956 3.17955C117.116 5.36364 118.916 7.7717 120.277 9.41391L120.543 9.73184C122.035 11.4427 121.635 13.19 119.305 13.19C117.987 13.19 116.211 12.8221 114.154 12.1763L113.417 11.937L113.417 11.937L112.658 11.6755C112.145 11.494 111.619 11.2982 111.082 11.0894L110.269 10.7666C109.995 10.6558 109.719 10.5419 109.44 10.4251L108.599 10.0658L108.599 10.0658L107.747 9.68957L107.747 9.68957L106.885 9.29731C106.741 9.23065 106.596 9.16336 106.451 9.09545L105.578 8.68078L105.578 8.68078L104.7 8.25228L104.7 8.25228L103.818 7.81081L103.818 7.81081L102.934 7.35726L102.934 7.35726L102.051 6.89251L102.051 6.89251C101.359 6.4921 100.958 6.45569 100.449 6.5285C98.556 6.71051 96.6631 6.85611 94.6974 6.85611C72.7836 6.85611 55.42-7.59534 55.42-25.2865C55.42-42.9413 72.7836-57.32 94.7338-57.32ZM60.0148-76.75C74.6745-76.75 87.6344-71.4211 96.2666-63.0466C95.757-63.0583 95.2464-63.065 94.7338-63.065C69.0505-63.065 48.7338-46.3433 48.7338-25.8115C48.7338-15.5937 53.7448-6.30526 61.9303 0.456818C61.3105 0.477211 60.6861 0.487057 60.0586 0.487057C57.6929 0.487057 55.4148 0.311817 53.1366 0.0927672C52.5233 0.0051471 52.0414 0.0489572 51.209 0.530867L50.2682 1.02633L49.3273 1.51134L48.3878 1.98516L47.451 2.44706L46.5183 2.89631L45.5913 3.33218L44.4426 3.85707L44.4426 3.85707L43.3078 4.35847L42.8584 4.55213L42.8584 4.55213L41.9682 4.92712L41.0909 5.28507L40.2277 5.62523L39.802 5.78842L39.802 5.78842L38.9629 6.10053C38.6861 6.20134 38.4123 6.29888 38.1417 6.39303L37.3397 6.66519C37.0757 6.75243 36.8152 6.83617 36.5584 6.91626L35.7992 7.14552C33.681 7.76351 31.8467 8.11 30.4431 8.11C27.7044 8.11 27.181 6.10379 28.8319 4.09175L29.1652 3.69579L29.1652 3.69579L29.6076 3.15818C29.6832 3.06512 29.7597 2.97039 29.837 2.87409L30.4693 2.07249C31.865 0.272199 33.3978-1.91276 34.4736-3.93775C34.9117-4.77014 34.7802-5.38348 33.8602-5.86539C21.0677-12.2178 12.7-24.5723 12.7-38.1972C12.7-59.445 33.5974-76.75 60.0148-76.75Z"/>
  </g>
  <g id="Regular-S" transform="matrix(1 0 0 1 1382.18 696)">
   <path d="M84.7636-56.78C106.334-56.78 123.397-42.6501 123.397-25.3008C123.397-14.1758 116.565-4.08812 106.119 1.09879C105.368 1.49228 105.261 1.99309 105.619 2.67275C106.759 4.81906 108.528 7.18545 109.865 8.79924L110.126 9.11168C111.592 10.793 111.199 12.51 108.91 12.51C107.04 12.51 104.234 11.757 101.013 10.517L100.2 10.197L100.2 10.197L99.3705 9.85768C99.2311 9.79956 99.0912 9.74066 98.9507 9.68102L98.1018 9.31433L98.1018 9.31433L97.2419 8.93058L97.2419 8.93058L96.3729 8.53069L96.3729 8.53069L95.4965 8.11559L95.4965 8.11559L94.6146 7.68619L94.6146 7.68619L93.729 7.24342L93.729 7.24342L92.8414 6.78821L92.8414 6.78821L91.9537 6.32148L91.9537 6.32148C91.274 5.92799 90.8805 5.89221 90.3797 5.96376C88.5196 6.14262 86.6595 6.2857 84.7278 6.2857C63.1932 6.2857 46.13-7.9157 46.13-25.3008C46.13-42.6501 63.1932-56.78 84.7636-56.78ZM59.5242-76.31C75.1881-76.31 88.8909-70.1623 97.3596-60.7109C93.3728-61.6382 89.1481-62.135 84.7636-62.135C59.6386-62.135 39.7636-45.8211 39.7636-25.7901C39.7636-15.8835 44.6049-6.87227 52.5243-0.285726C52.0036-0.336439 51.5447-0.25609 50.8097 0.169463L49.8604 0.669301L48.911 1.15837L47.9631 1.6359C47.6475 1.79306 47.3324 1.94818 47.018 2.10112L45.8431 2.66417L45.8431 2.66417L44.6781 3.20528L43.7551 3.62137L43.2972 3.82355L43.2972 3.82355L42.1642 4.31113L42.1642 4.31113L41.0504 4.77197L40.1753 5.12038L39.7435 5.28757L39.7435 5.28757L38.8925 5.60743L38.0595 5.9073C34.9026 7.01748 32.1752 7.67 30.2591 7.67C27.5488 7.67 27.0308 5.68459 28.6646 3.69342L28.785 3.55121C30.4325 1.6002 32.7737-1.47805 34.2478-4.25282C34.6813-5.07658 34.5513-5.68356 33.6408-6.16047C20.9809-12.447 12.7-24.6734 12.7-38.157C12.7-59.1845 33.3807-76.31 59.5242-76.31Z"/>
  </g>
  <g id="Light-S" transform="matrix(1 0 0 1 1087.85 696)">
   <path d="M60.617-74.65C78.2547-74.65 93.4626-67.0331 101.779-55.6767C95.8307-58.3312 88.991-59.84 81.6741-59.84C58.2241-59.84 39.6741-44.3418 39.6741-25.3124C39.6741-13.3212 47.0096-2.71094 58.2764 3.51337C56.7169 3.44592 55.1841 3.31812 53.6513 3.17073C53.0301 3.082 52.5421 3.12637 51.6991 3.61441L50.7464 4.11618L49.7935 4.60736L48.842 5.08721L47.4204 5.78412L47.4204 5.78412L46.4785 6.2324L45.5431 6.66676L44.6156 7.08645L44.1552 7.29056L43.2422 7.68685L42.3407 8.06662C42.0423 8.19037 41.746 8.31124 41.4522 8.42912L40.5781 8.77361L39.7199 9.09935L38.879 9.4056C38.7403 9.45498 38.6025 9.50351 38.4655 9.55118L37.6533 9.8268L36.862 10.0811L36.0932 10.3132C33.9481 10.9391 32.0903 11.29 30.6689 11.29C27.8954 11.29 27.3653 9.25826 29.0372 7.22061L29.1604 7.07508C30.8463 5.07854 33.2422 1.92844 34.7507-0.911084C35.1944-1.75407 35.0613-2.37521 34.1295-2.86326C21.1742-9.29656 12.7-21.8082 12.7-35.6065C12.7-57.1248 33.8633-74.65 60.617-74.65ZM81.6741-54.97C102.301-54.97 118.618-41.458 118.618-24.8674C118.618-14.2288 112.085-4.5823 102.096 0.377796C101.378 0.754079 101.275 1.23298 101.617 1.88293C102.707 3.93538 104.399 6.19829 105.677 7.74151L105.927 8.04028C107.33 9.64804 106.954 11.29 104.764 11.29C103.393 11.29 101.495 10.8664 99.2948 10.1338L98.5506 9.87839C98.0474 9.70067 97.5306 9.50833 97.0025 9.30262L96.2024 8.98419L96.2024 8.98419L95.3873 8.64666C95.2503 8.58887 95.1127 8.53032 94.9747 8.47103L94.1406 8.10662C94.0006 8.04446 93.8603 7.98161 93.7195 7.91808L92.8706 7.52891L92.8706 7.52891L92.0142 7.12442L92.0142 7.12442L91.152 6.70554C91.008 6.63459 90.8638 6.56307 90.7194 6.49101L89.8522 6.05234L89.8522 6.05234L88.9838 5.60165C88.8391 5.52559 88.6945 5.44906 88.5499 5.3721C87.8999 4.99581 87.5236 4.96161 87.0447 5.03002C85.2659 5.20106 83.4871 5.33789 81.6399 5.33789C61.047 5.33789 44.73-8.2425 44.73-24.8674C44.73-41.458 61.047-54.97 81.6741-54.97Z"/>
  </g>
  <g id="Thin-S" transform="matrix(1 0 0 1 794.463 696)">
   <path d="M77.2981-52.5324C96.6621-52.5324 111.98-39.8479 111.98-24.2732C111.98-14.2861 105.846-5.23032 96.4695-0.573972C95.7951-0.220732 95.6988 0.228847 96.0199 0.838989C97.0389 2.75719 98.6175 4.87121 99.8155 6.31945L100.066 6.61929C101.383 8.12859 101.029 9.67 98.9743 9.67C97.8033 9.67 96.2232 9.34099 94.393 8.76403L93.6952 8.5362L93.6952 8.5362L92.9758 8.28608L92.9758 8.28608L92.2367 8.01462C92.112 7.96765 91.9865 7.91983 91.8604 7.87118L91.0951 7.56947C90.9663 7.51758 90.8368 7.4649 90.7068 7.41145L89.9196 7.08165C89.7874 7.02519 89.6546 6.96801 89.5213 6.91011L88.7164 6.55435L88.7164 6.55435L87.9021 6.18246L87.9021 6.18246L87.08 5.79541L87.08 5.79541L86.2523 5.39414L86.2523 5.39414L85.4205 4.97959L85.4205 4.97959L84.5868 4.55273L84.5868 4.55273L83.7528 4.11449L83.7528 4.11449C83.1427 3.76125 82.7894 3.72914 82.3398 3.79336C80.67 3.95393 79.0001 4.08238 77.266 4.08238C57.9341 4.08238 42.6164-8.66639 42.6164-24.2732C42.6164-39.8479 57.9341-52.5324 77.2981-52.5324ZM54.6237-72.46C71.5657-72.46 85.9455-64.4273 92.5965-52.8513C87.9317-54.5073 82.7619-55.4271 77.2981-55.4271C56.0841-55.4271 39.3028-41.562 39.3028-24.5377C39.3028-16.8614 42.7006-9.81773 48.3679-4.39156C47.8966-4.43878 47.4845-4.36873 46.8212-3.9847L45.9181-3.50952L45.0151-3.04527L44.1136-2.59278L43.2154-2.15288L42.0997-1.62196L42.0997-1.62196L40.9947-1.1136L40.1205-0.724249C39.8308-0.597136 39.5428-0.47274 39.2569-0.351198L38.4054 0.0047277L37.3605 0.424293L37.3605 0.424293L36.3403 0.814196L35.9225 0.96778L35.9225 0.96778L35.1024 1.25813C32.4045 2.18783 30.0754 2.73084 28.4214 2.73084C26.0024 2.73084 25.5339 0.964348 26.9801-0.812802L27.1016-0.956884C28.5766-2.7037 30.6728-5.45979 31.9926-7.94416C32.3808-8.6817 32.2644-9.22516 31.4492-9.65216C20.1143-15.2808 12.7-26.2275 12.7-38.3C12.7-57.1268 31.2163-72.46 54.6237-72.46Z"/>
  </g>
  <g id="Ultralight-S" transform="matrix(1 0 0 1 499.222 696)">
   <path d="M75.5251-51.26C94.2377-51.26 109.04-39.0022 109.04-23.9514C109.04-14.3003 103.113-5.54909 94.0515-1.04938C93.3999-0.708018 93.3068-0.273562 93.6171 0.316056C94.6019 2.16973 96.1273 4.21264 97.285 5.61216L97.5272 5.90191C98.7995 7.36044 98.4582 8.85 96.4721 8.85C95.2853 8.85 93.6637 8.50028 91.7844 7.89121L91.0679 7.65083L91.0679 7.65083L90.3293 7.38719L90.3293 7.38719L89.5707 7.10135C89.4427 7.05192 89.314 7.00161 89.1846 6.95044L88.3998 6.6333C88.2678 6.57879 88.1351 6.52346 88.0018 6.46733L87.1956 6.12127L87.1956 6.12127L86.3777 5.75724L86.3777 5.75724L85.5502 5.37631L85.5502 5.37631L84.7151 4.97954C84.5754 4.91215 84.4355 4.84414 84.2954 4.77554L83.4528 4.35699L83.4528 4.35699L82.6079 3.92525L82.6079 3.92525L81.7627 3.48137L81.7627 3.48137C81.173 3.14002 80.8317 3.10898 80.3972 3.17105C78.7835 3.32621 77.1699 3.45034 75.4941 3.45034C56.8125 3.45034 42.01-8.86957 42.01-23.9514C42.01-39.0022 56.8125-51.26 75.5251-51.26ZM53.1847-71.28C69.8119-71.28 83.8834-63.2681 90.1623-51.795C85.6872-53.3461 80.7439-54.205 75.5251-54.205C54.8668-54.205 38.5251-40.746 38.5251-24.2205C38.5251-17.1634 41.493-10.6571 46.4953-5.5138C46.2527-5.45959 45.9844-5.34863 45.65-5.15504L44.7594-4.68652L43.424-4.00468L43.424-4.00468L42.3154-3.45751L42.3154-3.45751L40.776-2.72693L40.776-2.72693L39.9062-2.32958L39.0455-1.94794L38.1957-1.58285L37.7754-1.40677L36.5353-0.90571L36.5353-0.90571L35.728-0.595364L34.9382-0.304966L34.5504-0.167513L34.5504-0.167513L33.79 0.0913712L33.0513 0.328185C30.9904 0.967089 29.2105 1.33 27.8818 1.33C25.5475 1.33 25.0941-0.373372 26.4869-2.08825L26.6072-2.23115C28.0317-3.91801 30.0559-6.5795 31.3304-8.9786C31.7053-9.69083 31.5928-10.2156 30.8056-10.628C19.8598-16.0634 12.7-26.6344 12.7-38.2925C12.7-56.4731 30.5807-71.28 53.1847-71.28Z"/>
  </g>
 </g>
</svg>
