<?xml version="1.0" encoding="UTF-8"?>
<svg width="3300px" height="2200px" viewBox="0 0 3300 2200" version="1.1" xmlns="http://www.w3.org/2000/svg" xmlns:xlink="http://www.w3.org/1999/xlink">
    <title>bubble.left.and.bubble.right.fill</title>
    <g id="App-Symbols" stroke="none" stroke-width="1" fill="none" fill-rule="evenodd">
        <g id="bubble.left.and.bubble.right.fill">
            <g id="Notes">
                <rect id="artboard" fill="#FFFFFF" fill-rule="nonzero" x="0" y="0" width="3300" height="2200"></rect>
                <line x1="263" y1="292" x2="3036" y2="292" id="Path" stroke="#000000" stroke-width="0.5"></line>
                <text id="Weight/Scale-Variations" fill="#000000" fill-rule="nonzero" font-family="Helvetica-Bold, Helvetica" font-size="13" font-weight="bold">
                    <tspan x="263" y="322">Weight/Scale Variations</tspan>
                </text>
                <text id="Ultralight" fill="#000000" fill-rule="nonzero" font-family="Helvetica" font-size="13" font-weight="normal">
                    <tspan x="533.711" y="322">Ultralight</tspan>
                </text>
                <text id="Thin" fill="#000000" fill-rule="nonzero" font-family="Helvetica" font-size="13" font-weight="normal">
                    <tspan x="843.422" y="322">Thin</tspan>
                </text>
                <text id="Light" fill="#000000" fill-rule="nonzero" font-family="Helvetica" font-size="13" font-weight="normal">
                    <tspan x="1138.63" y="322">Light</tspan>
                </text>
                <text id="Regular" fill="#000000" fill-rule="nonzero" font-family="Helvetica" font-size="13" font-weight="normal">
                    <tspan x="1426.84" y="322">Regular</tspan>
                </text>
                <text id="Medium" fill="#000000" fill-rule="nonzero" font-family="Helvetica" font-size="13" font-weight="normal">
                    <tspan x="1723.06" y="322">Medium</tspan>
                </text>
                <text id="Semibold" fill="#000000" fill-rule="nonzero" font-family="Helvetica" font-size="13" font-weight="normal">
                    <tspan x="2015.77" y="322">Semibold</tspan>
                </text>
                <text id="Bold" fill="#000000" fill-rule="nonzero" font-family="Helvetica" font-size="13" font-weight="normal">
                    <tspan x="2326.48" y="322">Bold</tspan>
                </text>
                <text id="Heavy" fill="#000000" fill-rule="nonzero" font-family="Helvetica" font-size="13" font-weight="normal">
                    <tspan x="2618.19" y="322">Heavy</tspan>
                </text>
                <text id="Black" fill="#000000" fill-rule="nonzero" font-family="Helvetica" font-size="13" font-weight="normal">
                    <tspan x="2917.4" y="322">Black</tspan>
                </text>
                <line x1="263" y1="1903" x2="3036" y2="1903" id="Path" stroke="#000000" stroke-width="0.5"></line>
                <g id="Group" transform="translate(264.000000, 1918.000000)" fill="#000000" fill-rule="nonzero">
                    <path d="M8.24805,15.830078 C12.5547,15.830078 16.1387,12.25586 16.1387,7.94922 C16.1387,3.6426 12.5449,0.0684 8.23828,0.0684 C3.94141,0.0684 0.36719,3.6426 0.36719,7.94922 C0.36719,12.25586 3.95117,15.830078 8.24805,15.830078 Z M8.24805,14.345703 C4.70312,14.345703 1.87109,11.50391 1.87109,7.94922 C1.87109,4.3945 4.69336,1.5527 8.23828,1.5527 C11.793,1.5527 14.6348,4.3945 14.6445252,7.94922 C14.6543,11.50391 11.8027,14.345703 8.24805,14.345703 Z M8.22852,11.37695 C8.69727,11.37695 8.9707,11.06445 8.9707,10.54688 L8.9707,8.68164 L11.002,8.68164 C11.5,8.68164 11.832,8.42773 11.832,7.95898 C11.832,7.48047 11.5195,7.2168 11.002,7.2168 L8.9707,7.2168 L8.9707,5.18555 C8.9707,4.668 8.69727,4.3457 8.22852,4.3457 C7.75977,4.3457 7.50586,4.6875 7.50586,5.18555 L7.50586,7.2168 L5.49414,7.2168 C4.97656,7.2168 4.64453,7.48047 4.64453,7.95898 C4.64453,8.42773 4.99609,8.68164 5.49414,8.68164 L7.50586,8.68164 L7.50586,10.54688 C7.50586,11.04492 7.75977,11.37695 8.22852,11.37695 Z" id="Shape"></path>
                </g>
                <g id="Group" transform="translate(282.506000, 1915.000000)" fill="#000000" fill-rule="nonzero">
                    <path d="M10.709,20.91016 C16.1582,20.91016 20.6699,16.38867 20.6699,10.94922 C20.6699,5.5 16.1484,0.9883 10.6992,0.9883 C5.25977,0.9883 0.74805,5.5 0.74805,10.94922 C0.74805,16.38867 5.26953,20.91016 10.709,20.91016 Z M10.709,19.25 C6.09961,19.25 2.41797,15.55859 2.41797,10.94922 C2.41797,6.3398 6.08984,2.6484 10.6992,2.6484 C15.3086,2.6484 19,6.3398 19.009819,10.94922 C19.0195,15.55859 15.3184,19.25 10.709,19.25 Z M10.6797,15.33398 C11.207,15.33398 11.5098,14.98242 11.5098,14.40625 L11.5098,11.76953 L14.3223,11.76953 C14.8691,11.76953 15.25,11.48633 15.25,10.96875 C15.25,10.44141 14.8887,10.13867 14.3223,10.13867 L11.5098,10.13867 L11.5098,7.3164 C11.5098,6.75 11.207,6.3887 10.6797,6.3887 C10.1621,6.3887 9.8789,6.7695 9.8789,7.3164 L9.8789,10.13867 L7.07617,10.13867 C6.50977,10.13867 6.13867,10.44141 6.13867,10.96875 C6.13867,11.48633 6.5293,11.76953 7.07617,11.76953 L9.8789,11.76953 L9.8789,14.40625 C9.8789,14.96289 10.1621,15.33398 10.6797,15.33398 Z" id="Shape"></path>
                </g>
                <g id="Group" transform="translate(306.924000, 1913.000000)" fill="#000000" fill-rule="nonzero">
                    <path d="M12.9707,25.66406 C19.9336,25.66406 25.6953,19.9023438 25.6953,12.94922 C25.6953,5.9863 19.9238,0.2246 12.9609,0.2246 C6.00781,0.2246 0.25586,5.9863 0.25586,12.94922 C0.25586,19.9023438 6.01758,25.66406 12.9707,25.66406 Z M12.9707,23.84766 C6.93555,23.84766 2.08203,18.98438 2.08203,12.94922 C2.08203,6.9043 6.92578,2.0508 12.9609,2.0508 C19.0059,2.0508 23.8594,6.9043 23.8691148,12.94922 C23.8789,18.98438 19.0156,23.84766 12.9707,23.84766 Z M12.9414,18.61328 C13.5176,18.61328 13.8594,18.22266 13.8594,17.61719 L13.8594,13.86719 L17.7754,13.86719 C18.3711,13.86719 18.7812,13.53516 18.7812,12.97852 C18.7812,12.40234 18.3906,12.06055 17.7754,12.06055 L13.8594,12.06055 L13.8594,8.1348 C13.8594,7.5195 13.5176,7.1289 12.9414,7.1289 C12.375,7.1289 12.0527,7.5391 12.0527,8.1348 L12.0527,12.06055 L8.1465,12.06055 C7.53125,12.06055 7.13086,12.40234 7.13086,12.97852 C7.13086,13.53516 7.55078,13.86719 8.1465,13.86719 L12.0527,13.86719 L12.0527,17.61719 C12.0527,18.20312 12.375,18.61328 12.9414,18.61328 Z" id="Shape"></path>
                </g>
                <text id="Design-Variations" fill="#000000" fill-rule="nonzero" font-family="Helvetica-Bold, Helvetica" font-size="13" font-weight="bold">
                    <tspan x="263" y="1953">Design Variations</tspan>
                </text>
                <text id="Symbols-are-supported-in-up-to-nine-weights-and-three-scales." fill="#000000" fill-rule="nonzero" font-family="Helvetica" font-size="13" font-weight="normal">
                    <tspan x="263" y="1971">Symbols are supported in up to nine weights and three scales.</tspan>
                </text>
                <text id="For-optimal-layout-with-text-and-other-symbols,-vertically-align" fill="#000000" fill-rule="nonzero" font-family="Helvetica" font-size="13" font-weight="normal">
                    <tspan x="263" y="1989">For optimal layout with text and other symbols, vertically align</tspan>
                </text>
                <text id="symbols-with-the-adjacent-text." fill="#000000" fill-rule="nonzero" font-family="Helvetica" font-size="13" font-weight="normal">
                    <tspan x="263" y="2007">symbols with the adjacent text.</tspan>
                </text>
                <line x1="776" y1="1919" x2="776" y2="1933" id="Path" stroke="#00AEEF" stroke-width="0.5"></line>
                <g id="Group" transform="translate(778.000000, 1918.000000)" fill="#000000" fill-rule="nonzero">
                    <path d="M1.31055,15.126953 C1.82812,15.126953 2.08203,14.9316406 2.26758,14.394531 L3.52734,10.9375 L9.2891,10.9375 L10.5488,14.394531 C10.7344,14.9316406 10.9883,15.126953 11.4961,15.126953 C12.0137,15.126953 12.3457,14.814453 12.3457,14.326172 C12.3457,14.160156 12.3164,14.013672 12.2383,13.79883 L7.6582,1.6113 C7.43359,1.0059 7.0332,0.7129 6.4082,0.7129 C5.80273,0.7129 5.39258,1.0059 5.17773,1.6016 L0.59766,13.80859 C0.51953,14.023438 0.49023,14.169922 0.49023,14.335938 C0.49023,14.824219 0.80273,15.126953 1.31055,15.126953 Z M4.00586,9.46289 L6.37891,2.8906 L6.42773,2.8906 L8.8008,9.46289 L4.00586,9.46289 Z" id="Shape"></path>
                </g>
                <line x1="792.836" y1="1919" x2="792.836" y2="1933" id="Path" stroke="#00AEEF" stroke-width="0.5"></line>
                <text id="Margins" fill="#000000" fill-rule="nonzero" font-family="Helvetica-Bold, Helvetica" font-size="13" font-weight="bold">
                    <tspan x="776" y="1953">Margins</tspan>
                </text>
                <text id="Leading-and-trailing-margins-on-the-left-and-right-side-of-each-symbol" fill="#000000" fill-rule="nonzero" font-family="Helvetica" font-size="13" font-weight="normal">
                    <tspan x="776" y="1971">Leading and trailing margins on the left and right side of each symbol</tspan>
                </text>
                <text id="can-be-adjusted-by-modifying-the-x-location-of-the-margin-guidelines." fill="#000000" fill-rule="nonzero" font-family="Helvetica" font-size="13" font-weight="normal">
                    <tspan x="776" y="1989">can be adjusted by modifying the x-location of the margin guidelines.</tspan>
                </text>
                <text id="Modifications-are-automatically-applied-proportionally-to-all" fill="#000000" fill-rule="nonzero" font-family="Helvetica" font-size="13" font-weight="normal">
                    <tspan x="776" y="2007">Modifications are automatically applied proportionally to all</tspan>
                </text>
                <text id="scales-and-weights." fill="#000000" fill-rule="nonzero" font-family="Helvetica" font-size="13" font-weight="normal">
                    <tspan x="776" y="2025">scales and weights.</tspan>
                </text>
                <g id="Group" transform="translate(1291.000000, 1914.000000)" fill="#000000" fill-rule="nonzero">
                    <path d="M0.8418,20.86523 L2.54102,22.57422 C3.40039,23.44336 4.38672,23.38477 5.31445,22.35938 L15.4902,11.14844 C15.7539,11.23633 16.0273,11.2168 16.3398,11.1582 L17.4043,10.96289 L18.0684,11.63672 L18.0293,12.19336 C17.9902,12.69141 18.1172,13.07227 18.6055,13.55078 L19.3672,14.29297 C19.8457,14.77148 20.4609,14.80078 20.9297,14.33203 L23.8398,11.41211 C24.3086,10.94336 24.2891,10.34766 23.8105,9.86914 L23.0391,9.10742 C22.5605,8.6289 22.1895,8.4727 21.7109,8.5117 L21.1348,8.5605 L20.4902,7.9258 L20.7344,6.8027 C20.8613,6.2363 20.7051,5.7969 20.1191,5.2109 L17.9219,3.0234 C14.582,-0.2969 10.1484,-0.2188 7.25781,2.6719 C6.83789,3.082 6.80859,3.6582 7.04297,4.0488 C7.27734,4.4102 7.73633,4.6445 8.3809,4.4785 C9.8457,4.1367 11.3691,4.0781 12.7949,5.0156 L12.209,6.4707 C12.0137,6.9492 11.9844,7.3496 12.1113,7.7109 L1.04688,18.101562 C0.06055,19.0195312 -0.01758,19.996094 0.8418,20.86523 Z M8.752,3.043 C11.1836,1.2656 14.4746,1.5684 16.7012,3.7949 L19.1328,6.207 C19.3672,6.4414 19.4062,6.627 19.3379,6.9688 L19.0156,8.4531 L20.5195,9.9375 L21.5059,9.87891 C21.7598,9.86914 21.8379,9.88867 22.0332,10.08398 L22.6094,10.66016 L20.168,13.10156 L19.5918,12.52539 C19.3965,12.33008 19.3672,12.25195 19.377,11.98828 L19.4453,11.01172 L17.9512,9.52734 L16.4277,9.78125 C16.1055,9.84961 15.959,9.82031 15.7148,9.58594 L13.7129,7.584 C13.459,7.3496 13.4297,7.1836 13.5859,6.8125 L14.4648,4.7227 C12.9023,3.2676 10.8711,2.6426 8.8398,3.2383 C8.6836,3.2773 8.625,3.1504 8.752,3.043 Z M3.27344,21.3047 L2.10156,20.14258 C1.63281,19.683594 1.74023,19.341797 2.14062,18.9804688 L12.9512,8.8047 L14.416,10.28906 L4.42578,21.27539 C4.07422,21.67578 3.74219,21.77344 3.27344,21.3047 Z" id="Shape"></path>
                </g>
                <text id="Exporting" fill="#000000" fill-rule="nonzero" font-family="Helvetica-Bold, Helvetica" font-size="13" font-weight="bold">
                    <tspan x="1289" y="1953">Exporting</tspan>
                </text>
                <text id="Symbols-should-be-outlined-when-exporting-to-ensure-the" fill="#000000" fill-rule="nonzero" font-family="Helvetica" font-size="13" font-weight="normal">
                    <tspan x="1289" y="1971">Symbols should be outlined when exporting to ensure the</tspan>
                </text>
                <text id="design-is-preserved-when-submitting-to-Xcode." fill="#000000" fill-rule="nonzero" font-family="Helvetica" font-size="13" font-weight="normal">
                    <tspan x="1289" y="1989">design is preserved when submitting to Xcode.</tspan>
                </text>
                <text id="template-version" fill="#000000" fill-rule="nonzero" font-family="Helvetica" font-size="13" font-weight="normal">
                    <tspan x="2952" y="1933">Template v.2.0</tspan>
                </text>
                <text id="Requires-Xcode-12-or-greater" fill="#000000" fill-rule="nonzero" font-family="Helvetica" font-size="13" font-weight="normal">
                    <tspan x="2865" y="1951">Requires Xcode 12 or greater</tspan>
                </text>
                <text id="Generated-from-bubble.left.and.bubble.right.fill" fill="#000000" fill-rule="nonzero" font-family="Helvetica" font-size="13" font-weight="normal">
                    <tspan x="2768" y="1969">Generated from bubble.left.and.bubble.right.fill</tspan>
                </text>
                <text id="Typeset-at-100-points" fill="#000000" fill-rule="nonzero" font-family="Helvetica" font-size="13" font-weight="normal">
                    <tspan x="2912" y="1987">Typeset at 100 points</tspan>
                </text>
                <text id="Small" fill="#000000" fill-rule="nonzero" font-family="Helvetica" font-size="13" font-weight="normal">
                    <tspan x="263" y="726">Small</tspan>
                </text>
                <text id="Medium" fill="#000000" fill-rule="nonzero" font-family="Helvetica" font-size="13" font-weight="normal">
                    <tspan x="263" y="1156">Medium</tspan>
                </text>
                <text id="Large" fill="#000000" fill-rule="nonzero" font-family="Helvetica" font-size="13" font-weight="normal">
                    <tspan x="263" y="1586">Large</tspan>
                </text>
            </g>
            <g id="Guides" transform="translate(263.000000, 625.000000)">
                <g id="H-reference" transform="translate(76.000000, 0.000000)" fill="#27AAE1" fill-rule="nonzero">
                    <path d="M0.976562,71 L3.66211,71 L12.9883,46.5371 L45.7031,46.5371 L55.0781,71 L57.7148,71 L30.6152,0.541 L28.125,0.541 L0.976562,71 Z M29.2969,3.8613 L29.3945,3.8613 L44.873,44.291 L13.8672,44.291 L29.2969,3.8613 Z" id="Shape"></path>
                </g>
                <line x1="0" y1="71" x2="2773" y2="71" id="Baseline-S" stroke="#27AAE1" stroke-width="0.5"></line>
                <line x1="0" y1="0.541" x2="2773" y2="0.541" id="Capline-S" stroke="#27AAE1" stroke-width="0.5"></line>
                <g id="H-reference" transform="translate(76.000000, 430.000000)" fill="#27AAE1" fill-rule="nonzero">
                    <path d="M0.976562,71 L3.66211,71 L12.9883,46.5371 L45.7031,46.5371 L55.0781,71 L57.7148,71 L30.6152,0.541 L28.125,0.541 L0.976562,71 Z M29.2969,3.8613 L29.3945,3.8613 L44.873,44.291 L13.8672,44.291 L29.2969,3.8613 Z" id="Shape"></path>
                </g>
                <line x1="0" y1="501" x2="2773" y2="501" id="Baseline-M" stroke="#27AAE1" stroke-width="0.5"></line>
                <line x1="0" y1="430.54" x2="2773" y2="430.54" id="Capline-M" stroke="#27AAE1" stroke-width="0.5"></line>
                <g id="H-reference" transform="translate(76.000000, 860.000000)" fill="#27AAE1" fill-rule="nonzero">
                    <path d="M0.976562,71 L3.66211,71 L12.9883,46.5371 L45.7031,46.5371 L55.0781,71 L57.7148,71 L30.6152,0.541 L28.125,0.541 L0.976562,71 Z M29.2969,3.8613 L29.3945,3.8613 L44.873,44.291 L13.8672,44.291 L29.2969,3.8613 Z" id="Shape"></path>
                </g>
                <line x1="0" y1="931" x2="2773" y2="931" id="Baseline-L" stroke="#27AAE1" stroke-width="0.5"></line>
                <line x1="0" y1="860.54" x2="2773" y2="860.54" id="Capline-L" stroke="#27AAE1" stroke-width="0.5"></line>
                <line x1="1105.4" y1="405.79" x2="1105.4" y2="525.12" id="left-margin" stroke="#00AEEF" stroke-width="0.5"></line>
                <line x1="1268.29" y1="405.79" x2="1268.29" y2="525.12" id="right-margin" stroke="#00AEEF" stroke-width="0.5"></line>
            </g>
            <g id="Symbols" transform="translate(481.000000, 617.000000)" fill="#000000" fill-rule="nonzero">
                <g id="Black-L" transform="translate(2352.430000, 832.000000)">
                    <path d="M133.401795,31.6132853 C171.722558,31.6132853 202.035998,56.7156097 202.035998,87.537451 C202.035998,107.30156 189.897912,125.222713 171.341257,134.43749 C170.006703,135.136542 169.816053,136.026245 170.451554,137.233698 C172.612261,141.30091 176.043971,145.812974 178.458878,148.672732 C181.064436,151.659591 180.365384,154.71 176.298172,154.71 C170.070253,154.71 157.995718,150.007286 146.175382,143.715817 C144.967929,143.016765 144.268877,142.953215 143.379174,143.080316 C140.074564,143.398066 136.769955,143.652267 133.338244,143.652267 C95.0810311,143.652267 64.7675913,118.422842 64.7675913,87.537451 C64.7675913,56.7156097 95.0810311,31.6132853 133.401795,31.6132853 Z M80.0669938,0.75 C102.691374,0.75 122.921418,8.25605351 137.378992,20.332745 C136.061391,20.2821079 134.735703,20.2562443 133.401795,20.2562443 C88.1734457,20.2562443 52.3957965,49.9905059 52.3957965,86.4996625 C52.3957965,103.624184 60.234713,119.280813 73.2048342,131.09174 C71.6092439,130.979806 70.0227957,130.839828 68.4363475,130.687284 C67.3992198,130.539123 66.5843338,130.613204 65.1768033,131.42809 L63.6449472,132.23517 C63.389555,132.368352 63.1341516,132.500852 62.878782,132.632648 L61.3473323,133.414789 C61.0922789,133.543676 60.8373496,133.671813 60.5825898,133.799176 L59.0564243,134.553888 C58.8025226,134.678065 58.5488805,134.801422 58.2955433,134.923937 L56.7795398,135.648731 L55.2730208,136.352196 L53.7781541,137.033226 L52.2971077,137.690714 C52.0515387,137.798272 51.8066359,137.904803 51.5624445,138.010284 L50.1061932,138.630384 L48.6691818,139.224177 L47.2535783,139.790554 L45.8615504,140.328411 C45.6316309,140.415615 45.402784,140.501585 45.1750549,140.586298 L43.8224553,141.079298 C43.5993782,141.158888 43.3775091,141.237174 43.1568934,141.314134 L41.8485999,141.759788 C41.4177562,141.90291 40.992287,142.04054 40.5725537,142.172495 L39.3309226,142.551147 L38.1258745,142.89464 C34.9631171,143.762756 32.2137024,144.244025 30.0626227,144.244025 C25.3214675,144.244025 24.5065814,140.688159 27.543884,137.206373 C30.3589449,133.872748 34.3592946,128.613029 36.8780333,123.871874 C37.6188388,122.464343 37.3965971,121.427216 35.8409056,120.61233 C14.209385,109.87065 0.06,88.9799349 0.06,65.9408839 C0.06,30.0118172 35.3964223,0.75 80.0669938,0.75 Z" id="Shape"></path>
                </g>
                <g id="Heavy-L" transform="translate(2058.800000, 834.000000)">
                    <path d="M129.178799,31.1168491 C166.514725,31.1168491 196.049115,55.5740482 196.049115,85.6037736 C196.049115,104.859948 184.222976,122.320531 166.143224,131.29849 C164.842968,131.979576 164.657217,132.846414 165.276386,134.022836 C167.381563,137.985522 170.725079,142.381626 173.077923,145.167889 C175.616518,148.077986 174.935432,151.05 170.972747,151.05 C164.904884,151.05 153.140662,146.468145 141.624108,140.338366 C140.447685,139.657279 139.766599,139.595362 138.899761,139.719196 C135.680079,140.028781 132.460398,140.276449 129.116882,140.276449 C91.842872,140.276449 62.3084823,115.695416 62.3084823,85.6037736 C62.3084823,55.5740482 91.842872,31.1168491 129.178799,31.1168491 Z M78.7362497,0.17 C101.571764,0.17 121.926787,7.94614168 136.209225,20.3770892 C133.895697,20.2102378 131.550569,20.1266054 129.178799,20.1266054 C85.0592462,20.1266054 50.1587047,49.0661444 50.1587047,84.5995025 C50.1587047,101.387885 57.917393,116.726692 70.7352241,128.250662 C69.587752,128.159477 68.4434031,128.056091 67.2990541,127.946057 C66.2791768,127.800361 65.4778447,127.873209 64.0937255,128.674541 L63.3264915,129.080798 L61.7912837,129.881066 L60.2569685,130.664047 L58.7258005,131.428591 L57.2000346,132.173546 L55.6819256,132.897762 L54.1737283,133.600088 L52.6776974,134.279372 L51.1960877,134.934465 C50.9504797,135.041567 50.7055667,135.147614 50.4613954,135.25258 L49.0056452,135.869227 L47.5699532,136.458805 L46.1565742,137.020163 C45.9229957,137.111307 45.6904409,137.201227 45.4589567,137.289899 L44.0832748,137.806769 L42.7355428,138.292542 C41.8468726,138.605769 40.9783387,138.897497 40.1329478,139.166192 L38.8825943,139.551768 C35.1858599,140.655519 31.9882076,141.277311 29.5635936,141.277311 C25.0072586,141.277311 24.1383837,137.937724 26.8889753,134.590232 L27.0867487,134.356715 C29.8549872,131.078538 33.7887996,125.906303 36.2656445,121.244006 C36.9941283,119.859887 36.7755832,118.84001 35.2457672,118.038678 C13.9740405,107.475663 0.06,86.9324198 0.06,64.2765738 C0.06,28.9451098 34.808677,0.17 78.7362497,0.17 Z" id="Shape"></path>
                </g>
                <g id="Bold-L" transform="translate(1765.550000, 835.000000)">
                    <path d="M134.323041,31.708989 C170.584296,31.708989 199.268571,55.4622153 199.268571,84.6275691 C199.268571,103.329476 187.782834,120.287476 170.223487,129.007015 C168.960657,129.668497 168.780253,130.510383 169.381601,131.652944 C171.426182,135.501568 174.673459,139.771135 176.958579,142.477199 C179.424104,145.303532 178.762622,148.19 174.913998,148.19 C169.020792,148.19 157.59519,143.740028 146.410126,137.786688 C145.267566,137.125206 144.606084,137.065071 143.764197,137.185341 C140.63719,137.486014 137.510183,137.726553 134.262907,137.726553 C98.061787,137.726553 69.3775112,113.853058 69.3775112,84.6275691 C69.3775112,55.4622153 98.061787,31.708989 134.323041,31.708989 Z M77.2325704,0.78 C99.8568024,0.78 119.998791,8.56163666 134.027769,20.9699706 C91.1737445,21.0986928 57.3214089,49.1821041 57.3214089,83.6461536 C57.3214089,100.294787 65.1886807,115.477039 78.1309169,126.752162 L77.3040265,126.757076 C73.445398,126.757076 69.7296817,126.471251 66.0139653,126.113971 C65.0135801,125.971059 64.2275632,126.042515 62.8698976,126.828532 L61.3644227,127.62156 L59.8587175,128.398195 L58.3549936,129.157311 C58.1046609,129.282307 57.8545029,129.406527 57.6045657,129.529945 L56.1079607,130.260663 L54.6188661,130.971037 L53.1394938,131.65994 L51.6720554,132.326242 L50.2187625,132.968815 C49.9778487,133.07387 49.7376165,133.177889 49.4981119,133.280849 L48.0701844,133.885711 C47.8337746,133.98434 47.5981846,134.081863 47.3634604,134.178255 L45.9658745,134.742866 L44.591281,135.279231 C44.3642209,135.366209 44.1382111,135.451963 43.9132975,135.536469 L42.5773394,136.02835 L41.2699028,136.489164 C36.3155552,138.194628 32.0386198,139.190434 28.9997139,139.190434 C24.5328778,139.190434 23.6791148,135.918217 26.3718391,132.636488 L26.5702071,132.402106 C29.2855383,129.186582 33.1441668,124.113201 35.5736736,119.540011 C36.2882345,118.182346 36.0738662,117.18196 34.5732884,116.395944 C13.708112,106.034811 0.06,85.8841957 0.06,63.6613537 C0.06,29.0051531 34.1445519,0.78 77.2325704,0.78 Z" id="Shape"></path>
                </g>
                <g id="Semibold-L" transform="translate(1471.210000, 836.000000)">
                    <path d="M80.9456995,0.85 C106.006083,0.85 128.160682,9.9594028 142.917678,24.27506 C136.038271,22.6053983 128.72723,21.7067093 121.128511,21.7067093 C79.188679,21.7067093 46.0123937,49.0834685 46.0123937,82.6979703 C46.0123937,103.383926 58.524676,121.743486 77.8788208,132.832417 C74.9412146,132.726757 72.064265,132.490997 69.1873154,132.214368 C68.1387971,132.064579 67.3149613,132.139473 65.8919721,132.963309 L64.3432918,133.779253 L62.7943375,134.578669 L61.247301,135.360436 L60.4751868,135.744353 L60.4751868,135.744353 L58.9351362,136.497551 L57.4024827,137.230305 C57.1477786,137.350665 56.893474,137.470126 56.6396146,137.588666 L55.1221659,138.288656 L53.6175934,138.965405 C53.368026,139.076198 53.1190866,139.185975 52.8708206,139.294715 L51.3896717,139.934505 L49.9268782,140.548257 C49.6847307,140.648317 49.4434393,140.747246 49.2030497,140.845019 L47.7718988,141.417618 C47.0620993,141.696801 46.3612379,141.965172 45.6705472,142.222101 L44.3030923,142.720515 L42.9649512,143.187298 C42.7444923,143.262398 42.5253461,143.336132 42.3075583,143.408479 L41.0174975,143.825718 C36.7740655,145.159757 33.1105182,145.92 30.3921373,145.92 C25.7054268,145.92 24.81365,142.483079 27.6467954,139.039793 L27.8457357,138.805054 C30.691714,135.434817 34.735999,130.117331 37.2824006,125.324104 C38.0313423,123.901115 37.8066598,122.852597 36.2338823,122.028761 C14.3647858,111.169107 0.06,90.048952 0.06,66.7568663 C0.06,30.4331957 35.7845173,0.85 80.9456995,0.85 Z M121.128511,31.7435012 C156.672357,31.7435012 184.78913,55.0267831 184.78913,83.6151165 C184.78913,101.947017 173.530632,118.569512 156.318687,127.116539 C155.080841,127.764935 154.904006,128.590165 155.493457,129.71012 C157.497587,133.482601 160.680618,137.667698 162.920529,140.320223 C165.337274,143.090639 164.688879,145.92 160.916398,145.92 C155.139786,145.92 143.940233,141.558069 132.97646,135.722512 C131.856505,135.074117 131.208109,135.015172 130.382879,135.133062 C127.317738,135.427787 124.252597,135.663567 121.069566,135.663567 C85.5846658,135.663567 57.4678925,112.262395 57.4678925,83.6151165 C57.4678925,55.0267831 85.5846658,31.7435012 121.128511,31.7435012 Z" id="Shape"></path>
                </g>
                <g id="Medium-L" transform="translate(1176.310000, 837.000000)">
                    <path d="M130.772271,31.6396765 C165.747617,31.6396765 193.414681,54.5505581 193.414681,82.6816407 C193.414681,100.720335 182.336255,117.076964 165.399603,125.487288 C164.181556,126.125313 164.00755,126.937344 164.587572,128.039386 C166.559648,131.751529 169.691768,135.869688 171.895853,138.479788 C174.273945,141.205893 173.63592,143.99 169.923777,143.99 C164.239558,143.99 153.219134,139.697835 142.430719,133.955614 C141.328677,133.317589 140.690652,133.259587 139.878621,133.375592 C136.862505,133.665603 133.846389,133.897612 130.714268,133.897612 C95.7969246,133.897612 68.1298599,110.870725 68.1298599,82.6816407 C68.1298599,54.5505581 95.7969246,31.6396765 130.772271,31.6396765 Z M75.4512206,0.68 C98.8099204,0.68 119.460074,9.17107702 133.214641,22.5149198 C132.402606,22.4962348 131.589142,22.4856187 130.772271,22.4856187 C89.8485603,22.4856187 57.4760731,49.1299571 57.4760731,81.8451574 C57.4760731,98.1261007 65.4605592,112.926338 78.5033133,123.701004 C77.5158324,123.733498 76.5208998,123.749187 75.5210273,123.749187 C71.7514663,123.749187 68.1215186,123.46996 64.491571,123.120927 C63.5142774,122.981313 62.7464038,123.05112 61.4200768,123.818994 L59.92106,124.608461 L58.4218526,125.381272 L56.9247423,126.136257 L55.4320167,126.87225 L53.9459636,127.588082 L52.4688707,128.282586 L51.0030256,128.954595 C50.7597825,129.064657 50.5171034,129.173733 50.2750359,129.281798 L48.8303521,129.917874 C48.5909218,130.021801 48.3521985,130.124669 48.1142298,130.226454 L46.6958546,130.823969 L45.297878,131.394318 L43.9225878,131.936332 C43.6953904,132.024242 43.4692335,132.110923 43.244165,132.19635 L41.9071938,132.693674 C41.4661439,132.854304 41.0298283,133.009726 40.5986282,133.159744 L39.320756,133.593394 C38.9001683,133.73241 38.4850775,133.865829 38.0758648,133.993455 L36.8662423,134.358759 C33.4911034,135.343448 30.5682066,135.89555 28.3317077,135.89555 C23.9679782,135.89555 23.1339223,132.698865 25.7644913,129.492886 L25.9582804,129.263915 C26.4003894,128.740365 26.8735236,128.166399 27.3660486,127.552682 L28.3735056,126.275406 C30.5974087,123.406833 33.0397809,119.925332 34.7539228,116.698712 C35.4519897,115.372385 35.2425696,114.395091 33.7766292,113.627218 C13.393077,103.505248 0.06,83.8197628 0.06,62.1098835 C0.06,28.2536409 33.3577891,0.68 75.4512206,0.68 Z" id="Shape"></path>
                </g>
                <g id="Regular-L" transform="translate(881.960000, 838.000000)">
                    <path d="M114.435137,31.7568937 C148.67044,31.7568937 175.752098,54.1830047 175.752098,81.7188625 C175.752098,99.3758765 164.90808,115.386416 148.32979,123.618786 C147.137516,124.243311 146.967191,125.03816 147.534941,126.116885 C149.46529,129.750482 152.531138,133.781505 154.688586,136.336378 C157.01636,139.004802 156.391835,141.73 152.758238,141.73 C147.194291,141.73 136.407048,137.528653 125.846905,131.907931 C124.76818,131.283407 124.143656,131.226632 123.348806,131.340181 C120.396508,131.624056 117.44421,131.851156 114.378362,131.851156 C80.199833,131.851156 53.118175,109.311495 53.118175,81.7188625 C53.118175,54.1830047 80.199833,31.7568937 114.435137,31.7568937 Z M74.3766177,0.76 C99.2374461,0.76 120.985806,10.5173409 134.426793,25.5179317 C128.099309,24.0462764 121.394102,23.2577454 114.435137,23.2577454 C74.5581804,23.2577454 43.0137226,49.1502101 43.0137226,80.9422238 C43.0137226,96.6654518 50.6976165,110.96758 63.2668434,121.421359 C62.4404047,121.34087 61.7120921,121.468396 60.5454694,122.143809 L59.0388364,122.937123 L57.532054,123.713343 L56.0275125,124.471249 C55.5266378,124.720697 55.026535,124.966889 54.5276024,125.209622 L53.034714,125.92724 C52.7866172,126.045046 52.5389126,126.161936 52.2916499,126.277886 L50.8137759,126.962086 L49.3488996,127.622482 C49.1059695,127.730497 48.8636805,127.837469 48.6220825,127.943373 L47.1811845,128.565775 C46.9425496,128.667305 46.7047052,128.767716 46.4677012,128.866982 L45.0561599,129.448646 L43.6671776,130.001625 C43.4376933,130.09133 43.2092485,130.179789 42.9818931,130.266977 L41.6312313,130.774642 L40.3091046,131.250573 C35.2986984,133.012589 30.9699382,134.04823 27.9287316,134.04823 C23.6272013,134.04823 22.8050338,130.897109 25.3981075,127.736828 L25.5891344,127.51112 C28.2039784,124.414594 31.9198093,119.528965 34.2594065,115.125017 C34.9475233,113.817595 34.7410883,112.854232 33.2960429,112.097303 C13.2030315,102.119609 0.06,82.7147145 0.06,61.3142811 C0.06,27.9406148 32.8831728,0.76 74.3766177,0.76 Z" id="Shape"></path>
                </g>
                <g id="Light-L" transform="translate(588.230000, 840.000000)">
                    <path d="M110.295027,32.3127345 C143.261496,32.3127345 169.339449,53.9076854 169.339449,80.4230048 C169.339449,97.4256117 158.897334,112.842767 142.933471,120.770027 C141.785385,121.371405 141.621373,122.136796 142.168081,123.175541 C144.026887,126.674469 146.979108,130.556093 149.056597,133.016278 C151.298098,135.585803 150.69672,138.21 147.197791,138.21 C141.840056,138.21 131.452611,134.164364 121.28385,128.751958 C120.245105,128.15058 119.643727,128.095909 118.878336,128.205251 C116.035457,128.478604 113.192577,128.697287 110.240356,128.697287 C77.3285573,128.697287 51.2506039,106.992995 51.2506039,80.4230048 C51.2506039,53.9076854 77.3285573,32.3127345 110.295027,32.3127345 Z M76.6413113,0.86 C104.829975,0.86 129.135474,13.0334144 142.426313,31.1833603 C132.920192,26.9408788 121.988814,24.5294613 110.295027,24.5294613 C72.8170478,24.5294613 43.1702884,49.2987982 43.1702884,79.7117816 C43.1702884,98.876149 54.8938372,115.833583 72.9006165,125.781326 C70.4082167,125.673533 67.9584372,125.469278 65.5086577,125.233722 C64.515937,125.091905 63.7359422,125.162814 62.3886784,125.942808 L60.8659988,126.744738 L59.3431256,127.529748 L57.8223826,128.296651 L56.3060936,129.044262 C56.053879,129.16719 55.8019468,129.289265 55.5503455,129.410462 L54.0450945,130.12691 L52.5501071,130.8211 L51.067707,131.491846 C50.8218184,131.601618 50.5765511,131.710363 50.3319534,131.818057 L48.8727915,132.451414 L47.4320264,133.058361 C46.9550957,133.256144 46.4816185,133.449327 46.011982,133.637713 L44.6149821,134.188284 L43.2433505,134.708887 L41.8994111,135.198336 C41.6778579,135.277249 41.4575555,135.354814 41.2385521,135.431008 L39.940508,135.871503 L38.6759655,136.277879 L37.4472485,136.64895 C34.0188312,137.649182 31.0497949,138.21 28.7779917,138.21 C24.3453784,138.21 23.4981565,134.962853 26.1702504,131.706267 L26.3670986,131.473681 C29.0616262,128.282793 32.8906918,123.248281 35.3015849,118.710129 C36.0106711,117.362865 35.7979453,116.370145 34.3088642,115.59015 C13.6035467,105.3084 0.06,85.3121683 0.06,63.259587 C0.06,28.8689055 33.8834125,0.86 76.6413113,0.86 Z" id="Shape"></path>
                </g>
                <g id="Thin-L" transform="translate(295.499000, 843.000000)">
                    <path d="M104.292658,32.7939274 C135.537233,32.7939274 160.25309,53.2609376 160.25309,78.3913171 C160.25309,94.5058492 150.356384,109.11774 135.226341,116.630946 C134.138222,117.200914 133.982776,117.926327 134.500928,118.910816 C136.262646,122.22699 139.060667,125.90587 141.029645,128.237555 C143.154069,130.67287 142.584102,133.16 139.267928,133.16 C134.190037,133.16 124.345146,129.325674 114.707516,124.195968 C113.723027,123.626 113.153059,123.574185 112.427646,123.677816 C109.733255,123.936892 107.038864,124.144152 104.240842,124.144152 C73.0480826,124.144152 48.3322247,103.573512 48.3322247,78.3913171 C48.3322247,53.2609376 73.0480826,32.7939274 104.292658,32.7939274 Z M67.7064677,0.64 C95.0431522,0.64 118.245435,13.6010206 128.977219,32.2794441 C121.450303,29.6073323 113.108709,28.1232992 104.292658,28.1232992 C70.0628954,28.1232992 42.9856208,50.495212 42.9856208,77.9645225 C42.9856208,90.3504652 48.4681191,101.715775 57.6126203,110.471111 C56.8521805,110.394932 56.187185,110.507955 55.1168946,111.127597 L53.659768,111.894324 L52.2026415,112.643408 L50.7481248,113.373516 L49.2988276,114.083317 L47.8573597,114.771478 C47.6179125,114.884295 47.3789003,114.996154 47.1403774,115.107028 L45.7155469,115.760233 L44.3050701,116.388468 C43.8375935,116.59357 43.3729441,116.794289 42.911557,116.990401 L41.5376172,117.564701 L40.1858605,118.110035 C39.9625612,118.198436 39.7402951,118.285575 39.5191163,118.371424 L38.2055276,118.870811 C33.0068482,120.804657 28.4971503,121.963399 25.4280504,121.963399 C21.5249201,121.963399 20.7690096,119.113087 23.1025,116.245585 L23.2984709,116.013103 C25.6785892,113.194542 29.0608626,108.747479 31.1904421,104.738859 C31.816789,103.5488 31.6288849,102.671914 30.3135564,101.982932 C12.0242262,92.9009018 0.061,75.2379186 0.061,55.7585293 C0.061,25.3807035 29.9377482,0.64 67.7064677,0.64 Z" id="Shape"></path>
                </g>
                <g id="Ultralight-L" transform="translate(0.815000, 845.000000)">
                    <path d="M102.052021,32.55 C132.429275,32.55 156.459042,52.4488642 156.459042,76.8816469 C156.459042,92.5488539 146.83706,106.755132 132.127013,114.059778 C131.069099,114.613924 130.917969,115.3192 131.421737,116.27636 C133.134551,119.50048 135.854902,123.077238 137.769223,125.344197 C139.834675,127.71191 139.280529,130.13 136.056409,130.13 C131.119476,130.13 121.54787,126.402112 112.177772,121.414801 C111.220612,120.860656 110.666466,120.810279 109.96119,120.911033 C107.341593,121.162917 104.721995,121.364424 102.001644,121.364424 C71.6747677,121.364424 47.645,101.364806 47.645,76.8816469 C47.645,52.4488642 71.6747677,32.55 102.052021,32.55 Z M65.7849793,0.05 C92.6234129,0.05 115.360027,12.9088798 125.637263,31.3643748 C118.416679,28.8888473 110.453144,27.5184096 102.05092,27.5184096 C68.4241948,27.5184096 41.8239494,49.4686824 41.8239494,76.4202832 C41.8239494,87.8986239 46.6288639,98.4835915 54.7317045,106.861191 C54.389233,106.959647 54.0092795,107.128912 53.553761,107.392633 L52.3183373,108.043654 L51.0826678,108.681746 L49.8484379,109.306047 L48.617333,109.915698 L47.3910385,110.509838 L46.1712397,111.087607 L44.959622,111.648144 L43.7578708,112.19059 L42.5676715,112.714085 L41.3907094,113.217767 L40.22867,113.700777 C39.843998,113.85824 39.4620939,114.012113 39.0832387,114.162255 L37.9561007,114.60134 C37.397386,114.815141 36.8461633,115.020222 36.3033807,115.216099 L35.2293497,115.595438 C35.0523138,115.656569 34.8762858,115.71664 34.701301,115.775636 L33.6641905,116.116547 C33.3228467,116.225783 32.9859564,116.33057 32.6538003,116.430764 L31.6718157,116.717428 C28.9313593,117.489793 26.5532496,117.92 24.7099923,117.92 C20.9020198,117.92 20.1774473,115.127487 22.4793901,112.329802 L22.6410299,112.139076 C22.8844373,111.85083 23.1386327,111.545054 23.4010613,111.224089 L24.2104909,110.217971 C26.2830374,107.600473 28.6749696,104.260365 30.3083609,101.185746 C30.9168792,100.029561 30.7343237,99.1776355 29.4564352,98.5082654 C11.6877001,89.6847496 0.065,72.5245328 0.065,53.5996128 C0.065,24.0864739 29.0913242,0.05 65.7849793,0.05 Z" id="Shape"></path>
                </g>
                <g id="Black-M" transform="translate(2371.940000, 417.000000)">
                    <path d="M105.661491,25.2922467 C135.897958,25.2922467 159.816356,45.0988871 159.816356,69.418433 C159.816356,85.0130284 150.238968,99.1534654 135.597097,106.424257 C134.544086,106.975835 134.393656,107.677842 134.89509,108.630567 C136.599965,111.839744 139.307708,115.399925 141.213157,117.656378 C143.269037,120.013117 142.717459,122.42 139.508282,122.42 C134.594229,122.42 125.066985,118.709389 115.740313,113.745193 C114.787589,113.193616 114.236012,113.143472 113.534004,113.243759 C110.926548,113.494476 108.319091,113.69505 105.611348,113.69505 C75.4250251,113.69505 51.5066263,93.7881223 51.5066263,69.418433 C51.5066263,45.0988871 75.4250251,25.2922467 105.661491,25.2922467 Z M63.5784074,0.94 C81.4298605,0.94 97.3920959,6.86254729 108.799644,16.391493 C107.760009,16.3515385 106.713993,16.3311312 105.661491,16.3311312 C69.9746907,16.3311312 41.7448335,39.7925374 41.7448335,68.5995804 C41.7448335,82.1114465 47.9300217,94.4650922 58.1639157,103.78434 C56.9049373,103.69602 55.6531724,103.585572 54.4014075,103.46521 C53.5830763,103.348305 52.9401017,103.406758 51.8295094,104.049732 L50.6208196,104.686548 L50.0162876,105.000172 L50.0162876,105.000172 L48.8079185,105.61731 C48.6066721,105.719006 48.4055237,105.82011 48.204509,105.920604 L47.0003093,106.5161 C46.7999717,106.61408 46.599839,106.711413 46.3999468,106.808082 L45.2037653,107.379971 L44.0150673,107.93503 L42.8355635,108.472387 L41.6669644,108.991169 C41.4732016,109.076036 41.2799645,109.160093 41.0872886,109.243321 L39.9382537,109.732603 L38.8043999,110.201126 L37.6874376,110.648019 L36.5890773,111.072407 C36.4076625,111.141214 36.227094,111.209048 36.0474075,111.275889 L34.9801577,111.664884 C34.8041417,111.727683 34.629079,111.789454 34.4550052,111.850178 L33.4227145,112.201815 C33.0827632,112.314743 32.7470527,112.423338 32.4158679,112.527455 L31.4361761,112.826226 L30.4853496,113.097254 C27.9898199,113.782229 25.8204323,114.161968 24.1231528,114.161968 C20.3822101,114.161968 19.7392356,111.356261 22.135777,108.609006 C24.3569617,105.978656 27.5133821,101.828547 29.5007579,98.0876048 C30.0852802,96.9770124 29.9099235,96.1586812 28.6824267,95.5157067 C11.6143758,87.0401335 0.45,70.5566049 0.45,52.3779616 C0.45,24.0286305 28.3317133,0.94 63.5784074,0.94 Z" id="Shape"></path>
                </g>
                <g id="Heavy-M" transform="translate(2077.850000, 418.000000)">
                    <path d="M102.321035,25.3761779 C131.778012,25.3761779 155.0798,44.6722077 155.0798,68.3648012 C155.0798,83.5573715 145.749315,97.3332713 131.484908,104.416624 C130.459043,104.953982 130.312491,105.637892 130.800998,106.566055 C132.461922,109.692501 135.099861,113.160901 136.956188,115.359183 C138.959067,117.655166 138.421709,120 135.295263,120 C130.507894,120 121.226259,116.385048 112.140028,111.548827 C111.211864,111.01147 110.674506,110.962619 109.990596,111.06032 C107.45036,111.304574 104.910123,111.499977 102.272185,111.499977 C72.8640581,111.499977 49.5622702,92.1062455 49.5622702,68.3648012 C49.5622702,44.6722077 72.8640581,25.3761779 102.321035,25.3761779 Z M62.5233084,0.96 C80.5398752,0.96 96.5994058,7.09515314 107.86784,16.9028148 C106.042533,16.7711738 104.192294,16.7051903 102.321035,16.7051903 C67.5119716,16.7051903 39.9764436,39.537658 39.9764436,67.5724601 C39.9764436,80.8180131 46.0978265,92.9198931 56.2107283,102.011975 C55.3054056,101.940032 54.4025471,101.858464 53.4996885,101.771651 C52.6950345,101.6567 52.0628064,101.714176 50.970776,102.346404 L50.3654503,102.666929 L49.1542154,103.298317 L47.9436846,103.916067 L46.7356369,104.51927 L45.5318513,105.107018 L44.3341068,105.678404 L43.1441822,106.232519 L41.9638567,106.768455 L40.794909,107.285305 C40.6011314,107.369805 40.407902,107.453473 40.2152579,107.536288 L39.0667127,108.022805 L37.9339928,108.487965 L36.8188772,108.93086 C36.6345905,109.00277 36.4511114,109.073714 36.2684769,109.143675 L35.1831033,109.55147 L34.1197814,109.934731 C33.418646,110.181858 32.7333977,110.412023 32.0664084,110.624016 L31.0799153,110.928224 C28.1632977,111.799052 25.6404416,112.289628 23.7274906,112.289628 C20.1326728,112.289628 19.4471553,109.65479 21.6172933,107.013714 L21.7733309,106.829476 C23.9573918,104.243088 27.0610572,100.162343 29.0152169,96.4839245 C29.5899698,95.3918941 29.4175439,94.5872401 28.2105629,93.955012 C11.4277795,85.6210956 0.45,69.4130651 0.45,51.5382513 C0.45,23.6627378 27.8657112,0.96 62.5233084,0.96 Z" id="Shape"></path>
                </g>
                <g id="Bold-M" transform="translate(1784.040000, 420.000000)">
                    <path d="M106.432277,24.4941996 C135.05557,24.4941996 157.697876,43.2441176 157.697876,66.2661688 C157.697876,81.0287625 148.63146,94.4147799 134.770761,101.297661 C133.77393,101.819811 133.631525,102.484365 134.106207,103.38626 C135.720124,106.424221 138.283404,109.794459 140.087193,111.930526 C142.033387,114.161529 141.511238,116.44 138.473276,116.44 C133.821398,116.44 124.80245,112.927357 115.973375,108.228011 C115.07148,107.705861 114.54933,107.658393 113.884776,107.753329 C111.416433,107.99067 108.948089,108.180542 106.384809,108.180542 C77.8089847,108.180542 55.1666786,89.3356882 55.1666786,66.2661688 C55.1666786,43.2441176 77.8089847,24.4941996 106.432277,24.4941996 Z M61.3671718,0.08 C79.2259034,0.08 95.1252438,6.22253607 106.1992,16.0172158 C72.3718188,16.1188243 45.6500376,38.2868302 45.6500376,65.4914757 C45.6500376,78.6332911 51.8601709,90.6175987 62.0762933,99.5177638 L61.4235766,99.5216425 C58.377718,99.5216425 55.444669,99.2960234 52.51162,99.0139994 C51.7219529,98.9011898 51.1015003,98.9575946 50.0298093,99.5780473 L48.8414431,100.204034 L47.6528951,100.817082 L46.4659111,101.416299 L45.8735511,101.710443 L45.8735511,101.710443 L44.6921864,102.287245 L43.5167503,102.847988 L42.3489885,103.391782 L41.1906469,103.917736 L40.0434713,104.424959 C39.8533029,104.507886 39.6636724,104.589995 39.4746164,104.671268 L38.3474632,105.148723 C38.1608501,105.226577 37.974884,105.303558 37.7896015,105.379647 L36.6863989,105.82533 L35.6013456,106.248717 C35.4221128,106.317374 35.243709,106.385065 35.0661705,106.451771 L34.0116146,106.840043 L32.9795726,107.203793 C29.0687938,108.550023 25.6927393,109.336076 23.2939394,109.336076 C19.7679843,109.336076 19.0940553,106.753109 21.2195923,104.162633 L21.3761766,103.977621 C23.5195586,101.439405 26.5654172,97.4346653 28.48318,93.8247588 C29.0472279,92.7530679 28.8780135,91.9634008 27.6935129,91.3429481 C11.2233146,83.1642538 0.45,67.2581034 0.45,49.7162141 C0.45,22.3598915 27.3550842,0.08 61.3671718,0.08 Z" id="Shape"></path>
                </g>
                <g id="Semibold-M" transform="translate(1489.330000, 420.000000)">
                    <path d="M64.3188694,0.82 C84.1070194,0.82 101.600708,8.01295575 113.253109,19.3168679 C107.821,17.9984716 102.048065,17.2888498 96.0479732,17.2888498 C62.9314929,17.2888498 36.7348742,38.9060537 36.7348742,65.4486965 C36.7348742,81.7827164 46.6148075,96.27977 61.8972042,105.035799 C59.5776152,104.952367 57.3059217,104.766207 55.0342282,104.547775 C54.2062984,104.429499 53.5557821,104.488637 52.4321631,105.139153 L51.209296,105.783438 L49.9862126,106.414672 L48.7646435,107.03197 C48.5612709,107.133643 48.3580336,107.234698 48.1549676,107.335117 L46.9389147,107.929857 L45.7287026,108.508454 C45.5275835,108.603492 45.3267798,108.697821 45.1263277,108.791422 L43.9281216,109.344147 L42.7400829,109.878521 C42.5430198,109.966005 42.3464525,110.052688 42.150417,110.13855 L40.980874,110.64374 L39.8258248,111.128371 C39.6346206,111.20738 39.4440923,111.285496 39.2542762,111.3627 L38.1242125,111.814834 C37.5637415,112.035283 37.0103281,112.247193 36.4649458,112.450069 L35.3851777,112.843627 L34.3285563,113.212208 C34.1544778,113.271507 33.9814358,113.329729 33.8094665,113.386856 L32.7908102,113.716316 C29.4401165,114.769698 26.5473107,115.37 24.400826,115.37 C20.7001113,115.37 19.9959475,112.656143 22.2330524,109.937259 L22.3901394,109.751905 C24.6373774,107.090702 27.8308209,102.891915 29.8415075,99.1070934 C30.4328859,97.9834744 30.2554724,97.1555447 29.0135777,96.5050284 C11.7453278,87.9300413 0.45,71.2531699 0.45,52.861301 C0.45,24.1794476 28.6587506,0.82 64.3188694,0.82 Z M96.0479732,25.2140895 C124.114062,25.2140895 146.315595,43.5990067 146.315595,66.1728924 C146.315595,80.6481057 137.425673,93.7735403 123.834797,100.522434 C122.857371,101.034419 122.717739,101.686036 123.18318,102.570374 C124.765679,105.549196 127.27906,108.853827 129.047736,110.948311 C130.956044,113.135883 130.444059,115.37 127.465237,115.37 C122.903916,115.37 114.060538,111.925737 105.403336,107.317872 C104.518998,106.805887 104.007013,106.759343 103.355396,106.852431 C100.935103,107.085151 98.5148102,107.271328 96.0014291,107.271328 C67.9818844,107.271328 45.7803514,88.7933222 45.7803514,66.1728924 C45.7803514,43.5990067 67.9818844,25.2140895 96.0479732,25.2140895 Z" id="Shape"></path>
                </g>
                <g id="Medium-M" transform="translate(1194.130000, 421.000000)">
                    <path d="M103.680862,24.8506048 C131.302867,24.8506048 153.153111,42.9446219 153.153111,65.1613264 C153.153111,79.4075019 144.403852,92.3252559 131.028022,98.9673634 C130.066061,99.4712474 129.928638,100.112554 130.386715,100.9829 C131.944174,103.914588 134.417787,107.166931 136.158477,109.228274 C138.03659,111.381233 137.532706,113.58 134.601017,113.58 C130.111869,113.58 121.408418,110.190235 112.888197,105.655279 C112.017852,105.151395 111.513968,105.105587 110.872661,105.197202 C108.490664,105.42624 106.108666,105.609471 103.635054,105.609471 C76.0588558,105.609471 54.2086124,87.4238386 54.2086124,65.1613264 C54.2086124,42.9446219 76.0588558,24.8506048 103.680862,24.8506048 Z M59.9907044,0.4 C78.4383887,0.4 94.7469812,7.10588303 105.60974,17.6442692 C104.96843,17.6295126 104.325991,17.6211285 103.680862,17.6211285 C71.3610966,17.6211285 45.7947153,38.6636672 45.7947153,64.5007083 C45.7947153,77.3586887 52.1005149,89.0472722 62.4011144,97.5566343 C61.621245,97.5822966 60.8354905,97.594687 60.0458347,97.594687 C57.0687995,97.594687 54.2020248,97.3741658 51.3352502,97.0985144 C50.5634262,96.9882539 49.9569931,97.0433841 48.9095178,97.6498172 L47.7256596,98.2733045 L46.5416508,98.8836365 L45.3592983,99.479891 L44.1804086,100.061146 L43.0067885,100.626479 L41.8402448,101.174968 L40.6825842,101.705691 C40.4904813,101.792614 40.2988239,101.878757 40.1076496,101.964103 L38.9667012,102.466447 C38.7776096,102.548524 38.5890763,102.629765 38.401139,102.71015 L37.280968,103.182042 L36.1769069,103.632479 L35.0907626,104.060538 C34.9113319,104.129965 34.7327231,104.198422 34.5549738,104.265888 L33.4990921,104.658653 C33.1507701,104.785512 32.806187,104.908258 32.465644,105.026735 L31.4564361,105.369213 C31.1242743,105.479002 30.7964536,105.58437 30.4732752,105.685164 L29.5179681,105.973665 C26.8524302,106.751329 24.5440536,107.187356 22.7777642,107.187356 C19.3314805,107.187356 18.6727795,104.662753 20.7502884,102.130811 L20.9033346,101.949979 C21.252493,101.536502 21.6261538,101.083209 22.0151286,100.598522 L22.8107743,99.5897849 C24.5671162,97.3243104 26.4959954,94.5747726 27.8497501,92.0265285 C28.4010529,90.9790531 28.2356621,90.2072292 27.0779262,89.6007961 C10.9798838,81.6069052 0.45,66.0601657 0.45,48.9146481 C0.45,22.1764613 26.7471445,0.4 59.9907044,0.4 Z" id="Shape"></path>
                </g>
                <g id="Regular-M" transform="translate(899.400000, 422.000000)">
                    <path d="M90.7769062,24.6595643 C117.81398,24.6595643 139.201517,42.3704172 139.201517,64.1166543 C139.201517,78.0611487 130.637535,90.7053525 117.544955,97.2068049 C116.603365,97.7000185 116.468852,98.3277449 116.917228,99.1796594 C118.441707,102.049266 120.862937,105.232736 122.566766,107.250428 C124.405108,109.357795 123.911894,111.51 121.042288,111.51 C116.648203,111.51 108.129058,108.192017 99.7892642,103.753095 C98.9373498,103.259881 98.4441362,103.215044 97.8164097,103.304719 C95.4848544,103.528907 93.1532991,103.708257 90.7320686,103.708257 C63.739832,103.708257 42.3522957,85.9077291 42.3522957,64.1166543 C42.3522957,42.3704172 63.739832,24.6595643 90.7769062,24.6595643 Z M59.1409914,0.18 C78.774644,0.18 95.9502483,7.88578682 106.565167,19.7323908 C101.568084,18.5701621 96.2726969,17.9474257 90.7769062,17.9474257 C59.2843791,17.9474257 34.3723802,38.3958055 34.3723802,63.5033097 C34.3723802,75.9206111 40.4406778,87.2156096 50.3671304,95.4714029 C49.7144567,95.4078377 49.1392773,95.5085501 48.2179457,96.0419526 L47.0280936,96.668466 L45.8381235,97.28148 L44.6499232,97.8800308 C44.2543611,98.0770302 43.8594087,98.2714585 43.4653804,98.463155 L42.286383,99.029889 C42.0904504,99.1229253 41.8948275,99.2152385 41.6995537,99.3068086 L40.5324138,99.8471507 L39.3755387,100.368694 C39.1836865,100.453997 38.9923406,100.538478 38.8015404,100.622114 L37.663602,101.113652 C37.4751418,101.193835 37.287306,101.273133 37.1001339,101.351528 L35.9853797,101.810893 L34.8884414,102.247604 C34.7072078,102.318448 34.5267953,102.388308 34.3472431,102.457164 L33.2805681,102.858088 L32.2364284,103.233951 C28.2794977,104.62549 24.8608918,105.44338 22.4591218,105.44338 C19.0620205,105.44338 18.4127198,102.954806 20.4605803,100.458997 L20.6114424,100.280746 C22.6764958,97.8352884 25.6110454,93.9768992 27.4587247,90.4989145 C28.0021598,89.4663878 27.8391293,88.7055786 26.6979156,88.1078 C10.8296105,80.227991 0.45,64.903121 0.45,48.0022893 C0.45,21.6456867 26.3718545,0.18 59.1409914,0.18 Z" id="Shape"></path>
                </g>
                <g id="Light-M" transform="translate(605.370000, 424.000000)">
                    <path d="M87.1773169,24.8354131 C113.11366,24.8354131 133.630468,41.825223 133.630468,62.6861289 C133.630468,76.0629159 125.415142,88.1923499 112.855587,94.4291155 C111.952331,94.9022495 111.823294,95.50442 112.253416,96.3216513 C113.71583,99.0744306 116.038488,102.128295 117.67295,104.063843 C119.43645,106.085416 118.963316,108.15 116.210536,108.15 C111.995343,108.15 103.823029,104.967099 95.8227645,100.708893 C95.0055331,100.235759 94.5323992,100.192747 93.9302287,100.278772 C91.6935955,100.493832 89.4569623,100.665881 87.1343047,100.665881 C61.2409741,100.665881 40.7241657,83.5900469 40.7241657,62.6861289 C40.7241657,41.825223 61.2409741,24.8354131 87.1773169,24.8354131 Z M60.7002839,0.09 C82.877692,0.09 102.000023,9.66742378 112.45658,23.9468789 C104.977648,20.60911 96.3773942,18.7119293 87.1773169,18.7119293 C57.6915478,18.7119293 34.3669841,38.1991848 34.3669841,62.1265746 C34.3669841,77.204125 43.5904765,90.5453726 57.7572953,98.3717506 C55.7964019,98.2869452 53.8690399,98.1262474 51.9416779,97.9409241 C51.1606557,97.8293495 50.5469954,97.8851368 49.4870367,98.4987971 L48.2890698,99.1297148 L47.0909505,99.7473204 L45.8945072,100.350681 L44.701568,100.938863 C44.5031384,101.035577 44.304931,101.131619 44.1069838,101.226971 L42.9227289,101.790635 L41.7465488,102.336789 L40.5802717,102.864498 C40.3868191,102.950861 40.1938552,103.036416 40.0014182,103.121144 L38.8534237,103.619437 L37.719903,104.096952 C37.3446782,104.252558 36.9721703,104.404544 36.6026842,104.552757 L35.5035957,104.985918 L34.4244657,105.395502 L33.3671224,105.780576 C33.1928157,105.842661 33.0194929,105.903685 32.8471921,105.96363 L31.825957,106.310189 L30.8310792,106.629905 L29.8643871,106.921845 C27.1670826,107.708777 24.8311957,108.15 23.0438565,108.15 C19.5565015,108.15 18.8899504,105.59531 20.9922181,103.033193 L21.1470883,102.850207 C23.2670057,100.339778 26.2795199,96.3788797 28.1762881,92.8084925 C28.7341611,91.7485338 28.5667992,90.9675116 27.3952659,90.3538513 C11.1053743,82.2646928 0.45,66.5326742 0.45,49.182824 C0.45,22.1259835 27.0605421,0.09 60.7002839,0.09 Z" id="Shape"></path>
                </g>
                <g id="Thin-M" transform="translate(312.203000, 426.000000)">
                    <path d="M82.0185756,25.7436267 C106.470544,25.7436267 125.813146,41.7610854 125.813146,61.4280916 C125.813146,74.0393059 118.067995,85.4745549 106.227241,91.3543815 C105.37568,91.8004373 105.254028,92.3681447 105.659534,93.1386047 C107.038252,95.7338385 109.22798,98.612926 110.7689,100.4377 C112.431472,102.343575 111.985416,104.29 109.390182,104.29 C105.41623,104.29 97.7116301,101.289261 90.1692318,97.2747586 C89.3987718,96.8287028 88.952716,96.7881523 88.3850086,96.8692533 C86.2763811,97.072006 84.1677536,97.2342081 81.9780251,97.2342081 C57.5666071,97.2342081 38.2240051,81.1356484 38.2240051,61.4280916 C38.2240051,41.7610854 57.5666071,25.7436267 82.0185756,25.7436267 Z M53.3862655,0.58 C74.7799233,0.58 92.9380033,10.7232799 101.336685,25.3409927 C95.446129,23.2498011 88.9180074,22.0883985 82.0185756,22.0883985 C55.230403,22.0883985 34.039759,39.5966317 34.039759,61.0940826 C34.039759,70.7873072 38.3303558,79.6817856 45.486832,86.5337014 C44.8917127,86.4740841 44.371288,86.562536 43.5336799,87.0474669 L42.3933344,87.6475064 L41.2529889,88.2337383 L40.1146857,88.8051202 L38.9804674,89.3606096 L37.8523763,89.8991641 C37.6649852,89.987454 37.4779345,90.0749948 37.2912667,90.1617649 L36.176196,90.6729622 L35.0723585,91.1646183 C34.7065119,91.325131 34.3428778,91.482213 33.9817967,91.6356907 L32.906553,92.0851371 L31.8486698,92.5119147 C31.6739161,92.5810974 31.4999708,92.6492921 31.3268766,92.7164771 L30.2988636,93.1072972 C26.230383,94.6207229 22.7010986,95.527553 20.2992245,95.527553 C17.2446392,95.527553 16.6530645,93.2969019 18.4792515,91.0527984 L18.632618,90.8708583 C20.4952959,88.6650556 23.1422592,85.1847891 24.8088657,82.0476474 C25.2990441,81.1163085 25.1519905,80.4300587 24.1226159,79.8908625 C9.80940713,72.7832759 0.447,58.9602455 0.447,43.7156978 C0.447,19.9420462 23.8285089,0.58 53.3862655,0.58 Z" id="Shape"></path>
                </g>
                <g id="Ultralight-M" transform="translate(17.322000, 427.000000)">
                    <path d="M80.035902,26.2116648 C103.741347,26.2116648 122.493415,41.7401069 122.493415,60.8066751 C122.493415,73.0328663 114.984725,84.1189946 103.505472,89.8193088 C102.679909,90.2517464 102.561971,90.8021216 102.955096,91.5490593 C104.291722,94.06506 106.414597,96.8562484 107.908473,98.6253114 C109.520286,100.472999 109.087848,102.36 106.571847,102.36 C102.719221,102.36 95.2498441,99.4508741 87.9377169,95.5589355 C87.1907792,95.1264978 86.7583415,95.0871853 86.2079664,95.1658104 C84.1637158,95.3623729 82.1194651,95.519623 79.9965895,95.519623 C56.3304575,95.519623 37.5783894,79.9125558 37.5783894,60.8066751 C37.5783894,41.7401069 56.3304575,26.2116648 80.035902,26.2116648 Z M51.7346411,0.85 C72.678852,0.85 90.4220795,10.884829 98.4422426,25.2871517 C92.8074338,23.3552963 86.5928404,22.2858324 80.035902,22.2858324 C53.7942354,22.2858324 33.035902,39.4154142 33.035902,60.4479387 C33.035902,69.4054208 36.7855674,77.6657313 43.1088723,84.2034533 C42.841614,84.2802861 42.5451055,84.4123773 42.1896273,84.6181804 L41.2255258,85.1262254 L40.2612325,85.6241801 L39.2980626,86.111373 L38.3373314,86.587133 L37.3803541,87.0507887 L36.4284459,87.5016687 L35.4829222,87.9391018 L34.5450981,88.3624166 L33.6162888,88.7709418 L32.6978097,89.1640061 L31.7909759,89.5409381 C31.490785,89.6638189 31.1927542,89.783899 30.8971027,89.9010666 L30.0175054,90.2437203 C29.5814948,90.4105665 29.151331,90.5706078 28.7277536,90.7234668 L27.8896,91.0194962 C27.7514444,91.067201 27.6140755,91.1140798 27.4775206,91.1601186 L26.668179,91.4261595 C26.4018007,91.5114052 26.1388978,91.593179 25.8796894,91.671369 L25.113367,91.8950756 C22.9747662,92.4978147 21.1189339,92.8335405 19.6804904,92.8335405 C16.70882,92.8335405 16.1433772,90.6543155 17.9397703,88.471055 L18.065911,88.3222156 C18.2558615,88.0972742 18.4542309,87.8586521 18.6590252,87.6081772 L19.2906889,86.8230216 C20.9080654,84.780375 22.7746844,82.1738171 24.0493524,79.7744421 C24.5242287,78.8721771 24.3817658,78.2073503 23.3845256,77.6849863 C9.51813745,70.7992799 0.448,57.4077681 0.448,42.6391149 C0.448,19.6076141 23.0995998,0.85 51.7346411,0.85 Z" id="Shape"></path>
                </g>
                <g id="Black-S" transform="translate(2389.130000, 0.000000)">
                    <path d="M83.0736551,19.14 C106.726696,19.14 125.43731,34.6341146 125.43731,53.6585338 C125.43731,65.8576975 117.945219,76.9193185 106.491342,82.6070315 C105.667605,83.0385132 105.549928,83.5876717 105.942184,84.3329582 C107.275854,86.843397 109.394037,89.6284151 110.88461,91.3935674 C112.49286,93.2371709 112.061378,95.12 109.55094,95.12 C105.70683,95.12 98.2539649,92.2173051 90.9580021,88.3339701 C90.2127155,87.9024884 89.7812339,87.8632628 89.2320754,87.941714 C87.1923438,88.137842 85.1526123,88.2947445 83.0344295,88.2947445 C59.4206144,88.2947445 40.71,72.7221786 40.71,53.6585338 C40.71,34.6341146 59.4206144,19.14 83.0736551,19.14 Z M50.1533764,0.09 C64.1180091,0.09 76.604766,4.72302329 85.5285337,12.1772192 C84.7152599,12.145964 83.8969945,12.13 83.0736551,12.13 C55.1569885,12.13 33.0736551,30.4831234 33.0736551,53.0179711 C33.0736551,63.5878808 37.9121342,73.251751 45.917789,80.5419064 C44.9329297,80.4728169 43.9537131,80.3864167 42.9744966,80.2922612 C42.3343418,80.2008105 41.8313629,80.2465359 40.9625813,80.7495147 L40.0170611,81.2476755 C39.8594233,81.3298803 39.7017785,81.4116646 39.5441547,81.4930142 L38.5988854,81.9757816 L38.126857,82.2130395 L38.126857,82.2130395 L37.1848493,82.6788768 C37.0281315,82.7555236 36.8715739,82.8316646 36.7152045,82.9072854 L35.7794691,83.3546559 L34.849588,83.7888615 L33.9268991,84.2092191 L33.0127406,84.6150458 C32.861166,84.6814347 32.7100027,84.7471897 32.5592784,84.8122966 L31.6604244,85.1950463 L30.773446,85.5615576 L29.8996814,85.9111476 L29.0404685,86.2431332 C28.8985534,86.2969592 28.7573003,86.3500231 28.6167372,86.4023109 L27.7818611,86.7066094 C27.6441693,86.7557354 27.5072232,86.8040568 27.3710508,86.8515593 L26.563522,87.1266339 C26.2975888,87.214974 26.034973,87.2999247 25.7758975,87.3813722 L25.0095153,87.6150911 L24.2657135,87.8271078 C22.3135387,88.362942 20.6164948,88.66 19.2887661,88.66 C16.3623438,88.66 15.859365,86.4651833 17.7341043,84.3160919 C19.4716675,82.2584512 21.9408363,79.0119515 23.4954982,76.0855292 C23.9527517,75.2167475 23.8155756,74.5765927 22.8553433,74.0736138 C9.50354156,67.4434383 0.77,54.54889 0.77,40.3283067 C0.77,18.1515126 22.5809912,0.09 50.1533764,0.09 Z" id="Shape"></path>
                </g>
                <g id="Heavy-S" transform="translate(2094.110000, 0.000000)">
                    <path d="M80.8274206,19.8179489 C103.976784,19.8179489 122.288967,34.9821256 122.288967,53.6014311 C122.288967,65.5408208 114.956416,76.3668912 103.746442,81.9334877 C102.940245,82.3557812 102.825074,82.8932457 103.208978,83.6226618 C104.514248,86.0796423 106.587326,88.8053551 108.046158,90.5329195 C109.620161,92.3372646 109.197868,94.18 106.740887,94.18 C102.978636,94.18 95.6844747,91.3391163 88.5438751,87.5384745 C87.814459,87.116181 87.3921654,87.0777907 86.8547009,87.1545713 C84.8584043,87.3465229 82.8621076,87.5000842 80.7890303,87.5000842 C57.6780573,87.5000842 39.3658743,72.2591269 39.3658743,53.6014311 C39.3658743,34.9821256 57.6780573,19.8179489 80.8274206,19.8179489 Z M49.5515692,0.63 C63.7102539,0.63 76.330962,5.45143461 85.18649,13.1589846 C83.7520351,13.0555319 82.2979873,13.0036773 80.8274206,13.0036773 C53.4720114,13.0036773 31.8326579,30.9470355 31.8326579,52.9787537 C31.8326579,63.3880404 36.6432709,72.8985484 44.5907,80.0437456 C43.8792338,79.9872079 43.1697041,79.9231058 42.4601744,79.8548818 C41.8278207,79.7645456 41.3309714,79.8097137 40.4727771,80.306563 L39.9970697,80.5584541 L39.0451961,81.0546435 L38.0938759,81.5401147 L37.1445071,82.0141541 L36.1984878,82.4760481 L35.257216,82.9250831 L34.3220896,83.3605456 L33.3945068,83.7817219 L32.4758656,84.1878985 C32.3235815,84.254305 32.1717283,84.3200567 32.020335,84.3851389 L31.1177274,84.767478 L30.2275565,85.1330334 L29.3512203,85.4810916 C29.2063948,85.5376036 29.062204,85.5933568 28.9186771,85.6483363 L28.0657142,85.9688107 L27.2300811,86.2700039 C26.6790796,86.4642137 26.1405633,86.6450937 25.6163962,86.8116924 L24.8411406,87.0507606 C22.5490575,87.7351188 20.5664198,88.1206477 19.0630884,88.1206477 C16.2380279,88.1206477 15.6993001,86.0500067 17.4047471,83.9744637 L17.5273724,83.8296763 C19.2437609,81.797111 21.6828394,78.5901745 23.2185555,75.6994148 C23.6702366,74.8412205 23.5347323,74.2088669 22.5862018,73.7120176 C9.39711085,67.1626402 0.77,54.4252305 0.77,40.3779453 C0.77,18.4714073 22.3151931,0.63 49.5515692,0.63 Z" id="Shape"></path>
                </g>
                <g id="Bold-S" transform="translate(1799.300000, 1.000000)">
                    <path d="M84.464667,19.55 C107.068606,19.55 124.949334,34.3568921 124.949334,52.5375065 C124.949334,64.1955911 117.789546,74.7665875 106.843691,80.2020289 C106.056489,80.6143727 105.944032,81.139174 106.31889,81.8514042 C107.593407,84.2504956 109.617641,86.9119876 111.042101,88.5988487 C112.579019,90.3606815 112.166675,92.16 109.767584,92.16 C106.093975,92.16 98.9716727,89.3860506 91.9993134,85.6749561 C91.2870831,85.2626123 90.8747393,85.2251265 90.349938,85.3000981 C88.4006763,85.4875271 86.4514146,85.6374703 84.4271812,85.6374703 C61.8607279,85.6374703 43.98,70.7556066 43.98,52.5375065 C43.98,34.3568921 61.8607279,19.55 84.464667,19.55 Z M48.8765565,0.27 C62.9796748,0.27 75.5354533,5.12078755 84.2806052,12.8556889 C57.5669743,12.9359296 36.464667,30.4421006 36.464667,51.9257279 C36.464667,62.3038769 41.3688364,71.767937 49.4365529,78.7964362 L48.9210996,78.7994992 C46.5157718,78.7994992 44.1995302,78.6213268 41.8832886,78.3986113 C41.2596851,78.309525 40.7697109,78.3540681 39.9233918,78.8440423 L38.9849339,79.3383868 L38.0463323,79.8225133 L37.1089659,80.2957179 C36.9529176,80.3736361 36.7969783,80.45107 36.6411766,80.5280047 L35.7082478,80.9835073 L34.7800007,81.4263288 L33.8578142,81.8557655 L32.9430667,82.2711138 L32.0371372,82.67167 C31.8869603,82.7371576 31.7372083,82.8019995 31.5879099,82.8661811 L30.6977922,83.2432296 L30.2572463,83.4255911 L30.2572463,83.4255911 L29.3860424,83.7775485 L28.5291711,84.1118991 C28.3876302,84.1661178 28.2467439,84.2195736 28.106541,84.2722518 L27.2737536,84.5788724 L26.4587455,84.8661268 C23.3703864,85.9292508 20.7043014,86.55 18.8099587,86.55 C16.0254965,86.55 15.4932919,84.5102196 17.1718377,82.4645095 L17.295493,82.3184047 C18.9881311,80.3139649 21.393459,77.1514042 22.9079246,74.3006453 C23.3533557,73.4543263 23.2197264,72.8307228 22.2843211,72.3407486 C9.27773361,65.8819979 0.77,53.3208415 0.77,39.467935 C0.77,17.8645276 22.0170625,0.27 48.8765565,0.27 Z" id="Shape"></path>
                </g>
                <g id="Semibold-S" transform="translate(1503.880000, 1.000000)">
                    <path d="M51.3800155,0.71 C67.0602458,0.71 80.9223329,6.40973456 90.1557544,15.3670118 C85.8513238,14.3223079 81.2768208,13.76 76.522318,13.76 C50.2806514,13.76 29.522318,30.8895818 29.522318,51.9221064 C29.522318,64.8652664 37.3512272,76.3528051 49.4610758,83.2911266 C47.6230216,83.2250148 45.8229202,83.0775007 44.0228188,82.904414 C43.366763,82.8106918 42.8512907,82.8575529 41.9609293,83.3730253 L40.9919232,83.8835599 L40.0227457,84.3837524 L39.0547681,84.8729027 C38.8936147,84.9534687 38.7325684,85.0335455 38.5716578,85.1131184 L37.6080514,85.5843931 L36.6490732,86.0428759 C36.4897054,86.1181848 36.3305875,86.1929316 36.1717483,86.2671016 L35.2222837,86.7050839 L34.2808758,87.1285244 C34.124722,87.1978471 33.9689611,87.2665347 33.8136216,87.3345727 L32.8868698,87.734888 L31.9716029,88.1189115 C31.8200917,88.1815189 31.6691162,88.2434183 31.5187049,88.3045951 L30.6232367,88.6628686 C30.1791167,88.8375532 29.7405891,89.0054722 29.3084254,89.1662319 L28.4528117,89.4780889 L27.6155396,89.7701543 C27.4775989,89.8171437 27.3404795,89.8632793 27.2042102,89.9085465 L26.3970217,90.1696122 C23.7419151,91.0043178 21.4496411,91.48 19.7487558,91.48 C16.8162907,91.48 16.2583078,89.3295256 18.031001,87.1750688 L18.1554775,87.0281931 C19.9362003,84.9194424 22.4667011,81.5923025 24.0599793,78.5931905 C24.5285906,77.7028291 24.3880072,77.0467734 23.4039236,76.531301 C9.72047496,69.7364378 0.77,56.5216004 0.77,41.9477904 C0.77,19.2201446 23.1227568,0.71 51.3800155,0.71 Z M76.522318,20.04 C98.7620289,20.04 116.354636,34.6083015 116.354636,52.4959628 C116.354636,63.9661951 109.310217,74.366856 98.5407383,79.7147135 C97.766221,80.120413 97.6555756,80.6367579 98.0243934,81.3375116 C99.2783738,83.6979453 101.26999,86.3165514 102.671497,87.9762313 C104.18365,89.7096748 103.77795,91.48 101.417517,91.48 C97.8031027,91.48 90.7955653,88.7507486 83.935555,85.0994528 C83.2348012,84.6937532 82.8291017,84.6568715 82.3127568,84.730635 C80.3949045,84.9150439 78.4770521,85.062571 76.4854362,85.062571 C54.2826071,85.062571 36.69,70.4205059 36.69,52.4959628 C36.69,34.6083015 54.2826071,20.04 76.522318,20.04 Z" id="Shape"></path>
                </g>
                <g id="Medium-S" transform="translate(1208.150000, 2.000000)">
                    <path d="M82.8037842,19.43 C104.75398,19.43 122.117568,33.8086526 122.117568,51.4634538 C122.117568,62.7843676 115.164853,73.0496335 104.53557,78.327873 C103.771136,78.7282912 103.661931,79.2379143 104.025947,79.9295457 C105.263604,82.2592514 107.229293,84.8437687 108.612555,86.4818431 C110.105023,88.1927207 109.704605,89.94 107.374899,89.94 C103.807537,89.94 96.8912235,87.2462777 90.1205163,83.6425142 C89.4288849,83.242096 89.0284667,83.2056944 88.5188436,83.2784977 C86.6259577,83.4605059 84.7330718,83.6061125 82.7673826,83.6061125 C60.853588,83.6061125 43.49,69.1546567 43.49,51.4634538 C43.49,33.8086526 60.853588,19.43 82.8037842,19.43 Z M48.0848167,-3.90798505e-13 C62.7445157,-3.90798505e-13 75.7043567,5.3289196 84.336593,13.703389 C83.8269675,13.6916625 83.316445,13.685 82.8037842,13.685 C57.1204509,13.685 36.8037842,30.4067346 36.8037842,50.9384848 C36.8037842,61.1562508 41.8147722,70.4447399 50.0002812,77.2068183 C49.3805476,77.2272112 48.7561372,77.2370573 48.1286267,77.2370573 C45.7628859,77.2370573 43.4847651,77.0618172 41.2066443,76.8427672 C40.5933041,76.7551471 40.1113939,76.7989572 39.2790036,77.2808673 L38.3382349,77.7763298 L37.3973465,78.2613383 L36.4577742,78.7351599 L35.5209538,79.197062 L34.5883209,79.6463115 L33.6613113,80.0821758 L32.7413608,80.503922 C32.5887038,80.5729958 32.4364006,80.6414508 32.2844814,80.7092718 L31.3778115,81.1084668 C31.2275473,81.1736904 31.0777268,81.2382495 30.92838,81.3021287 L30.0382211,81.6771236 L29.1608642,82.0350691 L28.2977451,82.3752323 C28.1551581,82.4304036 28.0132242,82.4848035 27.8719733,82.5384166 L27.0329028,82.8505324 C26.7561041,82.9513427 26.4822766,83.0488839 26.2116595,83.1430339 L25.409679,83.4151883 C25.1457221,83.5024338 24.885215,83.586166 24.628397,83.6662628 L23.8692494,83.8955244 C21.7510441,84.5135056 19.9166618,84.86 18.5130563,84.86 C15.7744209,84.86 15.2509753,82.8537904 16.9018955,80.8417487 L17.0235157,80.6980485 C17.3009792,80.3694734 17.5979137,80.0092577 17.9070177,79.6240947 L18.5392882,78.8224886 C19.9349888,77.0221989 21.4677984,74.837242 22.5435777,72.8122457 C22.9816779,71.9798554 22.8502478,71.3665152 21.9302375,70.8846051 C9.13771296,64.5321528 0.77,52.1777284 0.77,38.5528136 C0.77,17.3049561 21.6673774,-3.90798505e-13 48.0848167,-3.90798505e-13 Z" id="Shape"></path>
                </g>
                <g id="Regular-S" transform="translate(912.730000, 2.000000)">
                    <path d="M72.833557,19.97 C94.4039597,19.97 111.467114,34.0998658 111.467114,51.4491946 C111.467114,62.5742282 104.634698,72.6618792 94.1893289,77.8487919 C93.4381208,78.2422819 93.3308054,78.7430872 93.6885235,79.4227517 C94.9047651,81.7121477 96.836443,84.2519463 98.1957718,85.8616779 C99.6624161,87.542953 99.2689262,89.26 96.9795302,89.26 C93.4738926,89.26 86.6772483,86.6128859 80.0236913,83.0714765 C79.3440268,82.6779866 78.9505369,82.6422148 78.4497315,82.7137584 C76.5895973,82.8926174 74.7294631,83.0357047 72.7977852,83.0357047 C51.2631544,83.0357047 34.2,68.8342953 34.2,51.4491946 C34.2,34.0998658 51.2631544,19.97 72.833557,19.97 Z M47.5941611,0.44 C63.2580525,0.44 76.9608924,6.58774082 85.4295628,16.03906 C81.4428484,15.1118243 77.2181446,14.615 72.833557,14.615 C47.708557,14.615 27.833557,30.9288875 27.833557,50.9598632 C27.833557,60.8664896 32.6748954,69.8777333 40.5943018,76.4642738 C40.0735933,76.413561 39.6147104,76.4939102 38.8796644,76.9194631 L37.9303905,77.4193008 L36.9810225,77.9083684 L36.0330663,78.3858972 C35.7174836,78.543065 35.4023873,78.6981814 35.0880283,78.8511186 L34.1474143,79.3032637 C33.9910977,79.3774888 33.8350281,79.4511371 33.679237,79.5241924 L32.7480831,79.9552818 L31.8251186,80.3713732 C31.6720572,80.4394292 31.5193999,80.5068282 31.3671779,80.5735543 L30.4593212,80.9657073 C30.3089661,81.0296774 30.1591091,81.0929426 30.0097817,81.1554868 L29.1204215,81.5219716 L28.245275,81.8703835 C28.1006854,81.9269033 27.9567507,81.9826381 27.8135025,82.0375718 L26.9625003,82.3574329 L26.129477,82.6572991 C22.9726047,83.7674808 20.2452125,84.42 18.3290604,84.42 C15.6188247,84.42 15.1008073,82.4345948 16.7346074,80.4434181 L16.8549664,80.3012081 C18.5024832,78.3502013 20.8436913,75.2719463 22.3177852,72.4971812 C22.7513423,71.6734228 22.6212752,71.066443 21.7108054,70.5895302 C9.0509396,64.302953 0.77,52.0766443 0.77,38.5930201 C0.77,17.5655034 21.4506711,0.44 47.5941611,0.44 Z" id="Shape"></path>
                </g>
                <g id="Light-S" transform="translate(618.390000, 4.000000)">
                    <path d="M48.686985,0.1 C66.3246535,0.1 81.5326225,7.71691467 89.8487106,19.0733497 C83.900724,16.4188258 77.0609518,14.91 69.7441404,14.91 C46.2941404,14.91 27.7441404,30.4081931 27.7441404,49.43762 C27.7441404,61.4287794 35.0795739,72.039059 46.3464294,78.2633689 C44.786933,78.1959233 43.2541041,78.0681205 41.7212752,77.9207331 C41.1001291,77.8319979 40.6120857,77.8763655 39.7691017,78.3644089 L38.81636,78.866177 L37.863497,79.3573581 L36.911967,79.83721 L35.9632237,80.3049906 C35.8054129,80.3819069 35.6477787,80.4582893 35.4903516,80.5341223 L34.5485149,80.9824043 L33.6131002,81.4167596 L32.6855613,81.8364461 L32.2251997,82.0405566 L32.2251997,82.0405566 L31.312201,82.4368482 L30.4107131,82.8166156 C30.1122973,82.9403683 29.8160422,83.0612432 29.5221903,83.1791166 L28.6480864,83.5236091 L27.7898554,83.8493508 L26.9489515,84.1555997 C26.8103255,84.2049755 26.6724821,84.2535082 26.5354515,84.3011824 L25.7232643,84.5768004 L24.9320391,84.8310703 L24.16323,85.0632497 C22.0180666,85.6890958 20.1603384,86.04 18.7388694,86.04 C15.9653798,86.04 15.4352724,84.0082576 17.1072036,81.970609 L17.2303717,81.82508 C18.9163397,79.828539 21.312189,76.6784409 22.8206866,73.8389158 C23.2643624,72.9959319 23.1312597,72.3747858 22.1995405,71.8867424 C9.24420754,65.4534435 0.77,52.9417863 0.77,39.1434693 C0.77,17.6251936 21.9333351,0.1 48.686985,0.1 Z M69.7441404,19.78 C90.3712855,19.78 106.688281,33.2919773 106.688281,49.8826329 C106.688281,60.5211771 100.154641,70.1677026 90.1660403,75.1277956 C89.447682,75.5040785 89.3450594,75.982984 89.6871347,76.6329272 C90.850191,78.8222096 92.697398,81.2509448 93.9972845,82.7902839 C95.3997935,84.3980382 95.0235106,86.04 92.8342282,86.04 C89.4818895,86.04 82.9824574,83.5086422 76.6198554,80.122096 C75.9699122,79.7458131 75.5936293,79.7116056 75.1147238,79.7800207 C73.3359319,79.9510583 71.5571399,80.0878885 69.7099329,80.0878885 C49.1169954,80.0878885 32.8,66.5074961 32.8,49.8826329 C32.8,33.2919773 49.1169954,19.78 69.7441404,19.78 Z" id="Shape"></path>
                </g>
                <g id="Thin-S" transform="translate(324.828000, 6.000000)">
                    <path d="M65.3601439,20.2175737 C84.7241414,20.2175737 100.04193,32.9021159 100.04193,48.4768071 C100.04193,58.4638771 93.9083923,67.5196769 84.5314648,72.1760279 C83.8570967,72.5292683 83.7607584,72.978847 84.0818861,73.5889895 C85.1737201,75.6442065 86.9078094,77.9242129 88.1280945,79.3692873 C89.4447179,80.8785873 89.0914775,82.42 87.0362605,82.42 C83.8892095,82.42 77.7877841,80.0436554 71.8148098,76.8644916 C71.2046672,76.5112512 70.8514268,76.4791384 70.4018481,76.543364 C68.7319843,76.7039278 67.0621205,76.8323788 65.3280312,76.8323788 C45.9961465,76.8323788 30.6783574,64.083611 30.6783574,48.4768071 C30.6783574,32.9021159 45.9961465,20.2175737 65.3601439,20.2175737 Z M42.6856513,0.29 C59.627712,0.29 74.0074547,8.32266392 80.6585367,19.8987198 C75.993689,18.2426638 70.8239404,17.3229261 65.3601439,17.3229261 C44.1460603,17.3229261 27.3647702,31.1880422 27.3647702,48.2122988 C27.3647702,55.888555 30.7625787,62.9322683 36.4299337,68.358436 C35.9586469,68.3112239 35.5465123,68.3812706 34.8831939,68.7652971 L33.9801318,69.2404802 L33.0770696,69.7047288 L32.1756248,70.1572175 L31.2774149,70.5971205 L30.3840572,71.0236124 C30.2356585,71.0935309 30.0875294,71.1628563 29.9397035,71.2315712 L29.0566569,71.6363985 L28.1825062,72.0257507 C27.892785,72.1528638 27.604816,72.2772602 27.3188687,72.3988022 L26.467362,72.7547277 L25.6296033,73.0927014 C25.4912124,73.1474885 25.3534617,73.2014932 25.216385,73.2546983 L24.4022811,73.5641965 C21.1803709,74.7627083 18.3854608,75.4808449 16.4833692,75.4808449 C14.0643827,75.4808449 13.595903,73.7143482 15.0420966,71.9371982 L15.1635506,71.7931163 C16.638642,70.0462975 18.7348246,67.2902056 20.0546432,64.8058411 C20.4428252,64.0682954 20.3263706,63.5248407 19.5111885,63.0978405 C8.17627536,57.4692021 0.762,46.522471 0.762,34.4500121 C0.762,15.6231873 19.2782793,0.29 42.6856513,0.29 Z" id="Shape"></path>
                </g>
                <g id="Ultralight-S" transform="translate(29.728000, 7.000000)">
                    <path d="M63.5871265,20.49 C82.2997388,20.49 97.102253,32.7478472 97.102253,47.7986216 C97.102253,57.4497367 91.1750408,66.2009086 82.1135436,70.7006247 C81.4618606,71.0419824 81.368763,71.4764378 81.6790883,72.0660558 C82.7341941,74.0521373 84.4099504,76.2554466 85.5891864,77.6519102 C86.8615199,79.1104388 86.5201621,80.6 84.5340805,80.6 C81.4928931,80.6 75.5967135,78.3035932 69.8246639,75.2313733 C69.2350459,74.8900155 68.8936882,74.858983 68.4592328,74.921048 C66.8455416,75.0762106 65.2318503,75.2003407 63.556094,75.2003407 C44.8745142,75.2003407 30.072,62.8804285 30.072,47.7986216 C30.072,32.7478472 44.8745142,20.49 63.5871265,20.49 Z M41.246667,0.47 C57.8738729,0.47 71.9453919,8.48187574 78.2242625,19.9549912 C73.7491701,18.4039264 68.8058892,17.545 63.5871265,17.545 C42.9287932,17.545 26.5871265,31.0039572 26.5871265,47.5295121 C26.5871265,54.586567 29.554978,61.0928774 34.5573421,66.2362045 C34.3146616,66.2904115 34.0463883,66.4013749 33.7120207,66.5949561 L32.821395,67.0634805 L31.930804,67.5209738 C31.7824674,67.5962563 31.6342017,67.6710438 31.4860414,67.7453185 L30.5986219,68.1846733 C30.4510219,68.2568265 30.3035967,68.3284316 30.1563809,68.399471 L29.2758763,68.8187763 C29.1296368,68.8874818 28.983676,68.9555861 28.8380286,69.0230716 L27.9681824,69.4204169 L27.1075214,69.8020606 L26.2577094,70.1671535 L25.8373916,70.3432281 L25.8373916,70.3432281 L25.0069726,70.6819026 C24.8697739,70.7368158 24.7332005,70.7909509 24.5972872,70.8442903 L23.7900046,71.1546358 L23.0002259,71.4450337 C22.8701472,71.4917238 22.7408671,71.5375475 22.6124204,71.5824869 L21.8520171,71.8413712 L21.1132771,72.0781849 C19.0524415,72.7170886 17.2725022,73.08 15.9437501,73.08 C13.6094991,73.08 13.156055,71.3766276 14.5488902,69.6617459 L14.6692328,69.5188487 C16.0936933,67.8319876 18.1179267,65.1704956 19.392444,62.7714042 C19.767302,62.059174 19.6548446,61.5343727 18.8676427,61.1220289 C7.92178833,55.6865875 0.762,45.1155911 0.762,33.4575065 C0.762,15.2768921 18.6427279,0.47 41.246667,0.47 Z" id="Shape"></path>
                </g>
            </g>
        </g>
    </g>
</svg>