<?xml version="1.0" encoding="UTF-8"?>
<svg width="3300px" height="2200px" viewBox="0 0 3300 2200" version="1.1" xmlns="http://www.w3.org/2000/svg" xmlns:xlink="http://www.w3.org/1999/xlink">
    <title>bubble.left.and.bubble.right.fill</title>
    <g id="App-Symbols" stroke="none" stroke-width="1" fill="none" fill-rule="evenodd">
        <g id="bubble.left.and.bubble.right.fill">
            <g id="Notes">
                <rect id="artboard" fill="#FFFFFF" fill-rule="nonzero" x="0" y="0" width="3300" height="2200"></rect>
                <line x1="263" y1="292" x2="3036" y2="292" id="Path" stroke="#000000" stroke-width="0.5"></line>
                <text id="Weight/Scale-Variations" fill="#000000" fill-rule="nonzero" font-family="Helvetica-Bold, Helvetica" font-size="13" font-weight="bold">
                    <tspan x="263" y="322">Weight/Scale Variations</tspan>
                </text>
                <text id="Ultralight" fill="#000000" fill-rule="nonzero" font-family="Helvetica" font-size="13" font-weight="normal">
                    <tspan x="533.711" y="322">Ultralight</tspan>
                </text>
                <text id="Thin" fill="#000000" fill-rule="nonzero" font-family="Helvetica" font-size="13" font-weight="normal">
                    <tspan x="843.422" y="322">Thin</tspan>
                </text>
                <text id="Light" fill="#000000" fill-rule="nonzero" font-family="Helvetica" font-size="13" font-weight="normal">
                    <tspan x="1138.63" y="322">Light</tspan>
                </text>
                <text id="Regular" fill="#000000" fill-rule="nonzero" font-family="Helvetica" font-size="13" font-weight="normal">
                    <tspan x="1426.84" y="322">Regular</tspan>
                </text>
                <text id="Medium" fill="#000000" fill-rule="nonzero" font-family="Helvetica" font-size="13" font-weight="normal">
                    <tspan x="1723.06" y="322">Medium</tspan>
                </text>
                <text id="Semibold" fill="#000000" fill-rule="nonzero" font-family="Helvetica" font-size="13" font-weight="normal">
                    <tspan x="2015.77" y="322">Semibold</tspan>
                </text>
                <text id="Bold" fill="#000000" fill-rule="nonzero" font-family="Helvetica" font-size="13" font-weight="normal">
                    <tspan x="2326.48" y="322">Bold</tspan>
                </text>
                <text id="Heavy" fill="#000000" fill-rule="nonzero" font-family="Helvetica" font-size="13" font-weight="normal">
                    <tspan x="2618.19" y="322">Heavy</tspan>
                </text>
                <text id="Black" fill="#000000" fill-rule="nonzero" font-family="Helvetica" font-size="13" font-weight="normal">
                    <tspan x="2917.4" y="322">Black</tspan>
                </text>
                <line x1="263" y1="1903" x2="3036" y2="1903" id="Path" stroke="#000000" stroke-width="0.5"></line>
                <g id="Group" transform="translate(264, 1918)" fill="#000000" fill-rule="nonzero">
                    <path d="M8.24805,15.830078 C12.5547,15.830078 16.1387,12.25586 16.1387,7.94922 C16.1387,3.6426 12.5449,0.0684 8.23828,0.0684 C3.94141,0.0684 0.36719,3.6426 0.36719,7.94922 C0.36719,12.25586 3.95117,15.830078 8.24805,15.830078 Z M8.24805,14.345703 C4.70312,14.345703 1.87109,11.50391 1.87109,7.94922 C1.87109,4.3945 4.69336,1.5527 8.23828,1.5527 C11.793,1.5527 14.6348,4.3945 14.6445252,7.94922 C14.6543,11.50391 11.8027,14.345703 8.24805,14.345703 Z M8.22852,11.37695 C8.69727,11.37695 8.9707,11.06445 8.9707,10.54688 L8.9707,8.68164 L11.002,8.68164 C11.5,8.68164 11.832,8.42773 11.832,7.95898 C11.832,7.48047 11.5195,7.2168 11.002,7.2168 L8.9707,7.2168 L8.9707,5.18555 C8.9707,4.668 8.69727,4.3457 8.22852,4.3457 C7.75977,4.3457 7.50586,4.6875 7.50586,5.18555 L7.50586,7.2168 L5.49414,7.2168 C4.97656,7.2168 4.64453,7.48047 4.64453,7.95898 C4.64453,8.42773 4.99609,8.68164 5.49414,8.68164 L7.50586,8.68164 L7.50586,10.54688 C7.50586,11.04492 7.75977,11.37695 8.22852,11.37695 Z" id="Shape"></path>
                </g>
                <g id="Group" transform="translate(282.506, 1915)" fill="#000000" fill-rule="nonzero">
                    <path d="M10.709,20.91016 C16.1582,20.91016 20.6699,16.38867 20.6699,10.94922 C20.6699,5.5 16.1484,0.9883 10.6992,0.9883 C5.25977,0.9883 0.74805,5.5 0.74805,10.94922 C0.74805,16.38867 5.26953,20.91016 10.709,20.91016 Z M10.709,19.25 C6.09961,19.25 2.41797,15.55859 2.41797,10.94922 C2.41797,6.3398 6.08984,2.6484 10.6992,2.6484 C15.3086,2.6484 19,6.3398 19.009819,10.94922 C19.0195,15.55859 15.3184,19.25 10.709,19.25 Z M10.6797,15.33398 C11.207,15.33398 11.5098,14.98242 11.5098,14.40625 L11.5098,11.76953 L14.3223,11.76953 C14.8691,11.76953 15.25,11.48633 15.25,10.96875 C15.25,10.44141 14.8887,10.13867 14.3223,10.13867 L11.5098,10.13867 L11.5098,7.3164 C11.5098,6.75 11.207,6.3887 10.6797,6.3887 C10.1621,6.3887 9.8789,6.7695 9.8789,7.3164 L9.8789,10.13867 L7.07617,10.13867 C6.50977,10.13867 6.13867,10.44141 6.13867,10.96875 C6.13867,11.48633 6.5293,11.76953 7.07617,11.76953 L9.8789,11.76953 L9.8789,14.40625 C9.8789,14.96289 10.1621,15.33398 10.6797,15.33398 Z" id="Shape"></path>
                </g>
                <g id="Group" transform="translate(306.924, 1913)" fill="#000000" fill-rule="nonzero">
                    <path d="M12.9707,25.66406 C19.9336,25.66406 25.6953,19.9023438 25.6953,12.94922 C25.6953,5.9863 19.9238,0.2246 12.9609,0.2246 C6.00781,0.2246 0.25586,5.9863 0.25586,12.94922 C0.25586,19.9023438 6.01758,25.66406 12.9707,25.66406 Z M12.9707,23.84766 C6.93555,23.84766 2.08203,18.98438 2.08203,12.94922 C2.08203,6.9043 6.92578,2.0508 12.9609,2.0508 C19.0059,2.0508 23.8594,6.9043 23.8691148,12.94922 C23.8789,18.98438 19.0156,23.84766 12.9707,23.84766 Z M12.9414,18.61328 C13.5176,18.61328 13.8594,18.22266 13.8594,17.61719 L13.8594,13.86719 L17.7754,13.86719 C18.3711,13.86719 18.7812,13.53516 18.7812,12.97852 C18.7812,12.40234 18.3906,12.06055 17.7754,12.06055 L13.8594,12.06055 L13.8594,8.1348 C13.8594,7.5195 13.5176,7.1289 12.9414,7.1289 C12.375,7.1289 12.0527,7.5391 12.0527,8.1348 L12.0527,12.06055 L8.1465,12.06055 C7.53125,12.06055 7.13086,12.40234 7.13086,12.97852 C7.13086,13.53516 7.55078,13.86719 8.1465,13.86719 L12.0527,13.86719 L12.0527,17.61719 C12.0527,18.20312 12.375,18.61328 12.9414,18.61328 Z" id="Shape"></path>
                </g>
                <text id="Design-Variations" fill="#000000" fill-rule="nonzero" font-family="Helvetica-Bold, Helvetica" font-size="13" font-weight="bold">
                    <tspan x="263" y="1953">Design Variations</tspan>
                </text>
                <text id="Symbols-are-supported-in-up-to-nine-weights-and-three-scales." fill="#000000" fill-rule="nonzero" font-family="Helvetica" font-size="13" font-weight="normal">
                    <tspan x="263" y="1971">Symbols are supported in up to nine weights and three scales.</tspan>
                </text>
                <text id="For-optimal-layout-with-text-and-other-symbols,-vertically-align" fill="#000000" fill-rule="nonzero" font-family="Helvetica" font-size="13" font-weight="normal">
                    <tspan x="263" y="1989">For optimal layout with text and other symbols, vertically align</tspan>
                </text>
                <text id="symbols-with-the-adjacent-text." fill="#000000" fill-rule="nonzero" font-family="Helvetica" font-size="13" font-weight="normal">
                    <tspan x="263" y="2007">symbols with the adjacent text.</tspan>
                </text>
                <line x1="776" y1="1919" x2="776" y2="1933" id="Path" stroke="#00AEEF" stroke-width="0.5"></line>
                <g id="Group" transform="translate(778, 1918)" fill="#000000" fill-rule="nonzero">
                    <path d="M1.31055,15.126953 C1.82812,15.126953 2.08203,14.9316406 2.26758,14.394531 L3.52734,10.9375 L9.2891,10.9375 L10.5488,14.394531 C10.7344,14.9316406 10.9883,15.126953 11.4961,15.126953 C12.0137,15.126953 12.3457,14.814453 12.3457,14.326172 C12.3457,14.160156 12.3164,14.013672 12.2383,13.79883 L7.6582,1.6113 C7.43359,1.0059 7.0332,0.7129 6.4082,0.7129 C5.80273,0.7129 5.39258,1.0059 5.17773,1.6016 L0.59766,13.80859 C0.51953,14.023438 0.49023,14.169922 0.49023,14.335938 C0.49023,14.824219 0.80273,15.126953 1.31055,15.126953 Z M4.00586,9.46289 L6.37891,2.8906 L6.42773,2.8906 L8.8008,9.46289 L4.00586,9.46289 Z" id="Shape"></path>
                </g>
                <line x1="792.836" y1="1919" x2="792.836" y2="1933" id="Path" stroke="#00AEEF" stroke-width="0.5"></line>
                <text id="Margins" fill="#000000" fill-rule="nonzero" font-family="Helvetica-Bold, Helvetica" font-size="13" font-weight="bold">
                    <tspan x="776" y="1953">Margins</tspan>
                </text>
                <text id="Leading-and-trailing-margins-on-the-left-and-right-side-of-each-symbol" fill="#000000" fill-rule="nonzero" font-family="Helvetica" font-size="13" font-weight="normal">
                    <tspan x="776" y="1971">Leading and trailing margins on the left and right side of each symbol</tspan>
                </text>
                <text id="can-be-adjusted-by-modifying-the-x-location-of-the-margin-guidelines." fill="#000000" fill-rule="nonzero" font-family="Helvetica" font-size="13" font-weight="normal">
                    <tspan x="776" y="1989">can be adjusted by modifying the x-location of the margin guidelines.</tspan>
                </text>
                <text id="Modifications-are-automatically-applied-proportionally-to-all" fill="#000000" fill-rule="nonzero" font-family="Helvetica" font-size="13" font-weight="normal">
                    <tspan x="776" y="2007">Modifications are automatically applied proportionally to all</tspan>
                </text>
                <text id="scales-and-weights." fill="#000000" fill-rule="nonzero" font-family="Helvetica" font-size="13" font-weight="normal">
                    <tspan x="776" y="2025">scales and weights.</tspan>
                </text>
                <g id="Group" transform="translate(1291, 1914)" fill="#000000" fill-rule="nonzero">
                    <path d="M0.8418,20.86523 L2.54102,22.57422 C3.40039,23.44336 4.38672,23.38477 5.31445,22.35938 L15.4902,11.14844 C15.7539,11.23633 16.0273,11.2168 16.3398,11.1582 L17.4043,10.96289 L18.0684,11.63672 L18.0293,12.19336 C17.9902,12.69141 18.1172,13.07227 18.6055,13.55078 L19.3672,14.29297 C19.8457,14.77148 20.4609,14.80078 20.9297,14.33203 L23.8398,11.41211 C24.3086,10.94336 24.2891,10.34766 23.8105,9.86914 L23.0391,9.10742 C22.5605,8.6289 22.1895,8.4727 21.7109,8.5117 L21.1348,8.5605 L20.4902,7.9258 L20.7344,6.8027 C20.8613,6.2363 20.7051,5.7969 20.1191,5.2109 L17.9219,3.0234 C14.582,-0.2969 10.1484,-0.2188 7.25781,2.6719 C6.83789,3.082 6.80859,3.6582 7.04297,4.0488 C7.27734,4.4102 7.73633,4.6445 8.3809,4.4785 C9.8457,4.1367 11.3691,4.0781 12.7949,5.0156 L12.209,6.4707 C12.0137,6.9492 11.9844,7.3496 12.1113,7.7109 L1.04688,18.101562 C0.06055,19.0195312 -0.01758,19.996094 0.8418,20.86523 Z M8.752,3.043 C11.1836,1.2656 14.4746,1.5684 16.7012,3.7949 L19.1328,6.207 C19.3672,6.4414 19.4062,6.627 19.3379,6.9688 L19.0156,8.4531 L20.5195,9.9375 L21.5059,9.87891 C21.7598,9.86914 21.8379,9.88867 22.0332,10.08398 L22.6094,10.66016 L20.168,13.10156 L19.5918,12.52539 C19.3965,12.33008 19.3672,12.25195 19.377,11.98828 L19.4453,11.01172 L17.9512,9.52734 L16.4277,9.78125 C16.1055,9.84961 15.959,9.82031 15.7148,9.58594 L13.7129,7.584 C13.459,7.3496 13.4297,7.1836 13.5859,6.8125 L14.4648,4.7227 C12.9023,3.2676 10.8711,2.6426 8.8398,3.2383 C8.6836,3.2773 8.625,3.1504 8.752,3.043 Z M3.27344,21.3047 L2.10156,20.14258 C1.63281,19.683594 1.74023,19.341797 2.14062,18.9804688 L12.9512,8.8047 L14.416,10.28906 L4.42578,21.27539 C4.07422,21.67578 3.74219,21.77344 3.27344,21.3047 Z" id="Shape"></path>
                </g>
                <text id="Exporting" fill="#000000" fill-rule="nonzero" font-family="Helvetica-Bold, Helvetica" font-size="13" font-weight="bold">
                    <tspan x="1289" y="1953">Exporting</tspan>
                </text>
                <text id="Symbols-should-be-outlined-when-exporting-to-ensure-the" fill="#000000" fill-rule="nonzero" font-family="Helvetica" font-size="13" font-weight="normal">
                    <tspan x="1289" y="1971">Symbols should be outlined when exporting to ensure the</tspan>
                </text>
                <text id="design-is-preserved-when-submitting-to-Xcode." fill="#000000" fill-rule="nonzero" font-family="Helvetica" font-size="13" font-weight="normal">
                    <tspan x="1289" y="1989">design is preserved when submitting to Xcode.</tspan>
                </text>
                <text id="template-version" fill="#000000" fill-rule="nonzero" font-family="Helvetica" font-size="13" font-weight="normal">
                    <tspan x="2952" y="1933">Template v.2.0</tspan>
                </text>
                <text id="Requires-Xcode-12-or-greater" fill="#000000" fill-rule="nonzero" font-family="Helvetica" font-size="13" font-weight="normal">
                    <tspan x="2865" y="1951">Requires Xcode 12 or greater</tspan>
                </text>
                <text id="Generated-from-bubble.left.and.bubble.right.fill" fill="#000000" fill-rule="nonzero" font-family="Helvetica" font-size="13" font-weight="normal">
                    <tspan x="2768" y="1969">Generated from bubble.left.and.bubble.right.fill</tspan>
                </text>
                <text id="Typeset-at-100-points" fill="#000000" fill-rule="nonzero" font-family="Helvetica" font-size="13" font-weight="normal">
                    <tspan x="2912" y="1987">Typeset at 100 points</tspan>
                </text>
                <text id="Small" fill="#000000" fill-rule="nonzero" font-family="Helvetica" font-size="13" font-weight="normal">
                    <tspan x="263" y="726">Small</tspan>
                </text>
                <text id="Medium" fill="#000000" fill-rule="nonzero" font-family="Helvetica" font-size="13" font-weight="normal">
                    <tspan x="263" y="1156">Medium</tspan>
                </text>
                <text id="Large" fill="#000000" fill-rule="nonzero" font-family="Helvetica" font-size="13" font-weight="normal">
                    <tspan x="263" y="1586">Large</tspan>
                </text>
            </g>
            <g id="Guides" transform="translate(263, 625)">
                <g id="H-reference" transform="translate(76, 0)" fill="#27AAE1" fill-rule="nonzero">
                    <path d="M0.976562,71 L3.66211,71 L12.9883,46.5371 L45.7031,46.5371 L55.0781,71 L57.7148,71 L30.6152,0.541 L28.125,0.541 L0.976562,71 Z M29.2969,3.8613 L29.3945,3.8613 L44.873,44.291 L13.8672,44.291 L29.2969,3.8613 Z" id="Shape"></path>
                </g>
                <line x1="0" y1="71" x2="2773" y2="71" id="Baseline-S" stroke="#27AAE1" stroke-width="0.5"></line>
                <line x1="0" y1="0.541" x2="2773" y2="0.541" id="Capline-S" stroke="#27AAE1" stroke-width="0.5"></line>
                <g id="H-reference" transform="translate(76, 430)" fill="#27AAE1" fill-rule="nonzero">
                    <path d="M0.976562,71 L3.66211,71 L12.9883,46.5371 L45.7031,46.5371 L55.0781,71 L57.7148,71 L30.6152,0.541 L28.125,0.541 L0.976562,71 Z M29.2969,3.8613 L29.3945,3.8613 L44.873,44.291 L13.8672,44.291 L29.2969,3.8613 Z" id="Shape"></path>
                </g>
                <line x1="0" y1="501" x2="2773" y2="501" id="Baseline-M" stroke="#27AAE1" stroke-width="0.5"></line>
                <line x1="0" y1="430.54" x2="2773" y2="430.54" id="Capline-M" stroke="#27AAE1" stroke-width="0.5"></line>
                <g id="H-reference" transform="translate(76, 860)" fill="#27AAE1" fill-rule="nonzero">
                    <path d="M0.976562,71 L3.66211,71 L12.9883,46.5371 L45.7031,46.5371 L55.0781,71 L57.7148,71 L30.6152,0.541 L28.125,0.541 L0.976562,71 Z M29.2969,3.8613 L29.3945,3.8613 L44.873,44.291 L13.8672,44.291 L29.2969,3.8613 Z" id="Shape"></path>
                </g>
                <line x1="0" y1="931" x2="2773" y2="931" id="Baseline-L" stroke="#27AAE1" stroke-width="0.5"></line>
                <line x1="0" y1="860.54" x2="2773" y2="860.54" id="Capline-L" stroke="#27AAE1" stroke-width="0.5"></line>
                <line x1="1105.4" y1="405.79" x2="1105.4" y2="525.12" id="left-margin" stroke="#00AEEF" stroke-width="0.5"></line>
                <line x1="1268.29" y1="405.79" x2="1268.29" y2="525.12" id="right-margin" stroke="#00AEEF" stroke-width="0.5"></line>
            </g>
            <g id="Symbols" transform="translate(481.88, 617.09)" fill="#000000" fill-rule="nonzero">
                <g id="Black-L" transform="translate(2351.61, 832.66)">
                    <path d="M81.953616,124.65342 C79.7632829,124.822229 77.5396721,124.928894 75.285348,124.971257 L74.2373046,125.717847 C59.494728,136.099706 41.9029138,143.49 32.7406537,143.49 C21.5368141,143.49 15.6712746,132.398199 21.9557059,123.603053 L22.1498693,123.33725 C24.4495825,120.250793 27.1124083,114.98566 29.1700464,111.717647 C10.9538971,100.824268 0,82.3660439 0,62.5158878 C0,27.8386335 34.0720666,0 76.6167609,0 C105.206082,0 129.985989,12.6066941 143.136858,31.4205313 L144.330717,31.5667601 C177.158976,35.8291702 201.98,58.8662907 201.98,86.8852509 C201.98,104.674488 192.163378,121.21631 175.838499,130.978696 C177.58006,133.744706 179.805389,138.107147 181.783459,140.91347 L182.129814,141.391908 C188.041482,149.310288 182.78064,159.452323 172.638605,159.452323 C164.232106,159.452323 147.907226,152.510182 134.511063,142.856266 C113.500238,142.461432 95.4664635,135.833856 82.9949341,125.146933 L82.3868748,124.618787 L81.953616,124.65342 Z M133.317882,50.3847728 C106.145907,50.3847728 84.2347728,66.7638878 84.2347728,86.8852509 C84.2347728,107.006614 106.145907,123.385729 133.317882,123.385729 L135.433066,123.385729 C137.831943,123.385729 139.578951,123.887166 142.024115,125.806129 L143.02059,126.60896 C148.992016,131.392442 158.380932,137.824883 162.605041,139.493667 C164.235393,140.12477 164.896777,139.582914 163.8474,138.164814 L162.723903,136.715188 C160.973495,134.432286 158.33523,130.825851 156.205255,126.965271 C154.090071,123.060316 155.500194,119.914658 159.079735,118.124887 C173.614844,111.074275 182.455227,99.7390597 182.455227,86.8852509 C182.455227,66.7638878 160.544093,50.3847728 133.317882,50.3847728 Z M64.71,86.8852509 C64.71,61.4021682 85.2414484,40.0399624 113.625173,33.1752202 L114.363394,33.0003621 C104.55161,26.0554192 91.2697156,21.7867566 76.6167609,21.7867566 C46.2363391,21.7867566 21.7867566,40.0634247 21.7867566,62.5158878 C21.7867566,76.8588359 31.6513159,89.5072585 47.8703458,97.3746984 C51.8645846,99.3718178 53.4380725,102.881906 51.0778406,107.239258 C48.6709227,111.601796 45.682333,115.673499 43.7300688,118.215049 L42.6657318,119.585086 C41.3343189,121.279612 42.0605441,121.945318 43.9366259,121.219093 C48.8386461,119.282493 59.9740995,111.596609 66.5706453,106.210439 C67.1508844,105.738994 67.6949049,105.337573 68.216211,104.99701 C68.2844114,105.173634 68.3560841,105.347547 68.4287707,105.521029 L68.090389,104.691844 C65.8858252,99.1424694 64.71,93.1657195 64.71,86.8852509 Z" id="Shape"></path>
                </g>
                <g id="Heavy-L" transform="translate(2057.98, 834.08)">
                    <path d="M80.0509677,122.443169 L79.9100135,122.452109 C77.7305383,122.597646 75.5186222,122.680679 73.2768877,122.699029 C58.7805418,133.097252 40.736567,141.11 31.5616645,141.11 C21.3885326,141.11 16.4309475,131.278395 22.0303483,123.485049 L22.203264,123.249523 C24.5887386,120.007724 27.8917035,114.258119 30.0936801,110.465826 C11.4992111,99.9452709 0,81.4731339 0,61.4106805 C0,27.3412094 33.580143,0 75.5400303,0 C104.272091,0 129.092311,12.8572987 141.854431,31.9247057 L142.111016,31.9644558 C172.96085,36.8469102 195.99,58.7835203 195.99,85.3343499 C195.99,103.101349 185.806476,119.459988 169.339502,128.776829 L171.032942,131.688821 C172.658747,134.467022 174.530731,137.584857 176.047123,139.71114 L176.327132,140.097874 C181.52723,147.031337 177.139648,155.914836 168.039478,155.914836 C159.914326,155.914836 143.93486,148.81887 131.09712,139.610365 C110.450568,139.441361 92.6601685,133.076702 80.3383509,122.687064 L80.0509677,122.443169 Z M129.092916,47.9586513 C101.4674,47.9586513 79.2586513,64.7506318 79.2586513,85.3343499 C79.2586513,105.918068 101.4674,122.710049 129.092916,122.710049 L130.028896,122.707192 C130.590145,122.702431 131.212227,122.689736 131.855468,122.655881 C134.247513,122.655881 135.940664,123.205011 138.276797,125.022133 L139.303184,125.831189 C145.408175,130.591915 154.728036,136.809577 159.047643,138.527011 C160.456002,139.068688 160.943512,138.527011 160.022661,137.281154 L159.368365,136.457692 C157.345129,133.892744 154.245398,129.779865 152.060012,125.797606 C150.109976,122.168372 151.301665,119.189149 154.822564,117.455784 C169.881179,110.197315 178.981349,98.5512637 178.981349,85.3343499 C178.981349,64.7506318 156.7726,47.9586513 129.092916,47.9586513 Z M115.044667,32.1374915 L115.9033,31.9952526 C105.69619,24.1134215 91.4096089,19.2061292 75.5400303,19.2061292 C44.2841959,19.2061292 19.2061292,38.1675943 19.2061292,61.4106805 C19.2061292,76.3351886 29.4820199,89.4858821 46.4861725,97.6821283 C50.4619636,99.6394408 51.807616,103.003572 49.6056394,107.101695 C46.8531686,112.117308 42.8162115,117.31642 40.6142349,120.06889 C39.5744127,121.475709 40.1249068,122.087369 41.7152232,121.475709 C46.6073924,119.530629 57.1794076,112.473689 64.0719153,107.091786 L64.8359775,106.490035 C65.4818469,105.970531 66.082594,105.534826 66.6589344,105.171822 L66.648812,105.152235 C63.791623,99.0669291 62.25,92.398357 62.25,85.3343499 C62.25,59.0852343 84.7587345,37.3460654 115.044667,32.1374915 Z" id="Shape"></path>
                </g>
                <g id="Bold-L" transform="translate(1764.73, 835.69)">
                    <path d="M86.4888738,119.208452 L85.3298831,119.366137 C80.7244062,119.960245 75.9494658,120.26236 71.0335244,120.248724 C57.0871518,130.228128 39.173811,138.41 30.1861487,138.41 C21.2940998,138.41 17.3164899,130.097924 22.0950241,123.438194 L22.2522123,123.22395 C24.7935513,119.814837 28.8225034,113.492481 31.2398746,109.091626 C12.1488401,98.9882535 0,80.5170578 0,60.1863457 C0,26.8390193 33.099391,0 74.3806538,0 C102.584801,0 126.969746,12.528141 139.588825,31.1005787 L140.586874,31.1727036 C173.630011,33.7245394 199.21,56.0880477 199.21,83.4813292 C199.21,101.232963 188.602317,117.360971 171.9331,126.182667 C173.962631,129.877454 177.293144,135.123412 179.518977,138.167709 L179.780621,138.522217 C184.164408,144.367267 180.700675,151.781821 172.853154,151.781821 C165.005633,151.781821 149.364713,144.637871 137.187525,135.924417 C116.11612,135.982867 98.0116619,129.397249 85.81427,118.621923 L86.4888738,119.208452 Z M134.265,45.1096583 C106.068046,45.1096583 83.5537792,62.3200833 83.5537792,83.4813292 C83.5537792,104.588454 106.068046,121.798879 134.265,121.798879 L135.335869,121.796277 C136.032649,121.791723 136.85296,121.779199 137.782854,121.744758 C140.164171,121.744758 141.896038,122.340088 144.223233,124.234317 C150.50125,129.051071 160.351242,135.437329 165.005633,137.331558 C165.994379,137.695833 166.43271,137.309542 165.79138,136.461363 L164.813524,135.223631 C162.495379,132.264549 159.327276,128.016281 157.374596,124.396679 C155.576308,121.117449 156.414147,118.355106 159.73657,116.665304 L160.97609,116.061104 C176.06351,108.565269 184.976221,96.8264792 184.976221,83.4813292 C184.976221,62.3200833 162.461954,45.1096583 134.265,45.1096583 Z M74.3806538,16.2397761 C42.0870533,16.2397761 16.30176,35.9506494 16.30176,60.1863457 C16.30176,75.806283 26.962987,89.5047201 44.9383117,98.0584953 C48.9672638,99.9799955 50.0209897,103.203157 47.9135378,107.046158 C45.6444852,111.252207 41.9424506,116.199453 39.2780926,119.593714 L38.3680206,120.744595 C37.5002463,121.798321 37.9961173,122.294192 39.173811,121.860305 C44.5044245,119.690869 55.7854904,112.376771 62.9756202,106.860206 C65.640927,104.69077 67.6244111,104.008948 70.3517017,104.008948 L71.2491816,104.0374 C71.9698548,104.056452 72.6216412,104.064679 73.1983904,104.068232 L74.3208293,104.071047 L74.0465412,103.531815 C70.9815529,97.4065763 69.32,90.6512572 69.32,83.4813292 C69.32,58.7318721 90.2006293,38.0881567 118.600631,32.4519049 L119.336596,32.3107168 C108.721734,22.5035777 92.5853123,16.2397761 74.3806538,16.2397761 Z" id="Shape"></path>
                </g>
                <g id="Semibold-L" transform="translate(1470.39, 836.76)">
                    <path d="M148.822366,35.96449 L149.52895,36.2433963 C170.458235,44.6352658 184.73,62.0298087 184.73,82.2077551 C184.73,100.017398 173.849337,115.986531 157.014082,124.485357 C159.287653,128.653571 163.131071,134.445765 165.404643,137.531327 C169.248061,142.619796 166.433163,149.061582 159.395918,149.061582 C151.763214,149.061582 136.389541,141.807806 124.588622,133.417245 C110.289357,133.598248 97.3424982,130.626125 86.7168586,125.314232 L86.2789224,125.358888 C82.2382691,125.745174 78.0832796,125.918501 73.8308612,125.864672 C59.3437975,136.165108 40.4707421,145.07 31.1006688,145.07 C22.5575839,145.07 19.083396,137.336683 23.5699759,131.124034 L23.7242281,130.915208 C26.5153138,127.127306 31.2335776,120.016683 34.0246633,114.899693 C13.3573385,104.466349 0,84.862295 0,62.9987907 C0,28.1102199 34.7556619,0 78.1503985,0 C109.184362,0 135.799899,14.3768791 148.444512,35.3282147 L148.822366,35.96449 Z M121.07,43.1781122 C92.5420918,43.1781122 69.7522449,60.7170918 69.7522449,82.2077551 C69.7522449,103.752551 92.5420918,121.237398 121.07,121.237398 L122.423804,121.23373 C123.182855,121.2284 124.081858,121.215328 125.075816,121.183265 C127.457653,121.183265 129.189898,121.832857 131.409337,123.619235 L132.231159,124.228376 C138.654466,128.948294 147.793486,134.741239 152.358673,136.556939 C153.170663,136.881735 153.495459,136.502806 152.9,135.744949 L151.926735,134.514352 C149.421652,131.322614 146.096608,126.886682 144.238776,123.456837 C142.560663,120.371276 143.264388,117.664643 146.78301,115.986531 C162.914541,108.353827 172.441888,96.1198469 172.441888,82.2077551 C172.441888,60.7170918 149.652041,43.1781122 121.07,43.1781122 Z M78.1503985,15.0851535 C43.0624645,15.0851535 15.0851535,36.6163857 15.0851535,62.9987907 C15.0851535,80.0775767 26.7811315,95.0962758 46.5845488,104.466349 C50.9040861,106.526436 51.7679936,109.849157 49.7079066,113.637059 C47.1161842,118.421777 42.198557,124.801402 39.0751993,128.722213 C38.3442006,129.652574 38.7429272,130.117755 39.7397435,129.719029 C45.5877325,127.393124 57.5495282,119.750866 65.4576042,113.836422 C66.636807,112.887308 67.7039814,112.199593 68.7722594,111.724792 L68.2361573,111.103677 C61.3377029,102.963292 57.41,93.0635173 57.41,82.2077551 C57.41,53.7881122 85.7213776,30.89 121.07,30.89 C122.130459,30.89 123.184584,30.9106083 124.231801,30.9513557 L125.06809,30.9882411 C113.571791,21.2349001 96.8670718,15.0851535 78.1503985,15.0851535 Z" id="Shape"></path>
                </g>
                <g id="Medium-L" transform="translate(1175.49, 837.59)">
                    <path d="M85.0504579,116.268612 C79.7004835,117.01826 74.1125375,117.360243 68.3349557,117.253706 C55.0335944,126.70965 37.3194592,135.22 28.556951,135.22 C21.1182751,135.22 18.4075711,128.600839 22.3790676,123.30551 L22.9113954,122.592452 C25.6881555,118.837084 30.1132418,112.328735 32.6545268,107.482564 C12.9231235,97.9005408 0,79.3668904 0,58.6898928 C0,26.1614452 32.4654079,0 72.9998881,0 C101.168831,0 125.440908,12.6343707 137.628409,31.2598543 L138.793233,31.3698707 C169.709412,34.5318406 193.35,55.6081801 193.35,81.320829 C193.35,99.0634197 182.260881,114.966839 165.329689,123.189016 C167.655699,127.624663 171.820881,133.683109 174.146891,136.766425 C177.554767,141.310259 175.228756,146.990052 168.845751,146.990052 C161.326788,146.990052 146.12658,139.687461 134.712902,131.573472 C114.882311,131.939142 97.6552939,126.146922 85.6863257,116.440565 L85.4120546,116.216701 L85.0504579,116.268612 Z M130.71,41.7786528 C101.87829,41.7786528 78.9427461,59.5212435 78.9427461,81.320829 C78.9427461,103.120415 101.87829,120.863005 130.71,120.863005 L131.430856,120.856086 C132.386063,120.839822 133.615581,120.797321 135.145648,120.754819 C137.471658,120.754819 139.202642,121.458031 141.366373,123.134922 L142.211756,123.756145 C148.529325,128.357324 157.345403,133.892545 162.091443,135.879216 L162.408653,136.009119 C163.003679,136.279585 163.274145,135.900933 162.841399,135.36 L161.795808,134.037978 C159.12636,130.636143 155.73138,126.094906 153.970104,122.810363 C152.347306,119.835233 152.942332,117.238756 156.404301,115.615959 C172.902746,107.826528 182.477254,95.4932642 182.477254,81.320829 C182.477254,59.5212435 159.54171,41.7786528 130.71,41.7786528 Z M68.07,81.320829 C68.07,55.9207959 91.1392355,35.0450205 121.502381,31.4931213 L122.505985,31.3823187 C122.250839,31.4088151 121.996191,31.436532 121.742049,31.4654619 C110.817346,20.0394396 93.1434265,12.6079254 72.9998881,12.6079254 C39.3997669,12.6079254 12.670965,33.2849231 12.670965,58.6898928 C12.670965,75.0411112 23.6069345,89.291635 42.4816765,98.3830997 L43.0560653,98.6570163 C47.0906014,100.548205 47.7840373,103.574107 45.8928485,107.041287 C43.5603823,111.391021 38.7693706,117.631944 35.5543497,121.66648 C35.0740477,122.266858 35.3370702,122.695699 35.9622251,122.462899 L36.0586667,122.422956 C41.7322331,120.153529 53.0163263,113.030051 60.5810816,107.419524 C63.1026667,105.465296 65.1199347,104.645781 67.8306387,104.645781 L70.9871402,104.737081 C71.6600112,104.755124 72.2474845,104.767788 72.7535946,104.771038 L72.9998881,104.77186 C73.6904262,104.77186 74.3780621,104.763127 75.0626233,104.745799 C75.1258952,104.846978 75.1913437,104.947068 75.2572097,105.046946 L74.8019251,104.342676 C70.4674513,97.5013901 68.07,89.6977119 68.07,81.320829 Z" id="Shape"></path>
                </g>
                <g id="Regular-L" transform="translate(881.14, 838.67)">
                    <path d="M175.69,80.1493254 C175.69,97.8841755 164.33537,113.618448 147.249356,121.512619 C149.682491,126.21668 154.224343,132.5969 156.657478,135.787011 C159.52317,139.571887 157.792941,144.275948 152.223765,144.275948 C144.924361,144.275948 130.001133,136.922474 119.024991,129.082372 C100.046428,129.599722 83.453789,124.371656 71.657034,115.435246 L70.6373871,115.449287 C69.3275583,115.4605 68.0071665,115.448227 66.6768115,115.411962 C53.7613604,124.637284 36.2014368,133.29 27.6123437,133.29 C21.0591838,133.29 19.0232506,127.754807 22.3952649,123.301203 L22.925253,122.600975 C25.8784542,118.67104 30.7710341,111.714348 33.4656516,106.504754 C13.3608115,97.2158091 0,78.7015418 0,57.8332267 C0,25.8309021 32.0659475,0 72.1483819,0 C102.016339,0 127.432995,14.34308 138.447513,34.8948256 L138.326172,34.8549981 C160.36125,42.3039393 175.69,59.7515443 175.69,80.1493254 Z M114.375,39.9214947 C85.177381,39.9214947 61.9814947,57.9807628 61.9814947,80.1493254 C61.9814947,102.263818 85.177381,120.323086 114.375,120.323086 L115.295874,120.313793 C116.324887,120.296052 117.67325,120.255499 119.29534,120.214947 C121.566265,120.214947 123.296495,120.917853 125.351142,122.539943 L126.215714,123.160043 C132.812291,127.85118 141.835487,133.384937 146.546451,135.300384 C146.979008,135.462593 147.141217,135.138175 146.870869,134.759687 L145.893704,133.545584 C142.974638,129.888595 139.327218,125.047656 137.679026,121.945176 C136.165075,119.133554 136.543563,116.646349 140.004021,115.024259 C156.981896,107.130088 166.714436,94.5318563 166.714436,80.1493254 C166.714436,57.9807628 143.518549,39.9214947 114.375,39.9214947 Z M72.1483819,10.4977804 C37.8556325,10.4977804 10.5614033,31.7478329 10.5614033,57.8332267 C10.5614033,74.7569212 22.0135274,89.5810597 41.9911217,98.8700048 C46.0629881,100.778692 46.5083484,103.705346 44.7269069,107.013737 C42.5637279,111.085604 37.473895,117.702387 33.9110119,122.092368 C33.5928974,122.537728 33.7837661,122.919465 34.2927494,122.728597 C40.0824344,120.374549 51.4073126,113.376029 59.2329308,107.713589 C60.1949025,106.954138 61.0964383,106.365922 62.0016634,105.932909 L61.6204222,105.434884 C56.1395215,98.1186432 53.06,89.4990519 53.06,80.1493254 C53.06,52.952284 80.3111111,31 114.375,31 C117.057531,31 119.697813,31.1361385 122.285863,31.4002559 L123.470958,31.5305483 C112.471984,18.8593824 93.6996109,10.4977804 72.1483819,10.4977804 Z" id="Shape"></path>
                </g>
                <g id="Light-L" transform="translate(587.41, 840.77)">
                    <path d="M80.4520562,120.57783 C76.1243205,120.863292 71.6950857,120.877417 67.1952253,120.601641 C53.8772527,129.547551 36.8598433,137.35 28.5192948,137.35 C22.4656709,137.35 20.7168462,132.574363 24.0799706,128.202302 L24.6422676,127.495073 C27.6673033,123.667303 32.4694373,117.224248 35.3128061,111.790255 C14.0578599,101.700881 0,82.3965475 0,60.4689765 C0,27.0395201 33.2949314,0 75.0649363,0 C108.06324,0 135.772251,16.8753645 145.95481,40.4450433 L146.30962,41.2837768 C160.321202,49.9746831 169.28,63.6346728 169.28,79.0140278 C169.28,96.26194 158.222289,111.446452 141.503454,119.382608 C143.884301,123.93267 148.011102,129.382164 150.339041,132.292088 C152.984427,135.731089 151.608826,139.487536 146.847133,139.487536 C140.286577,139.487536 126.900927,133.350242 116.425202,126.313517 C104.036862,127.072743 92.3290482,125.038574 82.3429634,120.837093 L81.5540143,120.499087 L80.4520562,120.57783 Z M110.235,38.1692787 C81.1357616,38.1692787 57.9092787,56.475345 57.9092787,79.0140278 C57.9092787,101.605618 81.1357616,119.911685 110.235,119.911685 C111.928047,119.911685 113.991447,119.805869 116.372294,119.647146 C118.118248,119.647146 119.599664,120.123315 121.133987,121.340193 L122.454574,122.17739 C129.747319,126.75206 138.5976,131.521874 142.98487,132.768257 C143.408132,132.874073 143.566855,132.609534 143.249409,132.23918 L142.282627,131.060187 C139.585713,127.747251 136.048082,123.180205 134.308006,119.700054 C133.144037,117.583746 133.514391,115.679068 136.001053,114.515099 C152.614073,106.843481 162.507814,93.8810932 162.507814,79.0140278 C162.507814,56.475345 139.334238,38.1692787 110.235,38.1692787 Z M51.19,79.0140278 C51.19,52.7188978 77.3793145,31.45 110.235,31.45 C118.120365,31.45 125.621746,32.6750885 132.469259,34.9007269 L133.199124,35.1425734 C121.872802,19.277857 100.190896,8.54233595 75.0649363,8.54233595 C38.0705681,8.54233595 8.60959843,31.8151567 8.60959843,60.4689765 C8.60959843,79.3697356 21.1876836,95.8490451 42.3081048,105.602106 C45.4694417,107.081881 45.9402791,109.50333 44.4605044,112.19383 C42.2126355,116.689567 37.60519,122.612026 34.1571764,126.838705 L33.093144,128.135039 C32.689569,128.605877 32.8913565,128.942189 33.4294564,128.807664 C39.3485553,127.126102 51.6575906,120.399853 61.2088639,114.278967 C63.159476,112.731929 65.0428257,112.126567 67.2624878,112.126567 L67.7449568,112.158375 L67.1048298,111.628295 C57.2325891,103.304617 51.19,91.9896427 51.19,79.0140278 Z" id="Shape"></path>
                </g>
                <g id="Thin-L" transform="translate(294.68, 843.55)">
                    <path d="M63.7394787,109.045367 C61.6329675,108.971555 59.5176209,108.818967 57.3993712,108.585091 L56.3370336,109.219959 C44.7817079,116.050808 31.7909013,121.32 25.2852535,121.32 C20.7941988,121.32 19.6252941,118.182414 22.5167951,114.6757 L23.372226,113.65445 C25.9872986,110.519025 29.7550941,105.84209 32.2371602,101.264057 C12.79643,91.7282556 0,74.3177282 0,54.5078702 C0,24.4239554 29.714787,0 67.1812576,0 C97.3924422,0 122.540089,15.8285399 131.197709,37.6960723 L130.860753,37.5471996 C148.411186,45.2106389 160.19,60.2498594 160.19,77.5326636 C160.19,94.0261373 149.535831,108.521954 133.349689,116.461359 C135.654677,120.712783 139.291437,125.06665 141.44276,127.627748 C143.850192,130.5474 142.876975,133.159721 139.137771,133.159721 C133.554577,133.159721 122.234522,128.498522 112.399904,122.556773 C94.2140564,124.564675 76.2852202,119.376258 64.0286245,109.28535 L63.7394787,109.045367 Z M104.255611,36.0428696 C75.3664211,36.0428696 52.2653135,54.534 52.2653135,77.5326636 C52.2653135,100.531327 75.3664211,119.124902 104.255611,119.124902 C106.714265,119.124902 109.224142,118.868792 111.887684,118.663904 C112.963346,118.612682 114.090229,118.868792 115.063446,119.483455 L115.978677,120.008383 C124.097804,124.626771 133.064088,128.71753 137.36281,129.241048 L137.601112,129.266851 C137.981618,129.314415 138.052963,129.096982 137.815147,128.7786 L135.39797,125.855588 C133.196023,123.168301 130.598337,119.812739 129.098265,116.666247 C128.483602,115.385698 128.739712,114.258815 130.122705,113.592929 C146.155181,106.216966 156.245908,92.899254 156.245908,77.5326636 C156.245908,54.534 133.144801,36.0428696 104.255611,36.0428696 Z M67.1812576,4.67561866 C32.4832454,4.67561866 4.73713996,26.8848073 4.73713996,54.5078702 C4.73713996,72.9642596 16.8568357,88.9597972 36.113002,97.8188641 C37.7740771,98.618641 38.0816836,99.9721095 37.343428,101.510142 C34.9024216,106.630302 30.0415349,112.211391 27.2213768,115.632802 L26.9463286,115.967647 C26.5772008,116.398296 26.6387221,116.705903 27.1308925,116.644381 C32.3602028,116.152211 43.9877282,110.799858 54.2002637,104.893813 C55.3691684,104.155558 56.7226369,103.847951 58.0145842,103.909473 L58.4940818,103.94688 L58.5424716,104.006004 C52.1322,96.7588129 48.27,87.7488164 48.27,77.5326636 C48.27,52.4851213 73.0102105,32.15 104.255611,32.15 C111.430272,32.15 118.263518,33.2257279 124.532861,35.1871024 L124.864445,35.2918319 C115.502549,17.2729009 93.3135001,4.67561866 67.1812576,4.67561866 Z" id="Shape"></path>
                </g>
                <g id="Ultralight-L" transform="translate(0, 844.96)">
                    <path d="M65.719297,0 C95.7537776,0 120.651288,16.1447625 128.698584,38.1559978 C145.315902,45.768125 156.39,60.2770584 156.39,76.8290119 C156.39,92.9994892 145.911934,107.104578 130.043708,115.013503 C132.260222,119.14428 135.685744,122.972804 137.751132,125.340444 C140.018021,128.010336 139.262392,130.075724 136.038371,130.075724 C130.900089,130.075724 120.573148,126.146449 111.052213,120.75629 C93.0301136,123.217845 74.4966102,117.923108 62.1452908,107.261939 C59.6859788,107.162967 57.2220985,106.94676 54.7660808,106.611304 C43.2652039,113.122383 30.7907077,117.868776 24.5838852,117.868776 C20.6894083,117.868776 19.7766403,115.373877 22.5149443,112.148763 L24.0979823,110.332071 C26.5331934,107.513723 29.6577163,103.713628 31.8251781,99.6742671 C12.6570498,90.1206286 0,73.0822923 0,53.5490568 C0,24.0970756 29.0260228,0 65.719297,0 Z M101.984656,35.0174975 C73.220349,35.0174975 50.1484531,53.6563654 50.1484531,76.8290119 C50.1484531,100.052034 73.220349,118.741277 101.984656,118.741277 C104.856049,118.741277 107.576316,118.4894 110.346959,118.187149 C111.008135,118.14307 111.823585,118.214698 112.455835,118.503273 L113.947995,119.301546 L115.186585,119.950701 C123.453284,124.23469 131.829742,127.602817 135.584993,127.558317 C135.987996,127.558317 136.038371,127.355457 135.736119,127.002829 L133.618766,124.482852 C131.469621,121.90951 128.811803,118.548935 127.273066,115.215005 C126.819688,114.308249 127.071565,113.552619 127.87757,113.199992 C143.594669,105.945946 153.770483,92.4453607 153.770483,76.8290119 C153.770483,60.9529878 142.964452,47.2050662 126.909003,40.1212588 L125.983931,39.7229385 C118.823917,36.7152271 110.665829,35.0174975 101.984656,35.0174975 Z M65.719297,3.04256005 C30.9732613,3.04256005 3.16426245,25.5575044 3.16426245,53.5490568 C3.16426245,72.4129291 15.456205,88.721051 34.4417797,97.4836239 C35.4153989,97.9095823 35.7196549,98.8223503 35.1719941,99.9176719 C32.7184737,105.233633 27.9095737,110.605674 25.2676229,113.772632 L24.9489924,114.156853 C24.5838852,114.582811 24.6447364,114.827321 25.131546,114.827321 C30.0215485,114.885861 41.3985568,110.153282 52.1034879,104.408507 L52.7579912,104.055554 C53.5490568,103.568744 54.7052296,103.447042 55.6179977,103.507893 C56.5948768,103.614461 57.5665716,103.715846 58.539135,103.805993 C51.75418,96.5707869 47.5793118,87.3924745 47.5793118,76.8290119 C47.5793118,52.4473577 71.6083388,32.4987316 101.984656,32.4987316 C110.130742,32.4987316 117.820354,33.9333643 124.712482,36.5033962 C116.096588,16.9549787 93.0324063,3.04256005 65.719297,3.04256005 Z" id="Shape"></path>
                </g>
                <g id="Black-M" transform="translate(2371.51, 417.85)">
                    <path d="M64.6650527,98.3570994 C62.9367823,98.4902977 61.1822543,98.5744606 59.4034922,98.607887 C47.6087474,107.107744 33.2353943,113.22 25.8338338,113.22 C16.9962672,113.22 12.3682256,104.473542 17.3193852,97.5348176 L17.4772332,97.3185829 C19.2918094,94.8832307 21.3928975,90.7288064 23.0164656,88.1501982 C8.64311261,79.5548376 0,64.9904766 0,49.3278195 C0,21.9659216 26.8843779,0 60.4540363,0 C83.0126637,0 102.565393,9.94757806 112.941879,24.7929483 L113.157432,24.8175191 C139.418866,27.9324592 159.37,46.2418004 159.37,68.5555433 C159.37,82.5917661 151.624401,95.6437416 138.743599,103.346547 C140.107638,105.512961 141.84779,108.920549 143.399885,111.136328 L143.707629,111.562872 C148.372106,117.810703 144.22115,125.813062 136.218791,125.813062 C129.58582,125.813062 116.705018,120.335512 106.135057,112.718293 C89.5569087,112.406757 75.3277392,107.177409 65.4873418,98.7451169 L65.0078637,98.3286567 L64.6650527,98.3570994 Z M105.193603,39.7556104 C83.7541288,39.7556104 66.4656104,52.6792058 66.4656104,68.5555433 C66.4656104,84.4318807 83.7541288,97.3554761 105.193603,97.3554761 L106.862544,97.3554761 C108.831039,97.3554761 110.24322,97.7834097 112.297301,99.4523508 L112.952545,99.9812516 C117.668487,103.746629 124.993314,108.757962 128.302019,110.065105 C129.628613,110.578625 130.142134,110.107898 129.20068,108.909684 L128.611837,108.153521 C127.239156,106.376225 125.023162,103.38934 123.252402,100.179838 C121.583461,97.0987159 122.696089,94.6167009 125.52045,93.20452 C136.989072,87.6413829 143.96439,78.6975701 143.96439,68.5555433 C143.96439,52.6792058 126.675871,39.7556104 105.193603,39.7556104 Z M51.06,68.5555433 C51.06,48.448654 67.2599066,31.5932559 89.6554862,26.1767757 L90.2369895,26.0390336 C82.4949379,20.5585846 72.0153526,17.1907212 60.4540363,17.1907212 C36.4825306,17.1907212 17.1907212,31.6118262 17.1907212,49.3278195 C17.1907212,60.6450443 24.9742978,70.625213 37.7718347,76.8329734 C40.9234669,78.4087895 42.165019,81.1784057 40.3026908,84.61655 C38.306349,88.2349195 35.802872,91.5997215 34.2751044,93.5751599 L33.6651624,94.3579587 C32.6146183,95.6950148 33.1876423,96.2202868 34.6679544,95.6472628 C38.5358667,94.1191987 47.3222353,88.0546942 52.5272037,83.8047659 C52.9855492,83.4323602 53.4152527,83.115329 53.8270055,82.8464175 L53.9091106,83.0539661 L53.7272247,82.60546 C51.9877601,78.2268431 51.06,73.5110146 51.06,68.5555433 Z" id="Shape"></path>
                </g>
                <g id="Heavy-M" transform="translate(2077.42, 418.87)">
                    <path d="M90.764653,25.3569232 L91.4447724,25.2443503 C83.3916594,19.0250849 72.1193762,15.1528479 59.5979844,15.1528479 C34.9384135,15.1528479 15.1528479,30.1126658 15.1528479,48.4505072 C15.1528479,60.2253316 23.260104,70.6006892 36.6756827,77.0671912 C39.8124187,78.6114304 40.8740832,81.2655917 39.136814,84.4988427 C36.9652276,88.4559558 33.7802341,92.5578414 32.0429649,94.7294278 C31.2225878,95.8393498 31.6569051,96.3219246 32.9115995,95.8393498 C36.8317494,94.280736 45.3744807,88.5617989 50.8033626,84.2925821 L51.1529259,84.0162679 C51.6613128,83.607348 52.1342644,83.2642365 52.5880114,82.9782385 L52.5806344,82.9650861 C50.3263306,78.1638191 49.11,72.9023585 49.11,67.3289024 C49.11,46.6185189 66.8692468,29.4664545 90.764653,25.3569232 Z M101.848631,37.8397165 C80.0522762,37.8397165 62.5297165,51.0884812 62.5297165,67.3289024 C62.5297165,83.5693236 80.0522762,96.8180883 101.848631,96.8180883 L102.400362,96.8170915 C102.890041,96.8145995 103.448251,96.8058775 104.028267,96.7753503 C105.904851,96.7753503 107.236262,97.2037012 109.063285,98.6179669 L109.327772,98.826772 C114.114423,102.63045 121.935468,107.887217 125.482718,109.29757 C126.593904,109.724949 126.978546,109.29757 126.252001,108.314597 L125.458791,107.312269 C123.866768,105.276662 121.596852,102.219508 119.969522,99.2541515 C118.430956,96.3907088 119.371191,94.0401215 122.149158,92.6725071 C134.030308,86.9456217 141.210284,77.7569623 141.210284,67.3289024 C141.210284,51.0884812 123.687724,37.8397165 101.848631,37.8397165 Z M63.1493945,96.6028616 L63.0457218,96.6096899 C61.3262053,96.7245126 59.5810943,96.7900221 57.8124577,96.8044993 L56.811118,97.513019 C45.5560417,105.369436 31.9296647,111.33 24.9008583,111.33 C16.8836827,111.33 12.9721282,103.590668 17.3661979,97.4453454 L17.5174642,97.2388166 C19.3995059,94.6811704 22.0054096,90.1449675 23.7426788,87.1530039 C9.07240572,78.8527178 0,64.2789597 0,48.4505072 C0,21.5710923 26.493355,0 59.5979844,0 C82.2672204,0 101.849952,10.1446141 111.918417,25.1889134 L112.765597,25.3259978 C136.780823,29.3797311 154.63,46.5661478 154.63,67.3289024 C154.63,81.3469502 146.595265,94.2538113 133.602928,101.604739 L134.951707,103.923922 C136.21461,106.081575 137.6639,108.495113 138.847826,110.165214 L139.116124,110.53697 C143.218967,116.007428 139.757193,123.016452 132.577217,123.016452 C126.166525,123.016452 113.558829,117.41778 103.429935,110.152329 C87.139938,110.018986 73.1034274,104.997311 63.3815926,96.7999537 L63.1493945,96.6028616 Z" id="Shape"></path>
                </g>
                <g id="Bold-M" transform="translate(1783.61, 419.99)">
                    <path d="M68.2795995,94.0996357 C64.3628323,94.6535671 60.2836368,94.9352793 56.0734259,94.9236005 C45.0642454,102.801281 30.9235647,109.26 23.8287595,109.26 C16.8215445,109.26 13.6803792,102.721126 17.4222082,97.468578 L17.5657591,97.2722257 C19.5718764,94.5810927 22.7523063,89.5902642 24.6605643,86.1162562 C9.59021944,78.1407165 0,63.5596686 0,47.51073 C0,21.1865562 26.128455,0 58.7156292,0 C80.9769636,0 100.224214,9.88710969 110.186738,24.5449844 L110.208371,24.5469844 C136.661335,26.2710263 157.25,44.0573112 157.25,65.8919292 C157.25,79.9043625 148.876717,92.6351708 135.7187,99.5986667 C137.312373,102.499968 139.922301,106.612959 141.679118,109.021428 L141.913221,109.339017 C145.373608,113.952867 142.639475,119.805621 136.444954,119.805621 C130.250433,119.805621 117.904113,114.166471 108.291925,107.288417 C92.2750302,107.332846 78.4298574,102.514005 68.8287842,94.5618763 L68.2795995,94.0996357 Z M105.985,35.6028583 C83.7274458,35.6028583 65.9555792,49.1880833 65.9555792,65.8919292 C65.9555792,82.3864429 83.3737857,95.8662671 105.318632,96.1342141 L105.985,96.1382792 C106.668533,96.1382792 107.608392,96.1382792 108.761854,96.0955583 C110.641571,96.0955583 112.008638,96.5654875 113.845633,98.0607167 C118.80125,101.862871 126.576442,106.903929 130.250433,108.399158 C131.025234,108.684611 131.371855,108.386183 130.881581,107.726811 L129.996026,106.603896 C128.176266,104.274921 125.739502,100.992919 124.226796,98.1888792 C122.813544,95.6117738 123.462876,93.4390964 126.056742,92.1036944 L126.277396,91.9943583 C138.666438,86.0988833 146.014421,76.6575792 146.014421,65.8919292 C146.014421,49.1880833 128.242554,35.6028583 105.985,35.6028583 Z M54.72,65.8919292 C54.72,46.3556921 71.2023383,30.0603642 93.6201704,25.6113312 L94.1978685,25.5006115 C85.8184861,17.761942 73.0830138,12.819579 58.7156292,12.819579 C33.2232602,12.819579 12.8685087,28.3792208 12.8685087,47.51073 C12.8685087,59.8410121 21.2844156,70.6544738 35.474026,77.4067712 C38.6544559,78.9235916 39.4862606,81.4679355 37.8226511,84.5015764 C36.0672985,87.7554008 33.2255538,91.5711522 31.133045,94.2443188 L30.2874787,95.3150381 C29.6024631,96.1468428 29.9939006,96.5382803 30.9235647,96.1957725 C35.1315181,94.4832333 44.0367219,88.7095298 49.7125661,84.3547873 C51.8165428,82.6422481 53.3822929,82.1040215 55.5351993,82.1040215 L56.6568146,82.1361683 C57.0077873,82.143361 57.3354205,82.1474711 57.6383931,82.1498197 L58.6719625,82.1533479 L58.7591213,82.3207596 L58.4509437,81.7189849 C56.0315638,76.8839654 54.72,71.5515852 54.72,65.8919292 Z" id="Shape"></path>
                </g>
                <g id="Semibold-M" transform="translate(1488.9, 420.73)">
                    <path d="M61.7090243,0 C86.460319,0 107.652257,11.5815981 117.51228,28.3962152 L118.073004,28.6173835 C134.600103,35.2441394 145.87,48.9799809 145.87,64.9137755 C145.87,78.9774065 137.277934,91.5876531 123.983741,98.298869 C125.704292,101.453212 128.563342,105.785312 130.378767,108.285345 L130.609464,108.600799 C133.644473,112.61898 131.42165,117.705825 125.864592,117.705825 C119.837321,117.705825 107.697287,111.977781 98.3785289,105.352058 C87.0849315,105.495015 76.8596566,103.147186 68.4681431,98.9511903 L68.1274596,98.985735 C64.9368838,99.2907541 61.6560259,99.4276159 58.2982364,99.3851122 L57.3371831,100.060219 C46.0368506,107.903741 31.7509372,114.55 24.5576729,114.55 C17.8258547,114.55 15.0799815,108.468879 18.5893792,103.568479 L18.7330967,103.37311 C20.9369904,100.382112 24.6626202,94.7674301 26.866514,90.7269583 C10.5472057,82.4885937 0,67.0088639 0,49.7450298 C0,22.1963582 27.4437242,0 61.7090243,0 Z M95.6,34.0934779 C73.0725425,34.0934779 55.0762245,47.9433759 55.0762245,64.9137755 C55.0762245,81.7567903 72.7144158,95.4576095 94.9255491,95.7299416 L95.6,95.7340731 C96.3266922,95.7340731 97.4381037,95.7340731 98.7632483,95.6913265 C100.644099,95.6913265 102.01199,96.2042857 103.7646,97.6149235 L104.526872,98.1790798 C109.59276,101.890829 116.729331,106.408212 120.307534,107.831361 C120.948733,108.08784 121.205213,107.788614 120.735,107.190162 L120.160442,106.465075 C118.163139,103.930468 115.411105,100.284643 113.895544,97.4866837 C112.5704,95.0501276 113.126105,92.9127976 115.904634,91.5876531 C128.643121,85.5603827 136.166522,75.8996514 136.166522,64.9137755 C136.166522,47.9433759 118.170204,34.0934779 95.6,34.0934779 Z M61.7090243,11.9115208 C34.0029317,11.9115208 11.9115208,28.9129867 11.9115208,49.7450298 C11.9115208,63.2307604 21.146885,75.0898076 36.7840357,82.4885937 C40.1948236,84.1152771 40.8769812,86.7389601 39.2502978,89.7299588 C37.203825,93.5080623 33.3207742,98.5455337 30.8545121,101.64148 C30.2773019,102.376111 30.5921438,102.743426 31.3792487,102.428585 C35.9969308,100.592006 45.4421896,94.5575355 51.6865552,89.8873798 C52.6167995,89.1386466 53.4587505,88.5959309 54.3014875,88.2210561 L53.8790249,87.7318402 C48.431565,81.3036721 45.33,73.4861784 45.33,64.9137755 C45.33,42.4718112 67.6864711,24.39 95.6,24.39 C96.6596991,24.39 97.7113891,24.4160602 98.7541509,24.4674298 L98.5301875,24.2778137 C89.4594361,16.6872326 76.3654423,11.9115208 61.7090243,11.9115208 Z" id="Shape"></path>
                </g>
                <g id="Medium-M" transform="translate(1193.7, 421.31)">
                    <path d="M67.1686023,91.8231408 C62.9434598,92.4151748 58.5303793,92.6852565 53.9675338,92.6011189 C43.4627832,100.068951 29.4730443,106.79 22.5528531,106.79 C16.6781585,106.79 14.53738,101.562517 17.6738695,97.3805315 L18.1572828,96.7320675 C20.3536528,93.7538067 23.801048,88.6751728 25.7889138,84.884359 C10.2060373,77.3169557 0,62.6800047 0,46.350345 C0,20.6610023 25.6395571,0 57.6516643,0 C79.8978103,0 99.0664829,9.97774556 108.691681,24.6869201 L109.613741,24.7736958 C134.029823,27.2708646 152.7,43.9159238 152.7,64.222513 C152.7,78.2347409 143.942358,90.7944819 130.570933,97.2879534 C132.407902,100.79101 135.697358,105.575674 137.534326,108.010725 C140.225699,111.599223 138.388731,116.084845 133.347746,116.084845 C127.409637,116.084845 115.405259,110.317617 106.391295,103.909585 C90.7300674,104.198374 77.1250142,99.6239627 67.6725101,91.958358 L67.4565152,91.782063 L67.1686023,91.8231408 Z M103.23,32.9940415 C80.4601295,32.9940415 62.3467617,47.0062694 62.3467617,64.222513 C62.3467617,81.266594 80.0996735,95.1704195 102.548314,95.4467916 L103.23,95.4509845 C104.041684,95.4509845 105.19513,95.4082642 106.733057,95.365544 C108.570026,95.365544 109.937073,95.9209067 111.645881,97.2452332 C116.644145,100.952279 124.038452,105.633987 127.96865,107.291198 L128.264041,107.412642 C128.733964,107.626244 128.947565,107.327202 128.605803,106.9 L127.661858,105.705138 C125.57258,103.036293 122.964794,99.5346479 121.599689,96.9889119 C120.353683,94.7045675 120.76325,92.7028819 123.299487,91.4156948 L123.522098,91.3071244 C136.551762,85.1554145 144.113238,75.4152073 144.113238,64.222513 C144.113238,47.0062694 125.99987,32.9940415 103.23,32.9940415 Z M53.76,64.222513 C53.76,44.3634094 71.6163937,28.0062395 95.240635,24.9592809 L96.1460419,24.849361 C87.5181014,15.8261896 73.5600806,9.95710956 57.6516643,9.95710956 C31.1159674,9.95710956 10.0068951,26.2867692 10.0068951,46.350345 C10.0068951,59.2508199 18.6263299,70.4955842 33.50525,77.676526 L34.0035291,77.9143823 C37.1898042,79.4079487 37.7374452,81.797655 36.2438788,84.5358601 C34.4018135,87.9710629 30.6181119,92.8998322 28.079049,96.0861072 C27.7041931,96.5546771 27.9026462,96.8909449 28.3838626,96.7213518 L28.4773333,96.6835338 C32.9580326,94.8912541 41.8696457,89.2654872 47.8439114,84.8345734 C49.8353333,83.2912214 51.4284709,82.6440093 53.5692494,82.6440093 L56.2120927,82.7200665 C56.7677169,82.7344361 57.2462677,82.7435804 57.6516643,82.7435804 C58.1975512,82.7435804 58.7411415,82.7366697 59.2822987,82.722958 L59.0765443,82.4040386 C55.6533895,77.0011266 53.76,70.8381642 53.76,64.222513 Z" id="Shape"></path>
                </g>
                <g id="Regular-M" transform="translate(898.97, 422.09)">
                    <path d="M56.9760573,0 C80.3995475,0 100.356361,11.1704022 109.150476,27.2200141 L109.329365,27.5545274 C126.68471,33.4542267 138.75,47.2145011 138.75,63.2968651 C138.75,77.3033907 129.782407,89.7299118 116.288316,95.9645238 C118.209943,99.6796693 121.79698,104.718602 123.718607,107.238069 C125.981856,110.227266 124.615366,113.942412 120.216975,113.942412 C114.452094,113.942412 102.666116,108.134828 93.9974427,101.942919 C79.0053722,102.351598 65.898471,98.2207029 56.5813171,91.1601204 L55.7828147,91.1710703 C54.7484341,91.179925 53.705712,91.170233 52.6551217,91.1415943 C42.4557041,98.4268926 28.5885155,105.26 21.8056516,105.26 C16.6305776,105.26 15.0227876,100.888821 17.6856897,97.3717804 L18.418842,96.3980626 C20.7711392,93.237248 24.3931885,88.0415742 26.4280477,84.1075131 C10.5511217,76.7719714 0,62.1511313 0,45.671284 C0,20.3988353 25.3226921,0 56.9760573,0 Z M90.325,31.5259656 C67.2654762,31.5259656 48.9459656,45.7887081 48.9459656,63.2968651 C48.9459656,80.7623192 67.2654762,95.0250617 90.325,95.0250617 L91.1700926,95.0155999 C91.9668799,95.0006601 92.9908762,94.9701581 94.2109568,94.9396561 C96.0044753,94.9396561 97.3709656,95.4947928 98.9936728,96.7758774 L99.8194537,97.3671113 C105.01595,101.050006 112.046502,105.354765 115.733179,106.853743 C116.074802,106.981852 116.20291,106.725635 115.989396,106.426715 L115.397323,105.6925 C113.064014,102.780577 110.06566,98.8204885 108.729916,96.3061464 C107.534237,94.0855996 107.833157,92.1212698 110.566138,90.8401852 C123.974824,84.6055732 131.661332,74.6558157 131.661332,63.2968651 C131.661332,45.7887081 113.341821,31.5259656 90.325,31.5259656 Z M56.9760573,8.29016706 C29.8948449,8.29016706 8.3404105,25.0714749 8.3404105,45.671284 C8.3404105,59.0360382 17.3842291,70.7427589 33.1606683,78.0783007 C36.3762482,79.5856038 36.7279523,81.8968019 35.321136,84.5094606 C33.6128592,87.7250406 29.5933842,92.950358 26.7797518,96.4171551 C26.5285346,96.7688592 26.6792649,97.0703198 27.0812124,96.9195895 C31.6533652,95.0605823 40.5966969,89.5338043 46.7766396,85.0621384 C47.5350167,84.4634197 48.2458301,83.9994646 48.9594608,83.657678 L48.6607999,83.2667451 C44.3321264,77.4885672 41.9,70.681037 41.9,63.2968651 C41.9,41.8173457 63.4222222,24.48 90.325,24.48 C92.4003571,24.48 94.4436945,24.5831749 96.4476017,24.7834671 L97.5033795,24.8983804 C88.8176872,14.8924056 73.9939508,8.29016706 56.9760573,8.29016706 Z" id="Shape"></path>
                </g>
                <g id="Light-M" transform="translate(604.94, 424)">
                    <path d="M64.1410592,94.8033168 L63.2955894,94.8645087 C59.8907468,95.0890957 56.40605,95.1002086 52.8657884,94.8832419 C42.3878844,101.92143 28.9994515,108.06 22.4375318,108.06 C17.6748482,108.06 16.2989618,104.302772 18.9448972,100.863056 L19.7213499,99.8820473 C22.1086304,96.8344383 25.6473251,92.0311061 27.7823213,87.9508913 C11.0600098,80.0130852 0,64.8254163 0,47.5739177 C0,21.2733203 26.19476,0 59.0572772,0 C85.3309993,0 107.342644,13.5980562 115.112961,32.4916486 L115.382337,32.65873 C126.248464,39.5039581 133.18,50.1728734 133.18,62.1720833 C133.18,75.7422715 124.480094,87.6890323 111.326169,93.9329839 C113.199355,97.5128495 116.44621,101.800363 118.277769,104.089812 C120.359086,106.795524 119.276801,109.750995 115.53043,109.750995 C110.368763,109.750995 99.8372984,104.922339 91.5952823,99.3860349 C81.8270522,99.9846858 72.5965971,98.3758987 64.7285209,95.0555138 L64.1410592,94.8033168 Z M86.725,30.0365457 C63.8305108,30.0365457 45.5565457,44.4392608 45.5565457,62.1720833 C45.5565457,79.9465323 63.8305108,94.3492473 86.725,94.3492473 C88.057043,94.3492473 89.6804704,94.2659946 91.5536559,94.1411156 C92.9273253,94.1411156 94.0928629,94.5157527 95.3000269,95.4731586 L96.5310904,96.2520927 C102.231351,99.8142746 109.078347,103.494744 112.491707,104.464449 C112.824718,104.547702 112.949597,104.33957 112.699839,104.048185 L111.799903,102.949215 C109.802143,100.487783 107.272067,97.2087346 105.875787,94.5904488 L105.664987,94.1827419 C104.749207,92.5176882 105.040591,91.0191398 106.99703,90.1033602 C120.067702,84.0675403 127.851828,73.869086 127.851828,62.1720833 C127.851828,44.4392608 109.619489,30.0365457 86.725,30.0365457 Z M40.27,62.1720833 C40.27,41.4837903 60.8750403,24.75 86.725,24.75 C92.9289903,24.75 98.8308733,25.7138663 104.218311,27.4649381 L104.798399,27.6571925 C95.890555,15.1704173 78.8292937,6.72067581 59.0572772,6.72067581 C29.9519882,6.72067581 6.77359452,25.0305485 6.77359452,47.5739177 C6.77359452,62.4440744 16.6693928,75.4091577 33.2858668,83.0823702 C35.6998937,84.2123403 36.1198558,86.040233 35.0779925,88.0821944 L34.9792654,88.2684035 C33.1663097,91.8943149 29.4024757,96.6998272 26.6703724,100.0384 L26.0360039,100.810137 C25.7184917,101.180568 25.8772478,101.445162 26.3005975,101.339324 C30.9574437,100.016357 40.6415671,94.7244858 48.1560235,89.9088834 C49.690666,88.6917532 51.1723898,88.2154848 52.9187071,88.2154848 L53.2840889,88.2395842 L53.3136139,88.2651935 L52.7913552,87.832102 C45.0241448,81.2832582 40.27,72.3809442 40.27,62.1720833 Z" id="Shape"></path>
                </g>
                <g id="Thin-M" transform="translate(311.77, 426.49)">
                    <path d="M81.5950435,28.2066087 C58.986,28.2066087 40.9067826,42.678 40.9067826,60.6770435 C40.9067826,78.676087 58.986,93.2276522 81.5950435,93.2276522 C83.5192174,93.2276522 85.4834783,93.0272174 87.568,92.8668696 C88.3256435,92.8307913 89.1157574,92.9895357 89.8214482,93.372326 L90.0533913,93.5082609 C96.7078261,97.3566087 104.284261,100.844174 107.691652,101.16487 C107.985623,101.201616 108.043805,101.036257 107.866197,100.792302 L107.331055,100.141237 C105.465156,97.8933285 102.543819,94.4636667 101.037217,91.3034783 C100.556174,90.3013043 100.756609,89.4193913 101.838957,88.8982609 C114.386174,83.1257391 122.283304,72.7031304 122.283304,60.6770435 C122.283304,42.678 104.204087,28.2066087 81.5950435,28.2066087 Z M49.8916813,85.3435993 C48.2408726,85.2859179 46.5831246,85.1664226 44.9230984,84.9831389 L43.9620553,85.5565038 C34.9510274,90.8654001 24.8565512,94.95 19.7892748,94.95 C16.2743915,94.95 15.3595588,92.4943966 17.6225659,89.7498986 L18.4063252,88.8134921 C20.447261,86.3615895 23.3234178,82.7702069 25.2301217,79.2533976 C10.0150101,71.790289 0,58.1640974 0,42.6600913 C0,19.1151876 23.2560091,0 52.5788032,0 C76.222182,0 95.9030078,12.3868779 102.679727,29.5000328 L103.010884,29.6483024 C116.417011,35.7229451 125.37,47.3473287 125.37,60.6770435 C125.37,73.5850435 117.031913,84.9296522 104.364435,91.1431304 C106.168348,94.4703478 109.014522,97.8777391 110.698174,99.882087 C112.582261,102.167043 111.820609,104.211478 108.894261,104.211478 C104.524783,104.211478 95.6655652,100.563565 87.9688696,95.9134783 C73.7363965,97.484887 59.7050638,93.4243669 50.1128978,85.5270953 L49.8916813,85.3435993 Z M37.78,60.6770435 C37.78,41.0745217 57.142,25.16 81.5950435,25.16 C87.454153,25.16 93.0223275,26.0766765 98.101731,27.7410099 L97.7230672,27.6186111 C90.395036,13.5173507 73.0297954,3.65933063 52.5788032,3.65933063 C25.4227181,3.65933063 3.70747972,21.0411511 3.70747972,42.6600913 C3.70747972,57.1048174 13.1928499,69.6235801 28.2635142,76.5570487 C29.5635396,77.1829868 29.804285,78.2422667 29.2264959,79.4459939 C27.3228874,83.4389289 23.538885,87.7900342 21.3282734,90.4702113 L21.0893002,90.7610294 C20.8004057,91.098073 20.8485548,91.3388185 21.2337475,91.2906694 C25.3264199,90.9054767 34.4265974,86.7165061 42.4193458,82.0941937 C43.3341785,81.5164047 44.3934584,81.2756592 45.4045892,81.3238083 L45.785291,81.3535135 L45.8496747,81.4296349 L45.4230349,80.9396002 C40.6438442,75.3476349 37.78,68.4595252 37.78,60.6770435 Z" id="Shape"></path>
                </g>
                <g id="Ultralight-M" transform="translate(16.89, 427.76)">
                    <path d="M51.2887026,0 C74.7282343,0 94.1587681,12.5997075 100.439044,29.7777321 C113.407544,35.7183941 122.05,47.0414667 122.05,59.9589546 C122.05,72.5787305 113.8727,83.5866347 101.488808,89.7589238 C103.218621,92.9826672 105.891969,95.9705269 107.503841,97.8182823 C109.272968,99.9019213 108.683259,101.513793 106.167167,101.513793 C102.157145,101.513793 94.0977861,98.4473054 86.6674508,94.2407134 C72.6026304,96.161762 58.1386999,92.0296398 48.499474,83.709442 C46.5801759,83.6322024 44.6573127,83.46347 42.7405855,83.2016731 C33.7650625,88.2830538 24.029707,91.9872379 19.1857739,91.9872379 C16.1464434,91.9872379 15.4341003,90.0401668 17.5711296,87.5232212 L18.8065653,86.1054372 C20.7070545,83.9059397 23.145497,80.9402665 24.8370291,77.7878656 C9.8778242,70.3320079 0,57.0349369 0,41.7907947 C0,18.8058576 22.6525103,0 51.2887026,0 Z M79.5909409,27.3283814 C57.1426792,27.3283814 39.136893,41.8745405 39.136893,59.9589546 C39.136893,78.0826826 57.1426792,92.6681556 79.5909409,92.6681556 C81.8318357,92.6681556 83.9547887,92.4715859 86.1170556,92.2357023 C86.6330511,92.2013026 87.2694455,92.2572021 87.7628662,92.4824126 L88.9273786,93.1054015 L89.8940002,93.6120155 C96.345504,96.9553287 102.882666,99.5838853 105.813341,99.5491566 C106.127853,99.5491566 106.167167,99.39084 105.931283,99.1156424 L104.278857,97.149 C102.60162,95.1407103 100.527403,92.5180479 99.3265406,89.9161796 C98.9727151,89.2085286 99.1692848,88.6188195 99.7983079,88.3436219 C112.064258,82.682414 120.005675,72.1462771 120.005675,59.9589546 C120.005675,47.568976 111.572424,36.8398128 99.0424186,31.3114626 L98.3204729,31.0006051 C92.73265,28.6533248 86.3659083,27.3283814 79.5909409,27.3283814 Z M51.2887026,2.37447697 C24.1721756,2.37447697 2.46945605,19.9456066 2.46945605,41.7907947 C2.46945605,56.5125519 12.062343,69.2397485 26.8790793,76.0782422 C27.638912,76.410669 27.8763597,77.1230121 27.4489538,77.9778238 C25.5341756,82.1265099 21.7812102,86.3189625 19.719377,88.7905217 L19.4707112,89.090376 C19.1857739,89.4228028 19.2332635,89.6136232 19.6131798,89.6136232 C23.4294392,89.6593094 32.3082924,85.9659064 40.6626427,81.4825647 L41.1734307,81.2071125 C41.7907947,80.8271961 42.693096,80.7322171 43.4054391,80.7797066 C44.1678158,80.862875 44.9261466,80.9419974 45.6851552,81.0123503 C40.3900356,75.3658453 37.1318819,68.2028999 37.1318819,59.9589546 C37.1318819,40.9310059 55.884633,25.3626842 79.5909409,25.3626842 C85.9483153,25.3626842 91.9494479,26.4823014 97.3282078,28.4880076 C90.6041852,13.2320171 72.6044196,2.37447697 51.2887026,2.37447697 Z" id="Shape"></path>
                </g>
                <g id="Black-S" transform="translate(2389.02, 0)">
                    <path d="M50.586325,76.9430162 C49.2343297,77.0472148 47.8617935,77.113054 46.4702995,77.1392029 C37.2434795,83.7884901 25.9994601,88.57 20.2093505,88.57 C13.3080258,88.57 9.68817636,81.7518238 13.5283016,76.3283845 L13.6721299,76.1306031 C15.0916407,74.2254703 16.7352847,70.9755377 18.0053733,68.9583383 C6.76135386,62.2343399 0,50.8408984 0,38.5882792 C0,17.1835512 21.0311725,0 47.2921215,0 C64.9397409,0 80.2357912,7.7821711 88.3529898,19.3958834 L87.8392457,19.3397202 C108.717487,21.5381093 124.67,35.9839483 124.67,53.6316239 C124.67,64.6120427 118.610684,74.8224931 108.534141,80.8483327 C109.591054,82.5269594 110.93662,85.1581402 112.141983,86.8924357 L112.41746,87.2758949 C116.06644,92.1635203 112.819182,98.4236981 106.559004,98.4236981 C101.370087,98.4236981 91.2935441,94.1386567 83.0247531,88.1797708 C70.0558072,87.9360591 58.9244478,83.8451836 51.2263879,77.2486729 L50.8496569,76.9214362 L50.586325,76.9430162 Z M82.2882616,31.1016792 C65.5163414,31.1016792 51.9916792,41.2116989 51.9916792,53.6316239 C51.9916792,66.0515488 65.5163414,76.1615685 82.2882616,76.1615685 L83.5938601,76.1615685 C85.1337969,76.1615685 86.2385342,76.4963374 87.8454247,77.801936 C91.4944054,80.7813789 97.6541525,85.0329435 100.36578,86.1042039 C101.362052,86.4898576 101.772131,86.1659085 101.151743,85.3100657 L100.366316,84.2940417 C99.2864855,82.8810492 97.7010202,80.7010344 96.4155077,78.3710431 C95.1099091,75.9607072 95.9803082,74.0190478 98.1897827,72.9143105 C107.161588,68.5623153 112.618321,61.565646 112.618321,53.6316239 C112.618321,41.2116989 99.0936586,31.1016792 82.2882616,31.1016792 Z M70.5937017,20.3708819 C64.5360207,16.0831604 56.3372679,13.4479966 47.2921215,13.4479966 C28.5396373,13.4479966 13.4479966,24.7293716 13.4479966,38.5882792 C13.4479966,47.4415437 19.5369507,55.2488528 29.548237,60.1050738 C32.0137031,61.3378068 32.9849473,63.5044285 31.528081,66.1940278 C29.7350148,69.4439604 27.4189709,72.432404 26.3356601,73.8145593 C25.513838,74.8605146 25.9621046,75.2714256 27.1201265,74.823159 C30.1459258,73.6277815 37.0193463,68.8836272 41.0911008,65.5589836 C41.44867,65.2684585 41.7839563,65.021014 42.1052543,64.8110214 L42.0265474,64.6227553 C40.6657789,61.1974002 39.94,57.5082473 39.94,53.6316239 C39.94,37.9021739 52.6130504,24.716338 70.1329235,20.4790712 L70.5937017,20.3708819 Z" id="Shape"></path>
                </g>
                <g id="Heavy-S" transform="translate(2094, 0.54)">
                    <path d="M71.9825665,19.8189717 L71.8622482,19.8380236 C65.5336614,14.9508609 56.6754987,11.9080451 46.8357824,11.9080451 C27.4567664,11.9080451 11.9080451,23.6643953 11.9080451,38.0754053 C11.9080451,47.3287906 18.2792284,55.4823884 28.8220199,60.5641656 C31.2870611,61.7777243 32.1213827,63.8635284 30.7561292,66.404417 C29.0495622,69.5141612 26.5465973,72.7376766 25.1813437,74.4442436 C24.5366407,75.3164889 24.8779541,75.6957261 25.8639705,75.3164889 C29.0116385,74.0650065 35.9516775,69.4003901 40.1991331,66.0251799 C40.6008719,65.7020422 40.9744535,65.4311964 41.3328465,65.205695 C41.3520009,65.2486027 41.3716082,65.2900635 41.391314,65.3314805 C39.5788562,61.5221258 38.6,57.3409964 38.6,52.9087849 C38.6,36.6340977 52.5556174,23.1556179 71.3331674,19.9262554 L71.9825665,19.8189717 Z M80.0432078,29.7355164 C62.9151397,29.7355164 49.1455164,40.146695 49.1455164,52.9087849 C49.1455164,65.6708748 62.9151397,76.0820535 80.0432078,76.0820535 C80.51339,76.0820535 81.1179101,76.0820535 81.7560146,76.048469 C83.3008991,76.048469 84.3756015,76.4178979 85.920486,77.6605225 C89.6819441,80.6495383 95.8278979,84.7804253 98.615407,85.888712 C99.4886027,86.2245565 99.7908627,85.888712 99.2199271,85.1162697 C98.010887,83.6049696 95.7943135,80.7502916 94.2830134,77.996367 C93.0739733,75.746209 93.8128311,73.8990644 95.9958202,72.8243621 C105.332296,68.3240462 110.974484,61.10339 110.974484,52.9087849 C110.974484,40.146695 97.2048603,29.7355164 80.0432078,29.7355164 Z M87.9499161,19.7931962 L88.1145467,19.8189717 C107.24172,22.8461373 121.52,36.4470323 121.52,52.9087849 C121.52,63.9244836 115.206124,74.0669866 104.996452,79.8435115 C106.205492,81.9257473 108.019052,85.0826853 109.328846,86.862661 C112.552953,91.1614702 109.832612,96.6693196 104.190425,96.6693196 C99.1527582,96.6693196 89.2453463,92.269757 81.2858323,86.560401 C68.3839489,86.4547921 57.2809143,82.4470648 49.6350365,75.9151134 L49.5452277,75.9218699 C48.1939253,76.0121046 46.8225091,76.063586 45.4326051,76.0749632 C36.4446857,82.5219939 25.2571912,87.49 19.5686346,87.49 C13.1974512,87.49 10.1256307,81.2705115 13.7663069,76.4162765 C15.2453316,74.4063199 17.293212,70.8414911 18.6584655,68.4902211 C7.12965756,61.9673429 0,50.5143823 0,38.0754053 C0,16.9518986 20.820117,0 46.8357824,0 C64.6496663,0 80.0382574,7.97136682 87.951077,19.7930076 Z" id="Combined-Shape"></path>
                </g>
                <g id="Bold-S" transform="translate(1799.19, 1.18)">
                    <path d="M53.1916936,74.4087154 C50.3207989,74.7790615 47.3442664,74.9673899 44.2798388,74.9588894 C35.5861532,81.1797044 24.419597,86.28 18.8169996,86.28 C13.29929,86.28 10.8171855,81.1457049 13.732848,77.0039721 L13.8712584,76.8135423 C15.4554411,74.6884192 17.9669503,70.7472817 19.4738558,68.0039409 C7.57316614,61.7058486 0,50.191545 0,37.5180833 C0,16.730515 20.6330139,0 46.3663233,0 C63.9478866,0 79.1486711,7.80967569 87.0149393,19.3871715 L87.6358894,19.431295 C108.23411,21.0220421 124.18,34.9628634 124.18,52.0391125 C124.18,63.1050125 117.56745,73.1587875 107.1763,78.658 L107.618995,79.4461265 C108.866776,81.6241357 110.610678,84.3473751 111.843349,86.0443729 L112.068238,86.35015 C114.800975,89.9938 112.641775,94.6158375 107.749837,94.6158375 C102.8579,94.6158375 93.1077625,90.1624875 85.516825,84.73075 C72.6247141,84.7665118 61.5142536,80.8125139 53.9182881,74.3153048 L53.1916936,74.4087154 Z M83.695,28.119225 C66.1177625,28.119225 52.0829625,38.84775 52.0829625,52.0391125 C52.0829625,65.0651613 65.83847,75.7104491 83.1687561,75.9220522 L83.695,75.9252625 C84.2348,75.9252625 84.977025,75.9252625 85.8879375,75.891525 C87.3723875,75.891525 88.4519875,76.2626375 89.9027,77.44345 C93.81625,80.4460875 99.956475,84.4271125 102.8579,85.607925 C103.463301,85.8309674 103.737678,85.6026145 103.3684,85.0933934 L102.781771,84.3495486 C101.333048,82.5028255 99.3304569,79.8238181 98.1009125,77.5446625 C96.9538375,75.4529375 97.527375,73.6985875 99.7203125,72.652725 C109.504188,67.99695 115.307037,60.5409625 115.307037,52.0391125 C115.307037,38.84775 101.272237,28.119225 83.695,28.119225 Z M43.21,52.0391125 C43.21,36.6109538 56.2264336,23.7422061 73.9302457,20.2287154 L74.3877015,20.140211 C67.7722849,14.0275323 57.7138685,10.1233139 46.3663233,10.1233139 C26.2356113,10.1233139 10.1619525,22.4103896 10.1619525,37.5180833 C10.1619525,47.2550112 16.8077922,55.7941424 28.012987,61.1262696 C30.5244962,62.3240663 31.1813524,64.3332736 29.8676399,66.728867 C28.5210846,69.2249207 26.364954,72.1397203 24.7280682,74.2393613 L23.9172951,75.2679982 C23.3763547,75.9248545 23.6854635,76.2339633 24.419597,75.9634931 C27.7425168,74.611142 34.7747425,70.0517868 39.2568204,66.6129512 C40.9182803,65.2606001 42.1547156,64.8355755 43.8548142,64.8355755 L44.5212638,64.8560343 C44.7335906,64.8612285 44.935953,64.8649387 45.127927,64.8675888 L46.3276172,64.8746484 L46.1564011,64.5380563 C44.2457682,60.7197443 43.21,56.5086565 43.21,52.0391125 Z" id="Shape"></path>
                </g>
                <g id="Semibold-S" transform="translate(1503.77, 1.62)">
                    <path d="M53.9845439,78.4367976 C51.4563155,78.6784963 48.8565471,78.7869463 46.1958177,78.7532661 C37.1312918,85.1982272 25.3224599,90.77 19.4596244,90.77 C14.1386333,90.77 11.9603526,85.9753522 14.7095546,82.0973282 L15.3255449,81.2501198 C17.0948868,78.778969 19.694644,74.8157836 21.2891617,71.8925011 C8.35765918,65.3643793 0,53.0981631 0,39.4182135 C0,17.5885066 21.746546,0 48.8985433,0 C68.5145159,0 85.3091963,9.18005112 93.1208162,22.5072588 L93.0000771,22.4609566 C106.397315,27.623744 115.58,38.6353571 115.58,51.4378571 C115.58,62.5807738 108.772321,72.5721429 98.2390476,77.8895833 C99.5904226,80.3671042 101.828235,83.7616295 103.268254,85.7500812 L103.48875,86.0520238 C105.893452,89.2357143 104.132262,93.266131 99.7292857,93.266131 C94.95375,93.266131 85.3349405,88.7276786 77.9514881,83.4779762 C69.2890558,83.5876272 61.4198845,81.8477969 54.8941864,78.7204111 L54.2588008,78.4094078 L53.9845439,78.4367976 Z M75.75,27.0182738 C57.9010119,27.0182738 43.6421429,37.9918452 43.6421429,51.4378571 C43.6421429,64.7829393 57.6172604,75.6383924 75.2156181,75.854167 L76.5785724,75.8552729 C77.0573452,75.8520214 77.6263452,75.8438929 78.2563095,75.8235714 C79.7465476,75.8235714 80.8303571,76.23 82.2189881,77.3476786 L82.9506298,77.8880322 C86.9558498,80.8108766 92.5211555,84.3266947 95.3263095,85.442381 C95.8343452,85.6455952 96.0375595,85.4085119 95.665,84.9343452 L95.1033964,84.2246749 C93.5308319,82.223567 91.4200794,79.4136905 90.2459524,77.2460714 C89.1960119,75.3155357 89.6363095,73.6220833 91.8377976,72.5721429 C101.930774,67.7966071 107.891726,60.1422024 107.891726,51.4378571 C107.891726,37.9918452 93.6328571,27.0182738 75.75,27.0182738 Z M78.3819924,19.3980719 L78.259074,19.3918416 L78.0758195,19.2378625 C70.8881101,13.2230476 60.5123631,9.43874943 48.8985433,9.43874943 C26.9440953,9.43874943 9.43874943,22.9107971 9.43874943,39.4182135 C9.43874943,50.1043747 16.7568988,59.5015437 29.1478562,65.3643793 C31.8505818,66.6533715 32.3911269,68.7323912 31.1021347,71.1024737 C29.4804993,74.096262 26.4035502,78.0879798 24.4492716,80.5412231 C23.9918873,81.1233486 24.2413697,81.4144114 24.8650756,81.164929 C28.5241503,79.7096152 36.0086212,74.9278699 40.956688,71.2272148 C41.6943544,70.6334834 42.3619549,70.2032389 43.0302305,69.9061637 L42.6935759,69.5170996 C38.3774365,64.423924 35.92,58.229956 35.92,51.4378571 C35.92,33.6566071 53.6335119,19.33 75.75,19.33 C76.6346595,19.33 77.5122743,19.3529226 78.3819924,19.3980719 Z" id="Shape"></path>
                </g>
                <g id="Medium-S" transform="translate(1208.04, 1.91)">
                    <path d="M45.8125315,0 C63.4905796,0 78.7230531,7.92901141 86.3715329,19.6178777 L86.550985,19.6334601 C106.227526,21.4193424 121.35,34.7458746 121.35,51.0381736 C121.35,62.1740285 114.390091,72.155557 103.763497,77.3160751 C105.223381,80.1000389 107.837591,83.9025259 109.297474,85.8377202 C111.436373,88.6895855 109.97649,92.2544171 105.970298,92.2544171 C101.25114,92.2544171 91.7109715,87.6710622 84.5473575,82.5784456 C72.1010026,82.8079528 61.2887393,79.1725579 53.7766067,73.0805174 L53.5978308,72.9345614 C50.1734081,73.4274592 46.5913628,73.6532401 42.8849604,73.5848951 C34.5374266,79.5191608 23.4205688,84.86 17.9214825,84.86 C13.2531935,84.86 11.5520373,80.706014 14.0444289,77.3828252 C15.7455851,75.1278042 18.7918415,70.6968858 20.4929977,67.4528205 C8.11016317,61.4394312 0,49.8082704 0,36.8320093 C0,16.4181352 20.3743124,0 45.8125315,0 Z M82.035,26.2201554 C63.9392358,26.2201554 49.5441062,37.3560104 49.5441062,51.0381736 C49.5441062,64.7203368 63.9392358,75.8561917 82.035,75.8561917 C82.6800648,75.8561917 83.5967358,75.8222409 84.8189637,75.7882902 C86.2788472,75.7882902 87.365272,76.2296503 88.7233031,77.2821244 C92.7973964,80.3037435 98.8745855,84.1401813 101.930155,85.3624093 C102.303614,85.5321632 102.473368,85.2945078 102.201762,84.955 C100.470272,82.7821503 97.890013,79.4210233 96.6338342,77.0784197 C95.6153109,75.2111269 95.9887694,73.5814896 98.1616192,72.5629663 C108.516606,67.6740544 114.525894,59.9332772 114.525894,51.0381736 C114.525894,37.3560104 100.130764,26.2201554 82.035,26.2201554 Z M45.8125315,7.91235431 C24.7261072,7.91235431 7.95191608,20.8886154 7.95191608,36.8320093 C7.95191608,47.1971935 14.9543497,56.2172774 27.02069,61.9141725 C29.5526434,63.1010256 29.9878228,64.9999907 28.8009697,67.1758881 C27.3371841,69.9056503 24.3304895,73.8222657 22.3128392,76.3542191 C21.996345,76.7498368 22.1941538,77.0267692 22.6293333,76.8289604 C26.1898928,75.4047366 33.2714499,70.9342564 38.0188625,67.4132587 C39.6013333,66.1868438 40.86731,65.6725408 42.5684662,65.6725408 C43.99269,65.7121026 45.0608578,65.7516643 45.8125315,65.7516643 C46.2453758,65.7516643 46.6764031,65.7461966 47.1055056,65.7353477 L46.9451857,65.4874697 C44.2247222,61.1936455 42.72,56.2957909 42.72,51.0381736 C42.72,35.0962466 57.1990389,21.9938982 76.2559844,19.7646051 L76.4037314,19.748657 C69.547254,12.5768321 58.4549355,7.91235431 45.8125315,7.91235431 Z" id="Combined-Shape"></path>
                </g>
                <g id="Regular-S" transform="translate(912.62, 2.35)">
                    <path d="M72.065,25.1514947 C53.667381,25.1514947 39.0514947,36.5307628 39.0514947,50.4993254 C39.0514947,64.4338183 53.667381,75.8130864 72.065,75.8130864 L72.645249,75.8072307 C73.2936373,75.7960516 74.1432496,75.7704993 75.1653395,75.7449471 C76.5962654,75.7449471 77.6864947,76.1878527 78.981142,77.2099427 L79.7626349,77.7684228 C83.8959023,80.6872698 89.4240105,84.0662046 92.3364506,85.2503836 C92.6090079,85.3525926 92.7112169,85.1481746 92.5408686,84.9096869 L91.7207969,83.8879522 C89.9187715,81.6178816 87.7494348,78.7182997 86.7490256,76.8351764 C85.795075,75.0635538 86.0335626,73.4963492 88.2140212,72.4742593 C98.9118959,67.5000882 105.044436,59.5618563 105.044436,50.4993254 C105.044436,36.5307628 90.4285494,25.1514947 72.065,25.1514947 Z M44.5054226,72.7393738 C43.6801586,72.7464383 42.8482395,72.7387058 42.010043,72.7158568 C33.8726014,78.528315 22.8088878,83.98 17.3972888,83.98 C13.2684391,83.98 11.9856897,80.4925251 14.1102434,77.6865107 L14.5528489,77.1003842 C16.4228926,74.601081 19.4200859,70.3230358 21.0851933,67.1038282 C8.41804296,61.251284 0,49.5862816 0,36.4381002 C0,16.2748831 20.2033031,0 45.457432,0 C64.274424,0 80.2872869,9.03552708 87.2279041,21.9826447 L87.1567969,21.9590606 C101.04125,26.6526893 110.7,37.6465443 110.7,50.4993254 C110.7,61.6741755 103.54537,71.588448 92.7793563,76.562619 C94.3124912,79.5266799 97.174343,83.5469004 98.707478,85.5570106 C100.51317,87.9418871 99.4229409,90.905948 95.9137654,90.905948 C91.3143607,90.905948 81.9111332,86.2724735 74.9949912,81.3323721 C63.121713,81.656034 52.7304652,78.4108984 45.3075369,72.8532843 L45.1447788,72.7306948 L44.5054226,72.7393738 Z M33.43,50.4993254 C33.43,33.362284 50.6011111,19.53 72.065,19.53 C74.2113889,19.53 76.31485,19.6683228 78.362505,19.934441 L77.7906536,19.8636222 C70.8599965,11.880879 59.0338699,6.61417661 45.457432,6.61417661 C23.8511217,6.61417661 6.65426253,20.0028735 6.65426253,36.4381002 C6.65426253,47.1009547 13.8697279,56.4409737 26.4567064,62.2935179 C29.0222053,63.4960955 29.3028067,65.3400477 28.180401,67.4245155 C26.8174797,69.9900143 23.6106062,74.1589499 21.3657947,76.9248783 C21.1653652,77.2054797 21.2856229,77.4459952 21.6063103,77.3257375 C25.2541289,75.8425585 32.3894224,71.4331074 37.3199905,67.8654606 C37.9256131,67.3873375 38.4932171,67.0169338 39.0631106,66.7441725 L38.8239805,66.4319287 C35.3704275,61.8219152 33.43,56.3906519 33.43,50.4993254 Z" id="Shape"></path>
                </g>
                <g id="Light-S" transform="translate(618.28, 4.01)">
                    <path d="M68.975,23.8843145 C50.7673387,23.8843145 36.2343145,35.3385887 36.2343145,49.44125 C36.2343145,63.5770161 50.7673387,75.0312903 68.975,75.0312903 C70.0343548,75.0312903 71.3254435,74.9650806 72.8151613,74.8657661 C73.907621,74.8657661 74.8345565,75.1637097 75.7945968,75.925121 L76.9624251,76.6622949 C81.4572169,79.4581738 86.7898769,82.3152496 89.4668952,83.0757661 C89.7317339,83.1419758 89.8310484,82.9764516 89.6324194,82.7447177 L89.0905262,82.0843755 C87.4896921,80.1211096 85.3889666,77.4235536 84.231816,75.2725294 L84.0377016,74.898871 C83.3093952,73.5746774 83.541129,72.3829032 85.0970565,71.6545968 C95.4919758,66.8543952 101.682581,58.7437097 101.682581,49.44125 C101.682581,35.3385887 87.1826613,23.8843145 68.975,23.8843145 Z M50.3389131,75.4456402 C47.6310455,75.624254 44.8596699,75.6330921 42.0441038,75.4605387 C33.7110382,81.058002 23.0632321,85.94 17.8445446,85.94 C14.0567875,85.94 12.9625465,82.9518805 15.066856,80.2162782 L15.5183104,79.647492 C17.4154647,77.238867 20.3470542,73.2882438 22.0952498,69.9472478 C8.79601371,63.6343193 0,51.5555828 0,37.8354848 C0,16.9186484 20.8326641,0 46.9681881,0 C67.8598656,0 85.3631456,10.8106018 91.5458531,25.8324078 L91.7657722,25.9697003 C100.407448,31.4136128 105.92,39.8984492 105.92,49.44125 C105.92,60.2334274 99.0010887,69.7345161 88.5399597,74.7002419 C90.0296774,77.5472581 92.6118548,80.9570565 94.0684677,82.7778226 C95.7237097,84.9296371 94.8629839,87.2800806 91.8835484,87.2800806 C87.7785484,87.2800806 79.4030242,83.4399194 72.8482661,79.0369758 C65.0967681,79.5120302 57.7710811,78.239232 51.522696,75.6103271 L51.0226138,75.3960286 L50.3389131,75.4456402 Z M32.03,49.44125 C32.03,32.9881452 48.4168952,19.68 68.975,19.68 C73.8575499,19.68 78.5048175,20.4306626 82.7531556,21.7958367 L83.3428134,21.9901223 C76.2565328,12.0624805 62.689884,5.34494613 46.9681881,5.34494613 C23.8207835,5.34494613 5.38703232,19.9067679 5.38703232,37.8354848 C5.38703232,49.6617042 13.2571499,59.9728208 26.4722135,66.0753183 C28.3843294,66.9703513 28.7233571,68.4159652 27.9074757,70.0319969 L27.8189716,70.1997649 C26.2617826,73.314143 22.8948874,77.522762 20.7064055,80.174192 C20.4538883,80.4687953 20.5801469,80.6792262 20.9168364,80.5950539 C24.6204212,79.5428991 32.3221939,75.3342801 38.2984329,71.5044368 C39.5189324,70.5364545 40.6973457,70.1576787 42.08619,70.1576787 L42.3873827,70.1775363 L41.9880555,69.8482975 C35.8109036,64.6400953 32.03,57.5602117 32.03,49.44125 Z" id="Shape"></path>
                </g>
                <g id="Thin-S" transform="translate(324.71, 6.2)">
                    <path d="M39.5059624,67.5826855 C38.1996231,67.5369711 36.887799,67.4423753 35.5741734,67.2973377 L34.7248726,67.8033036 C27.6115707,71.9820478 19.66713,75.19 15.6709381,75.19 C12.8875355,75.19 12.1630882,73.245431 13.955142,71.0720892 L14.9256933,69.9083443 C16.5081962,67.9896434 18.5756597,65.3493025 19.9794929,62.7600101 C7.93079108,56.8500456 0,46.0595943 0,33.7821197 C0,15.1371349 18.416212,0 41.6366531,0 C60.3623351,0 75.9491988,9.81189626 81.3134316,23.3666919 L81.5744593,23.4841575 C92.1903859,28.2944922 99.28,37.499507 99.28,48.0549245 C99.28,58.2763982 92.6773089,67.2598673 82.6462975,72.1801419 C84.0747643,74.8148696 86.3285675,77.5130847 87.6618032,79.10027 C89.1537574,80.9096613 88.550627,82.5285904 86.2333364,82.5285904 C82.7732723,82.5285904 75.757913,79.639913 69.6631213,75.957643 C58.3928355,77.2019963 47.281827,73.9865874 39.6860668,67.7329653 L39.5059624,67.5826855 Z M64.6158719,22.3425217 C46.7124211,22.3425217 32.3960092,33.802 32.3960092,48.0549245 C32.3960092,62.307849 46.7124211,73.8308146 64.6158719,73.8308146 C66.1395698,73.8308146 67.6950114,73.6720961 69.3456842,73.5451213 C69.9382334,73.5169047 70.5558641,73.6391767 71.1093977,73.9342321 L71.3137941,74.0530206 C76.5832494,77.1004165 82.5828101,79.862119 85.2810252,80.1160686 C85.5349748,80.1478124 85.5667185,79.9890938 85.3762563,79.7668879 L83.9156756,78.0020118 C82.5510664,76.336624 80.9412069,74.2570873 80.0115698,72.3071167 C79.6306453,71.513524 79.7893638,70.8151625 80.6464439,70.4024943 C90.5822243,65.8314005 96.8357346,57.5780366 96.8357346,48.0549245 C96.8357346,33.802 82.5193227,22.3425217 64.6158719,22.3425217 Z M41.6366531,2.89778905 C20.1320081,2.89778905 2.93591785,16.662287 2.93591785,33.7821197 C2.93591785,45.2207606 10.4472921,55.1342495 22.3816075,60.6247972 C23.4110852,61.1204716 23.6017292,61.9593053 23.1441836,62.9125254 C21.5809026,66.1916024 18.416212,69.7757099 16.7004158,71.8727941 C16.471643,72.1396957 16.5097718,72.3303398 16.8148022,72.292211 C20.0557505,71.9871805 27.2620943,68.6699746 33.5914757,65.0096095 C34.3159229,64.5520639 35.1547566,64.3614199 35.9554615,64.3995487 L36.2549744,64.4229169 L36.2688036,64.4415842 C32.3065516,59.9536569 29.92,54.376948 29.92,48.0549245 C29.92,32.5322517 45.2522105,19.93 64.6158719,19.93 C69.0622129,19.93 73.2969695,20.5966591 77.1822589,21.8121785 L77.3886532,21.87737 C71.5882762,10.7072752 57.834725,2.89778905 41.6366531,2.89778905 Z" id="Shape"></path>
                </g>
                <g id="Ultralight-S" transform="translate(29.61, 7.38)">
                    <path d="M40.484667,0 C58.9866292,0 74.3240944,9.94556184 79.2814217,23.505012 C89.5180893,28.1942654 96.34,37.1321172 96.34,47.3285185 C96.34,57.2899213 89.8852593,65.9789954 80.1100509,70.8510833 C81.4754769,73.3957407 83.5856806,75.7542037 84.8580093,77.2127269 C86.2544676,78.8574444 85.7889815,80.1297731 83.8029074,80.1297731 C80.6376019,80.1297731 74.2759583,77.7092454 68.4108333,74.3887778 C57.3087867,75.9051549 45.891703,72.6434699 38.2829933,66.0759332 C36.7679979,66.0149642 35.2501885,65.8817755 33.7372225,65.6751265 C26.6524058,69.6861074 18.9678162,72.61 15.1442643,72.61 C12.7451729,72.61 12.1828859,71.0730821 13.869747,69.0863345 L14.8449365,67.9672087 C16.345085,66.2310384 18.2698663,63.8900883 19.6050749,61.401745 C7.79704698,55.5164739 0,45.0204491 0,32.9875065 C0,14.8443779 17.8807279,0 40.484667,0 Z M62.825,21.5716204 C45.1054954,21.5716204 30.8926528,33.0536111 30.8926528,47.3285185 C30.8926528,61.6344583 45.1054954,73.1474815 62.825,73.1474815 C64.5938472,73.1474815 66.2695972,72.9923194 67.9763796,72.806125 C68.38368,72.7789716 68.8860171,72.8230958 69.275498,73.0008655 L70.1947042,73.4926209 L70.9577057,73.892516 C76.0501913,76.5315557 81.2102908,78.6064032 83.5236157,78.5789901 C83.771875,78.5789901 83.8029074,78.4540231 83.616713,78.2367963 L82.3123726,76.6844298 C80.9884476,75.0991891 79.3511675,73.0289941 78.4032685,70.975213 C78.1239769,70.4166296 78.2791389,69.9511435 78.7756574,69.7339167 C88.4577685,65.26525 94.7263148,56.9485648 94.7263148,47.3285185 C94.7263148,37.548506 88.0695396,29.0794557 78.1789972,24.7156601 L77.6091304,24.4702851 C73.19839,22.6174626 68.1728112,21.5716204 62.825,21.5716204 Z M40.484667,1.87429014 C19.0802736,1.87429014 1.94926174,15.7440372 1.94926174,32.9875065 C1.94926174,44.6081053 9.52139391,54.6543005 21.2169644,60.0522561 C21.8167372,60.3146567 22.0041662,60.8769437 21.666794,61.5516882 C20.1553664,64.8264479 17.1929684,68.1357546 15.5654632,70.0866765 L15.3691791,70.323366 C15.1442643,70.5857666 15.1817501,70.7363905 15.4816366,70.7363905 C18.4939957,70.7724528 25.5025063,67.8570702 32.0970012,64.3181506 L32.500191,64.1007228 C32.9875065,63.8008363 33.6997367,63.7258647 34.2620237,63.7633505 C34.8638048,63.8289994 35.4623921,63.8914546 36.0615146,63.9469875 C31.8818192,59.4899265 29.31,53.8358654 29.31,47.3285185 C29.31,32.3088333 44.1124583,20.02 62.825,20.02 C67.8431848,20.02 72.5801705,20.9037682 76.8258872,22.4869697 C71.5182893,10.4446745 57.310199,1.87429014 40.484667,1.87429014 Z" id="Shape"></path>
                </g>
            </g>
        </g>
    </g>
</svg>