<?xml version="1.0" encoding="UTF-8"?>
<svg width="100px" height="100px" viewBox="0 0 100 100" version="1.1" xmlns="http://www.w3.org/2000/svg" xmlns:xlink="http://www.w3.org/1999/xlink">
    <title>Follows</title>
    <g id="Placeholders" stroke="none" stroke-width="1" fill="none" fill-rule="evenodd">
        <g id="Empty-placeholders" transform="translate(-1325, 10)" fill="#000000" fill-rule="nonzero">
            <g id="Follows" transform="translate(1325, -10)">
                <g id="Symbol" transform="translate(0, 26)">
                    <path d="M19.4694967,23.8932324 C24.4031729,23.8932324 28.7002843,19.4082077 28.7002843,13.6151054 C28.7002843,7.87541962 24.376663,3.63068747 19.4694967,3.63068747 C14.5358205,3.63068747 10.1856892,7.98219812 10.2120786,13.6685219 C10.2120786,19.4082077 14.5093105,23.8932324 19.4694967,23.8932324 Z M4.66841372,48 L24.8276038,48 C22.0689932,43.9688522 25.4376587,35.8531891 31.1406125,31.421581 C28.1963236,29.4460421 24.4031729,27.9777695 19.4429868,27.9777695 C7.48009852,27.9777695 0,36.8676122 0,44.2625122 C0,46.6651814 1.32625822,48 4.66841372,48 Z" id="Shape"></path>
                    <path d="M49.9999457,23.2791878 C55.7028451,23.2791878 60.6099028,18.153492 60.6099028,11.4794261 C60.6099028,4.88540311 55.6762265,0 49.9999457,0 C44.3236648,0 39.3899343,4.99218161 39.3899343,11.5327881 C39.3899343,18.153492 44.2971005,23.2791878 49.9999457,23.2791878 Z M33.3156781,48 L66.6577576,48 C70.8222106,48 72.3079631,46.7986627 72.3079631,44.4493882 C72.3079631,37.5617325 63.740033,28.0578124 49.9733271,28.0578124 C36.2334571,28.0578124 27.6657986,37.5617325 27.6657986,44.4493882 C27.6657986,46.7986627 29.1512252,48 33.3156781,48 Z" id="Combined-Shape"></path>
                    <path d="M80.5303946,23.8932324 C85.4906895,23.8932324 89.7876922,19.4082077 89.7876922,13.6685219 C89.7876922,7.98219812 85.4640709,3.63068747 80.5303946,3.63068747 C75.623337,3.63068747 71.2997157,7.87541962 71.2997157,13.6151054 C71.2997157,19.4082077 75.5967184,23.8932324 80.5303946,23.8932324 Z M95.3314233,48 C98.7005777,48 100,46.6651814 100,44.2625122 C100,36.8676122 92.5201731,27.9777695 80.5570132,27.9777695 C75.5967184,27.9777695 71.8038394,29.4460421 68.8594962,31.421581 C74.5623956,35.8531891 77.9310068,43.9688522 75.1724505,48 L95.3314233,48 Z" id="Combined-Shape"></path>
                </g>
            </g>
        </g>
    </g>
</svg>