<?xml version="1.0" encoding="UTF-8"?>
<!--Generator: Apple Native CoreSVG 149-->
<!DOCTYPE svg
PUBLIC "-//W3C//DTD SVG 1.1//EN"
       "http://www.w3.org/Graphics/SVG/1.1/DTD/svg11.dtd">
<svg version="1.1" xmlns="http://www.w3.org/2000/svg" xmlns:xlink="http://www.w3.org/1999/xlink" width="3300" height="2200">
 <!--glyph: "", point size: 100.0, font version: "17.0d8e1", template writer version: "58"-->
 <g id="Notes">
  <rect height="2200" id="artboard" style="fill:white;opacity:1" width="3300" x="0" y="0"/>
  <line style="fill:none;stroke:black;opacity:1;stroke-width:0.5;" x1="263" x2="3036" y1="292" y2="292"/>
  <text style="stroke:none;fill:black;font-family:SF Pro,SF Pro Display,SF Pro Text,sans-serif;font-size:13;font-weight:bold;" transform="matrix(1 0 0 1 263 322)">Weight/Scale Variations</text>
  <text style="stroke:none;fill:black;font-family:SF Pro,SF Pro Display,SF Pro Text,sans-serif;font-size:13;text-anchor:middle;" transform="matrix(1 0 0 1 559.711 322)">Ultralight</text>
  <text style="stroke:none;fill:black;font-family:SF Pro,SF Pro Display,SF Pro Text,sans-serif;font-size:13;text-anchor:middle;" transform="matrix(1 0 0 1 856.422 322)">Thin</text>
  <text style="stroke:none;fill:black;font-family:SF Pro,SF Pro Display,SF Pro Text,sans-serif;font-size:13;text-anchor:middle;" transform="matrix(1 0 0 1 1153.13 322)">Light</text>
  <text style="stroke:none;fill:black;font-family:SF Pro,SF Pro Display,SF Pro Text,sans-serif;font-size:13;text-anchor:middle;" transform="matrix(1 0 0 1 1449.84 322)">Regular</text>
  <text style="stroke:none;fill:black;font-family:SF Pro,SF Pro Display,SF Pro Text,sans-serif;font-size:13;text-anchor:middle;" transform="matrix(1 0 0 1 1746.56 322)">Medium</text>
  <text style="stroke:none;fill:black;font-family:SF Pro,SF Pro Display,SF Pro Text,sans-serif;font-size:13;text-anchor:middle;" transform="matrix(1 0 0 1 2043.27 322)">Semibold</text>
  <text style="stroke:none;fill:black;font-family:SF Pro,SF Pro Display,SF Pro Text,sans-serif;font-size:13;text-anchor:middle;" transform="matrix(1 0 0 1 2339.98 322)">Bold</text>
  <text style="stroke:none;fill:black;font-family:SF Pro,SF Pro Display,SF Pro Text,sans-serif;font-size:13;text-anchor:middle;" transform="matrix(1 0 0 1 2636.69 322)">Heavy</text>
  <text style="stroke:none;fill:black;font-family:SF Pro,SF Pro Display,SF Pro Text,sans-serif;font-size:13;text-anchor:middle;" transform="matrix(1 0 0 1 2933.4 322)">Black</text>
  <line style="fill:none;stroke:black;opacity:1;stroke-width:0.5;" x1="263" x2="3036" y1="1903" y2="1903"/>
  <g transform="matrix(1 0 0 1 263 1933)">
   <path d="M9.24805 0.830078Q10.8691 0.830078 12.2949 0.214844Q13.7207-0.400391 14.8096-1.49414Q15.8984-2.58789 16.5186-4.01367Q17.1387-5.43945 17.1387-7.05078Q17.1387-8.66211 16.5186-10.0879Q15.8984-11.5137 14.8047-12.6074Q13.7109-13.7012 12.2852-14.3164Q10.8594-14.9316 9.23828-14.9316Q7.62695-14.9316 6.20117-14.3164Q4.77539-13.7012 3.69141-12.6074Q2.60742-11.5137 1.9873-10.0879Q1.36719-8.66211 1.36719-7.05078Q1.36719-5.43945 1.9873-4.01367Q2.60742-2.58789 3.69629-1.49414Q4.78516-0.400391 6.21094 0.214844Q7.63672 0.830078 9.24805 0.830078ZM9.24805-0.654297Q7.91992-0.654297 6.7627-1.14746Q5.60547-1.64062 4.73145-2.51953Q3.85742-3.39844 3.36426-4.56055Q2.87109-5.72266 2.87109-7.05078Q2.87109-8.37891 3.35938-9.54102Q3.84766-10.7031 4.72168-11.582Q5.5957-12.4609 6.75293-12.9541Q7.91016-13.4473 9.23828-13.4473Q10.5762-13.4473 11.7334-12.9541Q12.8906-12.4609 13.7695-11.582Q14.6484-10.7031 15.1465-9.54102Q15.6445-8.37891 15.6445-7.05078Q15.6445-5.72266 15.1514-4.56055Q14.6582-3.39844 13.7842-2.51953Q12.9102-1.64062 11.748-1.14746Q10.5859-0.654297 9.24805-0.654297ZM5.83984-7.04102Q5.83984-6.71875 6.04492-6.51855Q6.25-6.31836 6.5918-6.31836L8.50586-6.31836L8.50586-4.39453Q8.50586-4.0625 8.70605-3.85742Q8.90625-3.65234 9.22852-3.65234Q9.56055-3.65234 9.76562-3.85742Q9.9707-4.0625 9.9707-4.39453L9.9707-6.31836L11.8945-6.31836Q12.2266-6.31836 12.4316-6.51855Q12.6367-6.71875 12.6367-7.04102Q12.6367-7.37305 12.4316-7.57812Q12.2266-7.7832 11.8945-7.7832L9.9707-7.7832L9.9707-9.69727Q9.9707-10.0391 9.76562-10.2441Q9.56055-10.4492 9.22852-10.4492Q8.90625-10.4492 8.70605-10.2441Q8.50586-10.0391 8.50586-9.69727L8.50586-7.7832L6.5918-7.7832Q6.25-7.7832 6.04492-7.57812Q5.83984-7.37305 5.83984-7.04102Z"/>
  </g>
  <g transform="matrix(1 0 0 1 281.867 1933)">
   <path d="M11.709 2.91016Q13.75 2.91016 15.5518 2.12891Q17.3535 1.34766 18.7305-0.0292969Q20.1074-1.40625 20.8887-3.20801Q21.6699-5.00977 21.6699-7.05078Q21.6699-9.0918 20.8887-10.8936Q20.1074-12.6953 18.7305-14.0723Q17.3535-15.4492 15.5469-16.2305Q13.7402-17.0117 11.6992-17.0117Q9.6582-17.0117 7.85645-16.2305Q6.05469-15.4492 4.68262-14.0723Q3.31055-12.6953 2.5293-10.8936Q1.74805-9.0918 1.74805-7.05078Q1.74805-5.00977 2.5293-3.20801Q3.31055-1.40625 4.6875-0.0292969Q6.06445 1.34766 7.86621 2.12891Q9.66797 2.91016 11.709 2.91016ZM11.709 1.25Q9.98047 1.25 8.47656 0.605469Q6.97266-0.0390625 5.83496-1.17676Q4.69727-2.31445 4.05762-3.81836Q3.41797-5.32227 3.41797-7.05078Q3.41797-8.7793 4.05762-10.2832Q4.69727-11.7871 5.83008-12.9297Q6.96289-14.0723 8.4668-14.7119Q9.9707-15.3516 11.6992-15.3516Q13.4277-15.3516 14.9316-14.7119Q16.4355-14.0723 17.5781-12.9297Q18.7207-11.7871 19.3652-10.2832Q20.0098-8.7793 20.0098-7.05078Q20.0098-5.32227 19.3701-3.81836Q18.7305-2.31445 17.5928-1.17676Q16.4551-0.0390625 14.9463 0.605469Q13.4375 1.25 11.709 1.25ZM7.39258-7.04102Q7.39258-6.68945 7.62695-6.46484Q7.86133-6.24023 8.23242-6.24023L10.8789-6.24023L10.8789-3.57422Q10.8789-3.21289 11.1035-2.9834Q11.3281-2.75391 11.6797-2.75391Q12.0508-2.75391 12.2852-2.9834Q12.5195-3.21289 12.5195-3.57422L12.5195-6.24023L15.1758-6.24023Q15.5371-6.24023 15.7715-6.46484Q16.0059-6.68945 16.0059-7.04102Q16.0059-7.41211 15.7715-7.6416Q15.5371-7.87109 15.1758-7.87109L12.5195-7.87109L12.5195-10.5176Q12.5195-10.8984 12.2852-11.1279Q12.0508-11.3574 11.6797-11.3574Q11.3281-11.3574 11.1035-11.1279Q10.8789-10.8984 10.8789-10.5176L10.8789-7.87109L8.23242-7.87109Q7.85156-7.87109 7.62207-7.6416Q7.39258-7.41211 7.39258-7.04102Z"/>
  </g>
  <g transform="matrix(1 0 0 1 305.646 1933)">
   <path d="M14.9707 5.66406Q17.0605 5.66406 18.96 5.01465Q20.8594 4.36523 22.4512 3.19336Q24.043 2.02148 25.2197 0.429688Q26.3965-1.16211 27.0459-3.06641Q27.6953-4.9707 27.6953-7.05078Q27.6953-9.14062 27.0459-11.04Q26.3965-12.9395 25.2197-14.5312Q24.043-16.123 22.4512-17.2998Q20.8594-18.4766 18.9551-19.126Q17.0508-19.7754 14.9609-19.7754Q12.8711-19.7754 10.9717-19.126Q9.07227-18.4766 7.48535-17.2998Q5.89844-16.123 4.72168-14.5312Q3.54492-12.9395 2.90039-11.04Q2.25586-9.14062 2.25586-7.05078Q2.25586-4.9707 2.90527-3.06641Q3.55469-1.16211 4.72656 0.429688Q5.89844 2.02148 7.49023 3.19336Q9.08203 4.36523 10.9814 5.01465Q12.8809 5.66406 14.9707 5.66406ZM14.9707 3.84766Q13.1641 3.84766 11.5283 3.2959Q9.89258 2.74414 8.53516 1.74805Q7.17773 0.751953 6.17676-0.610352Q5.17578-1.97266 4.62891-3.6084Q4.08203-5.24414 4.08203-7.05078Q4.08203-8.86719 4.62891-10.5029Q5.17578-12.1387 6.17188-13.501Q7.16797-14.8633 8.52539-15.8594Q9.88281-16.8555 11.5186-17.4023Q13.1543-17.9492 14.9609-17.9492Q16.7773-17.9492 18.4131-17.4023Q20.0488-16.8555 21.4111-15.8594Q22.7734-14.8633 23.7695-13.501Q24.7656-12.1387 25.3174-10.5029Q25.8691-8.86719 25.8691-7.05078Q25.8789-5.24414 25.332-3.6084Q24.7852-1.97266 23.7842-0.610352Q22.7832 0.751953 21.4209 1.74805Q20.0586 2.74414 18.4229 3.2959Q16.7871 3.84766 14.9707 3.84766ZM9.45312-7.04102Q9.45312-6.66016 9.71191-6.41113Q9.9707-6.16211 10.3711-6.16211L14.0625-6.16211L14.0625-2.46094Q14.0625-2.06055 14.3115-1.80664Q14.5605-1.55273 14.9414-1.55273Q15.3516-1.55273 15.6055-1.80664Q15.8594-2.06055 15.8594-2.46094L15.8594-6.16211L19.5605-6.16211Q19.9609-6.16211 20.2148-6.41113Q20.4688-6.66016 20.4688-7.04102Q20.4688-7.45117 20.2148-7.70508Q19.9609-7.95898 19.5605-7.95898L15.8594-7.95898L15.8594-11.6504Q15.8594-12.0605 15.6055-12.3145Q15.3516-12.5684 14.9414-12.5684Q14.5605-12.5684 14.3115-12.3096Q14.0625-12.0508 14.0625-11.6504L14.0625-7.95898L10.3711-7.95898Q9.96094-7.95898 9.70703-7.70508Q9.45312-7.45117 9.45312-7.04102Z"/>
  </g>
  <text style="stroke:none;fill:black;font-family:SF Pro,SF Pro Display,SF Pro Text,sans-serif;font-size:13;font-weight:bold;" transform="matrix(1 0 0 1 263 1953)">Design Variations</text>
  <text style="stroke:none;fill:black;font-family:SF Pro,SF Pro Display,SF Pro Text,sans-serif;font-size:13;" transform="matrix(1 0 0 1 263 1971)">Symbols are supported in up to nine weights and three scales.</text>
  <text style="stroke:none;fill:black;font-family:SF Pro,SF Pro Display,SF Pro Text,sans-serif;font-size:13;" transform="matrix(1 0 0 1 263 1989)">For optimal layout with text and other symbols, vertically align</text>
  <text style="stroke:none;fill:black;font-family:SF Pro,SF Pro Display,SF Pro Text,sans-serif;font-size:13;" transform="matrix(1 0 0 1 263 2007)">symbols with the adjacent text.</text>
  <line style="fill:none;stroke:#00AEEF;stroke-width:0.5;opacity:1.0;" x1="776" x2="776" y1="1919" y2="1933"/>
  <g transform="matrix(1 0 0 1 776 1933)">
   <path d="M3.31055 0.15625Q3.70117 0.15625 3.91602-0.00976562Q4.13086-0.175781 4.26758-0.585938L5.52734-4.0332L11.2891-4.0332L12.5488-0.585938Q12.6855-0.175781 12.9004-0.00976562Q13.1152 0.15625 13.4961 0.15625Q13.8867 0.15625 14.1162-0.0585938Q14.3457-0.273438 14.3457-0.644531Q14.3457-0.869141 14.2383-1.17188L9.6582-13.3691Q9.48242-13.8184 9.17969-14.043Q8.87695-14.2676 8.4082-14.2676Q7.5-14.2676 7.17773-13.3789L2.59766-1.16211Q2.49023-0.859375 2.49023-0.634766Q2.49023-0.263672 2.70996-0.0537109Q2.92969 0.15625 3.31055 0.15625ZM6.00586-5.51758L8.37891-12.0898L8.42773-12.0898L10.8008-5.51758Z"/>
  </g>
  <line style="fill:none;stroke:#00AEEF;stroke-width:0.5;opacity:1.0;" x1="793.197" x2="793.197" y1="1919" y2="1933"/>
  <text style="stroke:none;fill:black;font-family:SF Pro,SF Pro Display,SF Pro Text,sans-serif;font-size:13;font-weight:bold;" transform="matrix(1 0 0 1 776 1953)">Margins</text>
  <text style="stroke:none;fill:black;font-family:SF Pro,SF Pro Display,SF Pro Text,sans-serif;font-size:13;" transform="matrix(1 0 0 1 776 1971)">Leading and trailing margins on the left and right side of each symbol</text>
  <text style="stroke:none;fill:black;font-family:SF Pro,SF Pro Display,SF Pro Text,sans-serif;font-size:13;" transform="matrix(1 0 0 1 776 1989)">can be adjusted by modifying the x-location of the margin guidelines.</text>
  <text style="stroke:none;fill:black;font-family:SF Pro,SF Pro Display,SF Pro Text,sans-serif;font-size:13;" transform="matrix(1 0 0 1 776 2007)">Modifications are automatically applied proportionally to all</text>
  <text style="stroke:none;fill:black;font-family:SF Pro,SF Pro Display,SF Pro Text,sans-serif;font-size:13;" transform="matrix(1 0 0 1 776 2025)">scales and weights.</text>
  <g transform="matrix(1 0 0 1 1289 1933)">
   <path d="M2.8418 1.86523L4.54102 3.57422Q5.18555 4.22852 5.90332 4.17969Q6.62109 4.13086 7.31445 3.35938L18.0078-8.42773L17.041-9.4043L6.42578 2.27539Q6.16211 2.57812 5.89355 2.61719Q5.625 2.65625 5.27344 2.30469L4.10156 1.14258Q3.75 0.791016 3.79395 0.522461Q3.83789 0.253906 4.14062-0.0195312L15.6152-10.8203L14.6387-11.7871L3.04688-0.898438Q2.30469-0.214844 2.25098 0.498047Q2.19727 1.21094 2.8418 1.86523ZM9.25781-16.3281Q8.94531-16.0254 8.90625-15.6348Q8.86719-15.2441 9.04297-14.9512Q9.21875-14.6777 9.55566-14.541Q9.89258-14.4043 10.3809-14.5215Q11.4746-14.7754 12.5977-14.7314Q13.7207-14.6875 14.7949-13.9844L14.209-12.5293Q13.9551-11.9043 14.0674-11.4404Q14.1797-10.9766 14.5801-10.5664L16.875-8.25195Q17.2363-7.88086 17.5781-7.82227Q17.9199-7.76367 18.3398-7.8418L19.4043-8.03711L20.0684-7.36328L20.0293-6.80664Q20-6.43555 20.1221-6.12305Q20.2441-5.81055 20.6055-5.44922L21.3672-4.70703Q21.7285-4.3457 22.1533-4.33105Q22.5781-4.31641 22.9297-4.66797L25.8398-7.58789Q26.1914-7.93945 26.1816-8.35449Q26.1719-8.76953 25.8105-9.13086L25.0391-9.89258Q24.6875-10.2539 24.3799-10.3857Q24.0723-10.5176 23.7109-10.4883L23.1348-10.4395L22.4902-11.0742L22.7344-12.1973Q22.832-12.6172 22.6953-12.9834Q22.5586-13.3496 22.1191-13.7891L19.9219-15.9766Q18.6719-17.2168 17.2607-17.8369Q15.8496-18.457 14.4189-18.4814Q12.9883-18.5059 11.665-17.959Q10.3418-17.4121 9.25781-16.3281ZM10.752-15.957Q11.6602-16.6211 12.7002-16.9043Q13.7402-17.1875 14.8047-17.085Q15.8691-16.9824 16.8701-16.5137Q17.8711-16.0449 18.7012-15.2051L21.1328-12.793Q21.3086-12.6172 21.3525-12.4512Q21.3965-12.2852 21.3379-12.0312L21.0156-10.5469L22.5195-9.0625L23.5059-9.12109Q23.6914-9.13086 23.7891-9.09668Q23.8867-9.0625 24.0332-8.91602L24.6094-8.33984L22.168-5.89844L21.5918-6.47461Q21.4453-6.62109 21.4062-6.71875Q21.3672-6.81641 21.377-7.01172L21.4453-7.98828L19.9512-9.47266L18.4277-9.21875Q18.1836-9.16992 18.042-9.2041Q17.9004-9.23828 17.7148-9.41406L15.7129-11.416Q15.5176-11.5918 15.4932-11.7529Q15.4688-11.9141 15.5859-12.1875L16.4648-14.2773Q15.293-15.3711 13.8281-15.791Q12.3633-16.2109 10.8398-15.7617Q10.7227-15.7324 10.6885-15.8057Q10.6543-15.8789 10.752-15.957Z"/>
  </g>
  <text style="stroke:none;fill:black;font-family:SF Pro,SF Pro Display,SF Pro Text,sans-serif;font-size:13;font-weight:bold;" transform="matrix(1 0 0 1 1289 1953)">Exporting</text>
  <text style="stroke:none;fill:black;font-family:SF Pro,SF Pro Display,SF Pro Text,sans-serif;font-size:13;" transform="matrix(1 0 0 1 1289 1971)">Symbols should be outlined when exporting to ensure the</text>
  <text style="stroke:none;fill:black;font-family:SF Pro,SF Pro Display,SF Pro Text,sans-serif;font-size:13;" transform="matrix(1 0 0 1 1289 1989)">design is preserved when submitting to Xcode.</text>
  <text id="template-version" style="stroke:none;fill:black;font-family:SF Pro,SF Pro Display,SF Pro Text,sans-serif;font-size:13;text-anchor:end;" transform="matrix(1 0 0 1 3036 1933)">Template v.3.0</text>
  <text style="stroke:none;fill:black;font-family:SF Pro,SF Pro Display,SF Pro Text,sans-serif;font-size:13;text-anchor:end;" transform="matrix(1 0 0 1 3036 1951)">Requires Xcode 13 or greater</text>
  <text id="descriptive-name" style="stroke:none;fill:black;font-family:SF Pro,SF Pro Display,SF Pro Text,sans-serif;font-size:13;text-anchor:end;" transform="matrix(1 0 0 1 3036 1969)">Generated from arrowshape.turn.up.forward.tv.fill</text>
  <text style="stroke:none;fill:black;font-family:SF Pro,SF Pro Display,SF Pro Text,sans-serif;font-size:13;text-anchor:end;" transform="matrix(1 0 0 1 3036 1987)">Typeset at 100 points</text>
  <text style="stroke:none;fill:black;font-family:SF Pro,SF Pro Display,SF Pro Text,sans-serif;font-size:13;" transform="matrix(1 0 0 1 263 726)">Small</text>
  <text style="stroke:none;fill:black;font-family:SF Pro,SF Pro Display,SF Pro Text,sans-serif;font-size:13;" transform="matrix(1 0 0 1 263 1156)">Medium</text>
  <text style="stroke:none;fill:black;font-family:SF Pro,SF Pro Display,SF Pro Text,sans-serif;font-size:13;" transform="matrix(1 0 0 1 263 1586)">Large</text>
 </g>
 <g id="Guides">
  <g id="H-reference" style="fill:#27AAE1;stroke:none;" transform="matrix(1 0 0 1 339 696)">
   <path d="M0.993347 0L3.6377 0L29.3282-67.1326L30.0301-67.1326L30.0301-70.459L28.1227-70.459ZM11.6882-24.4797L46.9818-24.4797L46.2311-26.7288L12.4382-26.7288ZM55.1193 0L57.7637 0L30.6381-70.459L29.4327-70.459L29.4327-67.1326Z"/>
  </g>
  <line id="Baseline-S" style="fill:none;stroke:#27AAE1;opacity:1;stroke-width:0.5;" x1="263" x2="3036" y1="696" y2="696"/>
  <line id="Capline-S" style="fill:none;stroke:#27AAE1;opacity:1;stroke-width:0.5;" x1="263" x2="3036" y1="625.541" y2="625.541"/>
  <g id="H-reference" style="fill:#27AAE1;stroke:none;" transform="matrix(1 0 0 1 339 1126)">
   <path d="M0.993347 0L3.6377 0L29.3282-67.1326L30.0301-67.1326L30.0301-70.459L28.1227-70.459ZM11.6882-24.4797L46.9818-24.4797L46.2311-26.7288L12.4382-26.7288ZM55.1193 0L57.7637 0L30.6381-70.459L29.4327-70.459L29.4327-67.1326Z"/>
  </g>
  <line id="Baseline-M" style="fill:none;stroke:#27AAE1;opacity:1;stroke-width:0.5;" x1="263" x2="3036" y1="1126" y2="1126"/>
  <line id="Capline-M" style="fill:none;stroke:#27AAE1;opacity:1;stroke-width:0.5;" x1="263" x2="3036" y1="1055.54" y2="1055.54"/>
  <g id="H-reference" style="fill:#27AAE1;stroke:none;" transform="matrix(1 0 0 1 339 1556)">
   <path d="M0.993347 0L3.6377 0L29.3282-67.1326L30.0301-67.1326L30.0301-70.459L28.1227-70.459ZM11.6882-24.4797L46.9818-24.4797L46.2311-26.7288L12.4382-26.7288ZM55.1193 0L57.7637 0L30.6381-70.459L29.4327-70.459L29.4327-67.1326Z"/>
  </g>
  <line id="Baseline-L" style="fill:none;stroke:#27AAE1;opacity:1;stroke-width:0.5;" x1="263" x2="3036" y1="1556" y2="1556"/>
  <line id="Capline-L" style="fill:none;stroke:#27AAE1;opacity:1;stroke-width:0.5;" x1="263" x2="3036" y1="1485.54" y2="1485.54"/>
  <line id="left-margin-Regular-M" style="fill:none;stroke:#00AEEF;stroke-width:0.5;opacity:1.0;" x1="1376.18" x2="1376.18" y1="1030.78" y2="1150.12"/>
  <line id="right-margin-Regular-M" style="fill:none;stroke:#00AEEF;stroke-width:0.5;opacity:1.0;" x1="1523.51" x2="1523.51" y1="1030.78" y2="1150.12"/>
 </g>
 <g id="Symbols">
  <g id="Black-L" transform="matrix(1 0 0 1 2835.61 1556)">
   <path d="M161.355-105.561C175.035-105.561 182.829-97.9992 182.983-84.3453L182.985-83.9297L182.985-10.0039C182.985 3.72461 175.329 11.4711 161.768 11.6247L161.355 11.627L34.4508 11.627C20.7707 11.627 12.9769 4.01778 12.8223-9.58972L12.82-10.0039L12.82-83.9297C12.82-97.7065 20.477-105.406 34.0381-105.559L34.4508-105.561L161.355-105.561ZM99.8148-78.561C96.2773-78.561 93.5618-75.7893 93.5618-72.2435L93.5618-62.9296L93.238-62.9296C73.5323-62.9296 62.82-49.995 62.82-28.0711C62.82-20.0806 65.0123-16.1603 68.9235-16.1603C71.5891-16.1603 73.6071-17.284 75.3011-20.555C78.6826-26.5479 83.5826-30.8014 92.7748-30.9392L93.5618-30.9427L93.5618-21.7786C93.5618-18.2578 96.2773-15.561 99.7899-15.561C102.082-15.561 103.851-16.435 106.043-18.4825L131.777-42.3291C133.098-43.5777 133.82-45.5003 133.82-47.0485C133.82-48.7215 133.123-50.4944 131.827-51.7429L106.043-75.5646C103.651-77.7369 102.007-78.561 99.8148-78.561ZM63.7477 36.334L132.107 36.334C136.55 36.334 140.114 32.5742 140.114 28.375C140.114 24.1758 136.55 20.416 132.107 20.416L63.7477 20.416C59.2555 20.416 55.7399 24.1758 55.7399 28.375C55.7399 32.5742 59.2555 36.334 63.7477 36.334Z"/>
  </g>
  <g id="Heavy-L" transform="matrix(1 0 0 1 2540.73 1556)">
   <path d="M159.206-103.461C172.012-103.461 179.173-96.5276 179.321-83.7019L179.323-83.2949L179.323-9.71094C179.323 3.19037 172.295 10.2581 159.609 10.4039L159.206 10.4062L32.9371 10.4062C20.1325 10.4062 12.9702 3.4729 12.8223-9.30547L12.82-9.71094L12.82-83.2949C12.82-96.2446 19.8489-103.313 32.5346-103.459L32.9371-103.461L159.206-103.461ZM98.309-78.461C95.0026-78.461 92.5228-75.8793 92.5228-72.6006L92.5228-62.1705L92.0062-62.1705C70.9276-62.1705 59.82-48.5393 59.82-25.2783C59.82-18.3852 61.9124-14.9257 65.3996-14.9257C67.8278-14.9257 69.7393-15.9068 71.315-18.9531C75.3189-26.3109 81.286-30.5449 92.0062-30.5449L92.5228-30.5449L92.5228-20.2182C92.5228-16.9394 95.0026-14.461 98.2832-14.461C100.453-14.461 102.132-15.313 104.199-17.2234L130.78-41.9043C132.148-43.1693 132.82-44.9765 132.82-46.4481C132.82-48.0229 132.174-49.7268 130.805-51.0177L104.199-75.5953C101.951-77.6607 100.401-78.461 98.309-78.461ZM62.6246 33.9902L129.519 33.9902C133.523 33.9902 136.696 30.6699 136.696 26.9102C136.696 23.1016 133.523 19.7812 129.519 19.7812L62.6246 19.7812C58.6696 19.7812 55.4957 23.1016 55.4957 26.9102C55.4957 30.6699 58.6696 33.9902 62.6246 33.9902Z"/>
  </g>
  <g id="Bold-L" transform="matrix(1 0 0 1 2246.07 1556)">
   <path d="M156.765-101.068C168.645-101.068 175.08-94.8594 175.22-83.0084L175.222-82.6113L175.222-9.41797C175.222 2.55834 168.917 8.89885 157.159 9.03676L156.765 9.03906L31.277 9.03906C19.4456 9.03906 12.9634 2.83015 12.8224-9.02085L12.82-9.41797L12.82-82.6113C12.82-94.5876 19.1722-100.928 30.8846-101.066L31.277-101.068L156.765-101.068ZM96.9202-78.068C93.8912-78.068 91.6932-75.7399 91.6932-72.7696L91.6932-61.0219L90.9427-61.0219C68.3461-61.0219 56.82-46.625 56.82-21.8453C56.82-16.2525 58.75-13.3892 61.6985-13.3892C63.7714-13.3892 65.4937-14.1393 66.9137-16.6791L67.0595-16.9482C71.6833-25.7056 78.6251-29.8349 90.4265-29.951L91.6932-29.9536L91.6932-18.2595C91.6932-15.2891 93.8912-13.068 96.8666-13.068C98.877-13.068 100.458-13.8708 102.362-15.637L129.837-41.2195C131.23-42.5575 131.82-44.1899 131.82-45.5814C131.82-47.0264 131.257-48.5785 129.837-49.9165L102.362-75.392C100.271-77.292 98.8501-78.068 96.9202-78.068ZM61.4039 31.4023L126.687 31.4023C130.105 31.4023 132.839 28.5215 132.839 25.25C132.839 21.9297 130.105 19.0488 126.687 19.0488L61.4039 19.0488C57.9371 19.0488 55.2028 21.9297 55.2028 25.25C55.2028 28.5215 57.9371 31.4023 61.4039 31.4023Z"/>
  </g>
  <g id="Semibold-L" transform="matrix(1 0 0 1 1950.78 1556)">
   <path d="M155.105-99.4082C166.305-99.4082 172.254-93.729 172.388-82.512L172.39-82.123L172.39-9.22266C172.39 2.12156 166.568 7.97744 155.49 8.10906L155.105 8.11133L30.1051 8.11133C18.9057 8.11133 12.9561 2.38436 12.8223-8.83366L12.82-9.22266L12.82-82.123C12.82-93.4673 18.6424-99.2754 29.721-99.4059L30.1051-99.4082L155.105-99.4082ZM95.2876-78.4082C92.5628-78.4082 90.5933-76.2642 90.5933-73.5773L90.5933-61.0115L89.7031-61.0115C66.4477-61.0115 54.82-46.2203 54.82-20.6003C54.82-16.0136 56.6275-13.6253 59.1365-13.6253C61.025-13.6253 62.6437-14.2767 63.9657-16.8007C69.0241-26.5496 76.6048-30.5632 89.1967-30.6671L90.5933-30.6692L90.5933-18.1034C90.5933-15.4437 92.5628-13.4082 95.2336-13.4082C97.0951-13.4082 98.579-14.1952 100.306-15.8236L127.877-41.7694C129.307-43.0992 129.82-44.6191 129.82-45.9218C129.82-47.2516 129.334-48.7172 127.904-50.0742L100.306-75.8842C98.3901-77.6754 97.0951-78.4082 95.2876-78.4082ZM60.525 29.5957L124.685 29.5957C127.761 29.5957 130.202 27.0566 130.202 24.0781C130.202 21.0996 127.761 18.5605 124.685 18.5605L60.525 18.5605C57.4977 18.5605 55.0075 21.0996 55.0075 24.0781C55.0075 27.0566 57.4977 29.5957 60.525 29.5957Z"/>
  </g>
  <g id="Medium-L" transform="matrix(1 0 0 1 1655.14 1556)">
   <path d="M153.835-98.1875C164.548-98.1875 170.11-92.8944 170.239-82.1666L170.241-81.7812L170.241-9.02734C170.241 1.82973 164.806 7.25061 154.216 7.37666L153.835 7.37891L29.2262 7.37891C18.5622 7.37891 12.9528 2.08576 12.8223-8.6419L12.82-9.02734L12.82-81.7812C12.82-92.6383 18.3039-98.0592 28.8475-98.1852L29.2262-98.1875L153.835-98.1875ZM95.1046-78.1875C92.5483-78.1875 90.7617-76.1846 90.7617-73.7151L90.7617-60.4902L89.7447-60.4902C65.6666-60.4902 53.82-45.372 53.82-19.1415C53.82-15.3276 55.5242-13.2972 57.7231-13.2972C59.4273-13.2972 60.994-13.846 62.2034-16.1782C67.6336-26.6942 75.8531-30.6242 89.2463-30.7185L90.7617-30.7202L90.7617-17.4952C90.7617-15.0258 92.5483-13.1875 95.077-13.1875C96.8087-13.1875 98.2105-13.9009 99.8872-15.4374L127.896-41.6679C129.353-43.0398 129.82-44.4665 129.82-45.6738C129.82-46.9359 129.38-48.3078 127.896-49.7071L99.8872-75.773C98.0731-77.4467 96.8362-78.1875 95.1046-78.1875ZM59.8903 28.1797L123.171 28.1797C125.954 28.1797 128.2 25.9336 128.2 23.248C128.2 20.4648 125.954 18.2188 123.171 18.2188L59.8903 18.2188C57.1071 18.2188 54.861 20.4648 54.861 23.248C54.861 25.9336 57.1071 28.1797 59.8903 28.1797Z"/>
  </g>
  <g id="Regular-L" transform="matrix(1 0 0 1 1359.82 1556)">
   <path d="M152.175-96.5273C162.206-96.5273 167.331-91.7643 167.456-81.6739L167.458-81.293L167.458-8.83203C167.458 1.39173 162.457 6.32858 152.549 6.44891L152.175 6.45117L28.1032 6.45117C18.0723 6.45117 12.9474 1.64055 12.8223-8.45112L12.82-8.83203L12.82-81.293C12.82-91.5167 17.8211-96.4059 27.7293-96.5251L28.1032-96.5273L152.175-96.5273ZM93.5951-78.5273C91.2676-78.5273 89.6781-76.69 89.6781-74.457L89.6781-60.183L88.486-60.183C63.082-60.183 50.82-44.4108 50.82-16.8802C50.82-14.0819 52.4379-12.5273 54.2545-12.5273C55.7021-12.5273 57.1781-12.923 58.2851-15.0712C64.0833-26.3761 72.778-30.3668 86.4924-30.7062L87.4806-30.7243L87.4806-30.7243L88.486-30.7303L88.486-30.7303L89.6781-30.7303L89.6781-16.3996C89.6781-14.1667 91.2676-12.5273 93.5384-12.5273C95.1563-12.5273 96.4904-13.2057 98.0231-14.6472L126.89-41.6691C128.394-43.0823 128.82-44.3825 128.82-45.5131C128.82-46.7003 128.394-47.9723 126.89-49.4138L98.0231-76.2378C96.3485-77.7924 95.213-78.5273 93.5951-78.5273ZM59.0602 26.4219L121.218 26.4219C123.659 26.4219 125.612 24.4688 125.612 22.0762C125.612 19.6348 123.659 17.7305 121.218 17.7305L59.0602 17.7305C56.6188 17.7305 54.6657 19.6348 54.6657 22.0762C54.6657 24.4688 56.6188 26.4219 59.0602 26.4219Z"/>
  </g>
  <g id="Light-L" transform="matrix(1 0 0 1 1064.97 1556)">
   <path d="M149.734-94.5254C158.936-94.5254 163.622-90.0571 163.745-80.8861L163.747-80.5117L163.747-7.70898C163.747 1.58919 159.185 6.1339 150.105 6.25344L149.734 6.25586L26.8336 6.25586C17.6318 6.25586 12.9458 1.83513 12.8225-7.33463L12.82-7.70898L12.82-80.5117C12.82-89.8098 17.3833-94.4021 26.463-94.523L26.8336-94.5254L149.734-94.5254ZM91.4925-75.5254C89.5466-75.5254 88.3132-74.0136 88.3132-72.1445L88.3132-57.6039L86.9702-57.6039C63.674-57.6039 50.82-43.5856 50.82-16.0987C50.82-13.8447 52.1356-12.5254 53.643-12.5254C54.9311-12.5254 56.0548-12.9927 56.9592-14.8068C61.8309-25.0472 69.8169-29.3509 82.464-30.1241L83.4336-30.1761C83.5967-30.1836 83.7605-30.1906 83.9251-30.197L84.9218-30.2291C85.2571-30.2376 85.5954-30.2439 85.9368-30.2481L86.9702-30.2544L86.9702-30.2544L88.3132-30.2544L88.3132-15.7963C88.3132-13.9547 89.5466-12.5254 91.4376-12.5254C92.808-12.5254 93.9043-13.1576 95.0829-14.257L122.901-40.3421C124.464-41.8539 124.82-42.9809 124.82-44.0254C124.82-45.0974 124.491-46.2244 122.901-47.7361L95.0829-73.7113C93.8221-74.8932 92.8355-75.5254 91.4925-75.5254ZM57.8883 24.4199L118.728 24.4199C120.583 24.4199 122.048 22.9551 122.048 21.0996C122.048 19.1953 120.583 17.7305 118.728 17.7305L57.8883 17.7305C56.0328 17.7305 54.5192 19.1953 54.5192 21.0996C54.5192 22.9551 56.0328 24.4199 57.8883 24.4199Z"/>
  </g>
  <g id="Thin-L" transform="matrix(1 0 0 1 770.697 1556)">
   <path d="M146.511-91.8398C154.714-91.8398 158.864-87.7383 158.864-79.5352L158.864-79.5352L158.864-6.29297C158.864 1.91016 154.714 6.06055 146.511 6.06055L146.511 6.06055L25.1735 6.06055C16.9703 6.06055 12.82 1.91016 12.82-6.29297L12.82-6.29297L12.82-79.5352C12.82-87.7383 16.9703-91.8398 25.1735-91.8398L25.1735-91.8398ZM89.9534-72.8398C88.4193-72.8398 87.6119-71.6854 87.6119-70.2626L87.6119-55.1753L86.0777-55.1753C64.7616-55.1753 50.82-43.229 50.82-15.4438C50.82-13.8331 51.7889-12.8398 53-12.8398C54.1035-12.8398 54.8302-13.3498 55.4761-14.7995C60.24-25.8062 69.8484-30.1552 86.0777-30.1552L87.6119-30.1552L87.6119-15.3902C87.6119-13.9673 88.4193-12.8398 89.9265-12.8398C90.9761-12.8398 91.8374-13.3767 92.6179-14.1015L119.801-39.3096C121.551-40.9471 121.82-41.8868 121.82-42.8264C121.82-43.7928 121.578-44.7056 119.801-46.3431L92.6179-71.5512C91.8374-72.276 91.0031-72.8398 89.9534-72.8398ZM56.3258 21.7344L115.359 21.7344C116.53 21.7344 117.409 20.9043 117.409 19.7812C117.409 18.6094 116.53 17.7793 115.359 17.7793L56.3258 17.7793C55.2028 17.7793 54.275 18.6094 54.275 19.7812C54.275 20.9043 55.2028 21.7344 56.3258 21.7344Z"/>
  </g>
  <g id="Ultralight-L" transform="matrix(1 0 0 1 475.231 1556)">
   <path d="M144.9-90.4727C152.35-90.4727 156.252-86.6875 156.372-79.3501L156.374-78.998L156.374-5.56055C156.374 1.89137 152.588 5.84034 145.247 5.96008L144.9 5.96289L24.2946 5.96289C16.8426 5.96289 12.9411 2.12857 12.8228-5.21381L12.82-5.56055L12.82-78.998C12.82-86.4481 16.6051-90.3497 23.9425-90.4698L24.2946-90.4727L144.9-90.4727ZM88.4464-71.4727C87.1302-71.4727 86.5123-70.5099 86.5123-69.2796L86.5123-53.8209L84.8738-53.8209C64.4325-53.8209 49.82-42.8018 49.82-14.6391C49.82-13.3285 50.599-12.4727 51.7003-12.4727C52.721-12.4727 53.2314-13.0344 53.7686-14.3181C57.7375-24.0072 65.9842-28.6743 79.5883-29.5831L80.6058-29.6435C81.9756-29.715 83.3979-29.7501 84.8738-29.7501L86.5123-29.7501L86.5123-14.6925C86.5123-13.4623 87.1302-12.4727 88.4464-12.4727C89.2894-12.4727 89.9951-12.9057 90.5423-13.393L117.752-38.5226C119.508-40.1684 119.799-40.9983 119.819-41.8681L119.819-42.0735L119.819-42.0735L119.811-42.2742C119.757-43.0775 119.423-43.9043 117.752-45.4496L90.6758-70.4564C90.1117-70.9646 89.3596-71.4727 88.4464-71.4727ZM55.5446 20.3672L113.65 20.3672C114.431 20.3672 115.017 19.8789 115.017 19.0977C115.017 18.3164 114.431 17.8281 113.65 17.8281L55.5446 17.8281C54.7633 17.8281 54.1774 18.3164 54.1774 19.0977C54.1774 19.8789 54.7633 20.3672 55.5446 20.3672Z"/>
  </g>
  <g id="Black-M" transform="matrix(1 0 0 1 2853.27 1126)">
   <path d="M129.568-91.498C140.818-91.498 147.532-84.9087 147.68-73.7603L147.683-73.3828L147.683-15.4238C147.683-4.17329 141.094 2.5411 129.945 2.68892L129.568 2.69141L30.9352 2.69141C19.6847 2.69141 12.9703-3.89797 12.8225-15.0463L12.82-15.4238L12.82-73.3828C12.82-84.6334 19.4094-91.3477 30.5577-91.4955L30.9352-91.498L129.568-91.498ZM80.3598-67.498C77.4735-67.498 75.2208-65.2329 75.2208-62.3308L75.2208-56.1727L75.127-56.1727C62.08-56.1727 53.82-47.6315 53.82-31.9413C53.82-30.7521 53.8659-29.6621 53.9577-28.6707L54.0258-28.0244C54.5747-23.3916 56.2229-21.1114 58.9825-21.1114C61.3056-21.1114 62.8544-22.1968 64.2154-24.8865L64.4295-25.2596L64.4295-25.2596L64.6558-25.6358C64.6945-25.6987 64.7338-25.7616 64.7737-25.8246L65.0197-26.2026C65.0618-26.2656 65.1046-26.3286 65.1479-26.3915L65.4155-26.7679L65.4155-26.7679L65.6985-27.1412C67.4933-29.4304 70.2174-31.4545 74.755-31.5595L75.2208-31.5638L75.2208-25.6652C75.2208-22.7395 77.4735-20.498 80.3598-20.498C82.1209-20.498 83.4585-21.1368 85.0565-22.5763L104.201-40.1757C105.21-41.1431 105.82-42.7239 105.82-43.998C105.82-45.3665 105.234-46.8293 104.224-47.7967L85.3111-65.1857C83.4573-66.8846 82.0963-67.498 80.3598-67.498ZM53.152 22.3691L107.351 22.3691C111.16 22.3691 114.187 19.0977 114.187 15.582C114.187 12.0664 111.16 8.79492 107.351 8.79492L53.152 8.79492C49.3434 8.79492 46.3161 12.0664 46.3161 15.582C46.3161 19.0977 49.3434 22.3691 53.152 22.3691Z"/>
  </g>
  <g id="Heavy-M" transform="matrix(1 0 0 1 2558.07 1126)">
   <path d="M127.81-89.6914C138.379-89.6914 144.512-83.729 144.653-73.2657L144.656-72.8945L144.656-15.4238C144.656-4.80655 138.646 1.27931 128.181 1.41941L127.81 1.42188L29.6168 1.42188C19.0478 1.42188 12.9626-4.54052 12.8225-15.051L12.82-15.4238L12.82-72.8945C12.82-83.4636 18.7824-89.5488 29.2456-89.6889L29.6168-89.6914L127.81-89.6914ZM79.8745-67.6914C77.1524-67.6914 75.068-65.6034 75.068-62.8766L75.068-55.8019L74.8228-55.8019C60.256-55.8019 51.82-46.3444 51.82-29.5665C51.82-23.2779 53.4876-20.1827 56.553-20.1827C58.6374-20.1827 60.1579-21.0916 61.4331-23.6218C61.5666-23.8634 61.7042-24.102 61.8463-24.3374L62.1365-24.8036C64.5569-28.5728 68.236-31.3843 74.8228-31.3843L75.068-31.3843L75.068-24.4816C75.068-21.7549 77.1524-19.6914 79.85-19.6914C81.5274-19.6914 82.8064-20.29 84.3388-21.6767L104.226-40.0312C105.281-41.0138 105.82-42.4877 105.82-43.6914C105.82-44.9687 105.305-46.3444 104.251-47.327L84.583-65.456C82.7928-67.1018 81.5176-67.6914 79.8745-67.6914ZM52.2243 20.3184L105.203 20.3184C108.67 20.3184 111.355 17.4375 111.355 14.2148C111.355 11.041 108.67 8.11133 105.203 8.11133L52.2243 8.11133C48.8063 8.11133 46.0719 11.041 46.0719 14.2148C46.0719 17.4375 48.8063 20.3184 52.2243 20.3184Z"/>
  </g>
  <g id="Bold-M" transform="matrix(1 0 0 1 2263.07 1126)">
   <path d="M125.906-87.6895C135.646-87.6895 141.1-82.4518 141.235-72.7288L141.238-72.3574L141.238-15.375C141.238-5.53857 135.905-0.177963 126.274-0.0454852L125.906-0.042969L28.152-0.042969C18.412-0.042969 12.9574-5.28062 12.8226-15.0036L12.82-15.375L12.82-72.3574C12.82-82.1939 18.1528-87.5545 27.7842-87.687L28.152-87.6895L125.906-87.6895ZM78.9627-68.6895C76.4334-68.6895 74.556-66.7292 74.556-64.2201L74.556-55.8824L74.1127-55.8824C57.503-55.8824 48.82-45.1401 48.82-26.792C48.82-21.6168 50.4106-19.0293 53.0181-19.0293C54.8694-19.0293 56.3296-19.7611 57.529-22.0873C60.7884-28.0727 65.5862-31.3398 74.1127-31.3398L74.556-31.3398L74.556-23.0805C74.556-20.5714 76.4334-18.6895 78.9366-18.6895C80.6054-18.6895 81.8831-19.3429 83.4737-20.8066L104.255-40.1741C105.324-41.1673 105.82-42.5526 105.82-43.6764C105.82-44.8787 105.351-46.1856 104.281-47.2049L83.4737-66.494C81.7528-68.0883 80.5533-68.6895 78.9627-68.6895ZM51.2477 18.0723L102.81 18.0723C105.838 18.0723 108.23 15.5332 108.23 12.7012C108.23 9.82031 105.838 7.33008 102.81 7.33008L51.2477 7.33008C48.2204 7.33008 45.8278 9.82031 45.8278 12.7012C45.8278 15.5332 48.2204 18.0723 51.2477 18.0723Z"/>
  </g>
  <g id="Semibold-M" transform="matrix(1 0 0 1 1967.53 1126)">
   <path d="M124.539-86.2734C133.74-86.2734 138.759-81.5199 138.891-72.3413L138.894-71.9668L138.894-15.375C138.894-6.02698 133.996-1.14882 124.905-1.02207L124.539-1.01953L27.1266-1.01953C17.9247-1.01953 12.9536-5.773 12.8227-14.9985L12.82-15.375L12.82-71.9668C12.82-81.2649 17.6685-86.1424 26.7559-86.2708L27.1266-86.2734L124.539-86.2734ZM78.4223-69.2734C76.0623-69.2734 74.3262-67.4336 74.3262-65.1339L74.3262-55.9079L73.7566-55.9079C55.6632-55.9079 46.82-44.301 46.82-24.9291C46.82-20.6814 48.3662-18.5169 50.6177-18.5169C52.185-18.5169 53.5762-19.0438 54.6945-21.0155L54.8223-21.2495C58.6111-28.3017 64.1058-31.4276 73.2941-31.5282L74.3262-31.5307L74.3262-22.3317C74.3262-20.032 76.0623-18.2734 78.3952-18.2734C79.9685-18.2734 81.2164-18.9227 82.7355-20.3296L104.274-40.405C105.359-41.4331 105.82-42.7047 105.82-43.7869C105.82-44.8962 105.386-46.1137 104.301-47.1418L82.7355-67.109C81.0807-68.6511 79.9685-69.2734 78.4223-69.2734ZM50.5153 16.5098L101.15 16.5098C103.885 16.5098 106.033 14.2637 106.033 11.6758C106.033 9.03906 103.885 6.79297 101.15 6.79297L50.5153 6.79297C47.8297 6.79297 45.6813 9.03906 45.6813 11.6758C45.6813 14.2637 47.8297 16.5098 50.5153 16.5098Z"/>
  </g>
  <g id="Medium-M" transform="matrix(1 0 0 1 1671.72 1126)">
   <path d="M123.562-85.1992C132.325-85.1992 136.958-80.8309 137.085-72.0476L137.088-71.6738L137.088-15.3262C137.088-6.41843 132.577-1.92644 123.93-1.80338L123.562-1.80078L26.3454-1.80078C17.582-1.80078 12.9497-6.16905 12.8227-14.9524L12.82-15.3262L12.82-71.6738C12.82-80.5815 17.3306-85.0735 25.9776-85.1966L26.3454-85.1992L123.562-85.1992ZM77.7295-69.1992C75.5513-69.1992 73.9994-67.501 73.9994-65.3646L73.9994-55.6138L73.3188-55.6138C54.5325-55.6138 45.82-43.4801 45.82-23.595C45.82-20.1165 47.2902-18.3088 49.1961-18.3088C50.6391-18.3088 51.9732-18.7744 53.035-20.7739C57.2428-28.6467 63.1918-31.6096 72.8557-31.7003L73.9994-31.7024L73.9994-21.8968C73.9994-19.7604 75.5513-18.1992 77.675-18.1992C79.1724-18.1992 80.3432-18.7744 81.7862-20.1439L103.35-40.4946C104.411-41.508 104.82-42.6858 104.82-43.6992C104.82-44.74 104.411-45.8904 103.35-46.9038L81.7862-67.1176C80.207-68.5966 79.1724-69.1992 77.7295-69.1992ZM49.9782 15.2891L99.9293 15.2891C102.371 15.2891 104.373 13.2871 104.373 10.8457C104.373 8.4043 102.371 6.35352 99.9293 6.35352L49.9782 6.35352C47.5368 6.35352 45.5348 8.4043 45.5348 10.8457C45.5348 13.2871 47.5368 15.2891 49.9782 15.2891Z"/>
  </g>
  <g id="Regular-M" transform="matrix(1 0 0 1 1376.18 1126)">
   <path d="M122.244-83.832C130.473-83.832 134.623-79.9433 134.741-71.6519L134.744-71.2832L134.744-15.3262C134.744-6.90509 130.713-2.89435 122.604-2.77986L122.244-2.77734L25.3688-2.77734C17.1402-2.77734 12.9426-6.66604 12.8226-14.9575L12.82-15.3262L12.82-71.2832C12.82-79.7043 16.8984-83.715 25.0084-83.8295L25.3688-83.832L122.244-83.832ZM76.2341-68.832C74.2536-68.832 72.8389-67.2726 72.8389-65.3729L72.8389-54.6553L72.0184-54.6553C51.6757-54.6553 42.82-41.5845 42.82-20.6313C42.82-18.193 44.2063-16.832 45.7342-16.832C46.9224-16.832 48.2239-17.1155 49.2142-18.9301C54.0669-28.0692 60.8714-30.8996 71.5516-30.9786L72.8389-30.9803L72.8389-20.1493C72.8389-18.2497 74.2536-16.832 76.1775-16.832C77.5639-16.832 78.6956-17.3991 80.0537-18.675L102.377-39.7982C103.452-40.8189 103.82-41.8964 103.82-42.832C103.82-43.796 103.48-44.8451 102.377-45.8941L80.0537-66.8189C78.5541-68.2366 77.6205-68.832 76.2341-68.832ZM49.1758 13.7266L98.1504 13.7266C100.348 13.7266 102.105 11.9688 102.105 9.82031C102.105 7.62305 100.348 5.81641 98.1504 5.81641L49.1758 5.81641C47.0273 5.81641 45.2207 7.62305 45.2207 9.82031C45.2207 11.9688 47.0273 13.7266 49.1758 13.7266Z"/>
  </g>
  <g id="Light-M" transform="matrix(1 0 0 1 1081.1 1126)">
   <path d="M120.047-82.0254C127.498-82.0254 131.353-78.4278 131.47-70.9528L131.473-70.5996L131.473-14.3496C131.473-6.75346 127.733-3.03896 120.393-2.92647L120.047-2.92383L24.2458-2.92383C16.7458-2.92383 12.9381-6.52147 12.8227-13.9964L12.82-14.3496L12.82-70.5996C12.82-78.1958 16.5123-81.9103 23.8969-82.0228L24.2458-82.0254L120.047-82.0254ZM75.1947-67.0254C73.5201-67.0254 72.4317-65.7169 72.4317-64.1022L72.4317-52.9942L71.4548-52.9942C52.5045-52.9942 42.82-41.3851 42.82-20.1434C42.82-18.1668 43.9921-17.0254 45.276-17.0254C46.3365-17.0254 47.3692-17.3595 48.1506-18.9185C52.5808-27.784 59.6152-30.8585 70.9657-30.9434L72.4317-30.9452L72.4317-19.8372C72.4317-18.2225 73.5201-17.0254 75.1668-17.0254C76.3389-17.0254 77.2879-17.5544 78.3763-18.5566L100.341-39.1023C101.513-40.2158 101.82-41.1623 101.82-42.0254C101.82-42.9163 101.541-43.8349 100.341-44.9764L78.3763-65.4107C77.2041-66.4964 76.3669-67.0254 75.1947-67.0254ZM48.2692 11.9199L96.0231 11.9199C97.6833 11.9199 99.0504 10.6016 99.0504 8.94141C99.0504 7.23242 97.6833 5.86523 96.0231 5.86523L48.2692 5.86523C46.5602 5.86523 45.193 7.23242 45.193 8.94141C45.193 10.6016 46.5602 11.9199 48.2692 11.9199Z"/>
  </g>
  <g id="Thin-M" transform="matrix(1 0 0 1 786.59 1126)">
   <path d="M117.117-79.6328C123.597-79.6328 126.963-76.4241 127.075-70.0531L127.078-69.7207L127.078-13.0801C127.078-6.552 123.822-3.23265 117.449-3.122L117.117-3.11914L22.7321-3.11914C16.252-3.11914 12.9335-6.32785 12.8229-12.7453L12.82-13.0801L12.82-69.7207C12.82-76.2008 16.0287-79.5193 22.3997-79.6299L22.7321-79.6328L117.117-79.6328ZM73.1262-64.6328C71.8701-64.6328 71.1485-63.6896 71.1485-62.4769L71.1485-50.9424L70.0261-50.9424C53.2962-50.9424 42.82-41.2675 42.82-19.8427C42.82-18.4682 43.6485-17.6328 44.6373-17.6328C45.5193-17.6328 46.1606-18.0101 46.7219-19.2228C50.4378-27.7003 57.5841-31.0152 69.5189-31.1056L71.1485-31.1076L71.1485-19.7618C71.1485-18.5491 71.8701-17.6328 73.0995-17.6328C73.9136-17.6328 74.5682-18.0002 75.1896-18.5655L96.2968-38.3839C97.6065-39.6236 97.82-40.3782 97.82-41.1328L97.8141-41.3488C97.7761-41.9994 97.5336-42.6839 96.48-43.7078L75.3444-63.5279C74.6495-64.2016 73.9814-64.6328 73.1262-64.6328ZM46.8532 9.57617L92.9958 9.57617C94.07 9.57617 94.9 8.79492 94.9 7.7207C94.9 6.69531 94.07 5.91406 92.9958 5.91406L46.8532 5.91406C45.8278 5.91406 44.9977 6.69531 44.9977 7.7207C44.9977 8.79492 45.8278 9.57617 46.8532 9.57617Z"/>
  </g>
  <g id="Ultralight-M" transform="matrix(1 0 0 1 491.002 1126)">
   <path d="M115.652-78.4121C121.601-78.4121 124.721-75.4429 124.829-69.5508L124.832-69.2324L124.832-12.3965C124.832-6.44802 121.815-3.32735 115.968-3.21968L115.652-3.2168L21.9997-3.2168C16.0032-3.2168 12.9289-6.23311 12.8228-12.0805L12.82-12.3965L12.82-69.2324C12.82-75.2288 15.7891-78.3032 21.6813-78.4093L21.9997-78.4121L115.652-78.4121ZM71.6012-63.4121C70.5366-63.4121 70.0043-62.6088 70.0043-61.5914L70.0043-49.7567L68.7801-49.7567C52.8382-49.7567 41.82-40.9208 41.82-19.2328C41.82-18.1083 42.4854-17.4121 43.3636-17.4121C44.1621-17.4121 44.6145-17.8137 45.0669-18.858C48.5062-27.231 55.8565-30.7055 68.2672-30.7979L70.0043-30.7997L70.0043-19.2328C70.0043-18.2154 70.5366-17.4121 71.6012-17.4121C72.3464-17.4121 72.9585-17.8137 73.4375-18.2689L94.2497-37.7078C95.5078-38.9005 95.7762-39.5621 95.8146-40.2157L95.82-40.4121L95.82-40.4121L95.819-40.5061L95.819-40.5061L95.8094-40.6938C95.7571-41.3206 95.4763-41.9755 94.2497-43.1164L73.4375-62.5553C72.9585-63.0104 72.3464-63.4121 71.6012-63.4121ZM46.1696 8.30664L91.4821 8.30664C92.2145 8.30664 92.7516 7.86719 92.7516 7.13477C92.7516 6.40234 92.2145 5.91406 91.4821 5.91406L46.1696 5.91406C45.4372 5.91406 44.9 6.40234 44.9 7.13477C44.9 7.86719 45.4372 8.30664 46.1696 8.30664Z"/>
  </g>
  <g id="Black-S" transform="matrix(1 0 0 1 2867.96 696)">
   <path d="M104.177-79.1445C112.944-79.1445 118.147-74.0602 118.286-65.3915L118.288-65.0332L118.288-19.6719C118.288-10.9053 113.205-5.70243 104.536-5.56341L104.177-5.56055L26.9314-5.56055C18.1647-5.56055 12.9619-10.6449 12.8229-19.3136L12.82-19.6719L12.82-65.0332C12.82-73.7998 17.9043-79.0026 26.5731-79.1416L26.9314-79.1445L104.177-79.1445ZM65.7923-61.1445C63.5251-61.1445 61.7773-59.3871 61.7773-57.1073L61.7773-52.2151L61.6829-52.2151C51.3148-52.2151 44.82-45.4231 44.82-33.0264C44.82-32.4251 44.8352-31.8566 44.8657-31.3207L44.9096-30.6933C45.2509-26.6148 46.5672-24.6195 48.8586-24.6195C50.6535-24.6195 51.8817-25.4507 52.9444-27.5643L53.0448-27.7403L53.0448-27.7403L53.255-28.0943C54.6645-30.3999 56.9305-32.7627 61.3395-32.8794L61.7773-32.8839L61.7773-28.1817C61.7773-25.9019 63.5251-24.1445 65.7923-24.1445C67.1482-24.1445 68.1904-24.6283 69.4306-25.7346L84.5446-39.6522C85.3476-40.4121 85.82-41.6471 85.82-42.6445C85.82-43.7132 85.3712-44.8531 84.5683-45.613L69.6656-59.3396C68.2013-60.6695 67.1385-61.1445 65.7923-61.1445ZM44.7454 9.82031L87.1282 9.82031C90.1067 9.82031 92.4505 7.28125 92.4505 4.54688C92.4505 1.8125 90.1067-0.726562 87.1282-0.726562L44.7454-0.726562C41.7669-0.726562 39.4231 1.8125 39.4231 4.54688C39.4231 7.28125 41.7669 9.82031 44.7454 9.82031Z"/>
  </g>
  <g id="Heavy-S" transform="matrix(1 0 0 1 2572.23 696)">
   <path d="M103.103-77.9727C111.383-77.9727 116.199-73.3213 116.333-65.0949L116.335-64.7402L116.335-19.7695C116.335-11.4413 111.637-6.67263 103.456-6.53995L103.103-6.53711L26.0524-6.53711C17.7242-6.53711 12.9555-11.1885 12.8228-19.4148L12.82-19.7695L12.82-64.7402C12.82-73.0685 17.4713-77.8372 25.6976-77.9699L26.0524-77.9727L103.103-77.9727ZM65.178-60.9727C62.9895-60.9727 61.348-59.2882 61.348-57.1578L61.348-51.5842L61.1491-51.5842C49.3857-51.5842 42.82-43.9297 42.82-30.7263C42.82-25.7967 44.1381-23.369 46.5754-23.369C48.2416-23.369 49.4603-24.0627 50.4799-26.0692C52.4253-29.5086 55.3217-32.1191 60.7734-32.2335L61.348-32.2374L61.348-26.7876C61.348-24.6324 62.9895-22.9727 65.1531-22.9727C66.5707-22.9727 67.6401-23.5177 68.9831-24.7563L84.5765-39.0992C85.3972-39.8424 85.82-41.0314 85.82-41.9727C85.82-42.9883 85.3972-44.0783 84.6014-44.8462L68.9831-59.1891C67.5158-60.5021 66.4961-60.9727 65.178-60.9727ZM43.7771 8.45312L85.3786 8.45312C88.113 8.45312 90.2614 6.1582 90.2614 3.61914C90.2614 1.03125 88.113-1.26367 85.3786-1.26367L43.7771-1.26367C41.0427-1.26367 38.8942 1.03125 38.8942 3.61914C38.8942 6.1582 41.0427 8.45312 43.7771 8.45312Z"/>
  </g>
  <g id="Bold-S" transform="matrix(1 0 0 1 2276.62 696)">
   <path d="M101.882-76.6543C109.673-76.6543 114.006-72.534 114.135-64.7598L114.138-64.3984L114.138-19.8672C114.138-11.9807 109.923-7.74092 102.24-7.61425L101.882-7.61133L25.0759-7.61133C17.2855-7.61133 12.9525-11.7316 12.823-19.5058L12.82-19.8672L12.82-64.3984C12.82-72.2849 17.035-76.5247 24.7188-76.6514L25.0759-76.6543L101.882-76.6543ZM65.1682-61.6543C63.0858-61.6543 61.5106-60.0352 61.5106-57.9914L61.5106-51.4884L61.1903-51.4884C47.5745-51.4884 40.82-42.6231 40.82-28.1573C40.82-23.9901 42.1549-21.9197 44.2907-21.9197C45.7857-21.9197 47.0138-22.4771 48.0017-24.3882C50.6693-29.1204 54.3872-31.6367 60.7868-31.7374L61.5106-31.7406L61.5106-25.2376C61.5106-23.1938 63.0858-21.6543 65.1415-21.6543C66.5031-21.6543 67.571-22.1852 68.9059-23.4061L85.5919-38.854C86.4195-39.6237 86.82-40.7386 86.82-41.6676C86.82-42.6231 86.4195-43.6848 85.6186-44.4546L68.9059-59.8228C67.4642-61.15 66.4764-61.6543 65.1682-61.6543ZM43.1423 6.93945L83.8161 6.93945C86.2575 6.93945 88.2106 4.88867 88.2106 2.54492C88.2106 0.201172 86.2575-1.84961 83.8161-1.84961L43.1423-1.84961C40.7009-1.84961 38.6989 0.201172 38.6989 2.54492C38.6989 4.88867 40.7009 6.93945 43.1423 6.93945Z"/>
  </g>
  <g id="Semibold-S" transform="matrix(1 0 0 1 1980.66 696)">
   <path d="M101.052-75.7266C108.457-75.7266 112.499-71.9396 112.622-64.5054L112.624-64.1543L112.624-19.916C112.624-12.3679 108.696-8.51217 101.397-8.39532L101.052-8.39258L24.3923-8.39258C16.9403-8.39258 12.944-12.1322 12.8228-19.5649L12.82-19.916L12.82-64.1543C12.82-71.7024 16.7016-75.6055 24.0455-75.7238L24.3923-75.7266L101.052-75.7266ZM64.4533-61.7266C62.5523-61.7266 61.1332-60.2223 61.1332-58.3418L61.1332-51.3573L60.7315-51.3573C46.3532-51.3573 39.82-41.9012 39.82-27.0456C39.82-23.6608 41.1052-21.9146 42.8724-21.9146C44.1273-21.9146 45.2598-22.3079 46.176-23.8702L46.2996-24.0906C49.4323-29.732 53.6629-32.0423 60.7315-32.0423L61.1332-32.0423L61.1332-25.004C61.1332-23.1504 62.5523-21.7266 64.4265-21.7266C65.7117-21.7266 66.7292-22.237 67.9876-23.419L84.6687-39.1074C85.472-39.8596 85.82-40.8804 85.82-41.74C85.82-42.6265 85.472-43.5936 84.6687-44.3727L67.9876-59.9267C66.5953-61.2162 65.7117-61.7266 64.4533-61.7266ZM43.0684 5.91406L83.1075 5.91406C85.3536 5.91406 87.2091 4.00977 87.2091 1.8125C87.2091-0.384766 85.3536-2.28906 83.1075-2.28906L43.0684-2.28906C40.7735-2.28906 38.9669-0.384766 38.9669 1.8125C38.9669 4.00977 40.7735 5.91406 43.0684 5.91406Z"/>
  </g>
  <g id="Medium-S" transform="matrix(1 0 0 1 1684.54 696)">
   <path d="M100.418-75.043C107.578-75.043 111.332-71.5435 111.45-64.3583L111.452-64.0078L111.452-19.9648C111.452-12.7088 107.812-9.04688 100.761-8.93246L100.418-8.92969L23.8552-8.92969C16.6953-8.92969 12.9402-12.4765 12.8228-19.6165L12.82-19.9648L12.82-64.0078C12.82-71.3119 16.4614-74.9273 23.5114-75.0403L23.8552-75.043L100.418-75.043ZM63.7803-62.043C61.904-62.043 60.5598-60.5966 60.5598-58.7886L60.5598-51.2506L60.0557-51.2506C44.4851-51.2506 37.82-41.098 37.82-25.5491C37.82-22.6563 39.0802-21.1264 40.7045-21.1264C41.8563-21.1264 42.9825-21.4318 43.8871-22.9433L44.009-23.157C47.5571-29.4676 52.2127-31.7268 59.6474-31.8055L60.5598-31.8076L60.5598-24.1583C60.5598-22.3503 61.904-21.043 63.7243-21.043C64.9845-21.043 66.0207-21.5437 67.2809-22.6841L84.6718-38.984C85.484-39.735 85.82-40.7086 85.82-41.543C85.82-42.4053 85.484-43.351 84.6718-44.1298L67.2809-60.235C65.8807-61.5423 65.0125-62.043 63.7803-62.043ZM42.361 5.08398L81.9118 5.08398C84.0603 5.08398 85.7692 3.32617 85.7692 1.27539C85.7692-0.82422 84.0603-2.58203 81.9118-2.58203L42.361-2.58203C40.2126-2.58203 38.5036-0.82422 38.5036 1.27539C38.5036 3.32617 40.2126 5.08398 42.361 5.08398Z"/>
  </g>
  <g id="Regular-S" transform="matrix(1 0 0 1 1388.58 696)">
   <path d="M99.5876-74.1152C106.41-74.1152 109.828-70.9485 109.937-64.1033L109.939-63.7637L109.939-20.0625C109.939-13.0966 106.631-9.77019 99.9203-9.6647L99.5876-9.66211L23.1716-9.66211C16.3996-9.66211 12.9346-12.8744 12.8228-19.7173L12.82-20.0625L12.82-63.7637C12.82-70.7277 16.174-74.0069 22.8357-74.1126L23.1716-74.1152L99.5876-74.1152ZM63.6281-63.1152C61.9077-63.1152 60.6749-61.7306 60.6749-60.0863L60.6749-51.8364L60.1015-51.8364C43.3858-51.8364 36.82-40.8171 36.82-24.4614C36.82-22.2979 38.0529-21.1152 39.3431-21.1152C40.3466-21.1152 41.5221-21.3171 42.3823-22.8748C46.4152-30.1951 51.6408-32.3245 59.6963-32.3923L60.6749-32.394L60.6749-23.971C60.6749-22.3267 61.9077-21.1152 63.5707-21.1152C64.7749-21.1152 65.7498-21.6056 66.954-22.7306L84.7305-39.6633C85.5333-40.4132 85.82-41.3363 85.82-42.1152C85.82-42.9229 85.5333-43.8171 84.7305-44.5959L66.954-61.3267C65.6064-62.596 64.8323-63.1152 63.6281-63.1152ZM41.9216 4.05859L80.8864 4.05859C82.7907 4.05859 84.4021 2.49609 84.4021 0.542969C84.4021-1.41016 82.7907-3.02148 80.8864-3.02148L41.9216-3.02148C39.9685-3.02148 38.406-1.41016 38.406 0.542969C38.406 2.49609 39.9685 4.05859 41.9216 4.05859Z"/>
  </g>
  <g id="Light-S" transform="matrix(1 0 0 1 1093.34 696)">
   <path d="M97.6345-72.5527C103.777-72.5527 106.901-69.6289 107.007-63.5031L107.009-63.1777L107.009-19.1836C107.009-12.9453 103.991-9.91398 97.955-9.8113L97.6345-9.8086L22.195-9.8086C16.0527-9.8086 12.9287-12.7324 12.8228-18.8582L12.82-19.1836L12.82-63.1777C12.82-69.416 15.8382-72.4473 21.8745-72.55L22.195-72.5527L97.6345-72.5527ZM62.5969-61.5527C61.1633-61.5527 60.1794-60.4275 60.1794-59.0492L60.1794-50.4697L59.4767-50.4697C44.1005-50.4697 36.82-40.8214 36.82-24.2531C36.82-22.5372 37.8038-21.5527 38.9001-21.5527C39.7996-21.5527 40.6992-21.8059 41.4019-23.0998C45.024-30.1829 50.441-32.4762 59.0439-32.5495L60.1794-32.5513L60.1794-23.9437C60.1794-22.5654 61.1633-21.5527 62.5407-21.5527C63.5526-21.5527 64.3678-21.9746 65.3236-22.8748L82.6675-39.218C83.567-40.0618 83.82-40.8495 83.82-41.5527C83.82-42.284 83.567-43.0436 82.6675-43.9156L65.3236-60.1181C64.2835-61.1027 63.5807-61.5527 62.5969-61.5527ZM40.9939 2.49609L78.8845 2.49609C80.3493 2.49609 81.6189 1.27539 81.6189-0.238281C81.6189-1.75195 80.3493-2.97266 78.8845-2.97266L40.9939-2.97266C39.4802-2.97266 38.2595-1.75195 38.2595-0.238281C38.2595 1.27539 39.4802 2.49609 40.9939 2.49609Z"/>
  </g>
  <g id="Thin-S" transform="matrix(1 0 0 1 798.553 696)">
   <path d="M95.0954-70.4043C100.367-70.4043 103.052-67.8644 103.15-62.6459L103.152-62.3477L103.152-18.0605C103.152-12.741 100.565-10.1025 95.391-10.0066L95.0954-10.0039L20.8767-10.0039C15.6529-10.0039 12.9222-12.5438 12.8228-17.7623L12.82-18.0605L12.82-62.3477C12.82-67.6672 15.454-70.3057 20.5837-70.4016L20.8767-70.4043L95.0954-70.4043ZM60.5797-59.4043C59.4983-59.4043 58.8607-58.5758 58.8607-57.554L58.8607-48.4406L57.9734-48.4406C44.0825-48.4406 35.82-40.349 35.82-23.3374C35.82-22.1223 36.5409-21.4043 37.4004-21.4043C38.149-21.4043 38.7313-21.6805 39.2304-22.7023C42.3402-29.5221 48.0534-32.1183 57.5055-32.2003L58.8607-32.2023L58.8607-23.227C58.8607-22.1776 59.4983-21.4043 60.5797-21.4043C61.2659-21.4043 61.8357-21.706 62.3957-22.2029L79.6-38.1674C80.6259-39.1339 80.82-39.7691 80.82-40.4043C80.82-41.0395 80.6536-41.6746 79.6-42.6412L62.5483-58.4377C61.9106-59.0453 61.3283-59.4043 60.5797-59.4043ZM39.7732 0.347656L76.1989 0.347656C77.1755 0.347656 77.9079-0.335938 77.9079-1.26367C77.9079-2.24023 77.1755-2.97266 76.1989-2.97266L39.7732-2.97266C38.8454-2.97266 38.0642-2.24023 38.0642-1.26367C38.0642-0.335938 38.8454 0.347656 39.7732 0.347656Z"/>
  </g>
  <g id="Ultralight-S" transform="matrix(1 0 0 1 502.843 696)">
   <path d="M93.7771-69.3301C98.5622-69.3301 101.05-66.9384 101.147-62.2471L101.15-61.957L101.15-17.4746C101.15-12.6416 98.7585-10.2003 94.0672-10.1045L93.7771-10.1016L20.1931-10.1016C15.4079-10.1016 12.9206-12.4463 12.823-17.1817L12.82-17.4746L12.82-61.957C12.82-66.7421 15.2117-69.2295 19.903-69.3271L20.1931-69.3301L93.7771-69.3301ZM59.5265-57.3301C58.6116-57.3301 58.1542-56.6388 58.1542-55.8146L58.1542-46.695L57.2124-46.695C44.377-46.695 35.82-39.6226 35.82-22.8456C35.82-21.915 36.3851-21.3301 37.1116-21.3301C37.7843-21.3301 38.188-21.6492 38.5647-22.5C41.371-29.0136 47.0946-31.6666 56.7351-31.7505L58.1542-31.7526L58.1542-22.8456C58.1542-21.9948 58.6116-21.3301 59.5265-21.3301C60.1454-21.3301 60.6297-21.6757 61.0872-22.0746L77.5822-37.2297C78.6316-38.2134 78.82-38.7718 78.82-39.3301C78.82-39.8885 78.6585-40.4468 77.5822-41.4305L61.0872-56.5857C60.6297-56.9845 60.1454-57.3301 59.5265-57.3301ZM39.1384-0.726562L74.8317-0.726562C75.5153-0.726562 76.0036-1.16602 76.0036-1.80078C76.0036-2.48438 75.5153-2.92383 74.8317-2.92383L39.1384-2.92383C38.5036-2.92383 37.9665-2.48438 37.9665-1.80078C37.9665-1.16602 38.5036-0.726562 39.1384-0.726562Z"/>
  </g>
 </g>
</svg>
