<?xml version="1.0" encoding="UTF-8"?>
<svg width="100px" height="100px" viewBox="0 0 100 100" version="1.1" xmlns="http://www.w3.org/2000/svg" xmlns:xlink="http://www.w3.org/1999/xlink">
    <title>Favorites</title>
    <g id="Placeholders" stroke="none" stroke-width="1" fill="none" fill-rule="evenodd">
        <g id="Empty-placeholders" transform="translate(-845, 0)" fill="#000000" fill-rule="nonzero">
            <g id="Favorites" transform="translate(845, 0)">
                <path d="M49.9997842,100 C77.303632,100 100,77.3529305 100,50 C100,22.6960508 77.2546408,0 49.950793,0 C22.597954,0 0,22.6960508 0,50 C0,77.3529305 22.6469452,100 49.9997842,100 Z M37.9900184,28.1373043 C43.333169,28.1373043 47.4998286,31.1764753 49.9997842,35.735282 C52.4507486,31.1764753 56.7154909,28.1373043 61.9605587,28.1373043 C70.4408513,28.1373043 76.5192712,34.5097953 76.5192712,43.3333601 C76.5192712,56.4705741 62.6468368,68.5293757 52.4507486,75.0490416 C51.6664881,75.5392061 50.7350534,76.2254767 50.0978669,76.2254767 C49.46058,76.2254767 48.3821717,75.5392061 47.5488198,75.0490416 C37.352832,68.5293757 23.431306,56.4705741 23.431306,43.3333601 C23.431306,34.5097953 29.558717,28.1373043 37.9900184,28.1373043 Z" id="Path-2"></path>
            </g>
        </g>
    </g>
</svg>