<?xml version="1.0" encoding="UTF-8"?>
<!--Generator: Apple Native CoreSVG 232.5-->
<!DOCTYPE svg
PUBLIC "-//W3C//DTD SVG 1.1//EN"
       "http://www.w3.org/Graphics/SVG/1.1/DTD/svg11.dtd">
<svg version="1.1" xmlns="http://www.w3.org/2000/svg" xmlns:xlink="http://www.w3.org/1999/xlink" width="3300" height="2200">
 <g id="Notes">
  <rect height="2200" id="artboard" style="fill:white;opacity:1" width="3300" x="0" y="0"/>
  <line style="fill:none;stroke:black;opacity:1;stroke-width:0.5;" x1="263" x2="3036" y1="292" y2="292"/>
  <text style="stroke:none;fill:black;font-family:sans-serif;font-size:13;font-weight:bold;" transform="matrix(1 0 0 1 263 322)">Weight/Scale Variations</text>
  <text style="stroke:none;fill:black;font-family:sans-serif;font-size:13;text-anchor:middle;" transform="matrix(1 0 0 1 559.711 322)">Ultralight</text>
  <text style="stroke:none;fill:black;font-family:sans-serif;font-size:13;text-anchor:middle;" transform="matrix(1 0 0 1 856.422 322)">Thin</text>
  <text style="stroke:none;fill:black;font-family:sans-serif;font-size:13;text-anchor:middle;" transform="matrix(1 0 0 1 1153.13 322)">Light</text>
  <text style="stroke:none;fill:black;font-family:sans-serif;font-size:13;text-anchor:middle;" transform="matrix(1 0 0 1 1449.84 322)">Regular</text>
  <text style="stroke:none;fill:black;font-family:sans-serif;font-size:13;text-anchor:middle;" transform="matrix(1 0 0 1 1746.56 322)">Medium</text>
  <text style="stroke:none;fill:black;font-family:sans-serif;font-size:13;text-anchor:middle;" transform="matrix(1 0 0 1 2043.27 322)">Semibold</text>
  <text style="stroke:none;fill:black;font-family:sans-serif;font-size:13;text-anchor:middle;" transform="matrix(1 0 0 1 2339.98 322)">Bold</text>
  <text style="stroke:none;fill:black;font-family:sans-serif;font-size:13;text-anchor:middle;" transform="matrix(1 0 0 1 2636.69 322)">Heavy</text>
  <text style="stroke:none;fill:black;font-family:sans-serif;font-size:13;text-anchor:middle;" transform="matrix(1 0 0 1 2933.4 322)">Black</text>
  <line style="fill:none;stroke:black;opacity:1;stroke-width:0.5;" x1="263" x2="3036" y1="1903" y2="1903"/>
  <g transform="matrix(0.2 0 0 0.2 263 1933)">
   <path d="m46.2402 4.15039c21.5332 0 39.4531-17.8711 39.4531-39.4043s-17.9688-39.4043-39.502-39.4043c-21.4844 0-39.3555 17.8711-39.3555 39.4043s17.9199 39.4043 39.4043 39.4043Zm0-7.42188c-17.7246 0-31.8848-14.209-31.8848-31.9824s14.1113-31.9824 31.8359-31.9824c17.7734 0 32.0312 14.209 32.0312 31.9824s-14.209 31.9824-31.9824 31.9824Zm-17.9688-31.9824c0 2.14844 1.51367 3.61328 3.75977 3.61328h10.498v10.5957c0 2.19727 1.46484 3.71094 3.61328 3.71094 2.24609 0 3.71094-1.51367 3.71094-3.71094v-10.5957h10.5957c2.19727 0 3.71094-1.46484 3.71094-3.61328 0-2.19727-1.51367-3.71094-3.71094-3.71094h-10.5957v-10.5469c0-2.24609-1.46484-3.75977-3.71094-3.75977-2.14844 0-3.61328 1.51367-3.61328 3.75977v10.5469h-10.498c-2.24609 0-3.75977 1.51367-3.75977 3.71094Z"/>
  </g>
  <g transform="matrix(0.2 0 0 0.2 281.506 1933)">
   <path d="m58.5449 14.5508c27.2461 0 49.8047-22.6074 49.8047-49.8047 0-27.2461-22.6074-49.8047-49.8535-49.8047-27.1973 0-49.7559 22.5586-49.7559 49.8047 0 27.1973 22.6074 49.8047 49.8047 49.8047Zm0-8.30078c-23.0469 0-41.4551-18.457-41.4551-41.5039s18.3594-41.5039 41.4062-41.5039 41.5527 18.457 41.5527 41.5039-18.457 41.5039-41.5039 41.5039Zm-22.6562-41.5039c0 2.39258 1.66016 4.00391 4.15039 4.00391h14.3555v14.4043c0 2.44141 1.66016 4.15039 4.05273 4.15039 2.44141 0 4.15039-1.66016 4.15039-4.15039v-14.4043h14.4043c2.44141 0 4.15039-1.61133 4.15039-4.00391 0-2.44141-1.70898-4.15039-4.15039-4.15039h-14.4043v-14.3555c0-2.49023-1.70898-4.19922-4.15039-4.19922-2.39258 0-4.05273 1.70898-4.05273 4.19922v14.3555h-14.3555c-2.49023 0-4.15039 1.70898-4.15039 4.15039Z"/>
  </g>
  <g transform="matrix(0.2 0 0 0.2 304.924 1933)">
   <path d="m74.8535 28.3203c34.8145 0 63.623-28.8086 63.623-63.5742 0-34.8145-28.8574-63.623-63.6719-63.623-34.7656 0-63.5254 28.8086-63.5254 63.623 0 34.7656 28.8086 63.5742 63.5742 63.5742Zm0-9.08203c-30.1758 0-54.4434-24.3164-54.4434-54.4922 0-30.2246 24.2188-54.4922 54.3945-54.4922 30.2246 0 54.541 24.2676 54.541 54.4922 0 30.1758-24.2676 54.4922-54.4922 54.4922Zm-28.8574-54.4922c0 2.58789 1.85547 4.39453 4.58984 4.39453h19.7266v19.7754c0 2.68555 1.85547 4.58984 4.44336 4.58984 2.68555 0 4.54102-1.85547 4.54102-4.58984v-19.7754h19.7754c2.68555 0 4.58984-1.80664 4.58984-4.39453 0-2.73438-1.85547-4.58984-4.58984-4.58984h-19.7754v-19.7266c0-2.73438-1.85547-4.63867-4.54102-4.63867-2.58789 0-4.44336 1.9043-4.44336 4.63867v19.7266h-19.7266c-2.73438 0-4.58984 1.85547-4.58984 4.58984Z"/>
  </g>
  <text style="stroke:none;fill:black;font-family:sans-serif;font-size:13;font-weight:bold;" transform="matrix(1 0 0 1 263 1953)">Design Variations</text>
  <text style="stroke:none;fill:black;font-family:sans-serif;font-size:13;" transform="matrix(1 0 0 1 263 1971)">Symbols are supported in up to nine weights and three scales.</text>
  <text style="stroke:none;fill:black;font-family:sans-serif;font-size:13;" transform="matrix(1 0 0 1 263 1989)">For optimal layout with text and other symbols, vertically align</text>
  <text style="stroke:none;fill:black;font-family:sans-serif;font-size:13;" transform="matrix(1 0 0 1 263 2007)">symbols with the adjacent text.</text>
  <line style="fill:none;stroke:#00AEEF;stroke-width:0.5;opacity:1.0;" x1="776" x2="776" y1="1919" y2="1933"/>
  <g transform="matrix(0.2 0 0 0.2 776 1933)">
   <path d="m16.5527 0.78125c2.58789 0 3.85742-0.976562 4.78516-3.71094l6.29883-17.2363h28.8086l6.29883 17.2363c0.927734 2.73438 2.19727 3.71094 4.73633 3.71094 2.58789 0 4.24805-1.5625 4.24805-4.00391 0-0.830078-0.146484-1.61133-0.537109-2.63672l-22.9004-60.9863c-1.12305-2.97852-3.125-4.49219-6.25-4.49219-3.02734 0-5.07812 1.46484-6.15234 4.44336l-22.9004 61.084c-0.390625 1.02539-0.537109 1.80664-0.537109 2.63672 0 2.44141 1.5625 3.95508 4.10156 3.95508Zm13.4766-28.3691 11.8652-32.8613h0.244141l11.8652 32.8613Z"/>
  </g>
  <line style="fill:none;stroke:#00AEEF;stroke-width:0.5;opacity:1.0;" x1="792.836" x2="792.836" y1="1919" y2="1933"/>
  <text style="stroke:none;fill:black;font-family:sans-serif;font-size:13;font-weight:bold;" transform="matrix(1 0 0 1 776 1953)">Margins</text>
  <text style="stroke:none;fill:black;font-family:sans-serif;font-size:13;" transform="matrix(1 0 0 1 776 1971)">Leading and trailing margins on the left and right side of each symbol</text>
  <text style="stroke:none;fill:black;font-family:sans-serif;font-size:13;" transform="matrix(1 0 0 1 776 1989)">can be adjusted by modifying the x-location of the margin guidelines.</text>
  <text style="stroke:none;fill:black;font-family:sans-serif;font-size:13;" transform="matrix(1 0 0 1 776 2007)">Modifications are automatically applied proportionally to all</text>
  <text style="stroke:none;fill:black;font-family:sans-serif;font-size:13;" transform="matrix(1 0 0 1 776 2025)">scales and weights.</text>
  <g transform="matrix(0.2 0 0 0.2 1289 1933)">
   <path d="m14.209 9.32617 8.49609 8.54492c4.29688 4.3457 9.22852 4.05273 13.8672-1.07422l53.4668-58.9355-4.83398-4.88281-53.0762 58.3984c-1.75781 2.00195-3.41797 2.49023-5.76172 0.146484l-5.85938-5.81055c-2.34375-2.29492-1.80664-4.00391 0.195312-5.81055l57.373-54.0039-4.88281-4.83398-57.959 54.4434c-4.93164 4.58984-5.32227 9.47266-1.02539 13.8184Zm32.0801-90.9668c-2.09961 2.05078-2.24609 4.93164-1.07422 6.88477 1.17188 1.80664 3.4668 2.97852 6.68945 2.14844 7.32422-1.70898 14.9414-2.00195 22.0703 2.68555l-2.92969 7.27539c-1.70898 4.15039-0.830078 7.08008 1.85547 9.81445l11.4746 11.5723c2.44141 2.44141 4.49219 2.53906 7.32422 2.05078l5.32227-0.976562 3.32031 3.36914-0.195312 2.7832c-0.195312 2.49023 0.439453 4.39453 2.88086 6.78711l3.80859 3.71094c2.39258 2.39258 5.46875 2.53906 7.8125 0.195312l14.5508-14.5996c2.34375-2.34375 2.24609-5.32227-0.146484-7.71484l-3.85742-3.80859c-2.39258-2.39258-4.24805-3.17383-6.64062-2.97852l-2.88086 0.244141-3.22266-3.17383 1.2207-5.61523c0.634766-2.83203-0.146484-5.0293-3.07617-7.95898l-10.9863-10.9375c-16.6992-16.6016-38.8672-16.2109-53.3203-1.75781Zm7.4707 1.85547c12.1582-8.88672 28.6133-7.37305 39.7461 3.75977l12.1582 12.0605c1.17188 1.17188 1.36719 2.09961 1.02539 3.80859l-1.61133 7.42188 7.51953 7.42188 4.93164-0.292969c1.26953-0.0488281 1.66016 0.0488281 2.63672 1.02539l2.88086 2.88086-12.207 12.207-2.88086-2.88086c-0.976562-0.976562-1.12305-1.36719-1.07422-2.68555l0.341797-4.88281-7.4707-7.42188-7.61719 1.26953c-1.61133 0.341797-2.34375 0.195312-3.56445-0.976562l-10.0098-10.0098c-1.26953-1.17188-1.41602-2.00195-0.634766-3.85742l4.39453-10.4492c-7.8125-7.27539-17.9688-10.4004-28.125-7.42188-0.78125 0.195312-1.07422-0.439453-0.439453-0.976562Z"/>
  </g>
  <text style="stroke:none;fill:black;font-family:sans-serif;font-size:13;font-weight:bold;" transform="matrix(1 0 0 1 1289 1953)">Exporting</text>
  <text style="stroke:none;fill:black;font-family:sans-serif;font-size:13;" transform="matrix(1 0 0 1 1289 1971)">Symbols should be outlined when exporting to ensure the</text>
  <text style="stroke:none;fill:black;font-family:sans-serif;font-size:13;" transform="matrix(1 0 0 1 1289 1989)">design is preserved when submitting to Xcode.</text>
  <text id="template-version" style="stroke:none;fill:black;font-family:sans-serif;font-size:13;text-anchor:end;" transform="matrix(1 0 0 1 3036 1933)">Template v.2.0</text>
  <text style="stroke:none;fill:black;font-family:sans-serif;font-size:13;text-anchor:end;" transform="matrix(1 0 0 1 3036 1951)">Requires Xcode 12 or greater</text>
  <text id="descriptive-name" style="stroke:none;fill:black;font-family:sans-serif;font-size:13;text-anchor:end;" transform="matrix(1 0 0 1 3036 1969)">Generated from chart.line.downtrend.xyaxis</text>
  <text style="stroke:none;fill:black;font-family:sans-serif;font-size:13;text-anchor:end;" transform="matrix(1 0 0 1 3036 1987)">Typeset at 100.0 points</text>
  <text style="stroke:none;fill:black;font-family:sans-serif;font-size:13;" transform="matrix(1 0 0 1 263 726)">Small</text>
  <text style="stroke:none;fill:black;font-family:sans-serif;font-size:13;" transform="matrix(1 0 0 1 263 1156)">Medium</text>
  <text style="stroke:none;fill:black;font-family:sans-serif;font-size:13;" transform="matrix(1 0 0 1 263 1586)">Large</text>
 </g>
 <g id="Guides">
  <g id="H-reference" style="fill:#27AAE1;stroke:none;" transform="matrix(1 0 0 1 339 696)">
   <path d="M0.993654 0L3.63775 0L29.3281-67.1323L30.0303-67.1323L30.0303-70.459L28.1226-70.459ZM11.6885-24.4799L46.9815-24.4799L46.2315-26.7285L12.4385-26.7285ZM55.1196 0L57.7637 0L30.6382-70.459L29.4326-70.459L29.4326-67.1323Z"/>
  </g>
  <line id="Baseline-S" style="fill:none;stroke:#27AAE1;opacity:1;stroke-width:0.5;" x1="263" x2="3036" y1="696" y2="696"/>
  <line id="Capline-S" style="fill:none;stroke:#27AAE1;opacity:1;stroke-width:0.5;" x1="263" x2="3036" y1="625.541" y2="625.541"/>
  <g id="H-reference" style="fill:#27AAE1;stroke:none;" transform="matrix(1 0 0 1 339 1126)">
   <path d="M0.993654 0L3.63775 0L29.3281-67.1323L30.0303-67.1323L30.0303-70.459L28.1226-70.459ZM11.6885-24.4799L46.9815-24.4799L46.2315-26.7285L12.4385-26.7285ZM55.1196 0L57.7637 0L30.6382-70.459L29.4326-70.459L29.4326-67.1323Z"/>
  </g>
  <line id="Baseline-M" style="fill:none;stroke:#27AAE1;opacity:1;stroke-width:0.5;" x1="263" x2="3036" y1="1126" y2="1126"/>
  <line id="Capline-M" style="fill:none;stroke:#27AAE1;opacity:1;stroke-width:0.5;" x1="263" x2="3036" y1="1055.54" y2="1055.54"/>
  <g id="H-reference" style="fill:#27AAE1;stroke:none;" transform="matrix(1 0 0 1 339 1556)">
   <path d="M0.993654 0L3.63775 0L29.3281-67.1323L30.0303-67.1323L30.0303-70.459L28.1226-70.459ZM11.6885-24.4799L46.9815-24.4799L46.2315-26.7285L12.4385-26.7285ZM55.1196 0L57.7637 0L30.6382-70.459L29.4326-70.459L29.4326-67.1323Z"/>
  </g>
  <line id="Baseline-L" style="fill:none;stroke:#27AAE1;opacity:1;stroke-width:0.5;" x1="263" x2="3036" y1="1556" y2="1556"/>
  <line id="Capline-L" style="fill:none;stroke:#27AAE1;opacity:1;stroke-width:0.5;" x1="263" x2="3036" y1="1485.54" y2="1485.54"/>
  <line id="left-margin" style="fill:none;stroke:#00AEEF;stroke-width:0.5;opacity:1.0;" x1="1384.92" x2="1384.92" y1="1030.79" y2="1150.12"/>
  <line id="right-margin" style="fill:none;stroke:#00AEEF;stroke-width:0.5;opacity:1.0;" x1="1514.77" x2="1514.77" y1="1030.79" y2="1150.12"/>
 </g>
 <g id="Symbols">
  <g id="Black-L" transform="matrix(1 0 0 1 2843.79 1556)">
   <path d="M16.084 22.1087C16.084 26.1412 18.7642 28.8215 22.7968 28.8215L151.862 28.8215C157.67 28.8215 162.086 24.7606 162.086 18.8322C162.086 12.9246 157.67 8.84287 151.862 8.84287L37.7667 8.84287C36.6607 8.84287 36.065 8.26794 36.065 7.16078L36.065-90.0527C36.065-95.8411 32.0041-100.278 26.0757-100.278C20.1657-100.278 16.084-95.8411 16.084-90.0527ZM34.3239-83.8615L21.6858-71.2622L50.8986-41.3703C54.5827-37.5706 58.0267-36.1522 61.79-36.1522C65.6117-36.1522 69.2726-37.6498 72.7398-41.3703L92.8297-62.9621C93.3081-63.499 93.9194-63.7266 94.3151-63.7266C94.7327-63.7266 95.3452-63.4978 95.742-63.0205L118.937-38.9386L111.103-31.0445C106.862-26.8048 109.327-20.5832 115.185-19.0448L152.751-9.08779C158.216-7.62988 163.298-12.6109 161.839-18.0965L151.765-55.7431C150.227-61.5431 143.869-63.9489 139.686-59.7664L131.459-51.4807L105.149-77.9914C101.546-81.5951 98.0408-83.2107 94.2567-83.2107C90.4361-83.2107 86.7741-81.6547 83.3069-77.933L63.217-56.3996C62.7397-55.8639 62.1481-55.6363 61.7316-55.6363C61.3152-55.6363 60.7235-55.9224 60.3046-56.3996Z"/>
  </g>
  <g id="Heavy-L" transform="matrix(1 0 0 1 2548.48 1556)">
   <path d="M16.084 21.268C16.084 25.033 18.5783 27.5274 22.3434 27.5274L150.592 27.5274C155.643 27.5274 159.521 23.9397 159.521 18.7828C159.521 13.6561 155.643 10.0382 150.592 10.0382L35.2932 10.0382C34.1393 10.0382 33.5844 9.51349 33.5844 8.354L33.5844-89.6571C33.5844-94.6834 29.9967-98.5914 24.8398-98.5914C19.7019-98.5914 16.084-94.6834 16.084-89.6571ZM32.055-81.4332L20.7208-70.119L49.6313-40.6271C53.1108-37.0641 56.3546-35.686 59.9088-35.686C63.5077-35.686 66.9457-37.1389 70.2309-40.6271L91.1283-62.7821C91.6593-63.3577 92.2871-63.6024 92.7264-63.6024C93.2015-63.6024 93.835-63.352 94.2799-62.8267L118.017-38.3406L109.524-29.7919C105.78-26.0535 107.962-20.6678 113.142-19.3071L150.489-9.56756C155.306-8.28723 159.745-12.6159 158.459-17.4628L148.63-54.8903C147.27-60.0253 141.77-62.163 138.071-58.4636L129.268-49.6158L102.965-76.105C99.5659-79.5041 96.2662-81.0518 92.6818-81.0518C89.0885-81.0518 85.6449-79.5543 82.3597-76.0604L61.4623-53.9501C60.937-53.3801 60.3336-53.1354 59.8642-53.1354C59.3947-53.1354 58.7914-53.4248 58.3107-53.9501Z"/>
  </g>
  <g id="Bold-L" transform="matrix(1 0 0 1 2253.41 1556)">
   <path d="M16.084 20.3945C16.084 23.8067 18.3329 26.0557 21.7452 26.0557L149.189 26.0557C153.31 26.0557 156.526 23.0669 156.526 18.848C156.526 14.6671 153.31 11.6404 149.189 11.6404L32.205 11.6404C31.027 11.6404 30.5257 11.1771 30.5257 9.98589L30.5257-89.3592C30.5257-93.4552 27.537-96.7101 23.3181-96.7101C19.1107-96.7101 16.084-93.4552 16.084-89.3592ZM29.2278-78.4063L19.5743-68.7573L48.0637-39.8467C51.2821-36.5831 54.2725-35.2661 57.5582-35.2661C60.873-35.2661 64.027-36.6503 67.0818-39.8467L89.0378-62.7307C89.6675-63.3896 90.3408-63.6723 90.8636-63.6723C91.4377-63.6723 92.1242-63.3764 92.6603-62.7599L117.275-37.5433L107.945-28.1578C104.816-25.0417 106.637-20.6636 110.972-19.5256L147.983-10.1444C152.008-9.08682 155.655-12.616 154.584-16.679L145.145-53.7705C144.007-58.0757 139.546-59.868 136.445-56.768L126.883-47.1763L100.342-73.8958C97.2041-77.0338 94.158-78.4896 90.8344-78.4896C87.5328-78.4896 84.3656-77.0762 81.3108-73.8666L59.3548-51.0118C58.7383-50.3661 58.0898-50.0834 57.529-50.0834C56.9681-50.0834 56.3196-50.3953 55.7323-51.0118Z"/>
  </g>
  <g id="Semibold-L" transform="matrix(1 0 0 1 1957.83 1556)">
   <path d="M16.084 19.7923C16.084 22.9613 18.1637 25.0411 21.3328 25.0411L148.221 25.0411C151.701 25.0411 154.462 22.4653 154.462 18.893C154.462 15.3641 151.701 12.7449 148.221 12.7449L30.076 12.7449C28.8813 12.7449 28.4171 12.3241 28.4171 11.1109L28.4171-89.1538C28.4171-92.6085 25.8413-95.4131 22.269-95.4131C18.7032-95.4131 16.084-92.6085 16.084-89.1538ZM27.2788-76.3196L18.784-67.8185L46.983-39.3087C50.0215-36.2515 52.8372-34.9767 55.9376-34.9767C59.0566-34.9767 62.0148-36.3135 64.9108-39.3087L87.5966-62.6952C88.2945-63.4117 88.9989-63.7205 89.5794-63.7205C90.2218-63.7205 90.9448-63.3932 91.5438-62.7138L116.763-36.9936L106.856-27.0312C104.151-24.3442 105.724-20.6606 109.475-19.6762L146.255-10.5421C149.734-9.63805 152.836-12.6162 151.913-16.1387L142.742-52.9984C141.758-56.7317 138.012-58.2859 135.325-55.599L125.239-45.4946L98.534-72.3727C95.5759-75.3308 92.7047-76.7232 89.5609-76.7232C86.4604-76.7232 83.4837-75.3679 80.5877-72.3542L57.902-48.9862C57.2225-48.2882 56.5429-47.9794 55.9191-47.9794C55.2952-47.9794 54.6156-48.3068 53.9548-48.9862Z"/>
  </g>
  <g id="Medium-L" transform="matrix(1 0 0 1 1661.97 1556)">
   <path d="M16.084 19.3357C16.084 22.3203 18.0355 24.2718 21.0201 24.2718L147.487 24.2718C150.481 24.2718 152.896 22.0091 152.896 18.9271C152.896 15.8926 150.481 13.5824 147.487 13.5824L28.4617 13.5824C27.2544 13.5824 26.8183 13.1937 26.8183 11.9639L26.8183-88.998C26.8183-91.9666 24.5555-94.4297 21.4736-94.4297C18.3942-94.4297 16.084-91.9666 16.084-88.998ZM25.801-74.7374L18.1847-67.1067L46.1636-38.9007C49.0656-36.0001 51.7489-34.7572 54.7089-34.7572C57.6794-34.7572 60.4891-36.0581 63.2647-38.9007L86.5038-62.6683C87.2533-63.4284 87.9815-63.757 88.6057-63.757C89.2998-63.757 90.0505-63.406 90.6972-62.6789L116.375-36.5768L106.031-26.177C103.647-23.8153 105.031-20.6584 108.341-19.7904L144.944-10.8436C148.01-10.056 150.698-12.6163 149.888-15.7289L140.92-52.413C140.052-55.7126 136.849-57.0863 134.475-54.7127L123.993-44.2194L97.163-71.2179C94.3413-74.0395 91.6027-75.3838 88.5952-75.3838C85.6472-75.3838 82.815-74.0725 80.0394-71.2074L56.8003-47.4503C56.0732-46.7127 55.37-46.3841 54.6984-46.3841C54.0267-46.3841 53.3235-46.7232 52.6069-47.4503Z"/>
  </g>
  <g id="Regular-L" transform="matrix(1 0 0 1 1366.38 1556)">
   <path d="M16.084 18.7401C16.084 21.4842 17.8681 23.2684 20.6122 23.2684L146.53 23.2684C148.89 23.2684 150.855 21.414 150.855 18.9716C150.855 16.5819 148.89 14.6748 146.53 14.6748L26.3562 14.6748C25.1324 14.6748 24.7328 14.328 24.7328 13.0766L24.7328-88.7949C24.7328-91.1292 22.8785-93.1469 20.4361-93.1469C17.9911-93.1469 16.084-91.1292 16.084-88.7949ZM23.8733-72.6736L17.4031-66.1782L45.0948-38.3686C47.8189-35.6722 50.3293-34.471 53.1062-34.471C55.883-34.471 58.499-35.725 61.1176-38.3686L85.0784-62.6333C85.8953-63.4502 86.6544-63.8047 87.3356-63.8047C88.0973-63.8047 88.884-63.4226 89.5929-62.6333L115.869-36.0331L104.954-25.0628C102.989-23.1255 104.127-20.6554 106.861-19.9393L143.236-11.2369C145.761-10.6012 147.909-12.6164 147.246-15.1945L138.544-51.6495C137.827-54.3834 135.332-55.5216 133.367-53.5566L122.367-42.5561L95.3747-69.7116C92.731-72.3552 90.1652-73.6369 87.3356-73.6369C84.5865-73.6369 81.9428-72.3829 79.3242-69.7116L55.3634-45.4469C54.5741-44.6576 53.8402-44.3032 53.1062-44.3032C52.3722-44.3032 51.6382-44.6576 50.8489-45.4469Z"/>
  </g>
  <g id="Light-L" transform="matrix(1 0 0 1 1070.11 1556)">
   <path d="M16.084 19.2173C16.084 21.5796 17.6009 23.0966 19.9633 23.0966L146.645 23.0966C148.413 23.0966 149.958 21.7384 149.958 19.8304C149.958 17.9561 148.413 16.5642 146.645 16.5642L24.0659 16.5642C23.0521 16.5642 22.7098 16.2556 22.7098 15.1951L22.7098-89.8255C22.7098-91.6063 21.3517-93.1851 19.4436-93.1851C17.4758-93.1851 16.084-91.6063 16.084-89.8255ZM21.8121-70.4597L16.9259-65.5866L44.026-38.7312C46.5211-36.2829 48.8216-35.1962 51.3503-35.1962C53.8791-35.1962 56.247-36.3166 58.6746-38.7312L83.7424-63.702C84.8456-64.8053 85.7956-65.2933 86.7249-65.2933C87.7347-65.2933 88.7313-64.7585 89.7074-63.702L117.911-35.117L106.29-23.4024C104.745-21.904 105.559-19.9493 107.682-19.4049L143.407-11.5232C145.456-11.0592 147.089-12.5782 146.578-14.6601L138.696-50.4662C138.152-52.5893 136.21-53.4031 134.665-51.858L122.844-40.0369L94.096-69.0054C91.6813-71.4201 89.2873-72.5872 86.7249-72.5872C84.2429-72.5872 81.8283-71.4668 79.4006-69.0054L54.3328-44.0346C53.2763-42.9781 52.3133-42.4901 51.3503-42.4901C50.3873-42.4901 49.4243-42.9781 48.3678-44.0346Z"/>
  </g>
  <g id="Thin-L" transform="matrix(1 0 0 1 773.995 1556)">
   <path d="M16.084 19.8483C16.084 21.7058 17.2475 22.8694 19.1051 22.8694L146.796 22.8694C147.781 22.8694 148.771 22.1675 148.771 20.9663C148.771 19.7735 147.781 19.0632 146.796 19.0632L21.0369 19.0632C20.3007 19.0632 20.0342 18.8051 20.0342 17.9969L20.0342-91.1885C20.0342-92.2374 19.3323-93.2356 18.1311-93.2356C16.7943-93.2356 16.084-92.2374 16.084-91.1885ZM19.086-67.5316L16.2949-64.8041L42.6125-39.2108C44.8046-37.0907 46.8275-36.1554 49.0281-36.1554C51.2287-36.1554 53.2684-37.0991 55.4437-39.2108L81.9755-65.1156C83.4573-66.5974 84.6597-67.2622 85.9172-67.2622C87.2551-67.2622 88.5294-66.5255 89.8589-65.1156L120.612-33.9054L108.057-21.2064C107.067-20.2886 107.452-19.0153 108.767-18.6982L143.634-11.9018C145.052-11.665 146.003-12.5277 145.694-13.9534L138.898-48.9012C138.581-50.2166 137.371-50.6013 136.381-49.6115L123.475-36.705L92.4048-68.0715C90.293-70.1832 88.1262-71.1989 85.9172-71.1989C83.7886-71.1989 81.6768-70.2552 79.5016-68.0715L52.9698-42.1667C51.5599-40.7569 50.294-40.0921 49.0281-40.0921C47.7622-40.0921 46.4963-40.7569 45.0864-42.1667Z"/>
  </g>
  <g id="Ultralight-L" transform="matrix(1 0 0 1 477.587 1556)">
   <path d="M16.084 20.1715C16.084 21.7705 17.0665 22.753 18.6655 22.753L146.874 22.753C147.458 22.753 148.164 22.3873 148.164 21.5481C148.164 20.7043 147.458 20.3431 146.874 20.3431L19.4855 20.3431C18.8915 20.3431 18.6637 20.1109 18.6637 19.432L18.6637-91.8867C18.6637-92.5606 18.298-93.2615 17.4588-93.2615C16.4452-93.2615 16.084-92.5606 16.084-91.8867ZM17.6897-66.0319L15.9717-64.4033L41.8885-39.4565C43.9255-37.5044 45.8061-36.6467 47.8386-36.6467C49.8712-36.6467 51.7428-37.4999 53.7888-39.4565L81.0705-65.8396C82.7463-67.5154 84.0779-68.2706 85.5035-68.2706C87.0094-68.2706 88.426-67.4305 89.9364-65.8396L121.995-33.2848L108.962-20.0816C108.256-19.4611 108.421-18.537 109.323-18.3361L143.751-12.0957C144.845-11.9753 145.447-12.5019 145.242-13.5914L139.002-48.0996C138.801-49.0013 137.966-49.1662 137.261-48.4608L123.798-34.9984L91.5385-67.5931C89.582-69.5497 87.5315-70.4878 85.5035-70.4878C83.5559-70.4878 81.5993-69.6346 79.5533-67.5931L52.2716-41.21C50.6807-39.6191 49.2597-38.8639 47.8386-38.8639C46.4176-38.8639 44.9965-39.6191 43.4057-41.21Z"/>
  </g>
  <g id="Black-M" transform="matrix(1 0 0 1 2862.83 1126)">
   <path d="M12.4609 9.97994C12.4609 13.2823 14.661 15.4824 17.9634 15.4824L118.76 15.4824C123.83 15.4824 127.657 11.9968 127.657 6.81314C127.657 1.63499 123.83-1.85612 118.76-1.85612L31.075-1.85612C30.2878-1.85612 29.7989-2.33949 29.7989-3.12644L29.7989-78.1829C29.7989-83.2474 26.3133-87.08 21.1296-87.08C15.952-87.08 12.4609-83.2474 12.4609-78.1829ZM28.2629-74.6937L17.5656-64.0478L40.3777-40.6748C43.3767-37.5613 46.1886-36.4433 49.2502-36.4433C52.3689-36.4433 55.363-37.6239 58.1798-40.6748L73.2002-57.0146C73.5646-57.4361 74.0498-57.6158 74.3524-57.6158C74.6603-57.6158 75.1452-57.4363 75.4475-57.0717L93.2122-38.4929L87.6147-32.8388C83.9589-29.1827 86.0663-23.7139 91.1058-22.3927L120.31-14.6029C125.036-13.344 129.457-17.6965 128.198-22.428L120.294-51.6948C118.973-56.6772 113.384-58.7275 109.785-55.1288L103.795-49.0814L83.1675-69.8845C80.2308-72.8213 77.3624-74.1157 74.2953-74.1157C71.1763-74.1157 68.1825-72.8781 65.3657-69.8274L50.3453-53.5447C49.9806-53.123 49.5012-52.9433 49.1931-52.9433C48.885-52.9433 48.4056-53.1801 48.098-53.5447Z"/>
  </g>
  <g id="Heavy-M" transform="matrix(1 0 0 1 2567.45 1126)">
   <path d="M12.4609 9.1141C12.4609 12.1902 14.5039 14.2332 17.58 14.2332L117.509 14.2332C121.893 14.2332 125.233 11.1644 125.233 6.68565C125.233 2.22333 121.893-0.861877 117.509-0.861877L28.8682-0.861877C28.0148-0.861877 27.5605-1.29972 27.5605-2.15542L27.5605-77.7012C27.5605-82.0717 24.4918-85.4277 20.013-85.4277C15.5461-85.4277 12.4609-82.0717 12.4609-77.7012ZM26.235-72.5242L16.6663-62.9849L39.2374-39.9149C42.0575-37.0098 44.693-35.9206 47.5732-35.9206C50.497-35.9206 53.2961-37.0698 55.9526-39.9149L71.6603-56.7401C72.0495-57.1729 72.5334-57.3571 72.8558-57.3571C73.1968-57.3571 73.6829-57.1707 74.0076-56.7837L92.1249-37.9928L85.9476-31.7674C82.7389-28.561 84.6006-23.8618 89.0328-22.6984L118.083-15.0455C122.22-13.9444 126.059-17.7049 124.955-21.8579L117.215-50.9703C116.052-55.3589 111.251-57.177 108.086-54.0119L101.609-47.4908L81.1502-68.1056C78.3924-70.8634 75.7087-72.1021 72.8121-72.1021C69.8906-72.1021 67.0892-70.9093 64.4327-68.062L48.725-51.2804C48.338-50.8498 47.8684-50.6657 47.5295-50.6657C47.1907-50.6657 46.7211-50.8934 46.3777-51.2804Z"/>
  </g>
  <g id="Bold-M" transform="matrix(1 0 0 1 2272.23 1126)">
   <path d="M12.4609 8.14554C12.4609 10.9685 14.3282 12.8358 17.1512 12.8358L116.109 12.8358C119.727 12.8358 122.521 10.2332 122.521 6.54304C122.521 2.88146 119.727 0.250322 116.109 0.250322L26.3996 0.250322C25.4722 0.250322 25.0566-0.136578 25.0566-1.06919L25.0566-77.1622C25.0566-80.7564 22.4541-83.5794 18.7639-83.5794C15.0921-83.5794 12.4609-80.7564 12.4609-77.1622ZM23.9666-70.0972L15.6602-61.7959L37.9618-39.0648C40.5818-36.3929 43.02-35.3359 45.6972-35.3359C48.4029-35.3359 50.984-36.45 53.4611-39.0648L69.9377-56.4329C70.3547-56.8786 70.837-57.0677 71.1815-57.0677C71.5598-57.0677 72.0472-56.8734 72.3968-56.4615L90.9085-37.4335L84.0828-30.569C81.3741-27.8654 82.9611-24.0273 86.7139-23.0404L115.591-15.5406C119.069-14.616 122.258-17.7142 121.328-21.2201L113.771-50.1599C112.784-53.8842 108.866-55.4427 106.185-52.7625L99.1629-45.7114L78.8935-66.1156C76.3358-68.6733 73.8588-69.8496 71.153-69.8496C68.4524-69.8496 65.8661-68.707 63.389-66.087L46.9125-48.7475C46.5005-48.307 46.0418-48.1179 45.6686-48.1179C45.2955-48.1179 44.8367-48.3355 44.4533-48.7475Z"/>
  </g>
  <g id="Semibold-M" transform="matrix(1 0 0 1 1976.55 1126)">
   <path d="M12.4609 7.47782C12.4609 10.1262 14.2071 11.8724 16.8555 11.8724L115.144 11.8724C118.233 11.8724 120.651 9.59131 120.651 6.44472C120.651 3.33518 118.233 1.01707 115.144 1.01707L24.6978 1.01707C23.7193 1.01707 23.3305 0.665284 23.3305-0.320351L23.3305-76.7907C23.3305-79.8497 21.0494-82.3052 17.9028-82.3052C14.7791-82.3052 12.4609-79.8497 12.4609-76.7907ZM22.4027-68.424L14.9666-60.9762L37.0824-38.4788C39.5644-35.9676 41.8666-34.9329 44.4039-34.9329C46.9593-34.9329 49.39-36.0228 51.7435-38.4788L68.7501-56.2212C69.1864-56.6757 69.6676-56.8682 70.0273-56.8682C70.4312-56.8682 70.9195-56.6685 71.2864-56.2394L90.0699-37.0479L82.7972-29.7428C80.4332-27.3859 81.8308-24.1414 85.1153-23.2761L113.874-15.8819C116.896-15.0789 119.638-17.7207 118.827-20.7804L111.397-49.6012C110.532-52.8675 107.221-54.247 104.875-51.9012L97.4768-44.4847L77.3377-64.7437C74.918-67.1634 72.5834-68.2967 70.0091-68.2967C67.4609-68.2967 65.023-67.1887 62.6695-64.7255L45.6629-47.0013C45.2338-46.5539 44.7825-46.3614 44.3857-46.3614C43.9889-46.3614 43.5377-46.5721 43.1267-47.0013Z"/>
  </g>
  <g id="Medium-M" transform="matrix(1 0 0 1 1680.62 1126)">
   <path d="M12.4609 6.97152C12.4609 9.4876 14.1152 11.1419 16.6313 11.1419L114.412 11.1419C117.1 11.1419 119.234 9.10457 119.234 6.37018C119.234 3.67921 117.1 1.59844 114.412 1.59844L23.4074 1.59844C22.3902 1.59844 22.0216 1.27329 22.0216 0.24745L22.0216-76.509C22.0216-79.1622 19.9843-81.339 17.2499-81.339C14.5417-81.339 12.4609-79.1622 12.4609-76.509ZM21.2169-67.1554L14.4407-60.3546L36.4156-38.0345C38.793-35.6451 40.9921-34.6272 43.4232-34.6272C45.8646-34.6272 48.1814-35.6988 50.4412-38.0345L67.8496-56.0607C68.3004-56.5218 68.7808-56.7169 69.1521-56.7169C69.5755-56.7169 70.0645-56.5132 70.4444-56.071L89.4341-36.7555L81.8224-29.1163C79.7198-27.0223 80.9738-24.2279 83.9031-23.4549L112.571-16.1407C115.249-15.43 117.651-17.7255 116.931-20.447L109.597-49.1776C108.824-52.0966 105.974-53.3404 103.882-51.2481L96.1983-43.5546L76.1581-63.7034C73.843-66.0186 71.6164-67.1193 69.1419-67.1193C66.7091-67.1193 64.3837-66.0374 62.1239-63.6932L44.7155-45.6772C44.2733-45.2247 43.8277-45.0296 43.413-45.0296C42.9982-45.0296 42.5527-45.235 42.1207-45.6772Z"/>
  </g>
  <g id="Regular-M" transform="matrix(1 0 0 1 1384.92 1126)">
   <path d="M12.4609 6.31114C12.4609 8.65461 13.9954 10.1891 16.3389 10.1891L113.458 10.1891C115.623 10.1891 117.385 8.4697 117.385 6.27294C117.385 4.12794 115.623 2.35676 113.458 2.35676L21.7243 2.35676C20.6566 2.35676 20.3144 2.06634 20.3144 0.98806L20.3144-76.1415C20.3144-78.2654 18.595-80.0788 16.3982-80.0788C14.2321-80.0788 12.4609-78.2654 12.4609-76.1415ZM19.6703-65.5006L13.7548-59.5439L35.5459-37.4549C37.7868-35.2244 39.8514-34.2286 42.1441-34.2286C44.4369-34.2286 46.605-35.2762 48.7424-37.4549L66.6751-55.8513C67.1449-56.3211 67.6242-56.5196 68.0106-56.5196C68.4593-56.5196 68.9492-56.3105 69.3461-55.8513L88.6047-36.3741L80.5509-28.2991C78.7893-26.5481 79.856-24.3408 82.3221-23.6881L110.873-16.4783C113.101-15.8879 115.059-17.7319 114.458-20.0121L107.248-48.625C106.596-51.0911 104.347-52.1578 102.586-50.3962L94.5308-42.3413L74.6194-62.3466C72.4408-64.5253 70.3551-65.5835 68.0106-65.5835C65.7284-65.5835 63.5498-64.5358 61.4123-62.3466L43.4797-43.9502C43.0204-43.4909 42.5823-43.2925 42.1441-43.2925C41.706-43.2925 41.2679-43.4909 40.8086-43.9502Z"/>
  </g>
  <g id="Light-M" transform="matrix(1 0 0 1 1088.61 1126)">
   <path d="M12.4609 6.73891C12.4609 8.74017 13.7559 10.0351 15.7571 10.0351L113.561 10.0351C115.195 10.0351 116.58 8.76059 116.58 7.04293C116.58 5.35992 115.195 4.05074 113.561 4.05074L19.671 4.05074C18.7915 4.05074 18.5006 3.79454 18.5006 2.88737L18.5006-77.0655C18.5006-78.6932 17.2261-80.113 15.5085-80.113C13.7701-80.113 12.4609-78.6932 12.4609-77.0655ZM17.8223-63.5157L13.327-59.0135L34.5876-37.78C36.6233-35.772 38.4997-34.8788 40.5699-34.8788C42.6402-34.8788 44.5859-35.8066 46.5522-37.78L65.4773-56.8095C66.2038-57.536 66.8542-57.8542 67.4631-57.8542C68.1342-57.8542 68.8123-57.5083 69.4488-56.8095L90.4356-35.5528L81.7486-26.8105C80.3635-25.453 81.1393-23.7077 83.0578-23.209L111.027-16.7349C112.827-16.2986 114.323-17.6977 113.859-19.533L107.385-47.5642C106.887-49.4827 105.134-50.2585 103.749-48.8733L94.9585-40.0827L73.473-61.7135C71.4997-63.6868 69.568-64.6424 67.4631-64.6424C65.4204-64.6424 63.4471-63.7145 61.4808-61.7135L42.5557-42.684C41.8569-41.9852 41.2134-41.6669 40.5699-41.6669C39.9265-41.6669 39.283-41.9852 38.5842-42.684Z"/>
  </g>
  <g id="Thin-M" transform="matrix(1 0 0 1 792.433 1126)">
   <path d="M12.4609 7.30468C12.4609 8.85332 13.4391 9.83145 14.9877 9.83145L113.696 9.83145C114.629 9.83145 115.517 9.14531 115.517 8.06131C115.517 6.98933 114.629 6.29117 113.696 6.29117L16.9553 6.29117C16.3248 6.29117 16.1018 6.08023 16.1018 5.39937L16.1018-78.2876C16.1018-79.259 15.4157-80.1583 14.3317-80.1583C13.1591-80.1583 12.4609-79.259 12.4609-78.2876ZM15.3782-60.8906L12.7612-58.3119L33.3203-38.21C35.0844-36.4962 36.7118-35.7388 38.4879-35.7388C40.264-35.7388 41.9155-36.5082 43.6555-38.21L63.8932-58.0768C64.9591-59.1427 65.8359-59.6194 66.7389-59.6194C67.7042-59.6194 68.6313-59.0925 69.5846-58.0768L92.8571-34.4665L83.3328-24.8416C82.4455-24.0046 82.8366-22.8703 84.0309-22.5753L111.23-17.0744C112.465-16.8417 113.35-17.6524 113.067-18.8993L107.566-46.1611C107.271-47.3554 106.175-47.7465 105.288-46.8592L95.5243-37.0955L71.9568-60.8762C70.255-62.5779 68.527-63.3977 66.7389-63.3977C65.0131-63.3977 63.3113-62.6282 61.5713-60.8762L41.3336-41.0093C40.318-39.9937 39.403-39.517 38.4879-39.517C37.5729-39.517 36.6579-39.9937 35.6422-41.0093Z"/>
  </g>
  <g id="Ultralight-M" transform="matrix(1 0 0 1 495.995 1126)">
   <path d="M12.4609 7.59446C12.4609 8.91127 13.2768 9.72713 14.5936 9.72713L113.766 9.72713C114.34 9.72713 114.972 9.34236 114.972 8.58292C114.972 7.8239 114.34 7.43871 113.766 7.43871L15.5644 7.43871C15.0613 7.43871 14.8731 7.25095 14.8731 6.686L14.8731-78.9135C14.8731-79.5488 14.4884-80.1815 13.7289-80.1815C12.8461-80.1815 12.4609-79.5488 12.4609-78.9135ZM14.1263-59.546L12.4715-57.9526L32.6712-38.4302C34.2962-36.8671 35.7961-36.1792 37.4215-36.1792C39.0469-36.1792 40.5477-36.8675 42.1718-38.4302L63.0818-58.7259C64.3216-59.9657 65.3143-60.5235 66.368-60.5235C67.484-60.5235 68.5385-59.9038 69.6541-58.7259L94.0974-33.9101L84.1442-23.8332C83.5119-23.2628 83.7059-22.4414 84.5294-22.2507L111.335-17.2483C112.28-17.1199 112.852-17.6293 112.662-18.5748L107.659-45.4424C107.468-46.2658 106.709-46.4599 106.076-45.8276L95.8141-35.5654L71.1801-60.4473C69.6175-62.01 67.9938-62.7602 66.368-62.7602C64.8045-62.7602 63.2418-62.0719 61.6177-60.4473L40.7077-40.1516C39.5298-38.9737 38.4757-38.4159 37.4215-38.4159C36.3674-38.4159 35.3133-38.9737 34.1354-40.1516Z"/>
  </g>
  <g id="Black-S" transform="matrix(1 0 0 1 2877.71 696)">
   <path d="M9.76562 0.488281C9.76562 3.125 11.5234 4.88281 14.1602 4.88281L93.457 4.88281C97.6074 4.88281 100.732 2.05078 100.732-2.19727C100.732-6.44531 97.6074-9.27734 93.457-9.27734L24.9023-9.27734C24.3164-9.27734 23.9258-9.66797 23.9258-10.2539L23.9258-69.0918C23.9258-73.2422 21.0938-76.3672 16.8457-76.3672C12.5977-76.3672 9.76562-73.2422 9.76562-69.0918ZM22.6562-66.6992L14.0137-58.1055L31.9336-39.7461C34.3262-37.2559 36.5723-36.377 39.0137-36.377C41.5039-36.377 43.8965-37.3047 46.1426-39.7461L57.7637-52.4414C58.0566-52.7832 58.4473-52.9297 58.6914-52.9297C58.9355-52.9297 59.3262-52.7832 59.5703-52.4902L73.4863-37.8906L69.2383-33.5938C66.2598-30.6152 67.9688-26.123 72.0703-25.0488L94.9707-18.9453C98.8281-17.9199 102.441-21.4844 101.416-25.3418L95.2148-48.291C94.1406-52.3438 89.5508-54.0039 86.6211-51.0742L82.0312-46.4355L65.7227-62.8906C63.3789-65.2344 61.084-66.2598 58.6426-66.2598C56.1523-66.2598 53.7598-65.2832 51.5137-62.8418L39.8926-50.1953C39.5996-49.8535 39.209-49.707 38.9648-49.707C38.7207-49.707 38.3301-49.9023 38.0859-50.1953Z"/>
  </g>
  <g id="Heavy-S" transform="matrix(1 0 0 1 2582.09 696)">
   <path d="M9.76562-0.306907C9.76562 2.17999 11.4197 3.83409 13.9066 3.83409L92.3737 3.83409C96.0055 3.83409 98.7617 1.30169 98.7617-2.40471C98.7617-6.09958 96.0055-8.6435 92.3737-8.6435L23.2774-8.6435C22.6108-8.6435 22.2432-8.99955 22.2432-9.66616L22.2432-68.5617C22.2432-72.1819 19.7108-74.9497 16.0044-74.9497C12.3095-74.9497 9.76562-72.1819 9.76562-68.5617ZM21.1581-65.0973L13.2992-57.2642L31.0808-39.0546C33.3466-36.7142 35.4659-35.8468 37.7806-35.8468C40.1325-35.8468 42.3868-36.763 44.5176-39.0546L56.5997-52.0841C56.8811-52.4029 57.2487-52.5379 57.4813-52.5379C57.7255-52.5379 58.0931-52.4029 58.3257-52.1215L72.3224-37.5679L67.6594-32.8677C65.0151-30.2234 66.5512-26.3305 70.2033-25.3715L93.0461-19.291C96.4541-18.3809 99.6294-21.4959 98.7193-24.9154L92.5642-47.807C91.6052-51.4218 87.6262-52.9206 85.0192-50.3136L80.1067-45.3638L64.1438-61.4501C61.9268-63.667 59.7702-64.6579 57.444-64.6579C55.0921-64.6579 52.8378-63.7044 50.707-61.4128L38.6249-48.4205C38.3434-48.1018 37.9874-47.9668 37.7433-47.9668C37.4991-47.9668 37.1431-48.1391 36.8989-48.4205Z"/>
  </g>
  <g id="Bold-S" transform="matrix(1 0 0 1 2286.6 696)">
   <path d="M9.76562-1.19629C9.76562 1.12305 11.3037 2.66113 13.623 2.66113L91.1621 2.66113C94.2139 2.66113 96.5576 0.463867 96.5576-2.63672C96.5576-5.71289 94.2139-7.93457 91.1621-7.93457L21.46-7.93457C20.7031-7.93457 20.3613-8.25195 20.3613-9.00879L20.3613-67.9688C20.3613-70.9961 18.1641-73.3643 15.0635-73.3643C11.9873-73.3643 9.76562-70.9961 9.76562-67.9688ZM19.4824-63.3057L12.5-56.3232L30.127-38.2812C32.251-36.1084 34.2285-35.2539 36.4014-35.2539C38.5986-35.2539 40.6982-36.1572 42.7002-38.2812L55.2979-51.6846C55.5664-51.9775 55.9082-52.0996 56.1279-52.0996C56.3721-52.0996 56.7139-51.9775 56.9336-51.709L71.0205-37.207L65.8936-32.0557C63.623-29.7852 64.9658-26.5625 68.1152-25.7324L90.8936-19.6777C93.7988-18.8965 96.4844-21.5088 95.7031-24.4385L89.5996-47.2656C88.7695-50.3906 85.4736-51.709 83.2275-49.4629L77.9541-44.165L62.3779-59.8389C60.3027-61.9141 58.3008-62.8662 56.1035-62.8662C53.9062-62.8662 51.8066-61.9385 49.8047-59.8145L37.207-46.4355C36.9385-46.1426 36.6211-46.0205 36.377-46.0205C36.1328-46.0205 35.8154-46.167 35.5713-46.4355Z"/>
  </g>
  <g id="Semibold-S" transform="matrix(1 0 0 1 1990.73 696)">
   <path d="M9.76562-1.80947C9.76562 0.394336 11.2237 1.85244 13.4275 1.85244L90.3268 1.85244C92.9786 1.85244 95.038-0.11377 95.038-2.79668C95.038-5.44629 92.9786-7.4458 90.3268-7.4458L20.2069-7.4458C19.3879-7.4458 19.0639-7.73652 19.0639-8.55557L19.0639-67.56C19.0639-70.1785 17.0977-72.2712 14.4147-72.2712C11.7651-72.2712 9.76562-70.1785 9.76562-67.56ZM18.3271-62.0704L11.949-55.6745L29.4693-37.748C31.4956-35.6907 33.3754-34.8451 35.4505-34.8451C37.5411-34.8451 39.5341-35.7396 41.4472-37.748L54.4003-51.4091C54.66-51.6843 54.984-51.7975 55.1948-51.7975C55.439-51.7975 55.763-51.6843 55.9738-51.4246L70.1229-36.9582L64.6761-31.4958C62.6633-29.483 63.8728-26.7225 66.6756-25.9812L89.4095-19.9443C91.9682-19.252 94.316-21.5177 93.6236-24.1097L87.5557-46.8924C86.8145-49.6797 83.9896-50.8736 81.9923-48.8764L76.47-43.3386L61.1604-58.728C59.183-60.7055 57.2877-61.631 55.1793-61.631C53.0887-61.631 51.0957-60.721 49.1826-58.7125L36.2295-45.067C35.9698-44.7918 35.6791-44.6786 35.435-44.6786C35.1908-44.6786 34.9001-44.8073 34.656-45.067Z"/>
  </g>
  <g id="Medium-S" transform="matrix(1 0 0 1 1694.65 696)">
   <path d="M9.76562-2.27441C9.76562-0.158203 11.1631 1.23926 13.2793 1.23926L89.6934 1.23926C92.042 1.23926 93.8857-0.551758 93.8857-2.91797C93.8857-5.24414 92.042-7.0752 89.6934-7.0752L19.2568-7.0752C18.3906-7.0752 18.0801-7.3457 18.0801-8.21191L18.0801-67.25C18.0801-69.5586 16.2891-71.4424 13.9229-71.4424C11.5967-71.4424 9.76562-69.5586 9.76562-67.25ZM17.4512-61.1338L11.5312-55.1826L28.9707-37.3438C30.9229-35.374 32.7285-34.5352 34.7295-34.5352C36.7393-34.5352 38.6514-35.4229 40.4971-37.3438L53.7197-51.2002C53.9727-51.4619 54.2832-51.5684 54.4873-51.5684C54.7314-51.5684 55.042-51.4619 55.2461-51.209L69.4424-36.7695L63.7529-31.0713C61.9355-29.2539 63.0439-26.8438 65.584-26.1699L88.2842-20.1465C90.5801-19.5215 92.6719-21.5244 92.0469-23.8604L86.0059-46.6094C85.332-49.1406 82.8643-50.2402 81.0557-48.4316L75.3447-42.7119L60.2373-57.8857C58.334-59.7891 56.5195-60.6943 54.4785-60.6943C52.4688-60.6943 50.5566-59.7979 48.7109-57.877L35.4883-44.0293C35.2354-43.7676 34.9648-43.6611 34.7207-43.6611C34.4766-43.6611 34.2061-43.7764 33.9619-44.0293Z"/>
  </g>
  <g id="Regular-S" transform="matrix(1 0 0 1 1398.77 696)">
   <path d="M9.76562-2.88086C9.76562-0.878906 11.084 0.439453 13.0859 0.439453L88.8672 0.439453C90.8203 0.439453 92.3828-1.12305 92.3828-3.07617C92.3828-4.98047 90.8203-6.5918 88.8672-6.5918L18.0176-6.5918C17.0898-6.5918 16.7969-6.83594 16.7969-7.76367L16.7969-66.8457C16.7969-68.75 15.2344-70.3613 13.2812-70.3613C11.377-70.3613 9.76562-68.75 9.76562-66.8457ZM16.3086-59.9121L10.9863-54.541L28.3203-36.8164C30.1758-34.9609 31.8848-34.1309 33.7891-34.1309C35.6934-34.1309 37.5-35.0098 39.2578-36.8164L52.832-50.9277C53.0762-51.1719 53.3691-51.2695 53.5645-51.2695C53.8086-51.2695 54.1016-51.1719 54.2969-50.9277L68.5547-36.5234L62.5488-30.5176C60.9863-28.9551 61.9629-27.002 64.1602-26.416L86.8164-20.4102C88.7695-19.873 90.5273-21.5332 89.9902-23.5352L83.9844-46.2402C83.3984-48.4375 81.3965-49.4141 79.834-47.8516L73.877-41.8945L59.0332-56.7871C57.2266-58.5938 55.5176-59.4727 53.5645-59.4727C51.6602-59.4727 49.8535-58.5938 48.0957-56.7871L34.5215-42.6758C34.2773-42.4316 34.0332-42.334 33.7891-42.334C33.5449-42.334 33.3008-42.4316 33.0566-42.6758Z"/>
  </g>
  <g id="Light-S" transform="matrix(1 0 0 1 1102.41 696)">
   <path d="M9.76562-2.50244C9.76562-0.803223 10.8721 0.303224 12.5713 0.303224L88.958 0.303224C90.4419 0.303224 91.6714-0.865725 91.6714-2.39502C91.6714-3.89063 90.4419-5.09327 88.958-5.09327L16.2012-5.09327C15.44-5.09327 15.1924-5.30714 15.1924-6.08351L15.1924-67.6631C15.1924-69.1284 14.0234-70.3916 12.4941-70.3916C10.9683-70.3916 9.76562-69.1284 9.76562-67.6631ZM14.6738-58.1563L10.6079-54.0718L27.4727-37.104C29.1465-35.4453 30.689-34.7061 32.3965-34.7061C34.104-34.7061 35.7139-35.479 37.3203-37.104L51.7725-51.7754C52.2437-52.2466 52.688-52.4502 53.0801-52.4502C53.521-52.4502 53.9805-52.2314 54.3877-51.7754L70.1743-35.7969L63.6084-29.2007C62.3789-27.9863 63.0981-26.4419 64.811-25.9922L86.9526-20.6372C88.5273-20.2363 89.8765-21.5029 89.4605-23.1113L84.1055-45.3018C83.6558-47.0147 82.0928-47.7339 80.8633-46.5044L74.2554-39.8965L58.0191-56.2271C56.394-57.8521 54.8213-58.6401 53.0801-58.6401C51.3877-58.6401 49.7627-57.8672 48.1562-56.2271L33.7041-41.5557C33.2481-41.0996 32.8223-40.896 32.3965-40.896C31.9707-40.896 31.5449-41.0996 31.0889-41.5557Z"/>
  </g>
  <g id="Thin-S" transform="matrix(1 0 0 1 806.174 696)">
   <path d="M9.76562-2.00196C9.76562-0.703126 10.5918 0.123049 11.8906 0.123049L89.0781 0.123049C89.9414 0.123049 90.7305-0.525395 90.7305-1.49415C90.7305-2.44924 89.9414-3.11136 89.0781-3.11136L13.7989-3.11136C13.2578-3.11136 13.0703-3.28518 13.0703-3.86136L13.0703-68.7441C13.0703-69.6289 12.4219-70.4316 11.4531-70.4316C10.4277-70.4316 9.76562-69.6289 9.76562-68.7441ZM12.5117-55.834L10.1074-53.4512L26.3516-37.4844C27.7852-36.0859 29.1074-35.4668 30.5547-35.4668C32.002-35.4668 33.3516-36.0996 34.7578-37.4844L50.3711-52.8965C51.1426-53.6679 51.7871-54.0117 52.4395-54.0117C53.1406-54.0117 53.8203-53.6328 54.5078-52.8965L72.3164-34.836L65.0097-27.459C64.2207-26.7051 64.5996-25.7012 65.6719-25.4316L87.1328-20.9375C88.207-20.7168 89.0156-21.4629 88.7598-22.5508L84.2656-44.0606C83.9961-45.1328 83.0137-45.5117 82.2246-44.7227L74.7559-37.2539L56.6778-55.4863C55.293-56.8711 53.9004-57.5391 52.4395-57.5391C51.0273-57.5391 49.6426-56.9063 48.2363-55.4863L32.6231-40.0742C31.8867-39.3379 31.2207-38.9942 30.5547-38.9942C29.8887-38.9942 29.2227-39.3379 28.4864-40.0742Z"/>
  </g>
  <g id="Ultralight-S" transform="matrix(1 0 0 1 509.704 696)">
   <path d="M9.76562-1.74561C9.76562-0.651857 10.4482 0.0307649 11.542 0.0307649L89.1396 0.0307649C89.6851 0.0307649 90.2486-0.35108 90.2486-1.03273C90.2486-1.71096 89.6851-2.09623 89.1396-2.09623L12.5684-2.09623C12.1402-2.09623 11.9834-2.24955 11.9834-2.72318L11.9834-69.2978C11.9834-69.8852 11.6016-70.4521 10.9199-70.4521C10.1509-70.4521 9.76562-69.8852 9.76562-69.2978ZM11.4043-54.6446L9.85108-53.1333L25.7774-37.6792C27.0879-36.4141 28.2974-35.8564 29.6114-35.8564C30.9253-35.8564 32.1416-36.4175 33.4454-37.6792L49.6533-53.4707C50.5786-54.396 51.3257-54.8115 52.1113-54.8115C52.9458-54.8115 53.7383-54.3506 54.5693-53.4707L73.4135-34.3438L65.7275-26.5669C65.164-26.0489 65.3686-25.3218 66.1128-25.1445L87.2251-21.0913C88.043-20.9629 88.5747-21.4424 88.4009-22.2637L84.3477-43.4248C84.1704-44.169 83.4853-44.3736 82.9219-43.8101L75.0122-35.9004L55.9907-55.1069C54.729-56.3687 53.4287-56.9751 52.1113-56.9751C50.8428-56.9751 49.5811-56.4141 48.2773-55.1069L32.0694-39.3155C31.1895-38.4356 30.4004-38.0201 29.6114-38.0201C28.8223-38.0201 28.0332-38.4356 27.1534-39.3155Z"/>
  </g>
 </g>
</svg>
