<?xml version="1.0" encoding="UTF-8"?>
<svg width="3300px" height="2200px" viewBox="0 0 3300 2200" version="1.1" xmlns="http://www.w3.org/2000/svg" xmlns:xlink="http://www.w3.org/1999/xlink">
    <title>music.note.circle</title>
    <g id="App-Symbols" stroke="none" stroke-width="1" fill="none" fill-rule="evenodd">
        <g id="music.note.circle">
            <g id="Notes">
                <rect id="artboard" fill="#FFFFFF" fill-rule="nonzero" x="0" y="0" width="3300" height="2200"></rect>
                <line x1="263" y1="292" x2="3036" y2="292" id="Path" stroke="#000000" stroke-width="0.5"></line>
                <text id="Weight/Scale-Variations" fill="#000000" fill-rule="nonzero" font-family="SFPro-Bold, SF Pro" font-size="13" font-weight="bold">
                    <tspan x="263" y="322">Weight/Scale Variations</tspan>
                </text>
                <text id="Ultralight" fill="#000000" fill-rule="nonzero" font-family="SFPro-Regular, SF Pro" font-size="13" font-weight="normal">
                    <tspan x="531.711" y="322">Ultralight</tspan>
                </text>
                <text id="Thin" fill="#000000" fill-rule="nonzero" font-family="SFPro-Regular, SF Pro" font-size="13" font-weight="normal">
                    <tspan x="842.922" y="322">Thin</tspan>
                </text>
                <text id="Light" fill="#000000" fill-rule="nonzero" font-family="SFPro-Regular, SF Pro" font-size="13" font-weight="normal">
                    <tspan x="1137.63" y="322">Light</tspan>
                </text>
                <text id="Regular" fill="#000000" fill-rule="nonzero" font-family="SFPro-Regular, SF Pro" font-size="13" font-weight="normal">
                    <tspan x="1426.34" y="322">Regular</tspan>
                </text>
                <text id="Medium" fill="#000000" fill-rule="nonzero" font-family="SFPro-Regular, SF Pro" font-size="13" font-weight="normal">
                    <tspan x="1722.06" y="322">Medium</tspan>
                </text>
                <text id="Semibold" fill="#000000" fill-rule="nonzero" font-family="SFPro-Regular, SF Pro" font-size="13" font-weight="normal">
                    <tspan x="2014.77" y="322">Semibold</tspan>
                </text>
                <text id="Bold" fill="#000000" fill-rule="nonzero" font-family="SFPro-Regular, SF Pro" font-size="13" font-weight="normal">
                    <tspan x="2325.98" y="322">Bold</tspan>
                </text>
                <text id="Heavy" fill="#000000" fill-rule="nonzero" font-family="SFPro-Regular, SF Pro" font-size="13" font-weight="normal">
                    <tspan x="2617.69" y="322">Heavy</tspan>
                </text>
                <text id="Black" fill="#000000" fill-rule="nonzero" font-family="SFPro-Regular, SF Pro" font-size="13" font-weight="normal">
                    <tspan x="2916.9" y="322">Black</tspan>
                </text>
                <line x1="263" y1="1903" x2="3036" y2="1903" id="Path" stroke="#000000" stroke-width="0.5"></line>
                <g id="Group" transform="translate(264.367190, 1918.068400)" fill="#000000" fill-rule="nonzero">
                    <path d="M7.88086,15.761678 C8.96156,15.761678 9.97717667,15.5566 10.92771,15.146444 C11.8782433,14.7362873 12.7164767,14.166626 13.44241,13.43746 C14.1682767,12.7082933 14.7379433,11.86845 15.15141,10.91793 C15.56481,9.96741 15.77151,8.95504 15.77151,7.88082 C15.77151,6.8066 15.56481,5.79422667 15.15141,4.8437 C14.7379433,3.89316667 14.1666433,3.05333333 13.43751,2.3242 C12.70831,1.595 11.8684767,1.02533333 10.91801,0.6152 C9.96747667,0.205066667 8.95183667,0 7.87109,0 C6.79687,0 5.7845,0.205066667 4.83398,0.6152 C3.88346,1.02533333 3.04687333,1.595 2.32422,2.3242 C1.60156,3.05333333 1.03352333,3.89316667 0.62011,4.8437 C0.206703333,5.79422667 -8.8817842e-16,6.8066 -8.8817842e-16,7.88082 C-8.8817842e-16,8.95504 0.206703333,9.96741 0.62011,10.91793 C1.03352333,11.86845 1.60318667,12.7082933 2.3291,13.43746 C3.05501333,14.166626 3.89323,14.7362873 4.84375,15.146444 C5.79427,15.5566 6.80664,15.761678 7.88086,15.761678 Z M7.88086,14.277303 C6.99544,14.277303 6.16699,14.1129153 5.39551,13.78414 C4.62402333,13.4553667 3.94694,12.99801 3.36426,12.41207 C2.78157333,11.82613 2.32584333,11.14579 1.99707,10.37105 C1.66829,9.59631 1.5039,8.76623333 1.5039,7.88082 C1.5039,6.9954 1.66666333,6.16532 1.99219,5.39058 C2.31771,4.61586 2.77181,3.93553333 3.35449,3.3496 C3.93717,2.76366667 4.61425333,2.3063 5.38574,1.9775 C6.15722667,1.6487 6.98567667,1.4843 7.87109,1.4843 C8.76303667,1.4843 9.59474333,1.6487 10.36621,1.9775 C11.1376767,2.3063 11.8163767,2.76366667 12.40231,3.3496 C12.9882433,3.93553333 13.4472433,4.61586 13.77931,5.39058 C14.11131,6.16532 14.27731,6.9954 14.27731,7.88082 C14.27731,8.76623333 14.1129433,9.59631 13.78421,10.37105 C13.45541,11.14579 12.9996767,11.82613 12.41701,12.41207 C11.8343433,12.99801 11.15561,13.4553667 10.38081,13.78414 C9.60607667,14.1129153 8.77276,14.277303 7.88086,14.277303 Z M4.47265,7.89058 C4.47265,8.10542667 4.54101,8.27958333 4.67773,8.41305 C4.81445,8.54651 4.99674333,8.61324 5.22461,8.61324 L7.13867,8.61324 L7.13867,10.53707 C7.13867,10.7584233 7.2054,10.93746 7.33886,11.07418 C7.47232667,11.2109 7.64648333,11.27926 7.86133,11.27926 C8.08268333,11.27926 8.26171667,11.2109 8.39843,11.07418 C8.53515,10.93746 8.60351,10.7584233 8.60351,10.53707 L8.60351,8.61324 L10.52731,8.61324 C10.74871,8.61324 10.9277433,8.54651 11.06441,8.41305 C11.2011433,8.27958333 11.26951,8.10542667 11.26951,7.89058 C11.26951,7.66922667 11.2011433,7.49019333 11.06441,7.35348 C10.9277433,7.21676 10.74871,7.1484 10.52731,7.1484 L8.60351,7.1484 L8.60351,5.23433 C8.60351,5.00644333 8.53515,4.82416667 8.39843,4.6875 C8.26171667,4.55076667 8.08268333,4.4824 7.86133,4.4824 C7.64648333,4.4824 7.47232667,4.55076667 7.33886,4.6875 C7.2054,4.82416667 7.13867,5.00644333 7.13867,5.23433 L7.13867,7.1484 L5.22461,7.1484 C4.99674333,7.1484 4.81445,7.21676 4.67773,7.35348 C4.54101,7.49019333 4.47265,7.66922667 4.47265,7.89058 Z" id="Shape"></path>
                </g>
                <g id="Group" transform="translate(283.615050, 1915.988300)" fill="#000000" fill-rule="nonzero">
                    <path d="M9.96095,19.92186 C11.3216167,19.92186 12.60255,19.6614433 13.80375,19.14061 C15.0048833,18.6197767 16.06445,17.9003744 16.98245,16.9824031 C17.9003833,16.0644344 18.6197833,15.0048633 19.14065,13.80369 C19.66145,12.6025167 19.92185,11.3215933 19.92185,9.96092 C19.92185,8.60024 19.66145,7.3193 19.14065,6.1181 C18.6197833,4.91696667 17.9003833,3.8574 16.98245,2.9394 C16.06445,2.02146667 15.00325,1.30206667 13.79885,0.7812 C12.5943833,0.2604 11.3118167,0 9.95115,0 C8.59048333,0 7.30956667,0.2604 6.1084,0.7812 C4.90722667,1.30206667 3.84928333,2.02146667 2.93457,2.9394 C2.01985667,3.8574 1.30208333,4.91696667 0.78125,6.1181 C0.260416667,7.3193 8.8817842e-16,8.60024 8.8817842e-16,9.96092 C8.8817842e-16,11.3215933 0.260416667,12.6025167 0.78125,13.80369 C1.30208333,15.0048633 2.02148333,16.0644344 2.93945,16.9824031 C3.85741667,17.9003744 4.91698667,18.6197767 6.11816,19.14061 C7.31933333,19.6614433 8.60026333,19.92186 9.96095,19.92186 Z M9.96095,18.2617 C8.80859667,18.2617 7.73111667,18.0468563 6.72851,17.617169 C5.72591,17.1874813 4.84537667,16.593405 4.08691,15.83494 C3.32845,15.07648 2.73600333,14.1959467 2.30957,13.19334 C1.88313667,12.1907333 1.66992,11.11326 1.66992,9.96092 C1.66992,8.80857333 1.88313667,7.7311 2.30957,6.7285 C2.73600333,5.7259 3.32682333,4.84373333 4.08203,4.082 C4.83723667,3.32026667 5.71614333,2.7262 6.71875,2.2998 C7.72135,1.87333333 8.79881667,1.6601 9.95115,1.6601 C11.1034833,1.6601 12.18095,1.87333333 13.18355,2.2998 C14.18615,2.7262 15.0683167,3.32026667 15.83005,4.082 C16.5917833,4.84373333 17.1874833,5.7259 17.61715,6.7285 C18.0468833,7.7311 18.26175,8.80857333 18.26175,9.96092 C18.26175,11.11326 18.0485167,12.1907333 17.62205,13.19334 C17.19565,14.1959467 16.6032167,15.07648 15.84475,15.83494 C15.0862833,16.593405 14.2041167,17.1874813 13.19825,17.617169 C12.1923833,18.0468563 11.1132833,18.2617 9.96095,18.2617 Z M5.64453,9.97068 C5.64453,10.20506 5.72265333,10.39712 5.8789,10.54686 C6.03515333,10.6966 6.23697667,10.77147 6.48437,10.77147 L9.13085,10.77147 L9.13085,13.43748 C9.13085,13.6783667 9.20571667,13.8753067 9.35545,14.0283 C9.50518333,14.1812933 9.69725,14.25779 9.93165,14.25779 C10.17905,14.25779 10.3808833,14.1812933 10.53715,14.0283 C10.69335,13.8753067 10.77145,13.6783667 10.77145,13.43748 L10.77145,10.77147 L13.42775,10.77147 C13.6686167,10.77147 13.8671833,10.6966 14.02345,10.54686 C14.1797167,10.39712 14.25785,10.20506 14.25785,9.97068 C14.25785,9.72328667 14.1797167,9.52309333 14.02345,9.3701 C13.8671833,9.21710667 13.6686167,9.14061 13.42775,9.14061 L10.77145,9.14061 L10.77145,6.4941 C10.77145,6.24023333 10.69335,6.0368 10.53715,5.8838 C10.3808833,5.7308 10.17905,5.6543 9.93165,5.6543 C9.69725,5.6543 9.50518333,5.7308 9.35545,5.8838 C9.20571667,6.0368 9.13085,6.24023333 9.13085,6.4941 L9.13085,9.14061 L6.48437,9.14061 C6.23046333,9.14061 6.02701333,9.21710667 5.87402,9.3701 C5.72102667,9.52309333 5.64453,9.72328667 5.64453,9.97068 Z" id="Shape"></path>
                </g>
                <g id="Group" transform="translate(307.901860, 1913.224600)" fill="#000000" fill-rule="nonzero">
                    <path d="M12.71484,25.43946 C14.10804,25.43946 15.4378067,25.22299 16.70414,24.79005 C17.9704067,24.3571033 19.13414,23.7500067 20.19534,22.96876 C21.25654,22.1875067 22.1793733,21.2662827 22.96384,20.205088 C23.7483733,19.1438893 24.3571067,17.9785233 24.79004,16.70899 C25.2229733,15.4394633 25.43944,14.11134 25.43944,12.72462 C25.43944,11.3313933 25.2229733,10.0016533 24.79004,8.7354 C24.3571067,7.46906667 23.7483733,6.30533333 22.96384,5.2442 C22.1793733,4.183 21.25654,3.26013333 20.19534,2.4756 C19.13414,1.69106667 17.9687733,1.08233333 16.69924,0.6494 C15.4297067,0.216466667 14.0983067,0 12.70504,0 C11.31184,0 9.98210667,0.216466667 8.71584,0.6494 C7.44955333,1.08233333 6.28743667,1.69106667 5.22949,2.4756 C4.17155,3.26013333 3.25032667,4.183 2.46582,5.2442 C1.68131333,6.30533333 1.07421667,7.46906667 0.64453,8.7354 C0.214843333,10.0016533 0,11.3313933 0,12.72462 C0,14.11134 0.21647,15.4394633 0.64941,16.70899 C1.08235667,17.9785233 1.68945333,19.1438893 2.4707,20.205088 C3.25195333,21.2662827 4.17317667,22.1875067 5.23437,22.96876 C6.29557,23.7500067 7.45929333,24.3571033 8.72554,24.79005 C9.99187333,25.22299 11.32164,25.43946 12.71484,25.43946 Z M12.71484,23.62306 C11.51044,23.62306 10.3629733,23.43914 9.27244,23.0713 C8.18196,22.70346 7.18424667,22.18751 6.2793,21.52345 C5.37434667,20.8593853 4.58821333,20.0732513 3.9209,19.165048 C3.25358,18.2568427 2.73763,17.2574933 2.37305,16.167 C2.00846333,15.0765067 1.82617,13.9290467 1.82617,12.72462 C1.82617,11.51368 2.00846333,10.3629733 2.37305,9.2725 C2.73763,8.18196667 3.25195333,7.1826 3.91602,6.2744 C4.58008,5.3662 5.36458333,4.58006667 6.26953,3.916 C7.17447667,3.25193333 8.17221333,2.73763333 9.26274,2.3731 C10.3532067,2.0085 11.50064,1.8262 12.70504,1.8262 C13.9159733,1.8262 15.0667067,2.0085 16.15724,2.3731 C17.2477067,2.73763333 18.24704,3.25193333 19.15524,3.916 C20.06344,4.58006667 20.8495733,5.3662 21.51364,6.2744 C22.1777067,7.1826 22.6936733,8.18196667 23.06154,9.2725 C23.42934,10.3629733 23.6134125,11.51368 23.6134125,12.72462 C23.6197733,13.9290467 23.44074,15.0765067 23.07614,16.167 C22.7116067,17.2574933 22.1956733,18.2568427 21.52834,19.165048 C20.8610067,20.0732513 20.07324,20.8593853 19.16504,21.52345 C18.25684,22.18751 17.2575067,22.70346 16.16704,23.0713 C15.0765067,23.43914 13.9257733,23.62306 12.71484,23.62306 Z M7.19726,12.73438 C7.19726,12.9882867 7.28352333,13.19825 7.45605,13.36427 C7.62857667,13.5302833 7.84830667,13.61329 8.11524,13.61329 L11.80664,13.61329 L11.80664,17.31446 C11.80664,17.5813867 11.88964,17.7994867 12.05564,17.96876 C12.22164,18.1380333 12.4316067,18.22267 12.68554,18.22267 C12.9590067,18.22267 13.1803733,18.1380333 13.34964,17.96876 C13.5189067,17.7994867 13.60354,17.5813867 13.60354,17.31446 L13.60354,13.61329 L17.30464,13.61329 C17.5715733,13.61329 17.7896733,13.5302833 17.95894,13.36427 C18.1282733,13.19825 18.21294,12.9882867 18.21294,12.73438 C18.21294,12.4609467 18.1282733,12.2395933 17.95894,12.07032 C17.7896733,11.9010533 17.5715733,11.81642 17.30464,11.81642 L13.60354,11.81642 L13.60354,8.125 C13.60354,7.8516 13.5189067,7.63023333 13.34964,7.4609 C13.1803733,7.29163333 12.9590067,7.207 12.68554,7.207 C12.4316067,7.207 12.22164,7.29326667 12.05564,7.4658 C11.88964,7.63833333 11.80664,7.85806667 11.80664,8.125 L11.80664,11.81642 L8.11524,11.81642 C7.8418,11.81642 7.62044333,11.9010533 7.45117,12.07032 C7.28189667,12.2395933 7.19726,12.4609467 7.19726,12.73438 Z" id="Shape"></path>
                </g>
                <text id="Design-Variations" fill="#000000" fill-rule="nonzero" font-family="SFPro-Bold, SF Pro" font-size="13" font-weight="bold">
                    <tspan x="263" y="1953">Design Variations</tspan>
                </text>
                <text id="Symbols-are-supported-in-up-to-nine-weights-and-three-scales." fill="#000000" fill-rule="nonzero" font-family="SFPro-Regular, SF Pro" font-size="13" font-weight="normal">
                    <tspan x="263" y="1971">Symbols are supported in up to nine weights and three scales.</tspan>
                </text>
                <text id="For-optimal-layout-with-text-and-other-symbols,-vertically-align" fill="#000000" fill-rule="nonzero" font-family="SFPro-Regular, SF Pro" font-size="13" font-weight="normal">
                    <tspan x="263" y="1989">For optimal layout with text and other symbols, vertically align</tspan>
                </text>
                <text id="symbols-with-the-adjacent-text." fill="#000000" fill-rule="nonzero" font-family="SFPro-Regular, SF Pro" font-size="13" font-weight="normal">
                    <tspan x="263" y="2007">symbols with the adjacent text.</tspan>
                </text>
                <line x1="776" y1="1919" x2="776" y2="1933" id="Path" stroke="#00B1F5" stroke-width="0.5"></line>
                <g id="Group" transform="translate(778.490230, 1918.732400)" fill="#000000" fill-rule="nonzero">
                    <path d="M0.82032,14.42385 C1.08073333,14.42385 1.28255667,14.3685115 1.42579,14.2578344 C1.56901667,14.1471575 1.68620333,13.9551 1.77735,13.681662 L3.03711,10.2344 L8.79887,10.2344 L10.05857,13.681662 C10.1497033,13.9551 10.2669033,14.1471575 10.41017,14.2578344 C10.55337,14.3685115 10.7519367,14.42385 11.00587,14.42385 C11.26627,14.42385 11.47297,14.3522354 11.62597,14.2090062 C11.77897,14.0657767 11.85547,13.8704643 11.85547,13.623069 C11.85547,13.473329 11.81967,13.297546 11.74807,13.09572 L7.16797,0.8985 C7.05078333,0.598966667 6.89128,0.374333333 6.68946,0.2246 C6.48763333,0.0748666667 6.23047,0 5.91797,0 C5.31250333,0 4.90234667,0.296233333 4.6875,0.8887 L0.10743,13.10549 C0.03581,13.3073133 -4.4408921e-16,13.4830947 -4.4408921e-16,13.632834 C-4.4408921e-16,13.88023 0.0732433333,14.073915 0.21973,14.2138891 C0.366216667,14.353863 0.566413333,14.42385 0.82032,14.42385 Z M3.51563,8.75002 L5.88868,2.1778 L5.9375,2.1778 L8.31057,8.75002 L3.51563,8.75002 Z" id="Shape"></path>
                </g>
                <line x1="793.197" y1="1919" x2="793.197" y2="1933" id="Path" stroke="#00B1F5" stroke-width="0.5"></line>
                <text id="Margins" fill="#000000" fill-rule="nonzero" font-family="SFPro-Bold, SF Pro" font-size="13" font-weight="bold">
                    <tspan x="776" y="1953">Margins</tspan>
                </text>
                <text id="Leading-and-trailing-margins-on-the-left-and-right-side-of-each-symbol" fill="#000000" fill-rule="nonzero" font-family="SFPro-Regular, SF Pro" font-size="13" font-weight="normal">
                    <tspan x="776" y="1971">Leading and trailing margins on the left and right side of each symbol</tspan>
                </text>
                <text id="can-be-adjusted-by-modifying-the-x-location-of-the-margin-guidelines." fill="#000000" fill-rule="nonzero" font-family="SFPro-Regular, SF Pro" font-size="13" font-weight="normal">
                    <tspan x="776" y="1989">can be adjusted by modifying the x-location of the margin guidelines.</tspan>
                </text>
                <text id="Modifications-are-automatically-applied-proportionally-to-all" fill="#000000" fill-rule="nonzero" font-family="SFPro-Regular, SF Pro" font-size="13" font-weight="normal">
                    <tspan x="776" y="2007">Modifications are automatically applied proportionally to all</tspan>
                </text>
                <text id="scales-and-weights." fill="#000000" fill-rule="nonzero" font-family="SFPro-Regular, SF Pro" font-size="13" font-weight="normal">
                    <tspan x="776" y="2025">scales and weights.</tspan>
                </text>
                <g id="Group" transform="translate(1291.246849, 1914.517550)" fill="#000000" fill-rule="nonzero">
                    <path d="M0.594951479,20.3476805 L2.29417148,22.0566705 C2.72385815,22.4928705 3.17795815,22.6946938 3.65647148,22.6621405 C4.13498481,22.6295872 4.60536148,22.3561505 5.06760148,21.8418305 L15.7609515,10.0547205 L14.7941515,9.07815049 L4.17893148,20.7578405 C4.00315148,20.9596605 3.82574148,21.0735938 3.64670148,21.0996405 C3.46766815,21.1256805 3.26096481,21.0215138 3.02659148,20.7871405 L1.85471148,19.6250305 C1.62033815,19.3906545 1.51780148,19.1839482 1.54710148,19.0049115 C1.57639481,18.8258748 1.69195148,18.6452108 1.89377148,18.4629193 L13.3683515,7.66215049 L12.3918515,6.69535049 L0.800031479,17.5840125 C0.305238146,18.0397418 0.039938146,18.5052368 0.00413147929,18.9804975 C-0.0316751874,19.4557595 0.165264813,19.9114872 0.594951479,20.3476805 Z M7.01096148,2.15435049 C6.80262815,2.35615049 6.68544148,2.58725049 6.65940148,2.84765049 C6.63336148,3.10811716 6.67893481,3.33598382 6.79612148,3.53125049 C6.91330815,3.71358382 7.08420481,3.85031716 7.30881148,3.94145049 C7.53342481,4.03258382 7.80850481,4.03908382 8.13405148,3.96095049 C8.86318481,3.79168382 9.60211815,3.72171716 10.3508515,3.75105049 C11.0995181,3.78031716 11.8319181,4.02931716 12.5480515,4.49805049 L11.9621515,5.95315049 C11.7928848,6.36981716 11.7456848,6.73278382 11.8205515,7.04205049 C11.8954181,7.35125049 12.0663181,7.64258382 12.3332515,7.91605049 L14.6281515,10.2305005 C14.8690181,10.4778938 15.1033848,10.6211205 15.3312515,10.6601805 C15.5591181,10.6992472 15.8130181,10.6927372 16.0929515,10.6406505 L17.1574515,10.4453405 L17.8215515,11.1191705 L17.7824515,11.6758105 C17.7629181,11.9232038 17.7938515,12.1510672 17.8752515,12.3594005 C17.9565848,12.5677338 18.1177181,12.7923438 18.3586515,13.0332305 L19.1203515,13.7754205 C19.3612181,14.0163072 19.6232515,14.1416338 19.9064515,14.1514005 C20.1896515,14.1611605 20.4484515,14.0488538 20.6828515,13.8144805 L23.5929515,10.8945605 C23.8273515,10.6601872 23.9412848,10.4046538 23.9347515,10.1279605 C23.9282848,9.85126716 23.8045848,9.59247716 23.5636515,9.35159049 L22.7922515,8.58987049 C22.5578515,8.34899049 22.3381181,8.18461716 22.1330515,8.09675049 C21.9279848,8.00881716 21.7049848,7.97461716 21.4640515,7.99415049 L20.8879515,8.04295049 L20.2433515,7.40825049 L20.4875515,6.28515049 C20.5526181,6.00521716 20.5395848,5.74318382 20.4484515,5.49905049 C20.3573181,5.25491716 20.1652515,4.98635049 19.8722515,4.69335049 L17.6750515,2.50585049 C16.8417181,1.67905049 15.9546515,1.05895049 15.0138515,0.64555049 C14.0731181,0.23215049 13.1258515,0.0173171567 12.1720515,0.00105049002 C11.2183181,-0.0152828433 10.3003515,0.15885049 9.41815148,0.52345049 C8.53601815,0.88805049 7.73362148,1.43168382 7.01096148,2.15435049 Z M8.50515148,2.52545049 C9.11061815,2.08271716 9.76001815,1.76695049 10.4533515,1.57815049 C11.1466848,1.38935049 11.8481848,1.32911716 12.5578515,1.39745049 C13.2674515,1.46585049 13.9559181,1.65628382 14.6232515,1.96875049 C15.2905848,2.28128382 15.9009515,2.71748382 16.4543515,3.27735049 L18.8859515,5.68945049 C19.0031515,5.80665049 19.0763848,5.92058382 19.1056515,6.03125049 C19.1349848,6.14191716 19.1301181,6.28191716 19.0910515,6.45125049 L18.7687515,7.93555049 L20.2726515,9.41995049 L21.2590515,9.36136049 C21.3827181,9.35484716 21.4771181,9.36298382 21.5422515,9.38577049 C21.6073181,9.40855716 21.6886848,9.46877716 21.7863515,9.56643049 L22.3625515,10.1426105 L19.9211515,12.5840105 L19.3449515,12.0078405 C19.2472848,11.9101872 19.1854181,11.8288072 19.1593515,11.7637005 C19.1333515,11.6985938 19.1236181,11.6009372 19.1301515,11.4707305 L19.1984515,10.4941705 L17.7043515,9.00979049 L16.1808515,9.26370049 C16.0181181,9.29625382 15.8895515,9.30113716 15.7951515,9.27835049 C15.7007515,9.25556382 15.5916848,9.18557716 15.4679515,9.06839049 L13.4660515,7.06645049 C13.3358515,6.94925049 13.2626181,6.83695049 13.2463515,6.72955049 C13.2300848,6.62208382 13.2609848,6.47721716 13.3390515,6.29495049 L14.2179515,4.20515049 C13.4367515,3.47595049 12.5578515,2.97138382 11.5812515,2.69145049 C10.6047181,2.41151716 9.60861815,2.42128382 8.59295148,2.72075049 C8.51488481,2.74028382 8.46445148,2.72561716 8.44165148,2.67675049 C8.41885148,2.62795049 8.44001815,2.57751716 8.50515148,2.52545049 Z" id="Shape"></path>
                </g>
                <text id="Exporting" fill="#000000" fill-rule="nonzero" font-family="SFPro-Bold, SF Pro" font-size="13" font-weight="bold">
                    <tspan x="1289" y="1953">Exporting</tspan>
                </text>
                <text id="Symbols-should-be-outlined-when-exporting-to-ensure-the" fill="#000000" fill-rule="nonzero" font-family="SFPro-Regular, SF Pro" font-size="13" font-weight="normal">
                    <tspan x="1289" y="1971">Symbols should be outlined when exporting to ensure the</tspan>
                </text>
                <text id="design-is-preserved-when-submitting-to-Xcode." fill="#000000" fill-rule="nonzero" font-family="SFPro-Regular, SF Pro" font-size="13" font-weight="normal">
                    <tspan x="1289" y="1989">design is preserved when submitting to Xcode.</tspan>
                </text>
                <text id="template-version" fill="#000000" fill-rule="nonzero" font-family="SFPro-Regular, SF Pro" font-size="13" font-weight="normal">
                    <tspan x="2948" y="1933">Template v.3.0</tspan>
                </text>
                <text id="Requires-Xcode-13-or-greater" fill="#000000" fill-rule="nonzero" font-family="SFPro-Regular, SF Pro" font-size="13" font-weight="normal">
                    <tspan x="2860" y="1951">Requires Xcode 13 or greater</tspan>
                </text>
                <text id="descriptive-name" fill="#000000" fill-rule="nonzero" font-family="SFPro-Regular, SF Pro" font-size="13" font-weight="normal">
                    <tspan x="2814" y="1969">Generated from calendar.badge.plus</tspan>
                </text>
                <text id="Typeset-at-100-points" fill="#000000" fill-rule="nonzero" font-family="SFPro-Regular, SF Pro" font-size="13" font-weight="normal">
                    <tspan x="2905" y="1987">Typeset at 100 points</tspan>
                </text>
                <text id="Small" fill="#000000" fill-rule="nonzero" font-family="SFPro-Regular, SF Pro" font-size="13" font-weight="normal">
                    <tspan x="263" y="726">Small</tspan>
                </text>
                <text id="Medium" fill="#000000" fill-rule="nonzero" font-family="SFPro-Regular, SF Pro" font-size="13" font-weight="normal">
                    <tspan x="263" y="1156">Medium</tspan>
                </text>
                <text id="Large" fill="#000000" fill-rule="nonzero" font-family="SFPro-Regular, SF Pro" font-size="13" font-weight="normal">
                    <tspan x="263" y="1586">Large</tspan>
                </text>
            </g>
            <g id="Guides" transform="translate(263.000000, 625.041000)">
                <g id="H-reference" transform="translate(76.993347, 0.500000)" fill="#00ADE6" fill-rule="nonzero">
                    <path d="M0,70.459 L2.644353,70.459 L28.334853,3.3264 L29.036753,3.3264 L29.036753,0 L27.129353,0 L0,70.459 Z M10.694853,45.9793 L45.988453,45.9793 L45.237753,43.7302 L11.444853,43.7302 L10.694853,45.9793 Z M54.125953,70.459 L56.770353,70.459 L29.644753,0 L28.439353,0 L28.439353,3.3264 L54.125953,70.459 Z" id="Shape"></path>
                </g>
                <line x1="0" y1="70.959" x2="2773" y2="70.959" id="Baseline-S" stroke="#00ADE6" stroke-width="0.5"></line>
                <line x1="0" y1="0.5" x2="2773" y2="0.5" id="Capline-S" stroke="#00ADE6" stroke-width="0.5"></line>
                <g id="H-reference" transform="translate(76.993347, 430.500000)" fill="#00ADE6" fill-rule="nonzero">
                    <path d="M0,70.459 L2.644353,70.459 L28.334853,3.3264 L29.036753,3.3264 L29.036753,0 L27.129353,0 L0,70.459 Z M10.694853,45.9793 L45.988453,45.9793 L45.237753,43.7302 L11.444853,43.7302 L10.694853,45.9793 Z M54.125953,70.459 L56.770353,70.459 L29.644753,0 L28.439353,0 L28.439353,3.3264 L54.125953,70.459 Z" id="Shape"></path>
                </g>
                <line x1="0" y1="500.959" x2="2773" y2="500.959" id="Baseline-M" stroke="#00ADE6" stroke-width="0.5"></line>
                <line x1="0" y1="430.499" x2="2773" y2="430.499" id="Capline-M" stroke="#00ADE6" stroke-width="0.5"></line>
                <g id="H-reference" transform="translate(76.993347, 860.500000)" fill="#00ADE6" fill-rule="nonzero">
                    <path d="M0,70.459 L2.644353,70.459 L28.334853,3.3264 L29.036753,3.3264 L29.036753,0 L27.129353,0 L0,70.459 Z M10.694853,45.9793 L45.988453,45.9793 L45.237753,43.7302 L11.444853,43.7302 L10.694853,45.9793 Z M54.125953,70.459 L56.770353,70.459 L29.644753,0 L28.439353,0 L28.439353,3.3264 L54.125953,70.459 Z" id="Shape"></path>
                </g>
                <line x1="0" y1="930.959" x2="2773" y2="930.959" id="Baseline-L" stroke="#00ADE6" stroke-width="0.5"></line>
                <line x1="0" y1="860.499" x2="2773" y2="860.499" id="Capline-L" stroke="#00ADE6" stroke-width="0.5"></line>
                <line x1="1125.71" y1="405.749" x2="1125.71" y2="525.079" id="left-margin-Regular-M" stroke="#00B1F5" stroke-width="0.5"></line>
                <line x1="1247.98" y1="405.749" x2="1247.98" y2="525.079" id="right-margin-Regular-M" stroke="#FF0B18" stroke-width="0.5"></line>
            </g>
            <g id="Symbols" transform="translate(498.889800, 614.802700)" fill="#000000" fill-rule="nonzero">
                <g id="Black-L" transform="translate(2366.559000, 834.049300)">
                    <path d="M67.937,135.8737 C105.3012,135.8737 135.8952,105.30059 135.8952,67.9367 C135.8952,30.5728 105.2802,0 67.9162,0 C30.5719,0 0,30.5728 0,67.9367 C0,105.30059 30.5927,135.8737 67.937,135.8737 Z M67.937,115.7262 C41.5062,115.7262 20.188,94.38831 20.188,67.9367 C20.188,41.4851 41.4854,20.1473 67.9162,20.1473 C94.3682,20.1473 115.7262,41.4851 115.7262,67.9367 C115.7262,94.38831 94.3882,115.7262 67.937,115.7262 Z M88.4670753,36.8593776 L88.4670753,84.3455531 C88.4670753,93.2743263 81.3613008,95.1855346 76.9018148,95.1855346 C72.4717319,95.1855346 68.820834,91.7747629 68.820834,87.4279891 C68.820834,82.1942187 72.7559629,80.0036799 77.7496072,78.9892694 L82.2580985,77.9748588 C84.0810972,77.6073187 84.6495592,76.2694729 84.6495592,74.848318 L84.693664,52.1147403 C84.693664,50.5318677 83.9585839,49.9634058 82.1747895,50.3701501 L56.1529533,55.6480254 C54.6533899,55.8930521 54.2074413,56.3341001 54.2074413,58.1227951 L54.2074413,91.1670966 C54.2074413,100.135074 46.984054,102.208 42.5147669,102.208 C38.011176,102.208 34.5612,98.7531234 34.5612,94.4504545 C34.5612,89.133375 38.5404337,86.9428362 43.2841507,85.8059123 L48.1209779,84.830706 C49.6205413,84.4680665 50.2282076,83.2919383 50.2282076,81.949192 L50.2282076,43.2300719 C50.2282076,41.2404551 51.6493625,40.3877621 53.2763398,40.0643269 L83.9634844,33.8553502 C86.7616894,33.2868882 88.4670753,33.6103234 88.4670753,36.8593776 Z" id="Shape"></path>
                </g>
                <g id="Heavy-L" transform="translate(2070.789000, 834.977300)">
                    <path d="M66.9944,133.9894 C103.7972,133.9894 134.0192,103.79794 134.0192,66.9949 C134.0192,30.1919 103.7672,0 66.9643,0 C30.1858,0 0,30.1919 0,66.9949 C0,103.79794 30.216,133.9894 66.9944,133.9894 Z M66.9944,116.2475 C39.7474,116.2475 17.7966,94.2721 17.7966,66.9949 C17.7966,39.7177 39.7173,17.7423 66.9643,17.7423 C94.2412,17.7423 116.2472,39.7177 116.2472,66.9949 C116.2472,94.2721 94.2712,116.2475 66.9944,116.2475 Z M87.9870753,35.9313776 L87.9870753,83.4175531 C87.9870753,92.3463263 80.8813008,94.2575346 76.4218148,94.2575346 C71.9917319,94.2575346 68.340834,90.8467629 68.340834,86.4999891 C68.340834,81.2662187 72.2759629,79.0756799 77.2696072,78.0612694 L81.7780985,77.0468588 C83.6010972,76.6793187 84.1695592,75.3414729 84.1695592,73.920318 L84.213664,51.1867403 C84.213664,49.6038677 83.4785839,49.0354058 81.6947895,49.4421501 L55.6729533,54.7200254 C54.1733899,54.9650521 53.7274413,55.4061001 53.7274413,57.1947951 L53.7274413,90.2390966 C53.7274413,99.2070741 46.504054,101.28 42.0347669,101.28 C37.531176,101.28 34.0812,97.8251234 34.0812,93.5224545 C34.0812,88.205375 38.0604337,86.0148362 42.8041507,84.8779123 L47.6409779,83.902706 C49.1405413,83.5400665 49.7482076,82.3639383 49.7482076,81.021192 L49.7482076,42.3020719 C49.7482076,40.3124551 51.1693625,39.4597621 52.7963398,39.1363269 L83.4834844,32.9273502 C86.2816894,32.3588882 87.9870753,32.6823234 87.9870753,35.9313776 Z" id="Shape"></path>
                </g>
                <g id="Bold-L" transform="translate(1775.259000, 836.145300)">
                    <path d="M65.8116,131.6231 C101.9232,131.6231 131.6612,101.922872 131.6612,65.8115 C131.6612,29.7001 101.8852,0 65.7736,0 C29.687,0 0,29.7001 0,65.8115 C0,101.922872 29.725,131.6231 65.8116,131.6231 Z M65.8116,116.8775 C37.5579,116.8775 14.8084,94.10322 14.8084,65.8115 C14.8084,37.5198 37.5199,14.7455 65.7736,14.7455 C94.0652,14.7455 116.8772,37.5198 116.8772,65.8115 C116.8772,94.10322 94.1032,116.8775 65.8116,116.8775 Z M87.3870753,34.7633776 L87.3870753,82.2495531 C87.3870753,91.1783263 80.2813008,93.0895346 75.8218148,93.0895346 C71.3917319,93.0895346 67.740834,89.6787629 67.740834,85.3319891 C67.740834,80.0982187 71.6759629,77.9076799 76.6696072,76.8932694 L81.1780985,75.8788588 C83.0010972,75.5113187 83.5695592,74.1734729 83.5695592,72.752318 L83.613664,50.0187403 C83.613664,48.4358677 82.8785839,47.8674058 81.0947895,48.2741501 L55.0729533,53.5520254 C53.5733899,53.7970521 53.1274413,54.2381001 53.1274413,56.0267951 L53.1274413,89.0710966 C53.1274413,98.0390741 45.904054,100.112 41.4347669,100.112 C36.931176,100.112 33.4812,96.6571234 33.4812,92.3544545 C33.4812,87.037375 37.4604337,84.8468362 42.2041507,83.7099123 L47.0409779,82.734706 C48.5405413,82.3720665 49.1482076,81.1959383 49.1482076,79.853192 L49.1482076,41.1340719 C49.1482076,39.1444551 50.5693625,38.2917621 52.1963398,37.9683269 L82.8834844,31.7593502 C85.6816894,31.1908882 87.3870753,31.5143234 87.3870753,34.7633776 Z" id="Shape"></path>
                </g>
                <g id="Semibold-L" transform="translate(1479.359000, 836.950300)">
                    <path d="M64.9961,129.992 C100.6302,129.992 130.0352,100.630422 130.0352,64.9959 C130.0352,29.3613 100.5872,0 64.9528,0 C29.3431,0 0,29.3613 0,64.9959 C0,100.630422 29.3865,129.992 64.9961,129.992 Z M64.9961,117.312 C36.0484,117.312 12.7483,93.987 12.7483,64.9959 C12.7483,36.0047 36.005,12.6798 64.9528,12.6798 C93.9442,12.6798 117.3122,36.0047 117.3122,64.9959 C117.3122,93.987 93.9872,117.312 64.9961,117.312 Z M86.9670753,33.9583776 L86.9670753,81.4445531 C86.9670753,90.3733263 79.8613008,92.2845346 75.4018148,92.2845346 C70.9717319,92.2845346 67.320834,88.8737629 67.320834,84.5269891 C67.320834,79.2932187 71.2559629,77.1026799 76.2496072,76.0882694 L80.7580985,75.0738588 C82.5810972,74.7063187 83.1495592,73.3684729 83.1495592,71.947318 L83.193664,49.2137403 C83.193664,47.6308677 82.4585839,47.0624058 80.6747895,47.4691501 L54.6529533,52.7470254 C53.1533899,52.9920521 52.7074413,53.4331001 52.7074413,55.2217951 L52.7074413,88.2660966 C52.7074413,97.2340741 45.484054,99.307 41.0147669,99.307 C36.511176,99.307 33.0612,95.8521234 33.0612,91.5494545 C33.0612,86.232375 37.0404337,84.0418362 41.7841507,82.9049123 L46.6209779,81.929706 C48.1205413,81.5670665 48.7282076,80.3909383 48.7282076,79.048192 L48.7282076,40.3290719 C48.7282076,38.3394551 50.1493625,37.4867621 51.7763398,37.1633269 L82.4634844,30.9543502 C85.2616894,30.3858882 86.9670753,30.7093234 86.9670753,33.9583776 Z" id="Shape"></path>
                </g>
                <g id="Medium-L" transform="translate(1183.269000, 837.560300)">
                    <path d="M64.3778,128.7557 C99.6512,128.7557 128.8032,99.6508167 128.8032,64.3778 C128.8032,29.1048 99.6032,0 64.3304,0 C29.0824,0 0,29.1048 0,64.3778 C0,99.6508167 29.1298,128.7557 64.3778,128.7557 Z M64.3778,117.6418 C34.9038,117.6418 11.1863,93.89926 11.1863,64.3778 C11.1863,34.8564 34.8564,11.1138 64.3304,11.1138 C93.8522,11.1138 117.6422,34.8564 117.6422,64.3778 C117.6422,93.89926 93.8992,117.6418 64.3778,117.6418 Z M86.6570753,33.3483776 L86.6570753,80.8345531 C86.6570753,89.7633263 79.5513008,91.6745346 75.0918148,91.6745346 C70.6617319,91.6745346 67.010834,88.2637629 67.010834,83.9169891 C67.010834,78.6832187 70.9459629,76.4926799 75.9396072,75.4782694 L80.4480985,74.4638588 C82.2710972,74.0963187 82.8395592,72.7584729 82.8395592,71.337318 L82.883664,48.6037403 C82.883664,47.0208677 82.1485839,46.4524058 80.3647895,46.8591501 L54.3429533,52.1370254 C52.8433899,52.3820521 52.3974413,52.8231001 52.3974413,54.6117951 L52.3974413,87.6560966 C52.3974413,96.6240741 45.174054,98.697 40.7047669,98.697 C36.201176,98.697 32.7512,95.2421234 32.7512,90.9394545 C32.7512,85.622375 36.7304337,83.4318362 41.4741507,82.2949123 L46.3109779,81.319706 C47.8105413,80.9570665 48.4182076,79.7809383 48.4182076,78.438192 L48.4182076,39.7190719 C48.4182076,37.7294551 49.8393625,36.8767621 51.4663398,36.5533269 L82.1534844,30.3443502 C84.9516894,29.7758882 86.6570753,30.0993234 86.6570753,33.3483776 Z" id="Shape"></path>
                </g>
                <g id="Regular-L" transform="translate(887.359000, 838.356200)">
                    <path d="M63.5713,127.1428 C98.3732,127.1428 127.1952,98.372823 127.1952,63.5714 C127.1952,28.77 98.3202,0 63.5186,0 C28.7423,0 0,28.77 0,63.5714 C0,98.372823 28.795,127.1428 63.5713,127.1428 Z M63.5713,118.0718 C33.4109,118.0718 9.1488,93.78458 9.1488,63.5714 C9.1488,33.3582 33.3582,9.071 63.5186,9.071 C93.7322,9.071 118.0722,33.3582 118.0722,63.5714 C118.0722,93.78458 93.7842,118.0718 63.5713,118.0718 Z M86.2470753,32.5524776 L86.2470753,80.0386531 C86.2470753,88.9674263 79.1413008,90.8786346 74.6818148,90.8786346 C70.2517319,90.8786346 66.600834,87.4678629 66.600834,83.1210891 C66.600834,77.8873187 70.5359629,75.6967799 75.5296072,74.6823694 L80.0380985,73.6679588 C81.8610972,73.3004187 82.4295592,71.9625729 82.4295592,70.541418 L82.473664,47.8078403 C82.473664,46.2249677 81.7385839,45.6565058 79.9547895,46.0632501 L53.9329533,51.3411254 C52.4333899,51.5861521 51.9874413,52.0272001 51.9874413,53.8158951 L51.9874413,86.8601966 C51.9874413,95.8281741 44.764054,97.9011 40.2947669,97.9011 C35.791176,97.9011 32.3412,94.4462234 32.3412,90.1435545 C32.3412,84.826475 36.3204337,82.6359362 41.0641507,81.4990123 L45.9009779,80.523806 C47.4005413,80.1611665 48.0082076,78.9850383 48.0082076,77.642292 L48.0082076,38.9231719 C48.0082076,36.9335551 49.4293625,36.0808621 51.0563398,35.7574269 L81.7434844,29.5484502 C84.5416894,28.9799882 86.2470753,29.3034234 86.2470753,32.5524776 Z" id="Shape"></path>
                </g>
                <g id="Light-L" transform="translate(591.569000, 839.272300)">
                    <path d="M62.6553,125.3106 C96.9982,125.3106 125.3442,96.998677 125.3442,62.6553 C125.3442,28.3119 96.9652,0 62.6216,0 C28.2651,0 0,28.3119 0,62.6553 C0,96.998677 28.2988,125.3106 62.6553,125.3106 Z M62.6553,118.4153 C31.8269,118.4153 6.9158,93.51738 6.9158,62.6553 C6.9158,31.7932 31.7932,6.8953 62.6216,6.8953 C93.4832,6.8953 118.4152,31.7932 118.4152,62.6553 C118.4152,93.51738 93.5172,118.4153 62.6553,118.4153 Z M85.6170753,31.6363776 L85.6170753,79.1225531 C85.6170753,88.0513263 78.5113008,89.9625346 74.0518148,89.9625346 C69.6217319,89.9625346 65.970834,86.5517629 65.970834,82.2049891 C65.970834,76.9712187 69.9059629,74.7806799 74.8996072,73.7662694 L79.4080985,72.7518588 C81.2310972,72.3843187 81.7995592,71.0464729 81.7995592,69.625318 L81.843664,46.8917403 C81.843664,45.3088677 81.1085839,44.7404058 79.3247895,45.1471501 L53.3029533,50.4250254 C51.8033899,50.6700521 51.3574413,51.1111001 51.3574413,52.8997951 L51.3574413,85.9440966 C51.3574413,94.9120741 44.134054,96.985 39.6647669,96.985 C35.161176,96.985 31.7112,93.5301234 31.7112,89.2274545 C31.7112,83.910375 35.6904337,81.7198362 40.4341507,80.5829123 L45.2709779,79.607706 C46.7705413,79.2450665 47.3782076,78.0689383 47.3782076,76.726192 L47.3782076,38.0070719 C47.3782076,36.0174551 48.7993625,35.1647621 50.4263398,34.8413269 L81.1134844,28.6323502 C83.9116894,28.0638882 85.6170753,28.3873234 85.6170753,31.6363776 Z" id="Shape"></path>
                </g>
                <g id="Thin-L" transform="translate(296.085000, 840.483900)">
                    <path d="M61.4436,122.8874 C95.1812,122.8874 122.8962,95.18127 122.8962,61.4437 C122.8962,27.7061 95.1732,0 61.4352,0 C27.6341,0 0,27.7061 0,61.4437 C0,95.18127 27.6425,122.8874 61.4436,122.8874 Z M61.4436,118.8697 C29.7318,118.8697 3.9626,93.164 3.9626,61.4437 C3.9626,29.7234 29.7233,4.0177 61.4352,4.0177 C93.1552,4.0177 118.8692,29.7234 118.8692,61.4437 C118.8692,93.164 93.1642,118.8697 61.4436,118.8697 Z M85.4610753,30.4247776 L85.4610753,77.9109531 C85.4610753,86.8397263 78.3553008,88.7509346 73.8958148,88.7509346 C69.4657319,88.7509346 65.814834,85.3401629 65.814834,80.9933891 C65.814834,75.7596187 69.7499629,73.5690799 74.7436072,72.5546694 L79.2520985,71.5402588 C81.0750972,71.1727187 81.6435592,69.8348729 81.6435592,68.413718 L81.687664,45.6801403 C81.687664,44.0972677 80.9525839,43.5288058 79.1687895,43.9355501 L53.1469533,49.2134254 C51.6473899,49.4584521 51.2014413,49.8995001 51.2014413,51.6881951 L51.2014413,84.7324966 C51.2014413,93.7004741 43.978054,95.7734 39.5087669,95.7734 C35.005176,95.7734 31.5552,92.3185234 31.5552,88.0158545 C31.5552,82.698775 35.5344337,80.5082362 40.2781507,79.3713123 L45.1149779,78.396106 C46.6145413,78.0334665 47.2222076,76.8573383 47.2222076,75.514592 L47.2222076,36.7954719 C47.2222076,34.8058551 48.6433625,33.9531621 50.2703398,33.6297269 L80.9574844,27.4207502 C83.7556894,26.8522882 85.4610753,27.1757234 85.4610753,30.4247776 Z" id="Shape"></path>
                </g>
                <g id="Ultralight-L" transform="translate(0.000000, 841.104500)">
                    <path d="M60.8231,121.6462 C94.2502,121.6462 121.6412,94.25038 121.6412,60.8231 C121.6412,27.3958 94.2552,0 60.8276,0 C27.3109,0 0,27.3958 0,60.8231 C0,94.25038 27.3064,121.6462 60.8231,121.6462 Z M60.8231,119.1024 C28.6587,119.1024 2.4499,92.98297 2.4499,60.8231 C2.4499,28.6632 28.6632,2.5438 60.8276,2.5438 C92.9872,2.5438 119.1022,28.6632 119.1022,60.8231 C119.1022,92.98297 92.9832,119.1024 60.8231,119.1024 Z M84.8360753,29.8041776 L84.8360753,77.2903531 C84.8360753,86.2191263 77.7303008,88.1303346 73.2708148,88.1303346 C68.8407319,88.1303346 65.189834,84.7195629 65.189834,80.3727891 C65.189834,75.1390187 69.1249629,72.9484799 74.1186072,71.9340694 L78.6270985,70.9196588 C80.4500972,70.5521187 81.0185592,69.2142729 81.0185592,67.793118 L81.062664,45.0595403 C81.062664,43.4766677 80.3275839,42.9082058 78.5437895,43.3149501 L52.5219533,48.5928254 C51.0223899,48.8378521 50.5764413,49.2789001 50.5764413,51.0675951 L50.5764413,84.1118966 C50.5764413,93.0798741 43.353054,95.1528 38.8837669,95.1528 C34.380176,95.1528 30.9302,91.6979234 30.9302,87.3952545 C30.9302,82.078175 34.9094337,79.8876362 39.6531507,78.7507123 L44.4899779,77.775506 C45.9895413,77.4128665 46.5972076,76.2367383 46.5972076,74.893992 L46.5972076,36.1748719 C46.5972076,34.1852551 48.0183625,33.3325621 49.6453398,33.0091269 L80.3324844,26.8001502 C83.1306894,26.2316882 84.8360753,26.5551234 84.8360753,29.8041776 Z" id="Shape"></path>
                </g>
                <g id="Black-M" transform="translate(2381.192860, 418.674200)">
                    <path d="M53.31954,106.6391 C82.68694,106.6391 106.64434,82.68689 106.64434,53.3196 C106.64434,23.9522 82.68144,0 53.31404,0 C23.95254,0 1.77635684e-15,23.9522 1.77635684e-15,53.3196 C1.77635684e-15,82.68689 23.95804,106.6391 53.31954,106.6391 Z M53.31954,89.25725 C33.45354,89.25725 17.39314,73.1911 17.39314,53.3196 C17.39314,33.448 33.44804,17.3819 53.31404,17.3819 C73.18564,17.3819 89.25724,33.448 89.25724,53.3196 C89.25724,73.1911 73.19114,89.25725 53.31954,89.25725 Z M73.760673,28.0406809 L73.760673,66.6538624 C73.760673,73.9142563 67.9826427,75.4683472 64.3564306,75.4683472 C60.7541276,75.4683472 57.7854155,72.6948927 57.7854155,69.1603321 C57.7854155,64.904514 60.9852489,63.1232867 65.0458094,62.2984231 L68.71187,61.4735594 C70.1942336,61.1746958 70.6564761,60.0868322 70.6564761,58.9312261 L70.6923397,40.4455142 C70.6923397,39.1584081 70.0946124,38.6961657 68.6441276,39.0269081 L47.4845823,43.3185899 C46.2652187,43.5178323 45.9025975,43.8764687 45.9025975,45.3309384 L45.9025975,72.2007715 C45.9025975,79.4930442 40.0289308,81.1786351 36.394749,81.1786351 C32.7326733,81.1786351 29.92734,78.3693169 29.92734,74.87062 C29.92734,70.5470594 33.1630369,68.7658321 37.0203702,67.8413473 L40.9534157,67.0483624 C42.1727793,66.7534836 42.6669005,65.79712 42.6669005,64.7052715 L42.6669005,33.2209839 C42.6669005,31.6031354 43.8225066,30.9097718 45.1454762,30.6467718 L70.0985973,25.5979688 C72.3739457,25.1357264 73.760673,25.3987264 73.760673,28.0406809 Z" id="Shape"></path>
                </g>
                <g id="Heavy-M" transform="translate(2085.312860, 419.497600)">
                    <path d="M52.48264,104.9654 C81.34404,104.9654 104.98134,81.34399 104.98134,52.4827 C104.98134,23.6214 81.32754,0 52.46624,0 C23.61914,0 1.77635684e-15,23.6214 1.77635684e-15,52.4827 C1.77635684e-15,81.34399 23.63554,104.9654 52.48264,104.9654 Z M52.48264,89.73448 C31.88034,89.73448 15.26144,73.1014 15.26144,52.4827 C15.26144,31.8639 31.86394,15.2309 52.46624,15.2309 C73.08504,15.2309 89.73444,31.8639 89.73444,52.4827 C89.73444,73.1014 73.10144,89.73448 52.48264,89.73448 Z M72.280673,27.2072809 L72.280673,65.8204624 C72.280673,73.0808563 66.5026427,74.6349472 62.8764306,74.6349472 C59.2741276,74.6349472 56.3054155,71.8614927 56.3054155,68.3269321 C56.3054155,64.071114 59.5052489,62.2898867 63.5658094,61.4650231 L67.23187,60.6401594 C68.7142336,60.3412958 69.1764761,59.2534322 69.1764761,58.0978261 L69.2123397,39.6121142 C69.2123397,38.3250081 68.6146124,37.8627657 67.1641276,38.1935081 L46.0045823,42.4851899 C44.7852187,42.6844323 44.4225975,43.0430687 44.4225975,44.4975384 L44.4225975,71.3673715 C44.4225975,78.6596442 38.5489308,80.3452351 34.914749,80.3452351 C31.2526733,80.3452351 28.44734,77.5359169 28.44734,74.03722 C28.44734,69.7136594 31.6830369,67.9324321 35.5403702,67.0079473 L39.4734157,66.2149624 C40.6927793,65.9200836 41.1869005,64.96372 41.1869005,63.8718715 L41.1869005,32.3875839 C41.1869005,30.7697354 42.3425066,30.0763718 43.6654762,29.8133718 L68.6185973,24.7645688 C70.8939457,24.3023264 72.280673,24.5653264 72.280673,27.2072809 Z" id="Shape"></path>
                </g>
                <g id="Bold-M" transform="translate(1789.522860, 420.418700)">
                    <path d="M51.54654,103.093 C79.84174,103.093 103.12134,79.84174 103.12134,51.5465 C103.12134,23.2513 79.81314,0 51.51784,0 C23.24614,0 0,23.2513 0,51.5465 C0,79.84174 23.27474,103.093 51.54654,103.093 Z M51.54654,90.26832 C30.12054,90.26832 12.87684,73.0011 12.87684,51.5465 C12.87684,30.0919 30.09194,12.8247 51.51784,12.8247 C72.97244,12.8247 90.26834,30.0919 90.26834,51.5465 C90.26834,73.0011 73.00114,90.26832 51.54654,90.26832 Z M72.6306733,25.1460706 L72.6306733,65.5210706 C72.6306733,73.1127372 66.5890067,74.7377372 62.79734,74.7377372 C59.0306733,74.7377372 55.9265067,71.8377372 55.9265067,68.1419039 C55.9265067,63.6919039 59.27234,61.8294039 63.5181733,60.9669039 L67.3515067,60.1044039 C68.9015067,59.7919039 69.38484,58.6544039 69.38484,57.4460706 L69.42234,38.1169039 C69.42234,36.7710706 68.79734,36.2877372 67.2806733,36.6335706 L45.1556733,41.1210706 C43.8806733,41.3294039 43.5015067,41.7044039 43.5015067,43.2252372 L43.5015067,71.3210706 C43.5015067,78.9460706 37.35984,80.7085706 33.55984,80.7085706 C29.7306733,80.7085706 26.79734,77.7710706 26.79734,74.1127372 C26.79734,69.5919039 30.1806733,67.7294039 34.2140067,66.7627372 L38.3265067,65.9335706 C39.6015067,65.6252372 40.1181733,64.6252372 40.1181733,63.4835706 L40.1181733,30.5627372 C40.1181733,28.8710706 41.3265067,28.1460706 42.70984,27.8710706 L68.8015067,22.5919039 C71.1806733,22.1085706 72.6306733,22.3835706 72.6306733,25.1460706 Z" id="Shape"></path>
                </g>
                <g id="Semibold-M" transform="translate(1493.452860, 421.053700)">
                    <path d="M50.90114,101.8022 C78.80614,101.8022 101.83934,78.80611 101.83934,50.9011 C101.83934,22.9961 78.76904,0 50.86404,0 C22.98904,0 1.77635684e-15,22.9961 1.77635684e-15,50.9011 C1.77635684e-15,78.80611 23.02604,101.8022 50.90114,101.8022 Z M50.90114,90.63635 C28.90734,90.63635 11.23284,72.9319 11.23284,50.9011 C11.23284,28.8703 28.87024,11.1659 50.86404,11.1659 C72.89484,11.1659 90.63634,28.8703 90.63634,50.9011 C90.63634,72.9319 72.93194,90.63635 50.90114,90.63635 Z M71.4906733,24.5110706 L71.4906733,64.8860706 C71.4906733,72.4777372 65.4490067,74.1027372 61.65734,74.1027372 C57.8906733,74.1027372 54.7865067,71.2027372 54.7865067,67.5069039 C54.7865067,63.0569039 58.13234,61.1944039 62.3781733,60.3319039 L66.2115067,59.4694039 C67.7615067,59.1569039 68.24484,58.0194039 68.24484,56.8110706 L68.28234,37.4819039 C68.28234,36.1360706 67.65734,35.6527372 66.1406733,35.9985706 L44.0156733,40.4860706 C42.7406733,40.6944039 42.3615067,41.0694039 42.3615067,42.5902372 L42.3615067,70.6860706 C42.3615067,78.3110706 36.21984,80.0735706 32.41984,80.0735706 C28.5906733,80.0735706 25.65734,77.1360706 25.65734,73.4777372 C25.65734,68.9569039 29.0406733,67.0944039 33.0740067,66.1277372 L37.1865067,65.2985706 C38.4615067,64.9902372 38.9781733,63.9902372 38.9781733,62.8485706 L38.9781733,29.9277372 C38.9781733,28.2360706 40.1865067,27.5110706 41.56984,27.2360706 L67.6615067,21.9569039 C70.0406733,21.4735706 71.4906733,21.7485706 71.4906733,24.5110706 Z" id="Shape"></path>
                </g>
                <g id="Medium-M" transform="translate(1197.232860, 421.535200)">
                    <path d="M50.41174,100.8235 C78.02084,100.8235 100.86734,78.02083 100.86734,50.4117 C100.86734,22.8026 77.97744,0 50.36834,0 C22.79404,0 0,22.8026 0,50.4117 C0,78.02083 22.83744,100.8235 50.41174,100.8235 Z M50.41174,90.91539 C27.98744,90.91539 9.98634,72.8795 9.98634,50.4117 C9.98634,27.944 27.94394,9.9081 50.36834,9.9081 C72.83604,9.9081 90.91544,27.944 90.91544,50.4117 C90.91544,72.8795 72.87944,90.91539 50.41174,90.91539 Z M70.6206733,24.0295706 L70.6206733,64.4045706 C70.6206733,71.9962372 64.5790067,73.6212372 60.78734,73.6212372 C57.0206733,73.6212372 53.9165067,70.7212372 53.9165067,67.0254039 C53.9165067,62.5754039 57.26234,60.7129039 61.5081733,59.8504039 L65.3415067,58.9879039 C66.8915067,58.6754039 67.37484,57.5379039 67.37484,56.3295706 L67.41234,37.0004039 C67.41234,35.6545706 66.78734,35.1712372 65.2706733,35.5170706 L43.1456733,40.0045706 C41.8706733,40.2129039 41.4915067,40.5879039 41.4915067,42.1087372 L41.4915067,70.2045706 C41.4915067,77.8295706 35.34984,79.5920706 31.54984,79.5920706 C27.7206733,79.5920706 24.78734,76.6545706 24.78734,72.9962372 C24.78734,68.4754039 28.1706733,66.6129039 32.2040067,65.6462372 L36.3165067,64.8170706 C37.5915067,64.5087372 38.1081733,63.5087372 38.1081733,62.3670706 L38.1081733,29.4462372 C38.1081733,27.7545706 39.3165067,27.0295706 40.69984,26.7545706 L66.7915067,21.4754039 C69.1706733,20.9920706 70.6206733,21.2670706 70.6206733,24.0295706 Z" id="Shape"></path>
                </g>
                <g id="Regular-M" transform="translate(901.152860, 422.163200)">
                    <path d="M49.77344,99.5469 C76.99654,99.5469 99.59834,76.9966 99.59834,49.7735 C99.59834,22.5503 76.94484,0 49.72164,0 C22.53974,0 0,22.5503 0,49.7735 C0,76.9966 22.59144,99.5469 49.77344,99.5469 Z M49.77344,91.27939 C26.78754,91.27939 8.36044,72.8111 8.36044,49.7735 C8.36044,26.7358 26.73574,8.2675 49.72164,8.2675 C72.75934,8.2675 91.27934,26.7358 91.27934,49.7735 C91.27934,72.8111 72.81104,91.27939 49.77344,91.27939 Z M69.4906733,23.4015706 L69.4906733,63.7765706 C69.4906733,71.3682372 63.4490067,72.9932372 59.65734,72.9932372 C55.8906733,72.9932372 52.7865067,70.0932372 52.7865067,66.3974039 C52.7865067,61.9474039 56.13234,60.0849039 60.3781733,59.2224039 L64.2115067,58.3599039 C65.7615067,58.0474039 66.24484,56.9099039 66.24484,55.7015706 L66.28234,36.3724039 C66.28234,35.0265706 65.65734,34.5432372 64.1406733,34.8890706 L42.0156733,39.3765706 C40.7406733,39.5849039 40.3615067,39.9599039 40.3615067,41.4807372 L40.3615067,69.5765706 C40.3615067,77.2015706 34.21984,78.9640706 30.41984,78.9640706 C26.5906733,78.9640706 23.65734,76.0265706 23.65734,72.3682372 C23.65734,67.8474039 27.0406733,65.9849039 31.0740067,65.0182372 L35.1865067,64.1890706 C36.4615067,63.8807372 36.9781733,62.8807372 36.9781733,61.7390706 L36.9781733,28.8182372 C36.9781733,27.1265706 38.1865067,26.4015706 39.56984,26.1265706 L65.6615067,20.8474039 C68.0406733,20.3640706 69.4906733,20.6390706 69.4906733,23.4015706 Z" id="Shape"></path>
                </g>
                <g id="Light-M" transform="translate(605.272860, 422.984500)">
                    <path d="M48.95214,97.9043 C75.76454,97.9043 97.93934,75.76464 97.93934,48.9522 C97.93934,22.1397 75.72994,0 48.91744,0 C22.11194,0 0,22.1397 0,48.9522 C0,75.76464 22.14664,97.9043 48.95214,97.9043 Z M48.95214,91.58742 C25.36734,91.58742 6.35844,72.5716 6.35844,48.9522 C6.35844,25.3327 25.33274,6.3169 48.91744,6.3169 C72.53684,6.3169 91.58734,25.3327 91.58734,48.9522 C91.58734,72.5716 72.57154,91.58742 48.95214,91.58742 Z M69.0306733,22.5802706 L69.0306733,62.9552706 C69.0306733,70.5469372 62.9890067,72.1719372 59.19734,72.1719372 C55.4306733,72.1719372 52.3265067,69.2719372 52.3265067,65.5761039 C52.3265067,61.1261039 55.67234,59.2636039 59.9181733,58.4011039 L63.7515067,57.5386039 C65.3015067,57.2261039 65.78484,56.0886039 65.78484,54.8802706 L65.82234,35.5511039 C65.82234,34.2052706 65.19734,33.7219372 63.6806733,34.0677706 L41.5556733,38.5552706 C40.2806733,38.7636039 39.9015067,39.1386039 39.9015067,40.6594372 L39.9015067,68.7552706 C39.9015067,76.3802706 33.75984,78.1427706 29.95984,78.1427706 C26.1306733,78.1427706 23.19734,75.2052706 23.19734,71.5469372 C23.19734,67.0261039 26.5806733,65.1636039 30.6140067,64.1969372 L34.7265067,63.3677706 C36.0015067,63.0594372 36.5181733,62.0594372 36.5181733,60.9177706 L36.5181733,27.9969372 C36.5181733,26.3052706 37.7265067,25.5802706 39.10984,25.3052706 L65.2015067,20.0261039 C67.5806733,19.5427706 69.0306733,19.8177706 69.0306733,22.5802706 Z" id="Shape"></path>
                </g>
                <g id="Thin-M" transform="translate(309.660860, 424.070800)">
                    <path d="M47.86584,95.7317 C74.13514,95.7317 95.74334,74.1352 95.74334,47.8659 C95.74334,21.5965 74.12314,0 47.85384,0 C21.54624,0 0,21.5965 0,47.8659 C0,74.1352 21.55824,95.7317 47.86584,95.7317 Z M47.86584,91.99474 C23.48904,91.99474 3.71064,72.2547 3.71064,47.8659 C3.71064,23.477 23.47694,3.737 47.85384,3.737 C72.24264,3.737 91.99434,23.477 91.99434,47.8659 C91.99434,72.2547 72.25464,91.99474 47.86584,91.99474 Z M67.1026733,21.4939706 L67.1026733,61.8689706 C67.1026733,69.4606372 61.0610067,71.0856372 57.26934,71.0856372 C53.5026733,71.0856372 50.3985067,68.1856372 50.3985067,64.4898039 C50.3985067,60.0398039 53.74434,58.1773039 57.9901733,57.3148039 L61.8235067,56.4523039 C63.3735067,56.1398039 63.85684,55.0023039 63.85684,53.7939706 L63.89434,34.4648039 C63.89434,33.1189706 63.26934,32.6356372 61.7526733,32.9814706 L39.6276733,37.4689706 C38.3526733,37.6773039 37.9735067,38.0523039 37.9735067,39.5731372 L37.9735067,67.6689706 C37.9735067,75.2939706 31.83184,77.0564706 28.03184,77.0564706 C24.2026733,77.0564706 21.26934,74.1189706 21.26934,70.4606372 C21.26934,65.9398039 24.6526733,64.0773039 28.6860067,63.1106372 L32.7985067,62.2814706 C34.0735067,61.9731372 34.5901733,60.9731372 34.5901733,59.8314706 L34.5901733,26.9106372 C34.5901733,25.2189706 35.7985067,24.4939706 37.18184,24.2189706 L63.2735067,18.9398039 C65.6526733,18.4564706 67.1026733,18.7314706 67.1026733,21.4939706 Z" id="Shape"></path>
                </g>
                <g id="Ultralight-M" transform="translate(13.511860, 424.627200)">
                    <path d="M47.30944,94.6189 C73.30064,94.6189 94.61934,73.30061 94.61934,47.3095 C94.61934,21.3183 73.30014,0 47.30904,0 C21.25644,0 0,21.3183 0,47.3095 C0,73.30061 21.25684,94.6189 47.30944,94.6189 Z M47.30944,92.20336 C22.52694,92.20336 2.35454,72.0924 2.35454,47.3095 C2.35454,22.5265 22.52654,2.4156 47.30904,2.4156 C72.09204,2.4156 92.20334,22.5265 92.20334,47.3095 C92.20334,72.0924 72.09244,92.20336 47.30944,92.20336 Z M66.1116733,20.9375706 L66.1116733,61.3125706 C66.1116733,68.9042372 60.0700067,70.5292372 56.27834,70.5292372 C52.5116733,70.5292372 49.4075067,67.6292372 49.4075067,63.9334039 C49.4075067,59.4834039 52.75334,57.6209039 56.9991733,56.7584039 L60.8325067,55.8959039 C62.3825067,55.5834039 62.86584,54.4459039 62.86584,53.2375706 L62.90334,33.9084039 C62.90334,32.5625706 62.27834,32.0792372 60.7616733,32.4250706 L38.6366733,36.9125706 C37.3616733,37.1209039 36.9825067,37.4959039 36.9825067,39.0167372 L36.9825067,67.1125706 C36.9825067,74.7375706 30.84084,76.5000706 27.04084,76.5000706 C23.2116733,76.5000706 20.27834,73.5625706 20.27834,69.9042372 C20.27834,65.3834039 23.6616733,63.5209039 27.6950067,62.5542372 L31.8075067,61.7250706 C33.0825067,61.4167372 33.5991733,60.4167372 33.5991733,59.2750706 L33.5991733,26.3542372 C33.5991733,24.6625706 34.8075067,23.9375706 36.19084,23.6625706 L62.2825067,18.3834039 C64.6616733,17.9000706 66.1116733,18.1750706 66.1116733,20.9375706 Z" id="Shape"></path>
                </g>
                <g id="Black-S" transform="translate(2392.516140, 0.000000)">
                    <path d="M41.99216,83.98441 C65.13676,83.98441 83.98436,65.1368 83.98436,41.9922 C83.98436,18.8477 65.13676,0 41.99216,0 C18.84766,0 0,18.8477 0,41.9922 C0,65.1368 18.84766,83.98441 41.99216,83.98441 Z M41.99216,69.82425 C26.61136,69.82425 14.16016,57.3731 14.16016,41.9922 C14.16016,26.6114 26.61136,14.1602 41.99216,14.1602 C57.37306,14.1602 69.82426,26.6114 69.82426,41.9922 C69.82426,57.3731 57.37306,69.82425 41.99216,69.82425 Z M56.8656108,22.7831295 L56.8656108,52.1125123 C56.8656108,57.6272838 52.476797,58.8077233 49.7224381,58.8077233 C46.9862397,58.8077233 44.7312975,56.7010927 44.7312975,54.0163494 C44.7312975,50.7837611 47.1617923,49.4307958 50.2460689,48.8042548 L53.0306956,48.1777138 C54.1566533,47.9507062 54.5077584,47.1243985 54.5077584,46.2466357 L54.5349993,32.2054586 C54.5349993,31.2278125 54.0809841,30.8767074 52.9792405,31.1279291 L36.907102,34.3877584 C35.9809109,34.5390968 35.705475,34.8115059 35.705475,35.9162762 L35.705475,56.3257735 C35.705475,61.8647591 31.2440189,63.145082 28.4836064,63.145082 C25.7020065,63.145082 23.5711618,61.0112105 23.5711618,58.3537081 C23.5711618,55.0696647 26.0288975,53.7166994 28.958809,53.0144892 L31.9462291,52.4121623 C32.8724201,52.1881815 33.2477393,51.4617572 33.2477393,50.6324227 L33.2477393,26.717928 C33.2477393,25.4890602 34.1255021,24.9624025 35.1303891,24.7626358 L54.0840109,20.9277207 C55.8122955,20.5766156 56.8656108,20.7763822 56.8656108,22.7831295 Z" id="Shape"></path>
                </g>
                <g id="Heavy-S" transform="translate(2096.416140, 0.597300)">
                    <path d="M41.38136,82.76479 C64.14566,82.76479 82.77426,64.1476 82.77426,41.3834 C82.77426,18.6192 64.13406,0.002 41.36986,0.002 C18.61716,0.002 0,18.6192 0,41.3834 C0,64.1476 18.62866,82.76479 41.38136,82.76479 Z M41.38136,70.19501 C25.44736,70.19501 12.59286,57.329 12.59286,41.3834 C12.59286,25.4378 25.43586,12.5718 41.36986,12.5718 C57.31546,12.5718 70.19296,25.4378 70.19296,41.3834 C70.19296,57.329 57.32696,70.19501 41.38136,70.19501 Z M57.7226776,21.6060074 L57.7226776,51.8197245 C57.7226776,57.5007764 53.2026322,58.7168083 50.365914,58.7168083 C47.5478994,58.7168083 45.2255313,56.546659 45.2255313,53.7809658 C45.2255313,50.450909 47.7287013,49.0571493 50.9052022,48.411717 L53.7730931,47.7662846 C54.9327185,47.5324323 55.2943222,46.68121 55.2943222,45.7769811 L55.3223776,31.3124368 C55.3223776,30.3053129 54.8547867,29.9436214 53.7200994,30.2024179 L37.1673813,33.5605369 C36.2134958,33.7164385 35.929824,33.9970612 35.929824,35.1351424 L35.929824,56.1600232 C35.929824,61.8660193 31.334964,63.1849463 28.4920113,63.1849463 C25.6272376,63.1849463 23.4326776,60.9867346 23.4326776,58.2491037 C23.4326776,54.8660405 25.9639031,53.4722808 28.9814231,52.7488976 L32.0581713,52.1284095 C33.0120567,51.8976753 33.3985985,51.1493479 33.3985985,50.2950075 L33.3985985,25.6594472 C33.3985985,24.3935268 34.3026076,23.8509895 35.3375422,23.6451994 L54.857904,19.6946546 C56.6378667,19.332963 57.7226776,19.5387531 57.7226776,21.6060074 Z" id="Shape"></path>
                    <path d="M41.3827289,82.7574325 C64.1378022,82.7574325 82.77406,64.1337027 82.77406,41.3787162 C82.77406,18.6237219 64.1247931,0 41.3697988,0 C18.626,0 0.00406,18.6237219 0.00406,41.3787162 C0.00406,64.1337027 18.6389302,82.7574325 41.3827289,82.7574325 Z M41.3827289,70.7489818 C25.1393435,70.7489818 12.0365735,57.6350319 12.0365735,41.3787162 C12.0365735,25.1223218 25.1264133,12.008435 41.3697988,12.008435 C57.6261932,12.008435 70.7530102,25.1223218 70.7530102,41.3787162 C70.7530102,57.6350319 57.6391234,70.7489818 41.3827289,70.7489818 Z" id="Shape"></path>
                </g>
                <g id="Bold-S" transform="translate(1800.376140, 1.267300)">
                    <path d="M40.69826,81.39875 C63.03706,81.39875 81.42086,63.0394 81.42086,40.7005 C81.42086,18.3616 63.01266,0.0023 40.67386,0.0023 C18.35936,0.0023 0,18.3616 0,40.7005 C0,63.0394 18.38376,81.39875 40.69826,81.39875 Z M40.69826,70.60773 C24.14546,70.60773 10.83986,57.2777 10.83986,40.7005 C10.83986,24.1234 24.12106,10.7933 40.67386,10.7933 C57.25096,10.7933 70.60546,24.1234 70.60546,40.7005 C70.60546,57.2777 57.27536,70.60773 40.69826,70.60773 Z M57.4520417,19.7859262 L57.4520417,51.7618898 C57.4520417,57.774295 52.6683599,59.0612533 49.6661871,59.0612533 C46.683809,59.0612533 44.2259862,56.7645277 44.2259862,53.8375226 C44.2259862,50.3132368 46.8751562,48.8381846 50.2369299,48.1551067 L53.2720935,47.4720289 C54.4993553,47.2245369 54.8820499,46.3236661 54.8820499,45.3666971 L54.9117417,30.0584932 C54.9117417,28.9926278 54.416878,28.6098402 53.216009,28.8837313 L35.6978362,32.4377161 C34.6883144,32.6027108 34.3880971,32.8997011 34.3880971,34.1041621 L34.3880971,56.355341 C34.3880971,62.3941452 29.5252371,63.79 26.5164662,63.79 C23.4846017,63.79 21.1620417,61.4635754 21.1620417,58.5662693 C21.1620417,54.9858853 23.8409035,53.5108331 27.0344235,52.745258 L30.2906262,52.0885792 C31.300148,51.8443872 31.7092353,51.0524128 31.7092353,50.1482421 L31.7092353,24.0757871 C31.7092353,22.7360305 32.6659717,22.1618492 33.7612699,21.9440562 L54.4201771,17.7630917 C56.303958,17.3803041 57.4520417,17.5980971 57.4520417,19.7859262 Z" id="Shape"></path>
                    <g id="Bold-M" transform="translate(0.004060, 0.000000)">
                        <path d="M40.6988436,81.397624 C63.0394686,81.397624 81.42,63.0394686 81.42,40.698812 C81.42,18.358187 63.0168873,0 40.6761833,0 C18.3541129,0 0,18.358187 0,40.698812 C0,63.0394686 18.3766942,81.397624 40.6988436,81.397624 Z M40.6988436,71.27183 C23.7818318,71.27183 10.1669772,57.638405 10.1669772,40.698812 C10.1669772,23.759219 23.7592506,10.1258098 40.6761833,10.1258098 C57.6157764,10.1258098 71.2718458,23.759219 71.2718458,40.698812 C71.2718458,57.638405 57.6384366,71.27183 40.6988436,71.27183 Z" id="Shape"></path>
                    </g>
                </g>
                <g id="Semibold-S" transform="translate(1504.136140, 1.731700)">
                    <path d="M40.22726,80.45447 C62.27286,80.45447 80.48776,62.2728 80.48776,40.2272 C80.48776,18.1816 62.23956,0 40.19396,0 C18.18166,0 0,18.1816 0,40.2272 C0,62.2728 18.21496,80.45447 40.22726,80.45447 Z M40.22726,70.88982 C23.24796,70.88982 9.63126,57.2398 9.63126,40.2272 C9.63126,23.2146 23.21466,9.5646 40.19396,9.5646 C57.20656,9.5646 70.88986,23.2146 70.88986,40.2272 C70.88986,57.2398 57.23986,70.88982 40.22726,70.88982 Z M56.5726606,19.3215262 L56.5726606,51.2974898 C56.5726606,57.309895 51.7889787,58.5968533 48.786806,58.5968533 C45.8044278,58.5968533 43.3466051,56.3001277 43.3466051,53.3731226 C43.3466051,49.8488368 45.9957751,48.3737846 49.3575487,47.6907067 L52.3927124,47.0076289 C53.6199742,46.7601369 54.0026687,45.8592661 54.0026687,44.9022971 L54.0323606,29.5940932 C54.0323606,28.5282278 53.5374969,28.1454402 52.3366278,28.4193313 L34.8184551,31.9733161 C33.8089333,32.1383108 33.508716,32.4353011 33.508716,33.6397621 L33.508716,55.890941 C33.508716,61.9297452 28.645856,63.3256 25.6370851,63.3256 C22.6052206,63.3256 20.2826606,60.9991754 20.2826606,58.1018693 C20.2826606,54.5214853 22.9615224,53.0464331 26.1550424,52.280858 L29.4112451,51.6241792 C30.4207669,51.3799872 30.8298542,50.5880128 30.8298542,49.6838421 L30.8298542,23.6113871 C30.8298542,22.2716305 31.7865906,21.6974492 32.8818887,21.4796562 L53.540796,17.2986917 C55.4245769,16.9159041 56.5726606,17.1336971 56.5726606,19.3215262 Z" id="Shape"></path>
                </g>
                <g id="Medium-S" transform="translate(1207.776140, 2.082100)">
                    <path d="M39.87016,79.7402 C61.69336,79.7402 79.78026,61.6933 79.78026,39.8701 C79.78026,18.0468 61.65336,0 39.83006,0 C18.04686,0 0,18.0468 0,39.8701 C0,61.6933 18.08696,79.7402 39.87016,79.7402 Z M39.87016,71.10543 C22.56736,71.10543 8.71486,57.2129 8.71486,39.8701 C8.71486,22.5273 22.52736,8.6347 39.83006,8.6347 C57.17286,8.6347 71.10546,22.5273 71.10546,39.8701 C71.10546,57.2129 57.21286,71.10543 39.87016,71.10543 Z M55.8993553,18.9711262 L55.8993553,50.9470898 C55.8993553,56.959495 51.1156735,58.2464533 48.1135007,58.2464533 C45.1311226,58.2464533 42.6732998,55.9497277 42.6732998,53.0227226 C42.6732998,49.4984368 45.3224698,48.0233846 48.6842435,47.3403067 L51.7194071,46.6572289 C52.9466689,46.4097369 53.3293635,45.5088661 53.3293635,44.5518971 L53.3590553,29.2436932 C53.3590553,28.1778278 52.8641916,27.7950402 51.6633226,28.0689313 L34.1451498,31.6229161 C33.135628,31.7879108 32.8354107,32.0849011 32.8354107,33.2893621 L32.8354107,55.540541 C32.8354107,61.5793452 27.9725507,62.9752 24.9637798,62.9752 C21.9319153,62.9752 19.6093553,60.6487754 19.6093553,57.7514693 C19.6093553,54.1710853 22.2882171,52.6960331 25.4817371,51.930458 L28.7379398,51.2737792 C29.7474616,51.0295872 30.1565489,50.2376128 30.1565489,49.3334421 L30.1565489,23.2609871 C30.1565489,21.9212305 31.1132853,21.3470492 32.2085835,21.1292562 L52.8674907,16.9482917 C54.7512716,16.5655041 55.8993553,16.7832971 55.8993553,18.9711262 Z" id="Shape"></path>
                </g>
                <g id="Regular-S" transform="translate(911.526140, 2.539100)">
                    <path d="M39.40426,78.80859 C60.93746,78.80859 78.85746,60.9375 78.85746,39.4043 C78.85746,17.8711 60.88866,0 39.35546,0 C17.87106,0 0,17.8711 0,39.4043 C0,60.9375 17.91996,78.80859 39.40426,78.80859 Z M39.40426,71.38672 C21.67966,71.38672 7.51956,57.1777 7.51956,39.4043 C7.51956,21.6309 21.63086,7.4219 39.35546,7.4219 C57.12886,7.4219 71.38676,21.6309 71.38676,39.4043 C71.38676,57.1777 57.17776,71.38672 39.40426,71.38672 Z M55.2336235,18.5141262 L55.2336235,50.4900898 C55.2336235,56.502495 50.449951,57.7894533 47.4477842,57.7894533 C44.4654119,57.7894533 42.007594,55.4927277 42.007594,52.5657226 C42.007594,49.0414368 44.6567588,47.5663846 48.0185258,46.8833067 L51.0536835,46.2002289 C52.2809429,45.9527369 52.6636367,45.0518661 52.6636367,44.0948971 L52.6933284,28.7866932 C52.6933284,27.7208278 52.1984658,27.3380402 50.997599,27.6119313 L33.4794607,31.1659161 C32.4699408,31.3309108 32.1697242,31.6279011 32.1697242,32.8323621 L32.1697242,55.083541 C32.1697242,61.1223452 27.3068737,62.5182 24.2981087,62.5182 C21.2662501,62.5182 18.9436947,60.1917754 18.9436947,57.2944693 C18.9436947,53.7140853 21.6225512,52.2390331 24.816065,51.473458 L28.0722613,50.8167792 C29.0817811,50.5725872 29.4908676,49.7806128 29.4908676,48.8764421 L29.4908676,22.8039871 C29.4908676,21.4642305 30.4476021,20.8900492 31.5428981,20.6722562 L52.2017649,16.4912917 C54.0855421,16.1085041 55.2336235,16.3262971 55.2336235,18.5141262 Z" id="Shape"></path>
                </g>
                <g id="Light-S" transform="translate(615.546140, 3.265700)">
                    <path d="M38.67776,77.35543 C59.84766,77.35543 77.38916,59.8476 77.38916,38.6777 C77.38916,17.5078 59.81396,0 38.64406,0 C17.49266,0 0,17.5078 0,38.6777 C0,59.8476 17.52636,77.35543 38.67776,77.35543 Z M38.67776,71.65913 C20.42336,71.65913 5.74856,56.9658 5.74856,38.6777 C5.74856,20.3896 20.38966,5.6963 38.64406,5.6963 C56.93216,5.6963 71.65916,20.3896 71.65916,38.6777 C71.65916,56.9658 56.96586,71.65913 38.67776,71.65913 Z M53.8340204,17.7875262 L53.8340204,49.7634898 C53.8340204,55.775895 49.0503386,57.0628533 46.0481658,57.0628533 C43.0657876,57.0628533 40.6079649,54.7661277 40.6079649,51.8391226 C40.6079649,48.3148368 43.2571349,46.8397846 46.6189086,46.1567067 L49.6540722,45.4736289 C50.881334,45.2261369 51.2640286,44.3252661 51.2640286,43.3682971 L51.2937204,28.0600932 C51.2937204,26.9942278 50.7988567,26.6114402 49.5979876,26.8853313 L32.0798149,30.4393161 C31.0702931,30.6043108 30.7700758,30.9013011 30.7700758,32.1057621 L30.7700758,54.356941 C30.7700758,60.3957452 25.9072158,61.7916 22.8984449,61.7916 C19.8665804,61.7916 17.5440204,59.4651754 17.5440204,56.5678693 C17.5440204,52.9874853 20.2228822,51.5124331 23.4164022,50.746858 L26.6726049,50.0901792 C27.6821267,49.8459872 28.091214,49.0540128 28.091214,48.1498421 L28.091214,22.0773871 C28.091214,20.7376305 29.0479504,20.1634492 30.1432486,19.9456562 L50.8021558,15.7646917 C52.6859367,15.3819041 53.8340204,15.5996971 53.8340204,17.7875262 Z" id="Shape"></path>
                </g>
                <g id="Thin-S" transform="translate(319.809140, 4.226600)">
                    <path d="M37.71676,75.4336 C58.40626,75.4336 75.44726,58.4063 75.44726,37.7168 C75.44726,17.0273 58.39256,0 37.70316,0 C16.99216,0 0,17.0273 0,37.7168 C0,58.4063 17.00586,75.4336 37.71676,75.4336 Z M37.71676,72.01951 C18.76176,72.01951 3.40626,56.6855 3.40626,37.7168 C3.40626,18.7481 18.74806,3.4141 37.70316,3.4141 C56.67186,3.4141 72.01956,18.7481 72.01956,37.7168 C72.01956,56.6855 56.68556,72.01951 37.71676,72.01951 Z M52.2641993,16.8266262 L52.2641993,48.8025898 C52.2641993,54.814995 47.4805174,56.1019533 44.4783447,56.1019533 C41.4959665,56.1019533 39.0381438,53.8052277 39.0381438,50.8782226 C39.0381438,47.3539368 41.6873138,45.8788846 45.0490874,45.1958067 L48.0842511,44.5127289 C49.3115129,44.2652369 49.6942074,43.3643661 49.6942074,42.4073971 L49.7238993,27.0991932 C49.7238993,26.0333278 49.2290356,25.6505402 48.0281665,25.9244313 L30.5099938,29.4784161 C29.500472,29.6434108 29.2002547,29.9404011 29.2002547,31.1448621 L29.2002547,53.396041 C29.2002547,59.4348452 24.3373947,60.8307 21.3286238,60.8307 C18.2967593,60.8307 15.9741993,58.5042754 15.9741993,55.6069693 C15.9741993,52.0265853 18.6530611,50.5515331 21.8465811,49.785958 L25.1027838,49.1292792 C26.1123056,48.8850872 26.5213929,48.0931128 26.5213929,47.1889421 L26.5213929,21.1164871 C26.5213929,19.7767305 27.4781293,19.2025492 28.5734274,18.9847562 L49.2323347,14.8037917 C51.1161156,14.4210041 52.2641993,14.6387971 52.2641993,16.8266262 Z" id="Shape"></path>
                </g>
                <g id="Ultralight-S" transform="translate(23.595140, 4.718800)">
                    <path d="M37.22466,74.44922 C57.66796,74.44922 74.45266,57.668 74.45266,37.2246 C74.45266,16.7812 57.66456,0 37.22116,0 C16.73586,0 0,16.7812 0,37.2246 C0,57.668 16.73926,74.44922 37.22466,74.44922 Z M37.22466,72.204062 C17.91066,72.204062 2.20658,56.542 2.20658,37.2246 C2.20658,17.9072 17.90726,2.2451 37.22116,2.2451 C56.53856,2.2451 72.20406,17.9072 72.20406,37.2246 C72.20406,56.542 56.54196,72.204062 37.22466,72.204062 Z M51.4539717,16.3344262 L51.4539717,48.3103898 C51.4539717,54.322795 46.6702899,55.6097533 43.6681171,55.6097533 C40.685739,55.6097533 38.2279162,53.3130277 38.2279162,50.3860226 C38.2279162,46.8617368 40.8770862,45.3866846 44.2388599,44.7036067 L47.2740235,44.0205289 C48.5012853,43.7730369 48.8839799,42.8721661 48.8839799,41.9151971 L48.9136717,26.6069932 C48.9136717,25.5411278 48.4188081,25.1583402 47.217939,25.4322313 L29.6997662,28.9862161 C28.6902444,29.1512108 28.3900271,29.4482011 28.3900271,30.6526621 L28.3900271,52.903841 C28.3900271,58.9426452 23.5271671,60.3385 20.5183962,60.3385 C17.4865317,60.3385 15.1639717,58.0120754 15.1639717,55.1147693 C15.1639717,51.5343853 17.8428335,50.0593331 21.0363535,49.293758 L24.2925562,48.6370792 C25.3020781,48.3928872 25.7111653,47.6009128 25.7111653,46.6967421 L25.7111653,20.6242871 C25.7111653,19.2845305 26.6679017,18.7103492 27.7631999,18.4925562 L48.4221071,14.3115917 C50.3058881,13.9288041 51.4539717,14.1465971 51.4539717,16.3344262 Z" id="Shape"></path>
                </g>
            </g>
        </g>
    </g>
</svg>