<?xml version="1.0" encoding="UTF-8"?>
<!--Generator: Apple Native CoreSVG 175-->
<!DOCTYPE svg
PUBLIC "-//W3C//DTD SVG 1.1//EN"
       "http://www.w3.org/Graphics/SVG/1.1/DTD/svg11.dtd">
<svg version="1.1" xmlns="http://www.w3.org/2000/svg" xmlns:xlink="http://www.w3.org/1999/xlink" width="3300" height="2200">
 <!--glyph: "", point size: 100.0, font version: "17.3d3e1", template writer version: "65.1"-->
 <g id="Notes">
  <rect height="2200" id="artboard" style="fill:white;opacity:1" width="3300" x="0" y="0"/>
  <line style="fill:none;stroke:black;opacity:1;stroke-width:0.5;" x1="263" x2="3036" y1="292" y2="292"/>
  <text style="stroke:none;fill:black;font-family:sans-serif;font-size:13;font-weight:bold;" transform="matrix(1 0 0 1 263 322)">Weight/Scale Variations</text>
  <text style="stroke:none;fill:black;font-family:sans-serif;font-size:13;text-anchor:middle;" transform="matrix(1 0 0 1 559.711 322)">Ultralight</text>
  <text style="stroke:none;fill:black;font-family:sans-serif;font-size:13;text-anchor:middle;" transform="matrix(1 0 0 1 856.422 322)">Thin</text>
  <text style="stroke:none;fill:black;font-family:sans-serif;font-size:13;text-anchor:middle;" transform="matrix(1 0 0 1 1153.13 322)">Light</text>
  <text style="stroke:none;fill:black;font-family:sans-serif;font-size:13;text-anchor:middle;" transform="matrix(1 0 0 1 1449.84 322)">Regular</text>
  <text style="stroke:none;fill:black;font-family:sans-serif;font-size:13;text-anchor:middle;" transform="matrix(1 0 0 1 1746.56 322)">Medium</text>
  <text style="stroke:none;fill:black;font-family:sans-serif;font-size:13;text-anchor:middle;" transform="matrix(1 0 0 1 2043.27 322)">Semibold</text>
  <text style="stroke:none;fill:black;font-family:sans-serif;font-size:13;text-anchor:middle;" transform="matrix(1 0 0 1 2339.98 322)">Bold</text>
  <text style="stroke:none;fill:black;font-family:sans-serif;font-size:13;text-anchor:middle;" transform="matrix(1 0 0 1 2636.69 322)">Heavy</text>
  <text style="stroke:none;fill:black;font-family:sans-serif;font-size:13;text-anchor:middle;" transform="matrix(1 0 0 1 2933.4 322)">Black</text>
  <line style="fill:none;stroke:black;opacity:1;stroke-width:0.5;" x1="263" x2="3036" y1="1903" y2="1903"/>
  <g transform="matrix(1 0 0 1 263 1933)">
   <path d="M9.24805 0.830078Q10.8691 0.830078 12.2949 0.214844Q13.7207-0.400391 14.8096-1.49414Q15.8984-2.58789 16.5186-4.01367Q17.1387-5.43945 17.1387-7.05078Q17.1387-8.66211 16.5186-10.0879Q15.8984-11.5137 14.8047-12.6074Q13.7109-13.7012 12.2852-14.3164Q10.8594-14.9316 9.23828-14.9316Q7.62695-14.9316 6.20117-14.3164Q4.77539-13.7012 3.69141-12.6074Q2.60742-11.5137 1.9873-10.0879Q1.36719-8.66211 1.36719-7.05078Q1.36719-5.43945 1.9873-4.01367Q2.60742-2.58789 3.69629-1.49414Q4.78516-0.400391 6.21094 0.214844Q7.63672 0.830078 9.24805 0.830078ZM9.24805-0.654297Q7.91992-0.654297 6.7627-1.14746Q5.60547-1.64062 4.73145-2.51953Q3.85742-3.39844 3.36426-4.56055Q2.87109-5.72266 2.87109-7.05078Q2.87109-8.37891 3.35938-9.54102Q3.84766-10.7031 4.72168-11.582Q5.5957-12.4609 6.75293-12.9541Q7.91016-13.4473 9.23828-13.4473Q10.5762-13.4473 11.7334-12.9541Q12.8906-12.4609 13.7695-11.582Q14.6484-10.7031 15.1465-9.54102Q15.6445-8.37891 15.6445-7.05078Q15.6445-5.72266 15.1514-4.56055Q14.6582-3.39844 13.7842-2.51953Q12.9102-1.64062 11.748-1.14746Q10.5859-0.654297 9.24805-0.654297ZM5.6543-7.05078Q5.6543-6.72852 5.85938-6.52832Q6.06445-6.32812 6.40625-6.32812L8.51562-6.32812L8.51562-4.20898Q8.51562-3.88672 8.71094-3.67676Q8.90625-3.4668 9.23828-3.4668Q9.56055-3.4668 9.77051-3.67676Q9.98047-3.88672 9.98047-4.20898L9.98047-6.32812L12.0898-6.32812Q12.4219-6.32812 12.627-6.52832Q12.832-6.72852 12.832-7.05078Q12.832-7.38281 12.627-7.58789Q12.4219-7.79297 12.0898-7.79297L9.98047-7.79297L9.98047-9.90234Q9.98047-10.2344 9.77051-10.4443Q9.56055-10.6543 9.23828-10.6543Q8.90625-10.6543 8.71094-10.4443Q8.51562-10.2344 8.51562-9.90234L8.51562-7.79297L6.40625-7.79297Q6.06445-7.79297 5.85938-7.58789Q5.6543-7.38281 5.6543-7.05078Z"/>
  </g>
  <g transform="matrix(1 0 0 1 281.867 1933)">
   <path d="M11.709 2.91016Q13.75 2.91016 15.5518 2.12891Q17.3535 1.34766 18.7305-0.0292969Q20.1074-1.40625 20.8887-3.20801Q21.6699-5.00977 21.6699-7.05078Q21.6699-9.0918 20.8887-10.8936Q20.1074-12.6953 18.7305-14.0723Q17.3535-15.4492 15.5469-16.2305Q13.7402-17.0117 11.6992-17.0117Q9.6582-17.0117 7.85645-16.2305Q6.05469-15.4492 4.68262-14.0723Q3.31055-12.6953 2.5293-10.8936Q1.74805-9.0918 1.74805-7.05078Q1.74805-5.00977 2.5293-3.20801Q3.31055-1.40625 4.6875-0.0292969Q6.06445 1.34766 7.86621 2.12891Q9.66797 2.91016 11.709 2.91016ZM11.709 1.25Q9.98047 1.25 8.47656 0.605469Q6.97266-0.0390625 5.83496-1.17676Q4.69727-2.31445 4.05762-3.81836Q3.41797-5.32227 3.41797-7.05078Q3.41797-8.7793 4.05762-10.2832Q4.69727-11.7871 5.83008-12.9297Q6.96289-14.0723 8.4668-14.7119Q9.9707-15.3516 11.6992-15.3516Q13.4277-15.3516 14.9316-14.7119Q16.4355-14.0723 17.5781-12.9297Q18.7207-11.7871 19.3652-10.2832Q20.0098-8.7793 20.0098-7.05078Q20.0098-5.32227 19.3701-3.81836Q18.7305-2.31445 17.5928-1.17676Q16.4551-0.0390625 14.9463 0.605469Q13.4375 1.25 11.709 1.25ZM7.17773-7.05078Q7.17773-6.69922 7.41211-6.47461Q7.64648-6.25 8.01758-6.25L10.8887-6.25L10.8887-3.36914Q10.8887-2.99805 11.1133-2.76855Q11.3379-2.53906 11.6895-2.53906Q12.0605-2.53906 12.29-2.76855Q12.5195-2.99805 12.5195-3.36914L12.5195-6.25L15.4004-6.25Q15.7715-6.25 16.001-6.47461Q16.2305-6.69922 16.2305-7.05078Q16.2305-7.42188 16.001-7.65137Q15.7715-7.88086 15.4004-7.88086L12.5195-7.88086L12.5195-10.752Q12.5195-11.1328 12.29-11.3623Q12.0605-11.5918 11.6895-11.5918Q11.3379-11.5918 11.1133-11.3574Q10.8887-11.123 10.8887-10.752L10.8887-7.88086L8.01758-7.88086Q7.63672-7.88086 7.40723-7.65137Q7.17773-7.42188 7.17773-7.05078Z"/>
  </g>
  <g transform="matrix(1 0 0 1 305.646 1933)">
   <path d="M14.9707 5.66406Q17.0605 5.66406 18.96 5.01465Q20.8594 4.36523 22.4512 3.19336Q24.043 2.02148 25.2197 0.429688Q26.3965-1.16211 27.0459-3.06641Q27.6953-4.9707 27.6953-7.05078Q27.6953-9.14062 27.0459-11.04Q26.3965-12.9395 25.2197-14.5312Q24.043-16.123 22.4512-17.2998Q20.8594-18.4766 18.9551-19.126Q17.0508-19.7754 14.9609-19.7754Q12.8711-19.7754 10.9717-19.126Q9.07227-18.4766 7.48535-17.2998Q5.89844-16.123 4.72168-14.5312Q3.54492-12.9395 2.90039-11.04Q2.25586-9.14062 2.25586-7.05078Q2.25586-4.9707 2.90527-3.06641Q3.55469-1.16211 4.72656 0.429688Q5.89844 2.02148 7.49023 3.19336Q9.08203 4.36523 10.9814 5.01465Q12.8809 5.66406 14.9707 5.66406ZM14.9707 3.84766Q13.1641 3.84766 11.5283 3.2959Q9.89258 2.74414 8.53516 1.74805Q7.17773 0.751953 6.17676-0.610352Q5.17578-1.97266 4.62891-3.6084Q4.08203-5.24414 4.08203-7.05078Q4.08203-8.86719 4.62891-10.5029Q5.17578-12.1387 6.17188-13.501Q7.16797-14.8633 8.52539-15.8594Q9.88281-16.8555 11.5186-17.4023Q13.1543-17.9492 14.9609-17.9492Q16.7773-17.9492 18.4131-17.4023Q20.0488-16.8555 21.4111-15.8594Q22.7734-14.8633 23.7695-13.501Q24.7656-12.1387 25.3174-10.5029Q25.8691-8.86719 25.8691-7.05078Q25.8789-5.24414 25.332-3.6084Q24.7852-1.97266 23.7842-0.610352Q22.7832 0.751953 21.4209 1.74805Q20.0586 2.74414 18.4229 3.2959Q16.7871 3.84766 14.9707 3.84766ZM9.19922-7.05078Q9.19922-6.66992 9.45801-6.4209Q9.7168-6.17188 10.1172-6.17188L14.0625-6.17188L14.0625-2.2168Q14.0625-1.81641 14.3115-1.55762Q14.5605-1.29883 14.9512-1.29883Q15.3516-1.29883 15.6104-1.55273Q15.8691-1.80664 15.8691-2.2168L15.8691-6.17188L19.8242-6.17188Q20.2246-6.17188 20.4785-6.4209Q20.7324-6.66992 20.7324-7.05078Q20.7324-7.46094 20.4785-7.71484Q20.2246-7.96875 19.8242-7.96875L15.8691-7.96875L15.8691-11.9141Q15.8691-12.3242 15.6104-12.583Q15.3516-12.8418 14.9512-12.8418Q14.5605-12.8418 14.3115-12.583Q14.0625-12.3242 14.0625-11.9141L14.0625-7.96875L10.1172-7.96875Q9.70703-7.96875 9.45312-7.71484Q9.19922-7.46094 9.19922-7.05078Z"/>
  </g>
  <text style="stroke:none;fill:black;font-family:sans-serif;font-size:13;font-weight:bold;" transform="matrix(1 0 0 1 263 1953)">Design Variations</text>
  <text style="stroke:none;fill:black;font-family:sans-serif;font-size:13;" transform="matrix(1 0 0 1 263 1971)">Symbols are supported in up to nine weights and three scales.</text>
  <text style="stroke:none;fill:black;font-family:sans-serif;font-size:13;" transform="matrix(1 0 0 1 263 1989)">For optimal layout with text and other symbols, vertically align</text>
  <text style="stroke:none;fill:black;font-family:sans-serif;font-size:13;" transform="matrix(1 0 0 1 263 2007)">symbols with the adjacent text.</text>
  <line style="fill:none;stroke:#00AEEF;stroke-width:0.5;opacity:1.0;" x1="776" x2="776" y1="1919" y2="1933"/>
  <g transform="matrix(1 0 0 1 776 1933)">
   <path d="M3.31055 0.15625Q3.70117 0.15625 3.91602-0.00976562Q4.13086-0.175781 4.26758-0.585938L5.52734-4.0332L11.2891-4.0332L12.5488-0.585938Q12.6855-0.175781 12.9004-0.00976562Q13.1152 0.15625 13.4961 0.15625Q13.8867 0.15625 14.1162-0.0585938Q14.3457-0.273438 14.3457-0.644531Q14.3457-0.869141 14.2383-1.17188L9.6582-13.3691Q9.48242-13.8184 9.17969-14.043Q8.87695-14.2676 8.4082-14.2676Q7.5-14.2676 7.17773-13.3789L2.59766-1.16211Q2.49023-0.859375 2.49023-0.634766Q2.49023-0.263672 2.70996-0.0537109Q2.92969 0.15625 3.31055 0.15625ZM6.00586-5.51758L8.37891-12.0898L8.42773-12.0898L10.8008-5.51758Z"/>
  </g>
  <line style="fill:none;stroke:#00AEEF;stroke-width:0.5;opacity:1.0;" x1="793.197" x2="793.197" y1="1919" y2="1933"/>
  <text style="stroke:none;fill:black;font-family:sans-serif;font-size:13;font-weight:bold;" transform="matrix(1 0 0 1 776 1953)">Margins</text>
  <text style="stroke:none;fill:black;font-family:sans-serif;font-size:13;" transform="matrix(1 0 0 1 776 1971)">Leading and trailing margins on the left and right side of each symbol</text>
  <text style="stroke:none;fill:black;font-family:sans-serif;font-size:13;" transform="matrix(1 0 0 1 776 1989)">can be adjusted by modifying the x-location of the margin guidelines.</text>
  <text style="stroke:none;fill:black;font-family:sans-serif;font-size:13;" transform="matrix(1 0 0 1 776 2007)">Modifications are automatically applied proportionally to all</text>
  <text style="stroke:none;fill:black;font-family:sans-serif;font-size:13;" transform="matrix(1 0 0 1 776 2025)">scales and weights.</text>
  <g transform="matrix(1 0 0 1 1289 1933)">
   <path d="M2.8418 1.86523L4.54102 3.57422Q5.18555 4.22852 5.90332 4.17969Q6.62109 4.13086 7.31445 3.35938L18.0078-8.42773L17.041-9.4043L6.42578 2.27539Q6.16211 2.57812 5.89355 2.61719Q5.625 2.65625 5.27344 2.30469L4.10156 1.14258Q3.75 0.791016 3.79395 0.522461Q3.83789 0.253906 4.14062-0.0195312L15.6152-10.8203L14.6387-11.7871L3.04688-0.898438Q2.30469-0.214844 2.25098 0.498047Q2.19727 1.21094 2.8418 1.86523ZM9.25781-16.3281Q8.94531-16.0254 8.90625-15.6348Q8.86719-15.2441 9.04297-14.9512Q9.21875-14.6777 9.55566-14.541Q9.89258-14.4043 10.3809-14.5215Q11.4746-14.7754 12.5977-14.7314Q13.7207-14.6875 14.7949-13.9844L14.209-12.5293Q13.9551-11.9043 14.0674-11.4404Q14.1797-10.9766 14.5801-10.5664L16.875-8.25195Q17.2363-7.88086 17.5781-7.82227Q17.9199-7.76367 18.3398-7.8418L19.4043-8.03711L20.0684-7.36328L20.0293-6.80664Q20-6.43555 20.1221-6.12305Q20.2441-5.81055 20.6055-5.44922L21.3672-4.70703Q21.7285-4.3457 22.1533-4.33105Q22.5781-4.31641 22.9297-4.66797L25.8398-7.58789Q26.1914-7.93945 26.1816-8.35449Q26.1719-8.76953 25.8105-9.13086L25.0391-9.89258Q24.6875-10.2539 24.3799-10.3857Q24.0723-10.5176 23.7109-10.4883L23.1348-10.4395L22.4902-11.0742L22.7344-12.1973Q22.832-12.6172 22.6953-12.9834Q22.5586-13.3496 22.1191-13.7891L19.9219-15.9766Q18.6719-17.2168 17.2607-17.8369Q15.8496-18.457 14.4189-18.4814Q12.9883-18.5059 11.665-17.959Q10.3418-17.4121 9.25781-16.3281ZM10.752-15.957Q11.6602-16.6211 12.7002-16.9043Q13.7402-17.1875 14.8047-17.085Q15.8691-16.9824 16.8701-16.5137Q17.8711-16.0449 18.7012-15.2051L21.1328-12.793Q21.3086-12.6172 21.3525-12.4512Q21.3965-12.2852 21.3379-12.0312L21.0156-10.5469L22.5195-9.0625L23.5059-9.12109Q23.6914-9.13086 23.7891-9.09668Q23.8867-9.0625 24.0332-8.91602L24.6094-8.33984L22.168-5.89844L21.5918-6.47461Q21.4453-6.62109 21.4062-6.71875Q21.3672-6.81641 21.377-7.01172L21.4453-7.98828L19.9512-9.47266L18.4277-9.21875Q18.1836-9.16992 18.042-9.2041Q17.9004-9.23828 17.7148-9.41406L15.7129-11.416Q15.5176-11.5918 15.4932-11.7529Q15.4688-11.9141 15.5859-12.1875L16.4648-14.2773Q15.293-15.3711 13.8281-15.791Q12.3633-16.2109 10.8398-15.7617Q10.7227-15.7324 10.6885-15.8057Q10.6543-15.8789 10.752-15.957Z"/>
  </g>
  <text style="stroke:none;fill:black;font-family:sans-serif;font-size:13;font-weight:bold;" transform="matrix(1 0 0 1 1289 1953)">Exporting</text>
  <text style="stroke:none;fill:black;font-family:sans-serif;font-size:13;" transform="matrix(1 0 0 1 1289 1971)">Symbols should be outlined when exporting to ensure the</text>
  <text style="stroke:none;fill:black;font-family:sans-serif;font-size:13;" transform="matrix(1 0 0 1 1289 1989)">design is preserved when submitting to Xcode.</text>
  <text id="template-version" style="stroke:none;fill:black;font-family:sans-serif;font-size:13;text-anchor:end;" transform="matrix(1 0 0 1 3036 1933)">Template v.3.0</text>
  <text style="stroke:none;fill:black;font-family:sans-serif;font-size:13;text-anchor:end;" transform="matrix(1 0 0 1 3036 1951)">Requires Xcode 13 or greater</text>
  <text id="descriptive-name" style="stroke:none;fill:black;font-family:sans-serif;font-size:13;text-anchor:end;" transform="matrix(1 0 0 1 3036 1969)">Generated from music.note.circle</text>
  <text style="stroke:none;fill:black;font-family:sans-serif;font-size:13;text-anchor:end;" transform="matrix(1 0 0 1 3036 1987)">Typeset at 100 points</text>
  <text style="stroke:none;fill:black;font-family:sans-serif;font-size:13;" transform="matrix(1 0 0 1 263 726)">Small</text>
  <text style="stroke:none;fill:black;font-family:sans-serif;font-size:13;" transform="matrix(1 0 0 1 263 1156)">Medium</text>
  <text style="stroke:none;fill:black;font-family:sans-serif;font-size:13;" transform="matrix(1 0 0 1 263 1586)">Large</text>
 </g>
 <g id="Guides">
  <g id="H-reference" style="fill:#27AAE1;stroke:none;" transform="matrix(1 0 0 1 339 696)">
   <path d="M0.993347 0L3.6377 0L29.3282-67.1326L30.0301-67.1326L30.0301-70.459L28.1227-70.459ZM11.6882-24.4797L46.9818-24.4797L46.2311-26.7288L12.4382-26.7288ZM55.1193 0L57.7637 0L30.6381-70.459L29.4327-70.459L29.4327-67.1326Z"/>
  </g>
  <line id="Baseline-S" style="fill:none;stroke:#27AAE1;opacity:1;stroke-width:0.5;" x1="263" x2="3036" y1="696" y2="696"/>
  <line id="Capline-S" style="fill:none;stroke:#27AAE1;opacity:1;stroke-width:0.5;" x1="263" x2="3036" y1="625.541" y2="625.541"/>
  <g id="H-reference" style="fill:#27AAE1;stroke:none;" transform="matrix(1 0 0 1 339 1126)">
   <path d="M0.993347 0L3.6377 0L29.3282-67.1326L30.0301-67.1326L30.0301-70.459L28.1227-70.459ZM11.6882-24.4797L46.9818-24.4797L46.2311-26.7288L12.4382-26.7288ZM55.1193 0L57.7637 0L30.6381-70.459L29.4327-70.459L29.4327-67.1326Z"/>
  </g>
  <line id="Baseline-M" style="fill:none;stroke:#27AAE1;opacity:1;stroke-width:0.5;" x1="263" x2="3036" y1="1126" y2="1126"/>
  <line id="Capline-M" style="fill:none;stroke:#27AAE1;opacity:1;stroke-width:0.5;" x1="263" x2="3036" y1="1055.54" y2="1055.54"/>
  <g id="H-reference" style="fill:#27AAE1;stroke:none;" transform="matrix(1 0 0 1 339 1556)">
   <path d="M0.993347 0L3.6377 0L29.3282-67.1326L30.0301-67.1326L30.0301-70.459L28.1227-70.459ZM11.6882-24.4797L46.9818-24.4797L46.2311-26.7288L12.4382-26.7288ZM55.1193 0L57.7637 0L30.6381-70.459L29.4327-70.459L29.4327-67.1326Z"/>
  </g>
  <line id="Baseline-L" style="fill:none;stroke:#27AAE1;opacity:1;stroke-width:0.5;" x1="263" x2="3036" y1="1556" y2="1556"/>
  <line id="Capline-L" style="fill:none;stroke:#27AAE1;opacity:1;stroke-width:0.5;" x1="263" x2="3036" y1="1485.54" y2="1485.54"/>
  <line id="left-margin-Regular-M" style="fill:none;stroke:#00AEEF;stroke-width:0.5;opacity:1.0;" x1="1388.71" x2="1388.71" y1="1030.78" y2="1150.12"/>
  <line id="right-margin-Regular-M" style="fill:none;stroke:#00AEEF;stroke-width:0.5;opacity:1.0;" x1="1510.98" x2="1510.98" y1="1030.78" y2="1150.12"/>
 </g>
 <g id="Symbols">
  <g id="Black-L" transform="matrix(1 0 0 1 2854.12 1556)">
   <path d="M79.2697 32.7257C116.634 32.7257 147.228 2.15259 147.228-35.2113C147.228-72.5752 116.613-103.148 79.2489-103.148C41.9046-103.148 11.3327-72.5752 11.3327-35.2113C11.3327 2.15259 41.9254 32.7257 79.2697 32.7257ZM79.2697 12.5782C52.8389 12.5782 31.5207-8.75969 31.5207-35.2113C31.5207-61.6629 52.8181-83.0007 79.2489-83.0007C105.701-83.0007 127.059-61.6629 127.059-35.2113C127.059-8.75969 105.721 12.5782 79.2697 12.5782ZM99.7997-66.2886L99.7997-18.8024C99.7997-9.87367 92.694-7.96247 88.2345-7.96247C83.8044-7.96247 80.1535-11.3732 80.1535-15.72C80.1535-20.9538 84.0886-23.1443 89.0823-24.1587L93.5908-25.1731C95.4138-25.5407 95.9822-26.8785 95.9822-28.2997L96.0263-51.0333C96.0263-52.6161 95.2912-53.1846 93.5074-52.7778L67.4856-47.5C65.986-47.2549 65.5401-46.8139 65.5401-45.0252L65.5401-11.9809C65.5401-3.01293 58.3167-0.94 53.8474-0.94C49.3438-0.94 45.8939-4.39488 45.8939-8.69755C45.8939-14.0146 49.8731-16.2052 54.6168-17.3421L59.4536-18.3173C60.9532-18.6799 61.5609-19.8561 61.5609-21.1988L61.5609-59.9179C61.5609-61.9075 62.982-62.7602 64.609-63.0837L95.2961-69.2926C98.0943-69.8611 99.7997-69.5377 99.7997-66.2886Z"/>
  </g>
  <g id="Heavy-L" transform="matrix(1 0 0 1 2558.34 1556)">
   <path d="M78.3271 31.7694C115.13 31.7694 145.352 1.57794 145.352-35.2251C145.352-72.0281 115.1-102.22 78.297-102.22C41.5185-102.22 11.3327-72.0281 11.3327-35.2251C11.3327 1.57794 41.5487 31.7694 78.3271 31.7694ZM78.3271 14.0275C51.0801 14.0275 29.1293-7.9479 29.1293-35.2251C29.1293-62.5023 51.05-84.4777 78.297-84.4777C105.574-84.4777 127.58-62.5023 127.58-35.2251C127.58-7.9479 105.604 14.0275 78.3271 14.0275ZM99.3197-66.2886L99.3197-18.8024C99.3197-9.87367 92.214-7.96247 87.7545-7.96247C83.3244-7.96247 79.6735-11.3732 79.6735-15.72C79.6735-20.9538 83.6086-23.1443 88.6023-24.1587L93.1108-25.1731C94.9338-25.5407 95.5022-26.8785 95.5022-28.2997L95.5463-51.0333C95.5463-52.6161 94.8112-53.1846 93.0274-52.7778L67.0056-47.5C65.506-47.2549 65.0601-46.8139 65.0601-45.0252L65.0601-11.9809C65.0601-3.01293 57.8367-0.94 53.3674-0.94C48.8638-0.94 45.4139-4.39488 45.4139-8.69755C45.4139-14.0146 49.3931-16.2052 54.1368-17.3421L58.9736-18.3173C60.4732-18.6799 61.0809-19.8561 61.0809-21.1988L61.0809-59.9179C61.0809-61.9075 62.502-62.7602 64.129-63.0837L94.8161-69.2926C97.6143-69.8611 99.3197-69.5377 99.3197-66.2886Z"/>
  </g>
  <g id="Bold-L" transform="matrix(1 0 0 1 2262.81 1556)">
   <path d="M77.1443 30.5711C113.256 30.5711 142.994 0.870872 142.994-35.2405C142.994-71.3519 113.218-101.052 77.1063-101.052C41.0197-101.052 11.3327-71.3519 11.3327-35.2405C11.3327 0.870872 41.0577 30.5711 77.1443 30.5711ZM77.1443 15.8255C48.8906 15.8255 26.1411-6.94878 26.1411-35.2405C26.1411-63.5322 48.8526-86.3065 77.1063-86.3065C105.398-86.3065 128.21-63.5322 128.21-35.2405C128.21-6.94878 105.436 15.8255 77.1443 15.8255ZM98.7197-66.2886L98.7197-18.8024C98.7197-9.87367 91.614-7.96247 87.1545-7.96247C82.7244-7.96247 79.0735-11.3732 79.0735-15.72C79.0735-20.9538 83.0086-23.1443 88.0023-24.1587L92.5108-25.1731C94.3338-25.5407 94.9022-26.8785 94.9022-28.2997L94.9463-51.0333C94.9463-52.6161 94.2112-53.1846 92.4274-52.7778L66.4056-47.5C64.906-47.2549 64.4601-46.8139 64.4601-45.0252L64.4601-11.9809C64.4601-3.01293 57.2367-0.94 52.7674-0.94C48.2638-0.94 44.8139-4.39488 44.8139-8.69755C44.8139-14.0146 48.7931-16.2052 53.5368-17.3421L58.3736-18.3173C59.8732-18.6799 60.4809-19.8561 60.4809-21.1988L60.4809-59.9179C60.4809-61.9075 61.902-62.7602 63.529-63.0837L94.2161-69.2926C97.0143-69.8611 98.7197-69.5377 98.7197-66.2886Z"/>
  </g>
  <g id="Semibold-L" transform="matrix(1 0 0 1 1966.91 1556)">
   <path d="M76.3288 29.745C111.963 29.745 141.368 0.383422 141.368-35.2511C141.368-70.8857 111.92-100.247 76.2855-100.247C40.6758-100.247 11.3327-70.8857 11.3327-35.2511C11.3327 0.383422 40.7192 29.745 76.3288 29.745ZM76.3288 17.065C47.3811 17.065 24.081-6.26 24.081-35.2511C24.081-64.2423 47.3377-87.5672 76.2855-87.5672C105.277-87.5672 128.645-64.2423 128.645-35.2511C128.645-6.26 105.32 17.065 76.3288 17.065ZM98.2997-66.2886L98.2997-18.8024C98.2997-9.87367 91.194-7.96247 86.7345-7.96247C82.3044-7.96247 78.6535-11.3732 78.6535-15.72C78.6535-20.9538 82.5886-23.1443 87.5823-24.1587L92.0908-25.1731C93.9138-25.5407 94.4822-26.8785 94.4822-28.2997L94.5263-51.0333C94.5263-52.6161 93.7912-53.1846 92.0074-52.7778L65.9856-47.5C64.486-47.2549 64.0401-46.8139 64.0401-45.0252L64.0401-11.9809C64.0401-3.01293 56.8167-0.94 52.3474-0.94C47.8438-0.94 44.3939-4.39488 44.3939-8.69755C44.3939-14.0146 48.3731-16.2052 53.1168-17.3421L57.9536-18.3173C59.4532-18.6799 60.0609-19.8561 60.0609-21.1988L60.0609-59.9179C60.0609-61.9075 61.482-62.7602 63.109-63.0837L93.7961-69.2926C96.5943-69.8611 98.2997-69.5377 98.2997-66.2886Z"/>
  </g>
  <g id="Medium-L" transform="matrix(1 0 0 1 1670.82 1556)">
   <path d="M75.7105 29.1187C110.984 29.1187 140.136 0.0138167 140.136-35.2592C140.136-70.5322 110.936-99.637 75.6631-99.637C40.4151-99.637 11.3327-70.5322 11.3327-35.2592C11.3327 0.0138167 40.4625 29.1187 75.7105 29.1187ZM75.7105 18.0048C46.2365 18.0048 22.519-5.73774 22.519-35.2592C22.519-64.7806 46.1891-88.5232 75.6631-88.5232C105.185-88.5232 128.975-64.7806 128.975-35.2592C128.975-5.73774 105.232 18.0048 75.7105 18.0048ZM97.9897-66.2886L97.9897-18.8024C97.9897-9.87367 90.884-7.96247 86.4245-7.96247C81.9944-7.96247 78.3435-11.3732 78.3435-15.72C78.3435-20.9538 82.2786-23.1443 87.2723-24.1587L91.7808-25.1731C93.6038-25.5407 94.1722-26.8785 94.1722-28.2997L94.2163-51.0333C94.2163-52.6161 93.4812-53.1846 91.6974-52.7778L65.6756-47.5C64.176-47.2549 63.7301-46.8139 63.7301-45.0252L63.7301-11.9809C63.7301-3.01293 56.5067-0.94 52.0374-0.94C47.5338-0.94 44.0839-4.39488 44.0839-8.69755C44.0839-14.0146 48.0631-16.2052 52.8068-17.3421L57.6436-18.3173C59.1432-18.6799 59.7509-19.8561 59.7509-21.1988L59.7509-59.9179C59.7509-61.9075 61.172-62.7602 62.799-63.0837L93.4861-69.2926C96.2843-69.8611 97.9897-69.5377 97.9897-66.2886Z"/>
  </g>
  <g id="Regular-L" transform="matrix(1 0 0 1 1374.91 1556)">
   <path d="M74.904 28.3017C109.706 28.3017 138.528-0.468277 138.528-35.2697C138.528-70.0711 109.653-98.8411 74.8513-98.8411C40.075-98.8411 11.3327-70.0711 11.3327-35.2697C11.3327-0.468277 40.1277 28.3017 74.904 28.3017ZM74.904 19.2307C44.7436 19.2307 20.4815-5.05652 20.4815-35.2697C20.4815-65.4829 44.6909-89.7701 74.8513-89.7701C105.065-89.7701 129.405-65.4829 129.405-35.2697C129.405-5.05652 105.117 19.2307 74.904 19.2307ZM97.5797-66.2886L97.5797-18.8024C97.5797-9.87367 90.474-7.96247 86.0145-7.96247C81.5844-7.96247 77.9335-11.3732 77.9335-15.72C77.9335-20.9538 81.8686-23.1443 86.8623-24.1587L91.3708-25.1731C93.1938-25.5407 93.7622-26.8785 93.7622-28.2997L93.8063-51.0333C93.8063-52.6161 93.0712-53.1846 91.2874-52.7778L65.2656-47.5C63.766-47.2549 63.3201-46.8139 63.3201-45.0252L63.3201-11.9809C63.3201-3.01293 56.0967-0.94 51.6274-0.94C47.1238-0.94 43.6739-4.39488 43.6739-8.69755C43.6739-14.0146 47.6531-16.2052 52.3968-17.3421L57.2336-18.3173C58.7332-18.6799 59.3409-19.8561 59.3409-21.1988L59.3409-59.9179C59.3409-61.9075 60.762-62.7602 62.389-63.0837L93.0761-69.2926C95.8743-69.8611 97.5797-69.5377 97.5797-66.2886Z"/>
  </g>
  <g id="Light-L" transform="matrix(1 0 0 1 1079.13 1556)">
   <path d="M73.988 27.3856C108.331 27.3856 136.677-0.926323 136.677-35.2697C136.677-69.6131 108.298-97.925 73.9543-97.925C39.5978-97.925 11.3327-69.6131 11.3327-35.2697C11.3327-0.926323 39.6315 27.3856 73.988 27.3856ZM73.988 20.4903C43.1596 20.4903 18.2485-4.40762 18.2485-35.2697C18.2485-66.1318 43.1259-91.0297 73.9543-91.0297C104.816-91.0297 129.748-66.1318 129.748-35.2697C129.748-4.40762 104.85 20.4903 73.988 20.4903ZM96.9497-66.2886L96.9497-18.8024C96.9497-9.87367 89.844-7.96247 85.3845-7.96247C80.9544-7.96247 77.3035-11.3732 77.3035-15.72C77.3035-20.9538 81.2386-23.1443 86.2323-24.1587L90.7408-25.1731C92.5638-25.5407 93.1322-26.8785 93.1322-28.2997L93.1763-51.0333C93.1763-52.6161 92.4412-53.1846 90.6574-52.7778L64.6356-47.5C63.136-47.2549 62.6901-46.8139 62.6901-45.0252L62.6901-11.9809C62.6901-3.01293 55.4667-0.94 50.9974-0.94C46.4938-0.94 43.0439-4.39488 43.0439-8.69755C43.0439-14.0146 47.0231-16.2052 51.7668-17.3421L56.6036-18.3173C58.1032-18.6799 58.7109-19.8561 58.7109-21.1988L58.7109-59.9179C58.7109-61.9075 60.132-62.7602 61.759-63.0837L92.4461-69.2926C95.2443-69.8611 96.9497-69.5377 96.9497-66.2886Z"/>
  </g>
  <g id="Thin-L" transform="matrix(1 0 0 1 783.638 1556)">
   <path d="M72.7763 26.174C106.514 26.174 134.229-1.53213 134.229-35.2697C134.229-69.0073 106.506-96.7134 72.7679-96.7134C38.9668-96.7134 11.3327-69.0073 11.3327-35.2697C11.3327-1.53213 38.9752 26.174 72.7763 26.174ZM72.7763 22.1563C41.0645 22.1563 15.2953-3.5494 15.2953-35.2697C15.2953-66.99 41.056-92.6957 72.7679-92.6957C104.488-92.6957 130.202-66.99 130.202-35.2697C130.202-3.5494 104.497 22.1563 72.7763 22.1563ZM96.7937-66.2886L96.7937-18.8024C96.7937-9.87367 89.688-7.96247 85.2285-7.96247C80.7984-7.96247 77.1475-11.3732 77.1475-15.72C77.1475-20.9538 81.0826-23.1443 86.0763-24.1587L90.5848-25.1731C92.4078-25.5407 92.9762-26.8785 92.9762-28.2997L93.0203-51.0333C93.0203-52.6161 92.2852-53.1846 90.5014-52.7778L64.4796-47.5C62.98-47.2549 62.5341-46.8139 62.5341-45.0252L62.5341-11.9809C62.5341-3.01293 55.3107-0.94 50.8414-0.94C46.3378-0.94 42.8879-4.39488 42.8879-8.69755C42.8879-14.0146 46.8671-16.2052 51.6108-17.3421L56.4476-18.3173C57.9472-18.6799 58.5549-19.8561 58.5549-21.1988L58.5549-59.9179C58.5549-61.9075 59.976-62.7602 61.603-63.0837L92.2901-69.2926C95.0883-69.8611 96.7937-69.5377 96.7937-66.2886Z"/>
  </g>
  <g id="Ultralight-L" transform="matrix(1 0 0 1 487.555 1556)">
   <path d="M72.1558 25.5534C105.583 25.5534 132.974-1.84242 132.974-35.2697C132.974-68.697 105.588-96.0928 72.1603-96.0928C38.6436-96.0928 11.3327-68.697 11.3327-35.2697C11.3327-1.84242 38.6391 25.5534 72.1558 25.5534ZM72.1558 23.0096C39.9914 23.0096 13.7826-3.10983 13.7826-35.2697C13.7826-67.4296 39.9959-93.549 72.1603-93.549C104.32-93.549 130.435-67.4296 130.435-35.2697C130.435-3.10983 104.316 23.0096 72.1558 23.0096ZM96.1687-66.2886L96.1687-18.8024C96.1687-9.87367 89.063-7.96247 84.6035-7.96247C80.1734-7.96247 76.5225-11.3732 76.5225-15.72C76.5225-20.9538 80.4576-23.1443 85.4513-24.1587L89.9598-25.1731C91.7828-25.5407 92.3512-26.8785 92.3512-28.2997L92.3953-51.0333C92.3953-52.6161 91.6602-53.1846 89.8764-52.7778L63.8546-47.5C62.355-47.2549 61.9091-46.8139 61.9091-45.0252L61.9091-11.9809C61.9091-3.01293 54.6857-0.94 50.2164-0.94C45.7128-0.94 42.2629-4.39488 42.2629-8.69755C42.2629-14.0146 46.2421-16.2052 50.9858-17.3421L55.8226-18.3173C57.3222-18.6799 57.9299-19.8561 57.9299-21.1988L57.9299-59.9179C57.9299-61.9075 59.351-62.7602 60.978-63.0837L91.6651-69.2926C94.4633-69.8611 96.1687-69.5377 96.1687-66.2886Z"/>
  </g>
  <g id="Black-M" transform="matrix(1 0 0 1 2868.74 1126)">
   <path d="M64.6522 18.116C94.0196 18.116 117.977-5.83621 117.977-35.2035C117.977-64.5709 94.0141-88.5231 64.6467-88.5231C35.2852-88.5231 11.3327-64.5709 11.3327-35.2035C11.3327-5.83621 35.2907 18.116 64.6522 18.116ZM64.6522 0.73415C44.7862 0.73415 28.7258-15.332 28.7258-35.2035C28.7258-55.0751 44.7807-71.1412 64.6467-71.1412C84.5183-71.1412 100.59-55.0751 100.59-35.2035C100.59-15.332 84.5238 0.73415 64.6522 0.73415ZM85.0933-60.4824L85.0933-21.8692C85.0933-14.6088 79.3153-13.0548 75.6891-13.0548C72.0868-13.0548 69.1181-15.8282 69.1181-19.3628C69.1181-23.6186 72.3179-25.3998 76.3785-26.2247L80.0445-27.0495C81.5269-27.3484 81.9891-28.4363 81.9891-29.5919L82.025-48.0776C82.025-49.3647 81.4273-49.8269 79.9768-49.4962L58.8172-45.2045C57.5979-45.0053 57.2353-44.6466 57.2353-43.1922L57.2353-16.3223C57.2353-9.03006 51.3616-7.34446 47.7274-7.34446C44.0653-7.34446 41.26-10.1538 41.26-13.6525C41.26-17.976 44.4957-19.7573 48.353-20.6818L52.2861-21.4747C53.5054-21.7696 53.9996-22.726 53.9996-23.8178L53.9996-55.3021C53.9996-56.92 55.1552-57.6133 56.4781-57.8763L81.4313-62.9251C83.7066-63.3874 85.0933-63.1244 85.0933-60.4824Z"/>
  </g>
  <g id="Heavy-M" transform="matrix(1 0 0 1 2572.86 1126)">
   <path d="M63.8153 17.2657C92.6767 17.2657 116.314-6.35571 116.314-35.217C116.314-64.0783 92.6602-87.6997 63.7989-87.6997C34.9518-87.6997 11.3327-64.0783 11.3327-35.217C11.3327-6.35571 34.9682 17.2657 63.8153 17.2657ZM63.8153 2.03478C43.213 2.03478 26.5941-14.5983 26.5941-35.217C26.5941-55.8358 43.1966-72.4688 63.7989-72.4688C84.4177-72.4688 101.067-55.8358 101.067-35.217C101.067-14.5983 84.4341 2.03478 63.8153 2.03478ZM83.6133-60.4924L83.6133-21.8792C83.6133-14.6188 77.8353-13.0648 74.2091-13.0648C70.6068-13.0648 67.6381-15.8382 67.6381-19.3728C67.6381-23.6286 70.8379-25.4098 74.8985-26.2347L78.5645-27.0595C80.0469-27.3584 80.5091-28.4463 80.5091-29.6019L80.545-48.0876C80.545-49.3747 79.9473-49.8369 78.4968-49.5062L57.3372-45.2145C56.1179-45.0153 55.7553-44.6566 55.7553-43.2022L55.7553-16.3323C55.7553-9.04006 49.8816-7.35446 46.2474-7.35446C42.5853-7.35446 39.78-10.1638 39.78-13.6625C39.78-17.986 43.0157-19.7673 46.873-20.6918L50.8061-21.4847C52.0254-21.7796 52.5196-22.736 52.5196-23.8278L52.5196-55.3121C52.5196-56.93 53.6752-57.6233 54.9981-57.8863L79.9513-62.9351C82.2266-63.3974 83.6133-63.1344 83.6133-60.4924Z"/>
  </g>
  <g id="Bold-M" transform="matrix(1 0 0 1 2277.08 1126)">
   <path d="M62.8792 16.3144C91.1744 16.3144 114.454-6.93686 114.454-35.2321C114.454-63.5273 91.1458-86.7786 62.8505-86.7786C34.5788-86.7786 11.3327-63.5273 11.3327-35.2321C11.3327-6.93686 34.6074 16.3144 62.8792 16.3144ZM62.8792 3.48972C41.4532 3.48972 24.2095-13.7775 24.2095-35.2321C24.2095-56.6867 41.4246-73.9539 62.8505-73.9539C84.3051-73.9539 101.601-56.6867 101.601-35.2321C101.601-13.7775 84.3338 3.48972 62.8792 3.48972ZM83.9633-61.6325L83.9633-21.2575C83.9633-13.6659 77.9217-12.0409 74.13-12.0409C70.3633-12.0409 67.2592-14.9409 67.2592-18.6367C67.2592-23.0867 70.605-24.9492 74.8508-25.8117L78.6842-26.6742C80.2342-26.9867 80.7175-28.1242 80.7175-29.3325L80.755-48.6617C80.755-50.0075 80.13-50.4909 78.6133-50.145L56.4883-45.6575C55.2133-45.4492 54.8342-45.0742 54.8342-43.5534L54.8342-15.4575C54.8342-7.83253 48.6925-6.07003 44.8925-6.07003C41.0633-6.07003 38.13-9.00753 38.13-12.6659C38.13-17.1867 41.5133-19.0492 45.5467-20.0159L49.6592-20.845C50.9342-21.1534 51.4508-22.1534 51.4508-23.295L51.4508-56.2159C51.4508-57.9075 52.6592-58.6325 54.0425-58.9075L80.1342-64.1867C82.5133-64.67 83.9633-64.395 83.9633-61.6325Z"/>
  </g>
  <g id="Semibold-M" transform="matrix(1 0 0 1 1981.01 1126)">
   <path d="M62.2338 15.6586C90.1388 15.6586 113.172-7.33749 113.172-35.2425C113.172-63.1475 90.1017-86.1436 62.1967-86.1436C34.3217-86.1436 11.3327-63.1475 11.3327-35.2425C11.3327-7.33749 34.3587 15.6586 62.2338 15.6586ZM62.2338 4.49275C40.24 4.49275 22.5655-13.2117 22.5655-35.2425C22.5655-57.2733 40.2029-74.9777 62.1967-74.9777C84.2275-74.9777 101.969-57.2733 101.969-35.2425C101.969-13.2117 84.2646 4.49275 62.2338 4.49275ZM82.8233-61.6325L82.8233-21.2575C82.8233-13.6659 76.7817-12.0409 72.99-12.0409C69.2233-12.0409 66.1192-14.9409 66.1192-18.6367C66.1192-23.0867 69.465-24.9492 73.7108-25.8117L77.5442-26.6742C79.0942-26.9867 79.5775-28.1242 79.5775-29.3325L79.615-48.6617C79.615-50.0075 78.99-50.4909 77.4733-50.145L55.3483-45.6575C54.0733-45.4492 53.6942-45.0742 53.6942-43.5534L53.6942-15.4575C53.6942-7.83253 47.5525-6.07003 43.7525-6.07003C39.9233-6.07003 36.99-9.00753 36.99-12.6659C36.99-17.1867 40.3733-19.0492 44.4067-20.0159L48.5192-20.845C49.7942-21.1534 50.3108-22.1534 50.3108-23.295L50.3108-56.2159C50.3108-57.9075 51.5192-58.6325 52.9025-58.9075L78.9942-64.1867C81.3733-64.67 82.8233-64.395 82.8233-61.6325Z"/>
  </g>
  <g id="Medium-M" transform="matrix(1 0 0 1 1684.79 1126)">
   <path d="M61.7444 15.1614C89.3535 15.1614 112.2-7.64127 112.2-35.2504C112.2-62.8595 89.3101-85.6621 61.701-85.6621C34.1267-85.6621 11.3327-62.8595 11.3327-35.2504C11.3327-7.64127 34.1701 15.1614 61.7444 15.1614ZM61.7444 5.25329C39.3201 5.25329 21.319-12.7826 21.319-35.2504C21.319-57.7181 39.2766-75.754 61.701-75.754C84.1687-75.754 102.248-57.7181 102.248-35.2504C102.248-12.7826 84.2121 5.25329 61.7444 5.25329ZM81.9533-61.6325L81.9533-21.2575C81.9533-13.6659 75.9117-12.0409 72.12-12.0409C68.3533-12.0409 65.2492-14.9409 65.2492-18.6367C65.2492-23.0867 68.595-24.9492 72.8408-25.8117L76.6742-26.6742C78.2242-26.9867 78.7075-28.1242 78.7075-29.3325L78.745-48.6617C78.745-50.0075 78.12-50.4909 76.6033-50.145L54.4783-45.6575C53.2033-45.4492 52.8242-45.0742 52.8242-43.5534L52.8242-15.4575C52.8242-7.83253 46.6825-6.07003 42.8825-6.07003C39.0533-6.07003 36.12-9.00753 36.12-12.6659C36.12-17.1867 39.5033-19.0492 43.5367-20.0159L47.6492-20.845C48.9242-21.1534 49.4408-22.1534 49.4408-23.295L49.4408-56.2159C49.4408-57.9075 50.6492-58.6325 52.0325-58.9075L78.1242-64.1867C80.5033-64.67 81.9533-64.395 81.9533-61.6325Z"/>
  </g>
  <g id="Regular-M" transform="matrix(1 0 0 1 1388.71 1126)">
   <path d="M61.1061 14.5128C88.3292 14.5128 110.931-8.0375 110.931-35.2606C110.931-62.4838 88.2775-85.0341 61.0543-85.0341C33.8724-85.0341 11.3327-62.4838 11.3327-35.2606C11.3327-8.0375 33.9241 14.5128 61.1061 14.5128ZM61.1061 6.24529C38.1202 6.24529 19.6931-12.223 19.6931-35.2606C19.6931-58.2983 38.0684-76.7666 61.0543-76.7666C84.092-76.7666 102.612-58.2983 102.612-35.2606C102.612-12.223 84.1437 6.24529 61.1061 6.24529ZM80.8233-61.6325L80.8233-21.2575C80.8233-13.6659 74.7817-12.0409 70.99-12.0409C67.2233-12.0409 64.1192-14.9409 64.1192-18.6367C64.1192-23.0867 67.465-24.9492 71.7108-25.8117L75.5442-26.6742C77.0942-26.9867 77.5775-28.1242 77.5775-29.3325L77.615-48.6617C77.615-50.0075 76.99-50.4909 75.4733-50.145L53.3483-45.6575C52.0733-45.4492 51.6942-45.0742 51.6942-43.5534L51.6942-15.4575C51.6942-7.83253 45.5525-6.07003 41.7525-6.07003C37.9233-6.07003 34.99-9.00753 34.99-12.6659C34.99-17.1867 38.3733-19.0492 42.4067-20.0159L46.5192-20.845C47.7942-21.1534 48.3108-22.1534 48.3108-23.295L48.3108-56.2159C48.3108-57.9075 49.5192-58.6325 50.9025-58.9075L76.9942-64.1867C79.3733-64.67 80.8233-64.395 80.8233-61.6325Z"/>
  </g>
  <g id="Light-M" transform="matrix(1 0 0 1 1092.83 1126)">
   <path d="M60.2848 13.6915C87.0972 13.6915 109.272-8.44816 109.272-35.2606C109.272-62.0731 87.0626-84.2128 60.2501-84.2128C33.4446-84.2128 11.3327-62.0731 11.3327-35.2606C11.3327-8.44816 33.4793 13.6915 60.2848 13.6915ZM60.2848 7.37462C36.7 7.37462 17.6911-11.6412 17.6911-35.2606C17.6911-58.8801 36.6654-77.8959 60.2501-77.8959C83.8695-77.8959 102.92-58.8801 102.92-35.2606C102.92-11.6412 83.9042 7.37462 60.2848 7.37462ZM80.3633-61.6325L80.3633-21.2575C80.3633-13.6659 74.3217-12.0409 70.53-12.0409C66.7633-12.0409 63.6592-14.9409 63.6592-18.6367C63.6592-23.0867 67.005-24.9492 71.2508-25.8117L75.0842-26.6742C76.6342-26.9867 77.1175-28.1242 77.1175-29.3325L77.155-48.6617C77.155-50.0075 76.53-50.4909 75.0133-50.145L52.8883-45.6575C51.6133-45.4492 51.2342-45.0742 51.2342-43.5534L51.2342-15.4575C51.2342-7.83253 45.0925-6.07003 41.2925-6.07003C37.4633-6.07003 34.53-9.00753 34.53-12.6659C34.53-17.1867 37.9133-19.0492 41.9467-20.0159L46.0592-20.845C47.3342-21.1534 47.8508-22.1534 47.8508-23.295L47.8508-56.2159C47.8508-57.9075 49.0592-58.6325 50.4425-58.9075L76.5342-64.1867C78.9133-64.67 80.3633-64.395 80.3633-61.6325Z"/>
  </g>
  <g id="Thin-M" transform="matrix(1 0 0 1 797.215 1126)">
   <path d="M59.1985 12.6052C85.4678 12.6052 107.076-8.9913 107.076-35.2606C107.076-61.53 85.4558-83.1265 59.1865-83.1265C32.8789-83.1265 11.3327-61.53 11.3327-35.2606C11.3327-8.9913 32.8909 12.6052 59.1985 12.6052ZM59.1985 8.86824C34.8217 8.86824 15.0433-10.8718 15.0433-35.2606C15.0433-59.6495 34.8096-79.3895 59.1865-79.3895C83.5753-79.3895 103.327-59.6495 103.327-35.2606C103.327-10.8718 83.5873 8.86824 59.1985 8.86824ZM78.4353-61.6325L78.4353-21.2575C78.4353-13.6659 72.3937-12.0409 68.602-12.0409C64.8353-12.0409 61.7312-14.9409 61.7312-18.6367C61.7312-23.0867 65.077-24.9492 69.3228-25.8117L73.1562-26.6742C74.7062-26.9867 75.1895-28.1242 75.1895-29.3325L75.227-48.6617C75.227-50.0075 74.602-50.4909 73.0853-50.145L50.9603-45.6575C49.6853-45.4492 49.3062-45.0742 49.3062-43.5534L49.3062-15.4575C49.3062-7.83253 43.1645-6.07003 39.3645-6.07003C35.5353-6.07003 32.602-9.00753 32.602-12.6659C32.602-17.1867 35.9853-19.0492 40.0187-20.0159L44.1312-20.845C45.4062-21.1534 45.9228-22.1534 45.9228-23.295L45.9228-56.2159C45.9228-57.9075 47.1312-58.6325 48.5145-58.9075L74.6062-64.1867C76.9853-64.67 78.4353-64.395 78.4353-61.6325Z"/>
  </g>
  <g id="Ultralight-M" transform="matrix(1 0 0 1 501.066 1126)">
   <path d="M58.6421 12.0488C84.6333 12.0488 105.952-9.26949 105.952-35.2606C105.952-61.2518 84.6328-82.5701 58.6417-82.5701C32.5891-82.5701 11.3327-61.2518 11.3327-35.2606C11.3327-9.26949 32.5895 12.0488 58.6421 12.0488ZM58.6421 9.63326C33.8596 9.63326 13.6872-10.4777 13.6872-35.2606C13.6872-60.0436 33.8592-80.1545 58.6417-80.1545C83.4247-80.1545 103.536-60.0436 103.536-35.2606C103.536-10.4777 83.4251 9.63326 58.6421 9.63326ZM77.4443-61.6325L77.4443-21.2575C77.4443-13.6659 71.4027-12.0409 67.611-12.0409C63.8443-12.0409 60.7402-14.9409 60.7402-18.6367C60.7402-23.0867 64.086-24.9492 68.3318-25.8117L72.1652-26.6742C73.7152-26.9867 74.1985-28.1242 74.1985-29.3325L74.236-48.6617C74.236-50.0075 73.611-50.4909 72.0943-50.145L49.9693-45.6575C48.6943-45.4492 48.3152-45.0742 48.3152-43.5534L48.3152-15.4575C48.3152-7.83253 42.1735-6.07003 38.3735-6.07003C34.5443-6.07003 31.611-9.00753 31.611-12.6659C31.611-17.1867 34.9943-19.0492 39.0277-20.0159L43.1402-20.845C44.4152-21.1534 44.9318-22.1534 44.9318-23.295L44.9318-56.2159C44.9318-57.9075 46.1402-58.6325 47.5235-58.9075L73.6152-64.1867C75.9943-64.67 77.4443-64.395 77.4443-61.6325Z"/>
  </g>
  <g id="Black-S" transform="matrix(1 0 0 1 2880.07 696)">
   <path d="M53.3248 6.78711C76.4694 6.78711 95.317-12.0605 95.317-35.2051C95.317-58.3496 76.4694-77.1973 53.3248-77.1973C30.1803-77.1973 11.3327-58.3496 11.3327-35.2051C11.3327-12.0605 30.1803 6.78711 53.3248 6.78711ZM53.3248-7.37305C37.944-7.37305 25.4928-19.8242 25.4928-35.2051C25.4928-50.5859 37.944-63.0371 53.3248-63.0371C68.7057-63.0371 81.1569-50.5859 81.1569-35.2051C81.1569-19.8242 68.7057-7.37305 53.3248-7.37305ZM68.1983-54.4142L68.1983-25.0848C68.1983-19.57 63.8095-18.3896 61.0551-18.3896C58.3189-18.3896 56.064-20.4962 56.064-23.181C56.064-26.4135 58.4945-27.7665 61.5787-28.393L64.3634-29.0196C65.4893-29.2466 65.8404-30.0729 65.8404-30.9507L65.8677-44.9918C65.8677-45.9695 65.4136-46.3206 64.3119-46.0694L48.2398-42.8095C47.3136-42.6582 47.0381-42.3858 47.0381-41.281L47.0381-20.8715C47.0381-15.3325 42.5767-14.0522 39.8163-14.0522C37.0347-14.0522 34.9038-16.1861 34.9038-18.8436C34.9038-22.1276 37.3616-23.4806 40.2915-24.1828L43.2789-24.7851C44.2051-25.0091 44.5804-25.7355 44.5804-26.5649L44.5804-50.4794C44.5804-51.7082 45.4582-52.2349 46.463-52.4347L65.4167-56.2696C67.145-56.6207 68.1983-56.4209 68.1983-54.4142Z"/>
  </g>
  <g id="Heavy-S" transform="matrix(1 0 0 1 2583.97 696)">
   <path d="M52.714 6.16479C75.4783 6.16479 94.1069-12.4524 94.1069-35.2166C94.1069-57.9808 75.4667-76.598 52.7025-76.598C29.9498-76.598 11.3327-57.9808 11.3327-35.2166C11.3327-12.4524 29.9613 6.16479 52.714 6.16479ZM52.714-6.40499C36.78-6.40499 23.9255-19.271 23.9255-35.2166C23.9255-51.1622 36.7685-64.0282 52.7025-64.0282C68.6481-64.0282 81.5256-51.1622 81.5256-35.2166C81.5256-19.271 68.6596-6.40499 52.714-6.40499ZM69.0553-54.994L69.0553-24.7803C69.0553-19.0992 64.5353-17.8832 61.6986-17.8832C58.8806-17.8832 56.5582-20.0533 56.5582-22.819C56.5582-26.1491 59.0614-27.5429 62.2379-28.1883L65.1058-28.8337C66.2654-29.0676 66.627-29.9188 66.627-30.823L66.655-45.2876C66.655-46.2947 66.1874-46.6564 65.0528-46.3976L48.5-43.0395C47.5462-42.8836 47.2625-42.6029 47.2625-41.4649L47.2625-20.44C47.2625-14.734 42.6676-13.4151 39.8247-13.4151C36.9599-13.4151 34.7653-15.6133 34.7653-18.3509C34.7653-21.734 37.2966-23.1277 40.3141-23.8511L43.3908-24.4716C44.3447-24.7023 44.7313-25.4507 44.7313-26.305L44.7313-50.9406C44.7313-52.2065 45.6353-52.749 46.6702-52.9548L66.1906-56.9053C67.9705-57.267 69.0553-57.0612 69.0553-54.994Z"/>
  </g>
  <g id="Bold-S" transform="matrix(1 0 0 1 2287.93 696)">
   <path d="M52.0309 5.46875C74.3697 5.46875 92.7535-12.8906 92.7535-35.2295C92.7535-57.5684 74.3453-75.9277 52.0065-75.9277C29.692-75.9277 11.3327-57.5684 11.3327-35.2295C11.3327-12.8906 29.7164 5.46875 52.0309 5.46875ZM52.0309-5.32227C35.4781-5.32227 22.1725-18.6523 22.1725-35.2295C22.1725-51.8066 35.4537-65.1367 52.0065-65.1367C68.5836-65.1367 81.9381-51.8066 81.9381-35.2295C81.9381-18.6523 68.608-5.32227 52.0309-5.32227ZM68.7847-56.1441L68.7847-24.1681C68.7847-18.1557 64.001-16.8687 60.9988-16.8687C58.0165-16.8687 55.5586-19.1655 55.5586-22.0925C55.5586-25.6168 58.2078-27.0918 61.5696-27.7749L64.6048-28.458C65.832-28.7055 66.2147-29.6063 66.2147-30.5633L66.2444-45.8715C66.2444-46.9374 65.7495-47.3202 64.5487-47.0463L47.0305-43.4923C46.021-43.3273 45.7208-43.0303 45.7208-41.8258L45.7208-19.5747C45.7208-13.5359 40.8579-12.14 37.8491-12.14C34.8173-12.14 32.4947-14.4664 32.4947-17.3637C32.4947-20.9441 35.1736-22.4192 38.3671-23.1847L41.6233-23.8414C42.6328-24.0856 43.0419-24.8776 43.0419-25.7818L43.0419-51.8542C43.0419-53.194 43.9986-53.7682 45.0939-53.9859L65.7528-58.1669C67.6366-58.5497 68.7847-58.3319 68.7847-56.1441Z"/>
  </g>
  <g id="Semibold-S" transform="matrix(1 0 0 1 1991.69 696)">
   <path d="M51.5599 4.98887C73.6055 4.98887 91.8204-13.1928 91.8204-35.2384C91.8204-57.284 73.5722-75.4656 51.5266-75.4656C29.5143-75.4656 11.3327-57.284 11.3327-35.2384C11.3327-13.1928 29.5476 4.98887 51.5599 4.98887ZM51.5599-4.57578C34.5806-4.57578 20.9639-18.2258 20.9639-35.2384C20.9639-52.251 34.5473-65.901 51.5266-65.901C68.5392-65.901 82.2225-52.251 82.2225-35.2384C82.2225-18.2258 68.5725-4.57578 51.5599-4.57578ZM67.9053-56.1441L67.9053-24.1681C67.9053-18.1557 63.1216-16.8687 60.1195-16.8687C57.1371-16.8687 54.6793-19.1655 54.6793-22.0925C54.6793-25.6168 57.3284-27.0918 60.6902-27.7749L63.7254-28.458C64.9526-28.7055 65.3353-29.6063 65.3353-30.5633L65.365-45.8715C65.365-46.9374 64.8702-47.3202 63.6693-47.0463L46.1511-43.4923C45.1416-43.3273 44.8414-43.0303 44.8414-41.8258L44.8414-19.5747C44.8414-13.5359 39.9785-12.14 36.9697-12.14C33.9379-12.14 31.6153-14.4664 31.6153-17.3637C31.6153-20.9441 34.2942-22.4192 37.4877-23.1847L40.7439-23.8414C41.7534-24.0856 42.1625-24.8776 42.1625-25.7818L42.1625-51.8542C42.1625-53.194 43.1193-53.7682 44.2145-53.9859L64.8735-58.1669C66.7572-58.5497 67.9053-58.3319 67.9053-56.1441Z"/>
  </g>
  <g id="Medium-S" transform="matrix(1 0 0 1 1695.33 696)">
   <path d="M51.2028 4.625C73.026 4.625 91.1129-13.4219 91.1129-35.2451C91.1129-57.0684 72.986-75.1152 51.1627-75.1152C29.3795-75.1152 11.3327-57.0684 11.3327-35.2451C11.3327-13.4219 29.4196 4.625 51.2028 4.625ZM51.2028-4.00977C33.9-4.00977 20.0475-17.9023 20.0475-35.2451C20.0475-52.5879 33.86-66.4805 51.1627-66.4805C68.5055-66.4805 82.4381-52.5879 82.4381-35.2451C82.4381-17.9023 68.5455-4.00977 51.2028-4.00977ZM67.232-56.1441L67.232-24.1681C67.232-18.1557 62.4483-16.8687 59.4462-16.8687C56.4638-16.8687 54.006-19.1655 54.006-22.0925C54.006-25.6168 56.6551-27.0918 60.0169-27.7749L63.0521-28.458C64.2793-28.7055 64.662-29.6063 64.662-30.5633L64.6917-45.8715C64.6917-46.9374 64.1969-47.3202 62.996-47.0463L45.4778-43.4923C44.4683-43.3273 44.1681-43.0303 44.1681-41.8258L44.1681-19.5747C44.1681-13.5359 39.3052-12.14 36.2964-12.14C33.2646-12.14 30.942-14.4664 30.942-17.3637C30.942-20.9441 33.6209-22.4192 36.8144-23.1847L40.0706-23.8414C41.0801-24.0856 41.4892-24.8776 41.4892-25.7818L41.4892-51.8542C41.4892-53.194 42.4459-53.7682 43.5412-53.9859L64.2002-58.1669C66.0839-58.5497 67.232-58.3319 67.232-56.1441Z"/>
  </g>
  <g id="Regular-S" transform="matrix(1 0 0 1 1399.08 696)">
   <path d="M50.7369 4.15039C72.2701 4.15039 90.1901-13.7207 90.1901-35.2539C90.1901-56.7871 72.2213-74.6582 50.6881-74.6582C29.2037-74.6582 11.3327-56.7871 11.3327-35.2539C11.3327-13.7207 29.2526 4.15039 50.7369 4.15039ZM50.7369-3.27148C33.0123-3.27148 18.8522-17.4805 18.8522-35.2539C18.8522-53.0273 32.9635-67.2363 50.6881-67.2363C68.4615-67.2363 82.7194-53.0273 82.7194-35.2539C82.7194-17.4805 68.5104-3.27148 50.7369-3.27148ZM66.5663-56.1441L66.5663-24.1681C66.5663-18.1557 61.7826-16.8687 58.7804-16.8687C55.7981-16.8687 53.3403-19.1655 53.3403-22.0925C53.3403-25.6168 55.9894-27.0918 59.3512-27.7749L62.3863-28.458C63.6136-28.7055 63.9963-29.6063 63.9963-30.5633L64.026-45.8715C64.026-46.9374 63.5311-47.3202 62.3303-47.0463L44.8121-43.4923C43.8026-43.3273 43.5024-43.0303 43.5024-41.8258L43.5024-19.5747C43.5024-13.5359 38.6395-12.14 35.6308-12.14C32.5989-12.14 30.2764-14.4664 30.2764-17.3637C30.2764-20.9441 32.9552-22.4192 36.1487-23.1847L39.4049-23.8414C40.4144-24.0856 40.8235-24.8776 40.8235-25.7818L40.8235-51.8542C40.8235-53.194 41.7803-53.7682 42.8756-53.9859L63.5344-58.1669C65.4182-58.5497 66.5663-58.3319 66.5663-56.1441Z"/>
  </g>
  <g id="Light-S" transform="matrix(1 0 0 1 1103.1 696)">
   <path d="M50.0104 3.42383C71.1803 3.42383 88.7218-14.084 88.7218-35.2539C88.7218-56.4238 71.1466-73.9316 49.9767-73.9316C28.8253-73.9316 11.3327-56.4238 11.3327-35.2539C11.3327-14.084 28.859 3.42383 50.0104 3.42383ZM50.0104-2.27247C31.756-2.27247 17.0812-16.9658 17.0812-35.2539C17.0812-53.542 31.7223-68.2353 49.9767-68.2353C68.2648-68.2353 82.9918-53.542 82.9918-35.2539C82.9918-16.9658 68.2985-2.27247 50.0104-2.27247ZM65.1667-56.1441L65.1667-24.1681C65.1667-18.1557 60.383-16.8687 57.3808-16.8687C54.3984-16.8687 51.9406-19.1655 51.9406-22.0925C51.9406-25.6168 54.5898-27.0918 57.9516-27.7749L60.9867-28.458C62.214-28.7055 62.5967-29.6063 62.5967-30.5633L62.6264-45.8715C62.6264-46.9374 62.1315-47.3202 60.9306-47.0463L43.4125-43.4923C42.403-43.3273 42.1027-43.0303 42.1027-41.8258L42.1027-19.5747C42.1027-13.5359 37.2399-12.14 34.2311-12.14C31.1992-12.14 28.8767-14.4664 28.8767-17.3637C28.8767-20.9441 31.5555-22.4192 34.7491-23.1847L38.0053-23.8414C39.0148-24.0856 39.4239-24.8776 39.4239-25.7818L39.4239-51.8542C39.4239-53.194 40.3806-53.7682 41.4759-53.9859L62.1348-58.1669C64.0186-58.5497 65.1667-58.3319 65.1667-56.1441Z"/>
  </g>
  <g id="Thin-S" transform="matrix(1 0 0 1 807.363 696)">
   <path d="M49.0494 2.4629C69.7389 2.4629 86.7799-14.5644 86.7799-35.2539C86.7799-55.9434 69.7252-72.9707 49.0358-72.9707C28.3248-72.9707 11.3327-55.9434 11.3327-35.2539C11.3327-14.5644 28.3385 2.4629 49.0494 2.4629ZM49.0494-0.95119C30.0944-0.95119 14.7389-16.2852 14.7389-35.2539C14.7389-54.2226 30.0807-69.5566 49.0358-69.5566C68.0045-69.5566 83.3522-54.2226 83.3522-35.2539C83.3522-16.2852 68.0182-0.95119 49.0494-0.95119ZM63.5969-56.1441L63.5969-24.1681C63.5969-18.1557 58.8132-16.8687 55.811-16.8687C52.8286-16.8687 50.3708-19.1655 50.3708-22.0925C50.3708-25.6168 53.02-27.0918 56.3817-27.7749L59.4169-28.458C60.6442-28.7055 61.0269-29.6063 61.0269-30.5633L61.0566-45.8715C61.0566-46.9374 60.5617-47.3202 59.3608-47.0463L41.8427-43.4923C40.8331-43.3273 40.5329-43.0303 40.5329-41.8258L40.5329-19.5747C40.5329-13.5359 35.6701-12.14 32.6613-12.14C29.6294-12.14 27.3069-14.4664 27.3069-17.3637C27.3069-20.9441 29.9857-22.4192 33.1792-23.1847L36.4354-23.8414C37.445-24.0856 37.8541-24.8776 37.8541-25.7818L37.8541-51.8542C37.8541-53.194 38.8108-53.7682 39.9061-53.9859L60.565-58.1669C62.4488-58.5497 63.5969-58.3319 63.5969-56.1441Z"/>
  </g>
  <g id="Ultralight-S" transform="matrix(1 0 0 1 511.149 696)">
   <path d="M48.5573 1.97072C69.0006 1.97072 85.7853-14.8105 85.7853-35.2539C85.7853-55.6973 68.9972-72.4785 48.5538-72.4785C28.0685-72.4785 11.3327-55.6973 11.3327-35.2539C11.3327-14.8105 28.0719 1.97072 48.5573 1.97072ZM48.5573-0.274438C29.2433-0.274438 13.5392-15.9365 13.5392-35.2539C13.5392-54.5713 29.2399-70.2334 48.5538-70.2334C67.8712-70.2334 83.5367-54.5713 83.5367-35.2539C83.5367-15.9365 67.8746-0.274438 48.5573-0.274438ZM62.7866-56.1441L62.7866-24.1681C62.7866-18.1557 58.0029-16.8687 55.0008-16.8687C52.0184-16.8687 49.5606-19.1655 49.5606-22.0925C49.5606-25.6168 52.2097-27.0918 55.5715-27.7749L58.6067-28.458C59.8339-28.7055 60.2166-29.6063 60.2166-30.5633L60.2463-45.8715C60.2463-46.9374 59.7515-47.3202 58.5506-47.0463L41.0324-43.4923C40.0229-43.3273 39.7227-43.0303 39.7227-41.8258L39.7227-19.5747C39.7227-13.5359 34.8598-12.14 31.8511-12.14C28.8192-12.14 26.4966-14.4664 26.4966-17.3637C26.4966-20.9441 29.1755-22.4192 32.369-23.1847L35.6252-23.8414C36.6347-24.0856 37.0438-24.8776 37.0438-25.7818L37.0438-51.8542C37.0438-53.194 38.0006-53.7682 39.0959-53.9859L59.7548-58.1669C61.6385-58.5497 62.7866-58.3319 62.7866-56.1441Z"/>
  </g>
 </g>
</svg>
