<?xml version="1.0" encoding="UTF-8"?>
<svg width="100px" height="100px" viewBox="0 0 100 100" version="1.1" xmlns="http://www.w3.org/2000/svg" xmlns:xlink="http://www.w3.org/1999/xlink">
    <title>Themes</title>
    <g id="Placeholders" stroke="none" stroke-width="1" fill="none" fill-rule="evenodd">
        <g id="Empty-placeholders" transform="translate(-1039, 0)" fill="#000000" fill-rule="nonzero">
            <g id="Themes" transform="translate(1039, 0)">
                <path d="M-3.55271368e-15,9.95 C-3.55271368e-15,4.5 4.49734043,0 10.106383,0 L30.3191489,0 C35.9007501,0 40.4255319,4.4771525 40.4255319,10 L40.4255319,90 C40.4255319,95.5228475 35.9007501,100 30.3191489,100 L10.106383,100 C4.52478178,100 -3.55271368e-15,95.5228475 -3.55271368e-15,90 L-3.55271368e-15,9.95 Z M19.6808511,85.106383 C22.3247674,85.106383 24.4680851,82.9630653 24.4680851,80.3191489 C24.4680851,77.6752326 22.3247674,75.5319149 19.6808511,75.5319149 C17.0369347,75.5319149 14.893617,77.6752326 14.893617,80.3191489 C14.893617,82.9630653 17.0369347,85.106383 19.6808511,85.106383 Z M89.9922631,59.5744681 C95.5241779,59.5744681 100,64.0718085 100,69.6808511 L100,89.893617 C100,95.4752182 95.4968679,100 89.9419729,100 L44.6808511,100 L44.6808511,91.4095745 L44.7311412,90.1968085 L75.2069632,59.5744681 L89.9922631,59.5744681 Z M62.1020608,12.7659574 C64.743609,12.7659574 67.2763734,13.8088144 69.1404292,15.6639813 L83.2670835,29.6662279 C87.1379225,33.525875 87.1379225,39.7593495 83.2670835,43.6189966 L44.6808511,81.9148936 L44.6808511,25.9059072 L55.0636924,15.6639813 C56.9277482,13.8088144 59.4605126,12.7659574 62.1020608,12.7659574 Z" id="Combined-Shape"></path>
            </g>
        </g>
    </g>
</svg>