<?xml version="1.0" encoding="UTF-8"?>
<svg width="3300px" height="2200px" viewBox="0 0 3300 2200" version="1.1" xmlns="http://www.w3.org/2000/svg" xmlns:xlink="http://www.w3.org/1999/xlink">
    <title>kurozora.circle.fill</title>
    <g id="App-Symbols" stroke="none" stroke-width="1" fill="none" fill-rule="evenodd">
        <g id="kurozora.circle.fill">
            <g id="Notes">
                <rect id="artboard" fill="#FFFFFF" fill-rule="nonzero" x="0" y="0" width="3300" height="2200"></rect>
                <line x1="263" y1="292" x2="3036" y2="292" id="Path" stroke="#000000" stroke-width="0.5"></line>
                <text id="Weight/Scale-Variations" fill="#000000" fill-rule="nonzero" font-family="SFPro-Bold, SF Pro" font-size="13" font-weight="bold">
                    <tspan x="263" y="322">Weight/Scale Variations</tspan>
                </text>
                <text id="Ultralight" fill="#000000" fill-rule="nonzero" font-family="SFPro-Regular, SF Pro" font-size="13" font-weight="normal">
                    <tspan x="531.711" y="322">Ultralight</tspan>
                </text>
                <text id="Thin" fill="#000000" fill-rule="nonzero" font-family="SFPro-Regular, SF Pro" font-size="13" font-weight="normal">
                    <tspan x="842.922" y="322">Thin</tspan>
                </text>
                <text id="Light" fill="#000000" fill-rule="nonzero" font-family="SFPro-Regular, SF Pro" font-size="13" font-weight="normal">
                    <tspan x="1137.63" y="322">Light</tspan>
                </text>
                <text id="Regular" fill="#000000" fill-rule="nonzero" font-family="SFPro-Regular, SF Pro" font-size="13" font-weight="normal">
                    <tspan x="1426.34" y="322">Regular</tspan>
                </text>
                <text id="Medium" fill="#000000" fill-rule="nonzero" font-family="SFPro-Regular, SF Pro" font-size="13" font-weight="normal">
                    <tspan x="1722.06" y="322">Medium</tspan>
                </text>
                <text id="Semibold" fill="#000000" fill-rule="nonzero" font-family="SFPro-Regular, SF Pro" font-size="13" font-weight="normal">
                    <tspan x="2014.77" y="322">Semibold</tspan>
                </text>
                <text id="Bold" fill="#000000" fill-rule="nonzero" font-family="SFPro-Regular, SF Pro" font-size="13" font-weight="normal">
                    <tspan x="2325.98" y="322">Bold</tspan>
                </text>
                <text id="Heavy" fill="#000000" fill-rule="nonzero" font-family="SFPro-Regular, SF Pro" font-size="13" font-weight="normal">
                    <tspan x="2617.69" y="322">Heavy</tspan>
                </text>
                <text id="Black" fill="#000000" fill-rule="nonzero" font-family="SFPro-Regular, SF Pro" font-size="13" font-weight="normal">
                    <tspan x="2916.9" y="322">Black</tspan>
                </text>
                <line x1="263" y1="1903" x2="3036" y2="1903" id="Path" stroke="#000000" stroke-width="0.5"></line>
                <g id="Group" transform="translate(264.3672, 1918.0684)" fill="#000000" fill-rule="nonzero">
                    <path d="M7.88086,15.761678 C8.96156,15.761678 9.97717667,15.5566 10.92771,15.146444 C11.8782433,14.7362873 12.7164767,14.166626 13.44241,13.43746 C14.1682767,12.7082933 14.7379433,11.86845 15.15141,10.91793 C15.56481,9.96741 15.77151,8.95504 15.77151,7.88082 C15.77151,6.8066 15.56481,5.79422667 15.15141,4.8437 C14.7379433,3.89316667 14.1666433,3.05333333 13.43751,2.3242 C12.70831,1.595 11.8684767,1.02533333 10.91801,0.6152 C9.96747667,0.205066667 8.95183667,0 7.87109,0 C6.79687,0 5.7845,0.205066667 4.83398,0.6152 C3.88346,1.02533333 3.04687333,1.595 2.32422,2.3242 C1.60156,3.05333333 1.03352333,3.89316667 0.62011,4.8437 C0.206703333,5.79422667 -8.8817842e-16,6.8066 -8.8817842e-16,7.88082 C-8.8817842e-16,8.95504 0.206703333,9.96741 0.62011,10.91793 C1.03352333,11.86845 1.60318667,12.7082933 2.3291,13.43746 C3.05501333,14.166626 3.89323,14.7362873 4.84375,15.146444 C5.79427,15.5566 6.80664,15.761678 7.88086,15.761678 Z M7.88086,14.277303 C6.99544,14.277303 6.16699,14.1129153 5.39551,13.78414 C4.62402333,13.4553667 3.94694,12.99801 3.36426,12.41207 C2.78157333,11.82613 2.32584333,11.14579 1.99707,10.37105 C1.66829,9.59631 1.5039,8.76623333 1.5039,7.88082 C1.5039,6.9954 1.66666333,6.16532 1.99219,5.39058 C2.31771,4.61586 2.77181,3.93553333 3.35449,3.3496 C3.93717,2.76366667 4.61425333,2.3063 5.38574,1.9775 C6.15722667,1.6487 6.98567667,1.4843 7.87109,1.4843 C8.76303667,1.4843 9.59474333,1.6487 10.36621,1.9775 C11.1376767,2.3063 11.8163767,2.76366667 12.40231,3.3496 C12.9882433,3.93553333 13.4472433,4.61586 13.77931,5.39058 C14.11131,6.16532 14.27731,6.9954 14.27731,7.88082 C14.27731,8.76623333 14.1129433,9.59631 13.78421,10.37105 C13.45541,11.14579 12.9996767,11.82613 12.41701,12.41207 C11.8343433,12.99801 11.15561,13.4553667 10.38081,13.78414 C9.60607667,14.1129153 8.77276,14.277303 7.88086,14.277303 Z M4.47265,7.89058 C4.47265,8.10542667 4.54101,8.27958333 4.67773,8.41305 C4.81445,8.54651 4.99674333,8.61324 5.22461,8.61324 L7.13867,8.61324 L7.13867,10.53707 C7.13867,10.7584233 7.2054,10.93746 7.33886,11.07418 C7.47232667,11.2109 7.64648333,11.27926 7.86133,11.27926 C8.08268333,11.27926 8.26171667,11.2109 8.39843,11.07418 C8.53515,10.93746 8.60351,10.7584233 8.60351,10.53707 L8.60351,8.61324 L10.52731,8.61324 C10.74871,8.61324 10.9277433,8.54651 11.06441,8.41305 C11.2011433,8.27958333 11.26951,8.10542667 11.26951,7.89058 C11.26951,7.66922667 11.2011433,7.49019333 11.06441,7.35348 C10.9277433,7.21676 10.74871,7.1484 10.52731,7.1484 L8.60351,7.1484 L8.60351,5.23433 C8.60351,5.00644333 8.53515,4.82416667 8.39843,4.6875 C8.26171667,4.55076667 8.08268333,4.4824 7.86133,4.4824 C7.64648333,4.4824 7.47232667,4.55076667 7.33886,4.6875 C7.2054,4.82416667 7.13867,5.00644333 7.13867,5.23433 L7.13867,7.1484 L5.22461,7.1484 C4.99674333,7.1484 4.81445,7.21676 4.67773,7.35348 C4.54101,7.49019333 4.47265,7.66922667 4.47265,7.89058 Z" id="Shape"></path>
                </g>
                <g id="Group" transform="translate(283.615, 1915.9883)" fill="#000000" fill-rule="nonzero">
                    <path d="M9.96095,19.92186 C11.3216167,19.92186 12.60255,19.6614433 13.80375,19.14061 C15.0048833,18.6197767 16.06445,17.9003744 16.98245,16.9824031 C17.9003833,16.0644344 18.6197833,15.0048633 19.14065,13.80369 C19.66145,12.6025167 19.92185,11.3215933 19.92185,9.96092 C19.92185,8.60024 19.66145,7.3193 19.14065,6.1181 C18.6197833,4.91696667 17.9003833,3.8574 16.98245,2.9394 C16.06445,2.02146667 15.00325,1.30206667 13.79885,0.7812 C12.5943833,0.2604 11.3118167,0 9.95115,0 C8.59048333,0 7.30956667,0.2604 6.1084,0.7812 C4.90722667,1.30206667 3.84928333,2.02146667 2.93457,2.9394 C2.01985667,3.8574 1.30208333,4.91696667 0.78125,6.1181 C0.260416667,7.3193 8.8817842e-16,8.60024 8.8817842e-16,9.96092 C8.8817842e-16,11.3215933 0.260416667,12.6025167 0.78125,13.80369 C1.30208333,15.0048633 2.02148333,16.0644344 2.93945,16.9824031 C3.85741667,17.9003744 4.91698667,18.6197767 6.11816,19.14061 C7.31933333,19.6614433 8.60026333,19.92186 9.96095,19.92186 Z M9.96095,18.2617 C8.80859667,18.2617 7.73111667,18.0468563 6.72851,17.617169 C5.72591,17.1874813 4.84537667,16.593405 4.08691,15.83494 C3.32845,15.07648 2.73600333,14.1959467 2.30957,13.19334 C1.88313667,12.1907333 1.66992,11.11326 1.66992,9.96092 C1.66992,8.80857333 1.88313667,7.7311 2.30957,6.7285 C2.73600333,5.7259 3.32682333,4.84373333 4.08203,4.082 C4.83723667,3.32026667 5.71614333,2.7262 6.71875,2.2998 C7.72135,1.87333333 8.79881667,1.6601 9.95115,1.6601 C11.1034833,1.6601 12.18095,1.87333333 13.18355,2.2998 C14.18615,2.7262 15.0683167,3.32026667 15.83005,4.082 C16.5917833,4.84373333 17.1874833,5.7259 17.61715,6.7285 C18.0468833,7.7311 18.26175,8.80857333 18.26175,9.96092 C18.26175,11.11326 18.0485167,12.1907333 17.62205,13.19334 C17.19565,14.1959467 16.6032167,15.07648 15.84475,15.83494 C15.0862833,16.593405 14.2041167,17.1874813 13.19825,17.617169 C12.1923833,18.0468563 11.1132833,18.2617 9.96095,18.2617 Z M5.64453,9.97068 C5.64453,10.20506 5.72265333,10.39712 5.8789,10.54686 C6.03515333,10.6966 6.23697667,10.77147 6.48437,10.77147 L9.13085,10.77147 L9.13085,13.43748 C9.13085,13.6783667 9.20571667,13.8753067 9.35545,14.0283 C9.50518333,14.1812933 9.69725,14.25779 9.93165,14.25779 C10.17905,14.25779 10.3808833,14.1812933 10.53715,14.0283 C10.69335,13.8753067 10.77145,13.6783667 10.77145,13.43748 L10.77145,10.77147 L13.42775,10.77147 C13.6686167,10.77147 13.8671833,10.6966 14.02345,10.54686 C14.1797167,10.39712 14.25785,10.20506 14.25785,9.97068 C14.25785,9.72328667 14.1797167,9.52309333 14.02345,9.3701 C13.8671833,9.21710667 13.6686167,9.14061 13.42775,9.14061 L10.77145,9.14061 L10.77145,6.4941 C10.77145,6.24023333 10.69335,6.0368 10.53715,5.8838 C10.3808833,5.7308 10.17905,5.6543 9.93165,5.6543 C9.69725,5.6543 9.50518333,5.7308 9.35545,5.8838 C9.20571667,6.0368 9.13085,6.24023333 9.13085,6.4941 L9.13085,9.14061 L6.48437,9.14061 C6.23046333,9.14061 6.02701333,9.21710667 5.87402,9.3701 C5.72102667,9.52309333 5.64453,9.72328667 5.64453,9.97068 Z" id="Shape"></path>
                </g>
                <g id="Group" transform="translate(307.9019, 1913.2246)" fill="#000000" fill-rule="nonzero">
                    <path d="M12.71484,25.43946 C14.10804,25.43946 15.4378067,25.22299 16.70414,24.79005 C17.9704067,24.3571033 19.13414,23.7500067 20.19534,22.96876 C21.25654,22.1875067 22.1793733,21.2662827 22.96384,20.205088 C23.7483733,19.1438893 24.3571067,17.9785233 24.79004,16.70899 C25.2229733,15.4394633 25.43944,14.11134 25.43944,12.72462 C25.43944,11.3313933 25.2229733,10.0016533 24.79004,8.7354 C24.3571067,7.46906667 23.7483733,6.30533333 22.96384,5.2442 C22.1793733,4.183 21.25654,3.26013333 20.19534,2.4756 C19.13414,1.69106667 17.9687733,1.08233333 16.69924,0.6494 C15.4297067,0.216466667 14.0983067,0 12.70504,0 C11.31184,0 9.98210667,0.216466667 8.71584,0.6494 C7.44955333,1.08233333 6.28743667,1.69106667 5.22949,2.4756 C4.17155,3.26013333 3.25032667,4.183 2.46582,5.2442 C1.68131333,6.30533333 1.07421667,7.46906667 0.64453,8.7354 C0.214843333,10.0016533 0,11.3313933 0,12.72462 C0,14.11134 0.21647,15.4394633 0.64941,16.70899 C1.08235667,17.9785233 1.68945333,19.1438893 2.4707,20.205088 C3.25195333,21.2662827 4.17317667,22.1875067 5.23437,22.96876 C6.29557,23.7500067 7.45929333,24.3571033 8.72554,24.79005 C9.99187333,25.22299 11.32164,25.43946 12.71484,25.43946 Z M12.71484,23.62306 C11.51044,23.62306 10.3629733,23.43914 9.27244,23.0713 C8.18196,22.70346 7.18424667,22.18751 6.2793,21.52345 C5.37434667,20.8593853 4.58821333,20.0732513 3.9209,19.165048 C3.25358,18.2568427 2.73763,17.2574933 2.37305,16.167 C2.00846333,15.0765067 1.82617,13.9290467 1.82617,12.72462 C1.82617,11.51368 2.00846333,10.3629733 2.37305,9.2725 C2.73763,8.18196667 3.25195333,7.1826 3.91602,6.2744 C4.58008,5.3662 5.36458333,4.58006667 6.26953,3.916 C7.17447667,3.25193333 8.17221333,2.73763333 9.26274,2.3731 C10.3532067,2.0085 11.50064,1.8262 12.70504,1.8262 C13.9159733,1.8262 15.0667067,2.0085 16.15724,2.3731 C17.2477067,2.73763333 18.24704,3.25193333 19.15524,3.916 C20.06344,4.58006667 20.8495733,5.3662 21.51364,6.2744 C22.1777067,7.1826 22.6936733,8.18196667 23.06154,9.2725 C23.42934,10.3629733 23.6134125,11.51368 23.6134125,12.72462 C23.6197733,13.9290467 23.44074,15.0765067 23.07614,16.167 C22.7116067,17.2574933 22.1956733,18.2568427 21.52834,19.165048 C20.8610067,20.0732513 20.07324,20.8593853 19.16504,21.52345 C18.25684,22.18751 17.2575067,22.70346 16.16704,23.0713 C15.0765067,23.43914 13.9257733,23.62306 12.71484,23.62306 Z M7.19726,12.73438 C7.19726,12.9882867 7.28352333,13.19825 7.45605,13.36427 C7.62857667,13.5302833 7.84830667,13.61329 8.11524,13.61329 L11.80664,13.61329 L11.80664,17.31446 C11.80664,17.5813867 11.88964,17.7994867 12.05564,17.96876 C12.22164,18.1380333 12.4316067,18.22267 12.68554,18.22267 C12.9590067,18.22267 13.1803733,18.1380333 13.34964,17.96876 C13.5189067,17.7994867 13.60354,17.5813867 13.60354,17.31446 L13.60354,13.61329 L17.30464,13.61329 C17.5715733,13.61329 17.7896733,13.5302833 17.95894,13.36427 C18.1282733,13.19825 18.21294,12.9882867 18.21294,12.73438 C18.21294,12.4609467 18.1282733,12.2395933 17.95894,12.07032 C17.7896733,11.9010533 17.5715733,11.81642 17.30464,11.81642 L13.60354,11.81642 L13.60354,8.125 C13.60354,7.8516 13.5189067,7.63023333 13.34964,7.4609 C13.1803733,7.29163333 12.9590067,7.207 12.68554,7.207 C12.4316067,7.207 12.22164,7.29326667 12.05564,7.4658 C11.88964,7.63833333 11.80664,7.85806667 11.80664,8.125 L11.80664,11.81642 L8.11524,11.81642 C7.8418,11.81642 7.62044333,11.9010533 7.45117,12.07032 C7.28189667,12.2395933 7.19726,12.4609467 7.19726,12.73438 Z" id="Shape"></path>
                </g>
                <text id="Design-Variations" fill="#000000" fill-rule="nonzero" font-family="SFPro-Bold, SF Pro" font-size="13" font-weight="bold">
                    <tspan x="263" y="1953">Design Variations</tspan>
                </text>
                <text id="Symbols-are-supported-in-up-to-nine-weights-and-three-scales." fill="#000000" fill-rule="nonzero" font-family="SFPro-Regular, SF Pro" font-size="13" font-weight="normal">
                    <tspan x="263" y="1971">Symbols are supported in up to nine weights and three scales.</tspan>
                </text>
                <text id="For-optimal-layout-with-text-and-other-symbols,-vertically-align" fill="#000000" fill-rule="nonzero" font-family="SFPro-Regular, SF Pro" font-size="13" font-weight="normal">
                    <tspan x="263" y="1989">For optimal layout with text and other symbols, vertically align</tspan>
                </text>
                <text id="symbols-with-the-adjacent-text." fill="#000000" fill-rule="nonzero" font-family="SFPro-Regular, SF Pro" font-size="13" font-weight="normal">
                    <tspan x="263" y="2007">symbols with the adjacent text.</tspan>
                </text>
                <line x1="776" y1="1919" x2="776" y2="1933" id="Path" stroke="#00B1F5" stroke-width="0.5"></line>
                <g id="Group" transform="translate(778.4902, 1918.7324)" fill="#000000" fill-rule="nonzero">
                    <path d="M0.82032,14.42385 C1.08073333,14.42385 1.28255667,14.3685115 1.42579,14.2578344 C1.56901667,14.1471575 1.68620333,13.9551 1.77735,13.681662 L3.03711,10.2344 L8.79887,10.2344 L10.05857,13.681662 C10.1497033,13.9551 10.2669033,14.1471575 10.41017,14.2578344 C10.55337,14.3685115 10.7519367,14.42385 11.00587,14.42385 C11.26627,14.42385 11.47297,14.3522354 11.62597,14.2090062 C11.77897,14.0657767 11.85547,13.8704643 11.85547,13.623069 C11.85547,13.473329 11.81967,13.297546 11.74807,13.09572 L7.16797,0.8985 C7.05078333,0.598966667 6.89128,0.374333333 6.68946,0.2246 C6.48763333,0.0748666667 6.23047,0 5.91797,0 C5.31250333,0 4.90234667,0.296233333 4.6875,0.8887 L0.10743,13.10549 C0.03581,13.3073133 -4.4408921e-16,13.4830947 -4.4408921e-16,13.632834 C-4.4408921e-16,13.88023 0.0732433333,14.073915 0.21973,14.2138891 C0.366216667,14.353863 0.566413333,14.42385 0.82032,14.42385 Z M3.51563,8.75002 L5.88868,2.1778 L5.9375,2.1778 L8.31057,8.75002 L3.51563,8.75002 Z" id="Shape"></path>
                </g>
                <line x1="793.197" y1="1919" x2="793.197" y2="1933" id="Path" stroke="#00B1F5" stroke-width="0.5"></line>
                <text id="Margins" fill="#000000" fill-rule="nonzero" font-family="SFPro-Bold, SF Pro" font-size="13" font-weight="bold">
                    <tspan x="776" y="1953">Margins</tspan>
                </text>
                <text id="Leading-and-trailing-margins-on-the-left-and-right-side-of-each-symbol" fill="#000000" fill-rule="nonzero" font-family="SFPro-Regular, SF Pro" font-size="13" font-weight="normal">
                    <tspan x="776" y="1971">Leading and trailing margins on the left and right side of each symbol</tspan>
                </text>
                <text id="can-be-adjusted-by-modifying-the-x-location-of-the-margin-guidelines." fill="#000000" fill-rule="nonzero" font-family="SFPro-Regular, SF Pro" font-size="13" font-weight="normal">
                    <tspan x="776" y="1989">can be adjusted by modifying the x-location of the margin guidelines.</tspan>
                </text>
                <text id="Modifications-are-automatically-applied-proportionally-to-all" fill="#000000" fill-rule="nonzero" font-family="SFPro-Regular, SF Pro" font-size="13" font-weight="normal">
                    <tspan x="776" y="2007">Modifications are automatically applied proportionally to all</tspan>
                </text>
                <text id="scales-and-weights." fill="#000000" fill-rule="nonzero" font-family="SFPro-Regular, SF Pro" font-size="13" font-weight="normal">
                    <tspan x="776" y="2025">scales and weights.</tspan>
                </text>
                <g id="Group" transform="translate(1291.2468, 1914.5175)" fill="#000000" fill-rule="nonzero">
                    <path d="M0.594951479,20.3476805 L2.29417148,22.0566705 C2.72385815,22.4928705 3.17795815,22.6946938 3.65647148,22.6621405 C4.13498481,22.6295872 4.60536148,22.3561505 5.06760148,21.8418305 L15.7609515,10.0547205 L14.7941515,9.07815049 L4.17893148,20.7578405 C4.00315148,20.9596605 3.82574148,21.0735938 3.64670148,21.0996405 C3.46766815,21.1256805 3.26096481,21.0215138 3.02659148,20.7871405 L1.85471148,19.6250305 C1.62033815,19.3906545 1.51780148,19.1839482 1.54710148,19.0049115 C1.57639481,18.8258748 1.69195148,18.6452108 1.89377148,18.4629193 L13.3683515,7.66215049 L12.3918515,6.69535049 L0.800031479,17.5840125 C0.305238146,18.0397418 0.039938146,18.5052368 0.00413147929,18.9804975 C-0.0316751874,19.4557595 0.165264813,19.9114872 0.594951479,20.3476805 Z M7.01096148,2.15435049 C6.80262815,2.35615049 6.68544148,2.58725049 6.65940148,2.84765049 C6.63336148,3.10811716 6.67893481,3.33598382 6.79612148,3.53125049 C6.91330815,3.71358382 7.08420481,3.85031716 7.30881148,3.94145049 C7.53342481,4.03258382 7.80850481,4.03908382 8.13405148,3.96095049 C8.86318481,3.79168382 9.60211815,3.72171716 10.3508515,3.75105049 C11.0995181,3.78031716 11.8319181,4.02931716 12.5480515,4.49805049 L11.9621515,5.95315049 C11.7928848,6.36981716 11.7456848,6.73278382 11.8205515,7.04205049 C11.8954181,7.35125049 12.0663181,7.64258382 12.3332515,7.91605049 L14.6281515,10.2305005 C14.8690181,10.4778938 15.1033848,10.6211205 15.3312515,10.6601805 C15.5591181,10.6992472 15.8130181,10.6927372 16.0929515,10.6406505 L17.1574515,10.4453405 L17.8215515,11.1191705 L17.7824515,11.6758105 C17.7629181,11.9232038 17.7938515,12.1510672 17.8752515,12.3594005 C17.9565848,12.5677338 18.1177181,12.7923438 18.3586515,13.0332305 L19.1203515,13.7754205 C19.3612181,14.0163072 19.6232515,14.1416338 19.9064515,14.1514005 C20.1896515,14.1611605 20.4484515,14.0488538 20.6828515,13.8144805 L23.5929515,10.8945605 C23.8273515,10.6601872 23.9412848,10.4046538 23.9347515,10.1279605 C23.9282848,9.85126716 23.8045848,9.59247716 23.5636515,9.35159049 L22.7922515,8.58987049 C22.5578515,8.34899049 22.3381181,8.18461716 22.1330515,8.09675049 C21.9279848,8.00881716 21.7049848,7.97461716 21.4640515,7.99415049 L20.8879515,8.04295049 L20.2433515,7.40825049 L20.4875515,6.28515049 C20.5526181,6.00521716 20.5395848,5.74318382 20.4484515,5.49905049 C20.3573181,5.25491716 20.1652515,4.98635049 19.8722515,4.69335049 L17.6750515,2.50585049 C16.8417181,1.67905049 15.9546515,1.05895049 15.0138515,0.64555049 C14.0731181,0.23215049 13.1258515,0.0173171567 12.1720515,0.00105049002 C11.2183181,-0.0152828433 10.3003515,0.15885049 9.41815148,0.52345049 C8.53601815,0.88805049 7.73362148,1.43168382 7.01096148,2.15435049 Z M8.50515148,2.52545049 C9.11061815,2.08271716 9.76001815,1.76695049 10.4533515,1.57815049 C11.1466848,1.38935049 11.8481848,1.32911716 12.5578515,1.39745049 C13.2674515,1.46585049 13.9559181,1.65628382 14.6232515,1.96875049 C15.2905848,2.28128382 15.9009515,2.71748382 16.4543515,3.27735049 L18.8859515,5.68945049 C19.0031515,5.80665049 19.0763848,5.92058382 19.1056515,6.03125049 C19.1349848,6.14191716 19.1301181,6.28191716 19.0910515,6.45125049 L18.7687515,7.93555049 L20.2726515,9.41995049 L21.2590515,9.36136049 C21.3827181,9.35484716 21.4771181,9.36298382 21.5422515,9.38577049 C21.6073181,9.40855716 21.6886848,9.46877716 21.7863515,9.56643049 L22.3625515,10.1426105 L19.9211515,12.5840105 L19.3449515,12.0078405 C19.2472848,11.9101872 19.1854181,11.8288072 19.1593515,11.7637005 C19.1333515,11.6985938 19.1236181,11.6009372 19.1301515,11.4707305 L19.1984515,10.4941705 L17.7043515,9.00979049 L16.1808515,9.26370049 C16.0181181,9.29625382 15.8895515,9.30113716 15.7951515,9.27835049 C15.7007515,9.25556382 15.5916848,9.18557716 15.4679515,9.06839049 L13.4660515,7.06645049 C13.3358515,6.94925049 13.2626181,6.83695049 13.2463515,6.72955049 C13.2300848,6.62208382 13.2609848,6.47721716 13.3390515,6.29495049 L14.2179515,4.20515049 C13.4367515,3.47595049 12.5578515,2.97138382 11.5812515,2.69145049 C10.6047181,2.41151716 9.60861815,2.42128382 8.59295148,2.72075049 C8.51488481,2.74028382 8.46445148,2.72561716 8.44165148,2.67675049 C8.41885148,2.62795049 8.44001815,2.57751716 8.50515148,2.52545049 Z" id="Shape"></path>
                </g>
                <text id="Exporting" fill="#000000" fill-rule="nonzero" font-family="SFPro-Bold, SF Pro" font-size="13" font-weight="bold">
                    <tspan x="1289" y="1953">Exporting</tspan>
                </text>
                <text id="Symbols-should-be-outlined-when-exporting-to-ensure-the" fill="#000000" fill-rule="nonzero" font-family="SFPro-Regular, SF Pro" font-size="13" font-weight="normal">
                    <tspan x="1289" y="1971">Symbols should be outlined when exporting to ensure the</tspan>
                </text>
                <text id="design-is-preserved-when-submitting-to-Xcode." fill="#000000" fill-rule="nonzero" font-family="SFPro-Regular, SF Pro" font-size="13" font-weight="normal">
                    <tspan x="1289" y="1989">design is preserved when submitting to Xcode.</tspan>
                </text>
                <text id="template-version" fill="#000000" fill-rule="nonzero" font-family="SFPro-Regular, SF Pro" font-size="13" font-weight="normal">
                    <tspan x="2948" y="1933">Template v.3.0</tspan>
                </text>
                <text id="Requires-Xcode-13-or-greater" fill="#000000" fill-rule="nonzero" font-family="SFPro-Regular, SF Pro" font-size="13" font-weight="normal">
                    <tspan x="2860" y="1951">Requires Xcode 13 or greater</tspan>
                </text>
                <text id="descriptive-name" fill="#000000" fill-rule="nonzero" font-family="SFPro-Regular, SF Pro" font-size="13" font-weight="normal">
                    <tspan x="2814" y="1969">Generated from calendar.badge.plus</tspan>
                </text>
                <text id="Typeset-at-100-points" fill="#000000" fill-rule="nonzero" font-family="SFPro-Regular, SF Pro" font-size="13" font-weight="normal">
                    <tspan x="2905" y="1987">Typeset at 100 points</tspan>
                </text>
                <text id="Small" fill="#000000" fill-rule="nonzero" font-family="SFPro-Regular, SF Pro" font-size="13" font-weight="normal">
                    <tspan x="263" y="726">Small</tspan>
                </text>
                <text id="Medium" fill="#000000" fill-rule="nonzero" font-family="SFPro-Regular, SF Pro" font-size="13" font-weight="normal">
                    <tspan x="263" y="1156">Medium</tspan>
                </text>
                <text id="Large" fill="#000000" fill-rule="nonzero" font-family="SFPro-Regular, SF Pro" font-size="13" font-weight="normal">
                    <tspan x="263" y="1586">Large</tspan>
                </text>
            </g>
            <g id="Guides" transform="translate(263, 625.041)">
                <g id="H-reference" transform="translate(76.9933, 0.5)" fill="#00ADE6" fill-rule="nonzero">
                    <path d="M0,70.459 L2.644353,70.459 L28.334853,3.3264 L29.036753,3.3264 L29.036753,0 L27.129353,0 L0,70.459 Z M10.694853,45.9793 L45.988453,45.9793 L45.237753,43.7302 L11.444853,43.7302 L10.694853,45.9793 Z M54.125953,70.459 L56.770353,70.459 L29.644753,0 L28.439353,0 L28.439353,3.3264 L54.125953,70.459 Z" id="Shape"></path>
                </g>
                <line x1="0" y1="70.959" x2="2773" y2="70.959" id="Baseline-S" stroke="#00ADE6" stroke-width="0.5"></line>
                <line x1="0" y1="0.5" x2="2773" y2="0.5" id="Capline-S" stroke="#00ADE6" stroke-width="0.5"></line>
                <g id="H-reference" transform="translate(76.9933, 430.5)" fill="#00ADE6" fill-rule="nonzero">
                    <path d="M0,70.459 L2.644353,70.459 L28.334853,3.3264 L29.036753,3.3264 L29.036753,0 L27.129353,0 L0,70.459 Z M10.694853,45.9793 L45.988453,45.9793 L45.237753,43.7302 L11.444853,43.7302 L10.694853,45.9793 Z M54.125953,70.459 L56.770353,70.459 L29.644753,0 L28.439353,0 L28.439353,3.3264 L54.125953,70.459 Z" id="Shape"></path>
                </g>
                <line x1="0" y1="500.959" x2="2773" y2="500.959" id="Baseline-M" stroke="#00ADE6" stroke-width="0.5"></line>
                <line x1="0" y1="430.499" x2="2773" y2="430.499" id="Capline-M" stroke="#00ADE6" stroke-width="0.5"></line>
                <g id="H-reference" transform="translate(76.9933, 860.5)" fill="#00ADE6" fill-rule="nonzero">
                    <path d="M0,70.459 L2.644353,70.459 L28.334853,3.3264 L29.036753,3.3264 L29.036753,0 L27.129353,0 L0,70.459 Z M10.694853,45.9793 L45.988453,45.9793 L45.237753,43.7302 L11.444853,43.7302 L10.694853,45.9793 Z M54.125953,70.459 L56.770353,70.459 L29.644753,0 L28.439353,0 L28.439353,3.3264 L54.125953,70.459 Z" id="Shape"></path>
                </g>
                <line x1="0" y1="930.959" x2="2773" y2="930.959" id="Baseline-L" stroke="#00ADE6" stroke-width="0.5"></line>
                <line x1="0" y1="860.499" x2="2773" y2="860.499" id="Capline-L" stroke="#00ADE6" stroke-width="0.5"></line>
                <line x1="1125.71" y1="405.749" x2="1125.71" y2="525.079" id="left-margin-Regular-M" stroke="#00B1F5" stroke-width="0.5"></line>
                <line x1="1247.98" y1="405.749" x2="1247.98" y2="525.079" id="right-margin-Regular-M" stroke="#FF0B18" stroke-width="0.5"></line>
            </g>
            <g id="Symbols" transform="translate(498.89, 618.8)" fill="#000000" fill-rule="nonzero">
                <g id="Black-L" transform="translate(2366.56, 834.05)">
                    <path d="M68.0143735,5.95029264 C105.506248,5.95029264 135.9,36.2433778 135.9,73.6152918 C135.9,110.987206 105.502462,141.282178 68.0143735,141.282178 C67.0260512,141.282178 66.0453022,141.255758 65.0683399,141.21424 C96.8669481,139.461045 122.112714,113.204648 122.112714,81.0696705 C122.112714,47.806157 95.0531305,20.828855 61.6754786,20.828855 C28.2978266,20.828855 1.23824292,47.8004955 1.23824292,81.0696705 C1.2389482,83.2858513 1.36156811,85.5003265 1.60555045,87.7031239 C0.621524728,83.0713636 0.126852351,78.3497639 0.126852351,73.6152918 C0.126852351,36.2452649 30.5262852,5.95029264 68.0143735,5.95029264 Z M61.1661707,32.2387723 C88.9660495,32.2387723 111.496769,54.6943803 111.496769,82.3963612 C111.496769,110.098342 88.9660495,132.554013 61.1661707,132.554013 C51.4494454,132.56932 41.9381873,129.766133 33.7922929,124.486236 C47.1657384,132.085533 64.1589648,128.066014 72.6808693,115.287667 C81.2027739,102.50932 78.3431956,85.3358461 66.1367956,75.9865986 C53.9303956,66.6373512 36.5455598,68.305022 26.3520308,79.8030218 C16.1585018,91.3010217 16.6372866,108.702877 27.447718,119.626736 C16.8646012,110.126685 10.829042,96.5923553 10.8450072,82.3963612 C10.8450072,54.6962675 33.3757586,32.2387723 61.1661707,32.2387723 Z M45.1461269,0 C25.0294891,6.2045755 6.57838246,20.5502218 0,40.6552723 C0,15.1246962 21.4955858,0 45.1461269,0 Z" id="Shape"></path>
                </g>
                <g id="Heavy-L" transform="translate(2070.79, 834.98)">
                    <path d="M67.073483,5.86797807 C104.046707,5.86797807 134.02,35.7419977 134.02,72.5969199 C134.02,109.451842 104.042972,139.327723 67.073483,139.327723 C66.0988328,139.327723 65.1316512,139.301668 64.1682039,139.260724 C95.5269197,137.531783 120.423443,111.638608 120.423443,79.9481769 C120.423443,47.1448209 93.7381939,20.5407148 60.8222784,20.5407148 C27.906363,20.5407148 1.22111343,47.1392377 1.22111343,79.9481769 C1.22180896,82.1336997 1.34273258,84.3175405 1.58333974,86.4898651 C0.612926741,81.9221792 0.125097514,77.2658966 0.125097514,72.5969199 C0.125097514,35.7438588 30.1039937,5.86797807 67.073483,5.86797807 Z M60.3200162,31.7927908 C87.7353197,31.7927908 109.954356,53.9377546 109.954356,81.2565145 C109.954356,108.575274 87.7353197,130.7203 60.3200162,130.7203 C50.7377091,130.735396 41.3580269,127.970987 33.3248204,122.764131 C46.5132617,130.258301 63.2714089,126.294387 71.6754239,113.692812 C80.0794389,101.091237 77.2594193,84.1553355 65.2218789,74.9354227 C53.1843386,65.71551 36.0399994,67.3601107 25.9874847,78.6990507 C15.9349699,90.0379906 16.4071314,107.199114 27.0680144,117.971856 C16.6313014,108.603226 10.6792362,95.2561255 10.6949806,81.2565145 C10.6949806,53.9396157 32.9140483,31.7927908 60.3200162,31.7927908 Z M44.5215888,0 C24.6832387,6.11874326 6.48737908,20.2659362 0,40.0928594 C0,14.9154656 21.1982223,0 44.5215888,0 Z" id="Shape"></path>
                </g>
                <g id="Bold-L" transform="translate(1775.26, 836.15)">
                    <path d="M65.8923651,5.76464701 C102.214516,5.76464701 131.66,35.1126057 131.66,71.3185381 C131.66,107.52447 102.210847,136.874257 65.8923651,136.874257 C64.9348778,136.874257 63.9847276,136.848661 63.038246,136.808438 C93.8447563,135.109943 118.302869,109.672729 118.302869,78.5403445 C118.302869,46.3146331 92.0875288,20.179007 59.7512399,20.179007 C27.4149511,20.179007 1.19961047,46.3091481 1.19961047,78.5403445 C1.20029375,80.6873817 1.31908798,82.8327666 1.55545822,84.9668381 C0.602133523,80.479586 0.122894633,75.9052973 0.122894633,71.3185381 C0.122894633,35.114434 29.5738831,5.76464701 65.8923651,5.76464701 Z M59.2578222,31.2329416 C86.1903611,31.2329416 108.018136,52.9879479 108.018136,79.8256432 C108.018136,106.663339 86.1903611,128.418406 59.2578222,128.418406 C49.844253,128.433235 40.6297405,125.717506 32.7379933,120.602339 C45.6941951,127.964542 62.1572429,124.07043 70.413269,111.69076 C78.6692951,99.3110896 75.898934,82.6734179 64.0733665,73.6158615 C52.247799,64.558305 35.4053598,66.1739455 25.529863,77.3132145 C15.6543661,88.4524836 16.1182131,105.311412 26.5913653,115.894453 C16.3384356,106.690797 10.4911822,93.5787307 10.5066493,79.8256432 C10.5066493,52.9897762 32.3344546,31.2329416 59.2578222,31.2329416 Z M43.7375943,0 C24.2485838,6.0109964 6.3731408,19.909067 0,39.3868517 C0,14.6528145 20.8249362,0 43.7375943,0 Z" id="Shape"></path>
                </g>
                <g id="Semibold-L" transform="translate(1479.36, 836.95)">
                    <path d="M65.0815977,5.69371637 C100.956825,5.69371637 130.04,34.6805654 130.04,70.4410048 C130.04,106.201444 100.953202,135.190099 65.0815977,135.190099 C64.1358918,135.190099 63.1974326,135.164818 62.2625969,135.12509 C92.690051,133.447493 116.847221,108.32327 116.847221,77.5739511 C116.847221,45.7447583 90.9544451,19.930716 59.0160356,19.930716 C27.077626,19.930716 1.18484995,45.7393409 1.18484995,77.5739511 C1.18552483,79.6945703 1.30285737,81.8135574 1.53631921,83.9213704 C0.594724619,79.4893313 0.121382486,74.9713266 0.121382486,70.4410048 C0.121382486,34.6823713 29.2099936,5.69371637 65.0815977,5.69371637 Z M58.528689,30.8486383 C85.1298387,30.8486383 106.689035,52.3359619 106.689035,78.8434349 C106.689035,105.350908 85.1298387,126.838292 58.528689,126.838292 C49.2309483,126.852939 40.1298151,124.170625 32.3351712,119.118397 C45.1319545,126.390013 61.392434,122.543815 69.5468745,110.31647 C77.701315,98.0891242 74.9650416,81.6561694 63.2849809,72.710061 C51.6049201,63.7639525 34.9697174,65.3597135 25.2157328,76.3619202 C15.4617482,87.364127 15.9198878,104.015616 26.264174,114.468439 C16.1374006,105.378029 10.3620943,92.4272986 10.3773711,78.8434349 C10.3773711,52.3377677 31.9365978,30.8486383 58.528689,30.8486383 Z M43.1994285,0 C23.950219,5.93703457 6.29472299,19.6640975 0,38.9022194 C0,14.4725201 20.5686974,0 43.1994285,0 Z" id="Shape"></path>
                </g>
                <g id="Medium-L" transform="translate(1183.27, 837.56)">
                    <path d="M64.4610103,5.63942378 C99.9941486,5.63942378 128.8,34.349868 128.8,69.7693126 C128.8,105.188757 99.9905598,133.90099 64.4610103,133.90099 C63.5243222,133.90099 62.5948118,133.87595 61.6688902,133.836601 C91.8062025,132.175001 115.733021,107.29035 115.733021,76.8342425 C115.733021,45.3085579 90.0871465,19.7406661 58.4532865,19.7406661 C26.8194266,19.7406661 1.17355178,45.3031922 1.17355178,76.8342425 C1.17422022,78.9346405 1.29043394,81.033422 1.52166959,83.1211358 C0.589053606,78.7313586 0.120225039,74.2564355 0.120225039,69.7693126 C0.120225039,34.3516565 28.9314609,5.63942378 64.4610103,5.63942378 Z M57.9705871,30.5544803 C84.3180807,30.5544803 105.671699,51.8369109 105.671699,78.0916212 C105.671699,104.346332 84.3180807,125.628822 57.9705871,125.628822 C48.7615053,125.643329 39.7471561,122.986592 32.0268383,117.98254 C44.7015976,125.184817 60.8070248,121.375295 68.8837084,109.264544 C76.960392,97.1537927 74.2502104,80.8775348 62.6815252,72.0167322 C51.11284,63.1559296 34.6362627,64.7364741 24.9752875,75.633769 C15.3143122,86.531064 15.7680833,103.023772 26.0137312,113.376922 C15.983522,104.373194 10.2632863,91.5459556 10.2784174,78.0916212 C10.2784174,51.8386995 31.6320655,30.5544803 57.9705871,30.5544803 Z M42.7874992,0 C23.7218411,5.88042181 6.23469949,19.4765899 0,38.5312662 C0,14.334517 20.372564,0 42.7874992,0 Z" id="Shape"></path>
                </g>
                <g id="Regular-L" transform="translate(887.36, 838.36)">
                    <path d="M63.6602524,5.56936883 C98.7519853,5.56936883 127.2,33.9231615 127.2,68.9026131 C127.2,103.882065 98.748441,132.237624 63.6602524,132.237624 C62.7352002,132.237624 61.8172365,132.212895 60.902817,132.174034 C90.6657527,130.533075 114.295344,105.957551 114.295344,75.8797799 C114.295344,44.7457187 88.9680515,19.4954404 57.7271587,19.4954404 C26.486266,19.4954404 1.1589735,44.7404196 1.1589735,75.8797799 C1.15963364,77.954086 1.2744037,80.0267956 1.50276686,82.0885751 C0.58173617,77.7533293 0.118731561,73.3339953 0.118731561,68.9026131 C0.118731561,33.9249279 28.5720639,5.56936883 63.6602524,5.56936883 Z M57.2504556,30.1749215 C83.2706512,30.1749215 104.359007,51.1929741 104.359007,77.1215389 C104.359007,103.050104 83.2706512,124.068215 57.2504556,124.068215 C48.1557723,124.082542 39.2534027,121.458808 31.6289894,116.516919 C44.1462982,123.629726 60.051658,119.867528 68.0280102,107.90722 C76.0043623,95.9469133 73.3278476,79.8728449 61.9028727,71.1221144 C50.4778979,62.3713839 34.2059986,63.9322943 24.6650355,74.6942191 C15.1240723,85.4561439 15.5722065,101.743974 25.6905793,111.968513 C15.7849689,103.076633 10.135792,90.4087387 10.1507352,77.1215389 C10.1507352,51.1947405 31.2391206,30.1749215 57.2504556,30.1749215 Z M42.2559775,0 C23.4271598,5.8073731 6.15724981,19.2346447 0,38.0526169 C0,14.1564485 20.1194887,0 42.2559775,0 Z" id="Shape"></path>
                </g>
                <g id="Light-L" transform="translate(591.57, 839.28)">
                    <path d="M62.7293714,5.48792994 C97.3079704,5.48792994 125.34,33.4271153 125.34,67.8950749 C125.34,102.363035 97.304478,130.30396 62.7293714,130.30396 C61.8178459,130.30396 60.9133052,130.279593 60.012257,130.241301 C89.3399799,128.624337 112.624044,104.408172 112.624044,74.7702171 C112.624044,44.0914181 87.6671036,19.2103656 56.8830352,19.2103656 C26.0989668,19.2103656 1.14202625,44.0861965 1.14202625,74.7702171 C1.14267673,76.8141913 1.25576855,78.8565925 1.48079244,80.8882233 C0.57322965,76.6163703 0.116995392,72.2616586 0.116995392,67.8950749 C0.116995392,33.4288558 28.1542648,5.48792994 62.7293714,5.48792994 Z M56.4133027,29.7336845 C82.0530143,29.7336845 102.833003,50.4443976 102.833003,75.9938183 C102.833003,101.543239 82.0530143,122.25401 56.4133027,122.25401 C47.4516077,122.268128 38.6794142,119.68276 31.16649,114.813134 C43.5007627,121.821933 59.1735442,118.114748 67.033261,106.329332 C74.8929777,94.5439159 72.2556007,78.7048929 60.9976892,70.0821212 C49.7397777,61.4593495 33.7058165,62.9974353 24.3043675,73.6019923 C14.9029185,84.2065494 15.3444997,100.256208 25.3149152,110.331237 C15.554151,101.56938 9.98757998,89.0867242 10.0023046,75.9938183 C10.0023046,50.4461381 30.7823222,29.7336845 56.4133027,29.7336845 Z M41.6380834,0 C23.0845928,5.72245396 6.06721455,18.9533834 0,37.4961871 C0,13.9494438 19.8252886,0 41.6380834,0 Z" id="Shape"></path>
                </g>
                <g id="Thin-L" transform="translate(0, 841.11)">
                    <path d="M60.8776188,5.32592786 C94.4354677,5.32592786 121.64,32.4403567 121.64,65.8908322 C121.64,99.3413078 94.4320784,126.457426 60.8776188,126.457426 C59.9930012,126.457426 59.1151623,126.433777 58.2407128,126.396616 C86.70269,124.827384 109.299415,101.326073 109.299415,72.5630222 C109.299415,42.7898524 85.0791964,18.6432813 55.2038647,18.6432813 C25.328533,18.6432813 1.10831397,42.7847849 1.10831397,72.5630222 C1.10894525,74.5466589 1.21869863,76.528769 1.43707989,78.5004267 C0.556308079,74.3546775 0.113541722,70.1285156 0.113541722,65.8908322 C0.113541722,32.4420458 27.3231592,5.32592786 60.8776188,5.32592786 Z M54.7479986,28.8559549 C79.6308334,28.8559549 99.7974025,48.9552938 99.7974025,73.7505031 C99.7974025,98.5457125 79.6308334,118.645108 54.7479986,118.645108 C46.0508502,118.658809 37.5376093,116.14976 30.2464644,111.423884 C42.216633,118.225786 57.4267585,114.628035 65.0544588,103.190521 C72.682159,91.7530073 70.1226366,76.3815476 59.1970553,68.0133176 C48.271474,59.6450875 32.7108307,61.1377695 23.5869097,71.4292831 C14.4629887,81.7207968 14.8915346,97.2966741 24.5676263,107.074292 C15.094997,98.5710816 9.69274955,86.4569102 9.70703951,73.7505031 C9.70703951,48.9569829 29.873637,28.8559549 54.7479986,28.8559549 Z M40.4089394,0 C22.4031424,5.5535288 5.88811216,18.3938851 0,36.3893107 C0,13.5376603 19.2400519,0 40.4089394,0 Z" id="Shape"></path>
                </g>
                <g id="Ultralight-L" transform="translate(296.08, 840.49)">
                    <path d="M61.5082156,5.38109614 C95.4136713,5.38109614 122.9,32.776388 122.9,66.5733581 C122.9,100.370328 95.4102469,127.767327 61.5082156,127.767327 C60.6144348,127.767327 59.7275029,127.743434 58.8439954,127.705887 C87.6007941,126.120401 110.431586,102.375653 110.431586,73.3146615 C110.431586,43.2330883 85.9604837,18.8363965 55.7756903,18.8363965 C25.5908969,18.8363965 1.11979437,43.2279683 1.11979437,73.3146615 C1.12043219,75.3188456 1.23132244,77.3214873 1.45196578,79.3135683 C0.56207056,75.1248756 0.114717837,70.8549373 0.114717837,66.5733581 C0.114717837,32.7780946 27.6061843,5.38109614 61.5082156,5.38109614 Z M55.3151021,29.1548574 C80.4556842,29.1548574 100.831147,49.462394 100.831147,74.5144429 C100.831147,99.5664918 80.4556842,119.874085 55.3151021,119.874085 C46.5278649,119.887928 37.9264401,117.35289 30.5597704,112.578061 C42.6539312,119.45042 58.0216098,115.815402 65.7283211,104.259414 C73.4350324,92.7034248 70.8489974,77.1727409 59.8102442,68.7178291 C48.7714909,60.2629173 33.0496637,61.7710611 23.8312332,72.1691787 C14.6128026,82.5672963 15.0457876,98.3045154 24.8221084,108.183414 C15.2513576,99.5921237 9.79315127,87.3524685 9.80758925,74.5144429 C9.80758925,49.4641006 30.1830812,29.1548574 55.3151021,29.1548574 Z M40.8275128,0 C22.6352039,5.61105467 5.94910378,18.5844169 0,36.766247 C0,13.6778893 19.4393487,0 40.8275128,0 Z" id="Shape"></path>
                </g>
                <g id="Black-M" transform="translate(2381.19, 418.68)">
                    <path d="M53.3705135,4.66916267 C82.7901864,4.66916267 106.64,28.4399838 106.64,57.7655241 C106.64,87.0910643 82.787215,110.863366 53.3705135,110.863366 C52.5949823,110.863366 51.8253939,110.842634 51.0587768,110.810055 C76.0109738,109.434333 95.8211909,88.8310789 95.8211909,63.614935 C95.8211909,37.5132346 74.5876809,16.3442906 48.3964167,16.3442906 C22.2051526,16.3442906 0.971642565,37.508792 0.971642565,63.614935 C0.972196,65.3539601 1.06841518,67.0916469 1.25986681,68.8201702 C0.487707116,65.1856528 0.0995403588,61.4806388 0.0995403588,57.7655241 C0.0995403588,28.4414647 23.953812,4.66916267 53.3705135,4.66916267 Z M47.9967656,25.2975915 C69.8111811,25.2975915 87.4909159,42.9183864 87.4909159,64.655982 C87.4909159,86.3935776 69.8111811,104.014422 47.9967656,104.014422 C40.3721034,104.026433 32.9086703,101.826787 26.5166307,97.683681 C37.0107016,103.646808 50.3451951,100.492713 57.0322878,90.4656131 C63.7193805,80.4385128 61.4754848,66.96258 51.8971883,59.6262758 C42.3188917,52.2899715 28.6771045,53.5985838 20.678297,62.6210026 C12.6794896,71.6434213 13.0551895,85.298564 21.5380768,93.8704575 C13.233562,86.4158183 8.49749106,75.7955023 8.51001886,64.655982 C8.51001886,42.9198673 26.1897785,25.2975915 47.9967656,25.2975915 Z M35.4259232,0 C19.6405057,4.86869707 5.16202138,16.1256487 0,31.9019738 C0,11.8682678 16.8674707,0 35.4259232,0 Z" id="Shape"></path>
                </g>
                <g id="Heavy-M" transform="translate(2085.31, 419.5)">
                    <path d="M52.5397272,4.59648065 C81.5014419,4.59648065 104.98,27.9972759 104.98,56.8663233 C104.98,85.7353707 81.4985168,109.137624 52.5397272,109.137624 C51.7762682,109.137624 51.0186595,109.117214 50.2639759,109.085143 C74.8277573,107.730835 94.3296007,87.4482996 94.3296007,62.62468 C94.3296007,36.9292889 73.4266199,16.089869 47.6430592,16.089869 C21.8594985,16.089869 0.956517596,36.9249155 0.956517596,62.62468 C0.957062416,64.3366348 1.05178381,66.047272 1.24025523,67.7488885 C0.480115276,64.1709474 0.0979908746,60.5236071 0.0979908746,56.8663233 C0.0979908746,27.9987337 23.5809376,4.59648065 52.5397272,4.59648065 Z M47.2496291,24.9037992 C68.724473,24.9037992 86.128998,42.250302 86.128998,63.6495217 C86.128998,85.0487413 68.724473,102.395293 47.2496291,102.395293 C39.7436555,102.407117 32.396401,100.241712 26.1038625,96.1630986 C36.4345785,102.033402 49.561502,98.9284046 56.1445008,89.05739 C62.7274996,79.1863754 60.5185333,65.9202143 51.0893363,58.6981098 C41.6601393,51.4760053 28.2307054,52.7642473 20.3564105,61.6462195 C12.4821157,70.5281917 12.8519673,83.9707732 21.2028067,92.4092332 C13.0275632,85.0706359 8.36521579,74.6156399 8.37754857,63.6495217 C8.37754857,42.2517599 25.7820981,24.9037992 47.2496291,24.9037992 Z M34.8744694,0 C19.3347739,4.79290902 5.08166733,15.8746305 0,31.4053752 C0,11.6835217 16.6049051,0 34.8744694,0 Z" id="Shape"></path>
                </g>
                <g id="Bold-M" transform="translate(1789.52, 420.42)">
                    <path d="M51.6088462,4.51504177 C80.0574271,4.51504177 103.12,27.5012297 103.12,55.8587851 C103.12,84.2163405 80.0545538,107.20396 51.6088462,107.20396 C50.8589139,107.20396 50.1147282,107.183913 49.3734158,107.152409 C73.5019845,105.822097 92.6583009,85.8989203 92.6583009,61.5151172 C92.6583009,36.2749883 72.1256719,15.8047942 46.7989356,15.8047942 C21.4721993,15.8047942 0.939570342,36.2706924 0.939570342,61.5151172 C0.940105509,63.1967401 1.03314866,64.8770689 1.21828081,66.5485367 C0.471608756,63.0339884 0.0962547055,59.4512704 0.0962547055,55.8587851 C0.0962547055,27.5026617 23.1631386,4.51504177 51.6088462,4.51504177 Z M46.4124762,24.4625622 C67.5068361,24.4625622 84.6029937,41.5017255 84.6029937,62.5218011 C84.6029937,83.5418766 67.5068361,100.581088 46.4124762,100.581088 C39.0394909,100.592703 31.8224126,98.465663 25.6413631,94.4593135 C35.789043,100.225608 48.6833882,97.1756247 55.1497516,87.4795014 C61.6161151,77.7833781 59.4462865,64.7522623 50.1841528,57.6581166 C40.9220191,50.563971 27.7305234,51.8293883 19.9957426,60.5539927 C12.2609618,69.2785972 12.6242605,82.4830075 20.8271426,90.7719578 C12.7967452,83.5633832 8.21700373,73.2936253 8.22911801,62.5218011 C8.22911801,41.5031575 25.3252997,24.4625622 46.4124762,24.4625622 Z M34.2565754,0 C18.9922069,4.70798989 4.99163208,15.5933692 0,30.8489454 C0,11.4765171 16.310705,0 34.2565754,0 Z" id="Shape"></path>
                </g>
                <g id="Semibold-M" transform="translate(1493.45, 421.06)">
                    <path d="M50.9682399,4.45899781 C79.0636964,4.45899781 101.84,27.1598645 101.84,55.1654255 C101.84,83.1709864 79.0608588,105.873267 50.9682399,105.873267 C50.2276163,105.873267 49.4926679,105.853468 48.7605573,105.822356 C72.5896247,104.508557 91.508159,84.8326808 91.508159,60.751547 C91.508159,35.8247169 71.2303959,15.6086136 46.2180334,15.6086136 C21.2056708,15.6086136 0.927907715,35.8204743 0.927907715,60.751547 C0.92843624,62.4122965 1.02032447,64.0717678 1.20315863,65.7224881 C0.465754808,62.2515649 0.0950599225,58.7133183 0.0950599225,55.1654255 C0.0950599225,27.1612787 22.8756209,4.45899781 50.9682399,4.45899781 Z M45.836371,24.1589152 C66.6688924,24.1589152 83.5528401,40.9865761 83.5528401,61.7457353 C83.5528401,82.5048944 66.6688924,99.3326025 45.836371,99.3326025 C38.5549045,99.3440732 31.4274098,97.243436 25.323084,93.2868162 C35.3448035,98.9815357 48.0790948,95.9694106 54.465193,86.3936426 C60.8512913,76.8178746 58.7083962,63.9485104 49.5612308,56.9424224 C40.4140654,49.9363344 27.3863121,51.1860444 19.747541,59.8023528 C12.1087699,68.4186611 12.467559,81.4591688 20.568621,89.6452306 C12.6379028,82.5261341 8.11500834,72.3838518 8.12697225,61.7457353 C8.12697225,40.9879903 25.0109437,24.1589152 45.836371,24.1589152 Z M33.8313581,0 C18.7564619,4.64955091 4.92967233,15.399813 0,30.466026 C0,11.3340622 16.1082447,0 33.8313581,0 Z" id="Shape"></path>
                </g>
                <g id="Medium-M" transform="translate(1197.23, 421.54)">
                    <path d="M50.4827804,4.41652699 C78.3106349,4.41652699 100.87,26.9011738 100.87,54.6399889 C100.87,82.378804 78.3078243,104.864851 50.4827804,104.864851 C49.749211,104.864851 49.0212629,104.845241 48.2961254,104.814425 C71.898227,103.513139 90.6365672,84.0246712 90.6365672,60.1729041 C90.6365672,35.4834956 70.5519446,15.4599456 45.7778184,15.4599456 C21.0036922,15.4599456 0.919069631,35.4792934 0.919069631,60.1729041 C0.919593122,61.8178353 1.01060614,63.4615006 1.19169885,65.0964982 C0.461318612,61.6586347 0.094154501,58.1540889 0.094154501,54.6399889 C0.094154501,26.9025745 22.6577365,4.41652699 50.4827804,4.41652699 Z M45.3997913,23.9288077 C66.0338882,23.9288077 82.7570207,40.5961894 82.7570207,61.1576229 C82.7570207,81.7190564 66.0338882,98.3864848 45.3997913,98.3864848 C38.1876789,98.3978462 31.1280717,96.3172171 25.081888,92.3982831 C35.0081533,98.0387619 47.6211537,95.0553264 53.946426,85.5707652 C60.2716983,76.0862039 58.1492137,63.3394172 49.0891727,56.4000604 C40.0291317,49.4607036 27.1254644,50.6985104 19.5594507,59.2327507 C11.9934369,67.7669909 12.3488087,80.683291 20.3727102,88.7913827 C12.51753,81.7400937 8.03771496,71.6944141 8.04956491,61.1576229 C8.04956491,40.5975902 24.7727209,23.9288077 45.3997913,23.9288077 Z M33.509123,0 C18.5778114,4.60526513 4.88271846,15.2531337 0,30.1758449 C0,11.2261082 15.9548178,0 33.509123,0 Z" id="Shape"></path>
                </g>
                <g id="Regular-M" transform="translate(901.15, 422.17)">
                    <path d="M49.8471788,4.36258218 C77.3246677,4.36258218 99.6,26.5725946 99.6,53.9725993 C99.6,81.372604 77.3218925,103.584 49.8471788,103.584 C49.1228454,103.584 48.4040625,103.564629 47.6880548,103.534189 C70.9929951,102.248798 89.4954109,82.998368 89.4954109,59.4379337 C89.4954109,35.0500893 69.663663,15.2711131 45.2014545,15.2711131 C20.739246,15.2711131 0.907498119,35.0459384 0.907498119,59.4379337 C0.908015019,61.0627733 0.997882144,62.6863623 1.17669481,64.3013896 C0.455510397,60.9055172 0.0929690523,57.443777 0.0929690523,53.9725993 C0.0929690523,26.5739782 22.3724651,4.36258218 49.8471788,4.36258218 Z M44.8281869,23.6365339 C65.202491,23.6365339 81.7150715,40.1003351 81.7150715,60.4106249 C81.7150715,80.7209147 65.202491,97.1847621 44.8281869,97.1847621 C37.7068783,97.1959847 30.7361549,95.140769 24.7660955,91.2697021 C34.5673844,96.8412863 47.0215813,93.8942915 53.2672155,84.5255776 C59.5128497,75.1568637 57.4170882,62.5657701 48.4711173,55.7111727 C39.5251464,48.8565753 26.7839423,50.0792633 19.3131881,58.5092637 C11.842434,66.939264 12.1933315,79.6978005 20.1162083,87.7068574 C12.3599285,80.7416951 7.93651641,70.8187165 7.94821716,60.4106249 C7.94821716,40.1017187 24.4608209,23.6365339 44.8281869,23.6365339 Z M33.0872276,0 C18.3439081,4.54901501 4.82124277,15.0668273 0,29.8072678 C0,11.088989 15.7539393,0 33.0872276,0 Z" id="Shape"></path>
                </g>
                <g id="Light-M" transform="translate(605.27, 422.99)">
                    <path d="M49.0163925,4.28987247 C76.0359233,4.28987247 97.94,26.129718 97.94,53.073056 C97.94,80.0163939 76.0331943,101.8576 49.0163925,101.8576 C48.3041313,101.8576 47.5973282,101.838552 46.8932539,101.80862 C69.8097785,100.544651 88.0038207,81.6150619 88.0038207,58.4473015 C88.0038207,34.4659212 68.5026019,15.0165945 44.4480969,15.0165945 C20.3935919,15.0165945 0.892373151,34.4618395 0.892373151,58.4473015 C0.892881435,60.0450604 0.981250775,61.6415896 1.15708323,63.2296998 C0.447918557,59.8904252 0.0914195681,56.4863807 0.0914195681,53.073056 C0.0914195681,26.1310786 21.9995907,4.28987247 49.0163925,4.28987247 Z M44.0810505,23.2425916 C64.1157828,23.2425916 80.3531536,39.4319962 80.3531536,59.4037812 C80.3531536,79.3755661 64.1157828,95.565016 44.0810505,95.565016 C37.0784303,95.5760517 30.2238857,93.5550895 24.3533272,89.7485404 C33.9912614,95.2272649 46.2378883,92.3293866 52.3794286,83.116818 C58.5209689,73.9042493 56.4601367,61.5230072 47.6632654,54.7826532 C38.866394,48.0422991 26.3375432,49.2446089 18.9913017,57.5341093 C11.6450601,65.8236096 11.9901093,78.3695039 19.7809382,86.2450765 C12.1539297,79.3960002 7.80424113,69.6384046 7.81574688,59.4037812 C7.81574688,39.4333568 24.0531405,23.2425916 44.0810505,23.2425916 Z M32.5357738,0 C18.0381763,4.47319809 4.74088873,14.8157135 0,29.31048 C0,10.9041726 15.4913736,0 32.5357738,0 Z" id="Shape"></path>
                </g>
                <g id="Thin-M" transform="translate(309.66, 424.07)">
                    <path d="M47.9153504,4.19351022 C74.3279487,4.19351022 95.74,25.5427731 95.74,51.8808901 C95.74,78.2190071 74.325281,99.5696 47.9153504,99.5696 C47.2190886,99.5696 46.5281621,99.5509799 45.8399033,99.5217198 C68.2416601,98.2861438 86.0270144,79.7817646 86.0270144,57.1344154 C86.0270144,33.6917224 66.9638463,14.6792808 43.4496712,14.6792808 C19.9354961,14.6792808 0.872328011,33.6877324 0.872328011,57.1344154 C0.872824878,58.6962843 0.959209201,60.2569511 1.13109198,61.809388 C0.437857082,58.5451226 0.0893660348,55.2175423 0.0893660348,51.8808901 C0.0893660348,25.5441031 21.5054198,4.19351022 47.9153504,4.19351022 Z M43.0908696,22.7204995 C62.6755672,22.7204995 78.5482022,38.5462458 78.5482022,58.0694099 C78.5482022,77.5925741 62.6755672,93.4183647 43.0908696,93.4183647 C36.2455475,93.4291524 29.5449746,91.4535866 23.8062849,87.7325429 C33.2277248,93.0882003 45.199259,90.2554163 51.2028435,81.2497871 C57.206428,72.2441579 55.1918878,60.1410324 46.5926182,53.5520851 C37.9933486,46.9631378 25.74593,48.1384404 18.5647051,56.241736 C11.3834802,64.3450315 11.7207787,76.6091107 19.3366043,84.3077764 C11.8809192,77.6125491 7.62893655,68.0741358 7.64018385,58.0694099 C7.64018385,38.5475758 23.5128413,22.7204995 43.0908696,22.7204995 Z M31.8049315,0 C17.6329896,4.37271784 4.63439541,14.4829121 0,28.6520866 C0,10.6592351 15.143395,0 31.8049315,0 Z" id="Shape"></path>
                </g>
                <g id="Ultralight-M" transform="translate(13.51, 424.63)">
                    <path d="M47.3548199,4.14445307 C73.4584343,4.14445307 94.62,25.2439648 94.62,51.2739693 C94.62,77.3039738 73.4557979,98.4048 47.3548199,98.4048 C46.6667032,98.4048 45.9838594,98.3863977 45.3036521,98.3574799 C67.4433453,97.1363581 85.0206403,78.8484496 85.0206403,56.4660371 C85.0206403,33.2975849 66.1804798,14.5075574 42.9413818,14.5075574 C19.7022837,14.5075574 0.862123213,33.2936415 0.862123213,56.4660371 C0.862614268,58.0096346 0.947988037,59.5520442 1.11786007,61.0863201 C0.432734877,57.8602413 0.0883205997,54.5715881 0.0883205997,51.2739693 C0.0883205997,25.2452793 21.2538418,4.14445307 47.3548199,4.14445307 Z M42.5867776,22.4547072 C61.9423665,22.4547072 77.6293179,38.0953184 77.6293179,57.3900937 C77.6293179,76.684869 61.9423665,92.325524 42.5867776,92.325524 C35.8215344,92.3361855 29.1993472,90.3837306 23.5277907,86.706217 C32.8390152,91.999222 44.6705022,89.1995769 50.6038547,80.2992987 C56.5372072,71.3990205 54.5462338,59.4374816 46.0475614,52.9256141 C37.5488891,46.4137466 25.4447452,47.5753001 18.3475287,55.5838005 C11.2503123,63.5923008 11.5836649,75.7129105 19.1103979,83.3215146 C11.7419321,76.7046104 7.53969059,67.2777807 7.5508063,57.3900937 C7.5508063,38.0966328 23.2377798,22.4547072 42.5867776,22.4547072 Z M31.4328663,0 C17.4267127,4.32156426 4.58018063,14.3134859 0,28.3169044 C0,10.5345396 14.9662423,0 31.4328663,0 Z" id="Shape"></path>
                </g>
                <g id="Black-S" transform="translate(2392.52, 0)">
                    <path d="M42.0297799,3.67841015 C65.1980481,3.67841015 83.98,22.4052861 83.98,45.5082218 C83.98,68.6111574 65.1957082,87.3392 42.0297799,87.3392 C41.4190418,87.3392 40.8129836,87.3228671 40.2092655,87.297201 C59.8593547,86.2133942 75.4600864,69.9819573 75.4600864,50.1164425 C75.4600864,29.5532781 58.7384981,12.8761855 38.112632,12.8761855 C17.4867659,12.8761855 0.765177631,29.5497782 0.765177631,50.1164425 C0.765613467,51.4864629 0.841386972,52.8554288 0.992156928,54.2171757 C0.384073927,51.3538688 0.078388966,48.435024 0.078388966,45.5082218 C0.078388966,22.4064527 18.8638516,3.67841015 42.0297799,3.67841015 Z M37.797903,19.9296799 C54.9769598,19.9296799 68.8999167,33.8115075 68.8999167,50.9365892 C68.8999167,68.0616709 54.9769598,81.9435373 37.797903,81.9435373 C31.79341,81.953 25.9158864,80.2200982 20.8820953,76.9561203 C29.1462746,81.653928 39.6473132,79.1691024 44.9134614,71.2696587 C50.1796096,63.370215 48.4125207,52.7537487 40.8695224,46.9741394 C33.3265241,41.1945301 22.5834887,42.2254672 16.2843528,49.3334133 C9.98521695,56.4413594 10.2810841,67.1990089 16.9614375,73.952027 C10.4215542,68.0791923 6.69185389,59.7124078 6.70171965,50.9365892 C6.70171965,33.8126741 20.6246961,19.9296799 37.797903,19.9296799 Z M27.8982468,0 C15.4670824,3.83560522 4.06514024,12.7039373 0,25.1326742 C0,9.34993273 13.2832914,0 27.8982468,0 Z" id="Shape"></path>
                </g>
                <g id="Heavy-S" transform="translate(2096.42, 0.6)">
                    <path d="M41.4242067,3.62541091 C64.2586621,3.62541091 82.77,22.0824664 82.77,44.8525305 C82.77,67.6225947 64.2563558,86.0808 41.4242067,86.0808 C40.8222682,86.0808 40.2249423,86.0647024 39.6299227,86.0394062 C58.9968896,84.971215 74.3728429,68.9736438 74.3728429,49.3943552 C74.3728429,29.1274688 57.8921826,12.6906629 37.5634979,12.6906629 C17.2348132,12.6906629 0.754152804,29.1240193 0.754152804,49.3943552 C0.75458236,50.744636 0.829264107,52.0938776 0.97786174,53.4360042 C0.378540116,50.6139524 0.0772595227,47.7371629 0.0772595227,44.8525305 C0.0772595227,22.0836162 18.5920576,3.62541091 41.4242067,3.62541091 Z M37.2533035,19.6425292 C54.1848412,19.6425292 67.9071934,33.3243448 67.9071934,50.202685 C67.9071934,67.0810252 54.1848412,80.7628791 37.2533035,80.7628791 C31.3353245,80.7722054 25.5424854,79.0642716 20.5812221,75.8473217 C28.7263294,80.4774425 39.0760671,78.0284187 44.2663396,70.2427917 C49.4566122,62.4571647 47.7149838,51.9936625 40.2806665,46.297327 C32.8463491,40.6009914 22.2581014,41.6170745 16.0497247,48.622608 C9.84134802,55.6281414 10.1329523,66.2307927 16.7170538,72.886512 C10.2713984,67.0982942 6.59543637,58.8520599 6.60515998,50.202685 C6.60515998,33.3254946 20.3275316,19.6425292 37.2533035,19.6425292 Z M27.4962834,0 C15.2442297,3.78034108 4.00656892,12.5208965 0,24.7705578 C0,9.2152171 13.0919031,0 27.4962834,0 Z" id="Shape"></path>
                </g>
                <g id="Bold-S" transform="translate(1800.38, 1.27)">
                    <path d="M40.7485672,3.56627953 C63.2105868,3.56627953 81.42,21.7222957 81.42,44.1209742 C81.42,66.5196528 63.2083181,84.6768 40.7485672,84.6768 C40.1564465,84.6768 39.5688632,84.6609649 38.9835484,84.6360813 C58.0346351,83.5853126 73.1598027,67.8486659 73.1598027,48.5887205 C73.1598027,28.6523923 56.9479462,12.483675 36.9508276,12.483675 C16.9537089,12.483675 0.741852378,28.6489991 0.741852378,48.5887205 C0.742274928,49.9169779 0.815738596,51.2442131 0.961912564,52.5644492 C0.372366029,49.7884258 0.0759994,46.9585575 0.0759994,44.1209742 C0.0759994,21.7234268 18.2888164,3.56627953 40.7485672,3.56627953 Z M36.6456926,19.3221545 C53.3010725,19.3221545 66.7996096,32.7808161 66.7996096,49.3838663 C66.7996096,65.9869164 53.3010725,79.4456157 36.6456926,79.4456157 C30.8242373,79.4547899 25.1258808,77.774713 20.2455371,74.6102324 C28.2577956,79.1648347 38.4387264,76.7557551 43.5443442,69.0971137 C48.6499621,61.4384723 46.9367402,51.1456325 39.6236784,45.5422056 C32.3106167,39.9387788 21.8950661,40.9382893 15.7879496,47.8295607 C9.6808331,54.7208321 9.96768122,65.1505514 16.4443944,71.6977142 C10.1038693,66.0039038 6.48786311,57.8921677 6.49742813,49.3838663 C6.49742813,32.7819472 19.9959843,19.3221545 36.6456926,19.3221545 Z M27.047812,0 C14.9955924,3.71868275 3.94122075,12.3166775 0,24.3665436 C0,9.06491454 12.8783708,0 27.047812,0 Z" id="Shape"></path>
                </g>
                <g id="Semibold-S" transform="translate(1504.14, 1.73)">
                    <path d="M40.2831267,3.52554457 C62.4885794,3.52554457 80.49,21.4741781 80.49,43.6170132 C80.49,65.7598483 62.4863366,83.7096 40.2831267,83.7096 C39.6977694,83.7096 39.1168975,83.6939458 38.5382684,83.6693464 C57.3717487,82.6305799 72.3241528,67.0736811 72.3241528,48.0337278 C72.3241528,28.3251174 56.2974722,12.3410832 36.5287658,12.3410832 C16.7600593,12.3410832 0.733378751,28.3217629 0.733378751,48.0337278 C0.733796474,49.3468135 0.806421022,50.6588886 0.950925353,51.9640447 C0.36811277,49.2197297 0.0751313154,46.4221848 0.0751313154,43.6170132 C0.0751313154,21.4752962 18.0799168,3.52554457 40.2831267,3.52554457 Z M36.2271161,19.1014519 C52.692254,19.1014519 66.0366075,32.4063853 66.0366075,48.8197912 C66.0366075,65.2331971 52.692254,78.5381677 36.2271161,78.5381677 C30.472155,78.5472371 24.8388866,76.8863504 20.0142874,73.7580153 C27.9350278,78.2605937 37.9996695,75.8790313 43.0469696,68.3078689 C48.0942698,60.7367064 46.4006167,50.5614341 39.1710867,45.022011 C31.9415566,39.4825878 21.644975,40.4706817 15.6076156,47.2832393 C9.57025616,54.0957968 9.85382783,64.4063852 16.2565623,70.8787646 C9.98846029,65.2499904 6.41375708,57.2309086 6.42321284,48.8197912 C6.42321284,32.4075034 19.7675851,19.1014519 36.2271161,19.1014519 Z M26.738865,0 C14.8243089,3.67620701 3.89620312,12.1759933 0,24.0882228 C0,8.96137277 12.7312708,0 26.738865,0 Z" id="Shape"></path>
                </g>
                <g id="Medium-S" transform="translate(1207.78, 2.08)">
                    <path d="M39.9277904,3.49444584 C61.9373694,3.49444584 79.78,21.284755 79.78,43.2322688 C79.78,65.1797826 61.9351464,82.9712 39.9277904,82.9712 C39.3475965,82.9712 38.7718485,82.9556839 38.1983234,82.9313015 C56.8656742,81.9016979 71.6861835,66.4820261 71.6861835,47.6100236 C71.6861835,28.0752623 55.8008738,12.2322229 36.2065466,12.2322229 C16.6122193,12.2322229 0.726909638,28.0719374 0.726909638,47.6100236 C0.727323677,48.9115266 0.799307605,50.212028 0.942537268,51.5056713 C0.364865657,48.7855639 0.0744685842,46.0126961 0.0744685842,43.2322688 C0.0744685842,21.2858633 17.9204344,3.49444584 39.9277904,3.49444584 Z M35.9075577,18.9329586 C52.2274572,18.9329586 65.4541004,32.1205295 65.4541004,48.3891532 C65.4541004,64.6577769 52.2274572,77.8453847 35.9075577,77.8453847 C30.203361,77.8543741 24.6197835,76.2081381 19.8377419,73.1073979 C27.6886138,77.5702593 37.6644754,75.2097046 42.6672535,67.7053271 C47.6700316,60.2009496 45.9913182,50.1154331 38.8255596,44.6248731 C31.659801,39.1343131 21.4540453,40.113691 15.4699413,46.8661552 C9.4858372,53.6186193 9.76690749,63.8382583 16.1131636,70.2535451 C9.90035237,64.6744221 6.35718151,56.7260764 6.36655387,48.3891532 C6.36655387,32.1216378 19.5932157,18.9329586 35.9075577,18.9329586 Z M26.5030022,0 C14.6935441,3.64377929 3.86183482,12.0685892 0,23.8757412 C0,8.88232476 12.6189686,0 26.5030022,0 Z" id="Shape"></path>
                </g>
                <g id="Regular-S" transform="translate(911.53, 2.54)">
                    <path d="M39.4673546,3.4541489 C61.2231255,3.4541489 78.86,21.0393053 78.86,42.7337267 C78.86,64.4281481 61.2209281,82.0144 39.4673546,82.0144 C38.8938513,82.0144 38.3247427,81.9990628 37.7578314,81.9749616 C56.2099156,80.9572311 70.8595191,65.7153745 70.8595191,47.0609985 C70.8595191,27.7515065 55.1573942,12.0911644 35.7890231,12.0911644 C16.420652,12.0911644 0.718527125,27.7482199 0.718527125,47.0609985 C0.718936389,48.347493 0.790090219,49.6329973 0.931668199,50.9117227 C0.360658132,48.2229828 0.073609834,45.4820909 0.073609834,42.7337267 C0.073609834,21.0404008 17.7137811,3.4541489 39.4673546,3.4541489 Z M35.4934821,18.7146291 C51.6251852,18.7146291 64.6993026,31.7501248 64.6993026,47.8311434 C64.6993026,63.912162 51.6251852,76.9476941 35.4934821,76.9476941 C29.8550645,76.9565799 24.3358753,75.3293278 19.6089788,72.2643444 C27.3693166,76.6757414 37.2301396,74.3424079 42.1752271,66.9245688 C47.1203145,59.5067296 45.4609596,49.5375164 38.3778344,44.1102719 C31.2947093,38.6830274 21.2066434,39.6511115 15.2915463,46.3257081 C9.37644925,53.0003048 9.65427833,63.1020939 15.9273513,69.4434014 C9.78618435,63.9286152 6.28387233,56.0719276 6.2931366,47.8311434 C6.2931366,31.7512203 19.3672724,18.7146291 35.4934821,18.7146291 Z M26.1973772,0 C14.5241024,3.60176027 3.81730126,11.9294177 0,23.6004131 C0,8.77989635 12.4734503,0 26.1973772,0 Z" id="Shape"></path>
                </g>
                <g id="Light-S" transform="translate(615.55, 3.27)">
                    <path d="M38.7316583,3.38976139 C60.0818879,3.38976139 77.39,20.6471194 77.39,41.9371432 C77.39,63.2271669 60.0797315,80.4856 38.7316583,80.4856 C38.1688455,80.4856 37.6103454,80.4705487 37.0540016,80.4468967 C55.1621274,79.4481373 69.5386531,64.4903986 69.5386531,46.1837519 C69.5386531,27.2342009 54.1292257,11.8657775 35.1218932,11.8657775 C16.1145607,11.8657775 0.705133328,27.2309757 0.705133328,46.1837519 C0.705534963,47.4462653 0.775362441,48.707807 0.914301318,49.9626962 C0.353935237,47.324076 0.0722377004,44.6342761 0.0722377004,41.9371432 C0.0722377004,20.6481945 17.3835851,3.38976139 38.7316583,3.38976139 Z M34.8318613,18.3657767 C50.6628592,18.3657767 63.4932669,31.1582825 63.4932669,46.9395408 C63.4932669,62.7207991 50.6628592,75.5133407 34.8318613,75.5133407 C29.2985473,75.5220608 23.8822392,73.9251417 19.2434551,70.9172916 C26.8591354,75.2464573 36.5361463,72.9566187 41.3890543,65.6770527 C46.2419622,58.3974868 44.6135387,48.6141059 37.6624475,43.2880287 C30.7113562,37.9619515 20.8113383,38.9119898 15.0065023,45.4621678 C9.20166634,52.0123458 9.47431651,61.9258312 15.6304554,68.1489327 C9.60376372,62.7369456 6.16673699,55.0267116 6.17582858,46.9395408 C6.17582858,31.1593576 19.0062543,18.3657767 34.8318613,18.3657767 Z M25.7090416,0 C14.253364,3.5346212 3.74614436,11.7070458 0,23.1604865 C0,8.61623356 12.2409373,0 25.7090416,0 Z" id="Shape"></path>
                </g>
                <g id="Thin-S" transform="translate(319.81, 4.23)">
                    <path d="M37.7607394,3.3047874 C58.5757649,3.3047874 75.45,20.1295408 75.45,40.8858696 C75.45,61.6421985 58.5736625,78.468 37.7607394,78.468 C37.212035,78.468 36.6675353,78.453326 36.1251379,78.4302669 C53.7793321,77.4565443 67.7954694,62.8737637 67.7954694,45.0260251 C67.7954694,26.5514984 52.772323,11.5683281 34.2414633,11.5683281 C15.7106035,11.5683281 0.68745716,26.548354 0.68745716,45.0260251 C0.687848726,46.25689 0.755925781,47.4868076 0.89138176,48.7102394 C0.345062846,46.1377638 0.0704268574,43.5153913 0.0704268574,40.8858696 C0.0704268574,20.1305889 16.9478162,3.3047874 37.7607394,3.3047874 Z M33.9587018,17.9053864 C49.3928509,17.9053864 61.9016279,30.3772117 61.9016279,45.762868 C61.9016279,61.1485243 49.3928509,73.6203845 33.9587018,73.6203845 C28.5640961,73.628886 23.2835631,72.0719982 18.7610633,69.1395484 C26.1858349,73.3601913 35.6202641,71.1277539 40.3515202,64.030671 C45.0827762,56.933588 43.4951737,47.3954553 36.7183313,42.2028914 C29.9414889,37.0103274 20.289643,37.9365503 14.6303217,44.3225295 C8.97100046,50.7085088 9.23681587,60.3734844 15.2386337,66.4405863 C9.36301813,61.164266 6.01215023,53.6473109 6.0210139,45.762868 C6.0210139,30.3782598 18.5298086,17.9053864 33.9587018,17.9053864 Z M25.0645715,0 C13.8960629,3.44601589 3.65223662,11.4135755 0,22.5799032 C0,8.40024321 11.9340835,0 25.0645715,0 Z" id="Shape"></path>
                </g>
                <g id="Ultralight-S" transform="translate(23.59, 4.72)">
                    <path d="M37.2602657,3.26098638 C57.7994128,3.26098638 74.45,19.8627476 74.45,40.3439761 C74.45,60.8252045 57.7973383,77.428 37.2602657,77.428 C36.7188338,77.428 36.1815508,77.4135205 35.6463422,77.390767 C53.066551,76.4299499 66.8969211,62.0404468 66.8969211,44.4292587 C66.8969211,26.1995899 52.0728886,11.4150037 33.7876334,11.4150037 C15.5023782,11.4150037 0.678345733,26.1964871 0.678345733,44.4292587 C0.67873211,45.64381 0.745906884,46.8574265 0.879567556,48.0646431 C0.340489448,45.5262626 0.0694934332,42.9386466 0.0694934332,40.3439761 C0.0694934332,19.8637819 16.723193,3.26098638 37.2602657,3.26098638 Z M33.5086196,17.6680718 C48.7382074,17.6680718 61.0811955,29.9745979 61.0811955,45.1563356 C61.0811955,60.3380733 48.7382074,72.6446339 33.5086196,72.6446339 C28.185513,72.6530227 22.9749672,71.1167696 18.5124077,68.2231859 C25.8387728,72.3878892 35.1481599,70.1850402 39.8167088,63.1820206 C44.4852576,56.179001 42.9186969,46.767285 36.2316735,41.6435423 C29.5446501,36.5197995 20.0207279,37.4337465 14.4364142,43.7350871 C8.85210052,50.0364278 9.11439287,59.5733057 15.0366637,65.5599954 C9.23892246,60.3536065 5.93246633,52.9362796 5.94121253,45.1563356 C5.94121253,29.9756321 18.284218,17.6680718 33.5086196,17.6680718 Z M24.7323705,0 C13.7118872,3.40034304 3.60383057,11.2623021 0,22.2806334 C0,8.28890798 11.7759114,0 24.7323705,0 Z" id="Shape"></path>
                </g>
            </g>
        </g>
    </g>
</svg>